<svg xmlns="http://www.w3.org/2000/svg" viewBox="0 0 48 48" id="MobileAppDevelopment"><path fill="#052c55" d="M14.7 4.8h6.7c.4 0 .7-.3.7-.7s-.3-.7-.7-.7h-6.7c-.4 0-.7.3-.7.7s.3.7.7.7zM18 41.3c-1.4 0-2.5 1.1-2.5 2.5s1.1 2.5 2.5 2.5 2.5-1.1 2.5-2.5-1.1-2.5-2.5-2.5zm0 3.5c-.5 0-1-.4-1-1s.4-1 1-1 1 .4 1 1-.4 1-1 1z" class="color231f20 svgShape"></path><path fill="#052c55" d="m45.6 21.5-1.8-.4c-.2-.9-.6-1.8-1.1-2.7l1-1.6c.3-.5.2-1.1-.2-1.6l-1.8-1.7c-.4-.4-1.1-.5-1.6-.2l-1.6 1c-.8-.5-1.7-.9-2.7-1.1-.1-.3-.1-.5-.1-.7-.2-1-.3-1.7-1.1-2V4.1c0-2.2-1.8-4.1-4.1-4.1h-25c-2.2 0-4 1.8-4 4.1V44c0 2.2 1.8 4.1 4 4.1h25.1c2.2 0 4.1-1.8 4.1-4.1v-6.4c.4-.1.7-.5.8-.9l.4-1.8c.9-.2 1.8-.6 2.7-1.1l1.6 1c.2.1.4.2.7.2.3 0 .7-.1.9-.4l1.8-1.8c.4-.4.5-1.1.2-1.6l-1-1.6c.5-.8.9-1.7 1.1-2.7l1.8-.4c.6-.1 1-.6 1-1.2v-2.5c-.1-.6-.6-1.2-1.1-1.3zm-15 25H5.5c-1.4 0-2.6-1.2-2.6-2.6V4.1c0-1.4 1.2-2.6 2.6-2.6h25.1c1.4 0 2.6 1.2 2.6 2.6v6.3h-1.5c-.6 0-1.1.4-1.2 1l-.1.4V6.9c0-.4-.3-.7-.7-.7H6.4c-.4 0-.7.3-.7.7v31.7c0 .4.3.7.7.7h23.2c.4 0 .7-.3.7-.7v-2.5l.1.4c.1.6.6 1 1.2 1H33v6.4c.2 1.5-1 2.6-2.4 2.6zm-8.3-29.6 1 1.6c-.5.8-.9 1.7-1.1 2.7l-1.8.4c-.6.1-1 .6-1 1.2v2.5c0 .6.4 1.1 1 1.2l1.8.4c.3.9.6 1.8 1.1 2.7l-1 1.6c-.3.5-.3 1.2.2 1.6l1.8 1.8c.4.4 1 .5 1.6.2l1.6-1c.5.3 1 .5 1.5.7v3.6H7.2V7.7H29v6c-.5.2-1 .4-1.5.7l-1.6-1c-.5-.3-1.2-.2-1.6.2l-1.8 1.8c-.4.3-.5 1-.2 1.5zm22.8 8.2-2.1.4c-.3.1-.5.3-.6.6-.2 1.1-.7 2.1-1.3 3.1-.2.2-.2.6 0 .8l1.2 1.8-1.5 1.5-1.8-1.2c-.2-.2-.6-.2-.8 0-4 2.5-3.1-.4-4.1 3.9H32l-.5-2c-.1-.3-.3-.5-.6-.6-1.1-.2-2.1-.7-3.1-1.3-.2-.2-.6-.2-.8 0l-1.8 1.2-1.5-1.5 1.2-1.8c.2-.2.2-.6 0-.8-.6-.9-1-2-1.3-3.1-.1-.3-.3-.5-.6-.6l-2.1-.5v-2.1l2.1-.5c.3-.1.5-.3.6-.6.2-1.1.7-2.1 1.3-3.1.2-.2.2-.6 0-.8l-1.2-1.8 1.5-1.5 1.8 1.2c.2.2.6.2.8 0 .9-.6 2-1 3.1-1.3.3-.1.5-.3.6-.6l.5-2.1h2.1c.1.2.1.5.2.9.1.3.1.7.2 1.2.1.3.3.5.6.6 1.1.2 2.1.7 3.1 1.3.2.2.6.2.8 0l1.8-1.2 1.5 1.5-1.2 1.9c-.2.2-.2.6 0 .8.6 1 1 2 1.3 3.1.1.3.3.5.6.6l2.1.5v2.1z" class="color231f20 svgShape"></path><path fill="#052c55" d="M33 17.6c-3.5 0-6.4 2.9-6.4 6.4 0 3.5 2.9 6.4 6.4 6.4 3.5 0 6.4-2.9 6.4-6.4 0-3.5-2.9-6.4-6.4-6.4zM28.1 24c0-1 .3-1.9.8-2.7v5.4c-.5-.8-.8-1.7-.8-2.7zm2.3 4.1v-8.3c.8-.5 1.7-.8 2.7-.7v9.7c-1 .1-1.9-.2-2.7-.7zm4.2.5v-9.2c1.9.7 3.2 2.5 3.2 4.6s-1.3 3.9-3.2 4.6z" class="color231f20 svgShape"></path></svg>