<svg xmlns="http://www.w3.org/2000/svg" data-name="Layer 1" viewBox="0 0 128 128" id="invoicing"><path d="M124,34H107V6a6.00656,6.00656,0,0,0-6-6H35a6.00656,6.00656,0,0,0-6,6V8H27a6.00656,6.00656,0,0,0-6,6V34H4a4,4,0,0,0-4,4v78a4,4,0,0,0,4,4H54v4H45a2,2,0,0,0,0,4H83a2,2,0,0,0,0-4H74v-4h50a4,4,0,0,0,4-4V38A4,4,0,0,0,124,34ZM21,38V81a2,2,0,0,0,4,0V14a2.00229,2.00229,0,0,1,2-2H93a2.00229,2.00229,0,0,1,2,2V56.52753a23.94627,23.94627,0,0,1,4-.50214V14a6.00656,6.00656,0,0,0-6-6H33V6a2.00229,2.00229,0,0,1,2-2h66a2.00229,2.00229,0,0,1,2,2V56.19421a23.82012,23.82012,0,0,1,4,.84979V38h17v70H4V38Zm37,86v-4H70v4ZM4,116v-4H124v4Z"></path><path d="M36 33H84a2 2 0 0 0 0-4H36a2 2 0 0 0 0 4zM36 41H84a2 2 0 0 0 0-4H36a2 2 0 0 0 0 4zM36 49H84a2 2 0 0 0 0-4H36a2 2 0 0 0 0 4zM36 57H84a2 2 0 0 0 0-4H36a2 2 0 0 0 0 4zM36 65H58a2 2 0 0 0 0-4H36a2 2 0 0 0 0 4zM80 79.99854A20 20 0 1 0 100 60 20.00121 20.00121 0 0 0 80 79.99854zM100 64A16 16 0 1 1 84 79.99854 16.01735 16.01735 0 0 1 100 64z"></path><path d="M101.5293,85.9375a3.34268,3.34268,0,0,1-2.71143-.06641,3.436,3.436,0,0,1-1.915-2.04,2.00012,2.00012,0,0,0-3.80566,1.23242,7.43921,7.43921,0,0,0,4.10254,4.46582A7.85411,7.85411,0,0,0,98,89.83051V91a2,2,0,0,0,4,0V89.97943a6.78592,6.78592,0,0,0,1.18164-.39935,5.48047,5.48047,0,0,0,3.1665-6.53418c-.918-3.03516-3.61377-3.85059-5.58252-4.44727-1.53564-.46484-2.499-.80078-2.9248-1.54785a1.919,1.919,0,0,1-.04443-1.88281c.55127-.89941,1.99512-1.07031,3.09229-.85156a3.11249,3.11249,0,0,1,2.17871,2.06543,2,2,0,0,0,3.86523-1.0293A7.08614,7.08614,0,0,0,102,70.48578V69a2,2,0,0,0-4,0v1.49579a5.807,5.807,0,0,0-3.60937,2.57452,5.90739,5.90739,0,0,0-.02295,5.96484c1.24365,2.18262,3.459,2.85352,5.23926,3.39258,1.85791.5625,2.6416.87988,2.91016,1.76953A1.54681,1.54681,0,0,1,101.5293,85.9375Z"></path></svg>