<svg xmlns="http://www.w3.org/2000/svg" width="655.359" height="655.359" fill-rule="evenodd" clip-rule="evenodd" image-rendering="optimizeQuality" shape-rendering="geometricPrecision" text-rendering="geometricPrecision" viewBox="0 0 6.827 6.827" id="brand-strategy"><path d="M3.96783 1.85602l-0.793874 0c-0.0388583,0 -0.070185,-0.0314055 -0.070185,-0.0701457 2.75591e-005,-0.038748 0.0313071,-0.0701575 0.0701575,-0.0701575l0.793902 -1.1811e-005c0.038752,0 0.0701535,0.0314213 0.0701535,0.0701693 3.93701e-006,0.0387402 -0.0314291,0.0701575 -0.0701535,0.0701457zm2.05759 3.41374l-5.49262 0c-0.100957,0 -0.183197,-0.0821378 -0.183197,-0.183146l1.9685e-005 -3.18773c0,-0.101 0.0821969,-0.183165 0.183169,-0.183165l0.731343 -1.1811e-005c0.0387008,0 0.0701063,0.0314213 0.0701063,0.0701693 0,0.0387402 -0.0314291,0.0701575 -0.0701535,0.0701575l-0.731287 -1.1811e-005c-0.0232402,0 -0.0428819,0.0196417 -0.0428819,0.0428701l1.9685e-005 3.18772c0,0.0232244 0.0195866,0.0428583 0.0428543,0.0428583l5.49263 0c0.0232913,0 0.0428661,-0.0196299 0.0428661,-0.0428583l4.72441e-005 -2.56907c0,-0.038748 0.031378,-0.0701417 0.0701102,-0.0701417 0.038748,-1.5748e-005 0.0701575,0.0314016 0.0701575,0.0701457l4.72441e-005 2.56907c0,0.101 -0.0822598,0.18315 -0.183228,0.183146z"></path><path d="M3.00706 5.76487l0.544098 0 0 -0.495118 -0.544098 0 0 0.495118zm0.614256 0.140315l-0.684413 0c-0.0386969,0 -0.0701575,-0.0314134 -0.0701575,-0.0701457l0 -0.635429c0,-0.038752 0.0314252,-0.0701457 0.0701575,-0.0701457l0.684413 0c0.038752,0 0.0701457,0.0314016 0.0701457,0.0701496l1.1811e-005 0.635413c0,0.0387362 -0.0314409,0.0701693 -0.0701575,0.0701575z"></path><path d="M3.27919 6.34123c-.31752 0-.616827-.0353071-.842898-.099378-.260272-.0737008-.392185-.175024-.392185-.300969.0000393701-.286114.678669-.367472.886697-.385504.038878-.00329528.0727244.0252165.0760079.0638268.0034252.0386063-.0252047.0725945-.0638189.0758819-.536.0466378-.758571.183189-.758571.245795.0000393701.0882992.386346.260047 1.09474.260047.708291-.000015748 1.09475-.171744 1.09475-.260047.00000787402-.0626102-.222535-.199146-.758701-.245795-.0385591-.00329528-.0671063-.0372717-.0638189-.0758819.00343701-.038622.0376339-.0671142.076-.0638268.208067.0180236.886835.0993898.886835.385504.00000787402.125937-.132035.22728-.392197.300969-.226161.0640669-.525449.0993937-.842843.099378zM5.82761 3.81174c-.0386969 0-.0701575-.0314016-.0701575-.0701457 0-.808232.19002-1.07628.357732-1.3128.123783-.174551.221555-.312421.221555-.653681.00000787402-.633772-.515705-1.14938-1.14944-1.14938-.633697-.00000787402-1.14931.51561-1.14931 1.14938.00000393701.341252.097689.47913.221437.653681.167728.236512.357843.504575.357843 1.3128.000015748.0387441-.0314173.0701575-.0701417.0701575-.038689-.000011811-.0701732-.0314134-.0701732-.0701575.000015748-.763535-.176358-1.01223-.331902-1.23164-.127283-.179413-.247378-.348878-.247378-.734839.00000393701-.711154.578563-1.28968 1.28963-1.28968.71124-.00000787402 1.28976.578543 1.28976 1.28968.00000787402.385949-.12022.555425-.247382.734839-.15563.219398-.331906.468102-.331906 1.23164 0 .0387441-.0314213.0701575-.0701575.0701457z"></path><path d="M4.62134 3.81174c.0338228.289811.274732.515197.565957.515197.291276-.00000393701.532161-.225382.566016-.515185l-1.13197-.000011811zm.565969.655508c-.391665 0-.710358-.325539-.710358-.725654.000015748-.038748.0314331-.0701575.0701732-.0701575l1.28048-.000011811c.038752 0 .0701575.0314252.0701575.0701693 0 .400106-.318748.725657-.710457.725654zM5.83605 3.55258l-1.29648 0c-.0386969 0-.0701575-.0313858-.0701575-.0701299 0-.0387638.0314173-.0701575.0701575-.0701575l1.29648-.000011811c.0388543 0 .070122.0314134.070122.0701693.0000354331.0387402-.0313071.0701417-.070122.0701299z"></path><path d="M4.98588 3.55258c-.038752 0-.0702008-.0313858-.0702008-.0701299l.0000433071-1.34586c0-.038748.0313898-.0701417.0701142-.0701417.0387402 0 .0701575.0314016.0701575.0701457l.0000433071 1.34584c0 .038752-.0314685.0701535-.0701575.0701417zM5.38989 3.55258c-.0388622 0-.0701969-.0313858-.0701969-.0701299l.0000393701-1.34586c0-.038748.0312677-.0701417.0701181-.0701417.0387362 0 .0701575.0314016.0701575.0701457l.0000393701 1.34584c0 .038752-.0314606.0701535-.0701575.0701417z"></path><path d="M4.92872 1.85288c-0.111437,0 -0.189039,0.0574331 -0.189039,0.10898 4.72441e-005,0.0515315 0.0775866,0.108965 0.189039,0.108965 0.111366,-3.93701e-006 0.188913,-0.0574331 0.188913,-0.108965 1.5748e-005,-0.0515512 -0.0775866,-0.108976 -0.188913,-0.10898zm0 0.358256c-0.184606,0 -0.329354,-0.109496 -0.329354,-0.249276 4.72441e-005,-0.13978 0.144701,-0.24928 0.329354,-0.24928 0.184654,-3.93701e-006 0.329228,0.1095 0.329228,0.24928 1.5748e-005,0.13978 -0.144583,0.24928 -0.329228,0.249276z"></path><path d="M5.447 1.85288c-.111311 0-.189051.0574331-.189051.10898.000015748.0515315.0777126.108965.189039.108965.111339-.00000393701.189031-.0574331.189031-.108965.0000275591-.0515512-.0777047-.108976-.18902-.10898zm0 .358256c-.184654 0-.329366-.109496-.329366-.249276.000015748-.13978.144701-.24928.329354-.24928.184673-.00000393701.329346.1095.329346.24928.0000275591.13978-.144709.24928-.329335.249276zM2.93291 2.81206l-.938358 0c-.0386969 0-.0701732-.0313976-.0701732-.0701417.000015748-.038752.0314291-.0701575.0701535-.0701575l.938378 0c.0941614 0 .170866-.0766614.170866-.17089l.0000275591-1.11251c0-.0942205-.0767598-.170878-.170906-.170878l-1.42775-.000011811c-.0942717 0-.170898.0766732-.170898.170898l0 1.1125c0 .0942244.0766102.17089.170894.17089l.118067 0c.0386969 0 .0701102.0314134.0701102.0701575.0000472441.0387323-.0314291.0701457-.0701575.0701457l-.118016-.00000393701c-.17161 0-.311213-.139594-.311213-.311189l0-1.11251c0-.171587.139583-.311193.311209-.311193l1.42777-.000011811c.1715 0 .311181.139618.311181.311213l.0000275591 1.1125c0 .171587-.139728.311193-.311209.311189z"></path><path d="M1.63148 3.24185c-.00794488 0-.015874-.0013189-.0235472-.00403543-.0274803-.00979134-.0461614-.0355787-.0466496-.0647756l-.00823622-.429772c-.000767717-.038752.0300354-.0707559.0687677-.0714882.0382756-.00111024.0707638.030063.0715.0687953l.00464961.243622.242976-.287563c.0249961-.0295787.0693031-.0333071.0988976-.00830315.0296339.0249961.033252.0692717.00827559.0988661l-.363031.429768c-.0136417.0160748-.0334252.0248937-.0536024.0248858zM1.90537 4.66473l2.04728 0c.107764 0 .195449-.0877008.195449-.195508.000011811-.107815-.0876969-.195531-.195488-.195531l-2.04724-.00000787402 0 .391047zm2.04728.140315l-2.11743 0c-.0386969 0-.0701575-.0314055-.0701575-.0701496l0-.531358c0-.038748.0314252-.0701457.0701575-.0701457l2.11743-.000011811c.185272 0 .335764.150665.335764.335843.000011811.185173-.150547.335831-.335803.335831l.0000393701-.00000787402z"></path><path d="M1.83521 4.80507c-.00898819 0-.0182717-.00177559-.0271575-.00551575l-.63139-.265673c-.0259291-.0109488-.0429055-.0364291-.0429055-.0646614.0000433071-.0282441.0169291-.0537283.042878-.0646654l.631445-.265681c.0356811-.0150472.0768228.00175197.0918071.0374606.015126.0357126-.00170079.0768465-.0373898.091874l-.477665.201012.477673.201c.0356811.0150315.0524882.0561732.0373819.0918819-.011185.0268228-.0372717.0429724-.0646772.0429685zM3.59041 4.80504c-.0387559 0-.0702008-.0314055-.0702008-.0701496l.0000433071-.531358c0-.038748.0313819-.0701457.0701142-.0701457.0387402-.000011811.0701575.0314016.0701575.0701575l.0000393701.531339c0 .038748-.0314567.0701654-.0701535.0701575zM.962189 4.01415l.287917 0 0-.690283-.287917 0 0 .690283zm.358075.140315l-.428232 0c-.038752 0-.0702047-.0314094-.0702047-.0701535l.0000472441-.830602c0-.038752.031378-.0701535.0701102-.0701535l.42828-.00000393701c.0387559 0 .070126.0314173.070126.0701614l.0000314961.830594c0 .0387362-.0314449.0701614-.0701575.0701575zM2.77384 3.56397l-1.20693 0c-.0388583 0-.070189-.0314016-.070189-.0701457.0000314961-.0387638.031311-.0701575.0701614-.0701575l1.20695 0c.038752 0 .0701299.0314016.0701299.0701575.0000275591.0387402-.0314252.0701457-.0701299.0701457zM2.77384 3.91437l-1.20693 0c-.0388583 0-.070189-.0314055-.070189-.0701496.0000314961-.0387441.031311-.0701575.0701614-.0701575l1.20695-.00000787402c.038752 0 .0701299.0314213.0701299.0701654.0000275591.0387441-.0314252.0701575-.0701299.0701496z"></path><rect width="6.827" height="6.827" fill="none"></rect></svg>