<svg xmlns="http://www.w3.org/2000/svg" viewBox="0 0 65 65" id="professional"><path fill="#3AB7FC" d="M47.915 30.32a.5.5 0 0 1-.199-.489l.936-5.456-3.963-3.864a.498.498 0 0 1 .276-.852l5.478-.796 2.45-4.963a.5.5 0 0 1 .896 0l2.449 4.963 5.479.796a.498.498 0 0 1 .276.853l-3.964 3.864.937 5.456a.5.5 0 0 1-.725.527l-4.899-2.576-4.899 2.576a.504.504 0 0 1-.528-.039zm-1.804-9.817 3.426 3.34c.118.115.172.28.144.442l-.809 4.716 4.235-2.226a.497.497 0 0 1 .465 0l4.235 2.226-.81-4.716a.501.501 0 0 1 .145-.443l3.427-3.34-4.736-.688a.5.5 0 0 1-.376-.274l-2.117-4.291-2.118 4.291a.5.5 0 0 1-.376.274l-4.735.689z"></path><path fill="#88C057" d="m42.439 11.913-2.667-1.402-2.667 1.402a.5.5 0 0 1-.725-.527l.51-2.969-2.157-2.103a.501.501 0 0 1 .276-.853l2.981-.433 1.334-2.702a.5.5 0 0 1 .896 0l1.333 2.702 2.982.433a.498.498 0 0 1 .276.853l-2.157 2.103.51 2.969a.5.5 0 0 1-.725.527zm-2.667-2.467c.08 0 .16.019.232.057l2.003 1.053-.383-2.23a.501.501 0 0 1 .145-.443l1.62-1.579-2.24-.325a.5.5 0 0 1-.376-.274l-1.001-2.029-1.002 2.03a.498.498 0 0 1-.376.273l-2.239.325 1.62 1.579a.5.5 0 0 1 .144.443l-.383 2.23 2.003-1.053a.504.504 0 0 1 .233-.057z"></path><path fill="#9A7BAA" d="m16.061 28.418-4.102-2.157-4.103 2.157a.5.5 0 0 1-.725-.527l.784-4.568-3.318-3.235a.5.5 0 0 1 .276-.853l4.587-.667 2.052-4.156a.5.5 0 0 1 .896 0l2.051 4.156 4.588.667a.498.498 0 0 1 .276.853l-3.319 3.235.784 4.568a.5.5 0 0 1-.727.527zM6.018 20.079l2.781 2.712c.118.115.172.28.144.442l-.657 3.829 3.439-1.808a.497.497 0 0 1 .465 0l3.439 1.808-.657-3.829a.501.501 0 0 1 .145-.443l2.782-2.711-3.846-.559a.5.5 0 0 1-.376-.274l-1.719-3.483-1.72 3.483a.5.5 0 0 1-.376.274l-3.844.559z"></path><path fill="#ED7161" d="M18.797 10.878a.5.5 0 0 1-.199-.489l.448-2.609-1.896-1.847a.5.5 0 0 1 .277-.853l2.62-.381 1.172-2.374a.5.5 0 0 1 .896 0l1.171 2.374 2.62.381a.498.498 0 0 1 .276.853L24.288 7.78l.448 2.609a.5.5 0 0 1-.725.527l-2.343-1.232-2.344 1.232a.5.5 0 0 1-.527-.038zm-.223-4.954 1.358 1.324c.118.115.172.28.145.443l-.321 1.87 1.68-.883a.497.497 0 0 1 .465 0l1.679.882-.323-1.87a.503.503 0 0 1 .144-.443l1.358-1.324-1.878-.273a.5.5 0 0 1-.376-.274l-.839-1.701-.84 1.701a.496.496 0 0 1-.376.273l-1.876.275z"></path><path fill="#FC6" d="M8.467 8.563 6.382 7.467 4.297 8.563a.502.502 0 0 1-.725-.527l.398-2.322-1.685-1.643a.5.5 0 0 1 .276-.853l2.331-.339L5.934.767c.168-.341.729-.341.897 0l1.042 2.112 2.331.339a.498.498 0 0 1 .276.853L8.794 5.714l.398 2.321a.5.5 0 0 1-.725.528zM6.382 6.402c.08 0 .16.019.232.057l1.421.747-.271-1.582a.502.502 0 0 1 .145-.442l1.148-1.12-1.589-.231a.501.501 0 0 1-.376-.274l-.71-1.439-.71 1.439a.498.498 0 0 1-.376.274l-1.588.231 1.148 1.12c.118.115.172.28.145.442l-.272 1.582 1.421-.747a.497.497 0 0 1 .232-.057z"></path><path fill="#FFA769" d="M56.005 8.525a.498.498 0 0 1-.199-.489l.4-2.321-1.687-1.644a.499.499 0 0 1 .276-.853l2.331-.339L58.168.767c.168-.341.729-.342.896 0l1.043 2.112 2.331.339a.498.498 0 0 1 .276.853l-1.687 1.644.398 2.321a.5.5 0 0 1-.725.527l-2.085-1.096-2.085 1.096a.5.5 0 0 1-.525-.038zm2.612-2.123c.08 0 .16.019.232.057l1.421.747-.271-1.582a.501.501 0 0 1 .145-.443l1.149-1.12-1.589-.231a.502.502 0 0 1-.376-.273l-.711-1.439-.71 1.439a.5.5 0 0 1-.376.274l-1.589.231 1.149 1.12a.504.504 0 0 1 .145.443l-.272 1.582 1.421-.747a.487.487 0 0 1 .232-.058z"></path><path fill="#E7B95D" d="M36.224 29.917h-7.633a.5.5 0 0 0-.5.5v10.447a.5.5 0 0 0 .714.452l3.651-1.726 3.549 1.724a.5.5 0 0 0 .718-.45V30.417a.499.499 0 0 0-.499-.5z"></path><path fill="#F06EAA" d="M47.088 43.561c-.306-3.56-4.385-5.14-4.589-5.216l-3.777-1.155-1.592-.556a.5.5 0 0 0-.662.415c-.152 1.33-.881 1.379-2.652 1.368l-.159-.001h-.004c-.39 0-.853.356-1.253.76-.423-.442-.917-.835-1.332-.835h-.259c-1.703.009-2.282-.057-2.421-1.305a.502.502 0 0 0-.664-.417l-1.663.584a.507.507 0 0 0-.082.038l-1.526.466a.434.434 0 0 0-.06.014l-2.066.635c-.175.066-4.271 1.647-4.56 5.207-.187 2.228-.12 6.006-.065 8.059a2.463 2.463 0 0 0 2.475 2.408h12.251c.02 0 .038-.001.057-.004a.666.666 0 0 0 .063.004H44.68a2.463 2.463 0 0 0 2.475-2.408c.055-2.056.121-5.834-.067-8.061z"></path><path fill="#EF5EA7" d="m38.73 36.902-1.766-1.333a.5.5 0 0 0-.639.031l-3.01 2.765a.499.499 0 0 0-.084.636l2.155 3.391a.5.5 0 0 0 .422.231h.017a.5.5 0 0 0 .422-.261l2.62-4.823a.496.496 0 0 0-.137-.637zM28.463 35.6a.5.5 0 0 0-.639-.031l-1.767 1.333a.5.5 0 0 0-.139.638l2.62 4.823a.501.501 0 0 0 .422.261h.018a.5.5 0 0 0 .422-.231l2.156-3.391a.499.499 0 0 0-.084-.636L28.463 35.6z"></path><path fill="#FC6" d="M39.221 26.046c-.631-3.948-3.463-6.843-6.813-6.843-3.352 0-6.184 2.895-6.814 6.843-1.076-.071-1.485.644-1.396 1.755.061 1 .569 3.39 1.783 3.115 1.06 3.176 3.574 5.263 6.428 5.263s5.367-2.087 6.428-5.263c1.173.265 1.721-2.097 1.782-3.115.087-1.111-.322-1.826-1.398-1.755z"></path><path fill="#515151" d="M38.805 19.373c-.379-2.283-2.506-3.28-3.82-3.237-1.473.048-3.577.547-5.437.356-1.162-.12-2.124.163-2.854.838-1.927 1.785-1.577 5.702-1.577 7.214 0 3 1.083 5.39 1.129 5.49.105.23.367.343.609.267a.501.501 0 0 0 .335-.576c-.288-1.408-.053-3.808.355-5.231 4.564.659 7.393-1.053 8.727-2.2.82 1.622 1.822 5.02 1.329 7.431a.5.5 0 0 0 .957.279c.038-.099.935-2.468 1.116-5.43.102-1.633-.078-3.838-.869-5.201zM49.235 43.573a1.757 1.757 0 0 0-1.342-.618h-30.93c-.52 0-.996.219-1.342.618-.391.448-.564 1.068-.475 1.701l2.451 17.516c.136.969.952 1.699 1.899 1.699H45.36c.946 0 1.762-.73 1.897-1.699l2.452-17.516c.089-.633-.083-1.253-.474-1.701z"></path></svg>