<svg xmlns="http://www.w3.org/2000/svg" enable-background="new 0 0 53 53" viewBox="0 0 53 53" id="mobile-apps-management"><path fill="#9ea9c9" d="M33.0084953,4.0983505L15.6485109,50.4083481l-2.5999756-1.5c-0.2300415-0.1400146-0.3800049-0.4299927-0.3800049-0.8400269l-0.1000366-34.1099854c0-0.8400269,0.5800171-1.8500366,1.3100586-2.2700195c2.7199717-1.7799683,5.4099741-3.4500122,8.0599985-4.9699707c2.5499878-1.4800415,5.0699463-2.8300173,7.539978-4.0400391c0.3699951-0.2099609,0.7000122-0.2299805,0.9400024-0.0899658L33.0084953,4.0983505z"></path><path fill="#4c5c75" d="M24.5331554,8.2189465c2.5542202-1.4747043,5.0706806-2.8233814,7.5470486-4.0335994c0.7245979-0.4183476,1.3136559-0.0826612,1.3160172,0.7499595l0.0967064,34.1117516c0.0023613,0.83218-0.5828705,1.846283-1.3074722,2.2646294c-2.6319599,1.7339287-5.2523003,3.3548355-7.8598099,4.8602829c-2.5941715,1.4977455-5.1756287,2.8812485-7.7452145,4.1492844c-0.7245989,0.4183464-1.3136587,0.082222-1.3160172-0.749958l-0.0967073-34.1117516c-0.0023603-0.8326206,0.5828724-1.8462849,1.3074713-2.2646322C19.1975117,11.4115076,21.8855877,9.7475452,24.5331554,8.2189465z"></path><path fill="#fff" d="M32.8497047,39.288353c0,0.4899902-0.3499756,1.1099854-0.7699585,1.3499756l-15.6000347,9.0100098c-0.1099854,0.0599976-0.2199707,0.0999756-0.2999878,0.0999756c-0.250001,0-0.2799692-0.289978-0.2799692-0.4199829l-0.0100098-3.2700195l-0.0300293-10.6099854l-0.0499878-20.2399902c-0.0100098-0.4799805,0.3500376-1.0900269,0.7700205-1.3500366l2.6300049-1.5099487l0.0799561,0.1999512c0.1300049,0.3099976,0.3900146,0.4900513,0.710022,0.4900513c0.1900024,0,0.3800049-0.0599976,0.5700073-0.1700439l7.6300049-4.4099731c0.4899902-0.2800293,0.9199829-0.8599854,1.0700073-1.4700317l0.1400146-0.5299683l2.7699566-1.6099854c0.1099854-0.0599976,0.2000122-0.0900269,0.2900391-0.0900269c0.25,0,0.289978,0.2999878,0.289978,0.4199829l0.0499878,20.4800415l0.0300293,10.6199951L32.8497047,39.288353z"></path><ellipse cx="21.001" cy="11.546" fill="#4c5c75" rx=".51" ry=".295" transform="rotate(-59.838 21.001 11.546)"></ellipse><path fill="#9ea9c9" d="M22.588316,10.2138472c0.1995125-0.1151886,0.3622417-0.0229063,0.3628922,0.2068014c0.0006504,0.2292662-0.1610241,0.509284-0.3605347,0.6244717c-0.1999054,0.1154156-0.3626366,0.0226927-0.363287-0.2065735C22.2267361,10.60884,22.3884106,10.3292627,22.588316,10.2138472z"></path><polygon fill="#9ea9c9" points="27.713 7.369 27.714 8.014 23.67 10.349 23.669 9.704"></polygon><path fill="#fff" d="M30.3173485,4.4043474c-0.0347652,0.0556474-0.097374,0.104291-0.1738625,0.1460161c-0.3824844,0.2225471-1.00144,0.2225471-1.3769646,0c-0.0765324-0.0417252-0.1321373-0.0903687-0.1808224-0.1460161c-0.194746-0.2086248-0.1321373-0.4728971,0.1738605-0.6537192c0.3755245-0.2225473,1.001442-0.2225473,1.3839264,0C30.4494839,3.9244893,30.5120506,4.1887612,30.3173485,4.4043474z"></path><path fill="#1d2943" d="M30.3173485,4.4043474c-0.0347652,0.0556474-0.097374,0.104291-0.1738625,0.1460161c-0.3824844,0.2225471-1.00144,0.2225471-1.3769646,0c-0.0765324-0.0417252-0.1321373-0.0903687-0.1808224-0.1460161c0.0417252-0.0556474,0.0973301-0.1043339,0.1738605-0.1460586c0.3755245-0.2155862,1.001442-0.2155862,1.3839264,0C30.2199745,4.3000135,30.2825832,4.3487,30.3173485,4.4043474z"></path><path fill="#111d33" d="M14.6543694,18.6893749l-0.0074387,2.8378887c-0.0014896,0.180069-0.0639896,0.3050785-0.1666718,0.3645973l-0.4276237,0.2494411c0.1011934-0.0580387,0.1651821-0.1830482,0.1651821-0.3631077l0.0089293-2.8378983c0-0.3571587-0.2500076-0.7916946-0.5625153-0.9717655c-0.1562624-0.0892849-0.2961493-0.0967236-0.3988314-0.0401726l0.429122-0.2509308c0.1026821-0.056551,0.2425594-0.0491028,0.3988218,0.0401821C14.4043617,17.8976784,14.655859,18.3337059,14.6543694,18.6893749z"></path><path fill="#4c5c75" d="M13.664506,17.9690838c-0.1558237-0.0899639-0.2957001-0.0974541-0.3986406-0.0409679c-0.1019993,0.0592175-0.1651659,0.1845951-0.1656704,0.3625507l-0.0080442,2.8375187c-0.0010147,0.3581047,0.2499504,0.7927914,0.5606422,0.9721699c0.155817,0.0899601,0.2966442,0.0990925,0.3995876,0.0415154c0.1019964-0.0581207,0.165163-0.1835003,0.1656733-0.3636436l0.0080442-2.8375187C14.2271109,18.5836983,13.9761448,18.1490097,13.664506,17.9690838z"></path><path fill="#111d33" d="M14.639492,23.8770542l-0.0074396,2.8378983c-0.0014896,0.1800594-0.0639887,0.3035793-0.1666718,0.3631077l-0.4276323,0.2509232c0.101202-0.0595303,0.1651917-0.1830406,0.1651917-0.3631096l0.0089283-2.8378983c0-0.3571587-0.2500076-0.7916946-0.5625238-0.971756c-0.1547642-0.0907822-0.2946501-0.0982227-0.3988228-0.0416718l0.4291134-0.2494316c0.1026821-0.0580406,0.242568-0.0491123,0.3988218,0.0401745C14.3894835,23.0853596,14.6409807,23.5198956,14.639492,23.8770542z"></path><path fill="#4c5c75" d="M13.6498003,23.1561012c-0.1558228-0.0899658-0.2956963-0.098547-0.3986397-0.0409698c-0.1020002,0.0592136-0.1651659,0.1845913-0.1656704,0.3625526l-0.0080442,2.8375187c-0.0010157,0.3581009,0.2499495,0.7927914,0.5606422,0.972168c0.1558161,0.089962,0.2966433,0.0990944,0.3995867,0.0415154c0.1020002-0.0592136,0.165163-0.1834984,0.1656742-0.3636436l0.0080442-2.8375187C14.2124052,23.7707157,13.9614401,23.3360252,13.6498003,23.1561012z"></path><path fill="#5094ff" d="M31.768507,19.3883286l-5.0899658,8.7999878l-0.7399902-0.4299927c-0.1500244-0.0900269-0.25-0.289978-0.25-0.5599976l-0.0100098-4.4500122c0-0.5499878,0.3800049-1.2099609,0.8599854-1.4899902l3.8800049-2.2399902c0.2399902-0.1400146,0.4500122-0.1500244,0.6099854-0.0599976L31.768507,19.3883286z"></path><path fill="#57b3fe" d="M31.1530113,19.447504c0.4771729-0.2754955,0.8619461-0.0510902,0.8635025,0.4971828l0.0126076,4.4478989c0.0015564,0.5483074-0.3806915,1.2155533-0.8578625,1.4910488l-3.879755,2.2399769c-0.4771709,0.2754955-0.8619461,0.0510902-0.8635006-0.4972172l-0.0126095-4.4479008c-0.0015545-0.5482712,0.3806915-1.215517,0.8578644-1.4910126L31.1530113,19.447504z"></path><path fill="#fff" d="M31.0977631,23.1383896c0,0.4732895-0.3330193,1.051754-0.7450008,1.2884254l-2.0860672,1.2007961c-0.4119282,0.2366714-0.7450027,0.0525875-0.7450027-0.4294739c0-0.3593407,0.1928043-0.7713223,0.4645157-1.0605812c0.0263214-0.420702,0.3243008-0.920311,0.6924667-1.1306629c0.0438156-0.0263195,0.0964031-0.0525875,0.1489906-0.0701332c0.1489887-0.3505669,0.4119282-0.6748676,0.7187347-0.8501778c0.4820614-0.2804852,0.8677235-0.0525875,0.8677235,0.4996109v0.0964012C30.7910099,22.4985104,31.0890427,22.6913681,31.0977631,23.1383896z"></path><path fill="#566df9" d="M23.5684948,33.2383041L18.478529,42.038353l-0.7399902-0.4300537c-0.1500244-0.0899658-0.25-0.2799683-0.25-0.5499878l-0.0100098-4.4599609c0-0.5400391,0.3800049-1.210022,0.8599854-1.4900513l3.8800049-2.2399902c0.2399902-0.1300049,0.4500122-0.1499634,0.6099854-0.0599976L23.5684948,33.2383041z"></path><path fill="#8fabfe" d="M19.0940075,41.9772148c-0.4771576,0.275486-0.8619308,0.0562325-0.8634853-0.4920731l-0.0126247-4.4530106c-0.0015545-0.5483055,0.3807068-1.2155609,0.8578644-1.4910469l3.8797684-2.2399864c0.4771576-0.275486,0.8619461-0.0510902,0.8635006,0.4972191l0.0126247,4.4530067c0.0015545,0.5483093-0.380722,1.2104187-0.8578796,1.4859047L19.0940075,41.9772148"></path><path fill="#e93565" d="M23.5385265,24.1383286l-5.0800171,8.789978l-0.7399902-0.4299927c-0.1599731-0.0899658-0.25-0.2799683-0.25-0.5499878l-0.0100098-4.4500122c-0.0100098-0.5499878,0.3800049-1.2199707,0.8500366-1.4899902l3.8800049-2.2399902c0.2399902-0.1400146,0.4599609-0.1500244,0.6099854-0.0599976L23.5385265,24.1383286z"></path><path fill="#f45170" d="M22.9297142,24.1952267c0.4771576-0.275486,0.8619461-0.0510883,0.8635006,0.4971828l0.0126095,4.4479008c0.0015545,0.5483074-0.3807068,1.2155609-0.8578625,1.4910469l-3.8797703,2.2399845c-0.4771557,0.2754898-0.8619461,0.0510902-0.8635006-0.4972153l-0.0126095-4.4479008c-0.0015545-0.5482731,0.3807068-1.2155266,0.8578644-1.4910126L22.9297142,24.1952267z"></path><path fill="#7e5af2" d="M23.518507,15.0283432l-5.0899658,8.789978l-0.7399902-0.4299927c-0.1500244-0.0900269-0.25-0.2800293-0.25-0.5499878l-0.0100098-4.4500122c0-0.5499878,0.3800049-1.2200317,0.8599854-1.4899902l3.8800049-2.2399902c0.2399902-0.1400146,0.4500122-0.1500244,0.6099854-0.0599976L23.518507,15.0283432z"></path><path fill="#b28afd" d="M22.9038849,15.0842123c0.4771576-0.2754869,0.8619461-0.0510893,0.8635006,0.4972181l0.0126247,4.4530087c0.0015545,0.5483074-0.380722,1.2104168-0.8578796,1.4859047l-3.8797684,2.2399845c-0.4771576,0.2754879-0.8619308,0.0562344-0.8634853-0.4920731l-0.0126247-4.4530087c-0.0015545-0.5483074,0.3807068-1.2155609,0.8578644-1.4910488L22.9038849,15.0842123z"></path><path fill="#dedffb" d="M31.7885265,28.4983139l-5.0800171,8.7900391l-0.7399902-0.4300537c-0.1599731-0.0899658-0.25-0.2799683-0.25-0.5499878l-0.0200195-4.4500122c0-0.5499878,0.3800049-1.2199707,0.8600464-1.4899902l3.8800049-2.2399902c0.2399902-0.1400146,0.4599609-0.1499634,0.6099854-0.0599976L31.7885265,28.4983139z"></path><path fill="#f3f1fc" d="M31.1788273,28.5533752c0.4771729-0.2754955,0.8619442-0.0510902,0.8635006,0.4972172l0.0126228,4.4530087c0.0015564,0.5483093-0.3807049,1.2104111-0.8578777,1.4859047l-3.8797531,2.2399788c-0.4771729,0.2754936-0.8619308,0.0562325-0.8634853-0.4920769l-0.0126247-4.4530067c-0.0015545-0.5483074,0.3806915-1.2155533,0.8578644-1.4910488L31.1788273,28.5533752z"></path><path fill="#febc1f" d="M31.7385387,10.2783432l-5.0900269,8.7999878l-0.7299805-0.4299927c-0.1600342-0.0900269-0.25-0.2800293-0.25-0.5599976l-0.0200195-4.4500122c0-0.5499878,0.3800049-1.2200317,0.8599854-1.4899902l3.8800049-2.2399902c0.2400513-0.1400146,0.460022-0.1500244,0.6100464-0.0599976L31.7385387,10.2783432z"></path><path fill="#ffd06c" d="M31.127182,10.3364897c0.4771729-0.2754955,0.8619461-0.0510902,0.8635006,0.4972172l0.0126247,4.4530087c0.0015526,0.5483074-0.3807068,1.2104082-0.8578777,1.4859037l-3.879755,2.2399788c-0.4771729,0.2754955-0.8619308,0.0562325-0.8634853-0.492075l-0.0126247-4.4530087c-0.0015545-0.5483074,0.3806915-1.2155523,0.8578644-1.4910479L31.127182,10.3364897z"></path><path fill="#f45170" d="M29.2432518,31.0040035c0.9046669-0.5223103,1.6462955-0.1032867,1.64925,0.938652c0.0029526,1.0419369-0.7338791,2.314558-1.638546,2.8368702c-0.905714,0.5229111-1.6473408,0.1038818-1.6502953-0.9380569S28.3375378,31.5269165,29.2432518,31.0040035z"></path><polygon fill="#fff" points="28.704 32.232 30.135 32.379 28.709 34.177"></polygon><path fill="#fff" d="M20.0324612 27.9372864c.0557079-.0321636.111187-.0370445.1506596-.0055351.0723553.0536556.065567.202774-.0207062.3355503l-.7548046 1.186655.7626495.3064156c.0831375.034996.0943527.1737194.0225487.3147125-.0394955.0767365-.0971012.1348934-.1547642.1681843-.0432529.0249729-.0901585.0354557-.1299133.0210743l-.9361572-.3846111c-.0433826-.020586-.0687981-.0681458-.068985-.1344318-.0002003-.0703888.0248623-.1470909.0679989-.2134933l.9309196-1.4625683C19.9394817 28.009819 19.9860554 27.9640789 20.0324612 27.9372864zM21.6636868 26.2462635c.0284519-.016428.0574131-.0261707.0850639-.0273933.1010704-.0044193.1447105.1072845.0981808.2503128l-1.3313713 4.1123886c-.0357971.107769-.1077538.1949463-.1834431.2386475l-.082962.0271626c-.1010685.0085545-.144722-.1072769-.0981789-.2461491l1.3313599-4.116518C21.5161476 26.3807907 21.5881062 26.2898998 21.6636868 26.2462635zM21.9573383 26.8259583c.0472374-.0272732.0946503-.0357971.1324501-.0198936l.9361572.3846111c.0433712.0164566.0687733.064024.0689735.1344109.0001869.066288-.0248623.1429825-.0679874.2135143l-.9345264 1.4646492c-.0359478.0580902-.0827484.1017075-.1296082.1287632-.0576744.0332985-.1118031.03965-.1516151.0087032-.0723686-.0577564-.0619621-.2089634.0207043-.3396854l.7548065-1.1825199-.7590446-.3126316c-.0831375-.0349674-.0943642-.1736851-.0225487-.3105774C21.8442631 26.9183922 21.9006767 26.8586712 21.9573383 26.8259583z"></path><g><path fill="#4c5c75" d="M33.0097389,39.3183212c0,0.5-0.3499756,1.1300049-0.7800293,1.3800049l-15.8999615,9.1799927c-0.1099854,0.0599976-0.2300415,0.1000366-0.3099976,0.1000366c-0.250001,0-0.2800303-0.2900391-0.2800303-0.4200439l-0.0100098-2.75l17.2700195-9.9699707L33.0097389,39.3183212z"></path></g><g><path fill="#9ea9c9" d="M25.2289772,42.5480385c0.4843216-0.2796211,0.8841953-0.0615997,0.8857727,0.4949417c0.001606,0.5663567-0.3957272,1.2446823-0.8800488,1.5243034l-1.8044205,1.0417824c-0.4843216,0.2796249-0.8841953,0.0615692-0.8858013-0.5047913c-0.0015774-0.5565376,0.3957558-1.2348289,0.8800774-1.5144501L25.2289772,42.5480385z"></path></g><g><path fill="#fff" d="M22.6766548,18.7420979l-0.3450966,0.2693882c-0.0313282,0.1847897-0.0882893,0.3731899-0.163826,0.5590992l0.2005081,0.2125473l-0.3135433,0.5430794l-0.0623226,0.1079445l-0.0164146-0.0037041l-0.2694817-0.0609379c-0.1216221,0.1576233-0.2592106,0.3010826-0.4039268,0.4242821l-0.059824,0.4309502l-0.5289917,0.3054142l-0.0620537-0.3605843c-0.1467094,0.0450554-0.2802429,0.0581264-0.4067783,0.0437794l-0.1369801,0.1896496l-0.1011143,0.1399918l-0.0465012,0.064373l-0.3765545-0.2166119l0.1995392-0.4435158c-0.0435028-0.0550365-0.0805626-0.1179829-0.1108875-0.188652c-0.0104141-0.0242615-0.02001-0.0494671-0.0288315-0.0755615c-0.0110703-0.0328121-0.0208988-0.0670071-0.0293846-0.1026688l-0.3428555,0.1278l-0.0015316-0.5398102l-0.0001945-0.0690422l0.0479927-0.0378284l0.2944584-0.2320442c0.033968-0.1863117,0.0900517-0.3742046,0.1664753-0.5606289l-0.2013988-0.2130489l0.3741016-0.6479702l0.1045055,0.0232391l0.0687523,0.0153103l0.1126347,0.0250759c0.1260395-0.1611938,0.2592125-0.3011112,0.4056969-0.4253044l0.0598106-0.4309464l0.5289898-0.3054123l0.0620708,0.3605785c0.1449394-0.0440598,0.2828865-0.0606747,0.4050064-0.0427551l0.2819462-0.3893452l0.0636272,0.030735l0.3173447,0.1791706l-0.1986485,0.4440174c0.0763416,0.0982227,0.1341839,0.2203407,0.1682167,0.3673935l0.05476-0.0201149l0.0921059-0.0338497l0.1968727-0.0723362L22.6766548,18.7420979z M20.975584,20.2842674c0.4141788-0.2391243,0.7513199-0.8210335,0.7499619-1.3000107c-0.0013523-0.4769421-0.3406925-0.6703205-0.7548695-0.4311943c-0.4177246,0.2411728-0.7522011,0.8235798-0.7508507,1.3005219C20.2211838,20.3325615,20.5578594,20.5254421,20.975584,20.2842674"></path></g><g><polygon fill="#5ec363" points="10.042 14.454 8.712 13.681 7.737 12.407 9.565 12.35"></polygon><path fill="#72d561" d="M13.8485231,3.4283063L6.8485236,14.1483383l-0.9699707-0.5599976c-0.1000366-0.0599976-0.1600342-0.1600342-0.1900024-0.3099976c-0.3400269-1.9200439-0.5599976-3.8400269-0.6700439-5.2700195C4.9885383,7.6082993,5.248548,7.0583115,5.6585212,6.788353c2.1699829-1.4200439,4.440002-2.7300415,6.7600093-3.9100344c0.1799927-0.0899658,0.3399658-0.0899658,0.4500122-0.0200195L13.8485231,3.4283063z"></path><path fill="#78e75a" d="M10.016407,5.2758102c1.1275892-0.6510139,2.2553005-1.2607622,3.3833456-1.8293672c0.3820429-0.1918602,0.6704512,0.0238035,0.6424437,0.4786079c-0.1236086,1.9902532-0.3350525,4.0004911-0.6343298,6.0297728c-0.0583525,0.3901358-0.3182526,0.8085108-0.6347818,1.0090933c-0.5909033,0.3758059-1.1783953,0.7387648-1.76334,1.0893478l-0.9677505,2.4003725l-0.9755859-1.2744112c-0.591032,0.330328-1.1778011,0.6453285-1.7611618,0.9464903c-0.3192196,0.1625195-0.5823569,0.0471144-0.6410146-0.2784472c-0.3055654-1.7077942-0.530273-3.4652529-0.6680999-5.2748327c-0.0313511-0.4205341,0.254889-0.9699588,0.6376266-1.2196445C7.7613354,6.619113,8.888813,5.9268274,10.016407,5.2758102z"></path><g><path fill="#fff" d="M11.5787201 8.3400364c-.137125-.1090746-.3324242-.0914164-.5817375.0519409-.2482796.1433582-.4435778.3511219-.5796633.6181002-.1350451.2659378-.2025709.5474596-.2015314.8362484 0 .289835.0695992.4913607.2056847.6004419.137125.1090746.3324242.0914164.5817432-.0519419.2482729-.1433573.443572-.3521614.5796566-.6180992.1340122-.2659378.2025719-.5464201.2015314-.8362484C11.7833643 8.6516829 11.7137651 8.4491119 11.5787201 8.3400364zM10.6853371 10.0239668c-.0747986-.0727186-.114274-.2015314-.114274-.3833246-.0010405-.1807537.0373955-.3532019.1121941-.5121384.0747919-.1589422.1807537-.2784023.3147593-.3552809.1340122-.0779114.2399673-.0810242.3158054-.009346.0758324.0727186.1142683.2004919.1153078.3812456 0 .1817932-.0373964.3552752-.1132345.5142174-.0737524.1568632-.1797132.2773628-.3137188.3552742C10.8671303 10.0925264 10.7611685 10.0946054 10.6853371 10.0239668zM11.1694241 6.433804c0 .0425887-.011425.0924563-.0342827.1475105l-1.9363623 4.7058549c-.0166187.0405159-.0384359.0789509-.0654402.1132345-.02701.0353165-.0560999.0612869-.0862236.0789509-.0436287.0259705-.0841446.0301237-.1173868.013505-.0342836-.017664-.0509014-.0550604-.0509014-.1090813 0-.0353155.0072727-.0727119.02493-.1142673l1.9498682-4.7359848c.0332365-.0820642.0810251-.1412778.1423178-.1765943.0509014-.0290899.0914164-.0363626.1246538-.0238972C11.1528063 6.3455005 11.1694241 6.3787436 11.1694241 6.433804zM9.6163864 7.3936729C9.4803019 7.2835584 9.2839632 7.3012166 9.0356894 7.4445739 8.7863703 7.5889716 8.5910711 7.7967358 8.4560261 8.0637131 8.320981 8.3296509 8.2524147 8.6101341 8.2534552 8.8989229c.0010395.2898283.0706387.4913597.2067242.6014748C8.5962648 9.609478 8.7926025 9.591814 9.0408821 9.447423c.2493134-.1433582.4446125-.3511219.5796642-.6170597C9.7555914 8.5644255 9.824151 8.2829027 9.8231106 7.9930744 9.8220711 7.7042789 9.7535114 7.502748 9.6163864 7.3936729zM8.7240438 9.0765629c-.0758381-.0727186-.114274-.200491-.1153145-.3822851 0-.1817932.0374031-.3542414.1132345-.5131769.0737591-.1579027.1797142-.27737.3147593-.3552814C9.1707354 7.7479076 9.27773 7.7447948 9.3525286 7.8164735c.0758324.0727186.1142673.2004914.1142673.3822856C9.4678364 8.3805523 9.4294004 8.5529938 9.3556414 8.711936 9.2808495 8.8698387 9.1748877 8.9892998 9.0398426 9.0672112S8.7988358 9.148242 8.7240438 9.0765629z"></path></g></g><g><path fill="#bf7d5a" d="M47.64851,4.0683212L36.3485222,18.9783554l-1.1599731-0.6800537c-0.2000122-0.1199951-0.3300171-0.3599854-0.3300171-0.6999512l-0.0200195-6.6000366c0-0.7000122,0.5-1.5499878,1.1000366-1.8999634l9.75-5.6300049c0.3099976-0.1799927,0.5899658-0.1900024,0.789978-0.0800171L47.64851,4.0683212z"></path><path fill="#dba660" d="M46.8527145,4.147543c0.6124878-0.3536201,1.1104393-0.0698524,1.1124001,0.6218147l0.0187149,6.601162c0.0019608,0.6916666-0.4927559,1.5485535-1.1052437,1.902173l-9.7489357,5.6285505c-0.6019325,0.3475266-1.099884,0.0637589-1.1018448-0.6279087l-0.0187149-6.601162c-0.0019608-0.6916666,0.4927559-1.5485525,1.0946884-1.8960791L46.8527145,4.147543z"></path><path fill="#fff" d="M36.6413994,18.5974827c-0.1395683,0-0.1607666-0.2036114-0.1612091-0.3255119l-0.0189934-6.6011972c-0.0013237-0.5326538,0.4045715-1.2349091,0.8687668-1.5030031l9.7489777-5.6286402c0.1382446-0.0799422,0.2305527-0.0918674,0.272953-0.0918674c0.1391258,0,0.1603241,0.2022848,0.1607666,0.3233023l0.0189934,6.6011982c0.0013237,0.5326538-0.4094276,1.2379999-0.879364,1.5091858l-9.7489815,5.6286411C36.7708092,18.5859985,36.682476,18.5974827,36.6413994,18.5974827z"></path><polygon fill="#e3e7f0" points="41.87 9.491 46.902 6.586 46.9 5.914 41.87 8.818"></polygon><polygon fill="#e3e7f0" points="41.87 11.018 46.906 8.111 46.904 7.439 41.87 10.345"></polygon><polygon fill="#e3e7f0" points="41.87 14.073 44.681 12.45 44.679 11.778 41.87 13.4"></polygon><polygon fill="#e3e7f0" points="41.87 12.546 46.91 9.636 46.909 8.963 41.87 11.872"></polygon><g><path fill="#78e75a" d="M39.2743835,13.246809l1.8746605-1.0809174c-0.0426369,1.1951923-0.8787956,2.6107206-1.9029312,3.2030697c-0.4820023,0.278285-0.9371376,0.3359051-1.2925339,0.165925L39.2743835,13.246809z"></path><path fill="#df3260" d="M39.3163071,10.9293661c0.4786758-0.2532921,0.9280128-0.2869768,1.270504-0.0918016c0.3437271,0.1955261,0.5413132,0.595396,0.5616875,1.1355581l-1.8262444,1.0543814L39.3163071,10.9293661z"></path><path fill="#986ff9" d="M39.1497765,11.0240927l0.0061111,2.1551886l-1.3208046,2.2880793c-0.323719-0.2195024-0.5034447-0.639267-0.5050278-1.1984396C37.3254852,13.0928192,38.1353416,11.6598244,39.1497765,11.0240927z"></path></g></g><g><path fill="#dedffb" d="M47.4185295,44.118309v1.4700317c0,0.2999878-0.1900024,0.6099854-0.6000366,0.8399658l-6.3999634,3.7200317c-0.8099976,0.4699707-2.1099854,0.4699707-2.9299927,0l-6.4500103-3.7200317c-0.4000244-0.2299805-0.6099854-0.5499878-0.6099854-0.8499756l0.0100098-1.4700317L47.4185295,44.118309z"></path><path fill="#f3f1fc" d="M46.8160248,43.2647629c0.8083954,0.4667282,0.8126602,1.2231522,0.0095215,1.6898842l-6.4112434,3.7258072c-0.8031349,0.466732-2.1090355,0.4667358-2.9174309,0.0000076l-6.4531746-3.7257423c-0.8083954-0.4667282-0.8126583-1.2231522-0.0095234-1.6898842l6.4112453-3.7258072c0.8031349-0.466732,2.1090355-0.4667358,2.9174309-0.0000076L46.8160248,43.2647629z"></path><path fill="#dba660" d="M43.8485222,43.0283432l-0.8900146-0.0700073v-1.2000122l-1.2199707-0.710022l-1.1900024,0.5300293c-0.2600098-0.0900269-0.5400391-0.1699829-0.8300171-0.2200317l-0.1599731-0.8299561h-1.7400513l-0.1699829,0.789978c-0.3399658,0.039978-0.6699829,0.1199951-0.9599609,0.2200317l-1.0599976-0.4900513l-1.2300415,0.710022v1.2000122l0.0100098,0.0100098l-0.9199829,0.0599976l-0.0100098,1.0100098v0.8199463l1.3699951,0.0900269l-0.4699707,0.3499756v0.8200073l1.2199707,0.7200317l1.2700195-0.5800171c0.2399902,0.0700073,0.4699707,0.1199951,0.7199707,0.1500244l0.1900024,0.9499512h1.7399902l0.210022-0.9899902c0.210022-0.039978,0.4199829-0.0899658,0.6099854-0.1599731l1.3699951,0.6300049l1.2300415-0.7200317v-0.8200073l-0.4700317-0.3399658l1.3800049-0.1099854V43.0283432z M40.2584953,44.4583359c-0.8799438,0.5100098-2.3099976,0.5100098-3.1900024,0c-0.2099609-0.1199951-0.3599854-0.2600098-0.4699707-0.4100342c0.1099854-0.1499634,0.2700195-0.289978,0.4799805-0.4099731c0.8800049-0.5100098,2.3099976-0.5100098,3.1900024,0c0.2000122,0.1199951,0.3600464,0.2600098,0.4700317,0.4000244C40.6285515,44.1883163,40.4685173,44.328331,40.2584953,44.4583359z"></path><polygon fill="#aa6256" points="34.396 41.762 34.4 42.961 35.23 43.58 35.226 42.38"></polygon><polygon fill="#aa6256" points="41.96 42.494 41.964 43.694 42.961 42.961 42.957 41.762"></polygon><path fill="#bf7d5a" d="M36.4123383,43.5367661l0.0029182,1.0290146c-0.0009537-0.3366089,0.2208481-0.6737289,0.6649475-0.93013c0.8825378-0.5095329,2.3084526-0.5071983,3.1852417,0.0023346c0.4365807,0.2537155,0.6556206,0.5858803,0.6565628,0.9183693l-0.0029144-1.0290031c-0.000946-0.3324966-0.219986-0.6646614-0.6565666-0.9183731c-0.8767891-0.5095367-2.3027039-0.5118713-3.1852417-0.0023384C36.6331902,42.8630409,36.4113846,43.200161,36.4123383,43.5367661z"></path><polygon fill="#d4d6d6" points="43.844 44.029 43.847 44.853 43.853 44.225 43.849 43.026"></polygon><polygon fill="#aa6256" points="33.479 44.037 33.483 44.861 34.92 44.956 34.917 44.132"></polygon><polygon fill="#aa6256" points="42.129 44.154 42.132 44.978 43.847 44.853 43.844 44.029"></polygon><path fill="#bf7d5a" d="M41.8645248 44.5068169l.0034065 1.1997833c.108326-.1112404.2026749-.2306061.2642326-.3526726l-.0033913-1.1997643C42.0672035 44.2762222 41.9728546 44.3955879 41.8645248 44.5068169zM34.9166412 44.132431l.0034065 1.1997795c.088028.170887.2182732.3282242.3813171.4828491l-.0033989-1.1997604C35.1349182 44.4606628 35.004673 44.3033218 34.9166412 44.132431zM39.7278099 45.5403481l.0034027.8238716c.2109299-.0352631.4173126-.0895233.6096916-.1519089l-.0033989-.8238678C40.1451225 45.4508286 39.9387436 45.5050888 39.7278099 45.5403481zM36.8622322 45.4372482l.0034027.8238754c.2384758.0678215.4770203.1193542.7250633.1491966l-.0034027-.8238602C37.3392525 45.5566101 37.100708 45.5050774 36.8622322 45.4372482z"></path><polygon fill="#bf7d5a" points="34.376 45.299 34.38 46.123 35.603 46.833 35.599 46.01"></polygon><polygon fill="#aa6256" points="35.599 46.01 35.603 46.833 36.866 46.261 36.862 45.437"></polygon><polygon fill="#bf7d5a" points="41.706 46.01 41.71 46.834 42.941 46.123 42.937 45.299"></polygon><polygon fill="#aa6256" points="40.338 45.388 40.341 46.212 41.71 46.834 41.706 46.01"></polygon><polygon fill="#aa6256" points="37.587 45.586 37.591 46.41 37.777 47.357 37.774 46.533"></polygon><polygon fill="#aa6256" points="39.511 46.53 39.515 47.354 39.731 46.364 39.728 45.54"></polygon><path fill="#dba660" d="M34.376194,45.2988892l0.9217682-0.6836014c-0.163044-0.1546249-0.2932892-0.3119659-0.381321-0.4828568l-1.4372292-0.0949554l0.0056915-1.00914l1.3633804-0.0949287c0.071331-0.1926041,0.2035179-0.3824997,0.3777618-0.5534019l-0.8301392-0.6185036l1.2310143-0.7107277l1.0603676,0.4855804c0.2956009-0.1003609,0.6238823-0.1763153,0.9566231-0.2170067l0.1730423-0.7921219l1.7374763,0.0027237l0.1639137,0.830101c0.2947807,0.0515289,0.5706673,0.1247787,0.8323822,0.2224388l1.1831894-0.5316963l1.2230148,0.7107391l-0.9969902,0.7324371c0.1210136,0.1356468,0.2045059,0.2766991,0.2599106,0.4177628l1.6291389,0.1139412l-0.0056496,1.0037079l-1.7147789,0.1247749c-0.0615578,0.1220665-0.1559067,0.2414322-0.2642365,0.3526611l1.0726814,0.7921104l-1.2310181,0.7107277l-1.3686867-0.621212c-0.192379,0.0623856-0.3987579,0.1166458-0.6096916,0.1519051l-0.21632,0.9901428l-1.7375221,0.0027122l-0.1866722-0.9467506c-0.2480431-0.0298424-0.4865875-0.0813751-0.7250633-0.1492043l-1.2630234,0.5723801L34.376194,45.2988892z M40.2561607,44.4540024c0.8825378-0.5095329,0.8831558-1.3354912,0.0063667-1.8450241c-0.8767891-0.5095367-2.3027039-0.5118713-3.1852417-0.0023384c-0.882515,0.5095215-0.887188,1.3378067-0.0103989,1.8473396C37.9436798,44.9635162,39.3736458,44.9635201,40.2561607,44.4540024"></path><polygon fill="#bf7d5a" points="37.774 46.533 37.777 47.357 39.515 47.354 39.511 46.53"></polygon></g></svg>