<svg xmlns="http://www.w3.org/2000/svg" enable-background="new 0 0 50 50" viewBox="0 0 50 50" id="ecommerce"><path fill="#373f51" d="M30.08634,1.53818c0.5764-0.3327,1.0418-0.0622,1.0437,0.6001l0.0506,17.8387
							c0.0019,0.657-0.4605,1.4633-1.0369,1.796l-26.7848,15.4643c-0.5717,0.33-1.0418,0.0622-1.0437-0.5948l-0.0505-17.8388
							c-0.0019-0.6623,0.4651-1.4712,1.0368-1.8012L30.08634,1.53818z M30.14034,20.57768l-0.0506-17.8388l-26.7848,15.4642
							l0.0506,17.8388L30.14034,20.57768"></path><polygon fill="#fff" points="30.09 2.739 30.14 20.578 3.356 36.042 3.305 18.203"></polygon><path fill="#4c5671" d="M1.58284,18.40608l0.0514,17.8421c0,0.3229,0.1174,0.558,0.3009,0.6605l0.6811,0.3968
							c-0.1835-0.11-0.3009-0.3376-0.3009-0.6605l-0.0514-17.842c0-0.6605,0.4624-1.4679,1.0349-1.798l26.7887-15.4642
							c0.2862-0.1688,0.5505-0.1835,0.7339-0.0731l-0.6811-0.3972c-0.1908-0.1101-0.4477-0.0954-0.7413,0.0734l-26.7813,15.4643
							C2.04524,16.93828,1.57554,17.74568,1.58284,18.40608z"></path><path fill="#373f51" d="M3.35214,38.43838l15.7655,9.1625c0.5726,0.3329,1.4975,0.3329,2.0738,0l26.7848-15.4643
				c0.2883-0.1662,0.4332-0.3856,0.4325-0.6049l0.0085,1.1493c0.0006,0.2193-0.1442,0.4387-0.4325,0.6053l-26.7848,15.4643
				c-0.5763,0.3326-1.5012,0.3326-2.0738,0l-15.7655-9.1628c-0.2845-0.1653-0.4269-0.3806-0.4274-0.5964l-0.0086-1.1493
				C2.92534,38.05788,3.06774,38.27318,3.35214,38.43838z"></path><path fill="#d3dbea" d="M3.35894,37.23728c-0.5764,0.3327-0.5793,0.8684-0.0067,1.2012l15.7654,9.1625
					c0.5726,0.3328,1.4975,0.3328,2.0738,0.0001l26.7849-15.4643c0.5716-0.33,0.5793-0.8684,0.0067-1.2012l-15.7655-9.1625
					c-0.5726-0.3328-1.5021-0.3301-2.0738-0.0001L3.35894,37.23728z"></path><path fill="#9da9c1" d="M21.87584,40.77498c-0.2905,0.1678-0.2921,0.4329-0.0034,0.6006l3.3846,1.9669
					c0.2839,0.165,0.7463,0.1678,1.0369,0l7.0523-4.0716c0.2905-0.1678,0.2873-0.4357,0.0034-0.6007l-3.3845-1.9668
					c-0.2887-0.1678-0.7464-0.1678-1.037,0L21.87584,40.77498z"></path><polygon fill="#b4bed7" points="30.24 22.908 40.671 28.965 16.336 43.015 5.906 36.958"></polygon><polygon fill="#272e3a" points="31.669 24.002 31.668 24.431 29.894 25.462 29.895 25.034"></polygon><polygon fill="#4c5671" points="31.669 24.002 29.895 25.034 28.317 24.123 30.091 23.091"></polygon><polygon fill="#373f51" points="29.895 25.034 29.894 25.462 28.315 24.551 28.317 24.123"></polygon><polygon fill="#272e3a" points="29.287 25.387 29.285 25.815 27.511 26.847 27.512 26.418"></polygon><polygon fill="#4c5671" points="29.287 25.387 27.512 26.418 25.934 25.507 27.708 24.476"></polygon><polygon fill="#373f51" points="27.512 26.418 27.511 26.847 25.933 25.936 25.934 25.507"></polygon><polygon fill="#4c5671" points="33.655 25.149 30.386 27.049 28.808 26.138 32.077 24.238"></polygon><polygon fill="#373f51" points="30.386 27.049 30.385 27.477 28.806 26.566 28.808 26.138"></polygon><polygon fill="#272e3a" points="33.655 25.149 33.654 25.577 30.385 27.477 30.386 27.049"></polygon><polygon fill="#373f51" points="25.131 27.802 25.13 28.23 23.552 27.319 23.553 26.891"></polygon><polygon fill="#4c5671" points="26.904 26.772 25.131 27.802 23.553 26.891 25.326 25.861"></polygon><polygon fill="#272e3a" points="26.904 26.772 26.903 27.2 25.13 28.23 25.131 27.802"></polygon><polygon fill="#4c5671" points="29.776 27.403 28.003 28.433 26.425 27.522 28.198 26.492"></polygon><polygon fill="#272e3a" points="29.776 27.403 29.775 27.831 28.002 28.862 28.003 28.433"></polygon><polygon fill="#373f51" points="28.003 28.433 28.002 28.862 26.424 27.951 26.425 27.522"></polygon><polygon fill="#373f51" points="31.482 28.71 31.481 29.139 29.904 28.228 29.905 27.8"></polygon><polygon fill="#272e3a" points="35.639 26.294 35.638 26.723 31.481 29.139 31.482 28.71"></polygon><polygon fill="#4c5671" points="35.639 26.294 31.482 28.71 29.905 27.8 34.063 25.384"></polygon><polygon fill="#373f51" points="22.748 29.187 22.747 29.615 21.169 28.704 21.17 28.276"></polygon><polygon fill="#272e3a" points="24.521 28.157 24.52 28.585 22.747 29.615 22.748 29.187"></polygon><polygon fill="#272e3a" points="39.611 28.587 39.609 29.016 37.835 30.047 37.836 29.619"></polygon><polygon fill="#4c5671" points="39.611 28.587 37.836 29.619 36.26 28.708 38.034 27.677"></polygon><polygon fill="#373f51" points="37.836 29.619 37.835 30.047 36.258 29.137 36.26 28.708"></polygon><polygon fill="#4c5671" points="27.393 28.788 25.62 29.818 24.042 28.907 25.815 27.877"></polygon><polygon fill="#272e3a" points="27.393 28.788 27.392 29.216 25.619 30.246 25.62 29.818"></polygon><polygon fill="#373f51" points="25.62 29.818 25.619 30.246 24.041 29.335 24.042 28.907"></polygon><polygon fill="#4c5671" points="35.242 28.826 33.468 29.857 31.891 28.947 33.666 27.915"></polygon><polygon fill="#272e3a" points="35.242 28.826 35.241 29.254 33.466 30.285 33.468 29.857"></polygon><polygon fill="#373f51" points="33.468 29.857 33.466 30.285 31.89 29.375 31.891 28.947"></polygon><polygon fill="#4c5671" points="30.874 29.064 29.101 30.094 27.524 29.184 29.297 28.154"></polygon><polygon fill="#272e3a" points="30.874 29.064 30.872 29.492 29.1 30.522 29.101 30.094"></polygon><polygon fill="#373f51" points="29.101 30.094 29.1 30.522 27.523 29.612 27.524 29.184"></polygon><polygon fill="#4c5671" points="22.138 29.541 20.365 30.572 18.787 29.66 20.56 28.63"></polygon><polygon fill="#373f51" points="20.365 30.572 20.364 31 18.786 30.089 18.787 29.66"></polygon><polygon fill="#272e3a" points="22.138 29.541 22.137 29.97 20.364 31 20.365 30.572"></polygon><polygon fill="#4c5671" points="37.228 29.972 35.453 31.003 33.877 30.093 35.651 29.062"></polygon><polygon fill="#373f51" points="35.453 31.003 35.452 31.432 33.876 30.521 33.877 30.093"></polygon><polygon fill="#272e3a" points="37.228 29.972 37.227 30.4 35.452 31.432 35.453 31.003"></polygon><polygon fill="#4c5671" points="25.011 30.173 23.238 31.203 21.659 30.292 23.432 29.261"></polygon><polygon fill="#272e3a" points="25.011 30.173 25.009 30.601 23.236 31.631 23.238 31.203"></polygon><polygon fill="#373f51" points="23.238 31.203 23.236 31.631 21.658 30.72 21.659 30.292"></polygon><polygon fill="#4c5671" points="28.491 30.449 26.718 31.479 25.141 30.569 26.914 29.538"></polygon><polygon fill="#272e3a" points="28.491 30.449 28.49 30.877 26.717 31.907 26.718 31.479"></polygon><polygon fill="#373f51" points="26.718 31.479 26.717 31.907 25.14 30.997 25.141 30.569"></polygon><polygon fill="#373f51" points="17.983 31.956 17.981 32.385 16.403 31.473 16.404 31.045"></polygon><polygon fill="#4c5671" points="19.756 30.926 17.983 31.956 16.404 31.045 18.177 30.015"></polygon><polygon fill="#272e3a" points="19.756 30.926 19.754 31.354 17.981 32.385 17.983 31.956"></polygon><polygon fill="#272e3a" points="34.845 31.357 34.844 31.785 33.071 32.815 33.072 32.387"></polygon><polygon fill="#4c5671" points="34.845 31.357 33.072 32.387 31.496 31.477 33.269 30.447"></polygon><polygon fill="#373f51" points="33.072 32.387 33.071 32.815 31.495 31.905 31.496 31.477"></polygon><polygon fill="#4c5671" points="22.628 31.557 20.855 32.588 19.277 31.676 21.05 30.646"></polygon><polygon fill="#272e3a" points="22.628 31.557 22.627 31.986 20.854 33.016 20.855 32.588"></polygon><polygon fill="#373f51" points="20.855 32.588 20.854 33.016 19.275 32.105 19.277 31.676"></polygon><polygon fill="#4c5671" points="30.477 31.595 28.704 32.625 27.127 31.715 28.9 30.685"></polygon><polygon fill="#272e3a" points="30.477 31.595 30.475 32.023 28.703 33.054 28.704 32.625"></polygon><polygon fill="#373f51" points="28.704 32.625 28.703 33.054 27.126 32.143 27.127 31.715"></polygon><polygon fill="#373f51" points="24.335 32.864 24.334 33.292 22.758 32.382 22.759 31.953"></polygon><polygon fill="#272e3a" points="26.108 31.833 26.107 32.262 24.334 33.292 24.335 32.864"></polygon><polygon fill="#4c5671" points="26.108 31.833 24.335 32.864 22.759 31.953 24.532 30.923"></polygon><polygon fill="#4c5671" points="17.373 32.311 15.6 33.341 14.022 32.43 15.795 31.399"></polygon><polygon fill="#272e3a" points="17.373 32.311 17.372 32.739 15.599 33.769 15.6 33.341"></polygon><polygon fill="#373f51" points="15.6 33.341 15.599 33.769 14.021 32.858 14.022 32.43"></polygon><polygon fill="#373f51" points="30.689 33.772 30.688 34.2 29.112 33.29 29.113 32.862"></polygon><polygon fill="#272e3a" points="32.462 32.742 32.461 33.17 30.688 34.2 30.689 33.772"></polygon><polygon fill="#4c5671" points="32.462 32.742 30.689 33.772 29.113 32.862 30.886 31.831"></polygon><polygon fill="#272e3a" points="20.247 32.941 20.245 33.369 18.471 34.401 18.472 33.972"></polygon><polygon fill="#373f51" points="18.472 33.972 18.471 34.401 16.893 33.489 16.894 33.061"></polygon><polygon fill="#4c5671" points="20.247 32.941 18.472 33.972 16.894 33.061 18.668 32.03"></polygon><polygon fill="#272e3a" points="28.094 32.98 28.093 33.408 26.32 34.438 26.321 34.01"></polygon><polygon fill="#373f51" points="26.321 34.01 26.32 34.438 24.743 33.528 24.745 33.1"></polygon><polygon fill="#4c5671" points="28.094 32.98 26.321 34.01 24.745 33.1 26.517 32.07"></polygon><polygon fill="#272e3a" points="23.725 33.218 23.724 33.646 21.951 34.677 21.953 34.248"></polygon><polygon fill="#4c5671" points="23.725 33.218 21.953 34.248 20.376 33.338 22.149 32.308"></polygon><polygon fill="#373f51" points="21.953 34.248 21.951 34.677 20.375 33.766 20.376 33.338"></polygon><polygon fill="#373f51" points="13.217 34.726 13.216 35.154 11.638 34.243 11.639 33.815"></polygon><polygon fill="#272e3a" points="14.992 33.694 14.991 34.123 13.216 35.154 13.217 34.726"></polygon><polygon fill="#4c5671" points="14.992 33.694 13.217 34.726 11.639 33.815 13.414 32.783"></polygon><polygon fill="#272e3a" points="17.864 34.326 17.863 34.754 16.088 35.785 16.089 35.357"></polygon><polygon fill="#373f51" points="16.089 35.357 16.088 35.785 14.51 34.874 14.511 34.446"></polygon><polygon fill="#4c5671" points="17.864 34.326 16.089 35.357 14.511 34.446 16.286 33.415"></polygon><polygon fill="#373f51" points="23.938 35.395 23.937 35.823 22.361 34.913 22.362 34.485"></polygon><polygon fill="#272e3a" points="25.711 34.364 25.71 34.793 23.937 35.823 23.938 35.395"></polygon><polygon fill="#373f51" points="19.57 35.633 19.569 36.061 17.992 35.151 17.993 34.723"></polygon><polygon fill="#272e3a" points="21.343 34.603 21.341 35.031 19.569 36.061 19.57 35.633"></polygon><polygon fill="#4c5671" points="21.343 34.603 19.57 35.633 17.993 34.723 19.766 33.692"></polygon><polygon fill="#373f51" points="10.834 36.11 10.833 36.539 9.255 35.627 9.256 35.199"></polygon><polygon fill="#272e3a" points="12.609 35.079 12.608 35.507 10.833 36.539 10.834 36.11"></polygon><polygon fill="#4c5671" points="12.609 35.079 10.834 36.11 9.256 35.199 11.031 34.168"></polygon><polygon fill="#272e3a" points="15.481 35.71 15.48 36.139 13.707 37.169 13.708 36.741"></polygon><polygon fill="#4c5671" points="15.481 35.71 13.708 36.741 12.13 35.83 13.903 34.799"></polygon><polygon fill="#373f51" points="13.708 36.741 13.707 37.169 12.129 36.258 12.13 35.83"></polygon><polygon fill="#373f51" points="21.556 36.779 21.554 37.208 19.978 36.297 19.979 35.869"></polygon><polygon fill="#272e3a" points="23.328 35.749 23.327 36.177 21.554 37.208 21.556 36.779"></polygon><polygon fill="#272e3a" points="18.962 35.986 18.96 36.415 17.186 37.446 17.187 37.018"></polygon><polygon fill="#4c5671" points="18.962 35.986 17.187 37.018 15.61 36.107 17.385 35.076"></polygon><polygon fill="#373f51" points="17.187 37.018 17.186 37.446 15.609 36.536 15.61 36.107"></polygon><polygon fill="#4c5671" points="10.226 36.464 8.453 37.494 6.875 36.583 8.648 35.553"></polygon><polygon fill="#373f51" points="8.453 37.494 8.452 37.922 6.874 37.011 6.875 36.583"></polygon><polygon fill="#272e3a" points="10.226 36.464 10.225 36.892 8.452 37.922 8.453 37.494"></polygon><polygon fill="#272e3a" points="20.947 37.133 20.946 37.561 19.172 38.592 19.173 38.164"></polygon><polygon fill="#4c5671" points="20.947 37.133 19.173 38.164 17.596 37.254 19.371 36.223"></polygon><polygon fill="#373f51" points="19.173 38.164 19.172 38.592 17.595 37.682 17.596 37.254"></polygon><polygon fill="#373f51" points="10.439 38.641 10.438 39.069 8.86 38.158 8.861 37.729"></polygon><polygon fill="#272e3a" points="13.098 37.095 13.097 37.523 10.438 39.069 10.439 38.641"></polygon><polygon fill="#4c5671" points="13.098 37.095 10.439 38.641 8.861 37.729 11.52 36.184"></polygon><polygon fill="#272e3a" points="30.181 34.067 30.18 34.495 21.157 39.739 21.159 39.311"></polygon><polygon fill="#373f51" points="21.159 39.311 21.157 39.739 19.581 38.829 19.582 38.4"></polygon><polygon fill="#4c5671" points="30.181 34.067 21.159 39.311 19.582 38.4 28.605 33.157"></polygon><polygon fill="#272e3a" points="18.565 38.518 18.563 38.946 16.789 39.977 16.79 39.549"></polygon><polygon fill="#4c5671" points="18.565 38.518 16.79 39.549 15.214 38.639 16.988 37.607"></polygon><polygon fill="#373f51" points="16.79 39.549 16.789 39.977 15.212 39.067 15.214 38.639"></polygon><polygon fill="#373f51" points="12.423 39.786 12.422 40.214 10.845 39.304 10.847 38.876"></polygon><polygon fill="#272e3a" points="16.579 37.371 16.578 37.799 12.422 40.214 12.423 39.786"></polygon><polygon fill="#272e3a" points="16.182 39.902 16.181 40.331 14.408 41.361 14.409 40.933"></polygon><polygon fill="#373f51" points="14.409 40.933 14.408 41.361 12.831 40.451 12.832 40.022"></polygon><polygon fill="#4c5671" points="20.55 39.664 16.395 42.079 14.818 41.169 18.974 38.754"></polygon><polygon fill="#272e3a" points="20.55 39.664 20.549 40.092 16.393 42.507 16.395 42.079"></polygon><polygon fill="#373f51" points="16.395 42.079 16.393 42.507 14.817 41.597 14.818 41.169"></polygon><polygon fill="#4c5671" points="24.521 28.157 22.748 29.187 21.17 28.276 22.943 27.245"></polygon><polygon fill="#4c5671" points="25.711 34.364 23.938 35.395 22.362 34.485 24.135 33.454"></polygon><polygon fill="#4c5671" points="23.328 35.749 21.556 36.779 19.979 35.869 21.752 34.839"></polygon><polygon fill="#4c5671" points="16.579 37.371 12.423 39.786 10.847 38.876 15.002 36.461"></polygon><polygon fill="#4c5671" points="16.182 39.902 14.409 40.933 12.832 40.022 14.605 38.992"></polygon><g><path fill="#4c5671" d="M14.04124,16.37928c0.1973,1.066,0.4726,2.6154,0.9253,3.3254l-1.654,0.3911l-0.4692-0.0892
				C13.40854,19.12938,13.88174,17.31428,14.04124,16.37928z"></path><path fill="#96d696" d="M13.31184,20.10248c0.7119,0.1719,1.0626,0.6478,1.0811,0.6728l-1.0197,1.024l0.8694,0.0424
					c-0.8594,2.4877-2.3895,5.2294-2.4701,5.3737c0.2127-0.5964,0.4017-1.2529,0.5703-1.9243
					C12.95084,22.86928,13.29284,20.24978,13.31184,20.10248z"></path><path fill="#fff" d="M13.28794,20.19338c0.0152-0.0364,0.0218-0.0756,0.0239-0.0909c-0.019,0.1473-0.361,2.7668-0.969,5.1886
					l-0.4229-3.0977l0.1221-0.2114l0.179,0.2778C12.90394,21.37558,13.19384,20.43668,13.28794,20.19338z"></path><path fill="#e3e7f0" d="M12.84334,20.00658l0.4692,0.0892c0,0-0.0001,0.0025-0.0007,0.0067
					c-0.0021,0.0153-0.0087,0.0545-0.0239,0.0909c-0.0941,0.2433-0.384,1.1822-1.0669,2.0663l-0.179-0.2777l-0.2856-0.4434
					c0.0243-0.0305,0.4846-0.6089,0.7715-1.0916C12.63714,20.31088,12.74254,20.16308,12.84334,20.00658z"></path><path fill="#ed5d71" d="M11.75644,21.53858l0.2856,0.4434l-0.1221,0.2114l0.4229,3.0977
					c-0.1686,0.6714-0.3576,1.3279-0.5659,1.9119c-0.2198-0.337-0.4118-0.7731-0.5837-1.2483l0.404-3.5782l-0.1219-0.0694
					L11.75644,21.53858z"></path><path fill="#fff" d="M11.75534 21.14868c.2712-.1565.5312-.4007.7726-.7017-.2869.4827-.7472 1.0611-.7715 1.0916-.0243-.0024-.4864-.0484-.7751-.1986C11.22374 21.36168 11.48424 21.30528 11.75534 21.14868zM11.29754 22.79288l.1778-.4858.1219.0694-.404 3.5782c-.6205-1.7153-.9764-3.9359-.9952-4.055.0021.0125.0089.0446.0244.0636C10.31754 22.09728 10.61184 22.69898 11.29754 22.79288z"></path><path fill="#e3e7f0" d="M10.66454,21.26458c0.1013,0.0398,0.2073,0.0654,0.3168,0.0753c0.2887,0.1503,0.7508,0.1962,0.7751,0.1987
					l-0.2811,0.7685l-0.1778,0.4858c-0.6857-0.0939-0.98-0.6956-1.0751-0.8297c-0.0155-0.0189-0.0223-0.051-0.0244-0.0635
					L10.66454,21.26458z"></path><path fill="#96d696" d="M10.19724,21.89458c0.0196,0.1242,0.3755,2.3447,0.996,4.0601c0.1719,0.4752,0.3639,0.9113,0.5749,1.2534
					c0.0044,0.0073-1.6172-1.0126-2.488-2.5013l0.8664-1.0445l-1.0222,0.1548C9.14264,23.77088,9.48954,22.89218,10.19724,21.89458z
					"></path><path fill="#77cb77" d="M13.31274,20.09588l1.6538-0.3912l0.7324-0.1732c0.7768-0.1861,1.3075,0.2824,1.31,1.1486l0.011,3.8996
					c0.002,0.7127-0.4998,1.5819-1.1201,1.94l-8.2449,4.7602c-0.6203,0.3582-1.1255,0.0703-1.1275-0.6424l-0.0111-3.8996
					c-0.0024-0.8662,0.5239-1.9449,1.2993-2.655l0.7309-0.6716l1.6508-1.5169c-0.7078,0.9978-1.0547,1.8765-1.073,1.9227
					l1.0222-0.1548l-0.8664,1.0445c0.8708,1.4887,2.4114,2.4577,2.4924,2.5086c0.0806-0.1443,1.6107-2.886,2.4701-5.3737
					l-0.8694-0.0424l1.0197-1.024C14.37444,20.75028,14.02374,20.27438,13.31274,20.09588z"></path><path fill="#4c5671" d="M9.45184,18.87048c0.1642,0.7482,0.6444,2.1712,1.2127,2.3941l-0.4672,0.6298l-1.6508,1.5169
					C8.99374,22.18178,9.26114,20.16058,9.45184,18.87048z"></path><path fill="#f9d5b4" d="M11.74114,16.13358c0.1459,0.332,0.5078,0.2222,1.3509-0.1588c0.6752-0.303,0.89,0.4044,0.9492,0.7023
					c-0.0116,0.1163-0.0282,0.2377-0.0496,0.3632c-0.1595,0.935-0.5831,2.0891-1.1483,2.9663
					c-0.1008,0.1565-0.2062,0.3043-0.3154,0.4404c-0.2414,0.3009-0.5014,0.5452-0.7726,0.7017
					c-0.2711,0.1566-0.5316,0.213-0.774,0.1912c-0.1095-0.0099-0.2155-0.0355-0.3168-0.0753
					c-0.5683-0.2229-0.9971-0.8848-1.1613-1.6329c-0.022-0.1002-0.0392-0.2017-0.0514-0.3041
					c0.0577-0.3647,0.2689-1.3195,0.942-1.795C11.23634,16.94038,11.59494,16.63418,11.74114,16.13358z"></path><path fill="#4c5671" d="M11.73634,14.43618c1.1961-0.6906,2.1923-0.1867,2.3687,1.1137l0.0028,0.0208
				c0.0622,0.3099,0.055,0.711-0.0466,1.2308c-0.0003-0.0024,0.0567-0.1248-0.02-0.1244c-0.3277,0.0015-0.274-1.0053-0.9492-0.7023
				c-0.8431,0.381-1.205,0.4908-1.3509,0.1588c-0.1462,0.5006-0.5048,0.8068-1.3473,1.399c-0.6731,0.4755-0.0195,0.9896-0.942,1.795
				c-0.07,0.0611-0.0191,0.1436-0.0193,0.1463c-0.1071-0.4089-0.1138-0.8116-0.0536-1.1954
				C9.55304,16.76938,10.54304,15.12518,11.73634,14.43618z"></path></g><g><polygon fill="#d3dbea" points="26.658 10.553 26.661 18.993 19.64 23.047 19.638 14.607"></polygon></g><g><polygon fill="#e34454" points="27.14 15.105 28.525 14.301 28.53 13.054 27.145 13.859"></polygon><polygon fill="#fe91ab" points="27.145 13.859 28.53 13.054 24.981 8.856 23.596 9.661"></polygon><polygon fill="#ed5d71" points="18.057 12.88 18.047 16.273 21.6 18.324 21.606 17.078"></polygon><polygon fill="#b4bed7" points="25.755 15.91 27.14 15.105 27.145 13.859 25.76 14.663"></polygon><polygon fill="#e3e7f0" points="25.76 14.663 27.145 13.859 23.596 9.661 22.211 10.465"></polygon><polygon fill="#e34454" points="24.37 16.715 25.755 15.91 25.76 14.663 24.375 15.468"></polygon><polygon fill="#fe91ab" points="24.375 15.468 25.76 14.663 22.211 10.465 20.827 11.27"></polygon><polygon fill="#b4bed7" points="22.985 17.52 24.37 16.715 24.375 15.468 22.991 16.273"></polygon><polygon fill="#e3e7f0" points="22.991 16.273 24.375 15.468 20.827 11.27 19.442 12.075"></polygon><g><polygon fill="#e34454" points="21.6 18.324 22.985 17.52 22.991 16.273 21.606 17.078"></polygon><polygon fill="#fe91ab" points="21.606 17.078 22.991 16.273 19.442 12.075 18.057 12.88"></polygon></g></g></svg>