<svg xmlns="http://www.w3.org/2000/svg" viewBox="0 0 51 51" id="website-analytics"><path fill="#4c5c75" d="M32.979 10.653c-.147-.086-.02.086-.253.226l-5.085 2.932-15.835 9.14c-.458.272-.83.917-.83 1.449l-.3 15.15-1.595-.908-.046-15.316c0-.532.372-1.177.83-1.443l20.92-12.078c.233-.133.446-.146.599-.06l1.595.908z"></path><path fill="#1c2841" d="M33.267 26.507 10.677 39.55l-.046-15.318c0-.532.372-1.176.834-1.444L32.384 10.71c.462-.268.838-.053.842.479l.041 15.318z"></path><path fill="#57b3fe" d="M32.628 26.13 11.333 38.434l-.046-14.206c0-.295.25-.729.517-.886l20.787-11.999.037 14.787z"></path><path fill="#e9e7fc" d="m10.677 39.549.007 2.058 13.243 7.687c.46.267 1.203.267 1.666 0l20.918-12.076c.234-.134.35-.312.35-.487l-.007-2.046c0 .175-.116.35-.35.484l-35.827 4.38z"></path><path fill="#f8f9fe" d="m10.679 39.548 13.243 7.696c.459.266 1.205.266 1.667 0l20.917-12.077c.464-.268.466-.7.007-.967l-13.242-7.695-22.592 13.043z"></path><path fill="#1c2841" d="M19.26 37.09c-.025-.015-.033-.024-.033-.04v-.17c0 .008.008.016.016.016-.016-.017-.016-.04.017-.057l.967-.561a.201.201 0 0 1 .139 0l.96.56c.032.025.04.058 0 .082.024-.008.032-.024.032-.04v.17c0 .016-.008.025-.033.04l-.968.562a.201.201 0 0 1-.138 0l-.96-.561zm1.691-.983c-.016-.008-.032-.024-.032-.033v-.17h.008c0-.017.008-.033.024-.041l.968-.561c.032-.024.097-.024.138 0l.96.561c.024.008.032.024.024.04l.008.171c0 .017-.016.025-.033.041l-.967.561a.202.202 0 0 1-.138 0l-.96-.569zm-3.383 1.96c-.024-.009-.032-.025-.032-.041v-.17c0-.017.008-.025.032-.041l.968-.561a.201.201 0 0 1 .138 0l.96.56c.016.017.024.025.024.041v.171a.045.045 0 0 1-.024.04l-.968.562a.202.202 0 0 1-.138 0l-.96-.561zm4.497.414c.008-.008.016-.016.016-.024v.17c0 .017-.008.025-.032.041l-.96.561a.201.201 0 0 1-.138 0l-.96-.56c-.024-.017-.032-.025-.032-.041v-.171c0-.016.008-.033.024-.04l.968-.562a.14.14 0 0 1 .138 0l.96.561c.032.017.032.04.016.065zm-4.123.561-.967.561a.202.202 0 0 1-.138 0l-.968-.56c-.016-.009-.024-.025-.024-.033v-.179c0-.016.008-.024.024-.04l.976-.554c.032-.024.097-.024.138 0l.96.553c.016.017.024.033.024.041v.17a.045.045 0 0 1-.025.041zm2.48.57-1.723.992c-.041.024-.106.024-.139 0l-.959-.553c-.024-.017-.033-.033-.033-.041v-.17c0-.017.009-.033.033-.041l1.724-1c.032-.025.097-.025.138 0l.96.56a.045.045 0 0 1 .024.041v.17c0 .017-.008.025-.024.042zm10.685-9.36c-.024-.016-.032-.024-.032-.04v-.171c0-.016.008-.033.024-.04l.968-.562c.04-.024.105-.016.138 0l.967.561a.045.045 0 0 1 .025.041v.17a.045.045 0 0 1-.025.041l-.967.553c-.04.025-.106.025-.138 0l-.96-.553zm-8.4 8.84c-.024-.009-.032-.025-.032-.041v-.163c0-.016.008-.033.032-.049l.968-.553c.033-.024.098-.024.138 0l.96.553c.016.016.024.033.024.04v.172a.045.045 0 0 1-.024.04l-.968.561c-.04.016-.097.025-.138 0l-.96-.56zm2.651-.416-.96-.56c-.016-.017-.024-.025-.024-.041v-.171c-.008-.016 0-.024.025-.04l.967-.554c.033-.024.098-.024.139 0l.96.553c.015.017.024.025.024.041v.17c0 .017-.009.025-.025.041l-.968.561a.202.202 0 0 1-.138 0zm-2.683-.447-.96-.56a.045.045 0 0 1-.024-.041v-.171c-.008-.008 0-.025.024-.04l.968-.554c.033-.024.098-.024.138 0l.96.553a.045.045 0 0 1 .024.04v.172a.045.045 0 0 1-.024.04l-.968.561c-.04.025-.106.025-.138 0zm3.35-5.05a.045.045 0 0 1-.024-.04v-.163c0-.016.008-.032.024-.048l.968-.553c.04-.025.105-.025.138 0l.96.553c.024.016.032.032.032.048v.163a.045.045 0 0 1-.025.04l-.967.562c-.04.024-.106.016-.138 0l-.968-.561zm2.163 3.75c0 .007 0 .016-.008.024l.008.146c0 .016-.016.024-.033.04l-.967.554a.14.14 0 0 1-.138 0l-.96-.553c-.024-.017-.032-.025-.032-.041v-.17s.008 0 .008.007c0-.016 0-.032.024-.048l.968-.561a.202.202 0 0 1 .138 0l.96.56c.016.017.032.025.032.041zm-.179-3.066.96.56c.016.017.024.025.024.041v.171c0 .016-.008.025-.033.04l-.967.562a.202.202 0 0 1-.138 0l-.96-.561a.045.045 0 0 1-.024-.04v-.172c0-.016.008-.024.024-.04l.976-.561a.201.201 0 0 1 .138 0zm-.293-1.66a.045.045 0 0 1-.024-.04v-.17c0-.017.008-.025.024-.041l.968-.561a.165.165 0 0 1 .138.008l.96.553c.024.016.032.032.032.049v.162a.045.045 0 0 1-.024.04l-.976.562c-.032.024-.098.024-.138 0l-.96-.561zm3.603 1.034-.96-.561c-.024-.009-.033-.025-.033-.033v-.17c0-.017.009-.033.033-.041l.96-.561c.04-.025.105-.025.138 0l.96.56c.024.009.032.025.032.041v.171c0 .008-.008.024-.025.033l-.967.56c-.04.025-.106.025-.138 0zm.805 1.528-.96-.553c-.016-.016-.024-.032-.024-.04V34c0-.016.008-.033.024-.04l.968-.562a.14.14 0 0 1 .138 0l.96.561c.024.008.032.025.032.041v.17c0 .009-.008.025-.033.033l-.967.561c-.033.025-.098.025-.138 0zm-2.708-3.537c-.025-.016-.033-.024-.033-.04v-.171c0-.016.008-.033.025-.04l.967-.562a.202.202 0 0 1 .139 0l.967.561c.016.016.025.025.025.04v.172a.045.045 0 0 1-.025.04l-.967.553c-.041.033-.106.025-.139 0l-.96-.553zm2.659.212 1.715-.992c.041-.025.106-.025.139 0l.967.553c.017.016.025.032.025.04v.17a.045.045 0 0 1-.025.042l-1.724.992c-.04.024-.105.024-.138 0l-.96-.553c-.024-.017-.032-.025-.032-.05v-.162c0-.016.008-.032.033-.04zm6.228 1.569v.17c0 .017-.008.025-.024.041l-2.488 1.431a.14.14 0 0 1-.139 0l-.959-.552c-.024-.017-.033-.025-.033-.041v-.17c0-.017.017-.033.033-.042l2.488-1.439a.202.202 0 0 1 .138 0l.96.561a.045.045 0 0 1 .024.04zm-8.57-.138.96.553c.024.016.032.032.024.048l.008.163c0 .016-.008.033-.033.04l-.967.562a.201.201 0 0 1-.138 0l-.96-.561c-.016-.008-.033-.025-.033-.04v-.172c0-.016.017-.024.033-.04l.968-.553a.14.14 0 0 1 .138 0zm-5.14 8.058.009.162c0 .017-.016.033-.032.041l-2.489 1.44a.14.14 0 0 1-.138 0l-.96-.562c-.024-.008-.032-.024-.032-.032v-.18c0 .009.008.009.008.009-.008-.016 0-.032.025-.049l2.488-1.43c.032-.025.097-.025.138 0l.96.552c.024.016.032.033.024.049zm-1.975-5.83-.008-.171c0-.016.016-.033.032-.04l.968-.562a.14.14 0 0 1 .138 0l.96.561c.024.017.032.033.016.057l.016-.016v.17c0 .017-.008.025-.032.041l-.968.553c-.032.025-.097.025-.138 0l-.96-.56c-.016-.009-.024-.025-.024-.033zm6.123 1.618-.96-.553c-.016-.016-.024-.024-.024-.04l-.008-.171c0-.017.016-.025.032-.041l.968-.561c.04-.016.098-.025.138 0l.96.56c.024.009.032.025.032.042v.17c0 .017-.008.025-.032.04l-.968.554c-.032.024-.097.024-.138 0zm4.293-3.838 2.48-1.431a.14.14 0 0 1 .138 0l.96.553c.024.016.033.032.033.048v.163a.045.045 0 0 1-.025.04l-2.496 1.44c-.033.024-.098.024-.138 0l-.952-.561c-.024-.008-.032-.024-.032-.04v-.172c0-.016.008-.024.032-.04zm-2.602 2.862-.96-.553c-.016-.016-.032-.024-.032-.04v-.171c0 .008.016.016.025.032-.025-.024-.025-.057.008-.073l.967-.561a.14.14 0 0 1 .139 0l.959.561c.016.016.033.024.033.04v.163c0 .025-.009.033-.033.05l-.968.552a.14.14 0 0 1-.138 0zm-4.155-.878.96.561c.024.016.024.032.024.049 0-.008.008-.008.008-.008v.162c0 .025-.008.033-.032.049l-.968.553c-.033.024-.098.024-.138 0l-.96-.553c-.016-.016-.032-.024-.032-.04v-.171c0-.017.008-.025.032-.041l.968-.561a.14.14 0 0 1 .138 0zm-1.732 1 .96.553c.032.016.032.04.016.065.008-.008.016-.016.016-.024v.17c0 .017-.008.033-.032.05l-.96.552c-.04.025-.106.025-.138 0l-.96-.553c-.024-.016-.032-.032-.032-.049v-.162c0-.016.008-.033.032-.049l.96-.553c.04-.024.106-.024.138 0zm10.498-1.025c.016.009.024.017.024.033v.179c0 .008-.008.024-.024.04l-9.498 5.481c-.04.024-.105.024-.138 0l-.968-.553c-.016-.016-.024-.024-.024-.04v-.171c0-.017.008-.033.024-.04l9.506-5.49c.032-.016.097-.024.138 0l.96.561zm-11.929 5.213-2.7 1.553c-.032.024-.089.024-.138 0l-.96-.561c-.016-.008-.024-.017-.024-.033v-.17c0-.017.008-.033.025-.041l2.7-1.561a.202.202 0 0 1 .137 0l.96.56c.016.017.033.025.033.041v.171a.05.05 0 0 1-.033.04zm1.22-5.896c-.017-.008-.025-.016-.025-.04v-.163c0-.016.008-.024.025-.04l.967-.562c.041-.024.106-.024.139 0l.96.562c.023.008.032.024.032.032v.17c0 .017-.009.033-.033.041l-.968.562a.14.14 0 0 1-.138 0l-.96-.562z"></path><path fill="#4d5c75" d="M31.103 30c-.038.021-.038.058 0 .08l.962.559a.156.156 0 0 0 .138 0l.966-.558c.04-.023.038-.058 0-.08l-.962-.56a.151.151 0 0 0-.138 0l-.966.558zm-1.691.976c-.04.023-.038.058 0 .08l.962.56a.151.151 0 0 0 .138 0l.966-.558c.038-.022.038-.06 0-.08l-.962-.56a.156.156 0 0 0-.138 0l-.966.558zm-1.694.978c-.038.021-.038.058 0 .08l.962.56a.156.156 0 0 0 .138 0l.97-.56c.037-.022.034-.057-.003-.079l-.962-.559a.15.15 0 0 0-.136-.002l-.97.56zM32.073 31.438c-.04.023-.04.057 0 .08l.96.558a.151.151 0 0 0 .138 0l1.72-.994c.041-.023.038-.058.001-.08l-.96-.558a.147.147 0 0 0-.138 0l-1.72.994zM30.356 32.43c-.038.021-.04.057 0 .08l.959.558a.156.156 0 0 0 .139 0l.965-.558c.04-.023.038-.059 0-.08l-.959-.558a.147.147 0 0 0-.138 0l-.966.557zM28.627 33.427c-.037.022-.04.058 0 .08l.96.558a.156.156 0 0 0 .138 0l.969-.559c.037-.021.035-.057-.003-.079l-.96-.557a.146.146 0 0 0-.135-.002l-.969.56zM26.899 34.425c-.038.022-.04.058 0 .08l.959.558a.156.156 0 0 0 .138 0l.97-.559c.037-.021.037-.059 0-.08l-.96-.558a.152.152 0 0 0-.139 0l-.968.56zM25.17 35.423c-.037.022-.04.058 0 .08l.96.558a.156.156 0 0 0 .138 0l.969-.559c.037-.021.037-.059 0-.08l-.96-.558a.151.151 0 0 0-.138 0l-.969.56zM23.444 36.42c-.04.023-.04.057 0 .08l.96.558a.151.151 0 0 0 .138 0l.966-.558c.037-.022.038-.059 0-.08l-.96-.558a.152.152 0 0 0-.138 0l-.966.558zM21.716 37.418c-.04.023-.04.057 0 .08l.959.558a.151.151 0 0 0 .139 0l.966-.558c.037-.022.037-.059 0-.08l-.96-.558a.151.151 0 0 0-.138 0l-.966.558zM19.987 38.416c-.04.023-.04.057 0 .08l.96.558a.151.151 0 0 0 .138 0l.966-.558c.04-.023.038-.059 0-.08l-.96-.558a.147.147 0 0 0-.138 0l-.966.558zM26.027 32.93c-.04.023-.038.059 0 .08l.962.56a.151.151 0 0 0 .138 0l.966-.558c.04-.023.038-.059 0-.08l-.962-.56a.151.151 0 0 0-.138 0l-.966.558zM24.333 33.908c-.037.021-.038.059 0 .08l.962.56a.156.156 0 0 0 .139 0l.968-.56c.038-.021.038-.059 0-.08l-.962-.56a.156.156 0 0 0-.138 0l-.969.56zM22.642 34.884c-.037.022-.038.059 0 .08l.962.56a.156.156 0 0 0 .139 0l.966-.558c.04-.023.037-.059 0-.08l-.962-.56a.151.151 0 0 0-.139 0l-.966.558zM20.951 35.86c-.04.024-.038.06 0 .08l.962.56a.151.151 0 0 0 .139 0l.966-.558c.037-.021.037-.058 0-.08l-.962-.56a.156.156 0 0 0-.139 0l-.966.559zM19.257 36.838c-.037.022-.037.06 0 .08l.962.56a.156.156 0 0 0 .139 0l.968-.56c.038-.02.035-.056-.002-.078l-.962-.56a.15.15 0 0 0-.136 0l-.969.558zM17.566 37.815c-.04.023-.037.058 0 .08l.962.56a.151.151 0 0 0 .139 0l.966-.558c.04-.024.037-.06 0-.08l-.962-.56a.151.151 0 0 0-.139 0l-.966.558zM15.872 38.793c-.037.021-.037.058 0 .08l.962.56a.156.156 0 0 0 .139 0l.969-.56c.037-.022.037-.059 0-.08l-.962-.56a.156.156 0 0 0-.139 0l-.969.56zM17.598 39.795c-.038.022-.04.057 0 .08l.959.558a.156.156 0 0 0 .139 0l1.723-.995c.04-.023.037-.058 0-.08l-.96-.558a.147.147 0 0 0-.138 0l-1.723.995zM33.03 32.88c-.037.022-.04.058 0 .08l.96.559c.04.023.101.021.139 0l2.485-1.436c.04-.023.04-.057 0-.08l-.959-.558a.147.147 0 0 0-.138 0l-2.486 1.436zM31.166 33.957c-.038.022-.04.057 0 .08l.959.558c.04.024.101.022.139 0l.968-.559c.038-.022.038-.055-.002-.079l-.96-.557a.146.146 0 0 0-.136-.002l-.968.56zM29.475 34.934c-.04.023-.04.057 0 .08l.959.558c.04.023.098.023.139 0l.966-.558c.04-.023.04-.057 0-.08l-.96-.558a.147.147 0 0 0-.138 0l-.966.558zM27.781 35.912c-.037.021-.04.057 0 .08l.96.558c.04.023.1.021.138 0l.969-.56c.037-.021.04-.057 0-.08l-.96-.558a.152.152 0 0 0-.138 0l-.969.56zM26.09 36.888c-.038.022-.04.057 0 .08l.96.558c.039.023.1.022.138 0l.966-.558c.04-.023.04-.057 0-.08l-.96-.558a.147.147 0 0 0-.138 0l-.966.558zM24.399 37.864c-.04.023-.04.057 0 .08l.96.558c.039.023.098.023.138 0l.966-.557c.037-.022.04-.058 0-.08l-.96-.558a.152.152 0 0 0-.138 0l-.966.557zM22.705 38.842c-.037.022-.04.057 0 .08l.96.558c.04.023.1.022.138 0l.969-.56c.037-.02.037-.055-.003-.078l-.96-.558a.146.146 0 0 0-.135-.001l-.969.56zM19.32 40.796c-.037.022-.04.057 0 .08l.96.558c.04.023.1.022.138 0l2.695-1.555c.04-.023.04-.057 0-.08l-.96-.558a.147.147 0 0 0-.138 0l-2.695 1.555zM34.692 33.846c-.037.022-.04.057 0 .08l.96.558c.04.023.1.022.138 0l2.486-1.435c.04-.023.04-.057 0-.08l-.96-.558a.147.147 0 0 0-.138 0l-2.486 1.435zM35.04 34.917l-9.5 5.485a.153.153 0 0 1-.14 0l-.958-.558c-.042-.02-.038-.06 0-.08l9.5-5.486a.153.153 0 0 1 .14 0l.958.558c.043.025.039.06 0 .081z"></path><path fill="#1c2841" d="m17.94 39.045-.967.557a.155.155 0 0 1-.139 0l-.963-.557c-.018-.013-.026-.026-.026-.04v-.172c0 .013.008.03.026.039l.963.562c.04.021.1.021.139 0l.968-.562c.021-.009.03-.026.03-.039v.169c0 .017-.009.03-.03.043zm-.375-.981c-.018-.009-.026-.022-.026-.04v-.168c0 .013.008.026.026.04l.963.557c.04.021.1.026.139 0l.967-.558a.046.046 0 0 0 .026-.039v.173c0 .013-.008.026-.026.04l-.967.557a.156.156 0 0 1-.139 0l-.963-.562zm3.387-1.953c-.021-.009-.03-.026-.03-.04V35.9c0 .017.009.03.03.043l.96.558c.039.021.1.021.138 0l.968-.558a.046.046 0 0 0 .026-.039l.004.169c0 .017-.013.03-.03.043l-.968.557a.156.156 0 0 1-.138 0l-.96-.561zm3.591.946.964-.557c.022-.01.03-.026.03-.04v.17c0 .016-.008.03-.03.042l-.964.558a.156.156 0 0 1-.138 0l-.96-.558c-.02-.013-.03-.026-.03-.043v-.168c0 .013.01.026.03.039l.96.557a.143.143 0 0 0 .138 0zm.052 3.872.005.164c0 .017-.013.03-.03.039l-2.49 1.439a.155.155 0 0 1-.138 0l-.96-.558c-.02-.013-.03-.026-.03-.038v-.173c0 .013.01.03.03.039l.96.557c.039.026.1.022.138 0l2.49-1.435c.012-.013.025-.021.025-.034zm-.263-6.772c-.018-.008-.026-.021-.026-.038v-.169c0 .013.008.026.026.039l.963.557c.04.022.1.022.139 0l.968-.557c.021-.013.03-.026.03-.043v.173c0 .013-.009.03-.03.038l-.968.562a.156.156 0 0 1-.139 0l-.963-.562zm-5.073 2.935c-.022-.013-.03-.026-.03-.044v-.168c0 .013.008.03.03.039l.959.557a.156.156 0 0 0 .138 0l.972-.557a.046.046 0 0 0 .026-.04v.174c0 .013-.008.026-.026.039l-.968.557a.165.165 0 0 1-.142 0l-.96-.557zm3.448 2c-.022-.008-.03-.026-.03-.039v-.168c0 .013.008.026.026.039l.963.557c.04.022.1.022.138 0l.968-.562c.018-.008.026-.021.026-.038v.172c0 .013-.008.026-.026.04l-.968.557c-.038.021-.099.026-.138 0l-.96-.558zm-.09-3.997-.005-.168c0 .013.013.026.03.038l.964.558c.034.022.1.022.138 0l.964-.558c.021-.012.03-.025.03-.038v.168c0 .017-.009.03-.03.043l-.964.558a.156.156 0 0 1-.138 0l-.964-.562a.046.046 0 0 1-.026-.039zm-1.53 3.958.963-.557c.022-.013.03-.026.03-.039v.169c0 .017-.008.03-.03.043l-.964.557a.155.155 0 0 1-.138 0l-.96-.557c-.02-.013-.03-.026-.03-.043v-.169c0 .013.01.026.03.039l.96.557c.035.022.095.022.138 0zm-.666.558-1.724.994a.156.156 0 0 1-.139 0l-.959-.558c-.021-.013-.03-.026-.03-.039v-.172c0 .012.009.03.03.038l.96.558c.034.021.099.021.138 0l1.724-.994c.017-.013.026-.026.026-.039v.169c0 .017-.009.03-.026.043zm2.256-1.383-.96-.557c-.021-.013-.03-.026-.03-.044v-.168c0 .013.009.026.03.039l.96.557c.034.022.095.022.138 0l.964-.557c.021-.009.03-.026.03-.04v.17c0 .017-.009.03-.03.043l-.964.557a.156.156 0 0 1-.138 0zm.436 1.824-2.696 1.555c-.035.022-.095.022-.139 0l-.959-.562c-.017-.008-.026-.021-.026-.038v-.169c0 .013.009.026.026.039l.96.557c.043.022.103.022.138 0l2.696-1.555c.022-.013.03-.026.03-.04v.17c0 .012-.008.03-.03.043zm2.247-1.379-.96-.557c-.02-.013-.03-.026-.03-.04v-.172c0 .013.01.03.026.039l.964.557a.133.133 0 0 0 .138 0l.964-.557c.022-.009.03-.026.03-.04v.174c0 .013-.008.026-.03.039l-.964.557a.156.156 0 0 1-.138 0zm2.36-6.469c-.022-.008-.03-.026-.03-.039v-.173c0 .018.008.03.03.044l.959.557a.156.156 0 0 0 .138 0l.968-.557c.022-.013.03-.026.03-.04v.17c0 .017-.008.03-.026.038l-.972.562a.156.156 0 0 1-.138 0l-.96-.562zm2.713 3.54-.96-.558c-.016-.013-.03-.026-.03-.039v-.173c0 .013.014.03.03.039l.96.557c.04.026.1.026.138 0l.968-.557c.018-.009.03-.026.03-.039v.169c0 .017-.008.03-.03.043l-.968.557a.156.156 0 0 1-.138 0zm-3.383 1.953-.96-.558c-.021-.013-.03-.026-.03-.039v-.173c0 .018.009.03.03.04l.96.561c.039.022.1.022.138 0l.968-.562c.013-.008.026-.021.026-.034l.004.168c0 .013-.013.026-.03.04l-.968.557a.156.156 0 0 1-.138 0zm.946-2.632.968-.562c.022-.009.03-.026.03-.039v.169c0 .017-.008.03-.03.043l-.968.557a.156.156 0 0 1-.138 0l-.96-.557c-.017-.009-.03-.026-.03-.039v-.173c0 .018.009.03.03.043l.96.558c.039.022.1.022.138 0zm-1.728.998.967-.562c.022-.008.03-.026.03-.039v.169c0 .017-.008.03-.03.043l-.967.558a.156.156 0 0 1-.139 0l-.96-.558c-.016-.013-.03-.026-.03-.039v-.173c0 .018.01.03.03.044l.96.557c.04.022.1.022.139 0zm2.471.657-.959-.558c-.017-.012-.026-.025-.026-.038l-.004-.173c0 .017.013.03.03.043l.96.557a.155.155 0 0 0 .138 0l.968-.561c.021-.009.03-.026.03-.04v.17c0 .017-.009.03-.026.042l-.972.558c-.035.022-.096.022-.139 0zm.674-5.492c-.021-.013-.03-.026-.03-.04v-.172c0 .013.009.03.026.039l.964.562c.039.021.1.021.138 0l.968-.558c.017-.013.026-.026.026-.043v.173c0 .013-.009.03-.026.039l-.968.557c-.039.026-.1.022-.138 0l-.96-.557zm-3.387 1.953a.046.046 0 0 1-.026-.039v-.173c0 .017.008.03.026.043l.963.558c.04.021.1.021.138 0l.968-.558c.018-.013.026-.026.026-.039v.169c0 .013-.008.03-.026.039l-.968.557c-.038.026-.099.022-.138 0l-.963-.557zm3.699.886.967-.562c.013-.009.026-.017.026-.03l.005.164c0 .013-.009.026-.03.039l-.968.557a.156.156 0 0 1-.139 0l-.96-.557c-.016-.009-.03-.026-.03-.04v-.172c0 .017.01.03.03.043l.96.558c.04.021.1.021.139 0zm1.352-3.855-.004-.173c0 .018.013.03.03.04l.964.56c.034.023.099.023.138 0l.964-.556c.021-.013.03-.026.03-.044v.173c0 .013-.009.03-.03.04l-.964.556a.156.156 0 0 1-.138 0l-.964-.557c-.017-.013-.026-.026-.026-.039zm.238 3.025-.96-.557c-.017-.01-.03-.026-.03-.04v-.168c0 .013.009.026.03.039l.96.557c.039.022.1.022.138 0l.968-.557c.017-.013.026-.026.026-.043l.004.173c0 .013-.013.03-.03.039l-.968.557a.156.156 0 0 1-.138 0zm3.725 1.681c.021-.013.03-.026.03-.043v.173c0 .013-.009.03-.03.039l-9.498 5.487a.155.155 0 0 1-.139 0l-.963-.557c-.018-.013-.026-.026-.026-.043v-.169c0 .013.008.03.026.04l.959.557a.151.151 0 0 0 .143 0l9.498-5.484zm-2.913-.151-.96-.558c-.02-.013-.03-.026-.03-.039v-.172c0 .012.01.03.026.038l.964.558c.039.026.1.021.138 0l.968-.558c.018-.013.026-.026.026-.038v.172c0 .013-.008.026-.026.035l-.968.562a.155.155 0 0 1-.138 0zm1.046-2.692 1.72-.994c.017-.009.03-.026.03-.04v.174c0 .013-.009.026-.03.039l-1.72.993c-.043.022-.104.022-.138 0l-.96-.557c-.021-.013-.03-.026-.03-.043v-.169c0 .013.009.03.026.04l.964.557a.143.143 0 0 0 .138 0zm.955 1.443 2.485-1.435c.021-.013.03-.026.03-.039l.004.169c0 .017-.013.03-.03.043l-2.49 1.435a.156.156 0 0 1-.137 0l-.96-.558c-.017-.013-.03-.026-.03-.043v-.168c0 .013.013.025.03.038l.96.558c.038.026.103.021.138 0zm4.178-.51v.173c0 .013-.008.026-.03.039l-2.484 1.434a.156.156 0 0 1-.139 0l-.96-.557c-.02-.013-.03-.026-.03-.039v-.173c0 .017.01.03.03.043l.96.558c.04.021.1.021.139 0l2.484-1.44c.022-.008.03-.025.03-.038z"></path><path fill="#4d5c75" d="M20.982 41.762c-.038.021-.04.057 0 .08l.959.558c.04.023.101.021.139 0l2.488-1.437c.038-.021.04-.057 0-.08l-.96-.558a.152.152 0 0 0-.138 0l-2.488 1.437z"></path><path fill="#dedffb" d="M31.41 28.462c.358-.206.94-.206 1.295 0l7.416 4.31c.356.207.354.544-.004.75L22.742 43.554c-.357.206-.939.206-1.294 0l-7.417-4.31c-.355-.207-.353-.544.004-.75L31.41 28.462zm-9.67 14.923a.786.786 0 0 0 .712 0l17.375-10.031c.197-.114.199-.3.003-.413l-7.417-4.31a.786.786 0 0 0-.713 0L14.325 38.662c-.197.114-.198.3-.002.413l7.417 4.31z"></path><path fill="#b0b8cf" d="M36.244 40.423a.42.42 0 0 1-.146.168l-4.41 2.56a.74.74 0 0 1-.775 0l-2.805-1.617a.375.375 0 0 1-.158-.168.375.375 0 0 1 .158-.494l4.41-2.559a.72.72 0 0 1 .763 0l2.817 1.616c.18.101.225.326.146.494z"></path><path fill="#e9e7fc" d="M36.244 40.423a.42.42 0 0 1-.146.168l-4.41 2.56a.74.74 0 0 1-.775 0l-2.805-1.617a.375.375 0 0 1-.158-.168c.023-.079.08-.135.158-.18l4.41-2.559a.72.72 0 0 1 .763 0l2.817 1.616a.287.287 0 0 1 .146.18z"></path><path fill="#101c32" d="M14.695 37.12c.038-.023.09-.02.15.014a.486.486 0 0 1 .216.383l17.106-9.893a.483.483 0 0 0-.215-.382c-.059-.034-.112-.036-.15-.014L14.694 37.12z"></path><path fill="#4d5c75" d="M14.845 37.134c-.12-.07-.216-.006-.217.132l.433.25a.485.485 0 0 0-.216-.382z"></path><path fill="#fff" d="m32.201 12.005-.003.004v-.002z"></path><path fill="#dedffb" d="M31.968 23.36c.01.44-.3.97-.68 1.19l-17.01 9.82c-.205.119-.387.11-.514.015.01.009.013.027.024.034l-1.08-.63c-.13-.07-.2-.22-.2-.44l-.05-19.49v-1.23c0-.47.32-1.03.73-1.26l16.92-9.77c.21-.12.39-.13.52-.06 1.006.664 1.29.567 1.29 1.1l.01 1.23.04 19.49z"></path><path fill="#dedffb" d="m13.785 34.418-1.08-.626c-.122-.073-.198-.224-.198-.442L12.46 13.86l1.079.628.045 19.489c.002.215.078.368.2.44z"></path><path fill="#f3f1fc" d="m13.539 14.489-1.078-.627 17.641-11.05 1.825 1.061z"></path><path fill="#f3f1fc" d="m31.927 3.873.045 19.488c.002.437-.306.968-.686 1.188l-17.01 9.82c-.38.22-.69.045-.691-.392l-.046-19.488L31.927 3.873z"></path><path fill="#fff" d="m14.166 14.85 17.137-9.895.043 18.408c0 .212-.187.536-.373.644l-16.76 9.676-.047-18.834z"></path><path fill="#df3260" d="m31.925 3.873-.003-1.234c0-.231-.083-.393-.214-.469h.001l-.002-.001-1.076-.625c-.133-.078-.317-.067-.52.05l-16.927 9.774c-.403.232-.728.796-.727 1.26l.004 1.234 1.078.627L31.925 3.873z"></path><path fill="#f45170" d="M30.63 1.544c-.132-.077-.316-.066-.52.05l-16.927 9.774c-.402.232-.727.796-.726 1.26l.004 1.234 1.078.627-.003-1.235c-.002-.464.324-1.027.726-1.26l16.927-9.772c.204-.118.387-.129.52-.052l-1.078-.626z"></path><path fill="#df3260" d="M31.19 2.222c.403-.234.73-.047.732.417l.003 1.234L13.54 14.49l-.003-1.235c-.002-.464.324-1.027.726-1.26l16.927-9.772z"></path><g fill="#fff"><path d="M14.718 12.33c.264-.153.476-.031.477.27.001.303-.21.67-.473.821-.262.151-.476.031-.477-.271-.001-.303.212-.67.473-.82z"></path><ellipse cx="16.374" cy="11.92" rx=".67" ry=".388" transform="rotate(-59.838 16.374 11.92)"></ellipse><path d="M18.027 10.419c.262-.151.476-.03.477.272 0 .302-.212.669-.474.82-.263.152-.477.032-.478-.27 0-.303.212-.67.475-.822zm12.865-7.251c.177-.103.324-.021.324.182a.712.712 0 0 1-.322.558l-7.914 4.57c-.179.103-.324.02-.325-.186a.64.64 0 0 1 .095-.314c.059-.1.139-.19.228-.241l7.914-4.57z"></path></g><path fill="#dba660" d="M27.36 13.69c.783-.451 1.426 2.868 1.432 4.999l-2.83 1.634.636-.367a27.407 27.407 0 0 0-.255-3.457c.254-1.389.615-2.576 1.017-2.809z"></path><path fill="#e93565" d="M20.27 14.77c.645-.372 1.198 3.233 1.367 6.314.033.6.05 1.18.052 1.706l-.192.11-2.185 1.263-.412.237c-.002-.832.037-1.843.108-2.895.207-3.036.69-6.404 1.262-6.734z"></path><path fill="#ffd06c" d="M17.813 19.572c.486-.281.921.685 1.195 1.933A42.394 42.394 0 0 0 18.9 24.4l.412-.237-2.966 1.712c-.006-1.996.649-5.83 1.467-6.303z"></path><path fill="#986ff9" d="M22.682 17.81c.407-.235.77.612.989 1.674.137.664.22 1.414.22 2.034l-.312.18-2.082 1.203.192-.111a33.416 33.416 0 0 0-.052-1.706c.199-1.465.59-3.011 1.045-3.274z"></path><path fill="#78e75a" d="M25.067 13.083c.53-.306 1 1.402 1.276 3.416.159 1.16.252 2.42.255 3.457l-.637.367L23.58 21.7l.313-.18c-.002-.621-.084-1.37-.221-2.035.208-2.77.75-6.029 1.396-6.401z"></path><path fill="#dedffb" d="m15.854 15.906.031 10.919 14.173-8.183.001.461-14.573 8.414-.033-11.379z"></path><path fill="#78e75a" d="M15.105 29.242c.195-.113.354-.022.355.207a.78.78 0 0 1-.353.612c-.2.115-.36.024-.36-.2 0-.23.158-.504.358-.62z"></path><path fill="#dedffb" d="m18.13 29.601.001.229-2.293 1.324-.001-.229zM19.768 28.143v.225l-3.932 2.27v-.225zM18.126 28.051v.23l-2.293 1.324v-.23zM19.763 26.594l.001.224-3.932 2.27-.001-.224z"></path><path fill="#f45170" d="M15.11 30.791c.194-.113.354-.022.354.208a.78.78 0 0 1-.353.611c-.2.116-.359.025-.36-.2 0-.23.158-.504.358-.619z"></path><path fill="#dba660" d="M20.599 26.07c.2-.116.359-.025.36.205a.78.78 0 0 1-.358.614c-.195.112-.36.024-.36-.2a.79.79 0 0 1 .358-.62z"></path><path fill="#dedffb" d="m25.262 23.419.001.224-3.937 2.273-.001-.224zM25.266 24.969l.001.224-3.937 2.273v-.225zM23.629 26.426v.23l-2.297 1.326-.001-.229zM23.624 24.877l.001.229-2.298 1.327v-.23z"></path><path fill="#423d9b" d="M20.603 27.62c.2-.116.36-.025.36.204a.78.78 0 0 1-.358.614c-.195.113-.359.025-.36-.2a.79.79 0 0 1 .358-.619z"></path><path fill="#f45170" d="M26.097 22.895c.195-.113.36-.025.36.205a.789.789 0 0 1-.357.614c-.2.115-.36.025-.36-.2 0-.23.157-.504.357-.619z"></path><path fill="#dedffb" d="M30.76 20.245l.001.224-3.937 2.273v-.225zM29.127 23.252l.001.229-2.298 1.327v-.23zM30.765 21.794v.224l-3.936 2.273-.001-.224zM29.123 21.702v.23l-2.297 1.326-.001-.229z"></path><path fill="#78e75a" d="M26.102 24.445c.195-.113.359-.025.36.205a.789.789 0 0 1-.358.614c-.2.115-.36.024-.36-.2 0-.23.158-.504.358-.62z"></path><path fill="#cc104a" d="M47.688 23.54v1.16c0 .92-.61 1.83-1.81 2.53-2.41 1.4-6.35 1.41-8.78 0-1.23-.7-1.84-1.63-1.83-2.56V23.5c-.02-.93.58-1.86 1.8-2.57 2.42-1.4 6.36-1.4 8.79 0 1.24.72 1.85 1.67 1.83 2.61z"></path><path fill="#cc104a" d="m47.692 23.496-.005 1.208c-.003.915-.604 1.828-1.806 2.527-2.414 1.403-6.35 1.405-8.785 0-1.223-.706-1.834-1.635-1.832-2.563l.005-1.207c-.002.927.608 1.856 1.831 2.562 2.435 1.406 6.371 1.403 8.786 0 1.202-.698 1.803-1.612 1.806-2.527z"></path><ellipse cx="41.476" cy="23.479" fill="#f45170" rx="3.598" ry="6.212" transform="rotate(-89.838 41.476 23.479)"></ellipse><ellipse cx="41.477" cy="23.479" fill="#fff" rx="3.181" ry="5.492" transform="rotate(-89.838 41.477 23.479)"></ellipse><ellipse cx="41.477" cy="23.479" fill="#f45170" rx="2.713" ry="4.683" transform="rotate(-89.838 41.477 23.479)"></ellipse><ellipse cx="41.477" cy="23.479" fill="#fff" rx="2.145" ry="3.702" transform="rotate(-89.838 41.477 23.479)"></ellipse><ellipse cx="41.477" cy="23.479" fill="#f45170" rx="1.412" ry="2.438" transform="rotate(-89.838 41.477 23.479)"></ellipse><path fill="#2e374c" d="M41.869 15.903v7.768c0 .027 0 .054-.01.072-.008.01-.008.01-.008.018-.027.028-.054.046-.09.073a.611.611 0 0 1-.56 0c-.071-.045-.116-.1-.116-.163v-7.768c0-.216.171-.397.396-.397.217 0 .388.18.388.397z"></path><path fill="#2e374c" d="m43.012 10.86.011 3.89-1.536 1.948-1.542-.171-.011-3.89 1.542.174z"></path><path fill="#ffd06c" d="m12.522 45.702-.005 1.148c-.002.679-.448 1.356-1.339 1.874-1.794 1.042-4.708 1.042-6.514 0-.905-.523-1.358-1.21-1.356-1.896l.005-1.148c-.002.686.488 1.315 1.393 1.838 1.806 1.043 4.679 1.012 6.472-.03.891-.518 1.342-1.107 1.344-1.786z"></path><path fill="#f9a83d" d="M11.181 47.576c-.352.207-.747.37-1.17.493-.333.1-.679.172-1.034.217a7.607 7.607 0 0 1-3.155-.223 5.416 5.416 0 0 1-1.154-.487c-1.8-1.039-1.81-2.728-.014-3.77.352-.203.747-.37 1.168-.493a7.518 7.518 0 0 1 3.155-.214c.355.045.701.12 1.033.217.416.126.805.287 1.151.487 1.807 1.042 1.816 2.731.02 3.773z"></path><path fill="#ffd06c" d="M7.93 47.864c-1.113 0-2.155-.248-2.934-.698-.714-.412-1.108-.938-1.108-1.48-.001-.538.387-1.061 1.093-1.471.774-.45 1.814-.698 2.927-.698 1.11 0 2.15.247 2.927.695.716.414 1.111.94 1.112 1.484 0 .538-.387 1.06-1.093 1.47-.774.45-1.812.698-2.924.698z"></path><path fill="#ffd06c" d="m14.101 44.06-.004 1.149c-.002.678-.448 1.356-1.34 1.873-1.793 1.043-4.708 1.043-6.513 0-.906-.523-1.358-1.21-1.356-1.895l.005-1.148c-.002.686.487 1.315 1.393 1.838 1.805 1.042 4.678 1.012 6.472-.03.89-.518 1.341-1.108 1.343-1.786z"></path><path fill="#f9a83d" d="M12.761 45.935c-.352.206-.747.37-1.17.492-.333.1-.68.172-1.034.218a7.607 7.607 0 0 1-3.155-.223 5.416 5.416 0 0 1-1.154-.487c-1.801-1.04-1.81-2.729-.015-3.77.353-.204.748-.37 1.169-.493a7.518 7.518 0 0 1 3.155-.215c.355.046.701.12 1.033.218.415.126.805.286 1.151.486 1.807 1.043 1.815 2.732.02 3.774z"></path><path fill="#ffd06c" d="M9.51 46.222c-1.113 0-2.155-.247-2.935-.697-.713-.413-1.107-.938-1.108-1.48 0-.539.388-1.062 1.094-1.472.774-.45 1.813-.697 2.926-.697 1.111 0 2.15.247 2.927.695.717.413 1.112.94 1.112 1.483.001.539-.387 1.061-1.092 1.471-.774.45-1.813.697-2.925.697z"></path><path fill="#ffd06c" d="m12.522 42.42-.005 1.147c-.002.679-.448 1.356-1.339 1.874-1.794 1.042-4.708 1.042-6.514 0-.905-.523-1.358-1.21-1.356-1.896l.005-1.148c-.002.686.488 1.315 1.393 1.838 1.806 1.042 4.679 1.012 6.472-.03.891-.518 1.342-1.107 1.344-1.786z"></path><path fill="#f9a83d" d="M11.181 44.293c-.352.206-.747.37-1.17.493-.333.1-.679.172-1.034.217a7.607 7.607 0 0 1-3.155-.223 5.416 5.416 0 0 1-1.154-.487c-1.8-1.039-1.81-2.728-.014-3.77.352-.204.747-.37 1.168-.493a7.518 7.518 0 0 1 3.155-.214c.355.045.701.12 1.033.217.416.126.805.286 1.151.487 1.807 1.042 1.816 2.731.02 3.773z"></path><path fill="#ffd06c" d="M7.93 44.58c-1.113 0-2.155-.247-2.934-.697-.714-.412-1.108-.938-1.108-1.48-.001-.538.387-1.061 1.093-1.471.774-.45 1.814-.698 2.927-.698 1.11 0 2.15.247 2.927.695.716.414 1.111.94 1.112 1.484 0 .538-.387 1.06-1.093 1.47-.774.45-1.812.698-2.924.698z"></path><path fill="#f9a83d" d="m8.803 43.084-.827-.48c-.4.142-.735.22-1.012.234a1.379 1.379 0 0 1-.779-.193c-.245-.143-.361-.31-.342-.5.017-.19.154-.37.417-.538l-.212-.124.274-.158.218.127a3.57 3.57 0 0 1 1.208-.33l.115.388a2.885 2.885 0 0 0-.86.21l.8.466.012-.007c.407-.145.751-.225 1.037-.239.283-.012.55.053.8.198.247.143.361.313.339.506-.019.193-.169.377-.446.554l.305.178-.274.158-.31-.18c-.43.202-.938.315-1.518.339l-.058-.396c.447-.019.818-.09 1.113-.213zm.286-.15c.123-.088.19-.174.205-.259.017-.083-.026-.155-.124-.212a.628.628 0 0 0-.331-.083 2.035 2.035 0 0 0-.517.108l.767.445m-2.373-1.061c-.117.08-.18.16-.189.24-.01.079.035.146.13.201a.605.605 0 0 0 .312.082c.111 0 .273-.033.484-.095l-.737-.428"></path><path fill="#fff" d="M8.394 39.755v5.306a7.608 7.608 0 0 1-2.571-.28v-4.75a7.519 7.519 0 0 1 2.57-.276zm1.618.278v4.753c-.332.1-.679.172-1.034.218v-5.188c.355.045.702.12 1.034.217z" opacity=".25"></path></svg>