<svg xmlns="http://www.w3.org/2000/svg" enable-background="new 0 0 66 66" viewBox="0 0 66 66" id="productivity"><path fill="#459FD8" d="M25.13428,15.03167h-6.68735c-0.98897,0-1.79062,0.80165-1.79062,1.79052l0,0
		c0,0.98897,0.80165,1.79062,1.79062,1.79062h6.68735c0.98885,0,1.79049-0.80165,1.79049-1.79062l0,0
		C26.92477,15.83332,26.12312,15.03167,25.13428,15.03167z"></path><path fill="#2F1854" d="M18.44712 19.09772h1.03543v4.97065c0 .29858.26647.51587.53421.48211 1.17376-.11932 2.39864-.11749 3.55533 0 .0161.00194.03318.00291.04928.00291.26405 0 .48502-.2136.48502-.48502v-4.97065h1.02777c1.25427 0 2.27544-1.02116 2.27544-2.27543 0-1.25418-1.02117-2.27544-2.27544-2.27544h-6.68704c-1.25427 0-2.27545 1.02127-2.27545 2.27544C16.17167 18.07656 17.19285 19.09772 18.44712 19.09772zM23.13634 23.53969c-.85461-.06208-1.76374-.06635-2.68374-.00087v-4.4411h2.68374V23.53969zM18.44712 15.51689h6.68704c.71997 0 1.3054.58543 1.3054 1.3054s-.58542 1.30538-1.3054 1.30538c-11.44841-.00629.77449-.00028-6.68704 0-.71997 0-1.3054-.58541-1.3054-1.30538S17.72715 15.51689 18.44712 15.51689zM7.03575 23.69412l1.73358-1.12797 2.0017 3.07758c.1457.22457.44595.2884.67069.14211.22457-.1459.28801-.44622.14211-.67069l-2.00189-3.07777 1.73571-1.12923c.22447-.1459.28801-.44622.14211-.67079-.1459-.22544-.44719-.28793-.67069-.14202l-2.13615 1.38989c-.00213.00126-.00463.00126-.00669.00262-.00213.00136-.0031.00368-.00514.00514l-2.13392 1.38834c-.22457.1459-.28801.44622-.14211.67069C6.51085 23.77657 6.81101 23.8405 7.03575 23.69412zM32.13103 25.77061c.22214.14473.52227.08527.67166-.14114l2.00354-3.06681 1.7393 1.13147c.22515.14667.52521.08207.67072-.14211.14587-.22447.08245-.5248-.14214-.67069l-4.28277-2.78598c-.2226-.14502-.52383-.08342-.67069.14202-.1459.22457-.08245.52489.14211.67079l1.72989 1.12526-2.00277 3.06565C31.84399 25.3235 31.90656 25.62384 32.13103 25.77061z"></path><rect width="8.771" height="8.17" x="48.676" y="20.314" fill="#459FD8"></rect><path fill="#E2E3E7" d="M64.57493 22.64821v8.26686H41.60669v-8.26686c0-1.289 1.04501-2.33405 2.33401-2.33405h5.60495l3.54514 6.59052 3.54524-6.59052h5.60495C63.52999 20.31416 64.57493 21.35921 64.57493 22.64821zM59.83788 8.69296c0 3.72637-3.02073 8.87849-6.74708 8.87849-3.72625 0-6.74699-5.15213-6.74699-8.87849 0-3.72624 3.02073-6.74697 6.74699-6.74697C56.81715 1.94599 59.83788 4.96673 59.83788 8.69296z"></path><path fill="#F89C1C" d="M65,51.78395v2.77366l-1.84222,0.27802c-0.21545,1.0915-0.64644,2.10637-1.24428,3.00318l1.07743,1.45972
			l-1.96027,1.96039l-1.46681-1.08452c-0.91068,0.60492-1.93952,1.02884-3.04479,1.23051l-0.26414,1.78654h-2.77366
			l-0.27113-1.82835c-1.07753-0.22924-2.08551-0.67428-2.96835-1.2859l-1.50154,1.10527l-1.96038-1.96037l1.14699-1.55024
			c-0.56301-0.87586-0.95928-1.86996-1.15387-2.92654l-1.93253-0.29198v-2.77376l1.9951-0.30576
			c0.22932-1.02885,0.64644-1.97434,1.21654-2.81547l-1.20267-1.62658l1.96037-1.96038l1.6614,1.22353
			c0.84802-0.54924,1.80042-0.93852,2.81538-1.15407l0.29887-2.00199h2.77366l0.29897,2.00199
			c1.03582,0.21555,2.00211,0.61878,2.85709,1.17483l1.58496-1.16784l1.96037,1.96037l-1.15397,1.571
			c0.58387,0.86897,1.00798,1.86298,1.23043,2.92664L65,51.78395z"></path><circle cx="54.92" cy="53.115" r="5.521" fill="#FFF"></circle><path fill="#E2E3E7" d="M23.62185,22.55751c10.62476,0.92514,18.96719,9.83824,18.96719,20.69427
			c0,11.4882-9.31393,20.80223-20.80223,20.80223C10.29861,64.05401,1,54.73998,1,43.25178
			c0-10.85602,8.3271-19.78446,18.96719-20.69427H23.62185z"></path><path fill="#FFF" d="M37.1376,41.2945c1.27541,10.11966-7.23509,18.62986-17.35465,17.35419
		c-6.89494-0.86917-12.46264-6.43716-13.33146-13.33215c-1.27511-10.11931,7.23484-18.62917,17.35418-17.35388
		C30.70069,28.83161,36.2686,34.39949,37.1376,41.2945z"></path><circle cx="21.794" cy="43.306" r="2.209" fill="#FFF"></circle><path fill="#2F1854" d="M54.92062 52.39207c-.48883 0-.88675-.39791-.88675-.88672s.39791-.88663.88675-.88663c.48878 0 .88573.39782.88573.88663 0 .26812.2169.48502.48502.48502.26802 0 .48503-.2169.48503-.48502 0-.855-.58358-1.56935-1.37075-1.78421v-.44952c0-.26812-.21693-.48502-.48503-.48502-.26814 0-.48502.2169-.48502.48502v.44942c-.7879.21477-1.37177.92921-1.37177 1.78431 0 1.02408.83269 1.85677 1.85679 1.85677.48878 0 .88573.39791.88573.88672 0 .48881-.39695.88663-.88573.88663-.48883 0-.88675-.39782-.88675-.88663 0-.26814-.2169-.48502-.48502-.48502-.26802 0-.48502.21689-.48502.48502 0 .85518.58387 1.56954 1.37177 1.78431v.44846c0 .26812.21688.48502.48502.48502.2681 0 .48503-.2169.48503-.48502v-.44855c.78717-.21487 1.37075-.92921 1.37075-1.78421C56.77641 53.22476 55.94371 52.39207 54.92062 52.39207zM21.79496 27.35082c-8.79777 0-15.95567 7.15693-15.95567 15.9546 0 8.79777 7.1579 15.95567 15.95567 15.95567 8.79767 0 15.9546-7.1579 15.9546-15.95567C37.74956 34.50775 30.59263 27.35082 21.79496 27.35082zM29.5021 55.68539l-.68951-1.19316c-.13445-.23301-.43381-.31352-.66216-.17713-.23204.13358-.31166.43012-.17713.66216l.69611 1.20461c-1.91515 1.02679-4.08682 1.62561-6.38943 1.70185v-1.33101c0-.26814-.217-.48503-.48503-.48503-.26812 0-.48503.21689-.48503.48503v1.33101c-2.3028-.07616-4.47443-.67506-6.38972-1.70166l.69533-1.2048c.13455-.23204.055-.52858-.17713-.66216-.23116-.13359-.52858-.0549-.66216.17713l-.68883 1.19345c-1.89179-1.1822-3.49063-2.78104-4.67273-4.67273l1.19335-.68883c.23213-.13358.31168-.43012.17713-.66216-.13261-.23213-.43002-.31264-.66216-.17723l-1.2047.69532c-1.02668-1.91515-1.62551-4.08682-1.70166-6.38961h1.38028c.26812 0 .48502-.2169.48502-.48502 0-.26802-.2169-.48502-.48502-.48502H7.21666c.07615-2.3027.67506-4.47426 1.70186-6.38943l1.20451.69609c.23184.13446.5279.05463.66216-.17712.13455-.23213.055-.52868-.17713-.66225l-1.19306-.68951c1.18213-1.8916 2.78094-3.49034 4.67292-4.67234l.68835 1.19277c.1329.23184.43053.31158.66216.17713.23213-.13358.31168-.43012.17713-.66215l-.69485-1.20403c1.91517-1.02651 4.08663-1.62532 6.38923-1.70147v1.38028c0 .26811.2169.48502.48503.48502.26802 0 .48503-.21692.48503-.48502V28.7281c2.30251.07615 4.47387.67506 6.38904 1.70166l-.69572 1.20383c-.13452.23203-.0549.52858.17713.66215.23184.13455.5279.05462.66216-.17713l.68913-1.19248c1.89179 1.182 3.49043 2.78074 4.67253 4.67244l-1.19345.68913c-.23213.13358-.31168.43012-.17713.66225.1329.23175.43053.31158.66216.17712l1.2048-.69571c1.02653 1.91517 1.62551 4.08653 1.70168 6.38904h-1.38038c-.26805 0-.48503.217-.48503.48502 0 .26812.21698.48502.48503.48502h1.38038c-.07617 2.30232-.67488 4.47358-1.7011 6.38855l-1.20539-.69514c-.23301-.13358-.52858-.05306-.66312.1781-.13358.23204-.05403.52858.1781.66303l1.19326.68825C32.99214 52.90484 31.3936 54.50338 29.5021 55.68539z"></path><path fill="#2F1854" d="M23.67908,45.22563c0.49812-0.48919,0.80902-1.16842,0.80902-1.92021
			c0-1.32441-0.96217-2.42212-2.22335-2.64571v-4.42218c0-0.26811-0.2169-0.48502-0.48503-0.48502
			c-0.26802,0-0.48503,0.21692-0.48503,0.48502v4.42529c-1.24671,0.23553-2.19396,1.32848-2.19396,2.64261
			c0,1.48544,1.20878,2.69422,2.69422,2.69422c0.38462,0,0.74898-0.08401,1.08025-0.2299l0.8712,1.27571
			c0.149,0.21826,0.44855,0.27918,0.67448,0.12688c0.22069-0.15152,0.27753-0.45282,0.12688-0.67448L23.67908,45.22563z
			 M20.07079,43.30542c0-0.95016,0.77303-1.7231,1.72417-1.7231c0.95009,0,1.7231,0.77293,1.7231,1.7231
			c0,0.95938-0.78351,1.72417-1.7231,1.72417C20.84382,45.02959,20.07079,44.25655,20.07079,43.30542z"></path></svg>