<svg xmlns="http://www.w3.org/2000/svg" enable-background="new 0 0 64 64" viewBox="0 0 64 64" id="Website"><rect width="3" height="2" x="26" y="51" fill="#052c55" class="color000000 svgShape"></rect><path d="M59,0H5C2.243,0,0,2.243,0,5v43c0,2.757,2.243,5,5,5h5v-2H5c-1.654,0-3-1.346-3-3V10h60v38c0,1.654-1.346,3-3,3v2  c2.757,0,5-2.243,5-5V5C64,2.243,61.757,0,59,0z M2,8V5c0-1.654,1.346-3,3-3h54c1.654,0,3,1.346,3,3v3H2z" fill="#052c55" class="color000000 svgShape"></path><circle cx="5" cy="5" r="1" fill="#052c55" class="color000000 svgShape"></circle><circle cx="9" cy="5" r="1" fill="#052c55" class="color000000 svgShape"></circle><circle cx="13" cy="5" r="1" fill="#052c55" class="color000000 svgShape"></circle><path d="M19,16c-7.72,0-14,6.28-14,14s6.28,14,14,14c5.168,0,9.681-2.823,12.106-7H44v3h-8c-2.757,0-5,2.243-5,5v10  c0,2.757,2.243,5,5,5h16c2.757,0,5-2.243,5-5V45c0-2.757-2.243-5-5-5h-6v-4c0-0.552-0.448-1-1-1H32.061  C32.659,33.445,33,31.763,33,30c0-0.552-0.448-1-1-1H20V17C20,16.448,19.552,16,19,16z M55,45v10c0,1.654-1.346,3-3,3H36  c-1.654,0-3-1.346-3-3V45c0-1.654,1.346-3,3-3h16C53.654,42,55,43.346,55,45z M7,30c0-6.28,4.85-11.449,11-11.958V29.8  l-4.518,10.844C9.636,38.643,7,34.627,7,30z M30.958,31c-0.118,1.419-0.493,2.763-1.063,4h-4.08c-0.414-1.161-1.514-2-2.816-2  c-1.654,0-3,1.346-3,3s1.346,3,3,3c1.302,0,2.402-0.839,2.816-2h2.916c-2.181,3.023-5.727,5-9.731,5  c-1.282,0-2.516-0.207-3.675-0.581L19.667,31H30.958z M24,36c0,0.551-0.449,1-1,1s-1-0.449-1-1s0.449-1,1-1S24,35.449,24,36z" fill="#052c55" class="color000000 svgShape"></path><path d="M42,14v-2h-5c-0.265,0-0.52,0.105-0.707,0.293l-3.615,3.615C30.161,13.494,26.755,12,23,12c-0.552,0-1,0.448-1,1v13  c0,0.552,0.448,1,1,1h13c0.552,0,1-0.448,1-1c0-3.245-1.12-6.229-2.98-8.606L37.414,14H42z M34.958,25H24V14.042  c2.807,0.233,5.337,1.443,7.265,3.279l-1.972,1.972l1.414,1.414l1.888-1.888C33.912,20.573,34.767,22.692,34.958,25z" fill="#052c55" class="color000000 svgShape"></path><rect width="16" height="2" x="44" y="12" fill="#052c55" class="color000000 svgShape"></rect><rect width="16" height="2" x="44" y="16" fill="#052c55" class="color000000 svgShape"></rect><rect width="16" height="2" x="44" y="20" fill="#052c55" class="color000000 svgShape"></rect><path d="M8 56c-.552 0-1 .448-1 1v5H2v2h6 5 5 5 5v-2h-4V52c0-.552-.448-1-1-1h-4v-3c0-.552-.448-1-1-1h-5c-.552 0-1 .448-1 1v8H8zM9 58h3v4H9V58zM22 53v9h-3v-9H22zM14 49h3v3 10h-3v-5V49zM35.929 54.372l1.437-3.592 1.928 1.928c.235.235.57.338.896.275.326-.062.6-.283.73-.588l2.23-5.203 4.994 8.323C48.325 55.818 48.651 56 49 56c.036 0 .073-.002.109-.006.388-.042.716-.308.84-.678l3-9-1.897-.633-2.312 6.938-4.881-8.136c-.193-.322-.54-.509-.925-.483-.375.025-.703.258-.851.604l-2.418 5.643-1.956-1.956c-.237-.237-.577-.339-.908-.272-.329.067-.603.296-.728.608l-2 5L35.929 54.372zM49 26c-.552 0-1 .448-1 1v8c0 .552.448 1 1 1h10c.552 0 1-.448 1-1v-8c0-.552-.448-1-1-1H49zM52.4 31L50 32.92V29.08L52.4 31zM51.85 28h4.299L54 29.72 51.85 28zM54 32.28L56.15 34H51.85L54 32.28zM55.6 31l2.4-1.92v3.839L55.6 31z" fill="#052c55" class="color000000 svgShape"></path></svg>