<svg xmlns="http://www.w3.org/2000/svg" viewBox="0 0 30 30" id="landing-page-optimization"><g fill="#303C42"><path d="M12.5 16H11V8.5a.5.5 0 0 0-.5-.5h-4a.5.5 0 0 0-.5.5V16H4.5a.5.5 0 0 0-.416.777l4 6a.5.5 0 0 0 .832 0l4-6A.5.5 0 0 0 12.5 16zm-4 5.599L5.434 17H6.5a.5.5 0 0 0 .5-.5V9h3v7.5a.5.5 0 0 0 .5.5h1.066L8.5 21.599zM15.5 10h7a.5.5 0 1 0 0-1h-7a.5.5 0 1 0 0 1zM15.5 14h7a.5.5 0 1 0 0-1h-7a.5.5 0 1 0 0 1z"></path><circle cx="6.5" cy="2.5" r=".5"></circle><circle cx="4.5" cy="2.5" r=".5"></circle><circle cx="2.5" cy="2.5" r=".5"></circle><path d="M23.5 20.5c-1.654 0-3 1.346-3 3s1.346 3 3 3 3-1.346 3-3-1.346-3-3-3zm0 5c-1.103 0-2-.897-2-2s.897-2 2-2 2 .897 2 2-.897 2-2 2z"></path><path d="m29.621 21.815-1.23-.308a1.426 1.426 0 0 0-.023-.057l.652-1.087a.5.5 0 0 0-.075-.61l-1.697-1.698a.499.499 0 0 0-.611-.075l-.637.382V2c0-1.103-.897-2-2-2H2C.897 0 0 .897 0 2v22c0 1.103.897 2 2 2h16.362l-.382.637a.5.5 0 0 0 .075.61l1.697 1.698a.501.501 0 0 0 .611.075l1.086-.652.058.024.308 1.23A.5.5 0 0 0 22.3 30h2.4a.5.5 0 0 0 .485-.379l.308-1.23.058-.023 1.086.652a.5.5 0 0 0 .61-.075l1.698-1.697a.5.5 0 0 0 .075-.611l-.652-1.087.024-.057 1.23-.308A.5.5 0 0 0 30 24.7v-2.4a.5.5 0 0 0-.379-.485zM2 1h22c.551 0 1 .449 1 1v2H1V2c0-.551.449-1 1-1zM1 24V5h24v12.102a.498.498 0 0 0-.3-.102h-9.2a.5.5 0 1 0 0 1h4.365c-.037.021-.081.024-.113.055l-1.697 1.697a.5.5 0 0 0-.075.611l.382.637H15.5a.5.5 0 1 0 0 1h1.602a.498.498 0 0 0-.102.3v2.4c0 .112.038.216.102.3H2c-.551 0-1-.449-1-1zm20.66-6-.153.608a1.426 1.426 0 0 0-.057.024L20.397 18h1.263zM29 24.31l-1.106.276a.5.5 0 0 0-.351.32 4.298 4.298 0 0 1-.187.46.5.5 0 0 0 .021.476l.585.974-1.146 1.145-.974-.585a.497.497 0 0 0-.477-.02 4.175 4.175 0 0 1-.458.187.5.5 0 0 0-.32.351L24.31 29h-1.62l-.276-1.106a.5.5 0 0 0-.32-.351 4.175 4.175 0 0 1-.46-.187.5.5 0 0 0-.476.02l-.974.585-1.146-1.145.585-.974a.5.5 0 0 0 .021-.476 4.289 4.289 0 0 1-.187-.46.5.5 0 0 0-.351-.32L18 24.31v-1.62l1.106-.276a.5.5 0 0 0 .351-.32c.055-.158.115-.311.187-.46a.5.5 0 0 0-.021-.476l-.585-.974 1.146-1.146.974.585a.503.503 0 0 0 .476.021c.149-.072.302-.132.46-.187a.5.5 0 0 0 .32-.351L22.69 18h1.62l.276 1.106a.5.5 0 0 0 .32.351c.158.055.311.115.46.187a.5.5 0 0 0 .476-.021l.974-.585 1.146 1.146-.585.974a.5.5 0 0 0-.021.476c.072.149.132.302.187.46a.5.5 0 0 0 .351.32L29 22.69v1.62z"></path></g></svg>