<svg xmlns="http://www.w3.org/2000/svg" width="520" height="520" id="business-consulting"><path fill="#414a56" d="M390.02 330H350a10 10 0 0 1-9.701-12.426l10-40A9.999 9.999 0 0 1 360 270h20a9.999 9.999 0 0 1 9.701 7.574l9.84 39.36c.312.966.479 1.996.479 3.065 0 5.523-4.477 10.001-10 10.001zm-27.212-20h14.385l-5-20h-4.385l-5 20z"></path><path fill="#73665c" d="M390 320H70v150h380V320z"></path><path fill="#a28671" d="M180 360h160v70H180z"></path><path fill="#d7deed" d="M440 201v90H300v-90z"></path><path fill="#65b2fe" d="M180 221.58c-39.53 0-71.58 32.05-71.58 71.58 0 9.49 1.87 18.55 5.22 26.84h132.72a71.494 71.494 0 0 0 5.22-26.84c0-39.53-32.05-71.58-71.58-71.58z"></path><path fill="#313a52" d="m180 221.58 17.89 44.74L180 284.83l-17.89-18.51z"></path><path fill="#ffd8a8" d="M180 150c19.77 0 35.79 16.02 35.79 35.79s-16.02 35.79-35.79 35.79-35.79-16.02-35.79-35.79S160.23 150 180 150z"></path><path fill="#74829c" d="M65 170c8.28 0 15 6.72 15 15s-6.72 15-15 15-15-6.72-15-15 6.72-15 15-15zm55-90c11.05 0 20 8.95 20 20s-8.95 20-20 20-20-8.95-20-20 8.95-20 20-20z"></path><path fill="#86dcfd" d="M480 70v60H250v-16.67L200 110l50-25V70z"></path><path fill="#74829c" d="M450 150c5.52 0 10 4.48 10 10s-4.48 10-10 10-10-4.48-10-10 4.48-10 10-10zm-190 30c5.52 0 10 4.48 10 10s-4.48 10-10 10-10-4.48-10-10 4.48-10 10-10zM200 50c5.52 0 10 4.48 10 10s-4.48 10-10 10-10-4.48-10-10 4.48-10 10-10zM70 230c5.52 0 10 4.48 10 10s-4.48 10-10 10-10-4.48-10-10 4.48-10 10-10zM50 70c5.52 0 10 4.48 10 10s-4.48 10-10 10-10-4.48-10-10 4.48-10 10-10z"></path><path fill="#60534a" d="M480 310H40c-5.523 0-10 4.478-10 10s4.477 10 10 10h440c5.522 0 10-4.478 10-10s-4.478-10-10-10z"></path></svg>