<svg xmlns="http://www.w3.org/2000/svg" enable-background="new 0 0 55 55" viewBox="0 0 55 55" id="web-configuration"><path fill="#D9DDDD" d="M8.52149,51.40751l-2.65666-1.54387c-0.24619-0.14309-0.39878-0.44746-0.4-0.8802l2.65665,1.54388
								C8.1227,50.96006,8.27529,51.26443,8.52149,51.40751z"></path><polygon fill="#D9DDDD" points="8.121 50.527 5.465 48.983 5.398 23.774 8.055 25.318"></polygon><path fill="#EAEFEF" d="M37.89722,8.08846l0.06646,25.20945c0.00247,0.87108-0.6092,1.93063-1.36731,2.36832
								L9.49772,51.31164c-0.75803,0.43765-1.37378,0.08675-1.37625-0.78433L8.05501,25.31787L37.89722,8.08846z"></path><path fill="#FF5230" d="M37.49146,5.14249c-0.25043-0.1445-0.5972-0.12521-0.98242,0.08665L9.41582,20.88984
								c-0.76086,0.43349-1.37729,1.4928-1.36765,2.35977v2.06102l-2.65828-1.53136v-2.07078
								c0-0.86673,0.60678-1.93593,1.36765-2.36929L33.86039,3.69777c0.37564-0.23114,0.732-0.25043,0.97278-0.10593
								L37.49146,5.14249z"></path><path fill="#E5392C" d="M36.51511,5.23705c0.75811-0.4377,1.37378-0.08684,1.37625,0.78428l0.00586,2.06712L8.05501,25.31787
								l-0.00586-2.06712c-0.00247-0.87113,0.60928-1.93063,1.36731-2.36828L36.51511,5.23705z"></path><g><path fill="#EAEFEF" d="M10.76163 21.06715c.47527-.27439.84954-.04725.85105.48508.00151.53233-.37027 1.18326-.84554 1.45765-.48131.27788-.8616.06117-.86311-.47117C9.90252 22.00638 10.28032 21.34503 10.76163 21.06715zM13.73376 19.35118c.46931-.27096.84358-.04381.84509.48852.00151.53234-.37027 1.18326-.83958 1.45422-.48131.27788-.8616.06117-.8631-.47117C12.87466 20.29042 13.25246 19.62907 13.73376 19.35118zM16.69994 17.63866c.46931-.27096.84358-.04382.84509.48852.00151.53234-.37027 1.18326-.83958 1.45422-.48131.27788-.8616.06117-.8631-.47117C15.84083 18.57789 16.21864 17.91654 16.69994 17.63866z"></path></g><g><polygon fill="#D9DDDD" points="24.532 17.608 24.536 18.969 9.611 27.586 9.607 26.225"></polygon><polygon fill="#D9DDDD" points="36.408 32.751 36.412 34.103 9.673 49.541 9.669 48.188"></polygon><polygon fill="#D9DDDD" points="36.4 29.913 36.404 31.265 9.665 46.703 9.661 45.351"></polygon><polygon fill="#D9DDDD" points="24.578 33.896 24.582 35.248 9.657 43.865 9.653 42.513"></polygon><polygon fill="#7DD17D" points="36.354 13.75 36.388 25.83 9.649 41.268 9.615 29.188"></polygon><polygon fill="#D9DDDD" points="30.795 13.992 30.799 15.353 26.998 17.548 26.994 16.187"></polygon><polygon fill="#D9DDDD" points="36.346 10.788 36.35 12.149 32.549 14.343 32.545 12.982"></polygon></g><g><polygon fill="#BBBEC6" points="38.186 46.626 35.866 45.278 35.593 43.113 37.913 44.461"></polygon><polygon fill="#BBBEC6" points="47.572 27.724 45.251 26.375 47.277 25.496 49.598 26.844"></polygon><path fill="#BBBEC6" d="M36.66726,40.43411l-2.32038-1.34845c0.87463,0.50827,2.08429,0.43803,3.41621-0.33095l2.32038,1.34846
					C38.75154,40.87214,37.54189,40.94239,36.66726,40.43411z"></path><path fill="#BBBEC6" d="M41.15831,27.35433l2.32037,1.34847c0.86359,0.50184,1.39837,1.57019,1.40268,3.0901
					c0.00865,3.0514-2.13536,6.77305-4.7979,8.31027l-2.32038-1.34846c2.66253-1.53721,4.80655-5.25887,4.7979-8.31027
					C42.55667,28.92453,42.02189,27.85618,41.15831,27.35433z"></path><polygon fill="#BBBEC6" points="45.422 22.15 43.102 20.802 45.844 22.356 48.164 23.704"></polygon><polygon fill="#BBBEC6" points="31.986 45.432 29.665 44.083 30.914 41.499 33.235 42.848"></polygon><polygon fill="#BBBEC6" points="43.822 24.509 41.502 23.161 43.102 20.802 45.422 22.15"></polygon><path fill="#9B9EA5" d="M33.23452 42.84776l-2.32039-1.34845c-.28185-.40178-.50079-.88828-.66375-1.43129l2.32036 1.34846C32.73372 41.95948 32.95266 42.44599 33.23452 42.84776zM42.22939 24.67897l-2.32038-1.34845c.56107-.13841 1.09428-.19628 1.59264-.16948l2.32037 1.34847C43.32366 24.48269 42.79045 24.54057 42.22939 24.67897zM32.55652 36.39258l-2.32038-1.34844c.15936-.7291.37483-1.46642.65348-2.19984l2.32036 1.34846C32.93134 34.92617 32.71587 35.66349 32.55652 36.39258zM36.28986 28.8582l-2.32038-1.34846c.48959-.59719 1.02139-1.1542 1.57439-1.659l2.32037 1.34846C37.31124 27.704 36.77944 28.26101 36.28986 28.8582z"></path><polygon fill="#BBBEC6" points="30.545 42.28 28.225 40.931 28.212 36.503 30.532 37.851"></polygon><polygon fill="#BBBEC6" points="30.532 37.851 28.212 36.503 30.236 35.044 32.557 36.393"></polygon><polygon fill="#BBBEC6" points="38.124 24.727 35.804 23.378 39.643 21.161 41.964 22.51"></polygon><polygon fill="#BBBEC6" points="37.864 27.199 35.544 25.851 35.804 23.378 38.124 24.727"></polygon><polygon fill="#BBBEC6" points="33.21 34.193 30.89 32.844 29.63 31.717 31.951 33.065"></polygon><polygon fill="#BBBEC6" points="34.667 28.36 32.347 27.011 33.969 27.51 36.29 28.858"></polygon><polygon fill="#BBBEC6" points="31.951 33.065 29.63 31.717 32.347 27.011 34.667 28.36"></polygon><path fill="#ABAEB7" d="M49.6101,31.27238l-2.02406,1.47501c-0.15933,0.72908-0.37482,1.4664-0.64648,2.18776l1.25946,1.1357
					l-2.72372,4.70963l-1.60859-0.50674c-0.49658,0.60117-1.02838,1.15825-1.58841,1.65899l-0.25265,2.47643L38.186,46.62598
					l-0.27283-2.165c-0.55405,0.13443-1.08727,0.19223-1.57862,0.16145l-1.61448,2.36758l-2.73447-1.55834l1.24892-2.58391
					c-0.28186-0.40177-0.5008-0.88828-0.66376-1.43129l-2.02579,0.86317l-0.01255-4.42816l2.0241-1.45891
					c0.15935-0.72909,0.37482-1.4664,0.65347-2.19983l-1.25944-1.12769l2.71671-4.70551l1.6226,0.49865
					c0.48958-0.59719,1.02138-1.1542,1.57438-1.659l0.25968-2.47244l3.83965-2.21682l0.26582,2.16904
					c0.56106-0.1384,1.09427-0.19628,1.59264-0.16948l1.60046-2.35949l2.74148,1.55423l-1.24892,2.58393
					c0.27486,0.40582,0.49382,0.89231,0.65676,1.43533l2.02575-0.87927L49.6101,31.27238z M40.08346,40.10316
					c2.66253-1.53722,4.80655-5.25887,4.7979-8.31027c-0.00867-3.05943-2.16673-4.28924-4.82926-2.75203
					c-2.64852,1.52912-4.79956,5.24679-4.79089,8.30622C35.26986,40.39849,37.43494,41.63228,40.08346,40.10316"></path></g></svg>