<svg xmlns="http://www.w3.org/2000/svg" data-name="Layer 1" viewBox="0 0 110 110" id="ui-and-ux"><path d="M78.375 98.963H30.786a7.407 7.407 0 0 1-7.4-7.4V18.435a7.407 7.407 0 0 1 7.4-7.4h47.589a7.407 7.407 0 0 1 7.4 7.4v73.13a7.407 7.407 0 0 1-7.4 7.398ZM30.786 13.037a5.4 5.4 0 0 0-5.4 5.4v73.13a5.4 5.4 0 0 0 5.4 5.4h47.589a5.4 5.4 0 0 0 5.4-5.4V18.435a5.4 5.4 0 0 0-5.4-5.4Z"></path><path d="M80.022 87.08H29.143a1 1 0 0 1-1-1V23.92a1 1 0 0 1 1-1h50.879a1 1 0 0 1 1 1v62.16a1 1 0 0 1-1 1zm-49.879-2h48.879V24.92H30.143zm31.903-65.95H47.115a1 1 0 0 1 0-2h14.931a1 1 0 0 1 0 2zm-18.607 0h-1.713a1 1 0 0 1 0-2h1.713a1 1 0 0 1 0 2zM54.58 95.808a3.86 3.86 0 1 1 3.859-3.859 3.863 3.863 0 0 1-3.859 3.859zm0-5.72a1.86 1.86 0 1 0 1.859 1.861 1.862 1.862 0 0 0-1.859-1.861z"></path><path d="M47.688 38.6a3.695 3.695 0 0 1-2.188-3.526v-5.762a.658.658 0 0 1 .189-.473.623.623 0 0 1 .467-.2.671.671 0 0 1 .671.67v5.807a2.649 2.649 0 0 0 .4 1.486 2.522 2.522 0 0 0 1.057.92 3.348 3.348 0 0 0 2.8 0 2.528 2.528 0 0 0 1.057-.92 2.656 2.656 0 0 0 .4-1.486v-5.804a.658.658 0 0 1 .189-.473.623.623 0 0 1 .467-.2.671.671 0 0 1 .671.67v5.762a3.8 3.8 0 0 1-.612 2.2 3.762 3.762 0 0 1-1.572 1.329 4.776 4.776 0 0 1-4 0Z"></path><path d="M49.686 39.241a5 5 0 0 1-2.081-.455 3.9 3.9 0 0 1-2.305-3.712v-5.762a.86.86 0 0 1 1.472-.613.838.838 0 0 1 .255.613v5.807A2.467 2.467 0 0 0 47.4 36.5a2.338 2.338 0 0 0 .975.848 3.166 3.166 0 0 0 2.632 0 2.344 2.344 0 0 0 .974-.847 2.475 2.475 0 0 0 .368-1.377v-5.812a.86.86 0 0 1 1.472-.613.838.838 0 0 1 .255.613v5.762a3.9 3.9 0 0 1-2.3 3.712 5 5 0 0 1-2.09.455zm-3.531-10.4a.417.417 0 0 0-.322.136.46.46 0 0 0-.134.334v5.762a3.629 3.629 0 0 0 .577 2.082 3.583 3.583 0 0 0 1.494 1.265 4.6 4.6 0 0 0 3.83 0 3.579 3.579 0 0 0 1.493-1.265 3.621 3.621 0 0 0 .577-2.082v-5.761a.467.467 0 0 0-.793-.334.46.46 0 0 0-.134.334v5.807a2.857 2.857 0 0 1-.434 1.595 2.724 2.724 0 0 1-1.139.992 3.565 3.565 0 0 1-2.97 0 2.725 2.725 0 0 1-1.14-.993 2.849 2.849 0 0 1-.435-1.595v-5.806a.447.447 0 0 0-.138-.331.439.439 0 0 0-.332-.139zm9.882 9.946a.589.589 0 0 1-.183-.432.662.662 0 0 1 .132-.408l3.369-4.147-3.34-4.113a.659.659 0 0 1-.131-.408.622.622 0 0 1 .641-.641.685.685 0 0 1 .307.072.648.648 0 0 1 .233.19l3.078 3.91 3.078-3.939a.545.545 0 0 1 .481-.233.632.632 0 0 1 .452.182.593.593 0 0 1 .19.445.6.6 0 0 1-.117.365l-3.37 4.157 3.37 4.142a.548.548 0 0 1 .131.379.645.645 0 0 1-.182.467.659.659 0 0 1-1-.088l-3.121-3.924-3.078 3.94a.654.654 0 0 1-.511.261.588.588 0 0 1-.429-.177z"></path><path d="M63.7 39.168a.826.826 0 0 1-.686-.359l-2.957-3.719-2.922 3.74a.817.817 0 0 1-1.239.1.779.779 0 0 1-.242-.573.861.861 0 0 1 .172-.528L59.1 33.8l-3.239-3.987a.86.86 0 0 1-.175-.534.813.813 0 0 1 .242-.6.867.867 0 0 1 1-.146.849.849 0 0 1 .3.248l2.916 3.706 2.921-3.739a.838.838 0 0 1 1.229-.072.79.79 0 0 1 .252.59.806.806 0 0 1-.155.482l-3.274 4.04 3.267 4.016a.734.734 0 0 1 .177.5.842.842 0 0 1-.239.605.822.822 0 0 1-.622.259zm-3.647-4.724 3.278 4.123a.447.447 0 0 0 .825-.255.343.343 0 0 0-.08-.245L60.6 33.791l3.471-4.283a.4.4 0 0 0 .073-.239.391.391 0 0 0-.128-.3.43.43 0 0 0-.314-.126.342.342 0 0 0-.316.146l-3.242 4.15-3.236-4.11a.446.446 0 0 0-.166-.135.466.466 0 0 0-.534.072.423.423 0 0 0-.124.318.455.455 0 0 0 .091.288l3.438 4.228-3.471 4.269a.46.46 0 0 0-.087.282.388.388 0 0 0 .123.29.412.412 0 0 0 .645-.066zM49.179 57.617a3.7 3.7 0 0 1-2.189-3.53v-5.761a.661.661 0 0 1 .19-.475.624.624 0 0 1 .466-.2.671.671 0 0 1 .671.672v5.8a2.657 2.657 0 0 0 .4 1.489 2.511 2.511 0 0 0 1.057.918 3.358 3.358 0 0 0 2.8 0 2.511 2.511 0 0 0 1.057-.918 2.664 2.664 0 0 0 .4-1.489v-5.8a.661.661 0 0 1 .19-.475.624.624 0 0 1 .466-.2.671.671 0 0 1 .671.672v5.761a3.809 3.809 0 0 1-.612 2.2 3.769 3.769 0 0 1-1.575 1.334 4.786 4.786 0 0 1-4 0z"></path><path d="M51.177 58.254A5.012 5.012 0 0 1 49.1 57.8a3.978 3.978 0 0 1-1.658-1.4 4.021 4.021 0 0 1-.648-2.309v-5.765a.86.86 0 0 1 1.472-.617.842.842 0 0 1 .256.617v5.8a2.477 2.477 0 0 0 .368 1.379 2.322 2.322 0 0 0 .974.846 3.166 3.166 0 0 0 2.632 0 2.327 2.327 0 0 0 .975-.847 2.477 2.477 0 0 0 .368-1.379v-5.8a.86.86 0 0 1 1.472-.617.841.841 0 0 1 .255.617v5.761a4.015 4.015 0 0 1-.647 2.308 3.973 3.973 0 0 1-1.657 1.4 5.012 5.012 0 0 1-2.085.46zm-3.531-10.4a.424.424 0 0 0-.323.137.461.461 0 0 0-.133.335v5.761a3.632 3.632 0 0 0 .578 2.083 3.574 3.574 0 0 0 1.493 1.264 4.583 4.583 0 0 0 3.83 0 3.564 3.564 0 0 0 1.493-1.265 3.626 3.626 0 0 0 .577-2.082v-5.761a.442.442 0 0 0-.138-.333.452.452 0 0 0-.656 0 .461.461 0 0 0-.133.335v5.8a2.862 2.862 0 0 1-.434 1.6 2.715 2.715 0 0 1-1.14.99 3.558 3.558 0 0 1-2.97 0 2.7 2.7 0 0 1-1.139-.989 2.863 2.863 0 0 1-.435-1.6v-5.8a.442.442 0 0 0-.138-.333.449.449 0 0 0-.332-.142zm10.663 9.938a.633.633 0 0 1-.19-.466v-9a.657.657 0 0 1 .19-.475.622.622 0 0 1 .466-.2.673.673 0 0 1 .671.672v9a.62.62 0 0 1-.2.466.664.664 0 0 1-.474.19.639.639 0 0 1-.463-.187z"></path><path d="M58.775 58.182a.83.83 0 0 1-.607-.248.833.833 0 0 1-.248-.608v-9a.856.856 0 0 1 .246-.615.87.87 0 0 1 1.226 0 .843.843 0 0 1 .255.617v9a.818.818 0 0 1-.258.611.863.863 0 0 1-.614.243zm-.326-.531a.477.477 0 0 0 .662 0 .421.421 0 0 0 .135-.322v-9a.442.442 0 0 0-.138-.333.46.46 0 0 0-.789.333v9a.44.44 0 0 0 .13.322zM74.1 43.917H35.057a1 1 0 0 1 0-2H74.1a1 1 0 0 1 0 2zm-.835 37.173H35.9a1 1 0 0 1 0-2h37.365a1 1 0 1 1 0 2zm-6.135-5.008h-25.1a1 1 0 0 1 0-2h25.1a1 1 0 0 1 0 2zm-5.315-4.418h-14.47a2.794 2.794 0 0 1-2.79-2.79v-4.7a2.794 2.794 0 0 1 2.79-2.79h14.47a2.793 2.793 0 0 1 2.79 2.79v4.7a2.793 2.793 0 0 1-2.79 2.79zm-14.47-8.28a.791.791 0 0 0-.79.79v4.7a.791.791 0 0 0 .79.79h14.47a.791.791 0 0 0 .79-.79v-4.7a.791.791 0 0 0-.79-.79zM90.8 34.463H74.1a1 1 0 0 1 0-2h16.7a1 1 0 0 1 0 2z"></path><path d="M103 40.565H90.8a1 1 0 0 1-1-1v-12.2a1 1 0 0 1 1-1H103a1 1 0 0 1 1 1v12.2a1 1 0 0 1-1 1Zm-11.2-2H102v-10.2H91.8Z"></path><path d="M99.448 32.681h-5.1a1 1 0 0 1 0-2h5.1a1 1 0 1 1 0 2zm0 3.565h-5.1a1 1 0 0 1 0-2h5.1a1 1 0 0 1 0 2zM35.9 53.588H19.2a1 1 0 1 1 0-2h16.7a1 1 0 0 1 0 2z"></path><path d="M19.2 59.69H7a1 1 0 0 1-1-1v-12.2a1 1 0 0 1 1-1h12.2a1 1 0 0 1 1 1v12.2a1 1 0 0 1-1 1Zm-11.2-2h10.2v-10.2H8Z"></path><path d="M16.031 51.805h-5.859a1 1 0 0 1 0-2h5.859a1 1 0 0 1 0 2zm0 3.566h-5.859a1 1 0 0 1 0-2h5.859a1 1 0 0 1 0 2z"></path></svg>