<svg xmlns="http://www.w3.org/2000/svg" enable-background="new 0 0 50 50" viewBox="0 0 50 50" id="website-content"><path fill="#384052" d="M45.37116,18.95972c0.5367,0.3099,0.9752,1.0693,0.9734,1.6911l-0.0474,16.7475
						c-0.0018,0.6169-0.4431,0.8683-0.9799,0.5584l-25.1463-14.5182c-0.5411-0.3124-0.9752-1.0693-0.9735-1.6862l0.0475-16.7475
						c0.0017-0.6218,0.4387-0.8758,0.9798-0.5634L45.37116,18.95972z M20.17406,22.31623l25.1464,14.5183l0.0475-16.7476
						L20.22156,5.56862L20.17406,22.31623"></path><polygon fill="#86AEDC" points="20.222 5.569 20.174 22.316 45.32 36.835 45.368 20.087"></polygon><path fill="#4D5772" d="M46.98466,20.27752l-0.0482,16.7507c0,0.3031-0.1102,0.5238-0.2825,0.62l-0.6394,0.3726
						c0.17229-0.1033,0.28249-0.3169,0.28249-0.6201l0.0482-16.7506c0-0.6201-0.4341-1.3781-0.9716-1.688l-25.15-14.5183
						c-0.2687-0.1584-0.5167-0.1722-0.689-0.0686l0.6394-0.3729c0.1792-0.1033,0.4204-0.0895,0.696,0.069l25.1431,14.5183
						C46.55056,18.89943,46.99156,19.65752,46.98466,20.27752z"></path><path fill="#384052" d="M45.32366,39.08453l-14.8011,8.6019c-0.5376,0.3126-1.4059,0.3126-1.947,0l-25.1463-14.5183
			c-0.2707-0.1561-0.4067-0.362-0.4061-0.5679l-0.0079,1.079c-0.0006,0.2059,0.1353,0.4118,0.406,0.5683l25.1464,14.5183
			c0.5411,0.3122,1.4093,0.3122,1.9469,0l14.8011-8.6023c0.2671-0.1551,0.4008-0.3574,0.4013-0.5599l0.008-1.079
			C45.72436,38.72712,45.59066,38.92933,45.32366,39.08453z"></path><path fill="#D4DBE9" d="M45.31726,37.95673c0.5411,0.3125,0.5439,0.8154,0.0064,1.1278l-14.8011,8.602
				c-0.5376,0.3124-1.4059,0.3125-1.947,0.0001l-25.1464-14.5183c-0.5367-0.3099-0.5438-0.8153-0.0063-1.1277l14.8011-8.6021
				c0.5376-0.3124,1.4103-0.3099,1.947,0L45.31726,37.95673z"></path><path fill="#9EAAC2" d="M22.02786,37.73703c0.2728,0.1575,0.2742,0.4064,0.0032,0.5639l-3.1775,1.8465
				c-0.2665,0.1549-0.7007,0.1575-0.9735,0l-6.6209-3.8226c-0.2728-0.1575-0.2697-0.409-0.0032-0.5639l3.1775-1.8465
				c0.271-0.1575,0.7007-0.1575,0.9735,0L22.02786,37.73703z"></path><polygon fill="#4D5772" points="25.136 29.864 23.55 30.785 21.742 29.741 23.327 28.82"></polygon><polygon fill="#4D5772" points="26.228 28.181 24.642 29.102 22.836 28.059 24.421 27.138"></polygon><polygon fill="#4D5772" points="23.801 26.78 22.216 27.702 20.408 26.658 21.993 25.736"></polygon><polygon fill="#4D5772" points="22.708 28.462 21.122 29.384 19.314 28.34 20.899 27.418"></polygon><polygon fill="#4D5772" points="25.092 34.466 23.506 35.388 21.7 34.345 23.286 33.423"></polygon><polygon fill="#4D5772" points="15.382 28.86 13.797 29.782 11.988 28.738 13.574 27.816"></polygon><polygon fill="#4D5772" points="19.807 29.101 18.222 30.023 13.986 27.577 15.571 26.656"></polygon><polygon fill="#4D5772" points="17.81 30.262 16.224 31.183 14.416 30.139 16.002 29.218"></polygon><polygon fill="#4D5772" points="22.233 30.502 20.648 31.424 18.841 30.381 20.427 29.459"></polygon><polygon fill="#4D5772" points="20.236 31.663 18.651 32.584 16.844 31.541 18.43 30.62"></polygon><polygon fill="#4D5772" points="24.661 31.904 23.076 32.825 21.269 31.782 22.855 30.861"></polygon><polygon fill="#4D5772" points="27.089 33.306 25.504 34.227 23.697 33.184 25.283 32.263"></polygon><polygon fill="#4D5772" points="25.626 37.088 24.041 38.01 14.847 32.702 16.433 31.78"></polygon><polygon fill="#4D5772" points="20.28 27.06 18.694 27.982 15.983 26.417 17.568 25.495"></polygon><polygon fill="#4D5772" points="21.374 25.378 19.788 26.3 17.98 25.256 19.565 24.334"></polygon><polygon fill="#4D5772" points="31.083 30.984 29.498 31.906 27.691 30.863 29.277 29.941"></polygon><polygon fill="#4D5772" points="27.562 31.265 25.976 32.186 24.17 31.143 25.755 30.222"></polygon><polygon fill="#4D5772" points="28.656 29.583 27.07 30.504 25.264 29.461 26.849 28.54"></polygon><polygon fill="#4D5772" points="33.511 32.386 31.926 33.307 30.119 32.265 31.705 31.343"></polygon><polygon fill="#4D5772" points="41.224 39.153 39.638 40.074 36.307 38.151 37.893 37.229"></polygon><polygon fill="#4D5772" points="43.221 37.992 41.636 38.913 39.829 37.87 41.415 36.949"></polygon><polygon fill="#4D5772" points="40.795 36.591 39.209 37.513 37.401 36.469 38.987 35.547"></polygon><polygon fill="#4D5772" points="38.367 35.19 36.781 36.111 34.973 35.067 36.559 34.146"></polygon><polygon fill="#4D5772" points="34.845 35.47 33.26 36.391 31.453 35.348 33.039 34.427"></polygon><polygon fill="#4D5772" points="35.939 33.788 34.354 34.709 32.547 33.666 34.133 32.745"></polygon><polygon fill="#4D5772" points="32.417 34.068 30.832 34.99 29.025 33.947 30.611 33.025"></polygon><polygon fill="#4D5772" points="29.99 32.666 28.404 33.588 26.597 32.545 28.183 31.623"></polygon><polygon fill="#4D5772" points="37.273 36.872 35.688 37.793 33.881 36.75 35.467 35.829"></polygon><polygon fill="#4D5772" points="27.52 35.868 25.934 36.789 24.128 35.746 25.713 34.825"></polygon><polygon fill="#4D5772" points="29.948 37.27 28.362 38.191 26.556 37.148 28.141 36.227"></polygon><polygon fill="#4D5772" points="31.945 36.109 30.359 37.03 28.553 35.987 30.138 35.066"></polygon><polygon fill="#4D5772" points="29.517 34.707 27.931 35.629 26.125 34.586 27.711 33.664"></polygon><polygon fill="#4D5772" points="39.227 40.313 37.641 41.235 33.407 38.79 34.992 37.869"></polygon><polygon fill="#4D5772" points="34.373 37.511 32.787 38.432 30.979 37.388 32.565 36.467"></polygon><polygon fill="#4D5772" points="22.664 33.064 21.078 33.986 19.272 32.943 20.858 32.021"></polygon><polygon fill="#4D5772" points="34.804 40.073 33.218 40.995 31.41 39.951 32.995 39.029"></polygon><polygon fill="#4D5772" points="27.951 38.43 26.365 39.352 24.559 38.309 26.144 37.387"></polygon><polygon fill="#4D5772" points="35.233 42.634 33.647 43.556 31.84 42.513 33.426 41.592"></polygon><polygon fill="#4D5772" points="32.806 41.234 31.221 42.155 29.413 41.111 30.998 40.19"></polygon><polygon fill="#4D5772" points="30.378 39.832 28.793 40.753 26.985 39.709 28.57 38.788"></polygon><g><polygon fill="#4D5772" points="15.813 31.404 14.227 32.325 12.421 31.282 14.006 30.361"></polygon></g><g><polygon fill="#4D5772" points="13.383 30.02 11.798 30.941 9.991 29.898 11.577 28.977"></polygon></g><g><polygon fill="#B4BED7" points="40.906 33.588 41.797 33.07 41.852 13.823 40.961 14.341"></polygon><polygon fill="#DCDBDB" points="40.961 14.341 41.852 13.823 25.101 4.152 24.211 4.67"></polygon><polygon fill="#E3E6F0" points="24.211 4.67 24.156 23.917 40.906 33.588 40.961 14.341"></polygon><polygon fill="#E44555" points="40.961 14.341 41.852 13.823 41.86 10.671 40.97 11.188"></polygon><polygon fill="#F491AB" points="40.97 11.188 41.86 10.671 25.11 1 24.22 1.518"></polygon><polygon fill="#ED5E72" points="24.22 1.518 24.211 4.67 40.961 14.341 40.97 11.188"></polygon><path fill="#FFF" d="M27.62476 4.49862c.2662.1537.4834.5204.4825.8267-.0009.3058-.2194.4306-.4857.2768-.2662-.1537-.4753-.5253-.4744-.8311C27.14796 4.46462 27.35846 4.34482 27.62476 4.49862zM25.97066 3.54362c.2582.1491.4754.5158.4745.8221-.0009.3058-.2194.4305-.4776.2815-.2663-.1537-.4834-.53-.4825-.8358C25.48586 3.50502 25.70446 3.38993 25.97066 3.54362z"></path><polygon fill="#E5B998" points="30.805 11.443 30.785 18.47 26.227 15.838 26.247 8.811"></polygon><path fill="#FFF" d="M29.28686,5.45822c0.2662,0.1537,0.4834,0.5204,0.4825,0.8267c-0.0008,0.3059-0.2194,0.4306-0.4857,0.2768
			c-0.2662-0.1537-0.4753-0.5253-0.4744-0.8311C28.81016,5.42432,29.02056,5.30442,29.28686,5.45822z"></path><g><polygon fill="#B4BED7" points="39.076 30.287 39.074 30.926 26.044 23.403 26.045 22.763"></polygon><polygon fill="#B4BED7" points="39.083 27.477 39.082 28.117 26.051 20.594 26.053 19.954"></polygon><polygon fill="#B4BED7" points="39.087 26.073 39.085 26.713 26.055 19.189 26.056 18.55"></polygon><polygon fill="#B4BED7" points="39.091 24.668 39.089 25.308 26.058 17.785 26.06 17.145"></polygon><polygon fill="#B4BED7" points="39.091 16.241 39.089 16.881 33.612 13.719 33.614 13.079"></polygon><polygon fill="#B4BED7" points="39.091 17.645 39.089 18.285 33.612 15.123 33.614 14.484"></polygon><polygon fill="#B4BED7" points="39.091 19.05 39.089 19.69 33.612 16.528 33.614 15.888"></polygon><polygon fill="#B4BED7" points="39.091 20.455 39.089 21.094 33.612 17.932 33.614 17.293"></polygon><polygon fill="#B4BED7" points="39.091 21.859 39.089 22.499 33.612 19.337 33.614 18.697"></polygon><polygon fill="#B4BED7" points="39.091 23.264 39.089 23.904 33.612 20.742 33.614 20.102"></polygon><polygon fill="#B4BED7" points="26.047 21.999 39.078 29.522 39.08 28.882 26.049 21.359"></polygon></g></g></svg>