<svg xmlns="http://www.w3.org/2000/svg" enable-background="new 0 0 131 131" viewBox="0 0 131 131" id="cloud-hosting-services"><path fill="#2F576B" d="M126.5649,63.6419c0-0.26-0.1599-0.52-0.51-0.71L106.665,52.112l-0.02,0.0099l-0.46-22.2
			c-0.01-0.4099-0.17-0.6799-0.41-0.79l-1.39-0.7799c-0.2-0.11-0.51-0.09-0.85,0.1l-30,18.0601
			c-0.67,0.4099-1.1801,1.34-1.17,2.1199l0.46,22.2101l1.42,0.7799l0.05,2.03l3.17,1.6401l-8.6901,4.97
			c-0.41,0.24-0.9,0.24-1.3099,0c-0.4102-0.23-0.6602-0.65-0.6602-1.1301L66.745,38.772l9.28-5.3601
			c4.92-2.84,8.87-9.6899,8.86-15.3699c-0.01-2.8301-1.03-4.8-2.6599-5.7101l-3.2201-1.87c-0.12-2-0.9-3.4299-2.1-4.12l-4.4399-2.58
			c-1.3201-0.77-3.1501-0.66-5.1602,0.5c-0.0499,0.03-0.0999,0.0699-0.1499,0.1l-3.86-2.26c-1.63-0.9401-3.86-0.8199-6.33,0.63
			c-4.1001,2.34-7.5,7.51-8.55,12.36l3.13,1.83l-3.13-1.8199c-0.8401,0.08-1.77,0.4-2.72,0.95c-4.02,2.3199-7.25,7.9401-7.24,12.53
			c0.01,0.66,0.0599,1.25,0.23,1.75c-3.04,3.38-5.1301,8.12-5.1101,12.1801c0,2.8199,0.99,4.7899,2.5901,5.72l4.45,2.59
			c-0.05-0.0299-0.1-0.0699-0.1399-0.1c1.6299,1.04,3.9399,0.95,6.49-0.53l8.6099-4.97l0.0601,40c0.01,1.62-0.86,3.13-2.27,3.9399
			l-4.6499,2.79l0.0399-6.12l-1.85-1.0699l1.83-1.05l0.05-9.29l-22.17-12.87l-22.1,12.77l-0.0499,9.29l1.8398,1.08l-1.8199,1.05
			l-0.0499,9.29l1.85,1.0699l-1.83,1.0499l-0.05,9.29l22.1599,12.87L48.675,106.542l0.05-9.29l-1.8401-1.0701l1.8201-1.0601
			l0.01-1.9399l5.1799-3.12c1.73-0.99,2.8-2.85,2.79-4.85l-0.0601-40.6l9.0701-5.2301l0.0599,39.76
			c0,0.8501,0.4401,1.6101,1.1801,2.03c0.3699,0.22,0.78,0.3201,1.1799,0.3201c0.41,0,0.8101-0.1001,1.1801-0.3201l9.2799-5.3099
			l15.1001,7.8199c0.6799,0.37,1.75,0.3501,2.4199-0.05l14.66-8.8199l13.48,7.78l-26.64,15.48l0.02-3.64l-17.3101-10.05
			L63.035,94.362l-0.04,7.25l1.4401,0.84l-1.42,0.8201l-0.0399,7.26l1.4399,0.83l-1.4301,0.83l-0.0299,7.25L80.265,129.502
			l17.26-9.98l0.0399-7.26l-1.4399-0.8301l1.4299-0.83l0.04-7.25l-1.45-0.84l1.4299-0.8201l0.01-2.3999l27.9601-16.25
			c0.16-0.0901,0.2599-0.26,0.2599-0.4501s-0.0999-0.36-0.2599-0.4601l-13.76-7.9399l14.3099-8.62c0.3401-0.1901,0.5-0.46,0.5-0.71
			L126.5649,63.6419z M126.0649,64.332l-15.3499,9.24l15.3398-9.25c0.0601-0.0299,0.1201-0.0699,0.1702-0.11
			C126.175,64.252,126.125,64.292,126.0649,64.332z"></path><path fill="#37617B" d="M81.5978 108.5038c-.1807 0-.3563-.0936-.4537-.2615-.1461-.2512-.0602-.5716.1897-.7178l42.9033-24.9327L92.4947 64.2662c-.2512-.1448-.3371-.4665-.1923-.7177.1474-.2512.4653-.3358.7178-.1923l32.5268 18.7793c.1615.0936.2615.2666.2627.4537 0 .1884-.1.3614-.2615.455L81.8618 108.432C81.7785 108.4807 81.6875 108.5038 81.5978 108.5038zM46.9152 94.1706c-.1782 0-.3512-.091-.4499-.2551-.15-.2486-.0692-.5716.1794-.7203l6.7173-4.0335c1.4099-.8139 2.2788-2.3224 2.2737-3.9425L55.55 26.5191c0-.2909.2345-.5255.5242-.5268.0013 0 .0013 0 .0013 0 .2897 0 .5242.2346.5255.5242l.0859 58.7002c.0051 1.9943-1.0651 3.8528-2.7915 4.8499l-6.7097 4.0284C47.1011 94.1463 47.0075 94.1706 46.9152 94.1706zM68.1144 81.496c-.4037 0-.8087-.1064-1.1779-.3191-.7383-.4242-1.1804-1.1868-1.183-2.0392l-.0846-58.4605c0-.2909.2345-.5255.5242-.5268.0013 0 .0013 0 .0013 0 .2897 0 .5242.2345.5255.5242l.0846 58.4605c.0013.4729.2461.8959.6562 1.1317.4114.2371.901.2358 1.3099-.0013l13.8512-7.9337c.2551-.1448.5742-.0577.7165.1935.1448.2525.0577.5729-.1935.7165l-13.85 7.9337C68.9257 81.3896 68.5207 81.496 68.1144 81.496z"></path><path fill="#BAC1CE" d="M105.8133,29.1529c-0.2257-0.1334-0.5347-0.1106-0.8573,0.1015L74.9556,47.3101
									c-0.6803,0.3904-1.1956,1.3449-1.1815,2.1178l0.4725,22.1926l-1.4233-0.7818l-0.4556-22.21
									c-0.0141-0.773,0.5016-1.7103,1.1643-2.1175l30.0005-18.0557c0.34-0.1953,0.649-0.218,0.8573-0.1016L105.8133,29.1529z"></path><path fill="#5B5E71" d="M104.9532,29.2471c0.6628-0.3989,1.213-0.0985,1.2292,0.6711l0.4668,22.2014L74.2436,71.6233
									l-0.4668-22.2014c-0.0162-0.7696,0.5078-1.7166,1.1706-2.1154L104.9532,29.2471z"></path><path fill="#FED57A" d="M75.2685,49.3907c-0.0053-0.2379,0.2421-0.6822,0.4482-0.8061l28.9991-17.4534l0.4239,20.1561
									L75.6808,69.0171L75.2685,49.3907z"></path><path fill="#BAC1CE" d="M74.2455,71.6236l0.0467,2.0233l19.3849,10.0312c0.6733,0.3757,1.7522,0.356,2.4163-0.0439
									L126.098,65.577c0.3345-0.2001,0.4989-0.4616,0.4943-0.7152l-0.0326-1.242c0.0046,0.2536-0.1598,0.5102-0.4944,0.7102
									L96.0658,82.3871c-0.6642,0.395-1.7481,0.4148-2.4163,0.0439L74.2455,71.6236z"></path><path fill="#D4DAE8" d="M126.0594,64.3202L96.0592,82.393c-0.663,0.39-1.7452,0.4097-2.4048,0.0437L74.2465,71.6205
									l32.414-19.5086l19.3908,10.8166C126.7281,63.2941,126.7397,63.9297,126.0594,64.3202z"></path><polygon fill="#BAC1CE" points="81.114 76.001 81.13 77.016 82.022 77.509 82.006 76.495"></polygon><polygon fill="#5B5E71" points="78.563 74.478 78.578 75.492 80.164 76.369 80.148 75.355"></polygon><polygon fill="#5B5E71" points="77.044 73.637 77.06 74.652 77.952 75.145 77.936 74.131"></polygon><polygon fill="#5B5E71" points="75.456 72.758 75.472 73.773 76.364 74.266 76.348 73.252"></polygon><path fill="#A7ADB7" d="M110.4286,71.7444l-5.6496,3.4402c-0.2963,0.1765-0.6813,0.1834-0.9838,0.0179l-3.6957-2.0508
									c-0.3242-0.1867-0.3328-0.6572-0.0156-0.8555l5.6501-3.4188c0.3176-0.177,0.6813-0.1836,1.0051-0.0183l3.6739,2.0297
									C110.7587,71.0752,110.7673,71.5456,110.4286,71.7444z"></path><path fill="#5B5E71" d="M82.5123 71.8667c-.0596.0359-.0589.0948.0063.1311l1.2611.7025c.0698.0389.1715.037.2311.0012l1.2383-.7453c.0596-.0359.0635-.0975-.0064-.1364l-1.2611-.7025c-.0652-.0363-.1714-.0317-.231.0042L82.5123 71.8667zM86.4107 69.5203c-.0596.0359-.0589.0948.0063.1311l1.2611.7025c.0698.0389.1715.037.2311.0012l1.2383-.7453c.0642-.0387.0635-.0975-.0063-.1364l-1.2611-.7025c-.0652-.0363-.1668-.0345-.231.0042L86.4107 69.5203zM89.3829 65.5311c-.0596.0359-.0589.0948.0109.1337l1.2612.7025c.0651.0363.1714.037.231.0011l1.2383-.7453c.0642-.0387.0588-.1001-.0063-.1364l-1.2612-.7026c-.0698-.0389-.1715-.037-.2357.0016L89.3829 65.5311zM84.0878 67.0622c-.0596.0359-.0589.0948.0109.1337l.7446.4148c.0651.0363.1668.0344.2264-.0014l1.1283-.6791c.0596-.0359.0589-.0948-.0063-.1311l-.7446-.4148c-.0698-.0389-.1715-.037-.2311-.0012L84.0878 67.0622zM87.6928 64.8925c-.0596.0359-.0589.0948.0109.1337l.7446.4148c.0651.0363.1668.0344.2264-.0014l1.1283-.6791c.0596-.0359.0589-.0948-.0063-.1311l-.7446-.4148c-.0698-.0389-.1714-.037-.2311-.0012L87.6928 64.8925zM85.8903 65.9774c-.0596.0359-.0589.0948.0109.1337l.7446.4148c.0651.0363.1668.0344.2264-.0014l1.1283-.6791c.0596-.0359.0589-.0948-.0063-.1311l-.7446-.4148c-.0698-.0389-.1714-.037-.2311-.0012L85.8903 65.9774zM87.4474 66.696c-.0642.0386-.0635.0975.0063.1364l1.2612.7025c.0651.0363.1714.037.2356-.0016l1.2384-.7453c.0596-.0359.0542-.0973-.0109-.1336l-1.2612-.7025c-.0698-.0389-.1715-.037-.2311-.0012L87.4474 66.696zM85.5073 67.8636c-.0596.0359-.0589.0948.0109.1337l1.2612.7025c.0651.0363.1714.037.231.0011l1.2383-.7453c.0596-.0359.0588-.1001-.0063-.1364l-1.2612-.7025c-.0698-.0389-.176-.0343-.2357.0016L85.5073 67.8636zM82.2899 68.1443c-.0642.0386-.0635.0975.0063.1364l.7446.4148c.0651.0363.1668.0344.231-.0042l1.1237-.6763c.0642-.0387.0635-.0975-.0016-.1338l-.7446-.4148c-.0698-.0389-.1714-.037-.2357.0016L82.2899 68.1443zM83.5672 69.0313c-.0596.0359-.0589.0948.0109.1337l1.2612.7025c.0651.0363.1714.037.231.0011l1.2384-.7453c.0642-.0386.0588-.1001-.0063-.1364l-1.2612-.7025c-.0698-.0389-.1715-.037-.2357.0016L83.5672 69.0313zM80.4874 69.2292c-.0642.0386-.0635.0975.0063.1364l.7446.4148c.0651.0363.1668.0344.231-.0042l1.1237-.6763c.0642-.0386.0635-.0975-.0017-.1338l-.7446-.4148c-.0698-.0389-.1714-.037-.2356.0016L80.4874 69.2292zM81.6317 70.1962c-.0596.0359-.0635.0975.0064.1364l1.2612.7025c.0651.0363.176.0343.2356-.0016l1.2383-.7453c.0596-.0359.0543-.0974-.0109-.1336l-1.2612-.7025c-.0698-.0389-.1715-.037-.2311-.0012L81.6317 70.1962zM79.6916 71.3638c-.0596.0359-.0589.0948.0109.1337L80.9637 72.2c.0651.0363.1714.037.231.0011l1.2383-.7453c.0642-.0387.0589-.1001-.0063-.1364l-1.2612-.7025c-.0698-.0389-.1714-.037-.2357.0016L79.6916 71.3638zM78.6849 70.314c-.0596.0359-.0589.0948.0109.1337l.7446.4148c.0651.0363.1668.0344.2264-.0014l1.1283-.6791c.0596-.0359.0589-.0948-.0062-.1311l-.7446-.4148c-.0698-.0389-.1714-.037-.2311-.0012L78.6849 70.314zM76.6302 71.5507c-.0642.0387-.0635.0975.0063.1364l.7446.4148c.0651.0363.1668.0344.231-.0042l1.3805-.8309c.0596-.0359.0589-.0948-.0063-.1311l-.7446-.4148c-.0698-.0389-.1715-.037-.2311-.0012L76.6302 71.5507zM78.0589 72.3465c-.0642.0387-.0635.0975.0063.1364l1.2612.7026c.0651.0363.1714.037.2356-.0016l.8714-.5245c.0596-.0359.0542-.0974-.0109-.1336l-1.2612-.7025c-.0698-.0389-.1714-.037-.2311-.0012L78.0589 72.3465zM79.9576 73.4042c-.0642.0387-.0635.0975.0017.1338l1.2611.7025c.0698.0389.1714.037.2357-.0016l1.8896-1.1373c.0596-.0359.0589-.0948-.0109-.1337l-1.2611-.7025c-.0652-.0363-.1668-.0345-.2264.0014L79.9576 73.4042zM85.8678 76.6966c-.0642.0387-.0635.0975.0017.1338l1.559.8684c.0698.0389.1715.037.2357-.0016l1.2383-.7453c.0596-.0359.0589-.0948-.0109-.1337l-1.559-.8684c-.0652-.0363-.1668-.0345-.2264.0014L85.8678 76.6966zM84.9348 72.69c-.0596.0359-.0635.0975.0063.1364l1.2612.7025c.0651.0363.1714.0317.231-.0042l1.2383-.7453c.0596-.0359.0589-.0948-.0062-.1311l-1.2612-.7025c-.0698-.0389-.1715-.037-.2311-.0012L84.9348 72.69zM87.7748 73.2621c-.0596.0359-.0589.0948.0109.1337l1.2611.7025c.0652.0363.1714.037.2311.0012l1.2383-.7453c.0596-.0359.0588-.1001-.0063-.1364l-1.2611-.7025c-.0698-.0389-.176-.0343-.2356.0016L87.7748 73.2621zM81.9261 74.5008c-.0642.0387-.0635.0975.0063.1364l1.2612.7025c.0651.0363.1668.0344.231-.0042l2.2611-1.3609c.0642-.0386.0635-.0975-.0017-.1338l-1.2612-.7025c-.0698-.0389-.1715-.037-.2357.0016L81.9261 74.5008zM89.7204 74.3778c-.0596.0359-.0589.0948.0063.1311l1.559.8684c.0698.0389.1715.037.2311.0012l1.2383-.7453c.0596-.0359.0635-.0975-.0064-.1364l-1.559-.8684c-.0652-.0363-.1714-.0317-.231.0042L89.7204 74.3778zM83.8946 75.5974c-.0642.0387-.0635.0975.0063.1364l1.2611.7025c.0652.0363.1715.037.2357-.0016l3.2793-1.9737c.0642-.0386.0588-.1001-.0064-.1364l-1.2611-.7025c-.0698-.0389-.1714-.037-.2356.0016L83.8946 75.5974zM87.7941 75.5372c-.0596.0359-.0635.0975.0017.1338l1.559.8684c.0698.0389.176.0343.2356-.0016l1.2383-.7453c.0596-.0359.0589-.0948-.0109-.1337l-1.559-.8684c-.0652-.0363-.1668-.0345-.2264.0014L87.7941 75.5372zM93.5777 72.0563c-.0642.0386-.0635.0975.0017.1338l1.559.8684c.0698.0389.1715.037.2356-.0016l10.9204-6.5726c.0596-.0359.0589-.0948-.0109-.1337l-1.559-.8684c-.0652-.0363-.1668-.0345-.2264.0014L93.5777 72.0563zM89.7424 72.0779c-.0596.0359-.0589.0948.0109.1337l1.2611.7025c.0652.0363.1714.037.2311.0012l1.2383-.7453c.0596-.0359.0542-.0974-.0109-.1337l-1.2611-.7025c-.0698-.0389-.1714-.037-.2311-.0012L89.7424 72.0779zM91.6467 73.2184c-.0596.0359-.0589.0948.0063.1311l1.559.8684c.0698.0389.1715.037.2311.0012l1.2383-.7453c.0642-.0387.0635-.0975-.0063-.1364l-1.559-.8684c-.0652-.0363-.1668-.0345-.231.0042L91.6467 73.2184zM112.1541 62.0732c-.0596.0359-.0589.0948.0062.1311l.5259.2929c.0698.0389.1714.037.2311.0012l1.2383-.7453c.0642-.0387.0635-.0975-.0063-.1364l-.5259-.2929c-.0651-.0363-.1668-.0344-.231.0042L112.1541 62.0732zM101.5434 64.9753c-.0596.0359-.0589.0948.0109.1337l1.2611.7025c.0652.0363.1714.037.2311.0012l1.2383-.7453c.0642-.0386.0588-.1001-.0063-.1364l-1.2611-.7025c-.0698-.0389-.1714-.037-.2357.0016L101.5434 64.9753zM104.5191 60.903c-.0596.0359-.0589.0948.0109.1337l1.2612.7025c.0651.0363.1668.0344.2264-.0014l1.2383-.7453c.0642-.0386.0635-.0975-.0017-.1338l-1.2612-.7025c-.0698-.0389-.1715-.037-.2357.0016L104.5191 60.903zM105.7085 54.0496c-.0596.0359-.0589.0948.0109.1337l.7446.4148c.0651.0363.1668.0344.2264-.0014l1.1283-.6791c.0596-.0359.0589-.0948-.0062-.1311l-.7446-.4148c-.0698-.0389-.1714-.037-.2311-.0012L105.7085 54.0496zM107.1142 54.8593c-.0596.0359-.0589.0948.0109.1337l1.2612.7025c.0651.0363.1714.037.231.0011l1.2383-.7453c.0596-.0359.0543-.0974-.0109-.1336l-1.2612-.7025c-.0698-.0389-.1715-.037-.2311-.0012L107.1142 54.8593zM109.0129 55.917c-.0596.0359-.0589.0948.0063.1311l1.2611.7025c.0698.0389.1714.037.2311.0012l1.2383-.7453c.0596-.0359.0589-.0948-.0109-.1337l-1.2611-.7025c-.0652-.0363-.1668-.0345-.2264.0014L109.0129 55.917zM103.906 55.1345c-.0596.0359-.0589.0948.0109.1337l.7446.4148c.0651.0363.1668.0344.2264-.0014l1.1283-.6791c.0596-.0359.0589-.0948-.0062-.1311l-.7446-.4148c-.0698-.0389-.1714-.037-.2311-.0012L103.906 55.1345zM102.1035 56.2193c-.0596.0359-.0589.0948.0109.1337l.7446.4148c.0651.0363.1668.0344.2264-.0014l1.1283-.6791c.0596-.0359.0589-.0948-.0063-.1311l-.7446-.4148c-.0698-.0389-.1714-.037-.2311-.0012L102.1035 56.2193zM111.0824 56.9528c-.0596.0359-.0589.0948.0109.1337l1.2612.7025c.0651.0363.1668.0344.2264-.0014l1.2383-.7453c.0596-.0359.0589-.0948-.0063-.1311l-1.2612-.7025c-.0698-.0389-.1714-.037-.2311-.0012L111.0824 56.9528zM102.9497 57.3657c-.0596.0359-.0589.0948.0109.1337l1.2612.7025c.0651.0363.1714.037.231.0011l3.5316-2.1255c.0642-.0386.0588-.1001-.0063-.1364l-1.2612-.7025c-.0698-.0389-.1714-.037-.2357.0016L102.9497 57.3657zM113.0509 58.0494c-.0596.0359-.0589.0948.0109.1337l1.2611.7025c.0652.0363.1714.037.2311.0012l1.2383-.7453c.0596-.0359.0542-.0974-.0109-.1337l-1.2611-.7025c-.0698-.0389-.1715-.037-.2311-.0012L113.0509 58.0494zM103.9586 58.959c-.0642.0386-.0635.0975.0017.1338l1.2611.7025c.0698.0389.1714.037.2357-.0016l1.2383-.7453c.0596-.0359.0589-.0948-.0109-.1337l-1.2611-.7025c-.0652-.0363-.1668-.0345-.2264.0014L103.9586 58.959z"></path><path fill="#5B5E71" d="M105.9171 57.7803c-.0642.0386-.0635.0975.0017.1338l1.5404.8581c.1722.0959.1742.2565.0045.3586l-1.0411.6266c-.0642.0386-.0635.0975.0063.1364l1.2612.7025c.0651.0363.1668.0344.231-.0042l3.9719-2.3905c.0642-.0386.0635-.0975-.0017-.1338l-3.2343-1.8017c-.0652-.0363-.1668-.0345-.231.0042L105.9171 57.7803zM107.4049 61.4475c-.0596.0359-.0589.0948.0109.1337l1.2611.7025c.0652.0363.1715.037.2311.0012l4.958-2.984c.0642-.0386.0588-.1001-.0063-.1364l-1.2611-.7025c-.0698-.0389-.1715-.037-.2357.0016L107.4049 61.4475zM105.4786 62.6069c-.0596.0359-.0635.0975.0064.1364l1.2611.7025c.0652.0363.176.0343.2357-.0016l1.2384-.7453c.0596-.0359.0542-.0973-.0109-.1336l-1.2611-.7025c-.0698-.0389-.1715-.037-.2311-.0012L105.4786 62.6069zM109.1946 62.6571c-.0596.0359-.0589.0948.0063.1311l1.559.8684c.0698.0389.1714.037.2311.0012l1.2383-.7453c.0642-.0386.0635-.0975-.0063-.1364l-1.559-.8684c-.0652-.0363-.1668-.0345-.231.0042L109.1946 62.6571zM103.511 63.7911c-.0596.0359-.0589.0948.0109.1337l1.2611.7025c.0652.0363.1714.037.2311.0012l1.2383-.7453c.0596-.0359.0588-.1001-.0063-.1364l-1.2611-.7025c-.0698-.0389-.176-.0343-.2357.0016L103.511 63.7911zM107.2041 63.8551c-.0642.0386-.0635.0975.0017.1338l1.559.8684c.0698.0389.1714.037.2357-.0016l1.2383-.7453c.0596-.0359.0589-.0948-.0109-.1337l-1.559-.8684c-.0652-.0363-.1668-.0345-.2264.0014L107.2041 63.8551zM105.264 65.0228c-.0596.0359-.0589.0948.0063.1311l1.559.8684c.0698.0389.1715.037.2311.0012l1.2429-.7481c.0596-.0359.0589-.0948-.0109-.1337l-1.559-.8684c-.0652-.0363-.1668-.0345-.2264.0014L105.264 65.0228zM116.1077 59.6937c-.0596.0359-.0589.0948.0062.1311l.5259.2929c.0698.0389.1714.037.2311.0012l1.2383-.7453c.0642-.0386.0635-.0975-.0063-.1364l-.5259-.2929c-.0651-.0363-.1668-.0344-.231.0042L116.1077 59.6937zM114.1309 60.8835c-.0596.0359-.0589.0948.0063.1311l.5258.2929c.0698.0389.1715.037.2311.0012l1.2383-.7453c.0642-.0386.0635-.0975-.0063-.1364l-.5258-.2929c-.0651-.0363-.1668-.0344-.231.0042L114.1309 60.8835zM113.0745 60.295c-.0596.0359-.0589.0948.0062.1311l.5259.2929c.0651.0363.1668.0344.2264-.0014l1.2383-.7453c.0642-.0386.0635-.0975-.0017-.1338l-.5259-.2929c-.0651-.0363-.1668-.0344-.231.0042L113.0745 60.295zM93.6776 69.7094c-.0642.0386-.0635.0975.0063.1364l1.2611.7025c.0652.0363.1715.037.2357-.0016l1.2383-.7453c.0596-.0359.0542-.0974-.0109-.1337l-1.2611-.7025c-.0698-.0389-.1714-.037-.2311-.0012L93.6776 69.7094zM86.8933 71.5113c-.0596.0359-.0635.0975.0063.1364l1.2612.7026c.0651.0363.1714.0317.231-.0042l1.2383-.7453c.0596-.0359.0589-.0948-.0062-.1311l-1.2612-.7025c-.0698-.0389-.1715-.037-.2311-.0012L86.8933 71.5113zM88.36 68.3471c-.0596.0359-.0589.0948.0063.1311l1.2611.7025c.0698.0389.1714.037.2311.0012l1.2384-.7453c.0642-.0386.0635-.0975-.0063-.1364l-1.2611-.7025c-.0652-.0363-.1668-.0345-.231.0042L88.36 68.3471zM92.2585 66.0008c-.0596.0359-.0589.0948.0063.1311l1.2611.7025c.0698.0389.1715.037.2311.0012l1.2384-.7453c.0642-.0386.0635-.0975-.0063-.1364l-1.2611-.7025c-.0652-.0363-.1668-.0344-.231.0042L92.2585 66.0008zM90.3093 67.174c-.0596.0359-.0589.0948.0063.1311l1.2611.7025c.0698.0389.1714.037.2311.0012l1.2383-.7453c.0642-.0386.0635-.0975-.0063-.1364l-1.2611-.7025c-.0652-.0363-.1668-.0345-.231.0042L90.3093 67.174zM92.7685 67.9752c-.0596.0359-.0589.0948.0109.1336l1.2612.7025c.0651.0363.1668.0344.2264-.0014l1.2384-.7453c.0596-.0359.0635-.0975-.0017-.1338l-1.2612-.7025c-.0698-.0389-.176-.0343-.2356.0016L92.7685 67.9752zM90.8101 69.1539c-.0596.0359-.0589.0948.0109.1337l1.2612.7025c.0651.0363.1668.0344.2264-.0014l1.2383-.7453c.0596-.0359.0635-.0975-.0017-.1338l-1.2612-.7025c-.0698-.0389-.176-.0343-.2357.0016L90.8101 69.1539zM88.8517 70.3326c-.0596.0359-.0589.0948.0109.1337l1.2612.7025c.0651.0363.1668.0344.2264-.0014l1.2383-.7453c.0596-.0359.0589-.0948-.0063-.1311l-1.2612-.7025c-.0698-.0389-.1714-.037-.2311-.0012L88.8517 70.3326zM91.71 70.8936c-.0596.0359-.0635.0975.0063.1364l1.2611.7025c.0652.0363.1761.0343.2357-.0016l1.2383-.7453c.0596-.0359.0542-.0974-.0109-.1337l-1.2611-.7025c-.0698-.0389-.1714-.037-.2311-.0012L91.71 70.8936zM97.6082 67.3438c-.0596.0359-.0589.0948.0109.1337l1.2611.7025c.0652.0363.1715.037.2311.0012l1.2384-.7453c.0642-.0386.0588-.1001-.0063-.1364l-1.2611-.7025c-.0698-.0389-.1714-.037-.2356.0016L97.6082 67.3438zM95.6452 68.5252c-.0642.0386-.0635.0975.0063.1364l1.2611.7025c.0652.0363.1715.037.2357-.0016l1.2383-.7453c.0596-.0359.0542-.0974-.0109-.1337l-1.2611-.7025c-.0698-.0389-.1714-.037-.2311-.0012L95.6452 68.5252zM94.2078 64.8276c-.0596.0359-.0589.0948.0063.1311l1.2611.7025c.0698.0389.1714.037.2311.0012l1.2383-.7453c.0642-.0387.0635-.0975-.0063-.1364l-1.2611-.7025c-.0652-.0363-.1668-.0345-.231.0042L94.2078 64.8276zM96.157 63.6544c-.0596.0359-.0589.0948.0063.1311l1.2611.7025c.0698.0389.1715.037.2311.0012l1.2383-.7453c.0642-.0386.0635-.0975-.0063-.1364l-1.2611-.7025c-.0652-.0363-.1668-.0345-.231.0042L96.157 63.6544zM101.0142 58.5306c-.0642.0386-.0635.0975.0063.1364l1.2612.7025c.0651.0363.1714.037.2356-.0016l1.2383-.7453c.0596-.0359.0542-.0974-.0109-.1336l-1.2612-.7025c-.0698-.0389-.1714-.037-.2311-.0012L101.0142 58.5306zM93.2585 63.1985c-.0596.0359-.0589.0948.0109.1337l1.2612.7025c.0651.0363.1714.037.231.0011L96 63.2905c.0642-.0386.0588-.1001-.0063-.1364l-1.2612-.7025c-.0698-.0389-.1714-.037-.2357.0016L93.2585 63.1985zM91.323 64.3634c-.0642.0387-.0635.0975.0063.1364l1.2612.7025c.0651.0363.1714.037.2356-.0016l1.2383-.7453c.0596-.0359.0542-.0974-.0109-.1336l-1.2612-.7025c-.0698-.0389-.1715-.037-.2311-.0012L91.323 64.3634zM89.4953 63.8077c-.0596.0359-.0635.0975.0063.1364l.7446.4148c.0651.0363.1714.0317.231-.0042l1.1237-.6763c.0642-.0387.0635-.0975-.0017-.1338l-.7446-.4148c-.0698-.0389-.1714-.037-.2357.0016L89.4953 63.8077zM91.2977 62.7229c-.0642.0387-.0635.0975.0063.1364l.7446.4148c.0651.0363.1668.0344.231-.0042l1.1237-.6763c.0596-.0359.0635-.0975-.0017-.1338l-.7446-.4148c-.0698-.0389-.176-.0343-.2357.0016L91.2977 62.7229zM93.0956 61.6408c-.0596.0359-.0589.0948.0109.1337l.7446.4148c.0651.0363.1668.0344.2264-.0014l1.1283-.6791c.0596-.0359.0589-.0948-.0063-.1311l-.7446-.4148c-.0698-.0389-.1715-.037-.2311-.0012L93.0956 61.6408zM100.3056 57.3014c-.0642.0386-.0635.0975.0063.1364l.7446.4148c.0651.0363.1668.0344.231-.0042l1.1237-.6763c.0642-.0386.0635-.0975-.0017-.1338l-.7446-.4148c-.0698-.0389-.1715-.037-.2356.0016L100.3056 57.3014zM98.5031 58.3862c-.0642.0386-.0635.0975.0063.1364l.7446.4148c.0651.0363.1668.0344.231-.0042l1.1237-.6763c.0642-.0386.0635-.0975-.0017-.1338l-.7446-.4148c-.0698-.0389-.1714-.037-.2357.0016L98.5031 58.3862zM96.7006 59.4711c-.0596.0359-.0589.0948.0109.1337l.7446.4148c.0651.0363.1668.0344.2264-.0014l1.1283-.6791c.0596-.0359.0589-.0948-.0062-.1311L98.06 58.7932c-.0698-.0389-.1714-.037-.2311-.0012L96.7006 59.4711zM99.0741 59.6983c-.0596.0359-.0589.0948.0109.1337l1.2612.7025c.0651.0363.1714.037.231.0011l1.2383-.7453c.0596-.0359.0588-.1001-.0063-.1364l-1.2612-.7025c-.0698-.0389-.176-.0343-.2357.0016L99.0741 59.6983zM94.8981 60.5559c-.0596.0359-.0589.0948.0109.1337l.7446.4148c.0651.0363.1668.0344.2264-.0014l1.1283-.6791c.0596-.0359.0589-.0948-.0062-.1311l-.7446-.4148c-.0698-.0389-.1714-.037-.2311-.0012L94.8981 60.5559zM102.0094 60.1321c-.0642.0386-.0635.0975.0017.1338l1.2611.7025c.0698.0389.1715.037.2356-.0016l1.2384-.7453c.0596-.0359.0589-.0948-.0109-.1336l-1.2611-.7025c-.0652-.0363-.1668-.0345-.2264.0014L102.0094 60.1321zM97.1386 60.8632c-.0642.0386-.0635.0975.0064.1364l1.2612.7025c.0651.0363.1714.037.2356-.0016l1.2384-.7453c.0596-.0359.0542-.0974-.0109-.1336l-1.2612-.7025c-.0698-.0389-.1715-.037-.2311-.0012L97.1386 60.8632zM100.0601 61.3053c-.0642.0386-.0635.0975.0017.1338l1.2611.7025c.0698.0389.1715.037.2357-.0016l1.2383-.7453c.0596-.0359.0589-.0948-.0109-.1337l-1.2611-.7025c-.0652-.0363-.1668-.0345-.2264.0014L100.0601 61.3053zM95.1986 62.0308c-.0596.0359-.0589.0948.0109.1337l1.2612.7025c.0651.0363.1714.037.231.0011l1.2383-.7453c.0596-.0359.0542-.0974-.0109-.1336l-1.2612-.7025c-.0698-.0389-.1714-.037-.2311-.0012L95.1986 62.0308zM102.5607 62.0817c-.0596.0359-.0589.0948.0109.1337l1.2612.7025c.0651.0363.1668.0344.2264-.0014l1.2383-.7453c.0642-.0386.0635-.0975-.0017-.1338l-1.2612-.7025c-.0698-.0389-.1714-.037-.2357.0016L102.5607 62.0817zM98.1109 62.4785c-.0642.0387-.0635.0975.0017.1338l1.2611.7025c.0698.0389.1714.037.2357-.0016l1.2383-.7453c.0596-.0359.0589-.0948-.0109-.1337l-1.2611-.7025c-.0652-.0363-.1668-.0345-.2264.0014L98.1109 62.4785zM100.6022 63.2604c-.0596.0359-.0589.0948.0109.1337l1.2612.7025c.0651.0363.1668.0344.2264-.0014l1.2383-.7453c.0642-.0386.0635-.0975-.0017-.1338l-1.2612-.7025c-.0698-.0389-.1715-.037-.2357.0016L100.6022 63.2604zM98.6438 64.4391c-.0596.0359-.0589.0948.0109.1337l1.2612.7025c.0651.0363.1668.0344.2264-.0014l1.2383-.7453c.0642-.0387.0635-.0975-.0017-.1338l-1.2612-.7025c-.0698-.0389-.1715-.037-.2357.0016L98.6438 64.4391zM96.6854 65.6178c-.0596.0359-.0589.0948.0109.1337l1.2612.7025c.0651.0363.1668.0344.2264-.0014l1.2384-.7453c.0642-.0386.0635-.0975-.0017-.1338l-1.2612-.7025c-.0698-.0389-.1714-.037-.2356.0016L96.6854 65.6178zM99.5758 66.1595c-.0596.0359-.0589.0948.0109.1337l1.2611.7025c.0652.0363.1714.037.2311.0012l1.2383-.7453c.0642-.0387.0588-.1001-.0063-.1364l-1.2611-.7025c-.0698-.0389-.1714-.037-.2357.0016L99.5758 66.1595zM94.727 66.7965c-.0596.0359-.0589.0948.0109.1337l1.2612.7025c.0651.0363.1668.0344.2264-.0014l1.2383-.7453c.0596-.0359.0635-.0975-.0017-.1338l-1.2612-.7025c-.0698-.0389-.176-.0343-.2357.0016L94.727 66.7965zM84.4615 70.6935c-.0596.0359-.0589.0948.0063.1311l1.2611.7025c.0698.0389.1714.037.2311.0012l1.2383-.7453c.0642-.0386.0635-.0975-.0063-.1364l-1.2611-.7025c-.0652-.0363-.1668-.0345-.231.0042L84.4615 70.6935z"></path><path fill="#576CFB" d="M76.2999,8.8835l6.0014,3.4876c-0.92-0.5347-2.0416-0.7203-3.2905-0.5162l-6.0014-3.4875
							C74.2583,8.1632,75.3799,8.3488,76.2999,8.8835z"></path><path fill="#4562EF" d="M72.4661,3.7641l4.4477,2.5848c-1.3212-0.7679-3.1489-0.6635-5.1597,0.4975
							c-0.5708,0.3296-1.1414,0.753-1.6846,1.223l-4.4478-2.5847c0.5432-0.47,1.1138-0.8935,1.6846-1.223
							C69.3171,3.1007,71.1448,2.9963,72.4661,3.7641z"></path><path fill="#576CFB" d="M67.7433 4.7059c-1.6275-.9409-3.8654-.8136-6.3321.6104-4.0942 2.3395-7.5017 7.5271-8.5444 12.3843l-4.4478-2.6065c1.0426-4.8572 4.4502-10.0193 8.5444-12.359 2.4668-1.4494 4.7046-1.5766 6.332-.6357L67.7433 4.7059zM40.6148 50.8193l-4.4478-2.5848c-1.597-.9281-2.5877-2.9038-2.5957-5.724-.0115-4.0605 2.0715-8.7986 5.1114-12.1806l4.4478 2.5848c-3.0399 3.382-5.1229 8.1201-5.1114 12.1806C38.027 47.9155 39.0177 49.8911 40.6148 50.8193z"></path><path fill="#4562EF" d="M43.1304,32.9146l-4.4478-2.5847c-0.1648-0.4992-0.2209-1.0925-0.2227-1.7485
							c-0.013-4.5916,3.2111-10.2074,7.2342-12.5301c0.9514-0.5493,1.8762-0.8643,2.72-0.9447l4.4477,2.5848
							c-0.8438,0.0804-1.7686,0.3954-2.72,0.9447c-4.0231,2.3227-7.2472,7.9386-7.2342,12.5301
							C42.9095,31.8221,42.9656,32.4155,43.1304,32.9146z"></path><path fill="#748BFD" d="M61.4034,5.3138c4.1861-2.4169,7.6749-1.1148,8.6661,2.7556c0.5432-0.47,1.1138-0.8934,1.6846-1.223
							c3.9959-2.307,7.2684-0.442,7.2814,4.1495l-0.0248,0.859c3.4018-0.5561,5.8589,1.7797,5.8714,6.1838
							c0.0161,5.6848-3.9396,12.5363-8.8597,15.3769L46.964,50.1926c-4.9201,2.8406-8.9289,0.5874-8.945-5.0974
							c-0.0115-4.0605,2.0715-8.7986,5.1114-12.1806c-0.1648-0.4992-0.2209-1.0925-0.2227-1.7485
							c-0.013-4.5916,3.2111-10.2074,7.2342-12.5301c0.9514-0.5493,1.8762-0.8643,2.72-0.9447
							C53.9099,12.8313,57.3259,7.6679,61.4034,5.3138z"></path><path fill="#FFF" d="M91.1259,42.7639c1.607-0.9278,2.9463-0.428,3.3268,1.0578c0.2085-0.1804,0.4276-0.343,0.6467-0.4695
					c1.534-0.8856,2.7903-0.1697,2.7952,1.5929l-0.0095,0.3298c1.3059-0.2135,2.2492,0.6832,2.2539,2.3739
					c0.0062,2.1823-1.5124,4.8125-3.4011,5.903l-11.1551,6.4404c-1.8887,1.0905-3.4277,0.2255-3.4339-1.9568
					c-0.0044-1.5588,0.7952-3.3777,1.9622-4.676c-0.0633-0.1916-0.0848-0.4194-0.0855-0.6712
					c-0.005-1.7626,1.2327-3.9185,2.7771-4.8101c0.3652-0.2109,0.7203-0.3318,1.0442-0.3627
					C88.2492,45.6498,89.5606,43.6676,91.1259,42.7639z"></path><polygon fill="#37617B" points="48.724 97.25 48.675 106.54 26.57 119.313 26.619 110.023"></polygon><polygon fill="#576CFB" points="28.513 111.122 46.807 100.552 46.781 105.441 28.487 116.011"></polygon><polygon fill="#416E84" points="26.619 110.023 26.57 119.313 4.408 106.445 4.458 97.154"></polygon><polygon fill="#4C7891" points="48.724 97.25 26.619 110.023 4.458 97.154 26.563 84.382"></polygon><path fill="#FED57A" d="M31.0257 110.7468c.6433-.3693 1.1563-.0753 1.1566.6629.0003.7382-.5123 1.6317-1.1557 2.001s-1.1657.07-1.1659-.6683C29.8604 112.0042 30.3824 111.1161 31.0257 110.7468zM44.2673 103.1544c.6433-.3693 1.1657-.0806 1.1659.6575.0003.7382-.5216 1.637-1.165 2.0063l-9.6054 5.505c-.6433.3693-1.1657.07-1.1659-.6683-.0003-.7381.5217-1.6263 1.165-1.9956L44.2673 103.1544z"></path><polygon fill="#37617B" points="48.752 85.836 48.703 95.126 26.598 107.899 26.648 98.609"></polygon><polygon fill="#F9607F" points="28.541 99.708 46.835 89.137 46.809 94.027 28.515 104.597"></polygon><polygon fill="#416E84" points="26.648 98.609 26.598 107.899 4.437 95.031 4.486 85.74"></polygon><polygon fill="#4C7891" points="48.752 85.836 26.648 98.609 4.486 85.74 26.591 72.968"></polygon><path fill="#FFF" d="M31.054 99.3327c.6433-.3693 1.1563-.0753 1.1566.6629.0003.7382-.5123 1.6317-1.1557 2.001-.6433.3693-1.1657.07-1.1659-.6683C29.8888 100.5901 30.4107 99.702 31.054 99.3327zM44.2956 91.7403c.6433-.3693 1.1657-.0806 1.1659.6575.0003.7382-.5216 1.637-1.165 2.0063l-9.6054 5.505c-.6433.3693-1.1657.07-1.1659-.6683-.0003-.7381.5217-1.6263 1.165-1.9956L44.2956 91.7403z"></path><polygon fill="#37617B" points="48.781 74.422 48.731 83.712 26.626 96.485 26.676 87.195"></polygon><polygon fill="#9AD898" points="28.57 88.294 46.864 77.723 46.837 82.613 28.544 93.183"></polygon><polygon fill="#416E84" points="26.676 87.195 26.626 96.485 4.465 83.616 4.514 74.326"></polygon><polygon fill="#4C7891" points="48.781 74.422 26.676 87.195 4.514 74.326 26.619 61.553"></polygon><path fill="#576CFB" d="M31.0823 87.9186c.6433-.3693 1.1563-.0753 1.1566.6629.0003.7382-.5123 1.6317-1.1557 2.001-.6433.3693-1.1657.07-1.1659-.6683C29.9171 89.1761 30.439 88.2879 31.0823 87.9186zM44.3239 80.3263c.6433-.3693 1.1657-.0806 1.1659.6575.0003.7382-.5216 1.637-1.165 2.0063l-9.6054 5.505c-.6433.3693-1.1657.07-1.1659-.6683-.0003-.7382.5217-1.6263 1.165-1.9956L44.3239 80.3263z"></path><g><polygon fill="#474B59" points="97.568 112.264 97.529 119.521 80.263 129.498 80.301 122.241"></polygon><polygon fill="#576CFB" points="81.78 123.1 96.07 114.843 96.05 118.662 81.76 126.919"></polygon><polygon fill="#525566" points="80.301 122.241 80.263 129.498 62.951 119.446 62.99 112.189"></polygon><polygon fill="#5B5E71" points="97.568 112.264 80.301 122.241 62.99 112.189 80.257 102.212"></polygon><path fill="#FED57A" d="M83.7431 122.8067c.5025-.2885.9032-.0588.9035.5178.0002.5767-.4002 1.2745-.9027 1.563-.5025.2885-.9105.0546-.9107-.522C82.8329 123.789 83.2406 123.0952 83.7431 122.8067zM94.0865 116.8761c.5025-.2885.9105-.063.9107.5136.0002.5767-.4075 1.2787-.91 1.5672l-7.5031 4.3001c-.5025.2885-.9105.0546-.9107-.522-.0002-.5766.4075-1.2703.91-1.5588L94.0865 116.8761z"></path><polygon fill="#474B59" points="97.59 103.348 97.551 110.605 80.285 120.582 80.323 113.325"></polygon><polygon fill="#F9607F" points="81.802 114.184 96.092 105.927 96.072 109.746 81.782 118.003"></polygon><polygon fill="#525566" points="80.323 113.325 80.285 120.582 62.974 110.53 63.012 103.273"></polygon><polygon fill="#5B5E71" points="97.59 103.348 80.323 113.325 63.012 103.273 80.279 93.296"></polygon><path fill="#FFF" d="M83.7652 113.8908c.5025-.2885.9033-.0588.9035.5178.0002.5766-.4002 1.2745-.9027 1.563s-.9105.0546-.9107-.522C82.855 114.8731 83.2627 114.1793 83.7652 113.8908zM94.1087 107.9602c.5025-.2885.9105-.063.9107.5136.0002.5766-.4075 1.2787-.91 1.5672l-7.5031 4.3001c-.5025.2885-.9105.0546-.9107-.522-.0002-.5766.4075-1.2703.91-1.5588L94.1087 107.9602z"></path><g><polygon fill="#474B59" points="97.612 94.432 97.573 101.689 80.307 111.666 80.345 104.409"></polygon><polygon fill="#9AD898" points="81.825 105.268 96.115 97.011 96.094 100.831 81.804 109.087"></polygon><polygon fill="#525566" points="80.345 104.409 80.307 111.666 62.996 101.614 63.034 94.358"></polygon><polygon fill="#5B5E71" points="97.612 94.432 80.345 104.409 63.034 94.358 80.301 84.38"></polygon><path fill="#576CFB" d="M83.7873 104.975c.5025-.2885.9033-.0588.9035.5178.0002.5767-.4002 1.2745-.9027 1.563-.5025.2885-.9105.0546-.9107-.522C82.8771 105.9572 83.2848 105.2634 83.7873 104.975zM94.1308 99.0443c.5025-.2885.9105-.063.9107.5136.0002.5766-.4075 1.2787-.91 1.5672l-7.5031 4.3001c-.5025.2885-.9105.0546-.9107-.522-.0002-.5766.4075-1.2703.91-1.5588L94.1308 99.0443z"></path></g></g><g><polygon fill="#FFF" points="69.652 15.754 69.653 16.183 66.2 18.176 66.199 17.748"></polygon></g><g><polygon fill="#FFF" points="71.901 26.609 71.902 27.038 69.009 28.709 69.008 28.28"></polygon></g><g><polygon fill="#FFF" points="71.911 30.08 71.912 30.508 69.041 32.166 69.04 31.738"></polygon><polygon fill="#FFF" points="71.906 28.34 71.907 28.769 65.964 32.2 65.962 31.772"></polygon><polygon fill="#FFF" points="68.316 32.155 68.318 32.584 63.15 35.568 63.148 35.139"></polygon><polygon fill="#FFF" points="68.56 28.538 68.561 28.967 63.639 31.808 63.638 31.38"></polygon><polygon fill="#FFF" points="71.882 19.677 71.883 20.105 69.049 21.741 69.048 21.313"></polygon><polygon fill="#FFF" points="71.886 21.408 71.888 21.836 67.137 24.579 67.136 24.151"></polygon><polygon fill="#FFF" points="65.052 32.297 65.054 32.726 58.476 36.523 58.475 36.095"></polygon><polygon fill="#FFF" points="69.811 24.34 69.812 24.777 62.914 28.76 62.912 28.323"></polygon><polygon fill="#FFF" points="62.582 35.466 62.583 35.895 56.259 39.546 56.258 39.117"></polygon><polygon fill="#FFF" points="71.877 17.946 71.878 18.374 66.024 21.754 66.022 21.326"></polygon><polygon fill="#FFF" points="66.117 28.215 66.118 28.644 58.787 32.876 58.786 32.448"></polygon><polygon fill="#FFF" points="63.109 31.686 63.11 32.114 55.869 36.295 55.867 35.867"></polygon><polygon fill="#FFF" points="66.405 24.573 66.406 25.001 60.269 28.544 60.267 28.116"></polygon><polygon fill="#FFF" points="71.872 16.206 71.873 16.635 63.312 21.578 63.31 21.149"></polygon><polygon fill="#FFF" points="61.607 29.076 61.608 29.513 56.418 32.51 56.417 32.073"></polygon><polygon fill="#FFF" points="65.217 21.791 65.218 22.219 60.52 24.932 60.519 24.503"></polygon><polygon fill="#FFF" points="62.067 25.343 62.069 25.771 57.296 28.527 57.294 28.099"></polygon><polygon fill="#FFF" points="57.399 33.249 57.4 33.677 52.739 36.368 52.738 35.94"></polygon><polygon fill="#FFF" points="65.602 18.092 65.604 18.52 60.376 21.539 60.375 21.11"></polygon><polygon fill="#FFF" points="55.209 32.771 55.21 33.208 52.734 34.637 52.733 34.2"></polygon><polygon fill="#FFF" points="58.94 28.882 58.941 29.311 52.729 32.898 52.728 32.469"></polygon><polygon fill="#FFF" points="62.095 21.851 62.096 22.279 56.309 25.621 56.308 25.192"></polygon><polygon fill="#FFF" points="56.616 28.491 56.617 28.919 52.724 31.166 52.723 30.738"></polygon><polygon fill="#FFF" points="67.778 13.36 67.779 13.797 60.172 18.189 60.171 17.752"></polygon><polygon fill="#FFF" points="63.748 17.429 63.749 17.857 58.149 21.091 58.147 20.662"></polygon><polygon fill="#FFF" points="60.123 24.732 60.125 25.16 52.719 29.436 52.718 29.007"></polygon><polygon fill="#FFF" points="59.492 18.143 59.493 18.581 52.7 22.503 52.698 22.066"></polygon></g><g><polygon fill="#FFF" points="71.867 14.475 71.868 14.904 70.57 15.653 70.569 15.224"></polygon></g><g><polygon fill="#FFF" points="71.862 12.744 71.863 13.173 64.458 17.448 64.457 17.02"></polygon></g><g><polygon fill="#FFF" points="71.857 11.005 71.858 11.442 68.741 13.242 68.74 12.804"></polygon></g><g><polygon fill="#FFF" points="55.398 25.717 55.399 26.146 52.714 27.696 52.713 27.267"></polygon></g><g><polygon fill="#FFF" points="59.234 21.769 59.235 22.198 52.709 25.965 52.708 25.536"></polygon></g><g><polygon fill="#FFF" points="57.252 21.179 57.254 21.608 52.705 24.234 52.703 23.805"></polygon></g><g><polygon fill="#FFF" points="71.896 24.878 71.897 25.307 67.281 27.972 67.28 27.544"></polygon></g><g><polygon fill="#FFF" points="68.212 21.795 68.214 22.224 62.628 25.449 62.627 25.02"></polygon></g><g><polygon fill="#FFF" points="71.891 23.139 71.892 23.576 70.386 24.446 70.385 24.009"></polygon></g><g><polygon fill="#FFF" points="55.204 36.25 55.205 36.678 52.744 38.099 52.743 37.671"></polygon></g><g><polygon fill="#FFF" points="55.348 39.643 55.349 40.071 52.754 41.57 52.752 41.141"></polygon></g><g><polygon fill="#FFF" points="57.52 36.646 57.522 37.075 52.749 39.83 52.748 39.402"></polygon></g></svg>