<svg xmlns="http://www.w3.org/2000/svg" enable-background="new 0 0 51 51" viewBox="0 0 51 51" id="website-form"><path fill="#C6C6C6" d="M35.48264,39.30079v2.12791c0,0.33188-0.20932,0.66376-0.65351,0.91393l-7.19894,4.156
					c-0.95986,0.54628-2.54774,0.49012-3.33911-0.14809l-6.88751-5.57535v-2.12791l6.88751,5.57535
					c0.79137,0.63821,2.37925,0.70458,3.33911,0.14808l7.19894-4.156C35.2631,39.96455,35.48264,39.63267,35.48264,39.30079z"></path><path fill="#E2E2E2" d="M17.39955,38.65112l6.89229,5.56716c0.79119,0.64072,2.38038,0.70718,3.34216,0.15189l7.19281-4.15277
					c0.96178-0.55529,0.85226-1.47603-0.2513-1.9364l-9.59679-4.00572L17.39955,38.65112z"></path><path fill="#D6D6D6" d="M42.82822,3.19725c-0.15449-0.09013-0.38622-0.07724-0.61796,0.06436L11.53001,20.96422
				c-0.47635,0.28328-0.87547,0.9656-0.87547,1.5192l0.07724,26.39299c0,0.28328,0.09013,0.47636,0.25751,0.56649L8.18554,47.8028
				c-0.16738-0.09005-0.25751-0.28321-0.25751-0.56649L7.85079,20.84332c0-0.5536,0.39911-1.23591,0.87547-1.5192L39.40651,1.62151
				c0.24462-0.1416,0.46347-0.15449,0.61796-0.06436L42.82822,3.19725z"></path><path fill="#3D566E" d="M43.08602,3.76211c0-0.56306-0.4022-0.7814-0.87335-0.49987L11.53082,20.96463
					c-0.47686,0.28153-0.87907,0.96527-0.87907,1.51686l0.07217,23.67908l32.4188-18.71156L43.08602,3.76211z"></path><path fill="#FFF" d="M12.37566,22.54156c0.01487-0.03647,0.04461-0.08557,0.0693-0.11447L41.36713,5.73999l0.04966,20.71496
					l-28.978,16.72582L12.37566,22.54156z"></path><path fill="#E74C3C" d="M12.37566,22.54156c0.01487-0.03647,0.04461-0.08557,0.0693-0.11447L41.36713,5.73999l0.0041,1.70945
					L12.38068,24.18251L12.37566,22.54156z"></path><path fill="#ECF0F1" d="M43.14922,30.15769c0,0.5516-0.38495,1.23533-0.87335,1.51686L11.60552,49.37693
					c-0.48837,0.28728-0.87332,0.05169-0.87332-0.49987l-0.00575-2.71772l32.41702-18.70787L43.14922,30.15769z"></path><path fill="#C6C6C6" d="M28.00464,38.02921c0,0.67857-0.4726,1.50255-1.06634,1.85393
					c-0.59374,0.33932-1.06634,0.04844-1.06634-0.618c0-0.6907,0.46047-1.50255,1.06634-1.85393
					C27.51999,37.07188,28.00464,37.35063,28.00464,38.02921z"></path><path fill="#FFF" d="M13.63191 22.2763c.16232-.09372.29588-.01762.2964.16892.00054.19026-.13215.42009-.29447.5138-.1656.09561-.29913.01949-.29967-.17077C13.33364 22.60172 13.46631 22.37191 13.63191 22.2763zM15.10916 21.42341c.16234-.09373.2959-.01763.29643.16891.00054.19026-.13215.42009-.29449.51382-.16558.0956-.29913.01949-.29967-.17078C14.81089 21.74882 14.94358 21.51901 15.10916 21.42341zM16.58644 20.57051c.16232-.09372.29588-.01762.29641.16892.00054.19026-.13215.42009-.29447.5138-.1656.09561-.29913.01949-.29967-.17078C16.28817 20.89592 16.42084 20.66611 16.58644 20.57051z"></path><path fill="#3498DB" d="M20.68417,26.07969l2.06223-1.19063l0.00755,2.66313l-2.06223,1.19063
				c-0.63848,0.36863-1.15735,0.06562-1.15943-0.66803C19.53022,27.34115,20.04569,26.44832,20.68417,26.07969z M21.81401,27.60252
				l-0.00266-0.93907l-0.05771-0.04017l-0.05741,0.03315l-0.00067-0.23477c-0.00079-0.27879-0.20573-0.38827-0.44838-0.24817
				c-0.24263,0.14009-0.43986,0.48176-0.43907,0.76054l0.00067,0.23477l-0.05751,0.03321l-0.0572,0.10651l0.00266,0.93907
				l0.05762,0.04022l1.00237-0.57872L21.81401,27.60252"></path><path fill="#ECF0F1" d="M33.10875 18.90636c.6384-.36858 1.16365-.0766 1.16573.65704.00208.73364-.51978 1.63752-1.15818 2.0061l-10.36234 5.9827-.00755-2.66313L33.10875 18.90636zM33.09442 13.85155c.63839-.36858 1.16365-.07663 1.16573.65704.00208.73364-.51981 1.63018-1.1582 1.99876l-10.36234 5.9827-.00753-2.6558L33.09442 13.85155z"></path><path fill="#FFF" d="M21.23935,21.13697c0.19156-0.11059,0.35799-0.02297,0.35864,0.20445
				c0.00064,0.22745-0.16476,0.50664-0.35631,0.61723c-0.20437,0.11799-0.36449,0.02675-0.36514-0.2007
				C20.8759,21.53053,21.03498,21.25496,21.23935,21.13697z"></path><path fill="#3498DB" d="M20.66984,21.02487l2.06223-1.19063l0.00753,2.6558l-2.06223,1.19063
				c-0.63848,0.36863-1.15733,0.07296-1.15941-0.66069C19.51589,22.28631,20.03136,21.3935,20.66984,21.02487z M20.51653,23.33262
				l1.4493-0.83675c-0.00129-0.45488-0.33437-0.63733-0.71749-0.41614C20.83978,22.31562,20.51524,22.87774,20.51653,23.33262
				 M21.23934,21.13697c-0.20438,0.118-0.36346,0.39355-0.36281,0.62097c0.00064,0.22745,0.16076,0.3187,0.36514,0.2007
				c0.19156-0.1106,0.35695-0.38978,0.3563-0.61723C21.59733,21.114,21.4309,21.02638,21.23934,21.13697"></path><path fill="#FFF" d="M21.24835,22.07973c0.38311-0.22119,0.71618-0.03873,0.71747,0.41614l-1.4493,0.83675
				C20.51524,22.87776,20.83979,22.31562,21.24835,22.07973z"></path><path fill="#3498DB" d="M21.25405 26.32385c.166-.09584.30692-.01554.30746.17521l.00067.23477-.61935.35758-.00067-.23477C20.94162 26.6659 21.07522 26.4271 21.25405 26.32385zM21.25648 27.18222c.07654-.04419.14065-.01507.1409.07297l-.06982.18728.00064.22741-.14046.08109-.00063-.22007-.07707-.10982C21.1098 27.33304 21.17343 27.23017 21.25648 27.18222z"></path><path fill="#FFF" d="M21.75364,26.62329l0.05771,0.04017l0.00266,0.93907l-0.05729,0.10656l-1.00237,0.57872l-0.05762-0.04022
				l-0.00266-0.93907l0.0572-0.10651l0.05751-0.03321l-0.00067-0.23477c-0.00079-0.27879,0.19644-0.62046,0.43907-0.76054
				c0.24265-0.1401,0.44759-0.03061,0.44838,0.24817l0.00067,0.23477L21.75364,26.62329z M21.56218,26.73383l-0.00067-0.23477
				c-0.00054-0.19075-0.14146-0.27105-0.30746-0.17521c-0.17882,0.10324-0.31243,0.34205-0.31189,0.53279l0.00067,0.23477
				L21.56218,26.73383 M21.32756,27.44246l0.06982-0.18728c-0.00025-0.08804-0.06436-0.11716-0.1409-0.07297
				c-0.08305,0.04795-0.14668,0.15082-0.14643,0.23886l0.07707,0.10982l0.00063,0.22007l0.14046-0.08109L21.32756,27.44246"></path><g><path fill="#2ECC71" d="M31.36237,27.05907c-0.35999-0.20001-0.62642-0.0012-1.16646,0.30886l-4.69649,3.04799
				c-0.55005,0.32001-1.02002,0.84003-1.38,1.45001c-0.34998,0.60999-0.56995,1.29004-0.55994,1.91003
				c0,0.60999-1.05299,1.13842-0.693,1.33843l-0.3741-0.18532c-0.3501-0.21002-0.56006-0.64001-0.57007-1.26001
				c0-0.60999,0.21997-1.29999,0.57007-1.90003c0.34998-0.60999,0.82996-1.13995,1.37-1.44995l5.75989-3.33002
				c0.54004-0.31,1.03003-0.34003,1.38013-0.13L31.36237,27.05907z"></path><path fill="#30B265" d="M30.02687,27.1965c1.0726-0.61926,1.94374-0.12283,1.94723,1.10969
				c0.00177,0.62361-0.21375,1.30652-0.56374,1.9201c-0.35003,0.5989-0.84092,1.13951-1.37081,1.44544l-5.75899,3.32495
				c-1.079,0.62297-1.95017,0.11919-1.95368-1.12067c-0.00175-0.61625,0.21377-1.29918,0.56378-1.90542
				c0.35642-0.60994,0.83451-1.13581,1.37721-1.44914L30.02687,27.1965z"></path></g><g><path fill="#5B5E71" d="M24.66124 19.54732l.00175.61589c.00047.16426-.03495.30808-.11333.43558-.07118.13158-.1712.23046-.29266.30058s-.21453.08272-.2934.03778c-.07885-.03673-.11487-.1393-.11533-.30356l-.00175-.61589.1643-.09486.00175.61589c.00028.09855.02193.16829.06504.201.04301.03274.10746.02844.1789-.01281.07861-.04539.13571-.11126.17839-.19347.04278-.08229.07104-.18086.07076-.27941l-.00175-.61589L24.66124 19.54732zM25.21851 19.19267l.18594-.06621.15751.00777-.08529.18906-.12176-.00372-.14297.04963-.11426.10711-.04974.12742.0503.06967c.02867.00813.093-.00435.19323-.02931.10011-.03311.17166-.03331.22182-.0129.05016.02038.07896.07778.07924.17632.00026.09033-.03518.19307-.09938.28771-.057.09871-.14272.17288-.24993.23478-.15005.08663-.27884.10342-.40063.05857l.09962-.20559c.10032.04079.20049.03232.3077-.02957l.12144-.11125.04974-.12742-.04322-.07375-.15024.02094-.16456.03744-.09305-.0121c-.05733-.01624-.08613-.07364-.08644-.1804-.00028-.09855.02808-.19717.09231-.28362C25.03996 19.32866 25.12565 19.24628 25.21851 19.19267z"></path><polygon fill="#5B5E71" points="26.469 18.503 26.47 18.676 25.955 18.973 25.956 19.269 26.421 19 26.421 19.165 25.957 19.433 25.957 19.728 26.486 19.423 26.487 19.604 25.794 20.004 25.79 18.895"></polygon><path fill="#5B5E71" d="M27.25744,18.75576l0.2584,0.25389l-0.20723,0.11965L27.0717,18.8877l-0.21442,0.12379l0.00107,0.37775
				l-0.16439,0.09491l-0.00314-1.10863l0.36446-0.21042c0.14297-0.08255,0.25026-0.11981,0.31469-0.09943
				c0.06452,0.0203,0.09338,0.09414,0.09373,0.21733C27.46423,18.47188,27.40018,18.62402,27.25744,18.75576z M27.06407,18.72759
				c0.09295-0.05366,0.14999-0.10305,0.18567-0.15657l0.04954-0.19309l-0.05043-0.11895
				c-0.03584-0.00398-0.09298,0.01256-0.18593,0.06622l-0.20725,0.11966l0.00114,0.40239L27.06407,18.72759"></path><polygon fill="#5B5E71" points="28.964 17.063 28.967 18.172 28.795 18.271 28.242 17.776 28.245 18.589 28.08 18.684 28.077 17.575 28.242 17.48 28.809 17.984 28.806 17.154"></polygon><path fill="#5B5E71" d="M29.6996,16.63841l0.43188,0.8611l-0.17865,0.10314l-0.09359-0.20096l-0.48601,0.2806l-0.09931,0.31233
				l-0.17148,0.099l0.4256-1.35616L29.6996,16.63841z M29.43711,17.47268l0.35013-0.20215l-0.17278-0.36087L29.43711,17.47268"></path><polygon fill="#5B5E71" points="31.35 15.685 31.354 16.794 31.189 16.889 31.187 16.018 30.853 16.984 30.76 17.038 30.422 16.46 30.425 17.33 30.26 17.425 30.257 16.317 30.514 16.168 30.809 16.689 31.093 15.834"></polygon><polygon fill="#5B5E71" points="32.294 15.141 32.294 15.313 31.78 15.61 31.781 15.906 32.245 15.638 32.246 15.802 31.781 16.07 31.782 16.366 32.318 16.056 32.318 16.237 31.618 16.641 31.615 15.533"></polygon></g><g><path fill="#FFF" d="M23.76217 32.45049c.08296-.0479.16605-.08119.2427-.0887.08313-.01859.15349-.01513.21107.0104l-.1144.24976c-.03838-.01457-.08958-.02176-.15346-.00693-.06391.00751-.12784.03708-.19166.07393l-.15948.13615-.05713.16527.0579.10619c.04477.00356.12783-.00767.26208-.04842.13416-.04073.23008-.04465.29409-.01548.07042.02547.10264.1024.103.22713.00037.13205-.04402.26056-.12684.38921-.08273.1286-.19122.22796-.33168.30906-.19788.11424-.37691.14413-.53056.07117l.13351-.26815c.12811.05832.26235.04695.40281-.03414.07023-.04055.12769-.08842.16586-.14719l.06343-.17626-.05779-.0989c-.03845-.00721-.10876.00401-.19821.02626-.09584.03328-.16615.0445-.21731.05198l-.13428-.0033c-.07042-.02547-.10898-.10609-.10938-.24548-.00037-.13207.03759-.26422.12675-.38918C23.52604 32.62355 23.63444 32.52423 23.76217 32.45049zM25.59468 31.42922l.00235.82902c.0006.21277-.05003.40367-.15188.58004-.10179.169-.22935.30143-.38895.39357s-.29391.1109-.39631.0598c-.10252-.05837-.15407-.19028-.15467-.40305l-.00235-.82902.2171-.12534.00233.82168c.00037.13207.03262.21634.09026.26389.05773.0475.14079.03627.24298-.02272.09578-.0553.17863-.13986.2359-.25376.05719-.11385.08885-.23502.08845-.37442l-.00231-.81434L25.59468 31.42922zM26.88674 31.52097c.05126.02917.07063.09884.07088.18686.00029.10273-.02498.21285-.0886.32306-.06996.13592-.19756.25368-.36999.35323l-.56183.32438-.00418-1.47463.49802-.28753c.08937-.0516.15964-.07747.2236-.09235l.14073.01428c.06406.04385.08982.10981.0901.20518.00033.11738-.03138.22387-.09504.31205L26.74584 31.448l-.05101.05885C26.77783 31.47362 26.84187 31.48074 26.88674 31.52097zM26.67708 32.00944c.03821-.05145.0636-.11755.06337-.19825-.00038-.13208-.09633-.14279-.27509-.03959l-.31286.18063.00114.40351.33842-.19539C26.57504 32.11245 26.63249 32.06456 26.67708 32.00944M26.15078 31.34328l.00108.38152.27451-.15849c.15329-.0885.23606-.20243.23573-.31981l-.05786-.12091c-.03844-.0072-.0959.01125-.17895.0592L26.15078 31.34328"></path><polygon fill="#FFF" points="28.678 29.649 28.683 31.123 28.466 31.249 28.462 30.097 28.018 31.382 27.897 31.452 27.447 30.683 27.45 31.835 27.233 31.96 27.229 30.486 27.568 30.29 27.953 30.993 28.34 29.844"></polygon><polygon fill="#FFF" points="29.247 29.321 29.251 30.795 29.034 30.921 29.03 29.446"></polygon><polygon fill="#FFF" points="30.479 28.609 30.48 28.837 30.09 29.062 30.094 30.309 29.877 30.434 29.873 29.187 29.484 29.412 29.483 29.184"></polygon></g></svg>