<svg xmlns="http://www.w3.org/2000/svg" viewBox="0 0 64 64" id="cms-file"><g data-name="Layer 77"><path d="M18.57 46.06a.84.84 0 0 0 .87-.89.83.83 0 0 0-.26-.61.86.86 0 0 0-.63-.26.87.87 0 0 0-.87.87.82.82 0 0 0 .26.66A.91.91 0 0 0 18.57 46.06zM21.51 43.91a4.42 4.42 0 0 0 .58.91 4 4 0 0 0 .84.72 3.61 3.61 0 0 0 1 .4 5.86 5.86 0 0 0 1.24.12 4 4 0 0 0 1.57-.28 3.06 3.06 0 0 0 1.1-.75 3.14 3.14 0 0 0 .64-.94 2.14 2.14 0 0 0 .2-.88.7.7 0 0 0-.22-.54.73.73 0 0 0-.53-.22.62.62 0 0 0-.53.21 2.09 2.09 0 0 0-.28.56 2.19 2.19 0 0 1-.78 1.09 2.1 2.1 0 0 1-1.27.37 2.16 2.16 0 0 1-1.2-.33 2.1 2.1 0 0 1-.8-1 4.25 4.25 0 0 1-.28-1.67 3.69 3.69 0 0 1 .63-2.31 2.09 2.09 0 0 1 1.71-.82 2 2 0 0 1 1.14.32 2.7 2.7 0 0 1 .8 1 2.06 2.06 0 0 0 .37.54.68.68 0 0 0 .5.16.68.68 0 0 0 .51-.23.76.76 0 0 0 .21-.53 2.08 2.08 0 0 0-.43-1.15 3.41 3.41 0 0 0-1.25-1 4 4 0 0 0-1.86-.42 4.12 4.12 0 0 0-1.61.31 3.71 3.71 0 0 0-1.32.89 3.89 3.89 0 0 0-.86 1.4A5.09 5.09 0 0 0 21 41.63a5.84 5.84 0 0 0 .12 1.21A4.65 4.65 0 0 0 21.51 43.91zM31 46.06a.75.75 0 0 0 .58-.24 1.07 1.07 0 0 0 .22-.74V39.15l1.38 5.47c0 .18.09.36.13.52a2.11 2.11 0 0 0 .19.46 1 1 0 0 0 .33.33A1.1 1.1 0 0 0 35 45.86a1.18 1.18 0 0 0 .31-.45c.06-.17.13-.43.22-.79l1.38-5.47v5.93a1.07 1.07 0 0 0 .22.74.75.75 0 0 0 .57.24.78.78 0 0 0 .59-.24 1.13 1.13 0 0 0 .22-.74v-6.8a.83.83 0 0 0-.3-.75 1.32 1.32 0 0 0-.79-.2h-.54a2 2 0 0 0-.7.09.56.56 0 0 0-.33.31 4.77 4.77 0 0 0-.24.75l-1.25 4.7-1.24-4.7a3.76 3.76 0 0 0-.25-.75.54.54 0 0 0-.32-.31 2 2 0 0 0-.71-.09h-.54a1.34 1.34 0 0 0-.79.2.85.85 0 0 0-.29.75v6.8a1.06 1.06 0 0 0 .22.74A.75.75 0 0 0 31 46.06zM44.58 44.43a2 2 0 0 1-1.26.36 2 2 0 0 1-.9-.18 1.37 1.37 0 0 1-.54-.46 3.3 3.3 0 0 1-.36-.68A1.29 1.29 0 0 0 41.2 43a.66.66 0 0 0-.47-.18.77.77 0 0 0-.78.77 2.13 2.13 0 0 0 .37 1.12 2.7 2.7 0 0 0 1 .92 4.13 4.13 0 0 0 2.1.48 4.27 4.27 0 0 0 1.83-.35 2.66 2.66 0 0 0 1.18-1 2.49 2.49 0 0 0 .4-1.4 2.45 2.45 0 0 0-.23-1.1 2.1 2.1 0 0 0-.65-.74 3.89 3.89 0 0 0-1-.5c-.39-.13-.83-.26-1.31-.37s-.67-.17-.84-.23a2.58 2.58 0 0 1-.49-.21 1.05 1.05 0 0 1-.39-.32.72.72 0 0 1-.14-.44.88.88 0 0 1 .41-.72 1.9 1.9 0 0 1 1.09-.29 1.63 1.63 0 0 1 1.05.27 2.3 2.3 0 0 1 .57.76 2 2 0 0 0 .33.49.65.65 0 0 0 .46.15.7.7 0 0 0 .55-.25.86.86 0 0 0 .22-.56 1.55 1.55 0 0 0-.18-.7 2.16 2.16 0 0 0-.56-.68 2.74 2.74 0 0 0-1-.52 4.24 4.24 0 0 0-1.36-.2 4.57 4.57 0 0 0-1.73.3 2.56 2.56 0 0 0-1.12.84 2.2 2.2 0 0 0-.38 1.26 2.08 2.08 0 0 0 .36 1.25 2.59 2.59 0 0 0 1 .79 9.08 9.08 0 0 0 1.55.51 8.77 8.77 0 0 1 1.11.3 1.71 1.71 0 0 1 .67.4.94.94 0 0 1 .26.7A1.09 1.09 0 0 1 44.58 44.43z"></path><path d="M56,34H53V16s0,0,0-.06a1.55,1.55,0,0,0,0-.21s0-.05,0-.08a.08.08,0,0,0,0,0,1,1,0,0,0-.17-.29l-11-12a1.42,1.42,0,0,0-.29-.21s0,0,0,0l-.07,0a.86.86,0,0,0-.23,0L41,3H14.42A3.42,3.42,0,0,0,11,6.42V34H8a1,1,0,0,0-1,1V49s0,0,0,.07,0,.13,0,.2l.06.17a.91.91,0,0,0,.11.16l.13.15.05,0L11,52.5v5.08A3.42,3.42,0,0,0,14.42,61H49.58A3.42,3.42,0,0,0,53,57.58V52.5l3.6-2.7,0,0,.13-.15a.91.91,0,0,0,.11-.16l.06-.17c0-.07,0-.13,0-.2s0,0,0-.07V35A1,1,0,0,0,56,34ZM42,6.57,49.73,15H42ZM21,5H40V16a1,1,0,0,0,1,1H51V34H21ZM13,6.42A1.43,1.43,0,0,1,14.42,5H19V34H13ZM11,50Zm8,9H14.42A1.43,1.43,0,0,1,13,57.58V50h6Zm32-1.42A1.43,1.43,0,0,1,49.58,59H21V50H51ZM53,50Zm2-2H9V36H55Z"></path></g></svg>