<svg xmlns="http://www.w3.org/2000/svg" viewBox="0 0 512 512" id="seo"><path d="M236.064 240.031h8a4 4 0 0 0 4-4v-12a4 4 0 0 0-8 0v8h-4a4 4 0 0 0 0 8Z"></path><path d="M448.188 476.031h-100v-23.125a64.848 64.848 0 0 0 94.4-57.6 66.211 66.211 0 0 0-.682-9.424l-14.942-102.953a11.963 11.963 0 0 0 2.912-9.429l-2.015-15.872a11.984 11.984 0 0 0-20.965-6.336 11.942 11.942 0 0 0-15.872 2.012 11.9 11.9 0 0 0-6.8-2.143 12.632 12.632 0 0 0-1.518.1 12.075 12.075 0 0 0-2.5.594l-8.342-39.208a13.692 13.692 0 0 0-26.84 5.427l10.513 54.735a14.139 14.139 0 0 0-1.177 1.405 13.894 13.894 0 0 0-2.454 10.518l4.078 24.218a24.042 24.042 0 0 0 9.426 15.31l13.79 71.771h-.451l-39.924-99.816A31.968 31.968 0 0 0 309 276.031h-72.93v-8.29a28.039 28.039 0 0 0 24-27.71v-28.125c1.732.079 3.468.125 5.21.125h2.79a4 4 0 0 0 4-4v-12.15a28.016 28.016 0 0 0-40.512-25.081l-11.783 5.856a24.544 24.544 0 0 0-32.287 27.735s3.933 17.961 4.584 24.046c.774 7.224 5.228 13.341 12 15.089v32.506h-99.884a35.991 35.991 0 0 0-36 36v144a44.049 44.049 0 0 0 44 44h336a4 4 0 0 0 4-4v-16a4 4 0 0 0-4-4.001Zm-232.27-156.969-2.65-10.605 6.769-6.769 6.77 6.77-2.651 10.6a4.006 4.006 0 0 0-.114 1.17l1.79 35.8h-11.59l1.79-35.8a3.962 3.962 0 0 0-.114-1.166Zm-9.854-35.031 8.695 11.622-9.157 9.158-7.793-20.78Zm28 0h8.2l-7.792 20.779-9.151-9.151Zm106.124 80v34.344L315.016 373.2a4 4 0 0 0-5.657 0l-45.171 45.172-13.172-13.172a4 4 0 0 0-5.047-.5L199.9 435.416l-27.712-13.857v-57.528Zm-72 112v-50.343l8-8v58.343h-8Zm-96-45.528 8 4v41.528h-8Zm16 8 8 4v33.528h-8Zm16 3.669 8-5.333v39.192h-8Zm16-10.667 8-5.333v49.859h-8Zm16-10.667 8-5.333v60.526h-8Zm16-3.15 8 8v50.343h-8Zm32-8 8-8v74.343h-8Zm16-16 8-8v90.343h-8Zm16-8 8 8v82.343h-8Zm16 16 8 8v66.343h-8Zm80.608-145a4 4 0 0 1 7.13 1.946l2.014 15.872a4 4 0 1 1-7.94 1.008l-2.014-15.873a3.976 3.976 0 0 1 .814-2.953Zm-15.873 2.012a4.022 4.022 0 0 1 3.165-1.551 4.008 4.008 0 0 1 3.966 3.5l2.013 15.873a4 4 0 0 1-7.937 1.007l-2.014-15.873a3.976 3.976 0 0 1 .807-2.956Zm-13.249.5a4.034 4.034 0 0 1 4.506 3.461l.343 2.7a12.016 12.016 0 0 0-4.367-.135l-3.635.59-.276-2.16a3.988 3.988 0 0 1 3.429-4.461Zm-30.887-43.713a5.691 5.691 0 0 1 11.258-1.177l9.309 43.754a11.9 11.9 0 0 0-1.044 6.609l.309 2.43-9.043 1.467c-.229.035-.45.092-.676.139l-10.017-52.159a5.527 5.527 0 0 1-.096-1.059Zm23.25 188.54h8a4 4 0 0 0 3.929-4.754l-13.618-70.924c.319.073.635.157.96.216a3.94 3.94 0 0 0 .729.067 4 4 0 0 0 .72-7.934 16.048 16.048 0 0 1-12.879-13.078l-4.078-24.214a6 6 0 0 1 5.028-6.931l20.58-3.339a3.994 3.994 0 0 1 4.488 3.047l.1.827a4.007 4.007 0 0 1-3.41 4.039l-14.807 2.451a4 4 0 0 0-3.3 4.558l1.223 7.905a4 4 0 0 0 1.59 2.616l2.089 1.529a17.22 17.22 0 0 1 6.162 8.405 4 4 0 1 0 7.58-2.557 25.216 25.216 0 0 0-9.017-12.3l-.752-.55-.364-2.356 10.864-1.8a11.922 11.922 0 0 0 6.243-3 11.959 11.959 0 0 0 17.063-1.082 11.941 11.941 0 0 0 6.8 2.14 12.21 12.21 0 0 0 1.5-.094l14.53 100.117a58.031 58.031 0 0 1 .6 8.277 56.844 56.844 0 0 1-86.4 48.432V393.9l18.2-7.22 5.935 14.839a4 4 0 0 0 3.712 2.512Zm-44.643-104.84 32.023 80.064-15.229 6.04v-25.26a4 4 0 0 0-4-4h-32.111v-12a4 4 0 1 0-8 0v12h-70.235l-1.78-35.606 1.35-5.4a3.98 3.98 0 0 0 6.37-1.59l11.027-29.4H309a24.006 24.006 0 0 1 22.394 15.152Zm-136.046-96.293a16.613 16.613 0 0 1 16.179-19.681 16.683 16.683 0 0 1 6.8 1.472 4 4 0 0 0 3.408-.072l13.388-6.653a20.021 20.021 0 0 1 28.942 17.921v8.143a104.492 104.492 0 0 1-38.488-7.776 4 4 0 0 0-5.471 3.135l-.621 4.323a23.541 23.541 0 0 1-3.982 10.157 15.986 15.986 0 0 0-17.7 1.905Zm4.719 25.137a7.992 7.992 0 0 1 13.453-5.843 4 4 0 0 0 5.656-.181 31.469 31.469 0 0 0 8.134-16.534 112.173 112.173 0 0 0 24.757 5.772v28.786a20.027 20.027 0 0 1-26.564 18.9 4 4 0 1 0-2.631 7.555 27.579 27.579 0 0 0 5.195 1.24V278.7l-8.022 10.67-7.978-10.67v-38.67a4 4 0 0 0-4-4 8.009 8.009 0 0 1-8-7.999ZM84.386 292.23a27.819 27.819 0 0 1 19.8-8.2h85.077l11.027 29.4a3.975 3.975 0 0 0 6.371 1.589l1.35 5.4-1.781 35.606h-38.042a4 4 0 0 0-4 4v76h-24v-92a4 4 0 0 0-8 0v52h-56v-84a27.821 27.821 0 0 1 8.198-19.795Zm-8.2 163.8v-52h56v36a4 4 0 0 0 4 4h28v48h-52a36.04 36.04 0 0 1-35.998-35.999Zm96 28h96v8h-96Zm272 8h-168v-8h168Z"></path><path d="M226.54 248.982a22.336 22.336 0 0 0 13.9 4.876h.6a4 4 0 0 0 0-8h-.6a14.306 14.306 0 0 1-8.9-3.123 4 4 0 0 0-5 6.247zm-60.753-69.751a4 4 0 0 0 6.4-3.2v-20h24a24.027 24.027 0 0 0 24-24v-72a24.028 24.028 0 0 0-24-24h-144a24.027 24.027 0 0 0-24 24v72a24.027 24.027 0 0 0 24 24h82.666zm-129.6-47.2v-72a16.018 16.018 0 0 1 16-16h144a16.019 16.019 0 0 1 16 16v72a16.018 16.018 0 0 1-16 16h-28a4 4 0 0 0-4 4v16l-25.6-19.2a4 4 0 0 0-2.4-.8h-84a16.017 16.017 0 0 1-15.999-16z"></path><path d="M144.5 132.287a4 4 0 0 0 5.656 0L160.442 122a4 4 0 0 0 0-5.657l-3.568-3.568a36.443 36.443 0 0 0 2.268-5.472h5.046a4 4 0 0 0 4-4V88.758a4 4 0 0 0-4-4h-5.046a36.431 36.431 0 0 0-2.268-5.471l3.568-3.569a4 4 0 0 0 0-5.657l-10.285-10.285a4 4 0 0 0-5.656 0l-3.569 3.569a36.278 36.278 0 0 0-5.472-2.268v-5.046a4 4 0 0 0-4-4h-14.545a4 4 0 0 0-4 4v5.046a36.278 36.278 0 0 0-5.472 2.268l-3.569-3.569a4 4 0 0 0-5.656 0L87.933 70.061a4 4 0 0 0 0 5.657l3.567 3.569a36.431 36.431 0 0 0-2.268 5.471h-5.044a4 4 0 0 0-4 4V103.3a4 4 0 0 0 4 4h5.045a36.443 36.443 0 0 0 2.268 5.472l-3.568 3.568a4 4 0 0 0 0 5.657l10.285 10.286a4 4 0 0 0 5.656 0l3.569-3.569a36.377 36.377 0 0 0 5.472 2.267v5.046a4 4 0 0 0 4 4h14.545a4 4 0 0 0 4-4v-5.046a36.377 36.377 0 0 0 5.472-2.267Zm-13.927-8.25a4 4 0 0 0-3.114 3.9v4.093h-6.545v-4.093a4 4 0 0 0-3.114-3.9 28.5 28.5 0 0 1-8.9-3.687 4 4 0 0 0-4.961.555l-2.9 2.9-4.628-4.628 2.895-2.9a4 4 0 0 0 .556-4.961 28.467 28.467 0 0 1-3.687-8.9 4 4 0 0 0-3.9-3.114h-4.087v-6.544h4.093a4 4 0 0 0 3.9-3.114 28.477 28.477 0 0 1 3.687-8.9 4 4 0 0 0-.556-4.961l-2.894-2.893 4.628-4.629 2.9 2.9a4 4 0 0 0 4.961.556 28.453 28.453 0 0 1 8.9-3.687 4 4 0 0 0 3.114-3.9v-4.099h6.545v4.094a4 4 0 0 0 3.114 3.9 28.453 28.453 0 0 1 8.9 3.687 4 4 0 0 0 4.961-.556l2.9-2.9 4.628 4.629-2.895 2.895a4 4 0 0 0-.556 4.961 28.477 28.477 0 0 1 3.687 8.9 4 4 0 0 0 3.9 3.114h4.094V99.3h-4.094a4 4 0 0 0-3.9 3.114 28.467 28.467 0 0 1-3.687 8.9 4 4 0 0 0 .556 4.961l2.895 2.9-4.628 4.628-2.9-2.9a4 4 0 0 0-4.961-.555 28.5 28.5 0 0 1-8.906 3.689Z"></path><path d="M124.188 76.031a20 20 0 1 0 20 20 20.022 20.022 0 0 0-20-20zm0 32a12 12 0 1 1 12-12 12.013 12.013 0 0 1-12 12zm344-96h-199.8a24.027 24.027 0 0 0-24 24v96a24.027 24.027 0 0 0 24 24h15.8v28a4 4 0 0 0 6.5 3.124l38.9-31.124h90.6a4 4 0 0 0 0-8h-92a4 4 0 0 0-2.5.877l-33.5 26.8v-23.677a4 4 0 0 0-4-4h-19.8a16.017 16.017 0 0 1-16-16v-96a16.018 16.018 0 0 1 16-16h199.8a16.019 16.019 0 0 1 16 16v96a16.018 16.018 0 0 1-16 16 4 4 0 0 0 0 8 24.027 24.027 0 0 0 24-24v-96a24.028 24.028 0 0 0-24-24z"></path><path d="M328.188 60.031h-40a4 4 0 0 0-4 4v56a4 4 0 0 0 4 4h40a4 4 0 0 0 4-4v-56a4 4 0 0 0-4-4zm-4 8v8h-32v-8zm-32 48v-32h32v32zm68-56h-16a4 4 0 1 0 0 8h16a4 4 0 0 0 0-8zm0 16h-16a4 4 0 0 0 0 8h16a4 4 0 0 0 0-8zm94.454 21.503a35.331 35.331 0 1 0-21.108 16.866 35.073 35.073 0 0 0 21.108-16.866zm-23.329 9.178a27.3 27.3 0 1 1 16.324-13.042 27.33 27.33 0 0 1-16.324 13.042z"></path><path d="M456.479 146.66a3.994 3.994 0 0 0-3.982-2.874l-4.814-16.652a52.439 52.439 0 0 0-38.519-97.025 53.588 53.588 0 0 0-5 1.734 3.99 3.99 0 0 0-3.98-3.812h-128a4 4 0 0 0-4 4v104a4 4 0 0 0 4 4h128a4 4 0 0 0 4-4v-6.877a51.876 51.876 0 0 0 19.464 3.8c1.57 0 3.142-.08 4.714-.222l4.811 16.642a3.961 3.961 0 0 0-1.835 4.554L448 211.552a4 4 0 0 0 4.954 2.732l17.451-5.045a4 4 0 0 0 2.732-4.954Zm-15.654.361-4.5-15.583 3.95-1.142 4.5 15.584-.521.151Zm-44.936-110.99a52.708 52.708 0 0 0-9.93 8H276.188v-8Zm-119.7 96v-80H379.6a52.546 52.546 0 0 0 16.587 73.079v6.921Zm125.941-12.707a44.457 44.457 0 0 1-.007-77.692 45.141 45.141 0 0 1 9.267-3.838 44.173 44.173 0 0 1 33.8 3.776 44.441 44.441 0 0 1-9.116 81.609 44.162 44.162 0 0 1-33.945-3.855Zm52.445 86.163-14.436-49.94 2.6-.751 7.168-2.071 14.436 49.939Z"></path></svg>