<svg xmlns="http://www.w3.org/2000/svg" viewBox="0 0 64 64" id="project-management"><path d="M11.707 39.606a1.002 1.002 0 0 0-1.707.707V53a1 1 0 0 0 1 1h12.687a1 1 0 0 0 .707-1.707L11.707 39.606zM12 52v-9.272L21.272 52H12zM49.364 21.979l-1.949 1.948a9.905 9.905 0 0 0-.416-.174V21a1 1 0 0 0-1-1h-6a1 1 0 0 0-1 1v2.754c-.139.055-.277.112-.416.174l-1.949-1.948a.999.999 0 0 0-1.414 0l-4.242 4.242a.999.999 0 0 0 0 1.414l1.948 1.948c-.061.139-.119.277-.174.416H30a1 1 0 0 0-1 1v6a1 1 0 0 0 1 1h2.753c.055.139.113.277.174.416l-1.948 1.948a.999.999 0 0 0 0 1.414l4.242 4.242a.999.999 0 0 0 1.414 0l1.949-1.948c.138.062.277.119.416.174V47a1 1 0 0 0 1 1h6a1 1 0 0 0 1-1v-2.754c.139-.055.277-.112.416-.174l1.949 1.948a.999.999 0 0 0 1.414 0l4.242-4.242a.999.999 0 0 0 0-1.414l-1.948-1.948c.061-.139.119-.277.174-.416H56a1 1 0 0 0 1-1v-6a1 1 0 0 0-1-1h-2.753a12.245 12.245 0 0 0-.174-.416l1.948-1.948a.999.999 0 0 0 0-1.414l-4.242-4.242a1.001 1.001 0 0 0-1.415-.001zm1.613 7.863c.252.482.457.973.61 1.459a1 1 0 0 0 .954.699H55v4h-2.459a1 1 0 0 0-.954.699 8.99 8.99 0 0 1-.61 1.459.999.999 0 0 0 .179 1.17l1.743 1.743-2.828 2.828-1.744-1.743a1.002 1.002 0 0 0-1.17-.18 8.988 8.988 0 0 1-1.458.61c-.417.132-.7.518-.7.954V46h-4v-2.459a1 1 0 0 0-.7-.954 8.988 8.988 0 0 1-1.458-.61 1.002 1.002 0 0 0-1.17.18L35.927 43.9l-2.828-2.828 1.743-1.743a.999.999 0 0 0 .179-1.17 8.99 8.99 0 0 1-.61-1.459.995.995 0 0 0-.952-.7H31v-4h2.459a1 1 0 0 0 .954-.699 8.99 8.99 0 0 1 .61-1.459.999.999 0 0 0-.179-1.17l-1.743-1.743 2.828-2.828 1.744 1.743a.999.999 0 0 0 1.17.18 8.988 8.988 0 0 1 1.458-.61c.417-.132.7-.518.7-.954V22h4v2.459a1 1 0 0 0 .7.954c.483.152.974.357 1.458.61a.999.999 0 0 0 1.17-.18l1.744-1.743 2.828 2.828-1.743 1.743a.998.998 0 0 0-.181 1.171z"></path><path d="M43 28c-3.309 0-6 2.691-6 6s2.691 6 6 6 6-2.691 6-6-2.691-6-6-6zm0 10c-2.206 0-4-1.794-4-4s1.794-4 4-4 4 1.794 4 4-1.794 4-4 4z"></path><path d="M61.934 12.674c-.011-.032-.019-.064-.034-.095a.974.974 0 0 0-.191-.283l-.003-.004-9.998-9.998-.005-.004a1 1 0 0 0-.285-.192c-.028-.013-.057-.02-.086-.031a.975.975 0 0 0-.278-.056C51.035 2.01 51.019 2 51 2H17a1 1 0 0 0-1 1v4H3a1 1 0 0 0-1 1v8a1 1 0 0 0 1 1h13v15.586L3.707 20.293A1 1 0 0 0 2 21v40a1 1 0 0 0 1 1h58a1 1 0 0 0 1-1V13c0-.022-.011-.04-.012-.062a.992.992 0 0 0-.054-.264zM58.586 12H52V5.414L58.586 12zM36 9.723 39.984 12 36 14.277V9.723zM34 15H11V9h23v6zM4 9h5v6H4V9zm0 51V23.414L9.586 29l-2.293 2.293 1.414 1.414L11 30.414 13.586 33l-2.293 2.293 1.414 1.414L15 34.414l1.293 1.293L17.586 37l-2.293 2.293 1.414 1.414L19 38.414 21.586 41l-2.293 2.293 1.414 1.414L23 42.414 25.586 45l-2.293 2.293 1.414 1.414L27 46.414 29.586 49l-2.293 2.293 1.414 1.414L31 50.414 33.586 53l-2.293 2.293 1.414 1.414L35 54.414 40.586 60H4zm56 0H43.414L18 34.586V17h17c.174 0 .345-.046.496-.132l7-4a1 1 0 0 0 0-1.736l-7-4A1.003 1.003 0 0 0 35 7H18V4h32v9a1 1 0 0 0 1 1h9v46z"></path><path d="M56 56h2v2h-2zM52 56h2v2h-2zM48 56h2v2h-2z"></path></svg>