<svg xmlns="http://www.w3.org/2000/svg" viewBox="0 0 60 60" id="virtual-assistant"><path fill="#e1eef2" d="M59,9V55a4,4,0,0,1-4,4H5a4,4,0,0,1-4-4V9L2,8H58Z"></path><path fill="#4b69bc" d="M59 5V9H1V5A4 4 0 015 1H55A4 4 0 0159 5zM24 40.76A7.963 7.963 0 0019 39H13a8 8 0 00-8 8v4a3 3 0 003 3H24c.09 0 .91 0 1-.02z"></path><path fill="#d7af98" d="M19,37.74V40a3,3,0,0,1-6,0V37.74Z"></path><path fill="#604d49" d="M19.88,17.95A3.691,3.691,0,0,0,20,17a4,4,0,0,0-8,0,3.824,3.824,0,0,0,.11.9Z"></path><rect width="14" height="18" x="24" y="37" fill="#8f6151" rx="2"></rect><path fill="#44cae2" d="M55,16V28a2.006,2.006,0,0,1-2,2H46l-4.56,3.8A.883.883,0,0,1,40,33.12V30H35a2.006,2.006,0,0,1-2-2V16a2.006,2.006,0,0,1,2-2H53A2.006,2.006,0,0,1,55,16Z"></path><path fill="#6b514c" d="M7,29V26a9.014,9.014,0,0,1,8.941-9A9.294,9.294,0,0,1,25,26.325V29Z"></path><path fill="#e7c1a7" d="M22.867,27a2.1,2.1,0,0,1,2.119,1.76A2,2,0,0,1,23,31a9.932,9.932,0,0,1-.955,3.194C21.3,35.51,18.661,39,16,39s-5.3-3.49-6.045-4.806A9.932,9.932,0,0,1,9,31a2,2,0,0,1-1.971-2.347A2.066,2.066,0,0,1,9.082,27c4.347-.011,6.609-.913,7.764-1.725a1.611,1.611,0,0,1,2.091.161A5.356,5.356,0,0,0,22.867,27Z"></path><path fill="#fff" d="M34,36v2a1,1,0,0,1-1,1H29a1,1,0,0,1-1-1V36a1,1,0,0,1,1-1,2,2,0,0,1,4,0A1,1,0,0,1,34,36Z"></path><path fill="#373737" d="M55,0H5A5.006,5.006,0,0,0,0,5v7a1,1,0,0,0,2,0V10H58V55a3,3,0,0,1-3,3H5a3,3,0,0,1-3-3V16a1,1,0,0,0-2,0V55a5.006,5.006,0,0,0,5,5H55a5.006,5.006,0,0,0,5-5V5A5.006,5.006,0,0,0,55,0ZM2,8V5A3,3,0,0,1,5,2H55a3,3,0,0,1,3,3V8Z"></path><path fill="#373737" d="M4,47v4a4,4,0,0,0,4,4H23.78A2.985,2.985,0,0,0,26,56H36a3,3,0,0,0,3-3V39a3,3,0,0,0-3-3H35a2,2,0,0,0-1.1-1.788,3,3,0,0,0-5.79,0A2,2,0,0,0,27,36H26a3,3,0,0,0-3,2.953,9.039,9.039,0,0,0-2.864-.871,14.7,14.7,0,0,0,2.775-3.4,9.82,9.82,0,0,0,.956-2.815A2.961,2.961,0,0,0,25.983,29H26V26.325a10.544,10.544,0,0,0-3.118-7.418,10.312,10.312,0,0,0-1.908-1.486c.012-.139.026-.278.026-.421a5,5,0,0,0-10,0c0,.111.013.223.021.335A10,10,0,0,0,6,26v3h.013a2.971,2.971,0,0,0,2.115,2.871,9.815,9.815,0,0,0,.956,2.814,14.69,14.69,0,0,0,2.774,3.4A9.007,9.007,0,0,0,4,47ZM29,36a1,1,0,0,0,1-1,1,1,0,0,1,2,0,1,1,0,0,0,1,1v2H29Zm-4,3a1,1,0,0,1,1-1h1a2,2,0,0,0,2,2h4a2,2,0,0,0,2-2h1a1,1,0,0,1,1,1V53a1,1,0,0,1-1,1H26a1,1,0,0,1-1-1Zm-11,.525A4.842,4.842,0,0,0,16,40a4.842,4.842,0,0,0,2-.475V40a2,2,0,0,1-4,0ZM16,14a3,3,0,0,1,2.947,2.479A9.455,9.455,0,0,0,16,16h-.061a10.016,10.016,0,0,0-2.878.438A3,3,0,0,1,16,14Zm-5.651,6.345A7.913,7.913,0,0,1,15.948,18H16a7.753,7.753,0,0,1,5.477,2.326,8.531,8.531,0,0,1,2.521,5.884A3.346,3.346,0,0,0,22.884,26a4.389,4.389,0,0,1-3.227-1.257,2.6,2.6,0,0,0-3.385-.285c-.994.7-3.049,1.532-7.192,1.543A3.141,3.141,0,0,0,8,26.2V26A7.913,7.913,0,0,1,10.349,20.345ZM10.826,33.7a8.972,8.972,0,0,1-.833-2.815A1,1,0,0,0,9,30a1,1,0,0,1-.984-1.182A1.069,1.069,0,0,1,9.085,28c3.744-.01,6.549-.651,8.337-1.906a.68.68,0,0,1,.393-.129.554.554,0,0,1,.4.165A6.349,6.349,0,0,0,22.851,28a1.125,1.125,0,0,1,1.141.877A1,1,0,0,1,23,30a1,1,0,0,0-.994.888,8.731,8.731,0,0,1-.832,2.814C20.328,35.2,17.941,38,16,38S11.672,35.2,10.826,33.7Zm1.182,6.377a3.992,3.992,0,0,0,7.983.006A7,7,0,0,1,23,41.289V53H8a2,2,0,0,1-2-2V47A7,7,0,0,1,12.008,40.079Z"></path><path fill="#373737" d="M40.079 34.817a1.894 1.894 0 00.809.184 1.874 1.874 0 001.193-.433L46.362 31H53a3 3 0 003-3V16a3 3 0 00-3-3H35a3 3 0 00-3 3V28a3 3 0 003 3h4v2.12A1.861 1.861 0 0040.079 34.817zM35 29a1 1 0 01-1-1V16a1 1 0 011-1H53a1 1 0 011 1V28a1 1 0 01-1 1H46a1.006 1.006 0 00-.641.231L41 32.865V30a1 1 0 00-1-1zM6 4H5A1 1 0 005 6H6A1 1 0 006 4zM11 4H10a1 1 0 000 2h1a1 1 0 000-2zM16 4H15a1 1 0 000 2h1a1 1 0 000-2zM55 4H49a1 1 0 000 2h6a1 1 0 000-2z"></path><path fill="#373737" d="M38 20H50a1 1 0 000-2H38a1 1 0 000 2zM48 24a1 1 0 00-1-1H38a1 1 0 000 2h9A1 1 0 0048 24z"></path></svg>