<svg xmlns="http://www.w3.org/2000/svg" enable-background="new 0 0 66 66" viewBox="0 0 66 66" id="developmentteam"><line x1="7.8" x2="7.8" y1="31.7" y2="38.7" fill="none" stroke="#052c55" stroke-linecap="round" stroke-linejoin="round" stroke-miterlimit="10" stroke-width="2" class="colorStroke000000 svgStroke"></line><path fill="none" stroke="#052c55" stroke-linecap="round" stroke-linejoin="round" stroke-miterlimit="10" stroke-width="2" d="M3.5 28.5c0 .3-.1.6-.1.9V35c0 2.1 1.7 3.8 3.8 3.8h7.3M2.8 27.8l-.3-.3c-.7-.7-.7-1.9 0-2.6l2.1-2.1c.7-.7 1.9-.7 2.6 0L7.6 23c.7.7.7 1.9 0 2.6l-2.1 2.1C4.7 28.5 3.6 28.5 2.8 27.8zM62.9 28c.1.5.2 1 .2 1.5V35c0 2.1-1.7 3.8-3.8 3.8h-7.9" class="colorStroke000000 svgStroke"></path><path fill="none" stroke="#052c55" stroke-linecap="round" stroke-linejoin="round" stroke-miterlimit="10" stroke-width="2" d="M11.2 18.2v2.2c0 .9-.3 1.6-.9 2.2-.6.6-1.3.9-2.2.9H8M25.6 29.5c0-2.8-1.9-5.3-4.7-6l0 0c-1.7 0-3.1-1.4-3.1-3.1v-2.2M40 9.8c0 3.7-3 8.3-6.7 8.3s-6.7-4.6-6.7-8.3 3-6.7 6.7-6.7S40 6.1 40 9.8z" class="colorStroke000000 svgStroke"></path><path fill="none" stroke="#052c55" stroke-linecap="round" stroke-linejoin="round" stroke-miterlimit="10" stroke-width="2" d="M29.7 16.9V19c0 .9-.4 1.8-1 2.4s-1.4 1-2.4 1c-1.3.3-2.5 1.1-3.4 2.1M36.9 16.7V19c0 1.9 1.5 3.4 3.4 3.4 1.4.4 2.5 1.1 3.4 2.1M58.2 11.8c0 3.4-2.7 7.6-6.1 7.6-3.4 0-6.1-4.2-6.1-7.6s2.7-6.1 6.1-6.1C55.5 5.7 58.2 8.4 58.2 11.8zM20.6 11.8c0 3.4-2.7 7.6-6.1 7.6s-6.1-4.2-6.1-7.6 2.7-6.1 6.1-6.1S20.6 8.4 20.6 11.8z" class="colorStroke000000 svgStroke"></path><path fill="none" stroke="#052c55" stroke-linecap="round" stroke-linejoin="round" stroke-miterlimit="10" stroke-width="2" d="M48.8 18.2v2.2c0 1.7-1.4 3.1-3.1 3.1l0 0c-2.8.7-4.7 3.2-4.7 6M55.4 18.2v2.2c0 1.6 1.2 2.9 2.8 3.1" class="colorStroke000000 svgStroke"></path><line x1="58.8" x2="58.8" y1="31.7" y2="38.7" fill="none" stroke="#052c55" stroke-linecap="round" stroke-linejoin="round" stroke-miterlimit="10" stroke-width="2" class="colorStroke000000 svgStroke"></line><path fill="none" stroke="#052c55" stroke-linecap="round" stroke-linejoin="round" stroke-miterlimit="10" stroke-width="2" d="M63.2 27.8l.3-.3c.7-.7.7-1.9 0-2.6l-2.1-2.1c-.7-.7-1.9-.7-2.6 0L58.4 23c-.7.7-.7 1.9 0 2.6l2.1 2.1C61.3 28.5 62.4 28.5 63.2 27.8zM47.5 62.9h-29c-2.2 0-4-1.8-4-4V33.7c0-2.2 1.8-4 4-4h28.9c2.2 0 4 1.8 4 4v25.2C51.5 61.1 49.7 62.9 47.5 62.9z" class="colorStroke000000 svgStroke"></path><line x1="14.5" x2="51.5" y1="37.4" y2="37.4" fill="none" stroke="#052c55" stroke-linecap="round" stroke-linejoin="round" stroke-miterlimit="10" stroke-width="2" class="colorStroke000000 svgStroke"></line><polyline fill="none" stroke="#000" stroke-linecap="round" stroke-linejoin="round" stroke-miterlimit="10" stroke-width="2" points="27.4 44.1 21.1 50.5 27.4 56.7"></polyline><polyline fill="none" stroke="#000" stroke-linecap="round" stroke-linejoin="round" stroke-miterlimit="10" stroke-width="2" points="38.6 44.1 44.9 50.5 38.6 56.7"></polyline><line x1="35.2" x2="30.8" y1="42.1" y2="58.8" fill="none" stroke="#052c55" stroke-linecap="round" stroke-linejoin="round" stroke-miterlimit="10" stroke-width="2" class="colorStroke000000 svgStroke"></line><line x1="19.7" x2="35.2" y1="33.6" y2="33.6" fill="none" stroke="#052c55" stroke-linecap="round" stroke-linejoin="round" stroke-miterlimit="10" stroke-width="2" class="colorStroke000000 svgStroke"></line><line x1="38.9" x2="41" y1="33.6" y2="33.6" fill="none" stroke="#052c55" stroke-linecap="round" stroke-linejoin="round" stroke-miterlimit="10" stroke-width="2" class="colorStroke000000 svgStroke"></line><line x1="44.3" x2="46.3" y1="33.6" y2="33.6" fill="none" stroke="#052c55" stroke-linecap="round" stroke-linejoin="round" stroke-miterlimit="10" stroke-width="2" class="colorStroke000000 svgStroke"></line></svg>