<svg xmlns="http://www.w3.org/2000/svg" viewBox="0 0 512 512" id="branding"><path d="M461.276 352.677c-6.14-2.64-12.926-2.711-19.095-.158l-84.785 35.033c-1.38.57-2.885 1.034-4.333 1.547.544-2.026 1.048-4.08 1.048-6.252a21.948 21.948 0 0 0-21.189-21.993l-35.75-1.334c-12.237-.459-24.517-2.597-36.489-6.384-15.142-4.806-39.143-11.333-67.477-15.078-35.05-4.603-68.706 13.964-86.306 25.943v-2.516c0-3.242-2.633-5.882-5.875-5.882H35.641c-3.242 0-5.875 2.64-5.875 5.882v112.832c0 3.242 2.633 5.882 5.875 5.882h65.382c3.242 0 5.875-2.64 5.875-5.882v-3.668c11.888-2.551 43.636-9.178 56.689-10.118 20.479-1.535 64.414 1.047 123.742 7.116 25.952 2.697 51.603-2.754 74.155-15.623l101.757-55.204c10.774-5.839 15.609-18.879 11.247-30.342-2.381-6.255-7.072-11.147-13.212-13.801zM95.149 468.435H41.516V367.367h53.633v101.068zm362.497-81.945-101.872 55.261c-20.515 11.706-43.741 16.541-67.24 14.217-42.436-4.361-98.701-9.052-125.794-7.173-13.1.963-42.293 6.95-55.842 9.833v-80.237c12.812-9.713 48.378-33.546 84.764-28.685 27.487 3.644 50.771 9.956 65.468 14.633 12.983 4.103 26.311 6.427 39.61 6.915l35.736 1.334c5.538.215 9.87 4.72 9.87 10.257 0 5.225-3.439 10.105-7.702 11.118-42.359 8.022-96.194.916-96.838.832-3.221-.33-6.176 1.808-6.621 5.021a5.886 5.886 0 0 0 5.028 6.628c2.701.356 55.926 7.412 99.907-.781.167-.019.334-.019.501-.051.088-.017.157-.082.244-.1 8.894-1.696 17.43-3.969 25.034-7.117l84.757-35.004c3.228-1.349 6.757-1.305 9.956.072s5.652 3.931 6.886 7.202c2.282 5.984-.243 12.784-5.852 15.825z"></path><path d="M74.82 407.507c3.242 0 5.875-2.64 5.875-5.882v-16.283c0-3.242-2.633-5.882-5.875-5.882s-5.875 2.64-5.875 5.882v16.283c.001 3.243 2.633 5.882 5.875 5.882zm404.862-202.653L301.144 81.987a5.884 5.884 0 0 0-5.624-.567l-45.512 19.269c-.129-.844-.06-1.684-.216-2.527-3.931-21.29-15.917-39.775-33.756-52.055-17.832-12.273-39.394-16.864-60.677-12.94-21.29 3.931-39.775 15.924-52.048 33.764-12.273 17.832-16.871 39.38-12.94 60.67s15.917 39.775 33.756 52.055c13.736 9.454 29.653 14.325 45.814 14.325 5.739 0 11.491-.846 17.21-2.088l-1.745 49.524a5.875 5.875 0 0 0 2.546 5.05L366.489 369.32a5.834 5.834 0 0 0 8.163-1.507l106.534-154.787a5.833 5.833 0 0 0 .947-4.397 5.872 5.872 0 0 0-2.451-3.775zm-290.351-74.793-1.754 49.769c-19.545 5.098-40.048 1.664-56.793-9.858-15.243-10.494-25.493-26.304-28.857-44.502-3.357-18.205.574-36.633 11.068-51.883s26.296-25.5 44.502-28.864c18.191-3.371 36.618.567 51.883 11.068 15.243 10.494 25.493 26.304 28.857 44.502.319 1.732.255 3.46.443 5.193l-45.762 19.374a5.88 5.88 0 0 0-3.587 5.201zm178.982 226.245L197.271 238.611l3.673-104.389 37.984-16.079c-.581 7.732-2.224 15.323-5.353 22.454-5.382-.564-10.899 1.544-14.183 6.317-4.781 6.945-3.025 16.451 3.921 21.232 6.946 4.781 16.452 3.025 21.233-3.921 3.88-5.638 3.266-12.833-.746-17.949 4.776-10.484 7.265-21.754 7.259-33.269L297.142 93.5l171.034 117.703-99.863 145.103z"></path><path d="M286.425 139.185c-11.577 3.178-20.579 11.843-24.066 23.176-2.353 7.654-1.822 14.59-.732 19.568-4.985 1.047-11.534 3.414-17.545 8.701-8.909 7.84-13.112 19.604-11.247 31.468 1.851 11.8 9.404 21.641 21.189 26.748 3.106 1.282 6.341 2.207 9.64 2.89.363 15.003 3.658 23.223 10.581 24.963a9.885 9.885 0 0 0 2.31.273c9.2 0 17.772-13.411 24.646-29.02 9.456-2.888 21.606-7.109 35.938-13.322a5.886 5.886 0 0 0 3.543-5.473c-.301-21.878-2.396-38.505-4.103-48.605-1.699-10.074-5.58-19.1-11.631-26.885 1.574-19.053.19-37.11-10.189-39.696-8.155-2.035-16.317 6.182-25.116 24.75-1.074.19-2.151.173-3.218.464zm-9.181 125.586c-.704-1.54-1.633-5.232-1.907-11.828 3.602-.013 7.272-.47 10.956-1.147-3.709 7.066-6.93 11.495-9.049 12.975zm39.624-63.869c.74-2.962 3.429-14.179 5.618-27.587 1.062 2.925 1.957 5.958 2.502 9.188 1.535 9.088 3.4 23.7 3.859 42.888a337.746 337.746 0 0 1-22.011 8.38c5.511-15.236 9.185-29.463 10.032-32.869zm-5.05-75.001c1.257 2.435 2.017 8.51 1.864 17.359-3.405-2.114-7.039-3.699-10.921-4.509 4.227-7.945 7.43-11.634 9.057-12.85zm-.359 30.177c.481.454.861 1.007 1.32 1.483-1.143 11.167-3.384 24.755-7.302 40.501-4.059 16.276-8.615 29.637-12.972 40.194-1.473.415-3.075.884-4.344 1.216-10.401 2.74-20.694 2.216-30.435-1.815-7.094-3.084-12.058-9.576-13.277-17.38-1.241-7.876 1.528-15.659 7.395-20.823 7.159-6.291 15.573-6.585 17.058-6.585.143 0 .222.007.23.007 2.059.065 4.139-.904 5.272-2.676a5.859 5.859 0 0 0 .287-5.911c-.043-.086-4.182-8.443-1.09-18.471 2.295-7.474 8.249-13.191 15.939-15.293 7.559-2.072 15.578-.236 21.919 5.553zm10.1 126.131a5.834 5.834 0 0 0 8.163-1.507l51.158-74.255a5.864 5.864 0 0 0-1.506-8.177c-2.683-1.843-6.341-1.162-8.163 1.506l-51.158 74.27a5.847 5.847 0 0 0 1.506 8.163zm47.629-36.203c-2.683-1.829-6.341-1.162-8.163 1.506l-25.579 37.135a5.848 5.848 0 0 0 1.506 8.163 5.834 5.834 0 0 0 8.163-1.507l25.579-37.121a5.862 5.862 0 0 0-1.506-8.176zm-11.778 56.33c-2.654-1.822-6.327-1.191-8.163 1.506a5.848 5.848 0 0 0 1.506 8.163l18.42 12.696a5.834 5.834 0 0 0 8.163-1.507 5.848 5.848 0 0 0-1.506-8.163l-18.42-12.695zm12.624-18.32c-2.683-1.865-6.341-1.191-8.163 1.506a5.848 5.848 0 0 0 1.506 8.163l18.42 12.682a5.834 5.834 0 0 0 8.163-1.507 5.848 5.848 0 0 0-1.506-8.163l-18.42-12.681zm4.462-16.835a5.855 5.855 0 0 0 1.506 8.17l18.42 12.696a5.834 5.834 0 0 0 8.163-1.507 5.848 5.848 0 0 0-1.506-8.163l-18.42-12.696c-2.654-1.814-6.312-1.168-8.163 1.5zm32.551 2.532a5.846 5.846 0 0 0 8.163-1.499 5.864 5.864 0 0 0-1.506-8.177l-18.42-12.689c-2.683-1.836-6.341-1.169-8.163 1.506a5.864 5.864 0 0 0 1.506 8.177l18.42 12.682zm12.625-18.32a5.89 5.89 0 0 0 3.328 1.033 5.857 5.857 0 0 0 4.835-2.539 5.864 5.864 0 0 0-1.506-8.177l-18.42-12.689c-2.683-1.829-6.327-1.162-8.163 1.506a5.864 5.864 0 0 0 1.506 8.177l18.42 12.689zm12.624-18.327a5.89 5.89 0 0 0 3.328 1.033 5.857 5.857 0 0 0 4.835-2.539 5.864 5.864 0 0 0-1.506-8.177l-18.42-12.689c-2.683-1.843-6.341-1.169-8.163 1.506a5.864 5.864 0 0 0 1.506 8.177l18.42 12.689zm-326.108 51.337-2.597 25.55a5.863 5.863 0 0 0 2.726 5.566 5.833 5.833 0 0 0 3.12.904 5.957 5.957 0 0 0 3.084-.875l21.856-13.485 23.499 10.358c2.044.889 4.433.574 6.14-.875a5.871 5.871 0 0 0 1.937-5.896l-6.068-24.948 17.122-19.138a5.88 5.88 0 0 0 1.069-6.111 5.889 5.889 0 0 0-5.007-3.665l-25.608-1.937-12.919-22.193c-1.126-1.937-3.228-3.113-5.48-2.905a5.874 5.874 0 0 0-5.035 3.63l-9.755 23.743-25.099 5.43a5.88 5.88 0 0 0-4.462 4.318 5.876 5.876 0 0 0 1.901 5.903l19.576 16.626zm13.586-21.44a5.878 5.878 0 0 0 4.196-3.515l6.406-15.594 8.486 14.576a5.893 5.893 0 0 0 4.634 2.905l16.814 1.27-11.247 12.574a5.885 5.885 0 0 0-1.327 5.308l3.988 16.369-15.436-6.8a6.007 6.007 0 0 0-5.452.373l-14.346 8.866 1.7-16.785a5.855 5.855 0 0 0-2.044-5.064l-12.854-10.917 16.482-3.566zm331.33-114.209 8.249 5.279c.99.631 2.08.925 3.17.925a5.86 5.86 0 0 0 4.949-2.704 5.885 5.885 0 0 0-1.779-8.12l-8.249-5.279a5.85 5.85 0 0 0-8.12 1.779 5.887 5.887 0 0 0 1.78 8.12zM316.48 62.706l106.764 68.244c.99.631 2.08.925 3.17.925a5.85 5.85 0 0 0 4.949-2.711 5.876 5.876 0 0 0-1.779-8.113L322.821 52.807a5.845 5.845 0 0 0-8.12 1.786 5.877 5.877 0 0 0 1.779 8.113z"></path></svg>