<svg xmlns="http://www.w3.org/2000/svg" viewBox="0 0 66 66" id="skills-tools"><path fill="none" stroke="#165083" stroke-linecap="round" stroke-linejoin="round" stroke-miterlimit="10" stroke-width="1.5" d="M18.8 43c-1.9-2-8.1-7.9-8.1-7.9S4.8 41 2.9 42.8"></path><path fill="#dee7ef" stroke="#165083" stroke-linecap="round" stroke-linejoin="round" stroke-miterlimit="10" stroke-width="1.5" d="M15.7 34.5c0 2.7-2.2 4.9-4.9 4.9s-4.9-2.2-4.9-4.9 2.2-4.9 4.9-4.9 4.9 2.2 4.9 4.9z"></path><path fill="none" stroke="#165083" stroke-linecap="round" stroke-linejoin="round" stroke-miterlimit="10" stroke-width="1.5" d="M41.1 43c-1.9-2-8.1-7.9-8.1-7.9s-6 5.9-7.9 7.7"></path><path fill="#dee7ef" stroke="#165083" stroke-linecap="round" stroke-linejoin="round" stroke-miterlimit="10" stroke-width="1.5" d="M37.9 34.5c0 2.7-2.2 4.9-4.9 4.9s-4.9-2.2-4.9-4.9 2.2-4.9 4.9-4.9 4.9 2.2 4.9 4.9z"></path><path fill="none" stroke="#165083" stroke-linecap="round" stroke-linejoin="round" stroke-miterlimit="10" stroke-width="1.5" d="M63.3 43c-1.9-2-8.1-7.9-8.1-7.9s-5.9 5.8-7.9 7.7"></path><path fill="#dee7ef" stroke="#165083" stroke-linecap="round" stroke-linejoin="round" stroke-miterlimit="10" stroke-width="1.5" d="M60.1 34.5c0 2.7-2.2 4.9-4.9 4.9s-4.9-2.2-4.9-4.9 2.2-4.9 4.9-4.9 4.9 2.2 4.9 4.9z"></path><path fill="none" stroke="#165083" stroke-linecap="round" stroke-linejoin="round" stroke-miterlimit="10" stroke-width="1.5" d="M41.1 25.6c-1.9-2-8.1-7.9-8.1-7.9s-5.9 5.8-7.9 7.7"></path><circle cx="33" cy="17.1" r="4.9" fill="#dee7ef" stroke="#165083" stroke-linecap="round" stroke-linejoin="round" stroke-miterlimit="10" stroke-width="1.5"></circle><path fill="#75bcf6" stroke="#165083" stroke-linecap="round" stroke-linejoin="round" stroke-miterlimit="10" stroke-width="1.5" d="M18.8 58.5c-1.9-2-8.1-7.9-8.1-7.9s-5.9 5.8-7.9 7.7c-2.3 2.2-.8 6 2.4 6h11c3.1 0 4.8-3.7 2.6-5.8z"></path><path fill="#dee7ef" stroke="#165083" stroke-linecap="round" stroke-linejoin="round" stroke-miterlimit="10" stroke-width="1.5" d="M15.7 50c0 2.7-2.2 4.9-4.9 4.9S5.9 52.7 5.9 50s2.2-4.9 4.9-4.9 4.9 2.2 4.9 4.9z"></path><path fill="#a2e6a2" stroke="#165083" stroke-linecap="round" stroke-linejoin="round" stroke-miterlimit="10" stroke-width="1.5" d="M41.1 58.5c-1.9-2-8.1-7.9-8.1-7.9s-5.9 5.8-7.9 7.7c-2.3 2.2-.8 6 2.4 6h11c3 0 4.7-3.7 2.6-5.8z"></path><path fill="#dee7ef" stroke="#165083" stroke-linecap="round" stroke-linejoin="round" stroke-miterlimit="10" stroke-width="1.5" d="M37.9 50c0 2.7-2.2 4.9-4.9 4.9s-4.9-2.2-4.9-4.9 2.2-4.9 4.9-4.9 4.9 2.2 4.9 4.9z"></path><path fill="#ff9c9c" stroke="#165083" stroke-linecap="round" stroke-linejoin="round" stroke-miterlimit="10" stroke-width="1.5" d="M63.3 58.5c-1.9-2-8.1-7.9-8.1-7.9s-5.9 5.8-7.9 7.7c-2.3 2.2-.8 6 2.4 6h11c3 0 4.7-3.7 2.6-5.8z"></path><path fill="#dee7ef" stroke="#165083" stroke-linecap="round" stroke-linejoin="round" stroke-miterlimit="10" stroke-width="1.5" d="M60.1 50c0 2.7-2.2 4.9-4.9 4.9s-4.9-2.2-4.9-4.9 2.2-4.9 4.9-4.9 4.9 2.2 4.9 4.9z"></path><path fill="none" stroke="#165083" stroke-linecap="round" stroke-linejoin="round" stroke-miterlimit="10" stroke-width="1.5" d="M49.9 22V7.3M52.8 11.4l-2.9-4.3-2.9 4.3M60.6 22V1.9M63.5 6l-2.9-4.2-3 4.2M16.8 22V7.3M13.9 11.4l2.9-4.3 3 4.3M6.2 22V1.9M3.2 6l3-4.2L9.1 6"></path></svg>