<svg xmlns="http://www.w3.org/2000/svg" viewBox="0 0 53 53" id="punctual-student"><path fill="#312e4b" d="m44 9.387 1.532-2.052 1.377 1.027-1.532 2.053z"></path><path fill="#fcb73e" d="M48.13 9.612c.103.077.255.052.319-.06a2.835 2.835 0 0 0-.762-3.674 2.835 2.835 0 0 0-3.74.316c-.089.092-.07.245.033.322l4.15 3.096z"></path><path fill="#fd982e" d="m47.409 9.075.72.538c.104.075.255.051.32-.06a2.835 2.835 0 0 0-1.144-3.915 2.84 2.84 0 0 1 .422 3.373c-.063.116-.215.14-.318.064z"></path><path fill="#312e4b" d="m34.56 8.363 1.376-1.028 1.532 2.053-1.377 1.027z"></path><path fill="#fcb73e" d="M33.337 9.612c-.103.077-.255.052-.318-.06a2.835 2.835 0 0 1 .762-3.674 2.835 2.835 0 0 1 3.74.316c.089.092.07.245-.034.322l-4.15 3.096z"></path><path fill="#fd982e" d="m34.06 9.075-.722.538c-.103.075-.255.051-.318-.06a2.835 2.835 0 0 1 1.143-3.915 2.84 2.84 0 0 0-.422 3.373c.063.116.215.14.318.064z"></path><path fill="#deddff" d="M35.194 28.483c-.83.76-2.14.72-2.92-.1-.098-.1-3.357-3.481-4.476-4.642v15.99h-17.34v-15.99L8.471 25.74c-.78.82-2.08.86-2.92.1-.883-.843-.89-2.21-.04-3.04l3.897-3.739c.68-.66 1.58-1.03 2.53-1.03h7.75v.01h6.64c.95 0 1.85.37 2.53 1.03 9.743 9.754 2.871 2.87 6.386 6.372a2.094 2.094 0 0 1-.05 3.04z"></path><path fill="#5b5e8b" d="M10.469 39.734v10.445h7.584v-3.714a1.086 1.086 0 0 1 2.174 0v3.714h7.575V39.734H10.469z"></path><path fill="#312e4b" d="M11.736 50.179V39.734h-1.267v10.445"></path><path fill="#c6c6f7" d="M27.8 38.354v1.38H10.46v-1.38h.01v-14.64h1.27c0 8.086 6.555 14.64 14.64 14.64h1.42z"></path><path fill="#deddff" d="M41.028 25.092c-3.958.314-9.505-1.65-9.34 1.944v.001a2.093 2.093 0 0 0 2.127 1.998l7.44.05-.227-3.993z"></path><circle cx="41.123" cy="27.107" r="2.529" fill="#ffaf93"></circle><path fill="#ee8778" d="M41.976 24.737a2.42 2.42 0 0 0-.602-.143 2.529 2.529 0 1 0-.495 5.034c.166.017.322.022.48-.004a2.52 2.52 0 0 1-1.661-2.627 2.52 2.52 0 0 1 2.278-2.26z"></path><path fill="#deddff" d="m8.888 33.114.176-8.826c0-1.2-1.006-2.154-2.204-2.091H6.86a2.093 2.093 0 0 0-1.982 2.142l.02 9.03 3.99-.255z"></path><circle cx="6.708" cy="33.256" r="2.529" fill="#ffaf93"></circle><path fill="#ee8778" d="M5.397 31.105a2.42 2.42 0 0 0-.488.379 2.529 2.529 0 1 0 3.61 3.543c.116-.118.218-.237.297-.377a2.52 2.52 0 0 1-3.088-.353 2.52 2.52 0 0 1-.33-3.192z"></path><path fill="#e83d62" d="m19.579 24.004.454 3.826-1.092 3.063-1.107-3.082.462-3.807-.796-1.72 1.434-1.073 1.501 1.118z"></path><path fill="#c6c6f7" d="M23.517 18.013 22 21.97c-.198.52-.952.724-1.487.405l-.271-.163-1.305-.79-.007-.007-1.312.797-.271.163c-.535.32-1.29.114-1.488-.405l-.19-.507-1.326-3.451v-.006h.007v.006h9.167z"></path><path fill="#ffaf93" d="M21.471 15.919v2.044a2.556 2.556 0 0 1-2.55 2.554 2.535 2.535 0 0 1-1.806-.748 2.522 2.522 0 0 1-.748-1.806v-2.044h5.104z"></path><path fill="#ee8778" d="m17.91 19.754.016.015c.374.374.854.632 1.401.711a2.076 2.076 0 0 1-.405.037 2.535 2.535 0 0 1-1.807-.748 2.522 2.522 0 0 1-.748-1.806v-1.238c.732.479 1.612.758 2.555.758a4.8 4.8 0 0 0 .68-.047 4.655 4.655 0 0 1-2.903-1.623h4.772v1.723a5.407 5.407 0 0 1-2.55.632c-.089 0-.173 0-.257-.005-.848-.042-1.349.99-.754 1.59z"></path><path fill="#ffaf93" d="M23.596 7.294v5.514a4.677 4.677 0 1 1-9.353 0V7.294h9.353z"></path><path fill="#ffaf93" d="M23.594 7.292v5.514c0 .147-.005.295-.021.437a3.924 3.924 0 0 1-.1.606 4.66 4.66 0 0 1-4.551 3.634c-1.29 0-2.46-.521-3.308-1.37a4.662 4.662 0 0 1-1.37-3.307V7.292h9.35z"></path><path fill="#8b4f4f" d="M24.59 4.271v7.54h-.996V8a.707.707 0 0 0-.708-.707h-6.503a2.139 2.139 0 0 0-2.14 2.139v2.377h-1.025V4.271h11.373z"></path><path fill="#ffaf93" d="M25.24 11.605c0 .917-.734 1.653-1.651 1.653V9.963c.917 0 1.652.735 1.652 1.642z"></path><path fill="#ee8778" d="M24.03 10.029a1.653 1.653 0 0 0-.441-.066v3.295c.154 0 .3-.028.44-.067V10.03zM19.6 17.436a4.8 4.8 0 0 1-.68.047 4.653 4.653 0 0 1-3.307-1.37 4.662 4.662 0 0 1-1.37-3.307v.453a1.65 1.65 0 0 1-1.027-2.945 1.66 1.66 0 0 1 1.027-.353v-.604c0-.864.569-1.596 1.36-1.844v5.293a4.663 4.663 0 0 0 1.369 3.308 4.655 4.655 0 0 0 2.628 1.322zm-.312-5.258v.668a.41.41 0 1 1-.82 0v-.668a.41.41 0 1 1 .82 0z"></path><path fill="#ee8778" d="M17.455 14.62a1.496 1.496 0 0 0 2.923 0h-2.923z"></path><path fill="#312e4b" d="M17.595 10.535a.965.965 0 0 0-1.885 0h1.885zm4.533 0a.965.965 0 0 0-1.885 0h1.885z"></path><path fill="#ab604b" d="M25.673 5.332v.007a2.513 2.513 0 0 1-2.518 2.51h-9.937V4.237c0-.778.637-1.415 1.415-1.415h8.522a2.513 2.513 0 0 1 2.518 2.51z"></path><path fill="#8b4f4f" d="M15.658 2.821h-1.025c-.778 0-1.415.637-1.415 1.415V7.85h2.44V2.82z"></path><path fill="#312e4b" d="M39.754 6.385h1.58v1.933h-1.58z"></path><path fill="#e83d62" d="M39.255 6.38h2.334a.823.823 0 1 0 0-1.647h-2.334a.823.823 0 1 0 0 1.647z"></path><path fill="#ce2955" d="M40.258 6.382h-1.005a.825.825 0 0 1 0-1.648h1.005a.824.824 0 0 0 0 1.648z"></path><path fill="#5b5e8b" d="M46.654 23.019a.915.915 0 0 1-.464.8.92.92 0 0 1-1.195-.234l-.655-.855-.047-.062-1.425-1.855 2.381-1.374.855 2.065.043.11.437 1.054a.94.94 0 0 1 .07.351zm-8.08-2.213-1.436 1.87-.047.062-.648.84a.937.937 0 0 1-.738.362.924.924 0 0 1-.847-1.28l.425-1.035.043-.105.863-2.088 2.385 1.374z"></path><path fill="#312e4b" d="m36.189 19.432 2.385 1.374-1.436 1.87a8.5 8.5 0 0 1-1.812-1.156l.863-2.088zm9.915 2.072a8.288 8.288 0 0 1-1.811 1.164l-1.425-1.855 2.381-1.374.855 2.065z"></path><path fill="#e83d62" d="M32.892 15.068a7.815 7.815 0 0 0 7.814 7.818 7.815 7.815 0 1 0 0-15.633 7.812 7.812 0 0 0-7.814 7.815z"></path><path fill="#ce2955" d="M41.784 22.81c-.35.05-.71.08-1.08.08-4.32 0-7.81-3.5-7.81-7.82s3.49-7.82 7.81-7.82c.37 0 .73.03 1.08.08-3.81.52-6.73 3.79-6.73 7.74s2.92 7.22 6.73 7.74z"></path><path fill="#deddff" d="M34.574 15.068a6.133 6.133 0 1 0 12.268 0 6.133 6.133 0 0 0-6.136-6.132 6.13 6.13 0 0 0-6.132 6.132z"></path><path fill="#5b5e8b" d="M40.708 10.44a.286.286 0 0 1-.286-.286v-.249a.286.286 0 0 1 .572 0v.25a.286.286 0 0 1-.286.285zm2.32.622a.286.286 0 0 1-.106-.391l.125-.216a.286.286 0 1 1 .496.287l-.125.215a.286.286 0 0 1-.39.105zm1.697 1.698a.286.286 0 0 1 .105-.391l.215-.125a.287.287 0 0 1 .287.496l-.216.125a.286.286 0 0 1-.39-.105zm1.157 2.605h-.25a.286.286 0 0 1 0-.572h.25a.286.286 0 0 1 0 .572zm-.837 2.55-.215-.125a.286.286 0 1 1 .286-.496l.216.124a.286.286 0 1 1-.287.496zm-1.998 1.788-.125-.216a.286.286 0 1 1 .496-.286l.125.216a.286.286 0 1 1-.496.286zm-2.328.466a.286.286 0 0 1-.286-.286v-.27a.286.286 0 0 1 .573 0v.27a.286.286 0 0 1-.287.286zm-2.74-.361a.286.286 0 0 1-.106-.391l.124-.216a.286.286 0 0 1 .496.286l-.124.216a.286.286 0 0 1-.39.105zm-2-1.999a.286.286 0 0 1 .105-.39l.215-.125a.286.286 0 0 1 .287.496l-.215.124a.286.286 0 0 1-.392-.105zm-.196-2.444h-.249a.286.286 0 0 1 0-.572h.249a.286.286 0 0 1 0 .572zm.516-2.5-.215-.125a.286.286 0 1 1 .287-.496l.215.125a.286.286 0 1 1-.287.496zm1.698-1.908-.124-.216a.286.286 0 0 1 .496-.285l.124.215a.286.286 0 0 1-.496.286zm4.886 5.907a.372.372 0 0 1-.197-.057l-2.197-1.367a.375.375 0 0 1-.177-.322l.032-3.544c.002-.208.139-.345.379-.372a.375.375 0 0 1 .371.378l-.03 3.334 2.018 1.256a.375.375 0 0 1-.199.694z"></path><path fill="#e83d62" d="M39.66 15.076a1.047 1.047 0 1 0 2.095.008 1.047 1.047 0 0 0-2.095-.008z"></path></svg>