<svg xmlns="http://www.w3.org/2000/svg" viewBox="0 0 512 512" id="manager"><path d="M460,104H376a8,8,0,0,0-8-8V58a26.03,26.03,0,0,0-26-26H170a26.03,26.03,0,0,0-26,26V96a8,8,0,0,0-8,8H52a36.04,36.04,0,0,0-36,36V466a22.025,22.025,0,0,0,22,22H474a22.025,22.025,0,0,0,22-22V140A36.04,36.04,0,0,0,460,104ZM336,48h6a10.011,10.011,0,0,1,10,10V96H336Zm-8,64h32v24H328ZM192,48H320V64H192Zm0,32H320V96a8,8,0,0,0-8,8H200a8,8,0,0,0-8-8Zm120,40v16H200V120ZM160,58a10.011,10.011,0,0,1,10-10h6V96H160Zm-8,54h32v24H152ZM32,140a20.023,20.023,0,0,1,20-20h84v16H52a35.791,35.791,0,0,0-20,6.083ZM480,466a6.006,6.006,0,0,1-6,6H38a6.006,6.006,0,0,1-6-6V204a20.023,20.023,0,0,1,20-20H460a20.023,20.023,0,0,1,20,20Zm0-291.917A35.791,35.791,0,0,0,460,168H52a35.791,35.791,0,0,0-20,6.083V172a20.023,20.023,0,0,1,20-20H460a20.023,20.023,0,0,1,20,20Zm0-32A35.791,35.791,0,0,0,460,136H376V120h84a20.023,20.023,0,0,1,20,20Z"></path><path d="M160,272H56a8,8,0,0,0-8,8v96a8,8,0,0,0,8,8H160a8,8,0,0,0,8-8V280A8,8,0,0,0,160,272Zm-8,96H64V288h88Z"></path><path d="M84.059 358.961a8 8 0 0 0 8.057-.1l40-24a8 8 0 0 0 0-13.72l-40-24A8 8 0 0 0 80 304v48A8 8 0 0 0 84.059 358.961zM96 318.129L112.451 328 96 337.871zM256 272a56 56 0 1 0 56 56A56.064 56.064 0 0 0 256 272zm-17.238 19.911l-3.317 7.732A71.808 71.808 0 0 0 230.117 320H216.805A40.142 40.142 0 0 1 238.762 291.911zM216.805 336h13.313a71.85 71.85 0 0 0 5.33 20.364l3.314 7.725A40.142 40.142 0 0 1 216.805 336zm33.347-30.056L256 292.31l5.845 13.628A55.824 55.824 0 0 1 265.768 320H246.232A55.751 55.751 0 0 1 250.152 305.944zm11.7 44.112L256 363.69l-5.845-13.628A55.824 55.824 0 0 1 246.232 336h19.536A55.751 55.751 0 0 1 261.848 350.056zm11.391 14.033l3.316-7.732A71.808 71.808 0 0 0 281.883 336H295.2A40.141 40.141 0 0 1 273.239 364.089zM281.882 320a71.85 71.85 0 0 0-5.33-20.364l-3.314-7.725A40.139 40.139 0 0 1 295.2 320z"></path><rect width="16" height="16" x="248" y="416"></rect><rect width="16" height="16" x="296" y="416"></rect><rect width="16" height="16" x="200" y="416"></rect><path d="M456,272H352a8,8,0,0,0-8,8v96a8,8,0,0,0,8,8H456a8,8,0,0,0,8-8V280A8,8,0,0,0,456,272Zm-8,16v72l-51.2-38.4a8,8,0,0,0-10.946,1.278L360,353.9V288Zm-16,80H369.081l24.2-29.04Z"></path><circle cx="424" cy="312" r="12"></circle></svg>