<svg xmlns="http://www.w3.org/2000/svg" viewBox="0 0 66 66" id="online-technical-support"><path d="M32.2 40.7c.1.3.4.6.8.5l1.2-.1c.2.4.5.7.9 1.1l-.4 1.2c-.1.3 0 .7.3.9l2.3 1.3c.3.2.7.1.9-.2l.8-.9c.5.1.9.2 1.4.2l.5 1.1c.1.3.4.4.7.4h.2l2.5-.7c.4-.1.6-.4.5-.8l-.1-1.2c.4-.2.8-.5 1.1-.8l1.2.3c.3.1.7 0 .9-.3l1.3-2.3c.2-.3.1-.7-.2-.9l-1-.8c.1-.5.2-.9.2-1.4l1.1-.5c.3-.2.5-.5.4-.9l-.7-2.5c-.1-.4-.4-.6-.8-.5L47 33c-.2-.4-.5-.8-.9-1.1l.4-1.2c.1-.3 0-.7-.3-.9L44 28.6c-.3-.2-.7-.1-.9.2l-.8.9c-.5-.1-.9-.2-1.4-.2l-.5-1.1c-.2-.3-.5-.5-.9-.4l-2.5.7c-.4.1-.6.4-.5.8l.1 1.2c-.4.3-.8.5-1.1.9l-1.2-.4c-.3-.1-.7 0-.9.3l-1.3 2.2c-.2.3-.1.7.2.9l.9.8c-.1.5-.2.9-.2 1.4l-1.1.5c-.3.2-.5.5-.4.9l.7 2.5zm1.9-2.7c.3-.1.4-.4.4-.7 0-.6.1-1.2.2-1.9.1-.3 0-.6-.2-.8l-.8-.7.7-1.2 1 .4c.3.1.6 0 .8-.2.4-.5.9-.8 1.5-1.2.3-.1.4-.4.4-.7l-.1-1 1.3-.4.5 1c.1.3.4.5.7.4.6 0 1.3.1 1.9.2.3.1.6 0 .8-.2l.7-.8 1.2.7-.4 1c-.1.3 0 .6.2.8.5.4.9 1 1.2 1.5.1.3.4.4.7.4l1.1-.1.3 1.3-1 .5c-.3.1-.4.4-.4.7 0 .6 0 1.2-.2 1.9-.1.3 0 .6.2.8l.8.7-.7 1.2-1-.4c-.3-.1-.6 0-.8.2-.4.5-.9.9-1.5 1.2-.3.1-.4.4-.4.7l.1 1.1-1.3.1-.5-1c-.1-.3-.4-.4-.7-.4-.6 0-1.3 0-1.9-.2-.3-.1-.6 0-.8.2l-.6.9-1.2-.7.4-1c.1-.3 0-.6-.2-.8-.5-.5-.9-1-1.2-1.5-.1-.3-.4-.4-.7-.4l-1.1.1-.4-1.3 1-.4z"></path><path d="M37.6 39.1c.7 1 1.8 1.6 3 1.6.3 0 .6 0 1-.1.1 0 .1 0 .2-.1.2-.1.3-.1.5-.2.1 0 .1-.1.2-.1.2-.1.3-.2.4-.3.1 0 .1-.1.1-.1.1-.1.3-.2.4-.4l.1-.1c.1-.1.2-.3.3-.4.3-.6.5-1.3.5-2 0-.2-.1-.5-.1-.7-.5-1.9-2.5-3.1-4.5-2.5-1.9.5-3.1 2.5-2.5 4.5 0 .2.2.6.4.9zm5.1-2.2c.1 1-.6 1.9-1.6 2.2-1.1.3-2.3-.4-2.6-1.5-.4-1.3.7-2.7 2.1-2.7 1.1 0 2.1.9 2.1 2zM16.9 31.8c3.3 0 6.1-2.7 6.1-6.1 0-3.3-2.7-6.1-6.1-6.1-3.3 0-6.1 2.7-6.1 6.1 0 3.4 2.7 6.1 6.1 6.1zm0-10.6c2.5 0 4.6 2 4.6 4.6 0 2.5-2 4.6-4.6 4.6-2.5 0-4.6-2-4.6-4.6 0-2.6 2-4.6 4.6-4.6zM5.2 46.9h23.4c.4 0 .8-.3.8-.8v-4.8c0-5.1-4.2-9.3-9.4-9.3-.3 0-.5.2-.7.4L17 37l-2.3-4.6c-.1-.3-.4-.4-.7-.4-5.2 0-9.4 4.2-9.4 9.3v4.8c-.2.5.2.8.6.8zm.7-5.5c0-4.2 3.3-7.6 7.5-7.8l2.8 5.5c.3.5 1.1.5 1.3 0l2.8-5.5c4.1.2 7.5 3.6 7.5 7.8v4h-2.6l-.5-4.1c-.1-.4-.4-.7-.8-.6-.4.1-.7.4-.6.8l.5 3.9H10.1l.5-3.9c.1-.4-.2-.8-.6-.8-.4-.1-.8.2-.8.6l-.5 4.1H5.9v-4z"></path><path d="m64.4 12.5-2.2-.4c-.2-.9-.6-1.7-1-2.5l1.3-1.8c.2-.3.2-.7-.1-1l-2.9-2.9c-.3-.3-.7-.3-1-.1l-1.8 1.3c-.8-.4-1.6-.8-2.5-1l-.4-2.2c-.1-.4-.4-.6-.7-.6H49c-.4 0-.7.3-.7.6l-.4 2.2c-.9.2-1.7.6-2.5 1l-1.8-1.3c-.3-.2-.7-.2-1 .1l-2.9 2.9c-.3.3-.3.7-.1 1l1.3 1.8c-.4.8-.8 1.6-1 2.5l-2.2.4c-.4.1-.6.4-.6.7V16H5.3C2.9 16 1 18 1 20.4v32.3C1 55 2.9 57 5.3 57h15.1v6.3h-4.2c-.4 0-.8.3-.8.8s.3.8.8.8h25.1c.4 0 .8-.3.8-.8s-.3-.8-.8-.8h-4.2V57h15.3c.6 0 1.2-.1 1.7-.3 1.6-.7 2.6-2.2 2.6-4V25.6l1.7 1.2c.3.2.7.2 1-.1l2.9-2.9c.3-.3.3-.7.1-1L61.2 21c.4-.8.8-1.6 1-2.5l2.2-.4c.4-.1.6-.4.6-.7v-4.1c0-.4-.3-.7-.6-.8zm-59.1 5H37c.1.3.3.5.6.6l2.2.4c.2.8.6 1.7 1 2.5l-1.3 1.8c-.2.3-.2.7.1 1l2.9 2.9c.3.3.7.3 1 .1l1.8-1.3c.8.4 1.6.8 2.5 1l.4 2.2c.1.4.4.6.7.6H53c.4 0 .7-.3.7-.6l.4-2.2c.4-.1.8-.2 1.1-.4V49H2.5V20.4c0-1.6 1.3-2.9 2.8-2.9zm47.2 38H5.3c-1.6 0-2.8-1.3-2.8-2.8v-2.1h52.8v2.1c0 1.2-.7 2.2-1.7 2.6-.4.1-.7.2-1.1.2zm-16.8 7.8H21.9V57h13.8v6.3zm27.8-46.6-2.1.4c-.3.1-.5.3-.6.6-.2 1-.6 2-1.2 3-.2.3-.1.6 0 .8l1.2 1.7-2 2-1.7-1.2c-.2-.2-.6-.2-.8 0l-.6.3c-.7.4-1.5.7-2.4.9-.3.1-.5.3-.6.6l-.4 2.1h-2.9l-.4-2.1c-.1-.3-.3-.5-.6-.6-1-.2-2-.6-2.9-1.2-.3-.2-.6-.1-.8 0L43 25.2l-2-2 1.2-1.7c.2-.2.2-.6 0-.8-.6-1-1-1.9-1.2-3-.1-.3-.3-.5-.6-.6l-2.1-.4v-2.9l2.1-.4c.3-.1.5-.3.6-.6.2-1 .7-2 1.2-2.9.2-.3.1-.6 0-.8L41 7.4l2-2 1.7 1.2c.2.2.6.2.8 0 .9-.6 1.9-1 2.9-1.2.3-.1.5-.3.6-.6l.4-2.1h2.9l.4 2.1c.1.3.3.5.6.6 1 .2 2 .6 2.9 1.2.3.2.6.1.8 0l1.7-1.2 2 2-1.2 1.7c-.2.2-.2.6 0 .8.6.9 1 1.9 1.2 2.9.1.3.3.5.6.6l2.1.4v2.9z"></path><path d="M51 8.9c-3.5 0-6.4 2.9-6.4 6.4 0 3.5 2.9 6.4 6.4 6.4 3.5 0 6.4-2.9 6.4-6.4 0-3.6-2.9-6.4-6.4-6.4zm0 11.3c-2.7 0-4.9-2.2-4.9-4.9s2.2-4.9 4.9-4.9 4.9 2.2 4.9 4.9-2.2 4.9-4.9 4.9z"></path></svg>