<svg xmlns="http://www.w3.org/2000/svg" enable-background="new 0 0 66 66" viewBox="0 0 66 66" id="designingteam"><path fill="none" stroke="#052c55" stroke-linecap="round" stroke-linejoin="round" stroke-miterlimit="10" stroke-width="2" d="M17.2 25.2c0 2.8-2.3 6-5 6-2.8 0-5-3.2-5-6s2.3-5 5-5C15 20.2 17.2 22.5 17.2 25.2zM19.6 43.6c1.6 0 2.9-1.2 2.9-2.8 0 0 0 0 0 0 0-4-2.3-5.8-5.6-6.6-2.5 2.9-7 2.9-9.5 0v0c-3.3.7-5.6 2.6-5.6 6.6 0 0 0 0 0 0 0 1.6 1.3 2.8 2.9 2.8H19.6zM58.9 25.2c0 2.8-2.3 6-5 6s-5-3.2-5-6 2.3-5 5-5S58.9 22.5 58.9 25.2zM61.3 43.6c1.6 0 2.9-1.2 2.9-2.8 0 0 0 0 0 0 0-4-2.3-5.8-5.6-6.6-2.5 2.9-7 2.9-9.5 0l0 0c-3.3.7-5.6 2.6-5.6 6.6 0 0 0 0 0 0 0 1.6 1.3 2.8 2.9 2.8H61.3zM38 7c0 2.8-2.3 6-5 6s-5-3.2-5-6c0-2.8 2.3-5 5-5S38 4.3 38 7zM40.5 25.4c1.6 0 2.9-1.2 2.9-2.8 0 0 0 0 0 0 0-4-2.3-5.8-5.6-6.6-2.5 2.9-7 2.9-9.5 0l0 0c-3.3.7-5.6 2.6-5.6 6.6 0 0 0 0 0 0 0 1.6 1.3 2.8 2.9 2.8H40.5z" class="colorStroke000000 svgStroke"></path><polyline fill="none" stroke="#000" stroke-linecap="round" stroke-linejoin="round" stroke-miterlimit="10" stroke-width="2" points="27.4 41.6 33 29.7 38.6 41.6"></polyline><path fill="none" stroke="#052c55" stroke-linecap="round" stroke-linejoin="round" stroke-miterlimit="10" stroke-width="2" d="M38.6,41.6l0,20.4c0,1.1-0.9,1.9-1.9,1.9h-7.3c-1.1,0-1.9-0.9-1.9-1.9l0-20.4l2.3,1.3
			c0.7,0.4,1.5,0.3,2.1-0.1l0.3-0.2c0.7-0.6,1.7-0.5,2.4,0.1l0,0c0.6,0.6,1.6,0.6,2.3,0.1L38.6,41.6z" class="colorStroke000000 svgStroke"></path><line x1="30.1" x2="35.9" y1="35.9" y2="35.9" fill="none" stroke="#052c55" stroke-linecap="round" stroke-linejoin="round" stroke-miterlimit="10" stroke-width="2" class="colorStroke000000 svgStroke"></line><line x1="31.2" x2="31.2" y1="43.2" y2="52.8" fill="none" stroke="#052c55" stroke-linecap="round" stroke-linejoin="round" stroke-miterlimit="10" stroke-width="2" class="colorStroke000000 svgStroke"></line><line x1="34.8" x2="34.8" y1="49.9" y2="59.5" fill="none" stroke="#052c55" stroke-linecap="round" stroke-linejoin="round" stroke-miterlimit="10" stroke-width="2" class="colorStroke000000 svgStroke"></line><line x1="33" x2="33" y1="18.2" y2="25.4" fill="none" stroke="#052c55" stroke-linecap="round" stroke-linejoin="round" stroke-miterlimit="10" stroke-width="2" class="colorStroke000000 svgStroke"></line><line x1="12.2" x2="12.2" y1="36.4" y2="43.6" fill="none" stroke="#052c55" stroke-linecap="round" stroke-linejoin="round" stroke-miterlimit="10" stroke-width="2" class="colorStroke000000 svgStroke"></line><line x1="53.8" x2="53.8" y1="36.4" y2="43.6" fill="none" stroke="#052c55" stroke-linecap="round" stroke-linejoin="round" stroke-miterlimit="10" stroke-width="2" class="colorStroke000000 svgStroke"></line></svg>