<svg xmlns="http://www.w3.org/2000/svg" enable-background="new 0 0 50 50" viewBox="0 0 50 50" id="web-design"><path fill="#373F51" d="M4.71175,21.14264l0.04975,17.53839c0.0018,0.64666,0.46405,0.90973,1.02609,0.58521
												l24.00801-13.86118c0.56672-0.32693,1.02129-1.11952,1.01949-1.76521L30.76533,6.10097
												c-0.0018-0.65145-0.45937-0.91741-1.02603-0.59049L5.73124,19.37214C5.16913,19.69667,4.70995,20.49167,4.71175,21.14264
												z"></path><path fill="#4C5671" d="M4.04144 20.75185l.05052 17.542c0 .31746.11544.5486.29583.64936l.66962.39016c-.1804-.10817-.29583-.33191-.29583-.64936l-.05052-17.542c0-.64936.45461-1.44319 1.01747-1.76769l24.01185-13.8611c.28139-.16595.5412-.1804.7216-.07188l-.66967-.39051c-.18762-.10817-.44016-.09372-.72882.07223L5.05886 18.98416C4.49604 19.30867 4.03421 20.10249 4.04144 20.75185zM45.95033 33.95197c.00064.21561-.14178.43121-.42524.59479l-24.01306 13.864c-.55976.32294-1.47503.32154-2.03391-.00281l-13.69714-7.9606c-.2797-.16264-.41967-.3745-.42032-.58636l.00838 1.13006c.00059.21186.14055.42371.42032.58636l9.91323 5.76141c.99284.57715 3.00383 1.26185 3.7839 1.48019.49086.13739 1.47228.32716 2.03889 0l24.00808-13.86119c.28339-.16358.42582-.37918.42518-.59526L45.95033 33.95197z"></path><path fill="#9DA9C1" d="M5.78761,39.2663c-0.56667,0.32717-0.56958,0.85387-0.00662,1.18103l13.69716,7.96052
											c0.56296,0.32716,1.47227,0.32719,2.03894,0.00002l24.00804-13.86105c0.56207-0.32451,0.56958-0.85387,0.00662-1.18103
											l-13.69716-7.96051c-0.56296-0.32716-1.47687-0.32454-2.03894-0.00003L5.78761,39.2663z"></path><path fill="#B4BED7" d="M19.99045,42.69304c-0.29172,0.16843-0.29327,0.43463-0.00338,0.60309l3.39845,1.97496
											c0.28506,0.16566,0.74945,0.16844,1.04118,0.00001l7.08137-4.08843c0.29173-0.16843,0.28845-0.43743,0.00338-0.60309
											l-3.39845-1.97496c-0.28988-0.16846-0.74945-0.16844-1.04118-0.00001L19.99045,42.69304z"></path><polygon fill="#7BB1FF" points="29.793 24.228 5.785 38.089 5.737 20.551 29.745 6.69"></polygon><polygon fill="#4C5671" points="15.88 36.165 14.653 36.878 13.977 36.487 15.203 35.774"></polygon><polygon fill="#4C5671" points="17.525 35.209 16.299 35.922 15.622 35.531 16.848 34.818"></polygon><polygon fill="#4C5671" points="19.17 34.253 17.944 34.966 17.267 34.575 18.493 33.862"></polygon><polygon fill="#4C5671" points="21.254 34.746 20.028 35.459 18.863 34.786 20.09 34.074"></polygon><polygon fill="#4C5671" points="19.609 35.702 18.383 36.415 17.218 35.742 18.445 35.03"></polygon><polygon fill="#4C5671" points="14.235 37.121 13.008 37.834 12.332 37.443 13.558 36.73"></polygon><polygon fill="#4C5671" points="17.964 36.658 16.737 37.371 15.573 36.698 16.8 35.986"></polygon><polygon fill="#4C5671" points="16.319 37.614 15.092 38.327 13.928 37.654 15.155 36.942"></polygon><polygon fill="#4C5671" points="15.185 43.384 13.956 44.098 12.792 43.426 14.02 42.712"></polygon><polygon fill="#4C5671" points="16.828 42.429 15.601 43.142 14.437 42.47 15.663 41.757"></polygon><polygon fill="#4C5671" points="15.775 41.337 12.492 43.245 11.328 42.573 14.611 40.665"></polygon><polygon fill="#4C5671" points="12.59 38.077 11.37 38.786 10.693 38.395 11.913 37.686"></polygon><polygon fill="#4C5671" points="14.674 38.57 13.447 39.283 12.283 38.611 13.51 37.898"></polygon><polygon fill="#4C5671" points="10.945 39.033 9.725 39.742 9.048 39.351 10.268 38.642"></polygon><polygon fill="#4C5671" points="13.031 39.524 11.802 40.239 10.638 39.566 11.867 38.852"></polygon><polygon fill="#4C5671" points="15.531 39.775 14.305 40.488 13.138 39.815 14.365 39.102"></polygon><polygon fill="#4C5671" points="9.302 39.988 8.08 40.698 7.403 40.307 8.625 39.597"></polygon><polygon fill="#4C5671" points="11.386 40.48 9.55 41.547 8.386 40.875 10.222 39.808"></polygon><polygon fill="#4C5671" points="13.886 40.731 11.021 42.396 9.855 41.723 12.72 40.058"></polygon><polygon fill="#4C5671" points="28.517 33.932 27.289 34.646 26.124 33.974 27.351 33.261"></polygon><polygon fill="#4C5671" points="28.69 32.128 25.818 33.797 24.652 33.124 27.523 31.455"></polygon><polygon fill="#4C5671" points="25.402 34.039 24.173 34.753 23.006 34.08 24.235 33.366"></polygon><polygon fill="#4C5671" points="23.757 34.995 22.528 35.709 21.361 35.036 22.59 34.322"></polygon><polygon fill="#4C5671" points="25.227 35.844 23.998 36.558 22.834 35.886 24.063 35.172"></polygon><polygon fill="#4C5671" points="22.112 35.951 20.885 36.664 19.719 35.991 20.945 35.278"></polygon><polygon fill="#4C5671" points="26.698 36.693 25.469 37.407 24.305 36.735 25.534 36.021"></polygon><polygon fill="#4C5671" points="23.665 36.752 22.439 37.465 21.275 36.793 22.501 36.08"></polygon><polygon fill="#4C5671" points="20.466 36.907 19.24 37.62 18.074 36.947 19.3 36.234"></polygon><polygon fill="#4C5671" points="22.106 37.658 20.879 38.371 19.715 37.699 20.942 36.986"></polygon><polygon fill="#4C5671" points="18.984 39.472 17.758 40.185 16.593 39.513 17.82 38.8"></polygon><polygon fill="#4C5671" points="17.42 40.381 16.2 41.09 15.036 40.418 16.256 39.709"></polygon><polygon fill="#4C5671" points="25.123 37.609 18.891 41.23 17.727 40.558 23.959 36.936"></polygon><polygon fill="#4C5671" points="18.473 41.473 17.246 42.186 16.082 41.514 17.308 40.801"></polygon><polygon fill="#4C5671" points="20.544 38.566 19.317 39.279 18.153 38.607 19.38 37.894"></polygon><polygon fill="#4C5671" points="18.821 37.863 17.595 38.576 16.428 37.903 17.655 37.19"></polygon><polygon fill="#4C5671" points="17.176 38.819 15.95 39.532 14.783 38.859 16.01 38.146"></polygon><polygon fill="#4C5671" points="25.748 30.43 24.522 31.143 23.845 30.752 25.071 30.04"></polygon><polygon fill="#4C5671" points="24.103 31.386 22.877 32.099 22.2 31.708 23.426 30.996"></polygon><polygon fill="#4C5671" points="20.815 33.297 19.587 34.011 18.91 33.62 20.138 32.906"></polygon><polygon fill="#4C5671" points="22.46 32.341 21.232 33.055 20.555 32.664 21.784 31.95"></polygon><polygon fill="#4C5671" points="27.219 31.279 23.315 33.548 22.151 32.876 26.055 30.607"></polygon><polygon fill="#4C5671" points="31.631 33.827 30.404 34.539 29.24 33.867 30.467 33.154"></polygon><polygon fill="#4C5671" points="28.343 35.737 27.114 36.452 25.95 35.779 27.179 35.065"></polygon><polygon fill="#4C5671" points="29.988 34.781 28.759 35.495 27.595 34.823 28.824 34.109"></polygon><polygon fill="#4C5671" points="22.899 33.79 21.673 34.503 20.508 33.83 21.735 33.118"></polygon><g><polygon fill="#4C5671" points="30.346 31.166 29.119 31.879 27.953 31.205 29.18 30.492"></polygon><polygon fill="#4C5671" points="36.571 30.956 35.351 31.665 34.187 30.993 35.407 30.284"></polygon><polygon fill="#4C5671" points="28.876 30.317 27.649 31.03 26.485 30.357 27.711 29.645"></polygon><polygon fill="#4C5671" points="32.159 28.409 30.939 29.118 29.775 28.446 30.995 27.736"></polygon><polygon fill="#4C5671" points="30.521 29.361 29.294 30.074 28.13 29.402 29.356 28.689"></polygon><polygon fill="#4C5671" points="31.991 30.21 30.764 30.923 29.598 30.249 30.825 29.536"></polygon><polygon fill="#4C5671" points="35.275 28.302 34.055 29.011 32.888 28.337 34.108 27.628"></polygon><polygon fill="#4C5671" points="38.216 30 36.996 30.709 34.361 29.188 35.581 28.479"></polygon><polygon fill="#4C5671" points="33.63 29.258 32.409 29.967 31.243 29.293 32.463 28.584"></polygon><polygon fill="#4C5671" points="35.1 30.107 33.88 30.816 32.716 30.144 33.936 29.435"></polygon><polygon fill="#4C5671" points="33.462 31.059 32.235 31.772 31.071 31.1 32.298 30.387"></polygon><polygon fill="#4C5671" points="34.932 31.908 32.061 33.577 30.897 32.905 33.768 31.236"></polygon><polygon fill="#4C5671" points="30.688 27.56 29.468 28.269 28.791 27.878 30.012 27.169"></polygon><polygon fill="#4C5671" points="33.804 27.453 32.584 28.162 31.42 27.489 32.64 26.78"></polygon><polygon fill="#4C5671" points="32.334 26.603 31.113 27.313 30.436 26.922 31.657 26.213"></polygon><polygon fill="#4C5671" points="29.05 28.512 27.823 29.225 27.146 28.834 28.373 28.121"></polygon><polygon fill="#4C5671" points="27.405 29.468 26.178 30.181 25.501 29.79 26.728 29.077"></polygon><polygon fill="#4C5671" points="31.819 32.014 30.59 32.728 29.426 32.056 30.653 31.343"></polygon></g><g><polygon fill="#E3E7F0" points="27.84 3.647 27.038 3.18 7.654 14.372 8.456 14.838"></polygon><path fill="#D3DBEA" d="M7.6534,14.37066l0.03985,19.77126c0,0.25045,0.0911,0.42696,0.23343,0.5123l0.80267,0.46671
									c-0.14232-0.08534-0.23339-0.26185-0.23339-0.5123L8.45611,14.83737L7.6534,14.37066z"></path><path fill="#9DA9C1" d="M8.45628,14.83799l0.03907,19.77133c0.00142,0.50122,0.35515,0.70712,0.79131,0.4553
									l17.80629-10.28047c0.43617-0.25182,0.78757-0.86482,0.78614-1.36604L27.84002,3.64678L8.45628,14.83799z"></path><polygon fill="#FFF" points="27.383 24.037 8.993 34.656 8.953 14.552 27.343 3.934"></polygon><polygon fill="#96D696" points="27.383 24.037 8.993 34.656 8.985 31.549 27.375 20.931"></polygon><path fill="#373F51" d="M9.23784,11.85567c-0.43616,0.25181-0.78757,0.86482-0.78614,1.36604l0.00458,1.61627
									L27.84002,3.64678l-0.00458-1.61627c-0.00142-0.50122-0.35514-0.70712-0.79131-0.4553L9.23784,11.85567z"></path><path fill="#4C5671" d="M7.64773,12.75399l0.00566,1.61668l0.80271,0.46671l-0.0057-1.61668
									c0-0.50118,0.35295-1.11577,0.78561-1.36622L27.04318,1.57319c0.22203-0.12536,0.4156-0.13676,0.55792-0.05142
									l-0.79701-0.46671c-0.14802-0.08534-0.34156-0.07394-0.56359,0.05115L8.43335,11.38748
									C8.00069,11.64377,7.64773,12.25281,7.64773,12.75399z"></path><g><path fill="#E3E7F0" d="M26.76939 2.71602c-.20718.11961-.37745.4147-.37678.65262.00068.23815.17205.33167.37923.21205.20718-.11961.37383-.40829.37315-.64644C27.14432 2.69634 26.97656 2.59641 26.76939 2.71602zM25.59902 3.39174c-.20718.11961-.37382.4126-.37314.65052.00067.23815.16842.33377.37559.21415.20718-.11961.37746-.41039.37679-.64854C25.97758 3.36995 25.80619 3.27213 25.59902 3.39174z"></path></g><path fill="#E3E7F0" d="M24.43228,4.06535c-0.20718,0.11961-0.37382,0.4126-0.37314,0.65052
								c0.00068,0.23815,0.16842,0.33377,0.37559,0.21415c0.20718-0.11961,0.37383-0.40829,0.37315-0.64644
								C24.80721,4.04566,24.63946,3.94574,24.43228,4.06535z"></path><g><polygon fill="#FFDD94" points="25.844 7.375 22.587 11.006 25.854 10.87"></polygon><polygon fill="#FFDD94" points="25.649 11.096 22.377 11.24 19.125 14.862"></polygon><polygon fill="#B4BED7" points="15.789 22.641 15.79 23.135 25.872 17.315 25.87 16.82"></polygon><polygon fill="#B4BED7" points="15.786 21.495 15.787 21.984 25.869 16.163 25.867 15.674"></polygon><polygon fill="#FFDD94" points="19.115 11.153 22.376 11.015 25.633 7.39"></polygon><polygon fill="#FFDD94" points="22.171 11.246 18.91 11.379 18.92 14.874"></polygon><polygon fill="#FFF" points="18.909 11.272 18.91 11.378 22.171 11.246 18.92 14.874 18.92 14.98 19.125 14.862 22.377 11.24 25.648 11.095 25.854 10.977 25.854 10.87 22.587 11.006 25.844 7.375 25.843 7.268 25.633 7.39 22.376 11.015 19.115 11.153"></polygon><polygon fill="#ED5D71" points="15.776 18.045 15.784 20.838 25.865 15.017 25.857 12.224"></polygon><polygon fill="#FFF" points="10.464 16.147 10.465 16.254 13.726 16.122 10.475 19.749 10.475 19.856 10.675 19.74 13.932 16.115 17.199 15.974 17.409 15.853 17.409 15.746 14.142 15.882 17.399 12.251 17.398 12.144 17.188 12.266 13.931 15.891 10.67 16.029"></polygon><polygon fill="#96D696" points="17.399 12.251 14.142 15.882 17.409 15.746"></polygon><polygon fill="#96D696" points="17.199 15.974 13.932 16.115 10.676 19.74"></polygon><polygon fill="#96D696" points="10.67 16.029 13.932 15.891 17.188 12.266"></polygon><polygon fill="#96D696" points="13.726 16.122 10.465 16.254 10.475 19.749"></polygon><polygon fill="#7BB1FF" points="10.47 23.41 10.478 26.203 14.432 23.92 14.424 21.127"></polygon><polygon fill="#B4BED7" points="10.467 22.264 10.468 22.753 14.422 20.47 14.421 19.981"></polygon><polygon fill="#B4BED7" points="10.464 21.111 10.465 21.607 14.419 19.323 14.418 18.829"></polygon></g></g><g><polygon fill="#FFF" points="26.371 22.695 25.379 23.268 25.382 24.407 26.374 23.835"></polygon><polygon fill="#FFF" points="23.532 24.334 23.535 25.474 24.53 24.9 24.526 23.76"></polygon><polygon fill="#FFF" points="21.687 25.399 21.69 26.539 22.682 25.966 22.679 24.826"></polygon></g><g><path fill="#272E3A" d="M37.65933,13.11308v0.69171c0,0.18861-0.12577,0.36844-0.36833,0.51187
				c-0.49405,0.28774-1.30249,0.28774-1.7966,0c-0.2515-0.14343-0.37727-0.33248-0.37727-0.52108v-0.6825
				c0,0.18861,0.12577-0.16185,0.37727-0.01798c0.49411,0.2873,1.30254,0.2873,1.7966,0
				C37.53356,12.95123,37.65933,13.30169,37.65933,13.11308z"></path><path fill="#373F51" d="M38.27131,11.72113l-0.00134,1.28183c-0.00079,0.27718-0.18301,0.55394-0.54705,0.7655
				c-0.73276,0.42583-1.92447,0.42606-2.66203,0.00022c-0.37115-0.21429-0.55652-0.49559-0.55573-0.77646l0.00134-1.28183
				c-0.00079,0.28087,0.18457,0.56217,0.55573,0.77646c0.73756,0.42583,1.92927,0.42561,2.66203-0.00022
				C38.08829,12.27507,38.27052,11.99831,38.27131,11.72113z"></path><path fill="#4C5671" d="M37.71397,10.94489c0.73756,0.42583,0.74146,1.11589,0.00867,1.54174
				c-0.73276,0.42583-1.92447,0.42606-2.66203,0.00022c-0.73757-0.42584-0.74144-1.11633-0.00868-1.54216
				C35.78471,10.51885,36.97641,10.51906,37.71397,10.94489z"></path><path fill="#FFDD94" d="M38.53225,10.42084c-0.32419,0.21714-0.51688,0.58107-0.51688,0.9695v0.25785
			c0.00306,0.24163-0.15292,0.48326-0.47406,0.66978c-0.63004,0.36692-1.66073,0.36692-2.29995,0
			c-0.31807-0.18652-0.48018-0.42815-0.48018-0.66978c0-0.39769-0.20491-1.0132-0.5291-1.23647
			c-1.00622-0.68815-1.66685-1.84432-1.66685-3.15641c0-2.20512,1.86566-3.97284,4.10138-3.81379
			c1.88705,0.13142,3.41321,1.66377,3.53862,3.55395C40.29698,8.41762,39.61189,9.68983,38.53225,10.42084z"></path><path fill="#FFF" d="M39.33349,6.708c-0.08342-1.2634-1.10332-2.2886-2.36629-2.37791
			c-0.24335-0.01732-0.47895,0.00269-0.70482,0.04928c1.5578,0.45638,2.73223,1.84313,2.87234,3.50571
			C39.28746,7.52742,39.36121,7.12779,39.33349,6.708z"></path></g><g><path fill="#FE91AB" d="M44.54546,22.18208l-0.00788,4.68586c0,0.24417-0.0945,0.4176-0.22836,0.50412l-0.55915,0.32262
						c0.14175-0.08652,0.22841-0.25956,0.22841-0.50373l0.01572-4.68586c0-0.50373-0.35434-1.11821-0.79535-1.37007L35.4418,16.6618
						c-0.22048-0.12613-0.41736-0.14151-0.5591-0.05499l0.55122-0.323c0.14963-0.08652,0.34651-0.07075,0.56704,0.05499
						l7.75699,4.47322C44.19107,21.06388,44.55334,21.67835,44.54546,22.18208z"></path><path fill="#ED5D71" d="M43.20169,21.13785c0.43743,0.25255,0.79328,0.86301,0.79185,1.36548l-0.01329,4.68581
						c-0.00142,0.50246-0.35956,0.70102-0.79699,0.44847l-5.34478-3.08581l-2.06745,0.91276L35.777,23.3616l-0.35194-0.2032
						c-0.43242-0.24966-0.78827-0.86043-0.78684-1.3629l0.01328-4.68581c0.00142-0.50246,0.35956-0.70071,0.79198-0.45105
						L43.20169,21.13785z"></path><path fill="#4C5671" d="M41.17376,23.28068c0,1.17279-0.84218,1.65222-1.86564,1.05515
						c-1.0234-0.58614-1.85497-2.02545-1.8443-3.20865c0-1.17279,0.83151-1.65222,1.85497-1.05567
						C40.35292,20.65816,41.17376,22.09748,41.17376,23.28068z"></path><polygon fill="#FFF" points="38.713 20.862 40.268 22.862 38.706 23.062"></polygon></g></svg>