<svg xmlns="http://www.w3.org/2000/svg" data-name="Layer 1" viewBox="0 0 128 128" id="desktop-apps"><circle cx="58" cy="96" r="2"></circle><path d="M18 48a2.0001 2.0001 0 00-2-2H10a2.0001 2.0001 0 00-2 2v6a2.0001 2.0001 0 002 2h6a2.0001 2.0001 0 002-2zm-4 4H12V50h2zM18 34a2.0001 2.0001 0 00-2-2H10a2.0001 2.0001 0 00-2 2v6a2.0001 2.0001 0 002 2h6a2.0001 2.0001 0 002-2zm-4 4H12V36h2zM18 62a2.0001 2.0001 0 00-2-2H10a2.0001 2.0001 0 00-2 2v6a2.0001 2.0001 0 002 2h6a2.0001 2.0001 0 002-2zm-4 4H12V64h2zM16 74H10a2.0001 2.0001 0 00-2 2v6a2.0001 2.0001 0 002 2h6a2.0001 2.0001 0 002-2V76A2.0001 2.0001 0 0016 74zm-2 6H12V78h2zM33 48a2.0001 2.0001 0 00-2-2H25a2.0001 2.0001 0 00-2 2v6a2.0001 2.0001 0 002 2h6a2.0001 2.0001 0 002-2zm-4 4H27V50h2zM33 34a2.0001 2.0001 0 00-2-2H25a2.0001 2.0001 0 00-2 2v6a2.0001 2.0001 0 002 2h6a2.0001 2.0001 0 002-2zm-4 4H27V36h2zM31 60H25a2.0001 2.0001 0 00-2 2v6a2.0001 2.0001 0 002 2h6a2.0001 2.0001 0 002-2V62A2.0001 2.0001 0 0031 60zm-2 6H27V64h2z"></path><circle cx="57" cy="47" r="1"></circle><circle cx="52" cy="47" r="1"></circle><path d="M58,40H48a4.004,4.004,0,0,0-4,4V78a4.004,4.004,0,0,0,4,4H88a4.004,4.004,0,0,0,4-4V64H88V78H48V54H58V50H48V44H58Z"></path><circle cx="75" cy="25" r="1"></circle><circle cx="70" cy="25" r="1"></circle><path d="M110,56V46h-4V56H66V32H76V28H66V22H76V18H66a4.004,4.004,0,0,0-4,4V56a4.004,4.004,0,0,0,4,4h40A4.004,4.004,0,0,0,110,56Z"></path><path d="M128,38V4a4.004,4.004,0,0,0-4-4H84a4.004,4.004,0,0,0-4,4V38a4.004,4.004,0,0,0,4,4h40A4.004,4.004,0,0,0,128,38ZM124,4v6H84V4ZM84,14h40V38H84Z"></path><circle cx="98" cy="7" r="1"></circle><circle cx="93" cy="7" r="1"></circle><circle cx="88" cy="7" r="1"></circle><path d="M4,104H48.34863l-1.71429,6H39.4082a4.01584,4.01584,0,0,0-3.70215,2.39844l-4.38672,10.13867a3.85457,3.85457,0,0,0,.32031,3.65625A4.02626,4.02626,0,0,0,35.02148,128h45.957a4.02626,4.02626,0,0,0,3.38184-1.80664,3.85457,3.85457,0,0,0,.32031-3.65625L80.293,112.39746A4.01413,4.01413,0,0,0,76.5918,110H69.36566l-1.71429-6H112a4.004,4.004,0,0,0,4-4V46h-2V56a7.958,7.958,0,0,1-1.99866,5.27228L112.00244,88H4V28H58V24H4a4.004,4.004,0,0,0-4,4v72A4.004,4.004,0,0,0,4,104Zm63.07715,12.5498a1.99991,1.99991,0,1,0,3.8457-1.09961l-.4176-1.46161,6.11682-.00226L80.95508,124l-45.90625-.00781L39.4082,114l6.08392-.00226-.415,1.45245a1.99991,1.99991,0,1,0,3.8457,1.09961L52.50879,104H63.49121ZM112.00262,92l.00031,8H4V92Z"></path></svg>