<svg xmlns="http://www.w3.org/2000/svg" data-name="Layer 1" viewBox="0 0 128 128" id="local"><path d="M96,23A32,32,0,0,0,64.57,49H60V46a2,2,0,0,0-2-2H57V10a2,2,0,0,0-2-2H42V4a4,4,0,0,0-4-4H22a4,4,0,0,0-4,4V8H5a2,2,0,0,0-2,2V44H2a2,2,0,0,0-2,2v80a2,2,0,0,0,2,2H58a2,2,0,0,0,2-2V61h4.57A32,32,0,1,0,96,23ZM22,4H38V8H22ZM7,12H53V44H7ZM28,124H21.5V104H28Zm10.5,0H32V104h6.5ZM56,124H42.5V102a2,2,0,0,0-2-2h-21a2,2,0,0,0-2,2v22H4V48H56Zm8.07-67H60V53h4.07c0,.66-.07,1.33-.07,2S64,56.34,64.07,57ZM96,83a28,28,0,1,1,28-28A28,28,0,0,1,96,83Z"></path><path d="M96,34A18.14,18.14,0,0,0,78,52.23c0,9.49,14.86,25.37,16.55,27.15a2,2,0,0,0,2.9,0C99.14,77.6,114,61.72,114,52.23A18.14,18.14,0,0,0,96,34Zm0,41.05c-4.93-5.48-14-16.79-14-22.83a14,14,0,1,1,28,0C110,58.26,100.93,69.57,96,75.05Z"></path><path d="M96 43a8 8 0 1 0 8 8A8 8 0 0 0 96 43zm0 12a4 4 0 1 1 4-4A4 4 0 0 1 96 55zM10 64h8a2 2 0 0 0 2-2V54a2 2 0 0 0-2-2H10a2 2 0 0 0-2 2v8A2 2 0 0 0 10 64zm2-8h4v4H12zM26 64h8a2 2 0 0 0 2-2V54a2 2 0 0 0-2-2H26a2 2 0 0 0-2 2v8A2 2 0 0 0 26 64zm2-8h4v4H28zM33 30H27a2 2 0 0 0-2 2v6a2 2 0 0 0 2 2h6a2 2 0 0 0 2-2V32A2 2 0 0 0 33 30zm-2 6H29V34h2zM47 30H41a2 2 0 0 0-2 2v6a2 2 0 0 0 2 2h6a2 2 0 0 0 2-2V32A2 2 0 0 0 47 30zm-2 6H43V34h2zM19 30H13a2 2 0 0 0-2 2v6a2 2 0 0 0 2 2h6a2 2 0 0 0 2-2V32A2 2 0 0 0 19 30zm-2 6H15V34h2zM33 16H27a2 2 0 0 0-2 2v6a2 2 0 0 0 2 2h6a2 2 0 0 0 2-2V18A2 2 0 0 0 33 16zm-2 6H29V20h2zM47 16H41a2 2 0 0 0-2 2v6a2 2 0 0 0 2 2h6a2 2 0 0 0 2-2V18A2 2 0 0 0 47 16zm-2 6H43V20h2zM19 16H13a2 2 0 0 0-2 2v6a2 2 0 0 0 2 2h6a2 2 0 0 0 2-2V18A2 2 0 0 0 19 16zm-2 6H15V20h2zM42 64h8a2 2 0 0 0 2-2V54a2 2 0 0 0-2-2H42a2 2 0 0 0-2 2v8A2 2 0 0 0 42 64zm2-8h4v4H44zM10 80h8a2 2 0 0 0 2-2V70a2 2 0 0 0-2-2H10a2 2 0 0 0-2 2v8A2 2 0 0 0 10 80zm2-8h4v4H12zM26 80h8a2 2 0 0 0 2-2V70a2 2 0 0 0-2-2H26a2 2 0 0 0-2 2v8A2 2 0 0 0 26 80zm2-8h4v4H28zM42 80h8a2 2 0 0 0 2-2V70a2 2 0 0 0-2-2H42a2 2 0 0 0-2 2v8A2 2 0 0 0 42 80zm2-8h4v4H44zM10 96h8a2 2 0 0 0 2-2V86a2 2 0 0 0-2-2H10a2 2 0 0 0-2 2v8A2 2 0 0 0 10 96zm2-8h4v4H12zM26 96h8a2 2 0 0 0 2-2V86a2 2 0 0 0-2-2H26a2 2 0 0 0-2 2v8A2 2 0 0 0 26 96zm2-8h4v4H28zM42 96h8a2 2 0 0 0 2-2V86a2 2 0 0 0-2-2H42a2 2 0 0 0-2 2v8A2 2 0 0 0 42 96zm2-8h4v4H44z"></path></svg>