<svg xmlns="http://www.w3.org/2000/svg" viewBox="0 0 64 64" id="ecommerce"><path d="M51.47,20.42a1,1,0,0,0-1,0,3.68,3.68,0,0,1-1.84.57h-.57a3.36,3.36,0,0,1-3.35-3.13l0-.58a1,1,0,0,0-1.07-.93,1,1,0,0,0-.93,1.07,3.3,3.3,0,0,1-.89,2.51,3.36,3.36,0,0,1-2.75,1,3.45,3.45,0,0,1-3-3.49V17a1,1,0,0,0-2-.07,4.08,4.08,0,0,1-2.15,3.65A4,4,0,0,1,26,17a1,1,0,0,0-2,0v.5A3.45,3.45,0,0,1,21,21a3.36,3.36,0,0,1-2.75-1,3.3,3.3,0,0,1-.89-2.51,1,1,0,0,0-.93-1.07,1,1,0,0,0-1.07.93l0,.58A3.36,3.36,0,0,1,11.92,21h-.57a3.68,3.68,0,0,1-1.84-.57,1,1,0,0,0-1,0A1,1,0,0,0,8,21.3V26a1,1,0,0,0,1,1H9a1,1,0,0,0,1-1V22.83a5.55,5.55,0,0,0,1.35.17h.58a5.37,5.37,0,0,0,4.36-2.25,4.7,4.7,0,0,0,.45.55,5.34,5.34,0,0,0,8.41-.77,6,6,0,0,0,9.7,0,5.34,5.34,0,0,0,8.41.77,4.7,4.7,0,0,0,.45-.55A5.39,5.39,0,0,0,48.07,23h.58A5.55,5.55,0,0,0,50,22.83V28H43a5,5,0,0,0-5,5v9H15a5.51,5.51,0,0,1-.71-.06l-.18,0a4.27,4.27,0,0,1-.64-.15h0l-.13,0a2.92,2.92,0,0,1-.54-.22l-.11-.06-.47-.27L12,41l-.41-.35-.08-.08a5.49,5.49,0,0,1-.45-.5L11,39.94A5,5,0,0,1,10,37V34a1,1,0,0,0-1-1H9a1,1,0,0,0-1,1v3a6.84,6.84,0,0,0,1.3,4l.19.26c.18.22.38.45.59.67l.16.14a5.13,5.13,0,0,0,.6.5l.18.13a6.19,6.19,0,0,0,.81.48l.13.07a5.56,5.56,0,0,0,.71.29,1,1,0,0,0,.23.08,6.38,6.38,0,0,0,.89.22l.22,0A6.6,6.6,0,0,0,15,44H39a1,1,0,0,0,1-1V33a3,3,0,0,1,3-3h8a1,1,0,0,0,1-1V21.3A1,1,0,0,0,51.47,20.42ZM9,29H9a1,1,0,0,0-1,1H8a1,1,0,0,0,1,1H9a1,1,0,0,0,1-1h0A1,1,0,0,0,9,29Z" fill="#052c55" class="color000000 svgShape"></path><path d="M36,52H24a1,1,0,0,1-.75-.34,1,1,0,0,1-.24-.78l1-8A1,1,0,0,1,25,42H35a1,1,0,0,1,1,.88l1,8a1,1,0,0,1-.24.78A1,1,0,0,1,36,52ZM25.13,50h9.74l-.75-6H25.88Z" fill="#052c55" class="color000000 svgShape"></path><path d="M39 52H21a1 1 0 0 1 0-2H39a1 1 0 0 1 0 2zM39 36H9a1 1 0 0 1 0-2H39a1 1 0 0 1 0 2z" fill="#052c55" class="color000000 svgShape"></path><circle cx="30" cy="39" r="1" fill="#052c55" class="color000000 svgShape"></circle><path d="M11.93,23h-.58A5.36,5.36,0,0,1,6,17.65v-.22a5.43,5.43,0,0,1,.1-1,.52.52,0,0,1,0-.11L8.18,9.55A5,5,0,0,1,13,6h4a1,1,0,0,1,.73.32,1,1,0,0,1,.27.75L17.27,18A5.36,5.36,0,0,1,11.93,23ZM8.05,16.81a4.69,4.69,0,0,0-.05.62v.22A3.37,3.37,0,0,0,11.35,21h.58a3.35,3.35,0,0,0,3.34-3.13L15.93,8H13a3,3,0,0,0-2.86,2.13Z" fill="#052c55" class="color000000 svgShape"></path><path d="M20.65,23a5.36,5.36,0,0,1-5.34-5.71L16,6.93A1,1,0,0,1,17,6h8a1,1,0,0,1,1,1V17.65A5.36,5.36,0,0,1,20.65,23ZM17.93,8l-.62,9.43a3.3,3.3,0,0,0,.89,2.51A3.35,3.35,0,0,0,24,17.65V8Z" fill="#052c55" class="color000000 svgShape"></path><path d="M30,23a6,6,0,0,1-6-6V7a1,1,0,0,1,1-1H35a1,1,0,0,1,1,1V17A6,6,0,0,1,30,23ZM26,8v9a4,4,0,0,0,8,0V8Z" fill="#052c55" class="color000000 svgShape"></path><path d="M43.53,14h0a1,1,0,0,0-1,1.07l.16,2.36a3.3,3.3,0,0,1-.89,2.51,3.36,3.36,0,0,1-2.75,1,3.45,3.45,0,0,1-3-3.49V8h6.07l.2,3.06a1,1,0,0,0,1,.94h0a1,1,0,0,0,1-1.07L44.07,8,44,6.93A1,1,0,0,0,43,6H35a1,1,0,0,0-1,1V17.42a5.56,5.56,0,0,0,3.07,5.07,5.36,5.36,0,0,0,6.19-1.19,4.7,4.7,0,0,0,.45-.55,5.39,5.39,0,0,0,1-3.46l-.16-2.36A1,1,0,0,0,43.53,14Z" fill="#052c55" class="color000000 svgShape"></path><path d="M53.9 16.4a.52.52 0 0 0 0-.11L51.82 9.55A5 5 0 0 0 47 6H43a1 1 0 0 0-.73.32 1 1 0 0 0-.27.75l.06.93.21 3.07a1 1 0 0 0 1 .93h0a1 1 0 0 0 1-1.07L44.07 8h3a3 3 0 0 1 2.86 2.13L52 16.81a4.69 4.69 0 0 1 0 .62v.22a3.33 3.33 0 0 1-1.55 2.81 3.28 3.28 0 0 1-1.8.54h-.57a3.36 3.36 0 0 1-3.35-3.13l0-.58-.16-2.36a1 1 0 0 0-1-.93h0a1 1 0 0 0-1 1.07l.16 2.36 0 .58a5.36 5.36 0 0 0 5.34 5h.58a5.24 5.24 0 0 0 2.89-.86A5.32 5.32 0 0 0 54 17.65v-.22A5.43 5.43 0 0 0 53.9 16.4zM58 49V33a5 5 0 0 0-5-5H43a5 5 0 0 0-5 5V53a5 5 0 0 0 5 5H53a5 5 0 0 0 5-5h0a1 1 0 0 0-1-1h0a1 1 0 0 0-1 1h0a3 3 0 0 1-3 3H43a3 3 0 0 1-3-3V33a3 3 0 0 1 3-3H53a3 3 0 0 1 3 3V49a1 1 0 0 0 1 1h0A1 1 0 0 0 58 49z" fill="#052c55" class="color000000 svgShape"></path><circle cx="48" cy="53" r="1" fill="#052c55" class="color000000 svgShape"></circle><path d="M50 31H46a1 1 0 0 1-.71-.29l-1-1a1 1 0 0 1-.21-1.09A1 1 0 0 1 45 28h6a1 1 0 0 1 .92.62 1 1 0 0 1-.21 1.09l-1 1A1 1 0 0 1 50 31zM50 49H46a3 3 0 0 1-3-3V41a1 1 0 0 1 1-1h8a1 1 0 0 1 1 1v5A3 3 0 0 1 50 49zm-5-7v4a1 1 0 0 0 1 1h4a1 1 0 0 0 1-1V42z" fill="#052c55" class="color000000 svgShape"></path><path d="M50,41.87H46a.87.87,0,0,1-.87-.87V40a2.87,2.87,0,0,1,5.74,0v1A.87.87,0,0,1,50,41.87Zm-3.13-1.74h2.26V40a1.13,1.13,0,0,0-2.26,0Z" fill="#052c55" class="color000000 svgShape"></path></svg>