<svg xmlns="http://www.w3.org/2000/svg" viewBox="0 0 100 100" id="erp"><path d="M49.769 45.162v3.236h2.311a1.601 1.601 0 0 1 0 3.202h-2.311v3.237h4.84a1.601 1.601 0 0 1 0 3.202h-6.441a1.601 1.601 0 0 1-1.601-1.601V43.562c0-.884.717-1.601 1.601-1.601h6.441a1.601 1.601 0 0 1 0 3.202h-4.84zm32.199 1.61c0 .736-.169 1.431-.463 2.055a4.788 4.788 0 0 1-4.35 2.775h-1.628v4.838c0 .884-.717 1.601-1.601 1.601-.359 0-.686-.122-.954-.322a1.593 1.593 0 0 1-.647-1.279V43.562c0-.621.357-1.153.874-1.418a1.58 1.58 0 0 1 .727-.183h3.23c.438 0 .86.064 1.263.174a4.797 4.797 0 0 1 1.774.91 4.8 4.8 0 0 1 1.775 3.727zm-3.202.017c0-.905-.723-1.627-1.61-1.627h-1.629v3.236h1.628a1.61 1.61 0 0 0 1.611-1.609zm12.861-7.519v21.46a5.901 5.901 0 0 1-5.894 5.894h-7.768c-.425.764-.851 1.527-1.283 2.271-.129.222-.2.465-.2.683 0 .171.045.319.115.377l5.091 4.293c.742.63 1.148 1.548 1.148 2.588 0 1.2-.566 2.424-1.514 3.272a63.16 63.16 0 0 1-7.259 5.6 4.92 4.92 0 0 1-2.656.806c-1.34 0-2.489-.6-3.074-1.605l-3.179-5.53c-.035-.062-.209-.181-.539-.181-.168 0-.339.031-.509.092a183.71 183.71 0 0 1-6.293 2.117c-.491.156-.69.449-.703.533l.961 5.465c.026.157.035.289.035.418 0 1.741-1.728 3.004-4.108 3.004h-8.446c-2.38 0-4.107-1.263-4.107-3.003 0-.131.01-.265.032-.4l.966-5.51c-.014-.059-.213-.352-.705-.508a184.989 184.989 0 0 1-6.29-2.116c-.484-.173-.982-.03-1.049.086L31.224 84.9c-.589 1.012-1.738 1.612-3.077 1.612a4.896 4.896 0 0 1-2.648-.801 63.548 63.548 0 0 1-7.267-5.604c-.948-.85-1.512-2.072-1.512-3.272 0-1.041.405-1.958 1.143-2.584l5.092-4.293c.074-.062.119-.21.119-.38 0-.218-.071-.461-.2-.683a141.33 141.33 0 0 1-3.215-5.852c-.23-.442-.544-.591-.652-.591-2.082.765-3.952 1.455-5.596 2.062-.305.11-.608.164-.913.164-1.669 0-3.042-1.555-3.264-3.697a403.426 403.426 0 0 1-.837-8.518 6.317 6.317 0 0 1-.024-.549c0-2.281 1.168-3.897 2.84-3.93a1308.3 1308.3 0 0 1 5.473-.033c.056-.025.326-.279.404-.806.328-2.213.684-4.403 1.057-6.509.019-.104.027-.197.027-.289 0-.429-.177-.652-.227-.677a3385.68 3385.68 0 0 0-5.607-2.013c-1.268-.464-2.049-1.778-2.049-3.433 0-.636.122-1.293.352-1.899a75.788 75.788 0 0 1 3.777-8.237c.74-1.398 2.141-2.305 3.566-2.305.753 0 1.452.249 2.02.718l5.083 4.244c.157.132.651.012.987-.277.276-.239.557-.479.839-.717a1.602 1.602 0 0 1 2.256.19c.004.004.007.01.01.015a1.6 1.6 0 0 1-.2 2.242c-.273.23-.544.462-.814.695-1.538 1.325-3.771 1.454-5.136.307l-5.073-4.235c-.111.022-.471.17-.713.629a72.313 72.313 0 0 0-3.615 7.882 2.163 2.163 0 0 0-.139.751c0 .231.042.389.075.471 1.61.577 3.438 1.233 5.46 1.961 1.424.508 2.347 1.958 2.347 3.691 0 .286-.026.575-.077.856a230.385 230.385 0 0 0-1.042 6.412c-.304 2.048-1.802 3.535-3.561 3.538-1.912.009-3.602.018-5.019.029a2.444 2.444 0 0 0-.101.731c0 .085.003.173.01.261.301 3.37.558 5.98.832 8.466.035.341.132.593.219.746 1.555-.575 3.316-1.224 5.26-1.94.349-.13.724-.197 1.11-.197 1.412 0 2.75.888 3.493 2.316a140.516 140.516 0 0 0 3.143 5.721c.414.713.633 1.505.633 2.291 0 1.127-.459 2.159-1.261 2.831l-5.08 4.283a.405.405 0 0 0-.013.143c0 .224.117.591.447.887a59.984 59.984 0 0 0 6.889 5.314c.264.173.59.274.889.274.209 0 .326-.051.35-.069l3.127-5.461c.64-1.117 1.879-1.786 3.315-1.786.536 0 1.07.094 1.59.28 1.986.709 4.065 1.409 6.18 2.078 1.756.557 2.937 1.994 2.937 3.577 0 .178-.016.355-.046.532l-.882 5.03c.187.068.475.132.838.132H54c.364 0 .651-.065.838-.132l-.881-5.025a3.056 3.056 0 0 1-.047-.537c0-1.581 1.18-3.018 2.936-3.576 2.116-.67 4.195-1.37 6.181-2.08a4.697 4.697 0 0 1 1.588-.279c1.436 0 2.676.669 3.317 1.791l3.174 5.519c-.026-.045.093.006.301.006.298 0 .625-.102.897-.279a60.104 60.104 0 0 0 6.883-5.31c.33-.295.447-.662.447-.886 0-.111-.026-.155-.026-.156l-5.072-4.273c-.797-.669-1.257-1.701-1.257-2.829 0-.786.219-1.578.633-2.291.126-.217.249-.443.375-.662h-6.811c-4.475 4.647-10.753 7.548-17.7 7.548-13.553 0-24.58-11.025-24.58-24.576s11.027-24.576 24.58-24.576c7.34 0 13.935 3.238 18.443 8.355h17.512c.052 0 .102.007.154.008a72.458 72.458 0 0 0-3.575-7.786c-.245-.464-.605-.612-.743-.612l-5.051 4.217c-1.358 1.141-3.597 1.011-5.129-.309a118.315 118.315 0 0 0-5.045-4.109c-1.075-.829-1.715-2.047-1.715-3.26 0-.591.153-1.167.443-1.665l3.03-5.222c-.1-.105-.311-.264-.674-.356a124.44 124.44 0 0 0-8.344-1.86c-.426-.077-.923-.031-1.133.032l-.88 4.961c-.293 1.684-1.977 2.91-4.001 2.91l-.087-.001a307.363 307.363 0 0 0-6.441.001c-2.085 0-3.768-1.226-4.061-2.915l-.879-4.955c-.21-.063-.69-.112-1.147-.03a125.282 125.282 0 0 0-8.319 1.855c-.371.094-.585.254-.685.359l3.031 5.225c.289.493.443 1.07.443 1.663 0 .794-.265 1.582-.767 2.283a1.601 1.601 0 0 1-2.602-1.866c.155-.216.167-.373.167-.416l-3.149-5.468a2.843 2.843 0 0 1-.382-1.415c0-1.571 1.295-2.996 3.148-3.466a128.617 128.617 0 0 1 8.535-1.902 6.32 6.32 0 0 1 1.117-.101c1.974 0 3.426.927 3.699 2.36l.945 5.323c.031.043.326.266.847.266 2.227-.024 4.389-.024 6.563 0h.001c.546 0 .84-.223.882-.3l.931-5.27c.278-1.454 1.73-2.379 3.702-2.379.367 0 .738.033 1.103.099 2.997.566 5.873 1.207 8.56 1.908 1.842.466 3.136 1.891 3.136 3.463 0 .491-.13.978-.377 1.408l-3.143 5.418c-.01.231.136.532.458.78a121.572 121.572 0 0 1 5.18 4.219c.242.208.531.333.773.333.093 0 .169-.019.209-.053l5.083-4.242a3.135 3.135 0 0 1 2.024-.722c1.425 0 2.826.907 3.57 2.31a75.762 75.762 0 0 1 3.769 8.22 5.43 5.43 0 0 1 .357 1.912c0 .111-.013.215-.019.322a5.864 5.864 0 0 1 2.384 4.718zm-3.202 8.723V39.27c0-.712-.283-1.356-.736-1.838a2.676 2.676 0 0 0-1.956-.854H41.996a2.695 2.695 0 0 0-2.692 2.692v21.46a2.696 2.696 0 0 0 2.692 2.692h43.737a2.66 2.66 0 0 0 1.295-.347 2.684 2.684 0 0 0 1.396-2.345V47.993zM49.777 70.97a21.27 21.27 0 0 0 12.904-4.346H41.996a5.9 5.9 0 0 1-5.894-5.894V39.27a5.9 5.9 0 0 1 5.894-5.894h21.679a21.284 21.284 0 0 0-13.898-5.153c-11.788 0-21.378 9.588-21.378 21.374s9.59 21.373 21.378 21.373zm19.192-15.139a1.602 1.602 0 0 1-2.963 1.215l-2.232-5.445h-1.125v4.838a1.601 1.601 0 0 1-3.202 0V43.562c0-.884.717-1.601 1.601-1.601h3.23a4.817 4.817 0 0 1 2.633 8.85l2.058 5.02zm-6.321-7.432h1.628c.887 0 1.61-.722 1.61-1.609 0-.905-.723-1.627-1.61-1.627h-1.629v3.236z"></path></svg>