<svg xmlns="http://www.w3.org/2000/svg" xmlns:xlink="http://www.w3.org/1999/xlink" viewBox="0 0 1600 1200" id="branding-advertising-campaign"><defs><linearGradient id="a" x1="1049.32" x2="1115.49" y1="479.17" y2="479.17" gradientUnits="userSpaceOnUse"><stop offset=".43" stop-color="#c4c9e4"></stop><stop offset=".58" stop-color="#d7daed"></stop><stop offset=".85" stop-color="#f4f5fa"></stop><stop offset="1" stop-color="#fff"></stop></linearGradient><linearGradient id="k" x1="1034.74" x2="1100.93" y1="483.09" y2="483.09" gradientUnits="userSpaceOnUse"><stop offset="0" stop-color="#807dfb"></stop><stop offset=".01" stop-color="#7f7cfa"></stop><stop offset=".45" stop-color="#5e5ad1"></stop><stop offset=".79" stop-color="#4a46b8"></stop><stop offset="1" stop-color="#423eaf"></stop></linearGradient><linearGradient id="l" x1="171.19" x2="224.04" y1="813.39" y2="813.39" xlink:href="#a"></linearGradient><linearGradient id="m" x1="159.53" x2="212.41" y1="816.52" y2="816.52" gradientUnits="userSpaceOnUse"><stop offset="0" stop-color="#ff826a"></stop><stop offset=".41" stop-color="#f15e63"></stop><stop offset=".78" stop-color="#e7455e"></stop><stop offset="1" stop-color="#e33c5c"></stop></linearGradient><linearGradient id="n" x1="1029.72" x2="1110.39" y1="393.9" y2="393.9" gradientTransform="translate(-398.68)" gradientUnits="userSpaceOnUse"><stop offset="0" stop-color="#c2c9eb"></stop><stop offset=".11" stop-color="#ced3ef"></stop><stop offset=".42" stop-color="#e9ebf8"></stop><stop offset=".69" stop-color="#f9fafd"></stop><stop offset=".9" stop-color="#fff"></stop></linearGradient><linearGradient id="b" x1="1363.97" x2="1383.22" y1="490.35" y2="480.03" gradientTransform="rotate(-9.2 430.416 5057.12)" gradientUnits="userSpaceOnUse"><stop offset="0" stop-color="#423eaf"></stop><stop offset=".49" stop-color="#302b8e"></stop><stop offset="1" stop-color="#20196f"></stop></linearGradient><linearGradient id="o" x1="1292.12" x2="1311.37" y1="912.66" y2="902.34" gradientTransform="rotate(64.49 1365.125 16.544)" xlink:href="#b"></linearGradient><linearGradient id="p" x1="785.03" x2="851.56" y1="249.53" y2="249.53" gradientTransform="matrix(-1 0 0 1 1423.37 0)" gradientUnits="userSpaceOnUse"><stop offset="0" stop-color="#362e94"></stop><stop offset="1" stop-color="#6b67e9"></stop></linearGradient><linearGradient id="q" x1="1440.47" x2="1195.03" y1="598.35" y2="598.35" gradientUnits="userSpaceOnUse"><stop offset="0" stop-color="#fff"></stop><stop offset="1" stop-color="#c4cae8"></stop></linearGradient><linearGradient id="c" x1="1093.01" x2="1297.03" y1="564.02" y2="564.02" gradientUnits="userSpaceOnUse"><stop offset=".4" stop-color="#ced3f8"></stop><stop offset=".55" stop-color="#bec3e9"></stop><stop offset=".57" stop-color="#bbc0e6"></stop></linearGradient><linearGradient id="r" x1="523.44" x2="330.47" y1="705.16" y2="705.16" gradientUnits="userSpaceOnUse"><stop offset="0" stop-color="#fff"></stop><stop offset="1" stop-color="#d1d7f3"></stop></linearGradient><linearGradient id="s" x1="250.27" x2="410.67" y1="678.17" y2="678.17" xlink:href="#c"></linearGradient><linearGradient id="t" x1="500.48" x2="639.32" y1="543.59" y2="543.59" gradientTransform="translate(-66.89)" gradientUnits="userSpaceOnUse"><stop offset=".01" stop-color="#dae0f5"></stop><stop offset=".27" stop-color="#e5e9f8"></stop><stop offset="1" stop-color="#fff"></stop></linearGradient><linearGradient id="u" x1="1894.42" x2="1917.29" y1="407.14" y2="446.75" gradientTransform="matrix(-1 0 0 1 2305.07 0)" gradientUnits="userSpaceOnUse"><stop offset=".01" stop-color="#5652cc"></stop><stop offset="1" stop-color="#20196f"></stop></linearGradient><linearGradient id="v" x1="1906.91" x2="1929.78" y1="399.93" y2="439.54" gradientTransform="matrix(-1 0 0 1 2305.07 0)" gradientUnits="userSpaceOnUse"><stop offset=".01" stop-color="#00d6dc"></stop><stop offset="1" stop-color="#009aaa"></stop></linearGradient><linearGradient id="w" x1="1843.18" x2="1888.83" y1="410.43" y2="489.5" gradientTransform="matrix(-1 0 0 1 2305.07 0)" gradientUnits="userSpaceOnUse"><stop offset=".42" stop-color="#807dfb"></stop><stop offset=".45" stop-color="#7a77f4"></stop><stop offset=".49" stop-color="#6b68e1"></stop><stop offset=".55" stop-color="#524ec2"></stop><stop offset=".57" stop-color="#423eaf"></stop></linearGradient><linearGradient id="d" x1="1858.1" x2="1891.19" y1="414.66" y2="414.66" gradientTransform="matrix(-1 0 0 1 2305.07 0)" gradientUnits="userSpaceOnUse"><stop offset=".01" stop-color="#423eaf"></stop><stop offset=".24" stop-color="#20196f"></stop></linearGradient><linearGradient id="x" x1="1847.65" x2="1880.75" y1="420.69" y2="420.69" xlink:href="#d"></linearGradient><linearGradient id="y" x1="1837.21" x2="1870.31" y1="426.72" y2="426.72" xlink:href="#d"></linearGradient><linearGradient id="z" x1="1826.77" x2="1859.87" y1="432.75" y2="432.75" xlink:href="#d"></linearGradient><linearGradient id="A" x1="1721.45" x2="1819.42" y1="419.95" y2="589.63" gradientTransform="matrix(-1 0 0 1 2305.07 0)" gradientUnits="userSpaceOnUse"><stop offset="0" stop-color="#00d6dc"></stop><stop offset=".76" stop-color="#009aaa"></stop></linearGradient><linearGradient id="B" x1="1765.96" x2="1848.92" y1="412.32" y2="556.03" gradientTransform="matrix(-1 0 0 1 2305.07 0)" gradientUnits="userSpaceOnUse"><stop offset="0" stop-color="#fff"></stop><stop offset=".09" stop-color="#f8f9fe"></stop><stop offset=".7" stop-color="#ced3f8"></stop></linearGradient><linearGradient id="C" x1="1614.4" x2="1760.12" y1="362.45" y2="614.85" gradientTransform="matrix(-1 0 0 1 2305.07 0)" gradientUnits="userSpaceOnUse"><stop offset=".24" stop-color="#009aaa"></stop><stop offset=".43" stop-color="#00a4b2"></stop><stop offset=".75" stop-color="#00bdc7"></stop><stop offset="1" stop-color="#00d6dc"></stop></linearGradient><linearGradient id="D" x1="1777.35" x2="1687.49" y1="501.14" y2="553.03" gradientTransform="matrix(-1 0 0 1 2305.07 0)" gradientUnits="userSpaceOnUse"><stop offset="0" stop-color="#423eaf"></stop><stop offset=".43" stop-color="#5e5ad1"></stop><stop offset="1" stop-color="#807dfb"></stop></linearGradient><linearGradient id="E" x1="1672.64" x2="1786.58" y1="399.36" y2="596.72" gradientTransform="matrix(-1 0 0 1 2305.07 0)" gradientUnits="userSpaceOnUse"><stop offset=".42" stop-color="#a3a9d0"></stop><stop offset="1" stop-color="#ced3f8"></stop></linearGradient><linearGradient id="F" x1="1747.69" x2="1775.43" y1="486.2" y2="534.25" gradientTransform="matrix(-1 0 0 1 2305.07 0)" gradientUnits="userSpaceOnUse"><stop offset="0" stop-color="#f1f1f6"></stop><stop offset=".25" stop-color="#eaebf4"></stop><stop offset=".61" stop-color="#d7daee"></stop><stop offset="1" stop-color="#bbc0e6"></stop></linearGradient><linearGradient id="G" x1="1726.85" x2="1754.61" y1="498.24" y2="546.33" gradientTransform="matrix(-1 0 0 1 2305.07 0)" gradientUnits="userSpaceOnUse"><stop offset="0" stop-color="#f6f6fb"></stop><stop offset=".31" stop-color="#eff0fa"></stop><stop offset=".74" stop-color="#dce0f9"></stop><stop offset="1" stop-color="#ced3f8"></stop></linearGradient><linearGradient id="H" x1="1754.06" x2="1781.8" y1="482.53" y2="530.57" gradientTransform="matrix(-1 0 0 1 2305.07 0)" gradientUnits="userSpaceOnUse"><stop offset="0" stop-color="#dae0f5"></stop><stop offset="1" stop-color="#fff"></stop></linearGradient><linearGradient id="I" x1="843.35" x2="1212.12" y1="754.28" y2="754.28" gradientUnits="userSpaceOnUse"><stop offset="0" stop-color="#d1d7f3"></stop><stop offset="1" stop-color="#fff"></stop></linearGradient><linearGradient id="f" x1="1162.8" x2="1406.53" y1="754.27" y2="754.27" gradientUnits="userSpaceOnUse"><stop offset="0" stop-color="#c4c9e4"></stop><stop offset=".19" stop-color="#d7daed"></stop><stop offset=".48" stop-color="#edeef7"></stop><stop offset=".75" stop-color="#fafbfd"></stop><stop offset="1" stop-color="#fff"></stop></linearGradient><linearGradient id="J" x1="802.41" x2="918.99" y1="655.76" y2="655.76" gradientUnits="userSpaceOnUse"><stop offset=".43" stop-color="#c2c8e7"></stop><stop offset=".56" stop-color="#c9ceea"></stop><stop offset=".74" stop-color="#dbdef1"></stop><stop offset=".96" stop-color="#f9f9fd"></stop><stop offset="1" stop-color="#fff"></stop></linearGradient><linearGradient id="K" x1="843.38" x2="901.65" y1="645.35" y2="645.35" gradientUnits="userSpaceOnUse"><stop offset="0" stop-color="#c2c8e7"></stop><stop offset=".92" stop-color="#fff"></stop></linearGradient><linearGradient id="L" x1="785.08" x2="901.67" y1="666.91" y2="666.91" gradientUnits="userSpaceOnUse"><stop offset="0" stop-color="#807df9"></stop><stop offset="1" stop-color="#362e92"></stop></linearGradient><linearGradient id="M" x1="843.38" x2="872.3" y1="633.02" y2="633.02" gradientUnits="userSpaceOnUse"><stop offset="0" stop-color="#c2c8e7"></stop><stop offset="1" stop-color="#fff"></stop></linearGradient><linearGradient id="e" x1="814.41" x2="872.34" y1="647.09" y2="647.09" gradientUnits="userSpaceOnUse"><stop offset="0" stop-color="#ff826a"></stop><stop offset=".01" stop-color="#ff816a"></stop><stop offset=".67" stop-color="#eb4f60"></stop><stop offset="1" stop-color="#e33c5c"></stop></linearGradient><linearGradient id="N" x1="828.89" x2="857.85" y1="610.79" y2="610.79" gradientUnits="userSpaceOnUse"><stop offset="0" stop-color="#ff5a72"></stop><stop offset=".61" stop-color="#d93c5c"></stop><stop offset="1" stop-color="#c62c51"></stop></linearGradient><linearGradient id="O" x1="828.89" x2="857.85" y1="590.02" y2="590.02" gradientUnits="userSpaceOnUse"><stop offset="0" stop-color="#fff"></stop><stop offset=".14" stop-color="#fbfcfe"></stop><stop offset="1" stop-color="#e8ecf7"></stop></linearGradient><linearGradient id="P" x1="719.1" x2="967.65" y1="498.03" y2="498.03" xlink:href="#e"></linearGradient><linearGradient id="Q" x1="729.02" x2="957.72" y1="407.54" y2="407.54" gradientUnits="userSpaceOnUse"><stop offset="0" stop-color="#e33c5c"></stop><stop offset=".21" stop-color="#e6445e"></stop><stop offset=".54" stop-color="#ee5962"></stop><stop offset=".93" stop-color="#fc7b69"></stop><stop offset="1" stop-color="#ff826a"></stop></linearGradient><linearGradient id="R" x1="510.3" x2="728.24" y1="873.14" y2="873.14" gradientUnits="userSpaceOnUse"><stop offset="0" stop-color="#c6cbe7"></stop><stop offset=".18" stop-color="#dfe1f1"></stop><stop offset=".37" stop-color="#f1f2f9"></stop><stop offset=".57" stop-color="#fbfcfe"></stop><stop offset=".79" stop-color="#fff"></stop></linearGradient><linearGradient id="S" x1="471.63" x2="551.52" y1="853.88" y2="853.88" gradientUnits="userSpaceOnUse"><stop offset="0" stop-color="#5555c6"></stop><stop offset="1" stop-color="#34318f"></stop></linearGradient><linearGradient id="T" x1="469.24" x2="553.97" y1="853.97" y2="853.97" gradientUnits="userSpaceOnUse"><stop offset=".03" stop-color="#7f7ff4"></stop><stop offset="1" stop-color="#4141aa"></stop></linearGradient><linearGradient id="V" x1="468.92" x2="554.24" y1="826.79" y2="826.79" gradientUnits="userSpaceOnUse"><stop offset="0" stop-color="#fff"></stop><stop offset=".32" stop-color="#eceff9"></stop><stop offset=".66" stop-color="#e0e4f5"></stop><stop offset="1" stop-color="#dce1f4"></stop></linearGradient><linearGradient id="W" x1="527.57" x2="500.01" y1="811.77" y2="764.02" gradientUnits="userSpaceOnUse"><stop offset="0"></stop><stop offset=".12" stop-color="#391d18"></stop><stop offset=".24" stop-color="#6d382d"></stop><stop offset=".37" stop-color="#9a4e40"></stop><stop offset=".5" stop-color="#be614f"></stop><stop offset=".62" stop-color="#db6f5b"></stop><stop offset=".75" stop-color="#ef7a63"></stop><stop offset=".88" stop-color="#fb8068"></stop><stop offset="1" stop-color="#ff826a"></stop></linearGradient><linearGradient id="X" x1="421.37" x2="488.7" y1="946.49" y2="946.49" xlink:href="#f"></linearGradient><linearGradient id="Y" x1="1024.96" x2="1104.6" y1="904.97" y2="904.97" xlink:href="#f"></linearGradient><linearGradient id="Z" x1="1364.13" x2="1420.52" y1="790.93" y2="790.93" xlink:href="#f"></linearGradient><linearGradient id="g" x1="722.82" x2="843.56" y1="955.25" y2="955.25" gradientUnits="userSpaceOnUse"><stop offset="0" stop-color="#c6cbe7"></stop><stop offset=".26" stop-color="#cfd3eb"></stop><stop offset=".68" stop-color="#e8eaf5"></stop><stop offset="1" stop-color="#fff"></stop></linearGradient><linearGradient id="aa" x1="608.74" x2="729.48" y1="955.25" y2="955.25" xlink:href="#g"></linearGradient><linearGradient id="ab" x1="607.48" x2="823.32" y1="974.65" y2="974.65" gradientUnits="userSpaceOnUse"><stop offset="0" stop-color="#7f7ff4"></stop><stop offset=".11" stop-color="#7574e6"></stop><stop offset=".51" stop-color="#5250b7"></stop><stop offset=".82" stop-color="#3c399a"></stop><stop offset="1" stop-color="#34318f"></stop></linearGradient><linearGradient id="h" x1="846.74" x2="867.52" y1="1043.01" y2="1007.02" gradientUnits="userSpaceOnUse"><stop offset="0" stop-color="#4141aa"></stop><stop offset=".21" stop-color="#4949b3"></stop><stop offset=".56" stop-color="#5e5ecc"></stop><stop offset="1" stop-color="#7f7ff4"></stop></linearGradient><linearGradient id="ac" x1="805.61" x2="826.4" y1="1019.25" y2="983.25" xlink:href="#g"></linearGradient><linearGradient id="ad" x1="899.21" x2="933.62" y1="1070.04" y2="1050.17" xlink:href="#h"></linearGradient><linearGradient id="ae" x1="-657.86" x2="-571.79" y1="1020.96" y2="1170.03" gradientTransform="matrix(.87 .5 0 1.15 1466.16 -690.4)" gradientUnits="userSpaceOnUse"><stop offset="0" stop-color="#00d6dc"></stop><stop offset=".63" stop-color="#00adba"></stop><stop offset="1" stop-color="#009aaa"></stop></linearGradient><linearGradient id="i" x1="1419.77" x2="1504.94" y1="981.17" y2="981.17" gradientTransform="translate(-228.07)" gradientUnits="userSpaceOnUse"><stop offset="0" stop-color="#c4cae8"></stop><stop offset=".09" stop-color="#ced3ec"></stop><stop offset=".41" stop-color="#e9ebf6"></stop><stop offset=".69" stop-color="#f9fafd"></stop><stop offset=".9" stop-color="#fff"></stop></linearGradient><linearGradient id="af" x1="1417.01" x2="1502.18" y1="958.58" y2="958.58" gradientTransform="translate(-186.01)" xlink:href="#i"></linearGradient><linearGradient id="j" x1="-1906.89" x2="-1875.49" y1="955.57" y2="955.57" gradientTransform="translate(3115.13)" gradientUnits="userSpaceOnUse"><stop offset="0" stop-color="#423eaf"></stop><stop offset=".3" stop-color="#3a35a0"></stop><stop offset=".89" stop-color="#241e77"></stop><stop offset="1" stop-color="#1f196f"></stop></linearGradient><linearGradient id="ag" x1="-1945.71" x2="-1914.31" y1="978.17" y2="978.17" xlink:href="#j"></linearGradient><linearGradient id="ah" x1="-1932.07" x2="-1878.78" y1="903.15" y2="903.15" gradientTransform="translate(3115.13)" gradientUnits="userSpaceOnUse"><stop offset="0" stop-color="#423eaf"></stop><stop offset=".3" stop-color="#353097"></stop><stop offset=".75" stop-color="#251f7a"></stop><stop offset="1" stop-color="#1f196f"></stop></linearGradient><linearGradient id="ai" x1="2023.06" x2="2115.29" y1="927.34" y2="927.34" gradientTransform="matrix(-.99 -.11 -.11 .99 3355.48 97.87)" gradientUnits="userSpaceOnUse"><stop offset="0" stop-color="#ff5a72"></stop><stop offset=".55" stop-color="#ff736d"></stop><stop offset="1" stop-color="#ff826a"></stop></linearGradient><linearGradient id="aj" x1="2064.03" x2="2092.53" y1="980.55" y2="900.53" gradientTransform="matrix(-.99 -.11 -.11 .99 3355.48 97.87)" gradientUnits="userSpaceOnUse"><stop offset="0" stop-color="#ffaf6d"></stop><stop offset=".11" stop-color="#ffa96d"></stop><stop offset=".67" stop-color="#ff8d6b"></stop><stop offset="1" stop-color="#ff826a"></stop></linearGradient><radialGradient id="U" cx="476.8" cy="737.91" r="134.37" gradientUnits="userSpaceOnUse"><stop offset="0" stop-color="#ffaf6d"></stop><stop offset=".32" stop-color="#ffac6d"></stop><stop offset=".51" stop-color="#ffa46e"></stop><stop offset=".67" stop-color="#ff966e"></stop><stop offset=".82" stop-color="#ff8170"></stop><stop offset=".95" stop-color="#ff6771"></stop><stop offset="1" stop-color="#ff5a72"></stop></radialGradient></defs><g data-name="Man"><path d="M1105.72,465.61c-6.92-4-16.11-5.83-25.14-5.56h-14.16v2.32a37.79,37.79,0,0,0-7.49,3.24c-12.87,7.49-12.8,19.62.16,27.11a37.56,37.56,0,0,0,7.33,3.18v2.42h17c8.17-.14,16.26-2,22.47-5.6C1118.75,485.23,1118.68,473.1,1105.72,465.61Z" style="mix-blend-mode:multiply" fill="url(#a)"></path><path fill="url(#k)" d="M1044.5,492.73c-6.52-3.77-9.78-8.71-9.76-13.64l0-11.26c0,4.94,3.24,9.88,9.76,13.65,13,7.48,33.91,7.48,46.79,0,6.4-3.73,9.6-8.59,9.61-13.46l0,11.25c0,4.87-3.21,9.73-9.61,13.45C1078.42,500.22,1057.47,500.22,1044.5,492.73Z"></path><path fill="#f6f6fb" d="M1044.53,481.48c-13-7.48-13-19.62-.16-27.1s33.84-7.48,46.8,0,13,19.62.15,27.11S1057.5,489,1044.53,481.48Z"></path><polygon fill="#bbc0e6" points="1084.82 466.39 1060.34 467.63 1061.1 462.13 1054.34 462.13 1052.5 472.16 1084.82 470.3 1084.82 466.39"></polygon><path d="M216.24,802.56c-5.53-3.19-12.87-4.66-20.09-4.44H184.84V800a30.15,30.15,0,0,0-6,2.59c-10.28,6-10.22,15.67.13,21.65a30,30,0,0,0,5.85,2.54v1.94h13.57c6.52-.11,13-1.59,18-4.47C226.64,818.23,226.59,808.54,216.24,802.56Z" style="mix-blend-mode:multiply" fill="url(#l)"></path><path fill="url(#m)" d="M167.34,824.22c-5.21-3-7.82-7-7.81-10.9l0-9c0,3.95,2.59,7.9,7.8,10.91,10.35,6,27.09,6,37.37,0,5.11-3,7.67-6.86,7.68-10.75l0,9c0,3.89-2.57,7.77-7.68,10.75C194.42,830.2,177.69,830.2,167.34,824.22Z"></path><path fill="#f6f6fb" d="M167.36,815.24c-10.35-6-10.41-15.67-.13-21.65s27-6,37.38,0,10.41,15.67.12,21.65S177.71,821.21,167.36,815.24Z"></path><polygon fill="#bbc0e6" points="199.54 803.18 179.99 804.18 180.59 799.78 175.19 799.78 173.72 807.79 199.54 806.3 199.54 803.18"></polygon><polygon points="711.71 387.23 631.05 387.23 636.51 400.57 711.71 400.57 711.71 387.23" style="mix-blend-mode:multiply" fill="url(#n)"></polygon><path fill="url(#b)" d="M620.33,381.92c-3.87.63-5,6.88-3.05,10.8a15.16,15.16,0,0,0,4.24,2.61s12.24,5,15,5.24,8.87-.8,9.37-5.51c-.47-2.87-2.88-3.66-5.85-5.42-3.86-2.29-7.17-5.62-10.28-7.15C627.19,381.23,620.33,381.92,620.33,381.92Z"></path><path fill="#fcd1a9" d="M627.77,377.94c-1.89.31-8,1.81-8,1.81s-2.26,6.3,1.3,7.42c6.89,2.16,12.76-2.46,10-4C629.34,382.11,627.55,380.93,627.77,377.94Z"></path><path fill="#131147" d="M636.43,399.31c-2.84-.22-15.44-5.38-15.44-5.38a16.47,16.47,0,0,1-4.23-2.57,8.88,8.88,0,0,0,.52,1.36,15.16,15.16,0,0,0,4.24,2.61s12.24,5,15,5.24,8.87-.8,9.37-5.51c0-.1,0-.18-.07-.28C644.51,398.65,639,399.53,636.43,399.31Z"></path><path fill="#362e94" d="M632.33,384.08c-.51-.68-1.7-2.5-3.81-1s-2.69,3.45-2.44,5,4.8.41,5,.17S632.33,384.08,632.33,384.08Z"></path><path fill="#fff" d="M634.41 386a9.33 9.33 0 00-4.11 4 1.24 1.24 0 01-2.24-1.06 11.69 11.69 0 015.38-5.22 1.25 1.25 0 011.63.66A1.23 1.23 0 01634.41 386zM638.23 388.48a9.21 9.21 0 00-4.1 4 1.24 1.24 0 01-1.66.58 1.23 1.23 0 01-.58-1.65 11.64 11.64 0 015.38-5.22 1.23 1.23 0 011.62.66A1.25 1.25 0 01638.23 388.48z"></path><path fill="#fcd1a9" d="M622.32,254.29c6.2,23,10.57,41.07,10.57,59.57,0,21.16-4.91,47.37-5.14,65.1.2,5.44-6,9.71-8.58,4.9-.11-1.58.57-3.57.35-5.9-1.28-13.75-6.75-40.53-1.41-56.54-5.35-23.16-25.39-46.95-23.2-65.12C601.61,253,617.19,252.66,622.32,254.29Z"></path><polygon fill="#423eaf" points="613.16 261.72 613.16 265.59 609.81 263.66 613.16 261.72"></polygon><path fill="url(#o)" d="M540.35,330.86c-1.69-3.54-8-2.87-11.23.09a15.2,15.2,0,0,0-1.32,4.8s-1.39,13.16-.83,15.86,3.26,8.29,7.91,7.46c2.63-1.26,2.71-3.8,3.57-7.14,1.12-4.35,3.39-8.46,4-11.87C542.92,337.25,540.35,330.86,540.35,330.86Z"></path><path fill="#fcd1a9" d="M546.25,336.89c-.83-1.73-4-7.14-4-7.14s-6.68-.4-6.75,3.32c-.15,7.23,5.93,11.57,6.67,8.53C542.69,339.56,543.32,337.51,546.25,336.89Z"></path><path fill="#131147" d="M528.15,351.18c-.58-2.79.85-16.32.85-16.32a16.36,16.36,0,0,1,1.29-4.79,9.41,9.41,0,0,0-1.17.88,15.2,15.2,0,0,0-1.32,4.8s-1.39,13.16-.83,15.86,3.26,8.29,7.91,7.46c.09-.05.16-.11.25-.15C531.05,358.76,528.67,353.73,528.15,351.18Z"></path><path fill="#362e94" d="M541.63,343c.51-.68,1.93-2.34-.1-3.94s-4.07-1.62-5.51-.94,1,4.72,1.23,4.82S541.63,343,541.63,343Z"></path><path fill="#fff" d="M540.34 345.53a9.24 9.24 0 00-5-2.82 1.25 1.25 0 01.39-2.46 11.75 11.75 0 016.52 3.71 1.25 1.25 0 01-.18 1.75A1.24 1.24 0 01540.34 345.53zM539.06 349.89a9.2 9.2 0 00-5-2.83 1.24 1.24 0 01.4-2.45 11.71 11.71 0 016.52 3.7 1.25 1.25 0 01-1.93 1.58z"></path><path fill="#fcd1a9" d="M583.55 313.42c-17.85 1.15-25.47 10.84-39.59 15.81-2.2.78-3.61.24-5.8 1-3.88 3.85 1.93 8.65 7.1 6.94 17.09-4.75 51.18-9.27 53.85-21.61zM647.42 100.33c-.76-.76-2.64 6.92-2.6 6.23.38-6.4.18-10.55-.3-10.55-.69 0-1.58 8.18-1.58 10.34 0-2.16-.11-8-1.37-9.4-.43-.48-.79 7.47-.79 9.7 0-2.44-.46-9.39-1.62-9.26s-.59 7.4-.14 9.79c0 0-3.56-4.44-3.56-2.72 0 1.08 2.15 3.16 2.15 7.55 0 3.06.91 3.34.93 4.49-1 16.34-2.84 33.21-5.65 39.67-1.33 3-9.37 14.32-21.35 21.39a14.16 14.16 0 006.62 12.15c16.43-13.3 21.45-21.42 23.67-29.09 3.88-13.32 4-40.22 4-44.44l.12-.06C646.45 112.3 648 100.92 647.42 100.33z"></path><path fill="url(#p)" d="M590.76,235.62c1.75-16-5.78-31-7.16-41-.87-6.3-1.5-13.66,4.2-15.44a90.42,90.42,0,0,1,13.29-3.28c9.67-1.74,12.55,1.24,16.27,7.5,4.25,7.15,8.4,14.91,10.34,22.73.87,3.5-8.77,11.11-7.65,26.23,8.54,12.92,12.51,42.11,15.12,65,1,6.91,6.49,14.38.21,17.95-12.87,7.33-49.43,11.37-57.32,5.46-3.35-2.51-6.15-7.4-6.25-9.57C588.37,295.8,577.8,251.17,590.76,235.62Z"></path><path fill="#fcd1a9" d="M596.8,161.65c.22-3.78,11.92,3.74,11.63,8.73-.24,4.06.48,8.15,2,8.68,1.77,1.27,7,14.75,3.86,17.9-11-4.5-16.51-13.42-24.22-18.43C594.07,177.71,596.1,173.9,596.8,161.65Z"></path><path fill="#0f0e49" d="M618.24,146.79c7.55,18.78,1.25,31.58-3.44,36.31.69-5-4.26-8.91-6.15-10C610.29,169.69,618.24,146.79,618.24,146.79Z"></path><path fill="#fbc096" d="M604.65,178.24a9.4,9.4,0,0,0,4.83-.13c-.85-1.54-1.23-4.64-1.05-7.73.29-5-11.41-12.51-11.63-8.73,0,.62-.07,1.2-.12,1.77l.38.09C595.68,170.34,599,176.85,604.65,178.24Z"></path><path fill="#fcd1a9" d="M593.56,158.34l3.45-8.63h21.85v13.15c0,7.27-4.89,13.15-10.93,13.15-5.85,0-10.59-5.54-10.87-12.5l-1.52,0Z"></path><path fill="#0f0e49" d="M606.5,140.55h.2c11.92.31,12.82,9.21,12.16,10.69-3.78,1.35-6.16-1.21-8.54-1-1.14.1-2.88,1.54-4.81,4-2.07,2.65-4.32,6.08-6.27,6-.85,0-1.11-2.88-2.37-3a2.14,2.14,0,0,0-2,2.56c.16,2.19,2.23,3.52,1.93,4.57-.51,1.75-4.87-1.38-4.78-7.6S596.22,140.13,606.5,140.55Z"></path><path fill="#0f0e49" d="M596.79,164.36c0,2.86,5.47,18.92,8.72,20.87-5.55,1.1-15.48-3.76-16.26-9.47-.42-5.51-2.76-27.31,11.18-34,1.05,1.37-7.4,13.37-6.87,15.46A23.28,23.28,0,0,0,596.79,164.36Z"></path><path fill="#fcd1a9" d="M588.37,181.49c-8.47-5.2-12.9-11.2-16.71-17.59-4.92-8.24-7.21-25.15-7.9-33.6,0-.19,0-.37,0-.55h0c1.14-3.67,4.62-13.28,4.15-14-.61-.89-3.75,5-3.57,4.34,1.4-5.21,3.43-8.08,2.15-9-.55-.39-3.57,6.32-4,8.45.39-2.12,2.28-8.2,1-9.49-.33-.55-2.76,7.2-3.17,9.39.45-2.4,1.83-9.09.67-9.4s-2.5,7-2.5,9.6c-.54,0,.34-2.77-.7-3.81-.87-.86-2.09,2.87-1.13,7.87.58,3,.89,4.82.67,6,.3,18.08,2.27,33.77,5.88,40.8,2.11,4.32,11.37,18.13,17.65,22.51C593.13,201.61,597.75,187.27,588.37,181.49Z"></path><rect width="245.44" height="110.65" x="1195.03" y="543.02" style="mix-blend-mode:multiply" fill="url(#q)"></rect><path fill="#f6f6fb" d="M1179.18,529.48l-79.6-46c-4.38-2.53-6.57-5.84-6.57-9.15s2.19-6.62,6.57-9.15l79.6-46a35,35,0,0,1,31.68,0l79.61,46c4.37,2.53,6.56,5.84,6.56,9.16s-2.19,6.61-6.56,9.14l-79.61,46a35.08,35.08,0,0,1-31.68,0Z"></path><path fill="url(#c)" d="M1290.47,483.52l-79.61,46a35.08,35.08,0,0,1-31.68,0l-79.6-46c-4.38-2.53-6.57-5.84-6.57-9.15v120.4c0,3.32,2.19,6.62,6.57,9.15l79.6,46a35,35,0,0,0,31.68,0l79.61-46c4.37-2.53,6.56-5.83,6.56-9.15V474.37C1297,477.68,1294.84,481,1290.47,483.52Z"></path><rect width="192.97" height="87" x="330.47" y="661.66" style="mix-blend-mode:multiply" fill="url(#r)"></rect><path fill="#f6f6fb" d="M318,651l-62.58-36.13c-3.44-2-5.16-4.59-5.16-7.2s1.72-5.2,5.16-7.19L318,564.36a27.52,27.52,0,0,1,24.91,0l62.59,36.13c3.44,2,5.16,4.59,5.16,7.2s-1.72,5.2-5.16,7.19L342.92,651A27.52,27.52,0,0,1,318,651Z"></path><path fill="url(#s)" d="M405.51,614.88,342.92,651A27.52,27.52,0,0,1,318,651l-62.58-36.13c-3.44-2-5.16-4.59-5.16-7.2v94.67c0,2.61,1.72,5.2,5.16,7.19L318,745.67a27.52,27.52,0,0,0,24.91,0l62.59-36.13c3.44-2,5.16-4.58,5.16-7.19V607.68C410.67,610.29,409,612.89,405.51,614.88Z"></path><path fill="#ced3f8" d="M346.35,617.28H312.17V597.55c0-2.09,1.38-4.19,4.15-5.79,5.53-3.19,14.5-3.19,20,0a7.91,7.91,0,0,1,4,4.46l.87,4.32,7.49.5a19.26,19.26,0,0,1,7.71,2.29c5.53,3.19,5.53,8.37,0,11.56A20.45,20.45,0,0,1,346.35,617.28Z"></path><polygon fill="#ced3f8" points="1179.27 483.33 1150.29 478.13 1175.06 468.01 1174.67 450.49 1199 460.97 1227.74 455.34 1217.99 471.93 1236.14 485.98 1205.8 485.75 1188.27 500.06 1179.27 483.33"></polygon><polygon points="572.42 551.52 572.42 530.76 451.62 542.29 433.59 548.24 447.76 556.41 572.42 551.52" style="mix-blend-mode:multiply" fill="url(#t)"></polygon><path fill="url(#u)" d="M383.93,418.11a33,33,0,0,1,11.43-12.06c4.46-2.58,8.5-2.82,11.43-1.14L426,416l-22.87,39.61-19.16-11.06c-2.92-1.69-4.73-5.31-4.73-10.47A33,33,0,0,1,383.93,418.11Z"></path><path fill="#5652cc" d="M426,442.38a33.15,33.15,0,0,0,4.73-15.94c0-5.15-1.81-8.78-4.73-10.47s-7-1.44-11.44,1.13a35.77,35.77,0,0,0-16.17,28c0,5.15,1.81,8.78,4.74,10.47s7,1.44,11.43-1.14A33,33,0,0,0,426,442.38Z"></path><path fill="url(#v)" d="M378.1,414.75a33,33,0,0,1,11.44-12.06c4.46-2.58,8.5-2.82,11.43-1.13l5.82,3.36c-2.93-1.69-7-1.45-11.43,1.13a35.73,35.73,0,0,0-16.17,28c0,5.16,1.81,8.78,4.73,10.47l-5.82-3.36c-2.92-1.69-4.73-5.31-4.73-10.47A33.11,33.11,0,0,1,378.1,414.75Z"></path><polygon fill="#5652cc" points="433.59 548.24 447.76 556.41 438.74 479.82 409.12 462.72 433.59 548.24"></polygon><polygon fill="#362e94" points="447.76 556.41 458.06 550.47 449.04 473.87 438.74 479.82 447.76 556.41"></polygon><path fill="url(#w)" d="M396.19,425.2a13.87,13.87,0,0,1,4.78-5.05l36.09-20.84c1.86-1.07,3.55-1.17,4.78-.46l62.94,36.34-45.65,79.06-62.94-36.33c-1.23-.71-2-2.23-2-4.38V431.87A14,14,0,0,1,396.19,425.2Z"></path><path fill="#5652cc" d="M506.77,439.56c0-2.15-.77-3.66-2-4.37s-2.92-.61-4.78.46l-36.09,20.84a15,15,0,0,0-6.77,11.72v41.67c0,2.15.76,3.67,2,4.37s2.92.62,4.78-.46L500,493a15,15,0,0,0,6.77-11.72Z"></path><path fill="url(#d)" d="M446.12,408.67l-26.06,15.05h0a5.52,5.52,0,0,1-5-.2c-1.47-.85-1.63-2.13-.36-2.87h0l26.06-15h0a5.52,5.52,0,0,1,5,.21c1.47.85,1.63,2.13.36,2.86Z"></path><path fill="url(#x)" d="M456.56,414.71l-26.06,15h0a5.49,5.49,0,0,1-5-.21c-1.47-.84-1.63-2.12-.36-2.86h0l26.06-15.05h0a5.54,5.54,0,0,1,5,.21c1.47.85,1.63,2.13.35,2.87Z"></path><path fill="url(#y)" d="M467,420.73l-26.07,15h0a5.52,5.52,0,0,1-5-.2c-1.47-.85-1.63-2.13-.35-2.87h0l26.06-15h0a5.52,5.52,0,0,1,5,.21c1.47.85,1.63,2.13.36,2.86Z"></path><path fill="url(#z)" d="M477.45,426.76l-26.06,15.05h0a5.54,5.54,0,0,1-5-.2c-1.46-.85-1.62-2.13-.35-2.87h0l26.06-15.05h0a5.52,5.52,0,0,1,5,.21c1.47.85,1.63,2.13.36,2.86Z"></path><polygon fill="#362e94" points="401.24 463.56 416.02 472.1 416.02 455.79 401.24 447.25 401.24 463.56"></polygon><path fill="url(#A)" d="M506.79,489.05c11.29-19.56,26.89-36.63,44.12-46.58,9.2-5.3,17.92-8,25.78-8.46l34.63,1.93L512,604.86,494.7,578.28c-4-7.18-6.19-16.5-6.19-27.71C488.51,530.67,495.49,508.61,506.79,489.05Z"></path><path fill="url(#B)" d="M453.29,514.79c-2.91-4.33-4.58-10.28-4.58-17.66,0-11.49,4-24.22,10.56-35.52s15.53-21.15,25.48-26.9c6.79-3.92,13.14-5.41,18.57-4.77L576.69,434c-7.86.42-16.58,3.16-25.78,8.46-17.23,9.95-32.83,27-44.12,46.58s-18.28,41.62-18.28,61.52c0,11.21,2.23,20.53,6.19,27.71l-41.41-63.49Z"></path><path fill="#037284" d="M622.89,556.08c12.86-22.26,20.81-47.36,20.81-70s-8-38.57-20.81-46-30.61-6.35-50.23,5-37.37,30.76-50.23,53-20.81,47.37-20.81,70,7.95,38.57,20.81,46,30.61,6.35,50.23-5S610,578.35,622.89,556.08Z"></path><path fill="url(#C)" d="M551.71,588.37c17.55-10.13,33.44-27.52,44.93-47.43s18.62-42.37,18.62-62.63c0-14.07-3.44-25.22-9.39-33a31.66,31.66,0,0,1,11.72,3.91c11.5,6.64,18.61,20.88,18.61,41.14s-7.11,42.71-18.61,62.62-27.38,37.3-44.93,47.43-33.43,11.09-44.93,4.45a31.52,31.52,0,0,1-9.23-8.17C528.16,598,539.54,595.4,551.71,588.37Z"></path><path fill="url(#D)" d="M527.73,501.14c11.5-19.92,27.39-37.3,44.93-47.43,12.18-7,23.55-9.63,33.21-8.36,6,7.74,9.39,18.89,9.39,33,0,20.26-7.12,42.71-18.62,62.63s-27.38,37.3-44.93,47.43c-12.17,7-23.55,9.63-33.21,8.36-6-7.74-9.38-18.89-9.38-33C509.12,543.51,516.23,521.06,527.73,501.14Z"></path><path fill="url(#E)" d="M527.73,501.14c11.5-19.92,27.39-37.3,44.93-47.43,12.18-7,23.55-9.63,33.21-8.36,6,7.74,9.39,18.89,9.39,33,0,20.26-7.12,42.71-18.62,62.63s-27.38,37.3-44.93,47.43c-12.17,7-23.55,9.63-33.21,8.36-6-7.74-9.38-18.89-9.38-33C509.12,543.51,516.23,521.06,527.73,501.14Z"></path><path fill="url(#F)" d="M545.42,543.35l-29.35-16.94a152.78,152.78,0,0,1,27.74-48l29.35,16.94Z"></path><path fill="url(#G)" d="M545.39,511.34c3.56-6.16,8.47-11.52,13.89-14.65s10.32-3.43,13.88-1.38a27.72,27.72,0,0,1-26.36,48.75,9.05,9.05,0,0,1-1.41-.66c-3.55-2-5.75-6.45-5.75-12.71S541.84,517.49,545.39,511.34Z"></path><path d="M526.91,523.34c0-6.26,2.2-13.2,5.76-19.35s8.46-11.52,13.88-14.65,10.32-3.43,13.87-1.38l-16.61-9.59a152.78,152.78,0,0,0-27.74,48l16.08,9.28C528.91,533.52,526.91,529.28,526.91,523.34Z" style="mix-blend-mode:multiply" fill="url(#H)"></path><polygon fill="#bbc0e6" points="843.37 754.27 938.51 699.34 938.51 589.49 843.37 644.41 843.37 754.27"></polygon><polygon fill="#ced3f8" points="843.37 754.27 748.24 699.34 748.24 589.49 843.37 644.41 843.37 754.27"></polygon><polygon fill="#f6f6fb" points="843.37 644.41 748.24 589.49 843.37 534.57 938.51 589.49 843.37 644.41"></polygon><polygon fill="#bbc0e6" points="703.71 809.2 798.86 754.27 798.86 644.41 703.71 699.34 703.71 809.2"></polygon><polygon fill="#c2caef" points="703.71 809.2 608.58 754.27 608.58 644.41 703.71 699.34 703.71 809.2"></polygon><polygon fill="#e8ecf7" points="703.71 699.34 608.58 644.41 703.71 589.5 798.86 644.41 703.71 699.34"></polygon><polygon points="1021.85 644.43 843.35 644.43 1033.64 754.27 843.35 864.13 1021.85 864.13 1212.12 754.27 1021.85 644.43" style="mix-blend-mode:multiply" fill="url(#I)"></polygon><polygon fill="#b1b8e0" points="938.49 809.2 1033.64 754.27 1033.64 644.41 938.49 699.34 938.49 809.2"></polygon><polygon fill="#ced3f8" points="938.49 809.2 843.37 754.27 843.37 644.41 938.49 699.34 938.49 809.2"></polygon><polygon fill="#e8ecf7" points="938.49 699.34 843.37 644.41 938.49 589.5 1033.64 644.41 938.49 699.34"></polygon><polygon fill="#bbc0e6" points="843.35 864.13 938.49 809.2 938.49 699.35 843.35 754.27 843.35 864.13"></polygon><polygon fill="#ced3f8" points="843.35 864.13 748.22 809.2 748.22 699.35 843.35 754.27 843.35 864.13"></polygon><polygon fill="#f6f6fb" points="843.35 754.27 748.22 699.35 843.35 644.43 938.49 699.35 843.35 754.27"></polygon><path fill="#423eaf" d="M657.58,757.37l-21.69-12.52V687.64l19.28,11.13a44.91,44.91,0,0,1,8.68,6.41,28.32,28.32,0,0,1,5.5,6.93A25.78,25.78,0,0,1,672.68,724c0,4.48-1.26,7.08-3.76,7.82a7.17,7.17,0,0,1-1.77.41c-.33,0-.92,0-1.77-.08a29,29,0,0,1,7.33,9,22.68,22.68,0,0,1,2.73,10.62q0,6-3.54,8.51Q667.79,763.27,657.58,757.37ZM647,717.19l5.24,3c3.07,1.77,5.36,2.71,6.84,2.8s2.24-1.13,2.24-3.66a9.26,9.26,0,0,0-2.06-6.22,26.82,26.82,0,0,0-7-5.24L647,704.83Zm0,23.24,7.58,4.38c3.17,1.83,5.54,2.75,7.13,2.76s2.37-1.3,2.37-4a9.5,9.5,0,0,0-2.52-6.69,34.89,34.89,0,0,0-8-5.91L647,727.26Z"></path><path fill="#5652cc" d="M815.72,784.76q0,13.75-9.43,12.32l12.55,27.71-13.61-7.86-11-24.6-7.65-4.42v18.26l-11.06-6.39V742.57l18.78,10.85q11.55,6.66,16.48,14A30.35,30.35,0,0,1,815.72,784.76Zm-13.33-.9c1.37-.62,2.06-2.48,2.06-5.56a12.6,12.6,0,0,0-2.13-7.57q-2.13-3-7.44-6l-8.29-4.79v17l8.08,4.66Q800.34,784.8,802.39,783.86Z"></path><path fill="#362e94" d="M906.88,802.26l-4.61-9.69-20.76,12-4.61,15-11.77,6.8,21.41-69.57,10.7-6.18,21.41,44.85Zm-15-31.55-6.24,20.22,12.4-7.16Z"></path><path fill="#20196f" d="M998.54,692.14l11.06-6.39V743l-11.06,6.39-23.6-22.22V763l-11.06,6.39V712.15l10.35-6L998.54,729Z"></path><polygon points="1311.91 699.63 1162.8 699.63 1257.44 754.27 1162.8 808.91 1311.91 808.91 1406.53 754.27 1311.91 699.63" style="mix-blend-mode:multiply" fill="url(#f)"></polygon><polygon fill="#bbc0e6" points="1162.8 808.91 1257.44 754.27 1257.44 644.99 1162.8 699.63 1162.8 808.91"></polygon><polygon fill="#ced3f8" points="1162.8 808.91 1068.17 754.27 1068.17 644.99 1162.8 699.63 1162.8 808.91"></polygon><polygon fill="#f6f6fb" points="1162.8 699.63 1068.17 644.99 1162.8 590.37 1257.44 644.99 1162.8 699.63"></polygon><path fill="#423eaf" d="M1130.87,715.1A46.87,46.87,0,0,1,1138,740q0,13.34-6.91,17.13t-21.09-4.4L1093,743V685.75l17.51,10.11A56.13,56.13,0,0,1,1130.87,715.1Zm-8.12,29.33q4.08-2.07,4.08-10.5a29.55,29.55,0,0,0-4.08-15.33,33.58,33.58,0,0,0-12.51-11.77l-6.17-3.56v34.79l7,4.05Q1118.68,746.49,1122.75,744.43Z"></path><polygon points="703.71 809.2 748.22 809.2 748.24 783.49 703.71 809.2" style="mix-blend-mode:multiply" fill="#d1d7f3"></polygon><path fill="#ff5a72" d="M744.86,455.68v-11c-11.74-6.77-20.59-21.73-20.59-34.78V365.3l27.91,16.11v-11l-37.4-21.59v55.59C714.78,423.43,728,445.94,744.86,455.68Z"></path><polygon fill="#ff826a" points="714.77 348.85 724.27 343.37 761.68 364.96 752.18 370.44 714.77 348.85"></polygon><path fill="#e33c5c" d="M733.77,370.79v33.65c0,13.06,8.85,28,20.59,34.79l-9.5,5.48c-11.74-6.77-20.59-21.73-20.59-34.78V365.3Z"></path><path d="M819.48,632c22.76-13.14,59.67-13.14,82.44,0s22.76,34.45,0,47.59-59.68,13.14-82.44,0S796.72,645.11,819.48,632Z" style="mix-blend-mode:multiply" fill="url(#J)"></path><path fill="#fff" d="M802.15,620.61c22.77-13.14,59.68-13.14,82.44,0s22.77,34.45,0,47.6-59.67,13.14-82.44,0S779.39,633.76,802.15,620.61Z"></path><path d="M843.38,661.13H894c9.64-9.71,10.22-21.6,1.72-31.57h-52.3Z" style="mix-blend-mode:multiply" fill="url(#K)"></path><path fill="url(#L)" d="M884.59,668.21c-22.76,13.14-59.67,13.14-82.44,0-11.38-6.58-17.07-15.19-17.07-23.8h0v11.35c0,8.62,5.69,17.24,17.07,23.8,22.77,13.14,59.68,13.14,82.44,0,11.39-6.56,17.08-15.18,17.08-23.8V644.41C901.67,653,896,661.63,884.59,668.21Z"></path><path fill="#ff826a" d="M822.89,621.23c11.31-6.53,29.66-6.53,41,0s11.31,17.12,0,23.64-29.65,6.53-41,0S811.58,627.76,822.89,621.23Z"></path><path d="M843.38,641.41h25c5.19-5.18,5.17-11.61-.07-16.78h-25Z" style="mix-blend-mode:multiply" fill="url(#M)"></path><path fill="url(#e)" d="M863.85,644.87c-11.3,6.53-29.65,6.53-41,0-5.65-3.26-8.48-7.54-8.48-11.82h0v11.36h0c0,4.28,2.83,8.56,8.48,11.82,11.31,6.53,29.66,6.53,41,0,5.66-3.26,8.49-7.54,8.49-11.82V633.05C872.34,637.33,869.51,641.61,863.85,644.87Z"></path><path fill="url(#N)" d="M828.89,580.17v52.88h0c0,2.14,1.42,4.28,4.25,5.91,5.65,3.26,14.82,3.26,20.47,0,2.83-1.63,4.24-3.77,4.24-5.91V580.17Z"></path><path d="M828.89,591.51c0,2.14,1.42,4.27,4.25,5.91,5.65,3.26,14.82,3.26,20.47,0,2.83-1.64,4.24-3.77,4.24-5.91V580.17h-29Z" style="mix-blend-mode:multiply" fill="url(#O)"></path><path fill="url(#P)" d="M967.65,407.54H719.1c0,87.67,61.1,181,124.28,181h0C906.55,588.52,967.65,495.21,967.65,407.54Z"></path><path fill="#ffaf6d" d="M755.5,356.8c48.53-28,127.22-28,175.75,0s48.53,73.45,0,101.47-127.22,28-175.75,0S707,384.82,755.5,356.8Z"></path><path fill="url(#Q)" d="M762.52,360.86c44.65-25.79,117.06-25.79,161.71,0s44.66,67.58,0,93.36-117.05,25.78-161.71,0S717.86,386.64,762.52,360.86Z"></path><path fill="#e33c5c" d="M954.09,566.63l1.2-6.32s8-7.67,8-12.92V491.8h0l9.5-5.49v55.6c0,8.9-2.92,15.21-7.75,18.4h0Z"></path><path fill="#ff5a72" d="M933.16,563.89c16.86,9.74,30.08,2.49,30.08-16.5V491.8l-37.41-21.6v11l27.91,16.11v44.63c0,13.05-8.85,17.79-20.58,11Z"></path><polygon fill="#ff826a" points="925.83 470.2 935.33 464.71 972.74 486.31 963.24 491.8 925.83 470.2"></polygon><path fill="#ff826a" d="M952,550.48c-3.15,6.16-10.19,7.41-18.8,2.44l9.5-5.48A20.52,20.52,0,0,0,952,550.48Z"></path><polygon points="728.24 859.16 528.45 859.16 510.3 873.14 511.58 887.12 679.81 887.12 728.24 859.16" style="mix-blend-mode:multiply" fill="url(#R)"></polygon><path fill="#4141aa" d="M476.14,867.59c9.68,9.68,30.53,18.3,35.44,19.53,4.9-1.23,25.75-9.85,35.43-19.53A634.66,634.66,0,0,0,476.14,867.59Z"></path><path fill="url(#S)" d="M471.63,827.75v29.19c0,5.9,3.9,11.81,11.7,16.31,15.6,9,40.89,9,56.49,0,7.8-4.5,11.7-10.41,11.7-16.31V827.75Z"></path><path fill="url(#T)" d="M553.91,842.61a2.5,2.5,0,0,0-1.26-2,15.84,15.84,0,0,0,1.32-6.29,2.61,2.61,0,0,0-2.39-2.32c-1.19,0,0,2.32,0,2.32H551c0,5.76-4,11.24-11.24,15.42-15.54,9-40.83,9-56.36,0-7.25-4.18-11.25-9.66-11.25-15.42h-.61s1.19-2.32,0-2.32a2.5,2.5,0,0,0-2.32,2.32,15.83,15.83,0,0,0,1.31,6.26,2.52,2.52,0,0,0-1.31,2,15.78,15.78,0,0,0,1.31,6.25,2.55,2.55,0,0,0-1.31,2c0,6.85,4.51,13.23,12.71,18,16.35,9.44,43,9.44,59.31,0,8.2-4.74,12.71-11.12,12.71-18a2.71,2.71,0,0,0-1.32-2A14.81,14.81,0,0,0,553.91,842.61Zm-14.12,23.71c-15.54,9-40.83,9-56.36,0-6.81-3.93-10.75-9-11.2-14.37a29,29,0,0,0,9.72,8.63c16.35,9.44,43,9.44,59.31,0A28.79,28.79,0,0,0,551,852C550.53,857.32,546.6,862.39,539.79,866.32Zm0-8.29c-15.54,9-40.83,9-56.36,0-6.81-3.93-10.75-9-11.2-14.37a28.88,28.88,0,0,0,9.72,8.63c16.35,9.44,43,9.44,59.31,0a28.69,28.69,0,0,0,9.72-8.63C550.53,849,546.6,854.1,539.79,858Z"></path><path fill="url(#U)" d="M582.34,758.22A70.77,70.77,0,1,0,462.21,808.9c5.37,5.39,6.71,15.15,6.71,17.88,0,6.31,4.16,12.61,12.49,17.42,16.66,9.62,43.67,9.62,60.33,0,8.33-4.81,12.5-11.11,12.5-17.42,0-2.73,1.33-12.49,6.75-17.91A70.54,70.54,0,0,0,582.34,758.22Z"></path><path d="M481.41,809.37c16.66-9.62,43.67-9.62,60.33,0s16.66,25.21,0,34.83-43.67,9.62-60.33,0S464.75,819,481.41,809.37Z" style="mix-blend-mode:multiply" fill="url(#V)"></path><path fill="#fff" d="M455.1,762.77a4.55,4.55,0,0,1-4.55-4.55,61.09,61.09,0,0,1,61-61,4.55,4.55,0,1,1,0,9.1,52,52,0,0,0-51.93,51.92A4.54,4.54,0,0,1,455.1,762.77Z"></path><path d="M527.39,749.83a2.76,2.76,0,0,0-2.84,0c-2,1.13-3.41,4.81-4.35,9.5-.63-1.88-1.45-3.29-2.53-3.91a2.76,2.76,0,0,0-2.84,0c-2,1.13-3.4,4.81-4.34,9.5-.63-1.87-1.46-3.29-2.53-3.91a2.75,2.75,0,0,0-2.85,0c-1.95,1.13-3.4,4.81-4.34,9.5-.63-1.88-1.46-3.29-2.53-3.91a2.76,2.76,0,0,0-2.84,0c-3.67,2.12-5.6,13.25-5.6,23.15,0,10.08,2.41,13.06,4.73,15.94,2.45,3.05,5,6.19,5,19.64a1.47,1.47,0,1,0,2.94,0c0-14.49-3-18.21-5.64-21.48-2.18-2.72-4.07-5.06-4.07-14.1,0-11.21,2.37-19.49,4.09-20.57,1,.63,2.68,5.59,2.68,15a1.47,1.47,0,0,0,2.94,0c0-11.21,2.37-19.49,4.09-20.57.95.63,2.69,5.59,2.69,15a1.47,1.47,0,0,0,2.94,0c0-11.23,2.37-19.5,4.09-20.58,1,.63,2.68,5.59,2.68,15a1.48,1.48,0,0,0,2.95,0c0-11.22,2.36-19.5,4.08-20.58,1,.63,2.69,5.59,2.69,15s-2.09,14.39-4.32,19.76c-2.53,6.12-5.4,13.06-5.4,27.05a1.48,1.48,0,0,0,2.95,0c0-13.4,2.63-19.77,5.17-25.93,2.34-5.64,4.54-11,4.54-20.88C531.61,760.08,530.5,751.63,527.39,749.83Z" style="mix-blend-mode:screen" fill="url(#W)"></path><polygon points="462.56 931.4 421.37 931.4 447.52 946.49 421.37 961.59 462.56 961.59 488.7 946.49 462.56 931.4" style="mix-blend-mode:multiply" fill="url(#X)"></polygon><polygon fill="#5652cc" points="421.37 961.59 447.52 946.49 447.52 916.31 421.37 931.4 421.37 961.59"></polygon><polygon fill="#807dfb" points="421.37 961.59 395.23 946.49 395.23 916.31 421.37 931.4 421.37 961.59"></polygon><polygon fill="#f6f6fb" points="421.37 931.4 395.23 916.31 421.37 901.22 447.52 916.31 421.37 931.4"></polygon><polygon points="1073.68 887.11 1024.96 887.11 1055.89 904.97 1024.96 922.82 1073.68 922.82 1104.6 904.97 1073.68 887.11" style="mix-blend-mode:multiply" fill="url(#Y)"></polygon><polygon fill="#009aaa" points="1024.96 922.82 1055.89 904.97 1055.89 869.26 1024.96 887.11 1024.96 922.82"></polygon><polygon fill="#00d6dc" points="1024.96 922.82 994.05 904.97 994.05 869.26 1024.96 887.11 1024.96 922.82"></polygon><polygon fill="#f6f6fb" points="1024.96 887.11 994.05 869.26 1024.96 851.42 1055.89 869.26 1024.96 887.11"></polygon><polygon points="1398.63 778.28 1364.13 778.28 1386.03 790.92 1364.13 803.57 1398.63 803.57 1420.52 790.92 1398.63 778.28" style="mix-blend-mode:multiply" fill="url(#Z)"></polygon><polygon fill="#5652cc" points="1364.13 803.57 1386.03 790.92 1386.03 765.65 1364.13 778.28 1364.13 803.57"></polygon><polygon fill="#807dfb" points="1364.13 803.57 1342.24 790.92 1342.24 765.65 1364.13 778.28 1364.13 803.57"></polygon><polygon fill="#f6f6fb" points="1364.13 778.28 1342.24 765.65 1364.13 753.01 1386.03 765.65 1364.13 778.28"></polygon><path d="M812.1,911.4c-24.37-14.07-57.53-19.95-89.28-17.67,22.9,1.64,45,7.52,62.63,17.67,41.95,24.22,41.94,63.48,0,87.7-17.58,10.15-39.74,16-62.63,17.67,31.74,2.28,64.91-3.6,89.28-17.67C854,974.88,854.05,935.62,812.1,911.4Z" style="mix-blend-mode:multiply" fill="url(#g)"></path><path d="M666.86,911.4c17.57-10.15,39.73-16,62.62-17.67-31.74-2.28-64.91,3.6-89.28,17.67-42,24.22-42,63.48,0,87.7,24.37,14.07,57.54,19.95,89.28,17.67-22.89-1.64-45.05-7.52-62.62-17.67C624.9,974.88,624.9,935.62,666.86,911.4Z" style="mix-blend-mode:multiply" fill="url(#aa)"></path><path fill="#a59ba5" d="M791.73,911.51c-42.16-24.34-110.51-24.34-152.66,0s-42.16,63.8,0,88.14,110.5,24.34,152.65,0S833.88,935.85,791.73,911.51Zm-12.6,80.87c-35.2,20.32-92.27,20.32-127.47,0s-35.2-53.28,0-73.6,92.27-20.32,127.47,0S814.33,972.06,779.13,992.38Z"></path><path fill="#34318f" d="M651.66,894c35.2-20.33,92.27-20.33,127.47,0,23.1,13.34,31,32.12,23.82,49.2-3.79-8.94-11.72-17.42-23.82-24.4-35.2-20.32-92.27-20.32-127.47,0-12.09,7-20,15.46-23.81,24.4C620.62,926.1,628.56,907.32,651.66,894Z"></path><path d="M779.32,901.72c-35.19-20.32-92.26-20.32-127.45,0s-35.19,53.26,0,73.58,92.26,20.32,127.45,0S814.52,922,779.32,901.72Z" style="mix-blend-mode:screen" fill="#686a6d"></path><path d="M660.93 905.35c7.66-4.88 20.42-5.43 28.48-1.23s8.38 11.56.71 16.44S669.7 926 661.64 921.8 653.26 910.23 660.93 905.35zM699.57 896.4a13.09 13.09 0 0111.8-.5c3.33 1.73 3.46 4.78.29 6.8a13 13 0 01-11.79.51C696.53 901.47 696.4 898.43 699.57 896.4z" style="mix-blend-mode:screen" fill="#a59ba5"></path><path fill="#f7f7fc" d="M779.32,905.4c-35.19-20.32-92.26-20.32-127.45,0-16.79,9.69-25.55,22.25-26.32,35-.85-13.92,7.91-28,26.32-38.63,35.19-20.32,92.26-20.32,127.45,0,18.41,10.62,27.17,24.71,26.32,38.63C804.87,927.65,796.11,915.09,779.32,905.4Z"></path><path fill="#d0d4f6" d="M791.73,886.71c-42.16-24.33-110.51-24.33-152.66,0s-42.16,63.79,0,88.13,110.5,24.34,152.65,0S833.88,911.05,791.73,886.71Zm-12.6,80.87c-35.2,20.32-92.27,20.32-127.47,0s-35.2-53.27,0-73.59,92.27-20.33,127.47,0S814.33,947.26,779.13,967.58Z"></path><path fill="url(#ab)" d="M639.07,974.85c42.15,24.34,110.5,24.34,152.65,0,20.81-12,31.33-27.71,31.6-43.45V955h0c.28,16.16-10.24,32.36-31.59,44.69-42.15,24.34-110.5,24.34-152.65,0-21.35-12.33-31.86-28.53-31.59-44.69h0V931.51C607.8,947.22,618.31,962.87,639.07,974.85Z"></path><path fill="#f7f7fc" d="M791.72,978.17q4-2.31,7.47-4.78l18.16,10.48L801.61,993l-18.15-10.49Q787.73,980.46,791.72,978.17Z"></path><polygon fill="#d0d4f6" points="801.61 1011.13 783.46 1000.64 783.46 982.47 801.61 992.96 801.61 1011.13"></polygon><path fill="url(#h)" d="M794.78,1006c0-9.38,6.58-20.78,14.7-25.47,4.22-2.44,8-2.56,10.7-.82h0l104.66,60.42-20,36.33L800.18,1016h0C796.88,1014.8,794.78,1011.29,794.78,1006Z"></path><path d="M808.28,1020.67h0l5.11,3c-2.22-1.69-3.57-4.76-3.57-9,0-9.37,6.58-20.77,14.7-25.46,4.22-2.44,8-2.56,10.7-.82l-6.94-4v0c-2.68-1.74-6.47-1.62-10.7.82-8.12,4.69-14.7,16.09-14.7,25.46C802.87,1016,805,1019.46,808.28,1020.67Z" style="mix-blend-mode:multiply" fill="url(#ac)"></path><path fill="url(#ad)" d="M902.41,1075a20.75,20.75,0,1,0,21.69-35.32c-2.62-1.28-6.11-1-10,1.23-8.12,4.69-14.7,16.09-14.7,25.46,0,4.08,1.25,7.1,3.33,8.83Z"></path><path d="M904.82,1076.44h0Z"></path><path d="M1013.91,359.33c0,7.36-5.22,10.37-11.6,6.69l-113.44-65.5-14,10.59V292.46l-9.79-5.65c-6.38-3.68-11.6-12.72-11.6-20.08V175c0-7.37,5.22-10.38,11.6-6.69l137.19,79.2c6.38,3.69,11.6,12.72,11.6,20.09Z" style="mix-blend-mode:multiply" fill="url(#ae)"></path><g style="mix-blend-mode:screen"><polygon fill="#00b6bf" points="983.71 289.58 883.72 231.86 883.72 224.85 983.71 282.58 983.71 289.58"></polygon><polygon fill="#00b6bf" points="983.71 309.16 883.72 251.44 883.72 244.43 983.71 302.15 983.71 309.16"></polygon><polygon fill="#00b6bf" points="959.03 314.49 883.72 271.01 883.72 264 959.03 307.48 959.03 314.49"></polygon><polygon fill="#00b6bf" points="948.95 248.31 942.86 244.79 942.86 237.75 948.95 241.27 948.95 248.31"></polygon><polygon fill="#00b6bf" points="936.76 241.27 930.66 237.75 930.66 230.71 936.76 234.23 936.76 241.27"></polygon><polygon fill="#00b6bf" points="924.57 234.23 918.48 230.71 918.48 223.67 924.57 227.19 924.57 234.23"></polygon></g><rect width="85.18" height="15.66" x="1191.69" y="973.34" style="mix-blend-mode:multiply" fill="url(#i)"></rect><rect width="85.17" height="15.65" x="1230.99" y="950.75" style="mix-blend-mode:multiply" fill="url(#af)"></rect><path fill="url(#j)" d="M1239.64,961.58c0-12.3-7.8-12.66-7.8-12.66s-4.21,0-11.07-2.84-16.3-1.72-11,8.1c0,.12.11.24.18.37a4.91,4.91,0,0,0,1.73,1.51l17,10C1231.34,967.53,1239.58,964.11,1239.64,961.58Z"></path><path fill="#121047" d="M1239.59,960.48c-.14,2.52-8.28,5.88-10.85,4.41l-17-10a16.22,16.22,0,0,1-2.4-1.75c.15.33.29.66.49,1,0,.12.11.24.18.37a4.91,4.91,0,0,0,1.73,1.51l17,10c2.43,1.39,9.82-1.53,10.79-4a2.6,2.6,0,0,0,.08-.49A7.88,7.88,0,0,0,1239.59,960.48Z"></path><path fill="#fff" d="M1236.47,947.31c-2,0-9.07,1.79-9.07,1.79a4,4,0,0,1-.64,1.84l-.19.23c-1.39,1-2.81,2.5.49,4.58a4.6,4.6,0,0,0,6-.42,5.35,5.35,0,0,1,1.92-2.18,4.77,4.77,0,0,1,1.84-.78,1.59,1.59,0,0,1,0-.17S1237.31,947.31,1236.47,947.31Z"></path><path fill="#131147" d="M1235.67,827.08l-33.71.6c2.86,23.15,8.63,44.17,12.48,66.59,4.13,21.78,8.79,37.09,12.85,55.22,1.49,3.37,8.3,2.1,9.68-1.15,1.08-16.7,2.32-37-2.63-56.3C1235.16,871.28,1238,851.24,1235.67,827.08Z"></path><path fill="url(#ag)" d="M1200.82,984.17c0-12.29-7.79-12.65-7.79-12.65s-4.22,0-11.08-2.84-16.3-1.73-11,8.1a3,3,0,0,0,.18.36,4.83,4.83,0,0,0,1.73,1.52l17,10C1192.52,990.13,1200.76,986.71,1200.82,984.17Z"></path><path fill="#121047" d="M1200.78,983.07c-.15,2.52-8.29,5.89-10.86,4.41l-17-10a16.76,16.76,0,0,1-2.4-1.75c.16.34.29.66.49,1a3,3,0,0,0,.18.36,4.83,4.83,0,0,0,1.73,1.52l17,10c2.43,1.39,9.82-1.53,10.79-4a2.05,2.05,0,0,0,.08-.5A9.89,9.89,0,0,0,1200.78,983.07Z"></path><path fill="#fff" d="M1197.65,969.9c-2,0-9.07,1.8-9.07,1.8a4,4,0,0,1-.63,1.83l-.2.24c-1.39,1-2.81,2.5.5,4.57a4.58,4.58,0,0,0,6-.41,5.44,5.44,0,0,1,1.92-2.19A4.76,4.76,0,0,1,1198,975a1.59,1.59,0,0,1,0-.17S1198.49,969.9,1197.65,969.9Z"></path><path fill="url(#ah)" d="M1212.17,882.1c2.1-10,28.49-11.49,23.57-50.31-7.61-1.12-44.83,16.91-52.45,15.79-1,23.29,1.3,45,1.44,67.72.52,22.16,2.62,38,3.67,56.58.91,3.58,7.84,3.43,9.73.45,3.79-16.3,8.34-36.17,6.6-56C1207,905.38,1209.7,893.75,1212.17,882.1Z"></path><path fill="#e33c5c" d="M1233.32,774.56c2.36-7.84,4.6-36.15,4-43.42s-10.71-40.6-10.71-40.6c-2.66,1.35-7.53,3.47-7.53,3.47,1.06,4.57,7.39,33.1,7.54,38.76s-1.88,26.45-4.22,28.69S1233.32,774.56,1233.32,774.56Z"></path><path fill="url(#ai)" d="M1165.3,716.81c1.34,6.2,6.64,25.7,11.2,35.75,2.21,4.87,9.28,11.44,14.45,15.42a6,6,0,0,0,6.71.39c1.88-1.12,4-2.57,6.29-4.22,5.47-4,9.31-7.9,11.92-8.14,21.55-1.93,20.48,32.79,21.31,76.58-2.83,10.47-9.8,16.56-17.86,20-16.38,6.91-32.5,5.12-36.8-6.13,4.28-19.56,7.66-35,5.83-54.39a74.25,74.25,0,0,1-23.3-32.82c-5-14.82-7.64-36.18-7.94-40C1157.11,719.24,1160.57,718.17,1165.3,716.81Z"></path><path fill="#fcd1a9" d="M1228.23,761.44c-3.43-4.52-3.56-11-2.9-15.54a22.47,22.47,0,0,0,1.33-7.81c-.06-10.08-6.53-18.74-14.39-18.14-15.83,1.19-13,9.51-12.9,19.58.07,9.33,4.34,15.72,11.42,16.76,0,1.53-1.45,4.31-3.85,5.59,4,4.48,11.69,5.28,14.94,4.86C1225.34,766.29,1229.64,764.21,1228.23,761.44Z"></path><path fill="#121149" d="M1206.29,714.66c.46-1.23,2.9-1.9,10.87,1.74l2,1c14.7,7.45,10,24.64,7.46,29.13a9.28,9.28,0,0,0-1.52,5.41c-5.93-.6-8,2.62-11.6-.94-2.58-2.55-6.49-5.59-7.11-6.8a4.67,4.67,0,0,1-.38-2.92c.49-8.35-3.68-3.48-3.66-1.56-1.53-.86-1.23-4.21-.89-7.93h0C1189.27,721.39,1196.55,715.22,1206.29,714.66Z"></path><path fill="#fcd1a9" d="M1164.47 717.05c-.35-1.16-.47-3.37.5-4.44s2.12-6.42-1-7.24c.11-1-2.2-3.41-5.75-1.38s-4.65 5.38-3.72 7.53 3.1 5.67 3.42 7.47C1159.1 718.63 1164.47 717.05 1164.47 717.05zM1225.82 690.92c-.45-1.64 1-6.28-.1-8.5s-2.85-4.39-5.82-3-4 3.12-3.77 4.7a3.32 3.32 0 00.61 4.87c2.1 1.7 2.75 2.56 3.26 4.65C1221.12 693.1 1225.82 690.92 1225.82 690.92z"></path><path fill="url(#aj)" d="M1167.18,764.53c4.36,8,18.38,21.46,22.74,23.05s7.32,4.6,7.06,5.51-3.47,6.35-3.29,13.58-1.6,37.72-10.6,41a12.36,12.36,0,0,1-.57-1.22c4.28-19.56,7.66-35,5.83-54.39C1179.38,785,1171.82,774.66,1167.18,764.53Z"></path></g></svg>