<svg xmlns="http://www.w3.org/2000/svg" viewBox="0 0 512 512" id="designing-book"><path d="M488 32H75.695A31.989 31.989 0 0 0 16 48v416a32.036 32.036 0 0 0 32 32h376a8 8 0 0 0 8-8v-40h56a8 8 0 0 0 8-8V40a8 8 0 0 0-8-8ZM48 32a16.018 16.018 0 0 1 16 16v384H48a31.794 31.794 0 0 0-16 4.305V48a16.018 16.018 0 0 1 16-16Zm368 448H48a16 16 0 0 1 0-32h368Zm64-48H80V48h400Z"></path><path d="M124 144a28 28 0 0 0 0 56h8a27.892 27.892 0 0 0 18.81-7.276A23.925 23.925 0 0 0 168 200v-16a8.01 8.01 0 0 1-8-8v-40a32 32 0 0 0-64 0h16a16 16 0 0 1 32 0v8zm8 40h-8a12 12 0 0 1 0-24h20v12a12.014 12.014 0 0 1-12 12zm79.923-16h40.154l12.39 34.69 15.067-5.38-40-112a8 8 0 0 0-15.068 0l-40 112 15.068 5.38zM232 111.786 246.362 152h-28.724zM296 96h168v16H296zM296 128h40v16h-40zM352 128h112v16H352zM296 160h88v16h-88zM130.343 314.343a8 8 0 0 0 0 11.314l72 72a8 8 0 0 0 11.314 0l56-56a8 8 0 0 0 0-11.314l-44.146-44.145 6.194-22.712A31.261 31.261 0 0 0 201.545 224a31.394 31.394 0 0 0-30.058 22.673l-10.61 37.137zM252.687 336 208 380.687 147.313 320 192 275.313l15.632 15.632-7.35 26.95 15.436 4.21 4.945-18.129zm-65.815-84.932A15.325 15.325 0 0 1 201.546 240a15.26 15.26 0 0 1 14.723 19.276l-3.789 13.89-14.823-14.823a8 8 0 0 0-11.314 0l-2.17 2.17zM120 400a24.027 24.027 0 0 0 24-24v-3.156a23.924 23.924 0 0 0-4.03-13.312l-13.314-19.97a8 8 0 0 0-13.312 0l-13.314 19.97A23.925 23.925 0 0 0 96 372.844V376a24.027 24.027 0 0 0 24 24zm-8-27.156a7.979 7.979 0 0 1 1.343-4.437l6.657-9.985 6.656 9.984a7.978 7.978 0 0 1 1.344 4.438V376a8 8 0 0 1-16 0zM384 320h16v16h-16zM416 320h48v16h-48zM384 352h16v16h-16zM416 352h48v16h-48zM384 384h16v16h-16zM416 384h48v16h-48zM456 224h-64a8 8 0 0 0-8 8v64a8 8 0 0 0 8 8h64a8 8 0 0 0 8-8v-64a8 8 0 0 0-8-8Zm-8 64h-48v-48h48ZM288 320h16v16h-16zM320 320h48v16h-48zM288 352h16v16h-16zM320 352h48v16h-48zM288 384h16v16h-16zM320 384h48v16h-48zM296 304h64a8 8 0 0 0 8-8v-64a8 8 0 0 0-8-8h-64a8 8 0 0 0-8 8v64a8 8 0 0 0 8 8Zm8-64h48v48h-48Z"></path></svg>