<svg xmlns="http://www.w3.org/2000/svg" viewBox="0 0 128 128" id="mobile-apps"><path d="M23 108V20h64v30h4V8c0-4.4-3.6-8-8-8H27c-4.4 0-8 3.6-8 8v112c0 4.4 3.6 8 8 8h56c4.4 0 8-3.6 8-8v-12H23zM27 4h56c2.206 0 4 1.794 4 4v8H23V8c0-2.206 1.794-4 4-4zm60 116c0 2.206-1.794 4-4 4H27c-2.206 0-4-1.794-4-4v-8h64v8z"></path><path d="M48 120h14a2 2 0 0 0 0-4H48a2 2 0 0 0 0 4zM45.5 12h9a2 2 0 0 0 0-4h-9a2 2 0 0 0 0 4z"></path><circle cx="62.5" cy="10" r="2"></circle><path d="M52 32c0-4.4-3.6-8-8-8h-8c-4.4 0-8 3.6-8 8v8c0 4.4 3.6 8 8 8h8c4.4 0 8-3.6 8-8v-8zm-4 8c0 2.206-1.794 4-4 4h-8c-2.206 0-4-1.794-4-4v-8c0-2.206 1.794-4 4-4h8c2.206 0 4 1.794 4 4v8zM66 24c-4.4 0-8 3.6-8 8v8c0 4.4 3.6 8 8 8h8c4.4 0 8-3.6 8-8v-8c0-4.4-3.6-8-8-8h-8zm12 8v8c0 2.206-1.794 4-4 4h-8c-2.206 0-4-1.794-4-4v-8c0-2.206 1.794-4 4-4h8c2.206 0 4 1.794 4 4zM52 60c0-4.4-3.6-8-8-8h-8c-4.4 0-8 3.6-8 8v8c0 4.4 3.6 8 8 8h8c4.4 0 8-3.6 8-8v-8zm-4 8c0 2.206-1.794 4-4 4h-8c-2.206 0-4-1.794-4-4v-8c0-2.206 1.794-4 4-4h8c2.206 0 4 1.794 4 4v8zM44 80h-8c-4.4 0-8 3.6-8 8v8c0 4.4 3.6 8 8 8h8c4.4 0 8-3.6 8-8v-8c0-4.4-3.6-8-8-8zm4 16c0 2.206-1.794 4-4 4h-8c-2.206 0-4-1.794-4-4v-8c0-2.206 1.794-4 4-4h8c2.206 0 4 1.794 4 4v8zM100 54H66c-4.4 0-8 3.6-8 8v34c0 .059.007.114.009.172l.001.026c.107 4.31 3.657 7.802 7.99 7.802h34c4.4 0 8-3.6 8-8V62c0-4.4-3.6-8-8-8zM68.857 88.347l-.053 2.85L62 93.291V76.275l6.857 4.158v7.914zM104 96c0 2.206-1.794 4-4 4H66a3.995 3.995 0 0 1-3.735-2.605l8.138-2.506c.279.216.584.404.92.544a5.16 5.16 0 0 0 1.987.38c.09 0 .178-.002.26-.006.468.316 1.11.706 1.957.952.362.105.737.159 1.113.159h.738c.053.003.106.004.159.004h3.35l4.349.006h.005c.072 0 .145-.002.217-.006h5.43c3.34 0 6.057-2.744 6.057-6.118 0-.156-.006-.31-.017-.462a6.133 6.133 0 0 0 1.292-3.774c0-.288-.02-.572-.058-.85a6.131 6.131 0 0 0 1.013-3.384c0-.34-.027-.674-.079-1a6.13 6.13 0 0 0 .904-3.213c0-3.302-2.605-5.79-6.06-5.79l-5.43-.006c.222-1.242.342-2.323.287-2.872-.21-2.077-.7-6.95-4.563-8.806a6.321 6.321 0 0 0-3.072-.638c-1.333.073-2.61.606-3.689 1.544-2.343 2.028-2.21 4.844-2.147 6.197.01.196.02.39.02.58v.844c-.509 1.22-2.354 4.347-2.99 5.427-.195.33-.352.595-.48.816-.345.23-.795.522-1.165.758a3.991 3.991 0 0 0-.511.394L62 71.6V62c0-2.206 1.794-4 4-4h34c2.206 0 4 1.794 4 4v34zM79.346 68.33c0-1.322-.336-2.817.75-3.758.366-.317.804-.543 1.289-.57l.1-.002c.353 0 .699.1 1.017.253 1.746.839 2.14 3.867 2.315 5.604.095.933-1.182 6.112-1.433 6.464l10.556.01c1.138 0 2.06.618 2.06 1.79 0 1.171-.922 2.12-2.06 2.12h-.509c.988.155 1.744 1.03 1.744 2.093 0 1.17-.92 2.12-2.058 2.12h-.865c1.095.049 1.968.975 1.968 2.114 0 1.171-.92 2.12-2.059 2.12H90.98c1.095.05 1.965.976 1.965 2.116 0 1.17-.92 2.118-2.057 2.118H85.24v.006l-4.354-.006h-3.35l.008-.003-.9-.001c-.719-.209-1.248-.825-1.932-1.089a1.334 1.334 0 0 0-.48-.074c-.304 0-.629.057-.923.057a1.19 1.19 0 0 1-.453-.074v-3.365l.169-8.926v-.004c.474-.304 1.873-1.208 1.925-1.328.263-.606 4.396-7.155 4.396-8.447V68.33z"></path></svg>