<svg xmlns="http://www.w3.org/2000/svg" enable-background="new 0 0 512 512" viewBox="0 0 512 512" id="image-editing-application"><path d="M305.5,323.5h-92.7c-5.7,0-11.1,1.6-15.6,4.5h-29.7c-0.3,0-0.5,0-0.8,0H83.8c-6.4,0-11.7-5.2-11.7-11.7v-44.7
		c0-6.5,5.2-11.7,11.7-11.7h82.8c0.3,0,0.5,0,0.8,0h15.9V279c0,16.2,13.2,29.4,29.4,29.4h258.5c16.2,0,29.4-13.2,29.4-29.4v-71.8
		c0-16.2-13.2-29.4-29.4-29.4H212.8c-16.2,0-29.4,13.2-29.4,29.4V218h-15.9c-0.3,0-0.6-0.1-0.9-0.1H83.8c-6.4,0-11.7-5.2-11.7-11.7
		v-44.7c0-6.4,5.2-11.7,11.7-11.7h82.8c0.4,0,0.8,0,1.2-0.1h20.6c5.3,7.7,14.2,12.8,24.3,12.8h258.5c16.2,0,29.4-13.2,29.4-29.4
		v-13.1V92V29.4c0-16.2-13.2-29.4-29.4-29.4H212.8c-16.2,0-29.4,13.2-29.4,29.4v4.3H53.2c-23.1,0-41.8,18.8-41.8,41.8v323.7
		c0,0,0,0,0,0v70.9c0,23.1,18.8,41.8,41.8,41.8h234.9c23.1,0,41.8-18.8,41.8-41.8V441c3.1-4.7,5-10.3,5-16.3v-71.8
		C334.9,336.7,321.7,323.5,305.5,323.5z M305.5,338.7c7.8,0,14.2,6.4,14.2,14.2v71.8c0,7.8-6.4,14.2-14.2,14.2h-92.7
		c-7.8,0-14.2-6.4-14.2-14.2v-59.6v-10.4v-1.8c0-7.8,6.4-14.2,14.2-14.2H305.5z M167.3,425.2c-0.2,0-0.4,0-0.6,0H72.1v-43.6
		c0-6.5,5.2-11.7,11.7-11.7h82.8c0.1,0,0.1,0,0.2,0h16.5v54.8c0,0.2,0,0.4,0,0.5H167.3z M198.6,207.2c0-7.8,6.4-14.2,14.2-14.2
		h258.5c7.8,0,14.2,6.4,14.2,14.2V279c0,7.8-6.4,14.2-14.2,14.2H212.8c-7.8,0-14.2-6.4-14.2-14.2V207.2z M198.6,29.4
		c0-7.8,6.4-14.2,14.2-14.2h258.5c7.8,0,14.2,6.4,14.2,14.2V92v28.1v13.2c0,7.8-6.4,14.2-14.2,14.2H212.8c-7.8,0-14.2-6.4-14.2-14.2
		V29.4z M26.6,75.6c0-14.7,11.9-26.6,26.6-26.6h130.2v52.3H26.6V75.6z M26.6,399.2V116.5h156.8v16.8c0,0.5,0,1,0,1.5h-16.8h-21.2
		H83.8c-14.8,0-26.9,12.1-26.9,26.9v44.7c0,14.8,12.1,26.9,26.9,26.9h82.8c0.3,0,0.6,0,0.9-0.1h15.9v11.5h-16.7h-21.2H83.8
		c-14.8,0-26.9,12.1-26.9,26.9v44.7c0,14.8,12.1,26.9,26.9,26.9h61.6h21.2H185c-1.1,3-1.7,6.3-1.7,9.7v1.8h-16.2c-0.2,0-0.4,0-0.5,0
		H83.8c-14.8,0-26.9,12.1-26.9,26.9v43.6H26.6V399.2z M288.1,496.8H53.2c-14.7,0-26.6-11.9-26.6-26.6v-29.8h140.1c0,0,0.1,0,0.1,0
		h21.2c5.2,8.2,14.4,13.7,24.8,13.7h92.7c3.2,0,6.3-0.5,9.2-1.5v17.6C314.7,484.8,302.8,496.8,288.1,496.8z"></path><path d="M471.2 323.5h-92.7c-16.2 0-29.4 13.2-29.4 29.4v71.8c0 16.2 13.2 29.4 29.4 29.4h92.7c16.2 0 29.4-13.2 29.4-29.4v-71.8C500.6 336.7 487.5 323.5 471.2 323.5zM485.4 424.7c0 7.8-6.4 14.2-14.2 14.2h-92.7c-6.8 0-12.5-4.8-13.9-11.1l46.6-42.2 41.3 41.3c3 3 7.8 3 10.8 0 3-3 3-7.8 0-10.8L451 403.8l34.4-21.2V424.7zM485.4 364.7L485.4 364.7 440 392.7l-23.1-23.1c-2.9-2.9-7.5-3-10.5-.3l-42.1 38.1v-54.6c0-7.8 6.4-14.2 14.2-14.2h92.7c7.8 0 14.2 6.4 14.2 14.2V364.7zM227.2 54h171.6 29 29c4.2 0 7.6-3.4 7.6-7.6 0-4.2-3.4-7.6-7.6-7.6h-29-29H227.2c-4.2 0-7.6 3.4-7.6 7.6S223 54 227.2 54zM227.2 88.9h229.6c4.2 0 7.6-3.4 7.6-7.6 0-4.2-3.4-7.6-7.6-7.6H227.2c-4.2 0-7.6 3.4-7.6 7.6C219.6 85.5 223 88.9 227.2 88.9zM227.2 123.9h229.6c4.2 0 7.6-3.4 7.6-7.6 0-4.2-3.4-7.6-7.6-7.6H227.2c-4.2 0-7.6 3.4-7.6 7.6C219.6 120.5 223 123.9 227.2 123.9zM227.2 233.2h229.6c4.2 0 7.6-3.4 7.6-7.6 0-4.2-3.4-7.6-7.6-7.6H227.2c-4.2 0-7.6 3.4-7.6 7.6C219.6 229.8 223 233.2 227.2 233.2zM227.2 268.2H260h25.2 171.6c4.2 0 7.6-3.4 7.6-7.6 0-4.2-3.4-7.6-7.6-7.6H285.3 260h-32.8c-4.2 0-7.6 3.4-7.6 7.6C219.6 264.8 223 268.2 227.2 268.2zM227.2 377.5h67.2c4.2 0 7.6-3.4 7.6-7.6 0-4.2-3.4-7.6-7.6-7.6h-67.2c-4.2 0-7.6 3.4-7.6 7.6C219.6 374.1 223 377.5 227.2 377.5zM227.2 412.4h67.2c4.2 0 7.6-3.4 7.6-7.6 0-4.2-3.4-7.6-7.6-7.6h-67.2c-4.2 0-7.6 3.4-7.6 7.6C219.6 409 223 412.4 227.2 412.4z"></path></svg>