<svg xmlns="http://www.w3.org/2000/svg" enable-background="new 0 0 100 100" viewBox="0 0 100 100" id="content-creation"><path d="M3.6 94.7H2c-.6 0-1 .4-1 1s.4 1 1 1h1.6c.6 0 1-.4 1-1S4.2 94.7 3.6 94.7zM98 94.7h-2.6c-.6 0-1 .4-1 1s.4 1 1 1H98c.6 0 1-.4 1-1S98.5 94.7 98 94.7zM38.4 19H21.3c-.6 0-1 .4-1 1s.4 1 1 1h17.1c.6 0 1-.4 1-1S38.9 19 38.4 19zM31.7 60.4c-1.3 0-2.3 1.1-2.3 2.4v14.3c0 1.3 1 2.4 2.3 2.4h21.2c1.3 0 2.3-1.1 2.3-2.4V62.7c0-1.3-1-2.4-2.3-2.4H31.7zM53.2 62.7v14.3c0 .2-.2.4-.3.4H31.7c-.2 0-.3-.2-.3-.4V62.7c0-.2.2-.4.3-.4h21.2C53 62.4 53.2 62.5 53.2 62.7z"></path><path d="M46.3 68.6L40.2 65c-.5-.3-1-.3-1.5 0-.5.3-.8.8-.8 1.3v7.2c0 .5.3 1.1.8 1.3.5.3 1 .3 1.5 0l6.1-3.6h0c.5-.3.7-.8.7-1.3C47 69.4 46.8 68.9 46.3 68.6zM39.9 72.7v-5.6l4.7 2.8L39.9 72.7zM20.6 36.9v15.5c0 1.4 1 2.5 2.3 2.5h17.3c1.3 0 2.3-1.1 2.3-2.5V36.9c0-1.4-1-2.5-2.3-2.5H22.9C21.6 34.4 20.6 35.5 20.6 36.9zM22.6 36.9c0-.3.2-.5.3-.5h17.3c.2 0 .3.2.3.5v15.5c0 .3-.2.5-.3.5H22.9c-.2 0-.3-.2-.3-.5V36.9zM62.9 34.4H47c-.6 0-1 .4-1 1s.4 1 1 1h15.9c.6 0 1-.4 1-1S63.4 34.4 62.9 34.4zM62.9 40.5H47c-.6 0-1 .4-1 1s.4 1 1 1h15.9c.6 0 1-.4 1-1S63.4 40.5 62.9 40.5zM62.9 46.7H47c-.6 0-1 .4-1 1s.4 1 1 1h15.9c.6 0 1-.4 1-1S63.4 46.7 62.9 46.7zM63.9 53.8c0-.6-.4-1-1-1H47c-.6 0-1 .4-1 1s.4 1 1 1h15.9C63.4 54.8 63.9 54.4 63.9 53.8z"></path><path d="M94.3,28c1.7,0,3.1-1.4,3.1-3.1V6.4c0-0.9-0.4-1.7-1-2.3c-0.6-0.5-1.3-0.8-2-0.8H67.2c-0.8,0-1.5,0.3-2,0.8c0,0,0,0,0,0
			c0,0,0,0,0,0c0,0,0,0,0,0c-0.7,0.6-1,1.4-1,2.3v8.3H18.5c-2.2,0-4,1.8-4,4c0,1.4,0,9.5,0,10.6c0,0.6,0.4,1,1,1s1-0.4,1-1v-4h47.6
			c0.2,1.5,1.5,2.7,3,2.7h0.8v54.4H16.5V34.4c0-0.6-0.4-1-1-1s-1,0.4-1,1v3.7h-4.4c-2.2,0-4,1.8-4,4v44H3.6c-1,0-1.8,0.8-1.8,1.8
			c0,3.5,2.1,6.5,5,7.9c0.1,0.5,0.5,0.9,1,0.9c13.3,0,47.6,0,83.6,0c0.6,0,1-0.4,1-1s-0.4-1-1-1H79.4c2.1-1.7,3.2-4.2,3.2-6.8
			c0-1-0.8-1.8-1.8-1.8h-2.5v-5c0-0.6-0.4-1-1-1s-1,0.4-1,1v5H8.1v-44c0-1.1,0.9-2,2-2h4.4v1.7h-3.7c-0.6,0-1,0.4-1,1v40.5
			c0,0.6,0.4,1,1,1c24.6,0,35,0,62.8,0c0.6,0,1-0.4,1-1V42.9c0-0.6-0.4-1-1-1h-3.7v-1.7h4.4c1.1,0,2,0.9,2,2v34.1c0,0.6,0.4,1,1,1
			s1-0.4,1-1V42.1c0-2.2-1.8-4-4-4h-4.4V28H94.3z M51.3,88.1c-0.2,0.6-0.7,1.1-1.4,1.1H34.2c-0.7,0-1.2-0.5-1.4-1.1H51.3z
			 M78.6,92.7c-1.3,1.3-3,2-4.8,2H10.7c-3.7,0-6.7-2.9-6.8-6.6h27c0.2,1.7,1.6,3.1,3.4,3.1h15.7c1.8,0,3.2-1.3,3.4-3.1h27.3
			C80.6,89.8,79.9,91.4,78.6,92.7z M11.8,43.9h2.7v38.5h-2.7V43.9z M72.6,43.9v38.5h-2.7V43.9H72.6z M93.2,5.3l-12.5,9.1L68.2,5.3
			H93.2z M16.5,18.6c0-1.1,0.9-2,2-2h45.6v6.6H16.5V18.6z M66.1,24.9V6.4c0,0,0-0.1,0-0.1l14,10.2c0.3,0.3,0.8,0.3,1.2,0l14-10.2
			c0,0,0,0.1,0,0.1v18.5c0,0.6-0.5,1.1-1.1,1.1H67.2C66.6,26,66.1,25.5,66.1,24.9z"></path><path d="M61.8,28.8H23.2c-0.6,0-1,0.4-1,1s0.4,1,1,1h38.6c0.6,0,1-0.4,1-1S62.3,28.8,61.8,28.8z"></path></svg>