<svg xmlns="http://www.w3.org/2000/svg" viewBox="0 0 60 60" id="manager-like"><path d="M22,13a3,3,0,0,0-3-3h-.965l.753-1.887a3,3,0,1,0-5.576-2.225L12.145,8.549A2.3,2.3,0,0,1,10.668,9.9,2,2,0,0,0,9,9H7a2,2,0,0,0-2,2v6a2,2,0,0,0,2,2H9a1.992,1.992,0,0,0,1.427-.6A9.19,9.19,0,0,0,14,19h5a3,3,0,0,0,3-3ZM7,17V11H9v6Zm13-1a1,1,0,0,1-1,1H14a6.872,6.872,0,0,1-3-.536v-4.58a4.284,4.284,0,0,0,3-2.591l1.068-2.664a1,1,0,0,1,1.862.741l-1.3,3.26A1.009,1.009,0,0,0,16.56,12H19a1,1,0,0,1,1,1Z"></path><path d="M56,0H37a4,4,0,0,0-4,4V18.059A8.935,8.935,0,0,0,32,18H28a8.935,8.935,0,0,0-1,.059V4a4,4,0,0,0-4-4H4A4,4,0,0,0,0,4V19a4,4,0,0,0,4,4H5v2.79a2.2,2.2,0,0,0,3.418,1.84L15.305,23H19.95A8.934,8.934,0,0,0,19,27v5a3,3,0,0,0,2.039,2.842A9.006,9.006,0,0,0,25.4,41.724L25.092,43.4l-2.42,1.614A7,7,0,0,0,16,52v5a3,3,0,0,0,3,3H41a3,3,0,0,0,3-3V52a7,7,0,0,0-6.672-6.983L34.907,43.4l-.3-1.679a9.006,9.006,0,0,0,4.359-6.882A3,3,0,0,0,41,32V27a8.921,8.921,0,0,0-.95-4H44.7l6.887,4.63A2.2,2.2,0,0,0,55,25.79V23h1a4,4,0,0,0,4-4V4A4,4,0,0,0,56,0ZM32,20a7.008,7.008,0,0,1,7,7v2.179c-.038-.014-.073-.033-.112-.045a3.166,3.166,0,0,0-2.647-2.359,15.192,15.192,0,0,1-5.191-1.51,2.2,2.2,0,0,0-2.1,0,15.2,15.2,0,0,1-5.192,1.51,3.165,3.165,0,0,0-2.645,2.359c-.039.012-.075.031-.113.045V27a7.008,7.008,0,0,1,7-7ZM15,21a1,1,0,0,0-.558.17L7.3,25.97a.179.179,0,0,1-.194.008A.2.2,0,0,1,7,25.79V22a1,1,0,0,0-1-1H4a2,2,0,0,1-2-2V4A2,2,0,0,1,4,2H23a2,2,0,0,1,2,2V18.526A9.009,9.009,0,0,0,21.311,21ZM25.873,45.287,28.586,48l-1.5,1.5-2.621-3.276ZM30,49.414l1.494,1.494L31.22,52H28.78l-.274-1.091ZM28.847,54h2.306l.667,4H28.18ZM18,57V52a4.989,4.989,0,0,1,4.555-4.955l3.032,3.789a1.9,1.9,0,0,0,1,.651l.39,1.556L26.153,58H19A1,1,0,0,1,18,57Zm24-5v5a1,1,0,0,1-1,1H33.847l-.826-4.959.39-1.556a1.909,1.909,0,0,0,1-.65l3.032-3.79A4.99,4.99,0,0,1,42,52Zm-9.083-2.5-1.5-1.5,2.713-2.713,1.411.94Zm.006-5.84L30,46.586l-2.922-2.922.2-1.093a8.86,8.86,0,0,0,5.447,0ZM38,33a1,1,0,0,0-1,1,7,7,0,0,1-14,0,1,1,0,0,0-1-1,1,1,0,0,1,0-2,1,1,0,0,0,1-1,1.205,1.205,0,0,1,1-1.239,17.22,17.22,0,0,0,5.9-1.736.221.221,0,0,1,.2,0A17.215,17.215,0,0,0,36,28.761,1.206,1.206,0,0,1,37,30a1,1,0,0,0,1,1,1,1,0,0,1,0,2ZM58,19a2,2,0,0,1-2,2H54a1,1,0,0,0-1,1v3.79a.2.2,0,0,1-.109.188.179.179,0,0,1-.194-.008l-7.139-4.8A1,1,0,0,0,45,21H38.689A9.014,9.014,0,0,0,35,18.525V4a2,2,0,0,1,2-2H56a2,2,0,0,1,2,2Z"></path><path d="M49.49,5A4.371,4.371,0,0,0,46.5,6.18,4.371,4.371,0,0,0,43.51,5,4.62,4.62,0,0,0,39,9.712c0,5.44,6.853,8.111,7.145,8.223a1,1,0,0,0,.71,0C47.147,17.823,54,15.152,54,9.712A4.62,4.62,0,0,0,49.49,5ZM46.5,15.914c-1.271-.572-5.5-2.735-5.5-6.2A2.62,2.62,0,0,1,43.51,7a2.467,2.467,0,0,1,2.127,1.271,1.04,1.04,0,0,0,1.726,0A2.467,2.467,0,0,1,49.49,7,2.62,2.62,0,0,1,52,9.712C52,13.179,47.771,15.342,46.5,15.914Z"></path></svg>