<svg xmlns="http://www.w3.org/2000/svg" width="281.652" height="247.893" enable-background="new 0 0 300 300" viewBox="9.129 26.032 281.652 247.893" id="creative-designer"><path fill="#f8f7fc" d="M158.8 91c11.5 5.6 24.7 5.8 37.2 8.2 38.7 7.6 71.6 40.2 80 79.4 3.6 16.8 2.8 35.5-6.7 49.8-7.3 11-19 18.4-31.3 22.7-12.3 4.3-25.4 5.9-38.4 7.4-38.1 4.5-78.4 8.8-113.6-6.9-30.6-13.7-54.2-42.5-61.9-75.5-2.2-9.6-3.2-19.7-.7-29.2 3.2-12 11.5-21.8 20.3-30.4 14.3-14 30.5-25.8 47.9-35.2 7.7-4.1 44.3-24.8 49.9-14.1 2.2 4.3 2.1 9.1 5.2 13.4 3.1 4.4 7.3 8 12.1 10.4z"></path><path fill="#fff" d="M260.9 79.3v94.6c0 3-2.5 5.5-5.5 5.5H128.7c-3 0-5.5-2.5-5.5-5.5V79.3c0-3 2.5-5.5 5.5-5.5h126.8c3 0 5.4 2.5 5.4 5.5z"></path><linearGradient id="a" x1="123.209" x2="260.931" y1="82.469" y2="82.469" gradientUnits="userSpaceOnUse"><stop offset="0" stop-color="#57b2fd"></stop><stop offset="1" stop-color="#497bfd"></stop></linearGradient><path fill="url(#a)" d="M260.9 91.1V79.3c0-3-2.5-5.5-5.5-5.5H128.7c-3 0-5.5 2.5-5.5 5.5v11.9h137.7z"></path><path fill="#fff" d="M135.7 82.5c0 1.7-1.3 3-3 3s-3-1.3-3-3 1.4-3 3-3c1.7-.1 3 1.3 3 3zM144.7 82.5c0 1.7-1.3 3-3 3s-3-1.3-3-3 1.4-3 3-3c1.7-.1 3 1.3 3 3zM153.7 82.5c0 1.7-1.3 3-3 3s-3-1.3-3-3 1.4-3 3-3c1.7-.1 3 1.3 3 3z"></path><path fill="#f2f0fb" d="M232.9 112.8v40.5c0 1.4-1.2 2.6-2.6 2.6h-77.5c-1.4 0-2.6-1.2-2.6-2.6v-40.5c0-1.4 1.2-2.6 2.6-2.6h77.5c1.4 0 2.6 1.1 2.6 2.6z"></path><path fill="#fff" d="M237 102.8h4.8v4.8H237z"></path><path fill="#4c5c75" d="M241.8 107.8H237c-.1 0-.3-.1-.3-.3v-4.8c0-.1.1-.3.3-.3h4.8c.1 0 .3.1.3.3v4.8c-.1.2-.2.3-.3.3zm-4.6-.5h4.3V103h-4.3v4.3z"></path><path fill="#4c5c75" d="M240 105.8c-.1 0-.3-.1-.3-.3v-.8h-.7c-.1 0-.3-.1-.3-.3 0-.1.1-.3.3-.3h1c.1 0 .3.1.3.3v1c0 .3-.2.4-.3.4zM240 156.9c-.1 0-.3-.1-.3-.3v-1.9c0-.1.1-.3.3-.3.1 0 .3.1.3.3v1.9c0 .2-.2.3-.3.3zm0-5.6c-.1 0-.3-.1-.3-.3v-1.9c0-.1.1-.3.3-.3.1 0 .3.1.3.3v1.9c0 .1-.2.3-.3.3zm0-5.7c-.1 0-.3-.1-.3-.3v-1.9c0-.1.1-.3.3-.3.1 0 .3.1.3.3v1.9c0 .2-.2.3-.3.3zm0-5.7c-.1 0-.3-.1-.3-.3v-1.9c0-.1.1-.3.3-.3.1 0 .3.1.3.3v1.9c0 .2-.2.3-.3.3zm0-5.7c-.1 0-.3-.1-.3-.3V132c0-.1.1-.3.3-.3.1 0 .3.1.3.3v1.9c0 .2-.2.3-.3.3zm0-5.7c-.1 0-.3-.1-.3-.3v-1.9c0-.1.1-.3.3-.3.1 0 .3.1.3.3v1.9c0 .2-.2.3-.3.3zm0-5.7c-.1 0-.3-.1-.3-.3v-1.9c0-.1.1-.3.3-.3.1 0 .3.1.3.3v1.9c0 .2-.2.3-.3.3zm0-5.7c-.1 0-.3-.1-.3-.3V115c0-.1.1-.3.3-.3.1 0 .3.1.3.3v1.9c0 .1-.2.2-.3.2zm0-5.6c-.1 0-.3-.1-.3-.3v-1.9c0-.1.1-.3.3-.3.1 0 .3.1.3.3v1.9c0 .1-.2.3-.3.3zM240 161.7h-1c-.1 0-.3-.1-.3-.3 0-.1.1-.3.3-.3h.8v-.8c0-.1.1-.3.3-.3.1 0 .3.1.3.3v1c-.1.3-.3.4-.4.4zM235 161.7h-2c-.1 0-.3-.1-.3-.3 0-.1.1-.3.3-.3h2c.1 0 .3.1.3.3 0 .2-.2.3-.3.3zm-6 0h-2c-.1 0-.3-.1-.3-.3 0-.1.1-.3.3-.3h2c.1 0 .3.1.3.3 0 .2-.1.3-.3.3zm-6 0h-2c-.1 0-.3-.1-.3-.3 0-.1.1-.3.3-.3h2c.1 0 .3.1.3.3 0 .2-.1.3-.3.3zm-6 0h-2c-.1 0-.3-.1-.3-.3 0-.1.1-.3.3-.3h2c.1 0 .3.1.3.3 0 .2-.1.3-.3.3zm-6 0h-2c-.1 0-.3-.1-.3-.3 0-.1.1-.3.3-.3h2c.1 0 .3.1.3.3 0 .2-.1.3-.3.3zm-5.9 0h-2c-.1 0-.3-.1-.3-.3 0-.1.1-.3.3-.3h2c.1 0 .3.1.3.3-.1.2-.2.3-.3.3zm-6 0h-2c-.1 0-.3-.1-.3-.3 0-.1.1-.3.3-.3h2c.1 0 .3.1.3.3-.1.2-.2.3-.3.3zm-6 0h-2c-.1 0-.3-.1-.3-.3 0-.1.1-.3.3-.3h2c.1 0 .3.1.3.3-.1.2-.2.3-.3.3zm-6 0h-2c-.1 0-.3-.1-.3-.3 0-.1.1-.3.3-.3h2c.1 0 .3.1.3.3-.1.2-.2.3-.3.3zm-6 0h-2c-.1 0-.3-.1-.3-.3 0-.1.1-.3.3-.3h2c.1 0 .3.1.3.3-.1.2-.2.3-.3.3zm-6 0h-2c-.1 0-.3-.1-.3-.3 0-.1.1-.3.3-.3h2c.1 0 .3.1.3.3-.1.2-.2.3-.3.3zm-6 0h-2c-.1 0-.3-.1-.3-.3 0-.1.1-.3.3-.3h2c.1 0 .3.1.3.3 0 .2-.2.3-.3.3zm-6 0h-2c-.1 0-.3-.1-.3-.3 0-.1.1-.3.3-.3h2c.1 0 .3.1.3.3 0 .2-.1.3-.3.3zm-6 0h-2c-.1 0-.3-.1-.3-.3 0-.1.1-.3.3-.3h2c.1 0 .3.1.3.3 0 .2-.1.3-.3.3zm-6 0h-2c-.1 0-.3-.1-.3-.3 0-.1.1-.3.3-.3h2c.1 0 .3.1.3.3 0 .2-.1.3-.3.3zM145.1 161.7h-1c-.1 0-.3-.1-.3-.3v-1c0-.1.1-.3.3-.3s.3.1.3.3v.8h.8c.1 0 .3.1.3.3-.1.1-.2.2-.4.2zM144.1 156.9c-.1 0-.3-.1-.3-.3v-1.9c0-.1.1-.3.3-.3s.3.1.3.3v1.9c0 .2-.1.3-.3.3zm0-5.6c-.1 0-.3-.1-.3-.3v-1.9c0-.1.1-.3.3-.3s.3.1.3.3v1.9c0 .1-.1.3-.3.3zm0-5.7c-.1 0-.3-.1-.3-.3v-1.9c0-.1.1-.3.3-.3s.3.1.3.3v1.9c0 .2-.1.3-.3.3zm0-5.7c-.1 0-.3-.1-.3-.3v-1.9c0-.1.1-.3.3-.3s.3.1.3.3v1.9c0 .2-.1.3-.3.3zm0-5.7c-.1 0-.3-.1-.3-.3V132c0-.1.1-.3.3-.3s.3.1.3.3v1.9c0 .2-.1.3-.3.3zm0-5.7c-.1 0-.3-.1-.3-.3v-1.9c0-.1.1-.3.3-.3s.3.1.3.3v1.9c0 .2-.1.3-.3.3zm0-5.7c-.1 0-.3-.1-.3-.3v-1.9c0-.1.1-.3.3-.3s.3.1.3.3v1.9c0 .2-.1.3-.3.3zm0-5.7c-.1 0-.3-.1-.3-.3V115c0-.1.1-.3.3-.3s.3.1.3.3v1.9c0 .1-.1.2-.3.2zm0-5.6c-.1 0-.3-.1-.3-.3v-1.9c0-.1.1-.3.3-.3s.3.1.3.3v1.9c0 .1-.1.3-.3.3zM144.1 105.8c-.1 0-.3-.1-.3-.3v-1c0-.1.1-.3.3-.3h1c.1 0 .3.1.3.3 0 .1-.1.3-.3.3h-.8v.8c.1.1 0 .2-.2.2zM235 104.8h-2c-.1 0-.3-.1-.3-.3 0-.1.1-.3.3-.3h2c.1 0 .3.1.3.3 0 .2-.2.3-.3.3zm-6 0h-2c-.1 0-.3-.1-.3-.3 0-.1.1-.3.3-.3h2c.1 0 .3.1.3.3 0 .2-.1.3-.3.3zm-6 0h-2c-.1 0-.3-.1-.3-.3 0-.1.1-.3.3-.3h2c.1 0 .3.1.3.3 0 .2-.1.3-.3.3zm-6 0h-2c-.1 0-.3-.1-.3-.3 0-.1.1-.3.3-.3h2c.1 0 .3.1.3.3 0 .2-.1.3-.3.3zm-6 0h-2c-.1 0-.3-.1-.3-.3 0-.1.1-.3.3-.3h2c.1 0 .3.1.3.3 0 .2-.1.3-.3.3zm-5.9 0h-2c-.1 0-.3-.1-.3-.3 0-.1.1-.3.3-.3h2c.1 0 .3.1.3.3-.1.2-.2.3-.3.3zm-6 0h-2c-.1 0-.3-.1-.3-.3 0-.1.1-.3.3-.3h2c.1 0 .3.1.3.3-.1.2-.2.3-.3.3zm-6 0h-2c-.1 0-.3-.1-.3-.3 0-.1.1-.3.3-.3h2c.1 0 .3.1.3.3-.1.2-.2.3-.3.3zm-6 0h-2c-.1 0-.3-.1-.3-.3 0-.1.1-.3.3-.3h2c.1 0 .3.1.3.3-.1.2-.2.3-.3.3zm-6 0h-2c-.1 0-.3-.1-.3-.3 0-.1.1-.3.3-.3h2c.1 0 .3.1.3.3-.1.2-.2.3-.3.3zm-6 0h-2c-.1 0-.3-.1-.3-.3 0-.1.1-.3.3-.3h2c.1 0 .3.1.3.3-.1.2-.2.3-.3.3zm-6 0h-2c-.1 0-.3-.1-.3-.3 0-.1.1-.3.3-.3h2c.1 0 .3.1.3.3 0 .2-.2.3-.3.3zm-6 0h-2c-.1 0-.3-.1-.3-.3 0-.1.1-.3.3-.3h2c.1 0 .3.1.3.3 0 .2-.1.3-.3.3zm-6 0h-2c-.1 0-.3-.1-.3-.3 0-.1.1-.3.3-.3h2c.1 0 .3.1.3.3 0 .2-.1.3-.3.3zm-6 0h-2c-.1 0-.3-.1-.3-.3 0-.1.1-.3.3-.3h2c.1 0 .3.1.3.3 0 .2-.1.3-.3.3z"></path><path fill="#fff" d="M237 158.1h4.8v4.8H237z"></path><path fill="#4c5c75" d="M241.8 163.2H237c-.1 0-.3-.1-.3-.3v-4.8c0-.1.1-.3.3-.3h4.8c.1 0 .3.1.3.3v4.8c-.1.1-.2.3-.3.3zm-4.6-.5h4.3v-4.3h-4.3v4.3z"></path><path fill="#fff" d="M142.4 102.8h4.8v4.8h-4.8z"></path><path fill="#4c5c75" d="M147.1 107.8h-4.8c-.1 0-.3-.1-.3-.3v-4.8c0-.1.1-.3.3-.3h4.8c.1 0 .3.1.3.3v4.8c0 .2-.1.3-.3.3zm-4.5-.5h4.3V103h-4.3v4.3z"></path><path fill="#fff" d="M142.4 158.1h4.8v4.8h-4.8z"></path><path fill="#4c5c75" d="M147.1 163.2h-4.8c-.1 0-.3-.1-.3-.3v-4.8c0-.1.1-.3.3-.3h4.8c.1 0 .3.1.3.3v4.8c0 .1-.1.3-.3.3zm-4.5-.5h4.3v-4.3h-4.3v4.3z"></path><linearGradient id="b" x1="232.824" x2="273.143" y1="85.443" y2="85.443" gradientUnits="userSpaceOnUse"><stop offset="0" stop-color="#57b2fd"></stop><stop offset="1" stop-color="#497bfd"></stop></linearGradient><path fill="url(#b)" d="M273.1 63.5v43.8c0 1.4-1.2 2.6-2.6 2.6h-35.1c-1.4 0-2.6-1.2-2.6-2.6V63.5c0-1.4 1.2-2.6 2.6-2.6h35.1c1.5 0 2.6 1.2 2.6 2.6z"></path><path fill="#fff" d="M243.3 81.3c-.2 0-.3-.1-.3-.2l-2.8-8.6c0-.1 0-.3.1-.4.1-.1.2-.1.4-.1l8.6 2.8c.2.1.3.2.2.4 0 .2-.1.3-.3.3l-4.9.6-.6 4.9c-.1.2-.2.3-.4.3zm-2.3-8.4 2.1 6.4.4-3.6c0-.2.1-.3.3-.3l3.6-.4-6.4-2.1zM266.1 75.2c0 .2-.1.3-.3.3l-4.9.6-.6 4.9c0 .2-.1.3-.3.3-.1 0-.3-.1-.3-.2l-2.8-8.6c0-.1 0-.3.1-.3.1-.1.2-.1.3-.1l8.6 2.8c.1 0 .2.1.2.3zM253 103.9c-.2 0-.3-.2-.3-.3V67.4c0-.2.2-.3.3-.3.2 0 .3.2.3.3v36.1c0 .2-.1.4-.3.4z"></path><path fill="#fff" d="M268.3 67.6h-30.7c-.2 0-.3-.2-.3-.3 0-.2.2-.3.3-.3h30.7c.2 0 .3.2.3.3.1.2-.1.3-.3.3zM268.3 85.7h-30.7c-.2 0-.3-.2-.3-.3 0-.2.2-.3.3-.3h30.7c.2 0 .3.2.3.3.1.2-.1.3-.3.3zM268.3 103.9h-30.7c-.2 0-.3-.2-.3-.3 0-.2.2-.3.3-.3h30.7c.2 0 .3.2.3.3.1.1-.1.3-.3.3zM242.6 92.3l2.1-1c.1-.1.3 0 .3.1l2.4 2.4c.1.1.1.2.1.3l-1 2.1c-.1.2-.3.4-.5.4l-5.1 1.5h-.1c-.1 0-.1-.1-.1-.1v-.1l1.5-5.1c0-.3.2-.4.4-.5zM245.2 90.6l.8-.8c.1-.1.3-.1.4 0l2.5 2.5c.1.1.1.3 0 .4l-.8.8c-.1.1-.3.1-.4 0l-2.5-2.5c-.1-.1-.1-.3 0-.4z"></path><linearGradient id="c" x1="240.621" x2="243.349" y1="96.726" y2="96.726" gradientUnits="userSpaceOnUse"><stop offset="0" stop-color="#57b2fd"></stop><stop offset="1" stop-color="#497bfd"></stop></linearGradient><path fill="url(#c)" d="m240.6 98 2.6-2.6.1.1-2.6 2.6-.1-.1z"></path><linearGradient id="d" x1="243.075" x2="244.199" y1="95.075" y2="95.075" gradientUnits="userSpaceOnUse"><stop offset="0" stop-color="#57b2fd"></stop><stop offset="1" stop-color="#497bfd"></stop></linearGradient><path fill="url(#d)" d="M243.2 94.7c.2-.2.6-.2.8 0 .2.2.2.6 0 .8-.2.2-.5.2-.8 0-.2-.3-.2-.6 0-.8z"></path><path fill="#fff" d="m261.1 92.3 2.1-1c.1-.1.3 0 .3.1l2.4 2.4c.1.1.1.2.1.3l-1 2.1c-.1.2-.3.4-.5.4l-5.1 1.5h-.1c-.1 0-.1-.1-.1-.1v-.1l1.5-5.1c.1-.3.2-.4.4-.5zM263.7 90.6l.8-.8c.1-.1.3-.1.4 0l2.5 2.5c.1.1.1.3 0 .4l-.8.8c-.1.1-.3.1-.4 0l-2.5-2.5c-.1-.1-.1-.3 0-.4z"></path><linearGradient id="e" x1="259.164" x2="261.892" y1="96.726" y2="96.726" gradientUnits="userSpaceOnUse"><stop offset="0" stop-color="#57b2fd"></stop><stop offset="1" stop-color="#497bfd"></stop></linearGradient><path fill="url(#e)" d="m259.2 98 2.6-2.6.1.1-2.6 2.6c-.1 0-.1-.1-.1-.1z"></path><linearGradient id="f" x1="261.618" x2="262.742" y1="95.075" y2="95.075" gradientUnits="userSpaceOnUse"><stop offset="0" stop-color="#57b2fd"></stop><stop offset="1" stop-color="#497bfd"></stop></linearGradient><path fill="url(#f)" d="M261.8 94.7c.2-.2.6-.2.8 0 .2.2.2.6 0 .8-.2.2-.5.2-.8 0-.2-.3-.2-.6 0-.8z"></path><path fill="#fff" d="M257.5 99.1c-.2 0-.4-.1-.6-.2-.6-.4-.7-1.2-.4-1.9.2-.5.6-1 1-1.4.4-.5.8-1 1-1.5.2-.6.1-1.3-.2-1.8-.4-.5-1-.8-1.6-.7-.6.1-1.1.7-1.1 1.3 0 .1-.1.1-.1.1-.1 0-.1-.1-.1-.1 0-.7.6-1.4 1.3-1.5.7-.1 1.4.2 1.8.8.4.5.5 1.3.3 2-.2.6-.6 1.1-1 1.6-.4.4-.7.9-.9 1.4-.2.5-.2 1.3.3 1.6.2.1.6.2.9 0 .3-.1.6-.3.8-.5h.2v.2c-.2.2-.5.5-.9.6-.3-.1-.5 0-.7 0z"></path><path fill="#e7e0ff" d="M265.3 196.7v39.6c0 .9-.7 1.6-1.6 1.6H223c-.9 0-1.6-.7-1.6-1.6v-50c0-.9.7-1.6 1.6-1.6h30c.3 0 .7.2.9.4l10.9 10.3c.3.2.4.6.5.9v.4z"></path><path fill="#b189fc" d="M265.2 196.5H254c-.6 0-1.1-.5-1.1-1.1v-10.6c.3 0 .7.2.9.4l10.9 10.3c.3.3.5.6.5 1z"></path><path fill="#4c5c75" d="M93.2 126.8c-.3 0-.5-.2-.5-.5v-1c0-.3.2-.5.5-.5s.5.2.5.5v1c0 .3-.2.5-.5.5zm0-5c-.3 0-.5-.2-.5-.5v-1c0-.3.2-.5.5-.5s.5.2.5.5v1c0 .3-.2.5-.5.5zm0-5c-.3 0-.5-.2-.5-.5v-1c0-.3.2-.5.5-.5s.5.2.5.5v1c0 .3-.2.5-.5.5zm0-5c-.3 0-.5-.2-.5-.5v-1c0-.3.2-.5.5-.5s.5.2.5.5v1c0 .3-.2.5-.5.5zm0-5c-.3 0-.5-.2-.5-.5v-1c0-.3.2-.5.5-.5s.5.2.5.5v1c0 .3-.2.5-.5.5zm0-5c-.3 0-.5-.2-.5-.5v-1c0-.3.2-.5.5-.5s.5.2.5.5v1c0 .3-.2.5-.5.5z"></path><path fill="#f6a285" d="M141.7 237c-.9.8-.2 3 1.6 5 1.8 1.9 3.9 2.8 4.8 2 .9-.8.2-3-1.6-5s-3.9-2.9-4.8-2zM119.9 240.7l.3 1.5c2.3 8.9 2.2 15.5 6.4 15.5 4.8 0 10.9-11.3 10.3-16-.1-.8-.2-1.6-.4-2.5 0-.2-.1-.3-.1-.5-.4-2.2-.8-4.5-1.4-7-.2-1-.4-1.9-.7-2.9h-14.4l-.1 8.3.1 3.6z"></path><linearGradient id="g" x1="25.268" x2="40.378" y1="233.095" y2="233.095" gradientTransform="matrix(-1 0 0 1 160.362 0)" gradientUnits="userSpaceOnUse"><stop offset="0" stop-color="#f6a285"></stop><stop offset="1" stop-color="#fc6b58"></stop></linearGradient><path fill="url(#g)" d="M120 237.2c.5.1 1 .2 1.5.1 1.2-.2 2.2-.9 3.3-1.3 2.3-1 5-.8 7.5-1.4 1-.2 2-.7 2.4-1.5.2-.4.3-.8.3-1.3-.2-1-.4-1.9-.7-2.9h-14.4l.1 8.3z"></path><linearGradient id="h" x1="996.811" x2="1006.364" y1="241.722" y2="241.722" gradientTransform="scale(-1 1) rotate(-.653 576.187 99032.6)" gradientUnits="userSpaceOnUse"><stop offset="0" stop-color="#f6a285"></stop><stop offset="1" stop-color="#fc6b58"></stop></linearGradient><path fill="url(#h)" d="m121.2 228.9-.1 11.2c.1.5.2 1.1.3 1.5 2.3 8.9 2.2 15.5 6.4 15.5.5 0 1-.1 1.5-.3-.9.6-1.8 1-2.6 1-4.2 0-4.2-6.7-6.4-15.5l-.3-1.5.1-11.8h1.1z"></path><path fill="#f6a285" d="M148.1 244.3c-3 3.3-6.2 6.6-9.8 9.3-2.7 2-5.8 3.6-9.1 3.9-9.2 1-5.2-6.9-4.6-8.2.7-1.6 1.8-3.1 3-4.4 2-1.9 4.5-3.2 7.2-3.7.9-.2 1.8-.2 2.7-.5.9-.2 1.8-.7 2.3-1.4.3-.4.5-.8.8-1.1.3-.3.8-.6 1.2-.5.5.1.8.7 1 1.2.8 1.9 3 4.8 5.3 5.4z"></path><path fill="#fde0bb" d="M123.3 253.2c.3-1.5 1-2.8 1.2-3.3.7-1.6 1.8-3.1 3-4.4 2-1.9 4.5-3.2 7.2-3.7.9-.2 1.8-.2 2.7-.5.4-.1.7-.2 1.1-.4v-.5c-.3.1-.6.3-1 .3-.9.2-1.8.3-2.7.5-2.7.5-5.3 1.8-7.2 3.7-1.3 1.2-2.3 2.7-3 4.4-.3.6-1.1 2.2-1.3 3.9z"></path><linearGradient id="i" x1="1780.299" x2="1803.163" y1="262.067" y2="262.067" gradientTransform="scale(-1 1) rotate(-10.288 764.034 10959.347)" gradientUnits="userSpaceOnUse"><stop offset="0" stop-color="#f6a285"></stop><stop offset="1" stop-color="#fc6b58"></stop></linearGradient><path fill="url(#i)" d="M129.2 257.5c3.3-.4 6.4-1.9 9.1-3.9 3.6-2.7 6.7-6 9.8-9.3-.2-.1-.5-.1-.7-.3-2.6 2.8-5.4 5.6-8.5 7.9-2.7 2-5.8 3.6-9.1 3.9-6.3.7-6.4-2.8-5.7-5.5-1 2.6-2.7 8.1 5.1 7.2z"></path><path fill="#f6a285" d="M147.7 243.9h-.1.1zM146.4 240.8s-.6 2.4 1.3 3.4c1 .2 1.9 0 2.8-1 .4-.4.7-.9 1.2-1.2.5-.2 1.2-.1 1.7-.2.6-.1 1.1-.6 1.2-1.2.1-.4.1-.8.3-1.1.2-.2.6-.3.9-.4 1-.3 1.6-1.4 1.5-2.4-.1-.6-.4-1.2-.3-1.8 0 0 3.7-3.5 3.7-5.1 0-1.2-2-3.9-3.6-5-.4-.3-.7-.4-1-.5-.3-.1-.5 0-.6.3 0 .1-.1.2-.1.3-.4 1.5.4 2.5 1.3 3.9 1 1.5-1.8 2.8-2.8 2.7-2.6-.1-8.5-3.8-9.8-3.3-1.3.5-1.4 1.9 6.9 6.5-1.7-.9-7.9-4.3-9.1-4-1.3.4-1.5 1.8 6.3 7.2-1.6-1.1-7.2-4.8-8.4-4.5-1.2.6-1.2 1.7 6.6 7.4z"></path><path fill="#fde0bb" d="M154.6 240.1c0 .1 0 .2-.1.3.1-.1.1-.2.1-.3zM156.1 224.8c1.4.3 4.6 4 4.5 5.5 0-.1.1-.3.1-.4 0-1.5-3.1-5.2-4.5-5.5-.3-.1-.5 0-.6.3-.1.3-.1.5-.2.7 0-.1.1-.2.1-.3.1-.3.3-.4.6-.3zM153.9 232.1c.8 0 3-.9 3-2.1-.4 1-2.2 1.7-2.9 1.7-2.6-.1-8.5-3.8-9.8-3.3-.4.2-.7.4-.6.8.1-.2.3-.3.5-.4 1.2-.6 7.2 3.1 9.8 3.3zM142 230.9c.6-.2 2.4.6 4.2 1.5.8.4 4 2 5.1 2.7l-2.4-.9c-2.5-1.3-6.1-3.1-7-2.9-.3.1-.5.2-.6.4 0-.4.3-.7.7-.8zM140 233.6c.6-.1 2.3.7 4.1 1.8 1.1.6 3.8 2.4 4.8 3.1l-2-1c-2.3-1.5-6-3.8-7-3.6-.3.1-.5.2-.6.3-.1-.2.2-.4.7-.6z"></path><path fill="#fde0bb" d="M155.4 225c0 .1.1.3.1.4.3.5.9.8 1.3.6.3-.2.4-.6.3-1.1-.4-.3-.7-.4-1-.5-.3-.1-.5 0-.6.3 0 .1 0 .2-.1.3zM143.7 229c0 .1.1.3.2.4.3.6.9.8 1.3.6.3-.2.5-.7.3-1.1-.4-.3-.7-.5-1-.5-.3-.1-.6 0-.7.3 0 0 0 .2-.1.3zM141.4 231.5c0 .1.1.4.2.5.3.6.9.8 1.3.6.3-.2.5-.7.3-1.1-.4-.3-.7-.5-1-.5-.3-.1-.6 0-.7.3 0 .1 0 .1-.1.2zM139.5 234.3c0 .1.1.4.2.5.3.6.9.8 1.3.6.3-.2.5-.7.3-1.1-.4-.3-.7-.5-1-.5-.3-.1-.6 0-.7.3 0 .1-.1.1-.1.2z"></path><path fill="#f35170" d="M68.4 261.3c.1-4.8.1-10.8 0-13.8-.2-8.5-.7-14.5-.7-14.5l-2-.6-2-.5v-38.8c4.4-2.4 9.9-4.2 15-5.4 1-.3 2-.5 3-.7 7-1.6 12.7-2.2 12.7-2.2s7 1.1 13.2 3.2c1 .3 2 .7 2.9 1 2.5 1 4.6 2.2 5.7 3.5 5.1 6.4 4.6 32.4 4.6 32.4s-.3 19.5 1.6 35.3c0 .4.1.8.1 1.1H68.4z"></path><path fill="#da2157" d="M68.4 261.3c.1-4.8.1-10.8 0-13.8-.2-8.5-.7-14.5-.7-14.5l-2-.6c.1-.5.3-1 .5-1.4 1-2 4.2-2.9 5.4-.5.4.8.3 1.9.3 2.8-.1 1.7-.1 3.4 0 5.1 0 1.9.2 3.8.4 5.8.2 1.6.4 3.3 1.5 4.5 1.5 1.6 4.1 1.6 6.3 1.3 5.7-.6 11.6-1.8 17.1.1 3 1.1 5.6 3 8.3 4.6 5.1 3 10.8 4.8 16.7 5.5h.3c0 .4.1.8.1 1.1H68.4zM116.1 192.5c-1.4-1.8-4.9-3.3-8.6-4.5-6.2-2-13.2-3.1-13.2-3.1s-5.7.6-12.7 2.1c-6.7 1.5-14.6 3.8-20 7.4v2.5c5.4-3.5 13.3-5.9 20-7.4 7-1.6 12.7-2.1 12.7-2.1s7 1.1 13.2 3.1c3.7 1.2 7.1 2.7 8.6 4.5 4 4.9 4.6 21.7 4.6 29 0-4.6 0-25.8-4.6-31.5z"></path><path fill="#ee9545" d="M120.7 224.8v4.6-5.4.8z"></path><path fill="#da2157" d="M78.7 187.6c.9 5.6 7.6 9.2 17.3 9.2 8.1 0 13.5-2.9 14.4-7.9-.9-.4-1.9-.7-2.9-1-6.2-2-13.2-3.1-13.2-3.1s-5.7.6-12.7 2.1c-.9.3-1.9.5-2.9.7z"></path><path fill="#fff" d="M81.7 186.9c.6 4.8 7.5 6.9 14.3 6.9 6.9 0 11.1-2.2 11.6-5.9-6.2-2-13.2-3.1-13.2-3.1s-5.7.6-12.7 2.1z"></path><path fill="#f6a285" d="M109.3 161.8c-3.9 5.5-4.6 17.8-4.7 23.1v2.4c0 5.3-19.9 4.3-19.9-1 7.2-5.3 4.5-26.7 4.5-26.7 1.1-3.4 4.2-5 2.9 1.3h.1l17.1.9z"></path><path fill="#894852" d="M109.8 148.3s2 2.6-.2 7.2l-6-6.3 6.2-.9z"></path><linearGradient id="j" x1="2224.175" x2="2172.555" y1="-396.226" y2="-396.551" gradientTransform="rotate(-17.862 2940.468 6580.405)" gradientUnits="userSpaceOnUse"><stop offset="0" stop-color="#fde0bb"></stop><stop offset="1" stop-color="#fc6b58"></stop></linearGradient><path fill="url(#j)" d="M110.4 178.4c-3.8 2.6-15.5.9-18.7-.2-1.5-.5-2.6-.9-2.6-.9l-1-4.1s-2.6-1.6-4.1-3.7c-1.2-1.7-1.7-3.8.7-5.6l-1.8-9.1c10.3-3.8 20.1-7.4 25.3-3.7 0 .1 8.8 22.8 2.2 27.3z"></path><path fill="#894852" d="M110 143.5c.4 3.3.3 5.2-.3 6.8-1.9 5.3-16.2 5.2-15.7 6.9.9 3.2-.8 4.3-2.2 5.5-1.4 1.2 2.4 5.9 1 6.9-.7.6-2.8-2.3-2.8-2.3s-3-4.8-5.5-3c-2.3 1.6.1 5.9 2.3 8.2-.1-.1-2.2-1.7-4.5-4.1l-1.1-1.1c-.6-.6-1.1-1.2-1.6-1.9-.6-.7-1.2-1.5-1.6-2.3l-.9-1.5c-1.3-2.4-1.8-5.3.9-7.1 0-.1-.1-.1-.1-.2-2.7-4.3-.8-7.5.5-8.8 4.5-5 15.2-9.8 27-6.7.3.1.6.2.9.2 2.5.7 3.5 2.5 3.7 4.5z"></path><path fill="#e17659" d="M88.4 168.2c-.4-.7-.9-1.2-1.5-1.5-.7-.4-1.5-.4-2.1-.2-.3.1-.6.3-.9.6-.1.1-.1.1 0 .2s.2.1.2 0c.2-.3.5-.5.8-.6.6-.2 1.2-.2 1.8.1.5.3 1 .7 1.3 1.3-.2-.1-.4-.1-.6-.1-.2 0-.4.1-.7.3l-.3.3c-.1.2-.1.4 0 .5 0 .1.1.1.2 0 .1 0 .1-.1 0-.2v-.2c.1-.1.1-.2.2-.2l.6-.3c.3 0 .6 0 .8.2.2.5.4.9.6 1.4 0 .1.1.1.2.1s.1-.1.1-.2M106.5 166.5c-.1 0-.1.1-.1.1.3.4.7.8 1.1.9.5.2 1 .1 1.3-.2.3-.5.4-1.2.1-1.3-.2-.1-.4.6-.6.7-.9.5-1.5-.1-1.8-.2z"></path><path fill="#111d33" d="M101.5 164.8c.2.5.7.7 1.1.6.5-.1.7-.7.6-1.1-.2-.5-.7-.7-1.1-.6-.5.1-.7.6-.6 1.1z"></path><path fill="#111d33" d="M104.1 163.8c-.1 0-.1 0 0 0-.6 0-1.2.1-1.8.1-.3.3-.6.7-.9 1.1-.4.3-.8.6-1.3.8.2-.5.5-.9.8-1.2.4-.3.8-.6 1.1-1 0 0 .1-.1.1 0 .7-.1 1.3.1 2 .2-.1 0 0 0 0 0zM109.2 162.2c.2.5.7.7 1.1.6.5-.1.7-.7.6-1.1-.2-.5-.7-.7-1.1-.6-.5.1-.8.6-.6 1.1z"></path><path fill="#fbfbfb" d="M110.3 161.9c0 .1.2.2.3.1.1 0 .2-.2.2-.3 0-.1-.2-.2-.3-.2-.2.1-.3.2-.2.4zM102.5 164.4c0 .1.2.2.3.1.1 0 .2-.2.2-.3 0-.1-.2-.2-.3-.2-.2.1-.3.2-.2.4z"></path><path fill="#111d33" d="M111.7 161.2c-.6 0-1.2.1-1.8.1-.3.3-.6.7-.9 1.1-.4.3-.8.6-1.3.8.2-.5.5-.9.8-1.2.4-.3.8-.6 1.1-.9 0 0 .1-.1.1 0 .8-.2 1.4 0 2 .1zM98.6 160.4c1.3-.9 2.8-1.5 4.4-1.3.4.1.8.2 1.1.6.2.4.1.8-.1 1.1-.2.3-.6.3-.9.3-.3 0-.7-.1-1-.1-1.3-.2-2.7.3-3.6 1.4l-.6.6c-.2.1-.5.1-.7-.1-.4-.4.1-1 .3-1.3.2-.6.7-.9 1.1-1.2zM109.8 156.9c-1.3 0-2.6.3-3.6 1.2-.2.2-.5.5-.4.9.1.3.3.6.6.7.3.1.6 0 .8-.2l.6-.6c.8-.8 1.9-1 3-.8.2 0 .4.1.6.1.2 0 .4-.2.4-.4.1-.5-.6-.6-.8-.7-.3-.2-.8-.2-1.2-.2z"></path><path fill="#e17659" d="M111.1 170.1c.1-.1.3-.1.3.1.3 1.2-.4 2.5-1.5 2.8-1.1.4-2.4-.3-2.9-1.4-.1-.1.1-.3.2-.3 1.5.1 2.8-.3 3.9-1.2z"></path><path fill="#51383c" d="M110 143.5c.4 3.3.3 5.2-.3 6.8-1.9 5.3-16.2 5.2-15.7 6.9.9 3.2-.8 4.3-2.2 5.5-1.4 1.2 2.4 5.9 1 6.9-.7.6-2.8-2.3-2.8-2.3s-3-4.8-5.5-3c-2.3 1.6.1 5.9 2.3 8.2-.1-.1-2.2-1.7-4.5-4.1l-1.1-1.1c-.6-.6-1.1-1.2-1.6-1.9 1-2.2 3.4-3.8 5.8-3.9.7 0 1.4.1 2.1-.1.7-.1 1.4-.5 1.6-1.2.3-.8-.3-1.7-.6-2.5-1.3-3 .4-6.7 3.1-8.5 2.7-1.8 6.2-2.2 9.5-2 1.9.1 4.2.1 5.3-1.5.8-1.1.5-2.6.1-3.8-.4-1-1.2-2.1-1.2-3.2.3.1.6.2.9.2 2.6.8 3.6 2.6 3.8 4.6zM84 155.8c-2.7-1.8-5.2-1.4-6-1.3 0-.1-.1-.1-.1-.2 3.7-1.2 5.9 1.3 6.1 1.5z"></path><path fill="#f35170" d="m110 189.5.3-.6s17.3 4.5 20.9 13.6c2.9 7.2 6.6 18.3 5.6 26.5-.4 3.5-15.5 8.3-19.9 5.4-3.6-2.4-5.7-9.7-6.9-17.6v-27.3z"></path><path fill="#da2157" d="M110 189.5v1.9c3.3 1 17 5.4 20.2 13.4 2.8 7 6.4 17.7 5.7 25.8.5-.5.9-1 .9-1.5 1-8.2-2.7-19.3-5.6-26.5-3.7-9.2-20.9-13.6-20.9-13.6l-.3.5z"></path><path fill="#f6a285" d="M53 259.7c1.7 1.2 12 3.4 21.1-.3 5-2 10.1-3.8 15.1-5.7 1.2-.5 2.5-.9 3.9-.9s2.8.5 4.2.9c1.8.6 5.3 2.3 6.2 1.3.1-.1.1-.2.1-.3 1.1.8 3.1 1.9 3.6.8.5-1.2-1-2.7-2-3.5 1.2.8 3.3 2.1 4 1.1.7-1.1-.5-2.5-1.6-3.4-.8-.5-1.5-1-1.6-1.1.1.1.8.5 1.6 1.1 1.2.8 2.8 1.5 3.3.7 1.1-1.7-2.3-4-3.2-4.5 3 1.8 6.1 3.6 9.1 5.5.8.5 1.8 1 2.4.5.5-.4.4-1.3 0-1.9-.4-.7-1-1.2-1.5-1.8-4.3-3.8-9.2-7.3-14.2-8.2-3.8-.7-7.3.2-10.7 1-8.8 1.9-18 3-27.4 3.1l6-12.4-18.1-8.9c-5 14.2-7.7 31.8-.3 36.9zm51.5-8.2c.1.1.4.3.7.5-.3-.2-.6-.5-.7-.5z"></path><linearGradient id="k" x1="1980.614" x2="2051.068" y1="935.269" y2="935.269" gradientTransform="matrix(-.9267 -.4782 -.2292 .9118 2164.584 364.012)" gradientUnits="userSpaceOnUse"><stop offset="0" stop-color="#f6a285"></stop><stop offset="1" stop-color="#fc6b58"></stop></linearGradient><path fill="url(#k)" d="M53 259.7c1.7 1.2 12 3.4 21.1-.3 5-2 10.1-3.8 15.1-5.7 1.2-.5 2.5-.9 3.9-.9s2.8.5 4.2.9c1.8.6 5.3 2.3 6.2 1.3.1-.1.1-.2.1-.3 1.1.8 3.1 1.9 3.6.8.5-1.2-1-2.7-2-3.5 1.2.8 3.3 2.1 4 1.1.7-1.1-.5-2.5-1.6-3.4 1.2.8 2.8 1.5 3.3.7 1.1-1.7-2.3-4-3.2-4.5 3 1.8 6.1 3.6 9.1 5.5.8.5 1.8 1 2.4.5-2.7-2.6-5.7-4.7-8.9-6.4-1.2-.6-2.6-1.2-3.5-.6-.3.2-.6.6-.8.9-.3.5-.6.9-.8 1.4-.5.9-1.1 1.8-1.1 2.9-.1 1.1.3 2.4-.2 3.3-.4.6-1.2.8-2 .7-.8-.1-1.6-.5-2.4-.8-4.8-2-9.8-2.3-14.1-.9-3.6 1.1-6.6 3.4-10.5 3.5-4.7.1-9 1.6-13.4 2.5-1.5.3-3.1.6-4.8.4-1.7-.3-3.5-1.2-4.6-2.8-1.4-2-1.3-4.4-1.2-6.6.3-5.9.1-12 .4-17.9.1-1.3.3-2.9 1.5-3.2.7-.2 1.4.1 2.2.4 2.5 1 5.7 2.4 8.2 3.4 1.2.5 5 1.9 6.1 1.8 1.1-.1 2.1-1 1.9-2.3v-.2l-17.8-8.8c-5.1 14.4-7.8 32-.4 37.1z"></path><path fill="#fde0bb" d="M73.1 243.7c6.7-.4 13.3-1.4 19.7-2.8 3.4-.8 6.9-1.7 10.7-1 5 .9 9.9 4.4 14.2 8.2.6.5 1.2 1.1 1.5 1.8.4.7.4 1.6 0 1.9-.1.1-.2.1-.4.2 0-.3-.1-.7-.3-1.1-.4-.7-1-1.2-1.5-1.8-4.3-3.8-9.2-7.3-14.2-8.2-3.8-.7-7.3.2-10.7 1-6.3 1.4-14.8 1.4-21.4 1.9l2.4-.1z"></path><path fill="#fde0bb" d="M116.6 249.4c-.3.5.1 1.3.8 1.9.7.6 1.5.6 1.8.1.3-.5-.1-1.3-.8-1.9-.8-.5-1.6-.6-1.8-.1zM65.2 244s-5.6-.6-9.5 4.1c3.1-2.5 6.8-3.8 10.9-4.2l-1.4.1z"></path><path fill="#f35170" d="M57.3 200.1c2.8-7.2 11-9.5 19.3-11.9l3.3 36.9c-2.5 4.4-5.2 7.8-8.1 9-4.5 2-15.2-1.8-20-5.6-4-3.1.9-16.4 5.5-28.4z"></path><path fill="#da2157" d="M76.7 190.6c-7.8 2.2-15.3 4.7-17.9 11.5-4.1 10.6-8.3 22.2-6.5 26.9-.2-.1-.4-.3-.5-.4-3.9-3.1.9-16.5 5.5-28.5 2.8-7.2 11-9.5 19.3-11.9l.1 2.4z"></path><path fill="#4c5c75" d="m216.2 210.7-13 47.1c-.5 1.9-2.5 3.5-4.4 3.5h-76.6c-1.9 0-3-1.6-2.5-3.5l13-47.1c.5-1.9 2.5-3.5 4.4-3.5h76.6c2 .1 3.1 1.6 2.5 3.5z"></path><path fill="#111d33" d="M142.8 207.3c-1.9 0-3.9 1.5-4.4 3.5l-13 47.1c-.5 1.9.6 3.5 2.5 3.5H90c-3.6 0-6.6-2.8-7-6.3 0-.4.3-.8.7-.8h37l12-43.5c.5-1.9 2.5-3.5 4.4-3.5h5.7zM176.6 234.1c-1.3 2.6-4.3 4.6-6.9 4.6-2.8 0-4.1-2.3-3-5 1.1-2.7 4.2-4.9 6.9-5-.1.2-.1.3-.2.5-1.2 2.8.2 5 3 5 .1-.1.1-.1.2-.1z"></path><path fill="#fff" d="M55.5 92.2V192c0 1.1-.9 2-2 2H34.1c-1.1 0-2-.9-2-2V92.2c0-1.1.9-2 2-2h19.3c1.2 0 2.1.9 2.1 2z"></path><path fill="#4c5c75" d="M55.5 96.6v-4.4c0-1.1-.9-2-2-2H34.1c-1.1 0-2 .9-2 2v4.4h23.4z"></path><path fill="#ffd375" d="M50.2 102.6v8.9c0 .8-.7 1.5-1.5 1.5H39c-.8 0-1.5-.7-1.5-1.5v-8.9c0-.8.7-1.5 1.5-1.5h9.7c.8 0 1.5.7 1.5 1.5z"></path><path fill="#f35170" d="M50.2 117.9v8.9c0 .8-.7 1.5-1.5 1.5H39c-.8 0-1.5-.7-1.5-1.5v-8.9c0-.8.7-1.5 1.5-1.5h9.7c.8 0 1.5.7 1.5 1.5z"></path><path fill="#be7d5a" d="M50.2 133.2v8.9c0 .8-.7 1.5-1.5 1.5H39c-.8 0-1.5-.7-1.5-1.5v-8.9c0-.8.7-1.5 1.5-1.5h9.7c.8.1 1.5.7 1.5 1.5z"></path><path fill="#9ebbfb" d="M50.2 148.6v8.9c0 .8-.7 1.5-1.5 1.5H39c-.8 0-1.5-.7-1.5-1.5v-8.9c0-.8.7-1.5 1.5-1.5h9.7c.8 0 1.5.6 1.5 1.5z"></path><path fill="#6eb854" d="M50.2 163.9v8.9c0 .8-.7 1.5-1.5 1.5H39c-.8 0-1.5-.7-1.5-1.5v-8.9c0-.8.7-1.5 1.5-1.5h9.7c.8 0 1.5.6 1.5 1.5z"></path><path fill="#b189fc" d="M50.2 179.2v8.9c0 .8-.7 1.5-1.5 1.5H39c-.8 0-1.5-.7-1.5-1.5v-8.9c0-.8.7-1.5 1.5-1.5h9.7c.8 0 1.5.6 1.5 1.5z"></path><path fill="#ffd375" d="M112.2 66.9c0 6.6-3.3 12.3-8.4 15.7-1.7 1.2-3.1 2.8-3.9 4.6H86.5c-.1-.2-.2-.4-.3-.5-.8-1.6-2.1-3-3.6-4-5.1-3.4-8.4-9.2-8.4-15.8 0-10.5 8.5-19 19-19s19 8.5 19 19z"></path><path fill="#4c5c75" d="M91.4 73.4H88c-2.4 0-4.3-1.9-4.3-4.3s1.9-4.3 4.3-4.3 4.3 1.9 4.3 4.3v3.4c0 .6-.4.9-.9.9zm-3.5-6.8c-1.4 0-2.6 1.1-2.6 2.6 0 1.4 1.1 2.6 2.6 2.6h2.6v-2.6c0-1.5-1.2-2.6-2.6-2.6zM98.4 73.4H95c-.5 0-.9-.4-.9-.9v-3.4c0-2.4 1.9-4.3 4.3-4.3s4.3 1.9 4.3 4.3c.1 2.4-1.9 4.3-4.3 4.3zm-2.5-1.7h2.6c1.4 0 2.6-1.1 2.6-2.6 0-1.4-1.1-2.6-2.6-2.6-1.4 0-2.6 1.1-2.6 2.6v2.6z"></path><path fill="#4c5c75" d="M95 88.8h-3.6c-.5 0-.9-.4-.9-.9V72.6c0-.5.4-.9.9-.9H95c.5 0 .9.4.9.9v15.3c0 .5-.4.9-.9.9zM92.3 87h1.8V73.4h-1.8V87z"></path><path fill="#4c5c75" d="M101.3 87.9v7.6c0 1.8-1.4 3.2-3.2 3.2h-10c-1.8 0-3.2-1.4-3.2-3.2v-7.6c0-.4.3-.7.7-.7h15c.4 0 .7.3.7.7z"></path><path fill="#111d33" d="M89.8 98.7c.4 1.5 1.8 2.5 3.4 2.5 1.6 0 2.9-1.1 3.4-2.5h-6.8zM103.3 90.3c0 .6-.5 1-1 1H84.1c-.6 0-1-.5-1-1 0-.6.5-1 1-1h18.2c.6-.1 1 .4 1 1zM103.3 94.1c0 .6-.5 1-1 1H84.1c-.6 0-1-.5-1-1 0-.6.5-1 1-1h18.2c.6 0 1 .4 1 1z"></path><path fill="#ffd375" d="M94.6 39v2.8c0 .9-.8 1.7-1.7 1.7-.9 0-1.7-.8-1.7-1.7V39c0-.9.8-1.7 1.7-1.7 1 0 1.7.8 1.7 1.7zM80.5 42l1.4 2.5c.5.8.2 1.8-.6 2.3-.8.5-1.8.2-2.3-.6l-1.4-2.5c-.5-.8-.2-1.8.6-2.3.8-.5 1.8-.2 2.3.6zM69.8 51.7l2.5 1.4c.8.5 1.1 1.5.6 2.3-.5.8-1.5 1.1-2.3.6l-2.5-1.4c-.8-.5-1.1-1.5-.6-2.3.5-.8 1.5-1.1 2.3-.6zM65.3 65.4h2.8c.9 0 1.7.8 1.7 1.7 0 .9-.8 1.7-1.7 1.7h-2.8c-.9 0-1.7-.8-1.7-1.7.1-.9.8-1.7 1.7-1.7zM121 68.3h-2.8c-.9 0-1.7-.8-1.7-1.7 0-.9.8-1.7 1.7-1.7h2.8c.9 0 1.7.8 1.7 1.7 0 .9-.7 1.7-1.7 1.7zM118 54.2l-2.5 1.4c-.8.5-1.8.2-2.3-.6-.5-.8-.2-1.8.6-2.3l2.5-1.4c.8-.5 1.8-.2 2.3.6.5.8.2 1.8-.6 2.3zM108.4 43.5 107 46c-.5.8-1.5 1.1-2.3.6-.8-.5-1.1-1.5-.6-2.3l1.4-2.5c.5-.8 1.5-1.1 2.3-.6.7.4 1 1.5.6 2.3z"></path><path fill="#9ebbfb" d="M257.6 225H232c-1.8 0-2.8-2-1.9-3.5l5.5-8.5c.9-1.4 2.9-1.4 3.8 0l3.2 4.8 5.4-8.3c.9-1.4 2.9-1.4 3.8 0l7.8 11.9c.8 1.6-.2 3.6-2 3.6z"></path><path fill="#ffd375" d="M245.2 206.1c0 1.9-1.6 3.5-3.5 3.5s-3.5-1.6-3.5-3.5 1.6-3.5 3.5-3.5 3.5 1.6 3.5 3.5zM202.1 127.2c0 5.5-4.5 10-10 10s-10-4.5-10-10c0-5.6 4.5-10 10-10s10 4.5 10 10z"></path><path fill="#f35170" d="M188.9 140.8h-13c-.7 0-1.1-.8-.7-1.3l6.5-9.7c.3-.5 1.1-.5 1.4 0l6.5 9.7c.4.5 0 1.3-.7 1.3z"></path><path fill="#b189fc" d="M207.6 130.7v10.5c0 .8-.6 1.4-1.4 1.4h-11.4c-.8 0-1.4-.6-1.4-1.4v-10.5c0-.8.6-1.4 1.4-1.4h11.4c.7.1 1.4.7 1.4 1.4z"></path></svg>