<svg xmlns="http://www.w3.org/2000/svg" enable-background="new 0 0 50 50" viewBox="0 0 50 50" id="expert-team"><polygon fill="#B03241" points="40.3 26.8 42 26.8 41.6 27.8 40.7 27.8"></polygon><polygon fill="#E24C5B" points="43 33.3 39.4 33.3 40.7 27.8 41.6 27.8"></polygon><path fill="#333353" d="M47.9,34H34.5c-1,0-1.7-0.8-1.6-1.8c0.3-2.2,1-5.7,2.1-6.6c0.6-0.5,1.6-0.8,2.8-1c0.5,2,1.7,4,3.4,5.9c1.6-1.8,2.8-3.8,3.4-5.9c1.1,0.2,2.1,0.6,2.8,1c1.2,0.9,1.8,4.4,2.1,6.6C49.6,33.2,48.9,34,47.9,34z"></path><circle cx="44.7" cy="19.5" r=".8" fill="#D6995C"></circle><circle cx="37.8" cy="19.5" r=".8" fill="#D6995C"></circle><path fill="#E6B57C" d="M42.1,15.2h-1.8c-1.4,0-2.6,1.1-2.6,2.6v3.8c0,1.2,1,2.1,2.1,2.1h2.7c1.2,0,2.1-1,2.1-2.1v-3.8C44.7,16.3,43.6,15.2,42.1,15.2z"></path><path fill="#50506D" d="M43.7,18.4l-1.1,0.3c-0.1,0-0.3,0-0.3-0.2l0,0c0-0.1,0-0.3,0.2-0.3l1.1-0.3c0.1,0,0.3,0,0.3,0.2l0,0C44,18.2,43.9,18.3,43.7,18.4z"></path><path fill="#333353" d="M42.7 19.1c0 .2.2.4.4.4s.4-.2.4-.4H42.7zM39.4 19.5c.2 0 .4-.2.4-.4h-.7C39 19.3 39.2 19.5 39.4 19.5z"></path><path fill="#50506D" d="M38.8,18.5H40c0.1,0,0.3-0.1,0.3-0.3l0,0c0-0.1-0.1-0.3-0.3-0.3h-1.2c-0.1,0-0.3,0.1-0.3,0.3l0,0C38.5,18.4,38.6,18.5,38.8,18.5z"></path><path fill="#E24C5B" d="M40.7,21.1c-0.3,0-0.4,0.5-0.1,0.6c0.2,0.1,0.4,0.1,0.6,0.1s0.4,0,0.6-0.1c0.3-0.1,0.2-0.6-0.1-0.6H40.7z"></path><path fill="#FDD5A6" d="M42,20.2L42,20.2c0,0.2-0.2,0.4-0.4,0.4h-0.9c-0.2,0-0.4-0.2-0.4-0.4l0,0c0-0.1,0-0.2,0.1-0.3l0.1-0.1c0.1-0.1,0.1-0.2,0.1-0.3v-1.1c0-0.3,0.2-0.5,0.5-0.5l0,0c0.3,0,0.5,0.2,0.5,0.5v1.1c0,0.1,0,0.2,0.1,0.3l0.1,0.1C42,20,42,20.1,42,20.2z"></path><g><polygon fill="#B03241" points="8 26.8 9.7 26.8 9.3 27.8 8.4 27.8"></polygon><polygon fill="#E24C5B" points="10.6 33.3 7 33.3 8.4 27.8 9.3 27.8"></polygon><path fill="#333353" d="M15.5,34H2.1c-1,0-1.7-0.8-1.6-1.8c0.3-2.2,1-5.7,2.1-6.6c0.6-0.5,1.6-0.8,2.8-1c0.5,2,1.7,4,3.4,5.9c1.6-1.8,2.8-3.8,3.4-5.9c1.1,0.2,2.1,0.6,2.8,1c1.2,0.9,1.8,4.4,2.1,6.6C17.2,33.2,16.4,34,15.5,34z"></path><circle cx="12.2" cy="19.5" r=".8" fill="#D6995C"></circle><circle cx="5.3" cy="19.5" r=".8" fill="#D6995C"></circle><path fill="#E6B57C" d="M9.7,15.2H7.9c-1.4,0-2.6,1.1-2.6,2.6v3.8c0,1.2,1,2.1,2.1,2.1h2.7c1.2,0,2.1-1,2.1-2.1v-3.8C12.2,16.3,11.1,15.2,9.7,15.2z"></path><path fill="#50506D" d="M11.3,18.4l-1.1,0.3c-0.1,0-0.3,0-0.3-0.2l0,0c0-0.1,0-0.3,0.2-0.3l1.1-0.3c0.1,0,0.3,0,0.3,0.2l0,0C11.5,18.2,11.4,18.3,11.3,18.4z"></path><path fill="#333353" d="M10.2 19.1c0 .2.2.4.4.4s.4-.2.4-.4H10.2zM7 19.5c.2 0 .4-.2.4-.4H6.6C6.6 19.3 6.8 19.5 7 19.5z"></path><path fill="#50506D" d="M6.3,18.5h1.2c0.1,0,0.3-0.1,0.3-0.3l0,0c0-0.1-0.1-0.3-0.3-0.3H6.3C6.2,17.9,6,18,6,18.2l0,0C6.1,18.4,6.2,18.5,6.3,18.5z"></path><path fill="#E24C5B" d="M8.4,21.1c-0.3,0-0.4,0.5-0.1,0.6c0.2,0.1,0.4,0.1,0.6,0.1c0.2,0,0.4,0,0.6-0.1c0.3-0.1,0.2-0.6-0.1-0.6H8.4z"></path><path fill="#FDD5A6" d="M9.7,20.2L9.7,20.2c0,0.2-0.2,0.4-0.4,0.4H8.4c-0.2,0-0.4-0.2-0.4-0.4l0,0c0-0.1,0-0.2,0.1-0.3h0.1c0.1-0.1,0.1-0.2,0.1-0.3v-1.1c0-0.3,0.2-0.5,0.5-0.5l0,0c0.3,0,0.5,0.2,0.5,0.5v1.1c0,0.1,0,0.2,0.1,0.3L9.5,20C9.6,20,9.7,20.1,9.7,20.2z"></path></g><g><polygon fill="#B03241" points="23.4 27.2 26.6 27.2 25.9 28.9 24.1 28.9"></polygon><polygon fill="#E24C5B" points="28.4 39.2 21.6 39.2 24.1 28.9 25.9 28.9"></polygon><path fill="#68B9FC" d="M33.5,13.7l-1.9-0.2c-0.2-0.6-0.4-1.2-0.7-1.7l1.2-1.4l0,0L30,8.3l0,0l-1.4,1.2c-0.5-0.3-1.1-0.6-1.7-0.7l-0.2-1.9l0,0h-3.1l0,0l-0.2,1.8C22.7,8.8,22,9,21.5,9.3l-1.4-1.1l0,0L18,10.3l0,0l1.2,1.4c-0.3,0.5-0.5,1.1-0.7,1.7l-1.9,0.2v3l1.9,0.2c0.2,0.6,0.4,1.2,0.7,1.7L18,20.1l0,0l2.1,2.1l0,0l1.5-1.2c0.5,0.3,1.1,0.5,1.7,0.7l0.2,1.9l0,0h3l0,0l0.2-1.9c0.6-0.2,1.2-0.4,1.7-0.7l1.5,1.2l0,0l2.1-2.1l-1.2-1.5c0.3-0.5,0.6-1.1,0.7-1.7l1.9-0.2l0,0L33.5,13.7C33.4,13.7,33.5,13.7,33.5,13.7z"></path><circle cx="25" cy="15.2" r="4.3" fill="#FFF"></circle><circle cx="25" cy="15.2" r="1.9" fill="#68B9FC"></circle><path fill="#50506D" d="M37.4,43.3H12.6c-1.8,0-3.2-1.6-3-3.4c0.6-4.1,1.8-10.6,4.1-12.2c1.2-0.9,3.1-1.5,5.1-1.9c1,3.9,3.2,7.4,6.2,10.9c3.1-3.5,5.2-7,6.2-10.9c2.1,0.4,4,1.1,5.1,1.9c2.1,1.6,3.5,8.2,4.1,12.2C40.7,41.6,39.3,43.3,37.4,43.3z"></path></g></svg>