<svg xmlns="http://www.w3.org/2000/svg" enable-background="new 0 0 504 504.114" viewBox="0 0 504 504.114" id="consulting"><path fill="#333" d="M307.606,127.891c-0.383,2.172-2.45,3.623-4.625,3.247c-0.165-0.029-10.571-1.712-17.775,3.363
	c-0.7,0.494-1.504,0.73-2.3,0.73c-1.257,0-2.494-0.591-3.273-1.696c-1.272-1.806-0.84-4.301,0.966-5.573
	c9.98-7.031,23.204-4.804,23.762-4.705C306.537,123.641,307.989,125.715,307.606,127.891z M297.298,161.311
	c-0.049-0.01-0.099-0.014-0.149-0.023c-0.221-0.032-0.445-0.054-0.671-0.068c-0.008,0-0.015-0.002-0.023-0.002
	c-0.052,0-0.099-0.006-0.151-0.006c-0.102-0.004-0.202-0.015-0.304-0.015c-0.008,0-0.016,0.001-0.025,0.001
	c-1.804-0.101-3.087-0.77-3.806-2.009c-1.108-1.909-3.556-2.561-5.467-1.452c-1.911,1.109-2.561,3.557-1.452,5.468
	c0.788,1.357,1.82,2.498,3.032,3.419c-1.267-0.118-2.485-0.394-3.306-0.882c-1.899-1.134-4.354-0.507-5.483,1.391
	s-0.507,4.353,1.391,5.482c2.214,1.318,5.66,2.051,9.03,2.051c0.084,0,0.167-0.006,0.251-0.007c1.46,1.559,3.53,2.538,5.834,2.538
	c4.418,0,8-3.582,8-8C304,165.221,301.097,161.932,297.298,161.311z M376,177.196c2.304,0,4.374-0.979,5.834-2.538
	c0.084,0.001,0.167,0.007,0.251,0.007c3.371,0,6.816-0.732,9.03-2.051c1.898-1.13,2.521-3.585,1.391-5.482
	c-1.13-1.898-3.585-2.522-5.483-1.391c-0.821,0.488-2.038,0.764-3.306,0.882c1.212-0.921,2.244-2.062,3.032-3.419
	c1.109-1.911,0.459-4.358-1.452-5.468c-1.91-1.106-4.359-0.458-5.467,1.452c-0.719,1.238-2.002,1.908-3.806,2.009
	c-0.008,0-0.016-0.001-0.024-0.001c-0.103,0-0.202,0.012-0.304,0.015c-0.052,0.001-0.099,0.006-0.151,0.006
	c-0.008,0-0.015,0.002-0.023,0.002c-0.227,0.013-0.45,0.036-0.671,0.068c-0.049,0.009-0.1,0.012-0.149,0.023
	c-3.799,0.621-6.702,3.91-6.702,7.885C368,173.614,371.582,177.196,376,177.196z M351.047,202.823
	c-4.966,1.406-10.029,2.119-15.049,2.119c-5.026,0-10.09-0.714-15.053-2.121c-7.936-2.248-12.566-10.537-10.32-18.477
	c1.813-6.414,7.734-10.896,14.4-10.896c1.389,0,2.77,0.194,4.105,0.576c4.547,1.288,9.169,1.292,13.763-0.008
	c1.32-0.374,2.691-0.564,4.07-0.564c6.683,0,12.609,4.488,14.413,10.915C363.619,192.289,358.987,200.571,351.047,202.823z
	 M348.866,195.126c3.696-1.048,5.854-4.9,4.811-8.587c-0.841-2.998-3.601-5.086-6.713-5.086c-0.641,0-1.276,0.088-1.89,0.263
	c-6.019,1.701-12.146,1.7-18.135,0.004c-0.631-0.181-1.271-0.271-1.914-0.271c-3.102,0-5.858,2.086-6.702,5.072
	c-1.046,3.697,1.109,7.556,4.804,8.603C331.631,197.537,340.352,197.538,348.866,195.126z M473.296,283.058
	C482.528,323.948,504,421.172,504,440.763c0,28.91-14.365,50.227-36.597,54.307c-3.428,0.629-6.711,0.942-9.845,0.943
	c-10.466,0-19.283-3.505-26.408-10.478v14.579c0,2.209-1.791,4-4,4h-27.881H141.833h-80.77c-2.209,0-4-1.791-4-4v-92.749
	c0-2.209,1.791-4,4-4h4.525v-55.479c0-8.548,6.955-15.502,15.503-15.502c8.548,0,15.502,6.954,15.502,15.502v55.479h11.879v-55.479
	c0-8.548,6.955-15.502,15.502-15.502c8.548,0,15.503,6.954,15.503,15.502v12.671h0.898c9.065,0,16.439,7.375,16.439,16.439v17.732
	c0,2.209-1.791,4-4,4s-4-1.791-4-4v-17.732c0-4.653-3.786-8.439-8.439-8.439h-0.898v34.808h2.355c2.209,0,4,1.791,4,4v42.583
	c12.73-0.769,24.655-0.705,35.728,0.18c13.306-41.919,34.12-76.123,61.939-101.656c13.121-12.043,26.321-20.795,38.344-27.151
	c-6.056-7.934-9.242-16.979-9.242-26.437c0-8.002,2.341-15.851,6.796-22.919c-12.269-9.387-21.666-20.231-26.827-28.832
	c-2.312-3.854-4.488-8.553-6.499-13.96c-11.646-0.235-22.959-9.072-27.729-22.138c-5.674-15.54-0.544-32.325,11.42-39.198
	c-18.67-17.373-23.672-50.556-18.464-75.391c5.571-26.56,25.597-55.36,53.432-60.517C271.192,16.697,293.152,0,336,0
	c51.228,0,88.812,22.227,105.827,62.587c12.858,30.5,7.448,69.907,3.283,90.02c0.652-0.213,1.328-0.387,2.039-0.49
	c2.012-0.291,4.425-0.186,7.12,0.787c2.78-4.704,7.41-8.812,13.701-8.812c11.604,0,20.625,11.668,25.403,32.855
	c2.379,10.548,7.129,37.3-0.13,57.846c-2.596,7.347-7.631,15.931-14.965,25.514C473.311,266.793,471.496,275.085,473.296,283.058z
	 M444.051,162.823c0.217,0.157,0.438,0.307,0.648,0.478c4.151,3.382,7.288,6.759,9.322,10.036c5.464,8.804,6.705,26.587,6.755,27.34
	c0.146,2.204-1.521,4.108-3.724,4.256c-2.203,0.136-4.11-1.52-4.258-3.724c-0.308-4.579-1.908-17.755-5.569-23.653
	c-1.544-2.486-4.165-5.271-7.579-8.054c-2.232-1.819-5.474-1.581-7.378,0.542c-1.577,1.758-1.827,4.342-0.608,6.285
	c7.53,12.012,10.492,28.423,7.043,39.022c-1.49,4.578-3.754,7.742-6.151,11.093c-3.27,4.568-6.976,9.747-9.802,20.54
	c-3.855,14.718-6.066,117.242-2.891,174.717c2.826,3.219,15.029,15.197,38.634,13.074c23.319-2.086,32.08-16.546,34.032-20.442
	c-6.781-38.946-21.589-105.405-27.032-129.514c-2.324-10.293,0.02-21,6.431-29.376c6.728-8.79,11.491-16.853,13.775-23.315
	c6.75-19.104,1.606-45.719-0.13-53.421c-3.758-16.666-10.337-26.615-17.599-26.615c-3.348,0-5.614,2.806-6.864,4.969
	c2.807,2.419,5.773,5.88,8.81,10.757c6.753,10.848,6.831,27.754,6.831,28.469c0,2.209-1.791,4-4,4s-4-1.791-4-4
	c0-0.149-0.087-15.349-5.622-24.24c-5.139-8.256-10.539-12.639-14.826-12.013C446.78,160.254,445.294,161.406,444.051,162.823z
	 M356,311.338v-20.907c-6.69,1.752-13.371,2.645-19.999,2.645c-6.884,0-13.572-0.972-19.994-2.654L316,311.339l20,18.65L356,311.338
	z M312,313.078h-0.001H312L312,313.078z M364,310.156c5.444,1.791,11.833,4.231,18.835,7.526c4.969-6.052,7.849-12.888,8.44-20.034
	l-16.633-6.006c-1.585-0.572-2.642-2.076-2.642-3.762v-3.292c-2.664,1.25-5.331,2.361-8,3.336V310.156z M431.477,197.986
	l-32.079,33.265v53.724l12.852-13.327c0.749-12.984,1.686-22.588,2.76-26.69c3.201-12.221,7.545-18.291,11.036-23.169
	c2.203-3.077,3.943-5.509,5.05-8.911C432.41,208.836,432.463,203.523,431.477,197.986z M383.164,220.967l11.155,4.027l34.692-35.974
	c-1.113-2.965-2.496-5.835-4.13-8.441c-0.377-0.602-0.698-1.228-0.966-1.869L383.164,220.967z M380,228.33v56.741l11.398,4.116
	v-56.742L380,228.33z M390.145,321.335c6.451,3.41,13.281,7.542,20.27,12.51c0.176-18.064,0.602-35.419,1.229-50.046l-12.287,12.742
	C399.008,305.403,395.854,313.862,390.145,321.335z M285.918,81.61c17.877,20.513,94.789,60.415,149.413,77.803
	c3.385-13.738,13.155-60.435-0.877-93.719C418.77,28.489,383.805,8,336,8c-53.676,0-63.592,25.799-64.546,28.741
	C268.149,46.93,267.283,60.228,285.918,81.61z M234.57,161.36c3.117-17.33,14.286-29.706,25.134-41.722
	c9.022-9.994,17.565-19.468,21.425-31.408c-0.433-0.459-0.851-0.915-1.242-1.363c-17.716-20.327-19.817-34.742-17.714-46.113
	c-22.284,6.429-38.307,30.757-43.043,53.337C214.399,116.648,219.118,146.233,234.57,161.36z M243.287,220.88
	c-3.921-12.905-7.019-28.767-8.988-46.394c-9.074,4.717-12.874,17.666-8.442,29.806C229.076,213.103,235.942,219.425,243.287,220.88
	z M336.001,285.076c11.836,0,23.935-3.165,35.999-9.402v-53.041h0.005c0-1.024,0.389-2.023,1.116-2.776l53.078-55.04
	c-46.621-15.9-111.711-47.915-138.721-70.661c-4.789,11.94-13.43,21.531-21.836,30.843c-11.877,13.158-23.095,25.591-23.879,43.982
	c2.997,30.417,9.596,56.585,17.668,70.039C270.116,256.825,300.352,285.076,336.001,285.076z M289.156,317.671
	c6.892-3.241,13.264-5.683,18.845-7.516l0.008-22.226c-7.933-2.896-15.349-6.831-22.083-11.306
	c-3.489,5.686-5.323,11.931-5.323,18.261C280.602,303.024,283.555,310.845,289.156,317.671z M189.675,450.936
	c10.816,1.316,20.743,3.474,29.709,6.484c8.005,2.688,15.153,6.043,21.466,10.021v-34.129c0-2.209,1.791-4,4-4s4,1.791,4,4v39.875
	c6.394,5.247,11.653,11.325,15.726,18.229c8.986-15.188,23.679-26.406,43.427-33.409v-83.07c0-12.15,4.656-23.183,13.109-31.065
	l9.022-8.413l-19.153-17.86C282.812,326.784,220.023,357.264,189.675,450.936z M145.833,457.965v38.15h101.604
	c-24.287-10.525-51.95-15.689-85.658-16.077c-2.209-0.025-3.979-1.837-3.954-4.046c0.025-2.209,1.829-3.978,4.045-3.954
	c36.518,0.421,66.269,6.309,92.434,18.379c-8.386-11.33-20.926-19.858-37.466-25.412
	C197.719,458.586,173.84,456.227,145.833,457.965z M116.472,347.887v12.671h15.005v-12.671c0-4.137-3.366-7.502-7.503-7.502
	C119.838,340.385,116.472,343.75,116.472,347.887z M116.472,403.365h15.005v-34.808h-15.005V403.365z M88.593,368.558H73.588v10.753
	h15.005V368.558z M73.588,347.887v12.671h15.005v-12.671c0-4.137-3.366-7.502-7.502-7.502
	C76.954,340.385,73.588,343.75,73.588,347.887z M73.588,403.365h15.005v-16.055H73.588V403.365z M137.833,411.365h-72.77v84.749
	h72.77V411.365z M398.439,459.258c-37.761-4.108-97.735-4.141-123.683,31.181c29.357-13.53,63.565-19.375,106.365-18.302
	c2.208,0.056,3.954,1.891,3.898,4.1c-0.055,2.209-1.89,3.996-4.099,3.898c-39.801-1.003-71.821,4.11-99.26,15.979h113.907
	L398.439,459.258z M423.15,475.044c-2.617-4.516-4.877-9.753-6.77-15.719c-4.585-14.449-6.26-66.273-6.036-115.601
	c-18.815-14.311-36.795-22.052-49.326-26.126l-34.45,32.125c-6.813,6.353-10.565,15.307-10.565,25.214v80.547
	c23.311-6.534,52.681-7.885,87.201-3.732c2.128,0.256,3.677,2.145,3.51,4.282l-3.122,40.081h19.558V475.044z M496,440.763
	c0-3.065-0.59-8.292-1.608-15.035c-5.885,6.908-16.718,15.364-35.187,17.016c-2.14,0.191-4.207,0.281-6.191,0.281
	c-15.251,0-25.914-5.274-32.412-10.003c0.856,10.968,1.977,19.389,3.403,23.883c7.667,24.159,21.388,34.074,41.953,30.295
	C488.108,483.136,496,460.547,496,440.763z M349.784,372.474c0,7.083-5.762,12.845-12.844,12.845s-12.845-5.762-12.845-12.845
	s5.762-12.845,12.845-12.845S349.784,365.391,349.784,372.474z M341.784,372.474c0-2.672-2.173-4.845-4.844-4.845
	c-2.671,0-4.845,2.173-4.845,4.845s2.173,4.845,4.845,4.845C339.611,377.318,341.784,375.146,341.784,372.474z M349.784,426.95
	c0,7.083-5.762,12.845-12.844,12.845s-12.845-5.762-12.845-12.845c0-7.082,5.762-12.844,12.845-12.844
	S349.784,419.868,349.784,426.95z M341.784,426.95c0-2.671-2.173-4.844-4.844-4.844c-2.671,0-4.845,2.173-4.845,4.844
	c0,2.672,2.173,4.845,4.845,4.845C339.611,431.795,341.784,429.622,341.784,426.95z M88.982,67.562
	c0-7.766,6.318-14.084,14.084-14.084s14.084,6.318,14.084,14.084s-6.318,14.084-14.084,14.084S88.982,75.327,88.982,67.562z
	 M96.982,67.562c0,3.354,2.729,6.084,6.084,6.084c3.355,0,6.084-2.729,6.084-6.084s-2.729-6.084-6.084-6.084
	C99.712,61.478,96.982,64.207,96.982,67.562z M38.666,67.562c0-7.766,6.318-14.084,14.084-14.084s14.084,6.318,14.084,14.084
	S60.516,81.646,52.75,81.646S38.666,75.327,38.666,67.562z M46.666,67.562c0,3.354,2.729,6.084,6.084,6.084s6.084-2.729,6.084-6.084
	s-2.729-6.084-6.084-6.084S46.666,64.207,46.666,67.562z M139.299,67.562c0-7.766,6.318-14.084,14.084-14.084
	s14.084,6.318,14.084,14.084s-6.318,14.084-14.084,14.084S139.299,75.327,139.299,67.562z M147.299,67.562
	c0,3.354,2.729,6.084,6.084,6.084s6.084-2.729,6.084-6.084s-2.729-6.084-6.084-6.084S147.299,64.207,147.299,67.562z M0,67.562
	c0-18.358,10.959-35.487,30.858-48.232C50.206,6.938,75.85,0.114,103.066,0.114s52.861,6.824,72.208,19.215
	c19.9,12.745,30.859,29.874,30.859,48.232c0,20.219-13.393,38.965-36.865,51.783l6.679,34.877c0.306,1.596-0.385,3.218-1.747,4.104
	c-0.664,0.432-1.423,0.647-2.182,0.647c-0.797,0-1.594-0.238-2.279-0.713l-37.479-25.98c-9.452,1.811-19.264,2.729-29.194,2.729
	c-27.217,0-52.861-6.824-72.208-19.215C10.959,103.049,0,85.92,0,67.562z M8,67.562c0,32.779,42.646,59.447,95.066,59.447
	c9.985,0,19.837-0.976,29.282-2.901c0.265-0.054,0.533-0.08,0.799-0.08c0.808,0,1.604,0.245,2.279,0.713l30.821,21.366
	l-5.393-28.164c-0.334-1.747,0.525-3.505,2.109-4.314c22.351-11.415,35.17-28.206,35.17-46.066
	c0-32.779-42.647-59.447-95.067-59.447S8,34.782,8,67.562z M128.725,255.152c7.766,0,14.084,6.318,14.084,14.084
	s-6.318,14.084-14.084,14.084s-14.084-6.318-14.084-14.084S120.959,255.152,128.725,255.152z M128.725,263.152
	c-3.354,0-6.084,2.729-6.084,6.084s2.729,6.084,6.084,6.084s6.084-2.729,6.084-6.084S132.08,263.152,128.725,263.152z
	 M92.493,269.236c0,7.766-6.318,14.084-14.084,14.084s-14.084-6.318-14.084-14.084s6.318-14.084,14.084-14.084
	S92.493,261.471,92.493,269.236z M84.493,269.236c0-3.354-2.729-6.084-6.084-6.084s-6.084,2.729-6.084,6.084
	s2.729,6.084,6.084,6.084S84.493,272.591,84.493,269.236z M164.958,269.236c0-7.766,6.318-14.084,14.084-14.084
	s14.084,6.318,14.084,14.084s-6.318,14.084-14.084,14.084S164.958,277.002,164.958,269.236z M172.958,269.236
	c0,3.354,2.729,6.084,6.084,6.084c3.355,0,6.084-2.729,6.084-6.084s-2.729-6.084-6.084-6.084
	C175.687,263.152,172.958,265.882,172.958,269.236z M128.725,215.104c42.278,0,78.377,16.453,88.85,40.237l29.809,10.107
	c1.61,0.546,2.699,2.05,2.715,3.75c0.016,1.7-1.045,3.226-2.645,3.802l-30.218,10.886c-10.902,23.334-46.886,39.484-88.512,39.484
	c-24.15,0-46.916-5.401-64.103-15.21c-17.894-10.211-27.749-24.034-27.749-38.924c0-14.889,9.854-28.712,27.749-38.924
	C81.81,220.505,104.575,215.104,128.725,215.104z M128.725,223.104c-22.782,0-44.139,5.028-60.138,14.158
	c-15.292,8.726-23.714,20.082-23.714,31.975c0,11.894,8.422,23.249,23.714,31.976c15.999,9.13,37.356,14.158,60.138,14.158
	c38.823,0,73.241-15.218,81.839-36.184c0.429-1.047,1.281-1.862,2.345-2.246l21.07-7.59l-20.697-7.018
	c-1.129-0.383-2.029-1.25-2.454-2.365C202.697,238.607,168.167,223.104,128.725,223.104z"></path></svg>