<svg xmlns="http://www.w3.org/2000/svg" enable-background="new 0 0 66 66" viewBox="0 0 66 66" id="startup"><path d="M18.05,20.88c-2.34,4.85-0.55,10.56,0.32,12.8c0.11,0.29,0.39,0.48,0.7,0.48h4.31c0.34,0,0.63-0.22,0.72-0.55
		c0.09-0.32,0.23-0.61,0.4-0.87c0.38,1.3,0.84,2.59,1.4,3.85c0.12,0.27,0.39,0.45,0.69,0.45h0.83v2.84c0,0.41,0.34,0.75,0.75,0.75
		h9.67c0.41,0,0.75-0.34,0.75-0.75v-2.84h0.83c0.3,0,0.57-0.18,0.69-0.45c0.55-1.26,1.01-2.55,1.4-3.85
		c0.17,0.25,0.31,0.54,0.4,0.87c0.09,0.32,0.39,0.55,0.72,0.55h4.31c0.31,0,0.59-0.19,0.7-0.48c0.88-2.23,2.66-7.95,0.32-12.8
		c-1.21-2.51-3.32-4.28-6.25-5.28c-0.46-1.72-1.07-3.42-1.83-5.06c-1.56-3.37-3.69-6.42-6.34-9.07c-0.29-0.29-0.77-0.29-1.06,0
		c-2.65,2.65-4.78,5.7-6.34,9.07c-0.76,1.64-1.37,3.34-1.83,5.06C21.37,16.6,19.26,18.37,18.05,20.88z M22.86,32.65h-3.26
		c-1.5-4.11-1.58-8.24-0.19-11.12c0.9-1.87,2.41-3.26,4.48-4.16c-0.94,4.5-0.88,9.16,0.17,13.65
		C23.55,31.42,23.13,31.98,22.86,32.65z M37.08,39.13h-8.17v-2.09h8.17V39.13z M38.92,35.53h-1.08h-9.67h-1.08
		c-3.23-7.67-3.16-16.33,0.21-23.93h11.4C42.07,19.2,42.15,27.87,38.92,35.53z M46.59,21.53c1.39,2.88,1.31,7.01-0.19,11.12h-3.26
		c-0.28-0.67-0.69-1.23-1.2-1.64c1.05-4.49,1.1-9.15,0.17-13.65C44.18,18.27,45.69,19.66,46.59,21.53z M33,3.07
		c2,2.1,3.67,4.46,4.99,7.03h-9.97C29.33,7.53,31,5.18,33,3.07z"></path><path d="M33,14.8c-3.35,0-6.08,2.73-6.08,6.08s2.73,6.08,6.08,6.08s6.08-2.73,6.08-6.08S36.35,14.8,33,14.8z M33,25.45
		c-2.52,0-4.58-2.05-4.58-4.58S30.48,16.3,33,16.3s4.58,2.05,4.58,4.58S35.52,25.45,33,25.45z"></path><path d="M33,17.8c-0.41,0-0.75,0.34-0.75,0.75S32.59,19.3,33,19.3c0.87,0,1.58,0.71,1.58,1.58c0,0.41,0.34,0.75,0.75,0.75
		s0.75-0.34,0.75-0.75C36.08,19.17,34.7,17.8,33,17.8z"></path><path d="M53.06 33.11c-1.9 0-3.56 1.17-4.22 2.9-2.01.13-3.8 1.37-4.64 3.2-1.76.42-3.03 2-3.03 3.84 0 .23.02.52.05.84H24.78c.03-.29.05-.58.05-.84 0-1.84-1.27-3.41-3.03-3.84-.84-1.83-2.63-3.07-4.64-3.2-.67-1.73-2.33-2.9-4.22-2.9-.41 0-.81.06-1.21.17V21.9c0-.69.56-1.25 1.25-1.25h3.05c.41 0 .75-.34.75-.75s-.34-.75-.75-.75h-3.05c-1.52 0-2.75 1.23-2.75 2.75v20.75c0 1.52 1.23 2.75 2.75 2.75h40.04c1.52 0 2.75-1.23 2.75-2.75V21.9c0-1.52-1.23-2.75-2.75-2.75h-3.05c-.41 0-.75.34-.75.75s.34.75.75.75h3.05c.69 0 1.25.56 1.25 1.25v11.38C53.87 33.17 53.47 33.11 53.06 33.11zM11.73 42.64v-7.77c.39-.17.79-.26 1.21-.26 1.11 0 2.09.6 2.62 1.53-1.03.24-1.97.75-2.72 1.53-.29.3-.28.77.02 1.06.15.14.33.21.52.21.2 0 .39-.08.54-.23.72-.75 1.68-1.16 2.7-1.21.01 0 .01 0 .02 0 .01 0 .15-.01.16-.01 1.67 0 3.19 1.06 3.76 2.64 0 .01.01.02.01.03.15.43.23.87.23 1.33 0 .41.34.75.75.75s.75-.34.75-.75c0-.15-.03-.3-.04-.45.65.45 1.07 1.18 1.07 2 0 .22-.02.51-.06.84H12.98C12.29 43.89 11.73 43.33 11.73 42.64zM53.02 43.89H42.73c-.04-.33-.06-.63-.06-.84 0-.82.42-1.56 1.07-2-.01.15-.04.3-.04.45 0 .41.34.75.75.75s.75-.34.75-.75c0-.46.08-.91.23-1.33 0-.01.01-.02.01-.03.58-1.57 2.08-2.63 3.81-2.63.01 0 .1.01.11.01.01 0 .01 0 .02 0 1.03.05 1.98.46 2.7 1.21.15.15.34.23.54.23.19 0 .38-.07.52-.21.3-.29.31-.76.02-1.06-.75-.78-1.69-1.29-2.72-1.53.53-.93 1.51-1.53 2.62-1.53.42 0 .82.09 1.21.26v7.77C54.27 43.33 53.71 43.89 53.02 43.89zM32 49.63c0 .55.45 1 1 1s1-.45 1-1-.45-1-1-1S32 49.08 32 49.63z"></path><path d="M55.02,15.16h-8.16c-0.41,0-0.75,0.34-0.75,0.75s0.34,0.75,0.75,0.75h8.16c1.78,0,3.23,1.45,3.23,3.23v30.73
		c0,1.78-1.45,3.23-3.23,3.23H39.54H26.46H10.98c-1.78,0-3.23-1.45-3.23-3.23V19.9c0-1.78,1.45-3.23,3.23-3.23h8.16
		c0.41,0,0.75-0.34,0.75-0.75s-0.34-0.75-0.75-0.75h-8.16c-2.61,0-4.73,2.12-4.73,4.73v30.73c0,2.61,2.12,4.73,4.73,4.73h14.73v3.18
		h-2.45c-1.71,0-3.11,1.39-3.11,3.11s1.39,3.11,3.11,3.11h19.47c1.71,0,3.11-1.39,3.11-3.11s-1.39-3.11-3.11-3.11h-2.45v-3.18h14.73
		c2.61,0,4.73-2.12,4.73-4.73V19.9C59.75,17.29,57.63,15.16,55.02,15.16z M44.34,61.64c0,0.89-0.72,1.61-1.61,1.61H23.27
		c-0.89,0-1.61-0.72-1.61-1.61s0.72-1.61,1.61-1.61h3.2h13.08h3.2C43.62,60.04,44.34,60.76,44.34,61.64z M38.79,58.54H27.21v-3.18
		h11.58V58.54z"></path></svg>