<svg xmlns="http://www.w3.org/2000/svg" width="64" height="64" id="business"><g transform="translate(.6 -990.245)"><circle cx="-217.598" cy="983.359" r="3.445" fill="#cfd8dc" transform="rotate(-15)"></circle><circle cx="-220.55" cy="979.422" r="3.444" fill="#cfd8dc" transform="rotate(-15)"></circle><circle cx="-214.645" cy="977.454" r="4.429" fill="#cfd8dc" transform="rotate(-15)"></circle><circle cx="-208.74" cy="977.454" r="5.413" fill="#cfd8dc" transform="rotate(-15)"></circle><circle cx="-212.489" cy="984.026" r="5.169" fill="#cfd8dc" transform="rotate(-15)"></circle><circle cx="-206.28" cy="981.883" r="4.921" fill="#cfd8dc" transform="rotate(-15)"></circle><circle cx="-225.677" cy="984.727" r="1.748" fill="#cfd8dc" transform="rotate(-15)"></circle><circle cx="-229.246" cy="986.787" r="1.165" fill="#cfd8dc" transform="rotate(-15)"></circle><g transform="translate(-2.2 -1.7)"><path fill="#ffc107" d="M49.504 1004.355h3.626v3.367h-3.626z"></path><circle cx="51.316" cy="1001.765" r="3.885" fill="#ffc107"></circle><path fill="none" stroke="#e9eded" d="M51.316 1003.06v3.626"></path><path fill="#263238" d="M50.022 1008.111h2.59v2.59h-2.59z"></path><path fill="#ff9800" d="M51.316 997.88a3.885 3.885 0 0 1 3.885 3.885 3.885 3.885 0 0 1-2.072 3.433v2.524h-.518v-2.524a3.885 3.885 0 0 0 2.072-3.433 3.885 3.885 0 0 0-3.655-3.874 3.885 3.885 0 0 1 .288-.011z"></path><path fill="#455a64" d="M49.245 1006.362h4.144v3.173h-4.144z"></path><rect width="4.734" height="1.007" x="49" y="1007.362" fill="#263238" rx=".504" ry=".504"></rect><path fill="none" stroke="#e9eded" d="M52.611 1003.125h-2.59"></path><path fill="none" stroke="#ffeb3b" stroke-width=".583" d="M48.428 1002.167a3.237 3.237 0 0 1 3.238-3.238"></path></g><path fill="#f44336" d="M13.8 1001.662v3.21a5.5 5.5 0 0 0-1.176.493l-2.274-2.274-2.121 2.121 2.27 2.27a5.5 5.5 0 0 0-.485 1.18H6.8v3h3.211a5.5 5.5 0 0 0 .492 1.175l-2.273 2.274 2.121 2.12 2.27-2.269a5.5 5.5 0 0 0 1.18.485v3.215h3v-3.211a5.5 5.5 0 0 0 1.175-.493l2.274 2.274 2.12-2.121-2.269-2.27a5.5 5.5 0 0 0 .484-1.18H23.8v-3h-3.21a5.5 5.5 0 0 0-.49-1.177l2.27-2.272-2.12-2.12-2.27 2.269a5.5 5.5 0 0 0-1.18-.485v-3.214h-3z"></path><circle cx="15.299" cy="1010.161" r="2.5" fill="#e9eded" stroke="#263238" stroke-linecap="round" stroke-linejoin="round"></circle><path fill="#b0bec5" d="M51.563 992.765a5.413 5.413 0 0 0-.688.022 5.413 5.413 0 0 1 4.71 3.986 5.413 5.413 0 0 1 .101.47 4.92 4.92 0 0 1 2.945 3.297 4.92 4.92 0 0 1-3.478 6.028 4.92 4.92 0 0 1-1.694.144 5.169 5.169 0 0 1-3.685 3.774 5.169 5.169 0 0 1-.84.144 5.169 5.169 0 0 0 1.84-.144 5.169 5.169 0 0 0 3.685-3.774 4.92 4.92 0 0 0 1.694-.144 4.92 4.92 0 0 0 3.478-6.028 4.92 4.92 0 0 0-2.945-3.296 5.413 5.413 0 0 0-.102-.471 5.413 5.413 0 0 0-5.021-4.008zm-5.777 2.512a4.429 4.429 0 0 0-.625.029 4.429 4.429 0 0 1 .547.094 5.413 5.413 0 0 1 .078-.123zm-5.582 4.42a3.444 3.444 0 0 0-.246.03 3.444 3.444 0 0 1 .273.05 4.429 4.429 0 0 1 0-.08 3.444 3.444 0 0 0-.027 0zm-3.258 8.138a1.748 1.748 0 0 0-.52.06 1.748 1.748 0 0 0-.047.015 1.748 1.748 0 0 1 1.188 1.221 1.748 1.748 0 0 1-1.19 2.125 1.748 1.748 0 0 0 .954.016 1.748 1.748 0 0 0 1.236-2.14 1.748 1.748 0 0 0-1.621-1.295zm7.935 1.405a3.445 3.445 0 0 1-.662.257 3.445 3.445 0 0 1-.39.076 3.445 3.445 0 0 0 1.36-.07 5.169 5.169 0 0 1-.308-.263zm-10.873 2.091a1.165 1.165 0 0 0-.345.04 1.165 1.165 0 0 0-.2.073 1.165 1.165 0 0 1 .627.75 1.165 1.165 0 0 1-.625 1.354 1.165 1.165 0 0 0 .801.074 1.165 1.165 0 0 0 .824-1.428 1.165 1.165 0 0 0-1.082-.863z"></path><path fill="#d22e2e" d="M15.8 1001.662v3.214a5.5 5.5 0 0 1 1.179.485l.314-.315a5.5 5.5 0 0 0-.494-.17v-3.214h-1zm-5.45 1.43-.5.5 1.774 1.773a5.5 5.5 0 0 1 .677-.323l-1.95-1.95zm9.899 0-.5.5 1.62 1.62-2.27 2.272a5.5 5.5 0 0 1 .49 1.177h1a5.5 5.5 0 0 0-.49-1.177l2.27-2.272-2.12-2.12zm2.55 5.57v3h1v-3h-1zm-3.215 3a5.5 5.5 0 0 1-.484 1.18l2.27 2.269-1.621 1.62.5.5 2.12-2.12-2.269-2.27a5.5 5.5 0 0 0 .484-1.18h-1zm-2.609 3.296a5.5 5.5 0 0 1-1.176.493v3.21h1v-3.21a5.5 5.5 0 0 0 .498-.17l-.322-.323zm-5.355 0-1.77 1.77.5.5 1.955-1.955a5.5 5.5 0 0 1-.685-.315z"></path><g transform="translate(2.2 -1.3)"><path fill="#ffc107" d="m7.762 993.362-.512 1.912a3.39 3.39 0 0 0-.778.105l-.991-1.716-1.601.924.989 1.714a3.39 3.39 0 0 0-.477.625l-1.913-.513L2 998.199l1.911.512a3.39 3.39 0 0 0 .106.778l-1.716.99.924 1.602 1.713-.989a3.39 3.39 0 0 0 .625.476l-.512 1.914 1.785.479.513-1.912a3.39 3.39 0 0 0 .778-.105l.99 1.716 1.602-.925-.99-1.713a3.39 3.39 0 0 0 .477-.625l1.914.513.479-1.786-1.912-.512a3.39 3.39 0 0 0-.104-.78l1.715-.989-.925-1.601-1.713.989a3.39 3.39 0 0 0-.625-.476l.513-1.914-1.786-.479z"></path><circle cx="265.523" cy="962.744" r="1.541" fill="#e9eded" stroke="#263238" stroke-linecap="round" stroke-linejoin="round" transform="rotate(15)"></circle><path fill="#ff9800" d="m7.762 993.362-.067.25.854.229-.514 1.914a3.39 3.39 0 0 1 .625.476l.584-.338a3.39 3.39 0 0 0-.209-.138l.514-1.914-1.787-.479Zm-2.282.3-.75.434.74 1.284a3.39 3.39 0 0 1 .78-.106l.05-.19-.82-1.421Zm5.893 1.579-.75.433.674 1.168-1.713.99a3.39 3.39 0 0 1 .104.78l1.91.512-.412 1.537.933.25.479-1.787-1.91-.512a3.39 3.39 0 0 0-.104-.78l1.713-.99-.924-1.601Zm-8.894 1.172-.067.25.98.261a3.39 3.39 0 0 1 .153-.226l-1.066-.285Zm6.728 3.984a3.39 3.39 0 0 1-.477.625l.989 1.713-.852.49.25.434 1.602-.924-.989-1.713a3.39 3.39 0 0 0 .323-.398l-.846-.227Zm-5.27.695-.962.555.25.434 1.13-.653a3.39 3.39 0 0 1-.418-.336Zm3.19.852a3.39 3.39 0 0 1-.78.106l-.445 1.66.934.25.46-1.721-.169-.295z"></path></g><path fill="#8bc34a" d="m49.692 1039.977-1.972 1.973a1.548 1.548 0 0 0-.436-.878 1.548 1.548 0 0 0-2.19 0 1.548 1.548 0 0 0 0 2.19 1.548 1.548 0 0 0 .877.436L44 1045.67l5.692 5.692 5.693-5.692-1.972-1.972a1.548 1.548 0 0 1-.437.877 1.548 1.548 0 0 1-2.189 0 1.548 1.548 0 0 1 0-2.19 1.548 1.548 0 0 1 .878-.435l-1.973-1.973z"></path><path fill="none" stroke="#f44336" stroke-linecap="round" stroke-linejoin="round" d="M9.336 1046.161h2m-1-1v2"></path><circle cx="522.525" cy="884.036" r="1" fill="none" stroke="#1976d2" stroke-linecap="round" style="isolation:auto;mix-blend-mode:normal" stroke-linejoin="round" color="#000" overflow="visible" transform="rotate(30)"></circle><path fill="none" stroke="#388e3c" stroke-linecap="round" stroke-linejoin="round" d="m3.505 1035.024.707.707m1.42 1.42.707.706m0-2.833-.708.707m-1.419 1.42-.707.706"></path><path fill="none" stroke="#263238" stroke-linecap="round" stroke-linejoin="round" stroke-width="1.425" d="M42.5 1025.855v-1m0 0c0-.87.61-1.325 1.25-1.694a1.5 1.5 0 1 0-2.25-1.299m1 5.993h0" transform="matrix(.67768 0 0 .72645 13.997 281.66)"></path><path fill="none" stroke="#263238" stroke-linecap="round" stroke-linejoin="round" stroke-width="1.425" d="M42.5 1025.855v-1m0 0c0-.87.61-1.325 1.25-1.694a1.5 1.5 0 1 0-2.25-1.299m1 5.993h0" transform="matrix(.4792 .4792 -.51368 .51368 561.75 491.4)"></path><g transform="translate(8.636 382.677) scale(.63636)"><rect width="4" height="6" x="-26" y="1009.262" fill="#ffc107" rx="2" ry="2" transform="scale(-1 1)"></rect><rect width="4" height="6" x="-42" y="1009.262" fill="#ffc107" rx="2" ry="2" transform="scale(-1 1)"></rect><rect width="10" height="11" x="27" y="1019.262" fill="#ffc107" rx="0" ry="0"></rect><path fill="#81d4fa" fill-rule="evenodd" d="M14.889 1032.262c1.955-1 12.111-6 12.111-6h10l12.111 6c2.434 1.206 4.889 2.23 4.889 5v15.1H10v-15.1c0-2.77 2.933-4 4.889-5z"></path><path fill="#03a9f4" fill-rule="evenodd" d="M27 1026.263s-10.156 5-12.111 6c-1.956 1-4.889 2.23-4.889 5v1.1c0-2.77 2.933-4 4.889-5 1.955-1 12.111-6 12.111-6h10l12.111 6c2.434 1.205 4.889 2.23 4.889 5v-1.1c0-2.77-2.455-3.795-4.889-5l-12.111-6H27z"></path><rect width="2" height="4" x="23" y="1010.362" fill="#ff9800" rx="1" ry="1"></rect><rect width="2" height="4" x="39" y="1010.362" fill="#ff9800" rx="1" ry="1"></rect><path fill="#ff9800" d="M27 1019.263v3.347a7.968 7.968 0 0 0 5 1.752 7.968 7.968 0 0 0 5-1.752v-3.347H27z"></path><rect width="16" height="19" x="24" y="1004.262" fill="#ffc107" rx="8" ry="8"></rect><rect width="16" height="9.1" x="24" y="1004.262" fill="#ffc107" rx="0" ry="0"></rect><path fill="#ffc107" fill-rule="evenodd" d="m25.91 1026.799 1.09-.537 5-.61 5 .61 1.03.51-6.06 2.014z"></path><path fill="#03a9f4" d="M17 1042.312h2v10h-2zM45 1042.312h2v10h-2z"></path><rect width="3" height="3" x="-707.605" y="749.86" fill="#f44336" rx="0" ry="0" transform="rotate(-45)"></rect><path fill="none" stroke="#ff9800" stroke-linecap="round" stroke-linejoin="round" stroke-width="1.571" d="M30.5 1018.862h3"></path><circle cx="28.5" cy="1012.862" r=".5"></circle><path fill="none" stroke="#ff9800" stroke-linecap="round" stroke-linejoin="round" stroke-width="1.571" d="M32 1013.87v1.997m-5.496-3.897a2.305 2.215 0 0 1 1.996-1.108 2.305 2.215 0 0 1 1.996 1.108"></path><circle cx="35.5" cy="1012.862" r=".5"></circle><path fill="none" stroke="#ff9800" stroke-linecap="round" stroke-linejoin="round" stroke-width="1.571" d="M33.504 1011.97a2.305 2.215 0 0 1 1.996-1.108 2.305 2.215 0 0 1 1.996 1.108"></path><rect width="4" height="6" x="-26" y="1009.262" fill="#ffc107" rx="2" ry="2" transform="scale(-1 1)"></rect><rect width="4" height="6" x="-42" y="1009.262" fill="#ffc107" rx="2" ry="2" transform="scale(-1 1)"></rect><rect width="10" height="11" x="27" y="1019.262" fill="#ffc107" rx="0" ry="0"></rect><rect width="2" height="4" x="23" y="1010.362" fill="#ff9800" rx="1" ry="1"></rect><rect width="2" height="4" x="39" y="1010.362" fill="#ff9800" rx="1" ry="1"></rect><path fill="#ff9800" d="M27 1019.263v3.347a7.968 7.968 0 0 0 5 1.752 7.968 7.968 0 0 0 5-1.752v-3.347H27z"></path><rect width="16" height="19" x="24" y="1004.262" fill="#ffc107" rx="8" ry="8"></rect><rect width="16" height="9.1" x="24" y="1004.262" fill="#ffc107" rx="0" ry="0"></rect><path fill="#ffc107" fill-rule="evenodd" d="m25.91 1026.799 1.09-.537 5-.61 5 .61 1.03.51-6.06 2.014z"></path><path fill="#f44336" d="M30.5 1030.462h3l2 17.1-3.5 4.9-3.5-4.9z"></path><path fill="#03a9f4" d="M17 1042.312h2v10h-2zM45 1042.312h2v10h-2z"></path><path fill="#b71c1c" d="m33.756 1032.662-.18-1.623-.574-.576h-2.004l-.574.576-.184 1.623"></path><path fill="#f44336" d="m29.5 1030.862 2.5-2.5 2.5 2.5-.837.837h-3.329z"></path><path fill="#e9eded" fill-rule="evenodd" d="m27 1026.262 5 2.218-4 3.882-4-4.636zm10 0-5 2.218 4 3.882 4-4.636z"></path><circle cx="28.5" cy="1012.862" r=".5" fill="#ff9800"></circle><path fill="none" stroke="#ff9800" stroke-linecap="round" stroke-linejoin="round" stroke-width="1.571" d="M32 1014.668v1.527m-5.496-4.225a2.305 2.215 0 0 1 1.996-1.108 2.305 2.215 0 0 1 1.996 1.108"></path><circle cx="35.5" cy="1012.862" r=".5" fill="#ff9800"></circle><path fill="none" stroke="#ff9800" stroke-linecap="round" stroke-linejoin="round" stroke-width="1.571" d="M33.504 1011.97a2.305 2.215 0 0 1 1.996-1.108 2.305 2.215 0 0 1 1.996 1.108m-3.061 7.173a3.5 3.5 0 0 1-4.87.047"></path><path fill="#263238" d="M32 997.362a10 10 0 0 0-10 10 10 10 0 0 0 2 5.984v-4.103a12.773 12.773 0 0 0 9.451-1.953 12.776 12.776 0 0 0 2.676-2.426 5.977 5.977 0 0 0 3.873 2.408v6.07a10 10 0 0 0 2-5.98 10 10 0 0 0-10-10Z"></path><path fill="#b0bec5" fill-rule="evenodd" d="m24.607 1027.428-.607.297 4 4.637 4-3.88-.707-.315-3.293 3.195-3.393-3.934zm14.786 0L36 1031.362l-3.293-3.195-.707.314 4 3.881 4-4.637-.607-.297z"></path></g></g></svg>