<svg xmlns="http://www.w3.org/2000/svg" enable-background="new 0 0 130 130" viewBox="0 0 130 130" id="search-engine-optimization"><path fill="#D4DAE8" d="M128.97989,106.7017l0.02002,3.07996c0,1.30005-0.85999,2.58997-2.56,3.57996l-22.67999,13.09009
			c-3.38,1.95997-8.90002,1.95997-12.28003-0.02002c-1.69-0.96997-2.52997-2.25-2.52997-3.54004l-0.01001-2.04993
			c-0.09998-0.05005-0.20001-0.09998-0.28998-0.16003c-1.57001-0.90991-2.36005-2.10999-2.36005-3.31006l-0.00995-3.18994
			c0,0.07007,0.00995,0.15002,0.01996,0.21997c-0.10999-1.30005,0.67999-2.62,2.40002-3.60999
			c0.65997-0.38,1.39996-0.67004,2.20001-0.90002l-0.01001-2.8999c0,0.03003,0,0.04993,0.01001,0.06995
			c-0.04004-1.33997,0.82996-2.69006,2.60999-3.71997c2.77997-1.59998,6.91998-1.91003,10.22998-0.95007
			c0.34003-0.30994,0.72998-0.58997,1.19-0.85999c3.15002-1.80994,8.22998-1.80994,11.35004,0.01001
			c0.23999,0.13,0.44995,0.28003,0.64996,0.43005c3.16998-0.78003,6.96002-0.41003,9.53003,1.07996
			C128.18991,104.06168,129.02994,105.38163,128.97989,106.7017z"></path><polygon fill="#D4DAE8" points="109.43 44.462 117.2 57.782 118.15 57.162 119.87 56.172 126.02 66.832 129 65.562 128.98 72.662 127.27 73.652 100.09 57.962 100.15 38.592 101.86 37.592 106.42 46.402 107.72 45.452"></polygon><path fill="#D4DAE8" d="M127.6799,81.92167L66.99991,116.9517c-1.34003,0.77002-3.5,0.77002-4.83002,0L23.75992,96.29166
			l-0.02002-4.04993l-2.81-1.63013l-0.02002-9.77991L3.16989,91.12162c-0.22998,0.13013-0.44,0.14014-0.57996,0.06006l-1.31-0.76001
			C1.12991,90.3317,1.0499,90.16166,1.0499,89.90165L0.99991,72.89164c0-0.5,0.34998-1.12988,0.79999-1.38989l19.04999-10.98999
			L20.7999,46.18168c0-1.54004,1.08002-3.40991,2.41998-4.18994L83.89993,6.96171c0.66998-0.39001,1.28998-0.43005,1.72998-0.17004
			l2.76001,1.60999l0.01996,0.01001c0.45001,0.25,0.73004,0.79004,0.73004,1.57007l0.01996,6.47998L113.85989,2.2017
			c0.23004-0.14001,0.45001-0.15002,0.60999-0.06006l1.39001,0.80005V2.9517c0.16003,0.08997,0.25,0.28003,0.25,0.55005
			l0.04999,18.12988c0.01001,0.54004-0.37994,1.21008-0.84998,1.47998l-15.56,8.86011l-6.15002,10.65991l-0.01996-7.08997h-0.01001
			l0.02002,7.08997l-1.39001-0.79993l-0.02002-5.46008l-2.96002,1.76001l0.05005,16.27002l38.41998,22.32006
			c0.66998,0.3999,1,0.90991,0.98999,1.42993l0.01001,2.36011C128.68991,81.01176,128.35989,81.53165,127.6799,81.92167z"></path><path fill="#BAC1CE" d="M88.43371,8.42674c-0.43773-0.25867-0.05887,0.25186-0.73536,0.64976L27.02304,44.10485
						c-1.34301,0.77594-2.41746,2.64625-2.41746,4.18824l-0.86632,43.94896L20.9338,90.6105l-0.12933-44.42955
						c0-1.54205,1.07444-3.4123,2.41746-4.1883l60.67532-35.0283c0.67648-0.388,1.29328-0.42777,1.73101-0.16917L88.43371,8.42674z"></path><path fill="#5B5E71" d="M86.70578,8.59172c1.34025-0.77379,2.42993-0.15281,2.4343,1.38719l0.12595,44.42663L23.73535,92.2397
					L23.6094,47.81307c-0.00437-1.54,1.07824-3.41515,2.41844-4.18892L86.70578,8.59172z"></path><path fill="#FFF" d="M26.59429,47.805c-0.00194-0.47605,0.50908-1.35576,0.92586-1.59621l58.64215-33.85712l0.11464,40.33379
					l-59.5719,34.3934L26.59429,47.805z"></path><path fill="#CAD0DD" d="M23.73908,92.24051l0.01986,4.04901l38.41078,20.6586c1.33311,0.77595,3.4919,0.77595,4.83497,0
						L127.68,81.91977c0.67649-0.38801,1.01476-0.90528,1.01476-1.41266l-0.01993-2.37343
						c0,0.50738-0.33827,1.01476-1.01475,1.40269L23.73908,92.24051z"></path><path fill="#E4E8F4" d="M23.74357,92.23815l38.41161,22.3224c1.3315,0.77378,3.49673,0.7738,4.83693,0.00003l60.67161-35.02878
						c1.34654-0.77742,1.35359-2.0316,0.02209-2.80538l-38.41161-22.3224L23.74357,92.23815z"></path><polygon fill="#BAC1CE" points="34.642 99.756 34.637 101.369 36.041 102.179 36.045 100.567"></polygon><polygon fill="#BAC1CE" points="31.057 97.686 31.052 99.299 33.546 100.739 33.551 99.127"></polygon><polygon fill="#BAC1CE" points="28.668 96.307 28.663 97.92 30.067 98.73 30.071 97.117"></polygon><polygon fill="#BAC1CE" points="26.17 94.865 26.165 96.477 27.568 97.288 27.573 95.675"></polygon><path fill="#525566" d="M82.77939 64.8483c-.10677.06165-.10735.16728-.0013.22891l2.74216 1.59357c.10605.06163.28842.06165.3952 0l2.75244-1.58913c.11438-.06603.10735-.16728.0013-.22891l-2.74216-1.59357c-.10605-.06163-.28082-.06604-.3952 0L82.77939 64.8483zM77.96061 67.63042c-.11437.06604-.10735.16728-.00129.22891l2.74216 1.59357c.10605.06162.28082.06603.3952-.00001l2.75249-1.58915c.10673-.06162.10735-.16728.0013-.22891l-2.74216-1.59357c-.10606-.06163-.28848-.06161-.3952.00001L77.96061 67.63042zM73.13428 70.4169c-.10678.06165-.10735.16728-.0013.22891l2.74216 1.59357c.10606.06163.28843.06165.3952 0l2.76009-1.59354c.10673-.06161.09969-.16286-.00636-.22449l-2.74216-1.59357c-.10605-.06163-.28082-.06603-.38754-.00442L73.13428 70.4169zM85.54543 68.94666c-.11438.06604-.11493.16288-.0013.22892l2.73458 1.58916c.10606.06163.28082.06603.3952-.00001l4.9026-2.83051c.11437-.06603.10735-.16728.0013-.22891l-2.73459-1.58916c-.11362-.06603-.28082-.06603-.3952 0L85.54543 68.94666zM80.65044 71.77279c-.10673.06162-.11492.16289-.0013.22892l2.73459 1.58916c.10605.06163.28847.06161.3952 0l2.75249-1.58916c.11437-.06603.10735-.16728.0013-.22891l-2.73459-1.58916c-.11362-.06603-.28082-.06603-.3952 0L80.65044 71.77279zM75.72498 74.6165c-.10677.06165-.11492.16288-.0013.22891l2.73459 1.58917c.10605.06163.28842.06165.3952-.00001l2.76009-1.59354c.10673-.06162.09969-.16286-.00636-.22449l-2.73458-1.58917c-.11363-.06603-.28082-.06603-.38755-.00441L75.72498 74.6165zM70.79948 77.46024c-.10672.06161-.11492.16288-.00129.22891l2.73458 1.58917c.10606.06163.28848.06161.3952-.00001l2.7601-1.59354c.10672-.06161.10735-.16728.0013-.22891l-2.73459-1.58916c-.11362-.06603-.28848-.06161-.3952 0L70.79948 77.46024zM65.87398 80.30399c-.10673.06161-.11487.16285-.00124.22888l2.73459 1.58916c.10605.06163.28841.06165.39514.00003l2.76015-1.59357c.10672-.06161.10729-.16725.00124-.22888l-2.73458-1.58916c-.11363-.06603-.28842-.06165-.39515-.00003L65.87398 80.30399zM60.95613 83.1433c-.11438.06604-.11492.16289-.00129.22892l2.73458 1.58916c.10605.06163.28082.06603.39519 0l2.75249-1.58916c.10673-.06161.10735-.16728.0013-.22891l-2.73459-1.58916c-.11363-.06603-.28848-.06161-.3952 0L60.95613 83.1433zM56.03068 85.98701c-.11438.06604-.11493.16288-.0013.22891l2.73458 1.58917c.10605.06163.28082.06603.3952-.00001l2.75245-1.58912c.10677-.06165.10735-.16728.0013-.22891l-2.73458-1.58917c-.11363-.06603-.28842-.06165-.3952.00001L56.03068 85.98701zM51.10518 88.83076c-.11438.06603-.11493.16288-.0013.22891l2.73458 1.58917c.10605.06163.28082.06603.3952-.00001l2.75249-1.58915c.11438-.06604.10735-.16728.0013-.22891l-2.73459-1.58917c-.11362-.06603-.28082-.06603-.3952.00001L51.10518 88.83076zM68.31551 73.19902c-.11433.06601-.10729.16726-.00124.22889l2.74216 1.59357c.10605.06163.28082.06603.39515.00003l2.75249-1.58916c.11438-.06603.10735-.16728.0013-.22891l-2.74216-1.59357c-.10605-.06163-.28082-.06604-.3952 0L68.31551 73.19902zM63.48918 75.9855c-.10678.06165-.10735.16728-.0013.22891l2.74216 1.59357c.10605.06163.28842.06165.3952 0l2.76009-1.59354c.10672-.06162.10735-.16729.00129-.22892l-2.74216-1.59357c-.10605-.06163-.28848-.06161-.3952 0L63.48918 75.9855zM58.67045 78.7676c-.10678.06165-.10735.16728-.0013.22891l2.74216 1.59357c.10605.06163.28842.06165.3952 0l2.75245-1.58913c.11437-.06603.10734-.16728.00129-.22891l-2.74216-1.59357c-.10605-.06163-.28082-.06603-.3952 0L58.67045 78.7676zM53.85167 81.54972c-.11433.06601-.1073.16725-.00124.22888l2.74216 1.59357c.10605.06162.28082.06603.39515.00002l2.75249-1.58915c.10672-.06162.10735-.16729.00129-.22891l-2.74216-1.59357c-.10605-.06163-.28847-.06161-.3952 0L53.85167 81.54972zM49.02534 84.3362c-.10678.06165-.10735.16728-.0013.22891l2.74216 1.59357c.10605.06163.28842.06165.3952 0l2.76009-1.59354c.10673-.06161.09969-.16286-.00636-.22449l-2.74216-1.59357c-.10605-.06163-.28082-.06603-.38755-.00442L49.02534 84.3362zM44.20662 87.11829c-.11438.06604-.10734.16729-.00129.22891l2.74216 1.59357c.10605.06163.28082.06603.3952 0l2.75244-1.58913c.11438-.06604.10735-.16728.00129-.22891l-2.74216-1.59357c-.10605-.06162-.28082-.06603-.3952.00001L44.20662 87.11829zM39.38024 89.90481c-.10672.06161-.10735.16728-.00129.22891l2.74216 1.59357c.10605.06163.28848.06161.3952 0l2.7601-1.59354c.10672-.06161.10734-.16728.00129-.22891l-2.74216-1.59357c-.10605-.06163-.28847-.06161-.3952 0L39.38024 89.90481zM44.29643 92.76179c-.10673.06161-.11493.16288-.0013.22891l2.73458 1.58916c.10605.06163.28847.06161.3952 0l4.91025-2.83493c.11432-.06601.1073-.16726.00125-.22888l-2.73459-1.58917c-.11362-.06603-.28082-.06603-.39515-.00002L44.29643 92.76179zM88.27344 73.05822c-.10677.06165-.11492.16288-.00129.22891l2.73458 1.58916c.11362.06603.28842.06165.3952 0l7.08321-4.08949c.11438-.06603.11492-.16288.0013-.22891l-2.73458-1.58916c-.11363-.06603-.28082-.06603-.3952 0L88.27344 73.05822zM82.9591 76.12646c-.10678.06165-.11492.16288-.0013.22891l2.73458 1.58916c.11362.06603.28842.06165.3952 0l2.76009-1.59354c.10672-.06161.10727-.15846-.00636-.22449l-2.73458-1.58916c-.11362-.06603-.28082-.06603-.38754-.00442L82.9591 76.12646zM78.14032 78.90858c-.11433.06601-.11488.16286-.00124.22889l2.73458 1.58916c.11362.06603.28082.06603.39515.00002l2.75249-1.58915c.11437-.06604.11492-.16288.00129-.22891l-2.73458-1.58916c-.11362-.06603-.28082-.06604-.3952 0L78.14032 78.90858zM73.31399 81.69506c-.10677.06165-.11492.16288-.00129.22891l2.73458 1.58916c.11362.06603.28842.06165.3952 0l2.76009-1.59354c.10673-.06161.11492-.16288.0013-.22891l-2.73458-1.58916c-.11362-.06603-.28848-.06161-.3952 0L73.31399 81.69506zM68.49526 84.47716c-.10677.06165-.11492.16288-.0013.22891l2.73459 1.58916c.11362.06603.28842.06165.3952 0l2.75244-1.58913c.11438-.06603.11492-.16288.0013-.22891l-2.73458-1.58916c-.11363-.06603-.28082-.06603-.3952 0L68.49526 84.47716zM63.67648 87.25928c-.11432.06601-.11487.16285-.00124.22888l2.73458 1.58916c.11363.06604.28082.06604.39515.00003l2.75249-1.58915c.10673-.06162.11492-.16288.0013-.22892l-2.73458-1.58916c-.11363-.06603-.28848-.06161-.3952.00001L63.67648 87.25928zM58.85015 90.04576c-.10677.06165-.11492.16288-.00129.22891l2.73458 1.58916c.11363.06603.28843.06165.3952 0l2.7601-1.59354c.10672-.06161.10727-.15846-.00636-.22449l-2.73458-1.58916c-.11363-.06603-.28082-.06603-.38755-.00442L58.85015 90.04576zM49.20505 95.61436c-.10672.06161-.11493.16288-.0013.22891l2.73458 1.58916c.11362.06603.28847.06161.3952 0l7.67795-4.43286c.11438-.06604.11492-.16288.00129-.22891l-2.73458-1.58917c-.11363-.06603-.28082-.06603-.3952.00001L49.20505 95.61436zM93.00784 75.80955c-.10678.06165-.11492.16288-.0013.22891l2.73458 1.58916c.11362.06603.28842.06165.3952 0l7.08321-4.08949c.11438-.06603.11493-.16288.0013-.22891l-2.73458-1.58916c-.11362-.06603-.28082-.06603-.3952 0L93.00784 75.80955zM93.99991 78.86161L66.9299 94.49174c-.10999.05994-.27997.06995-.39996 0l-2.73004-1.59009c-.12-.05994-.10999-.16992 0-.22998l27.07001-15.63c.10999-.05994.28003-.06995.40002 0l2.72998 1.58997C94.1199 78.7017 94.10989 78.80167 93.99991 78.86161z"></path><path fill="#3F434F" d="M45.27325 90.6232l-2.75821 1.58842c-.09853.06162-.28318.06162-.39404 0l-2.74588-1.58842c-.0493-.0369-.07388-.07388-.07388-.11086v-.49249c0 .0369.02457.0862.07388.11078l2.74588 1.60081c.11086.06155.28318.06155.39404 0l2.75821-1.60081c.06155-.02457.0862-.07388.0862-.11078v.48025C45.35945 90.54932 45.3348 90.5863 45.27325 90.6232zM44.20198 87.82802c-.04923-.02457-.07388-.06155-.07388-.11078V87.237c0 .03697.02465.07388.07388.11085l2.74588 1.58842c.11086.06155.28326.07388.39404 0l2.75821-1.58842c.0493-.02465.07388-.07388.07388-.11085v.49257c0 .0369-.02457.07388-.07388.11078l-2.75821 1.58849c-.11078.06155-.28318.06155-.39404 0L44.20198 87.82802zM53.85578 82.26237c-.06163-.02465-.0862-.07388-.0862-.11085v-.4925c0 .04923.02458.08613.0862.12311l2.73355 1.58841c.11086.06155.28319.06155.39404 0l2.75821-1.58841c.0493-.02465.07388-.07388.07388-.11086l.01233.48025c0 .04922-.0369.0862-.0862.12318l-2.75821 1.58841c-.11085.06155-.28318.06155-.39404 0L53.85578 82.26237zM64.08828 84.95903l2.74588-1.58849c.06155-.02457.0862-.07388.0862-.11078v.48017c0 .0493-.02465.0862-.0862.12318l-2.74588 1.58842c-.11086.06155-.29551.06155-.39404 0l-2.73363-1.58842c-.06155-.03697-.0862-.07388-.0862-.12318v-.48017c0 .0369.02465.07388.0862.11078l2.73363 1.58849C63.79277 85.02058 63.9651 85.03291 64.08828 84.95903zM64.23603 95.99186l.01233.46792c0 .0493-.03698.0862-.0862.11086l-7.09258 4.10033c-.11086.06162-.28318.06162-.39404 0l-2.73355-1.58841c-.06163-.0369-.0862-.07388-.0862-.11078V98.4792c0 .0369.02457.0862.0862.11086l2.73355 1.58842c.11086.07388.28318.06155.39404 0l7.09258-4.08809C64.19906 96.05341 64.23603 96.02884 64.23603 95.99186zM63.48493 76.69666c-.0493-.02465-.07395-.06155-.07395-.11086v-.48017c0 .0369.02465.07388.07395.11079l2.74588 1.58849c.11078.06155.28318.06155.39404 0l2.75821-1.58849c.06155-.0369.0862-.07388.0862-.12311v.49249c0 .03698-.02465.0862-.0862.11086l-2.75821 1.60074c-.11086.06155-.28326.06155-.39404 0L63.48493 76.69666zM49.02884 85.05749c-.06155-.0369-.0862-.07388-.0862-.12311v-.48024c0 .03697.02465.0862.0862.11086l2.73363 1.58841c.11078.06155.29551.06155.39404 0l2.77053-1.58841c.04922-.02465.07388-.07388.07388-.11086v.49257c0 .0369-.02465.07388-.07388.11078l-2.75821 1.58849c-.11086.06155-.29559.06155-.40637 0L49.02884 85.05749zM58.85505 90.75863c-.06163-.02457-.0862-.07388-.0862-.11078v-.48024c0 .0369.02458.07388.07388.11086l2.74588 1.58841c.11086.06155.28319.06155.39404 0l2.75821-1.60074c.0493-.02465.07388-.06162.07388-.11086v.49257c0 .0369-.02457.07388-.07388.11078l-2.75821 1.58849c-.11086.06155-.28319.07388-.39404 0L58.85505 90.75863zM58.59644 79.36867l-.01233-.48017c0 .0369.03698.07388.0862.11078l2.74588 1.58842c.09853.06162.28326.06162.39404 0l2.74596-1.58842c.06155-.0369.08613-.07388.08613-.11078v.48017c0 .0493-.02458.0862-.08613.12318l-2.74596 1.58842c-.11078.06155-.29551.06155-.39404 0l-2.74588-1.60074C58.62109 79.45487 58.59644 79.40564 58.59644 79.36867zM54.2375 90.64785l2.74588-1.58849c.06155-.0369.0862-.07388.0862-.11078v.48025c0 .04922-.02465.08613-.0862.1231l-2.74588 1.58842c-.11086.06162-.29551.06162-.39404 0l-2.73363-1.58842c-.06155-.03697-.0862-.07388-.0862-.1231v-.48025c0 .0369.02465.07388.0862.11078l2.73363 1.58849C53.94199 90.7094 54.11432 90.7094 54.2375 90.64785zM52.34117 92.23627l-4.91306 2.83208c-.11078.06155-.29551.06155-.39404 0l-2.73355-1.58842c-.06155-.03697-.0862-.07388-.0862-.11086v-.49249c0 .0369.02465.0862.0862.11078l2.73355 1.58849c.09853.06155.28326.06155.39404 0l4.91306-2.83215c.0493-.0369.07388-.07388.07388-.11078v.48024C52.41505 92.16238 52.39048 92.19936 52.34117 92.23627zM58.76884 88.29594l-2.73363-1.58841c-.06155-.03698-.0862-.07388-.0862-.12311v-.48024c0 .0369.02465.07388.0862.11078l2.73363 1.58849c.09853.06155.27086.06155.39404 0l2.74588-1.58849c.06155-.02457.0862-.07388.0862-.11078v.48024c0 .04922-.02465.08613-.0862.12311l-2.74588 1.58841C59.05203 88.35749 58.86737 88.35749 58.76884 88.29594zM60.01252 93.49226l-7.68367 4.43282c-.09845.06155-.27086.06155-.39396 0l-2.73363-1.60074c-.04923-.02465-.07388-.06155-.07388-.11086v-.48017c0 .0369.02465.07388.07388.11078l2.73363 1.58849c.1231.06155.29551.06155.39396 0l7.68367-4.4329c.06155-.0369.0862-.07388.0862-.11078v.48016C60.09872 93.40606 60.07407 93.45528 60.01252 93.49226zM66.41547 89.56426l-2.73355-1.58849c-.06155-.0369-.0862-.07388-.0862-.11078v-.49257c0 .03697.02465.0862.07388.11086l2.74588 1.58841c.11086.07388.27094.07388.39404 0l2.74596-1.58841c.06155-.02466.0862-.07388.0862-.11086V87.865c0 .0369-.02465.07388-.0862.11078l-2.74596 1.58849C66.6864 89.62582 66.52632 89.62582 66.41547 89.56426zM73.13865 71.13095c-.06155-.02458-.0862-.07388-.0862-.11078V70.5276c0 .0493.02465.0862.0862.12318l2.73363 1.58841c.11078.06155.29551.06155.39397 0l2.75828-1.58841c.06155-.03698.08613-.07388.08613-.11086v.48025c0 .04922-.02457.0862-.07388.11078l-2.77053 1.60081c-.09846.06155-.28319.06155-.39397 0L73.13865 71.13095zM80.87155 81.21569l-2.73363-1.58842c-.04923-.03697-.0862-.07388-.0862-.11086v-.49249c0 .0369.03697.0862.0862.11078l2.73363 1.58849c.11078.07388.28319.07388.39397 0l2.75828-1.58849c.04923-.02457.0862-.07388.0862-.11078v.48025c0 .04922-.02465.08613-.0862.1231l-2.75828 1.58842C81.15474 81.27724 80.99466 81.27724 80.87155 81.21569zM71.23008 86.7814l-2.73363-1.58841c-.06155-.03698-.08613-.07388-.08613-.11086v-.49257c0 .0493.02458.0862.08613.11086l2.73363 1.60074c.11078.06155.28319.06155.39404 0l2.75821-1.60074c.0369-.02465.07388-.06155.07388-.09853l.01233.48025c0 .03698-.03698.07388-.0862.11086l-2.75821 1.58841C71.51327 86.84296 71.34086 86.84296 71.23008 86.7814zM73.92673 79.28246l2.7582-1.60074c.06155-.02457.0862-.07388.0862-.11078v.48017c0 .0493-.02465.0862-.0862.12318l-2.7582 1.58841c-.09853.06155-.28319.06155-.39404 0l-2.73363-1.58841c-.04923-.02465-.08613-.07388-.08613-.11086v-.49249c0 .04922.02457.0862.08613.12311l2.73363 1.58841C73.64355 79.34409 73.81588 79.34409 73.92673 79.28246zM69.00134 82.12688l2.75821-1.60074c.06155-.02457.0862-.07388.0862-.11078v.48016c0 .0493-.02465.0862-.0862.12318l-2.75821 1.58841c-.09853.06155-.28319.06155-.39404 0l-2.73363-1.58841c-.04922-.03698-.08613-.07388-.08613-.11086v-.49249c0 .04922.02457.0862.08613.1231l2.73363 1.58842C68.71815 82.1885 68.89049 82.1885 69.00134 82.12688zM76.04462 83.99854l-2.73356-1.58841c-.0493-.03697-.07388-.07388-.07388-.11086l-.01233-.49249c0 .04922.0369.08613.0862.12311l2.73356 1.58841c.11086.06163.29551.06163.39404 0l2.75821-1.60074c.06163-.02465.0862-.07388.0862-.11078v.48017c0 .0493-.02457.0862-.07388.12318l-2.77054 1.58841C76.34013 84.0601 76.16779 84.0601 76.04462 83.99854zM77.96552 68.34809c-.06155-.0369-.0862-.07388-.0862-.11078v-.49257c0 .03697.02465.0862.07395.11086l2.74588 1.60073c.11078.06155.28319.06155.39404 0l2.75821-1.58841c.04922-.03697.07388-.07388.07388-.12318v.49257c0 .0369-.02465.0862-.07388.11078l-2.75821 1.58849c-.11086.07388-.28326.06155-.39404 0L77.96552 68.34809zM68.31179 73.9138c-.0493-.02465-.07388-.07388-.07388-.11078v-.49257c0 .04922.02457.0862.07388.12311l2.74588 1.58849c.11086.06155.28319.06155.39404 0l2.7582-1.58849c.04931-.0369.07388-.07388.07388-.11078v.48024c0 .0369-.02457.08613-.07388.11078l-2.7582 1.58849c-.11086.07388-.28319.06155-.39404 0L68.31179 73.9138zM78.85213 76.43805l2.7582-1.60073c.03698-.02465.07388-.04923.07388-.0862l.01232.46792c0 .03697-.02465.07388-.0862.11086l-2.7582 1.58841c-.09853.06155-.28319.06155-.39404 0l-2.73363-1.58841c-.04922-.02465-.08613-.07388-.08613-.11086v-.49249c0 .04922.02458.08613.08613.1231l2.73363 1.58841C78.56894 76.49968 78.74127 76.49968 78.85213 76.43805zM82.70625 65.45445l-.01232-.49257c0 .0493.0369.0862.0862.11086l2.74588 1.60074c.09853.06155.28318.06155.39404 0l2.74589-1.58842c.06162-.03697.0862-.07388.0862-.12318v.49257c0 .03698-.02457.0862-.0862.11086l-2.74589 1.58841c-.11086.06155-.29551.06155-.39404 0l-2.74588-1.58841C82.73082 65.52833 82.70625 65.49143 82.70625 65.45445zM83.38348 74.07388l-2.73363-1.58841c-.04922-.02465-.08613-.07388-.08613-.11086v-.48024c0 .03697.02457.07388.08613.11086l2.73363 1.58841c.11086.06163.28318.06163.39404 0l2.75821-1.58841c.04922-.03698.07388-.07388.07388-.12311l.01233.49249c0 .03698-.03698.0862-.0862.11086l-2.75821 1.58841C83.67899 74.13544 83.49433 74.13544 83.38348 74.07388zM93.99768 78.86385c.06155-.03697.0862-.07388.0862-.12318v.49257c0 .03697-.02465.0862-.0862.11086L66.93269 94.98215c-.11086.06162-.28326.06162-.39404 0l-2.74588-1.58841c-.0493-.0369-.07396-.07388-.07396-.12311v-.48025c0 .0369.02465.0862.07396.11079l2.73355 1.58849c.12311.07388.29551.06155.40636 0L93.99768 78.86385zM85.69841 78.43283l-2.73363-1.58841c-.06155-.0369-.08613-.07388-.08613-.11078v-.49257c0 .0369.02457.0862.07388.11078l2.74588 1.58849c.11078.07388.28319.06155.39404 0l2.75821-1.58849c.04922-.0369.07388-.07388.07388-.11078v.49257c0 .0369-.02465.07388-.07388.09845l-2.75821 1.60074C85.9816 78.49446 85.80919 78.49446 85.69841 78.43283zM88.67825 70.76156l4.90074-2.83208c.0493-.02465.0862-.07388.0862-.11086v.49257c0 .0369-.02458.07388-.0862.11086l-4.90074 2.83208c-.12311.06155-.29551.06155-.39404 0l-2.73355-1.58849c-.06155-.0369-.0862-.07388-.0862-.12311v-.48024c0 .03697.02465.0862.07388.11086l2.74588 1.58841C88.38274 70.82311 88.55515 70.83543 88.67825 70.76156zM91.39956 74.87429l7.08025-4.08808c.06155-.03698.0862-.07388.0862-.11086l.01233.48025c0 .04922-.03698.0862-.0862.1231l-7.09258 4.08808c-.09853.06155-.28326.06155-.39404 0l-2.73363-1.58841c-.04922-.03697-.08613-.07388-.08613-.1231v-.48025c0 .0369.0369.07388.08613.11078l2.73363 1.58849C91.11629 74.94817 91.30103 74.93584 91.39956 74.87429zM103.30667 73.42131v.49249c0 .03698-.02465.07388-.0862.11086l-7.08025 4.08808c-.11078.06155-.28319.06155-.39404 0l-2.73356-1.58849c-.06155-.0369-.0862-.07388-.0862-.11078v-.49257c0 .04923.02466.0862.0862.12311l2.73356 1.58849c.11086.06155.28326.06155.39404 0l7.08025-4.10041C103.28202 73.50744 103.30667 73.45821 103.30667 73.42131z"></path><path fill="#525566" d="M53.93944,98.36569c-0.10672,0.06161-0.11492,0.16288-0.0013,0.22891l2.73459,1.58917
							c0.11362,0.06602,0.28847,0.06161,0.3952-0.00001l7.09086-4.09391c0.10672-0.06161,0.11492-0.16288,0.0013-0.22891
							l-2.73459-1.58916c-0.11362-0.06603-0.28848-0.06161-0.3952,0L53.93944,98.36569z"></path><path fill="#D4DAE8" d="M83.87762,60.08309c1.03696-0.59869,2.72412-0.59869,3.75433,0l21.51306,12.50203
								c1.03021,0.59869,1.02469,1.57597-0.01227,2.17465l-50.39847,29.09757c-1.03696,0.59869-2.72407,0.59866-3.75428-0.00003
								L33.46694,91.35528c-1.03022-0.59869-1.02474-1.57593,0.01221-2.17461L83.87762,60.08309z M55.82629,103.3687
								c0.56814,0.33017,1.49534,0.33015,2.06717,0.00001l50.39848-29.09757c0.57188-0.33018,0.57487-0.86722,0.00674-1.19738
								L86.78561,60.57173c-0.56814-0.33017-1.49529-0.33019-2.06717-0.00001L34.31997,89.66929
								c-0.57183,0.33015-0.57488,0.86722-0.00674,1.19739L55.82629,103.3687L55.82629,103.3687z"></path><path fill="#CAD0DD" d="M95.31722,95.49407l-10.50772,6.10169c-0.57561,0.33498-1.26639,0.33498-1.83153,0.01048
						l-6.69818-3.87232c-0.61745-0.34546-0.61745-1.22456-0.02089-1.58036l10.51819-6.10168
						c0.56514-0.33485,1.2664-0.33485,1.83153-0.01048l6.7086,3.87244C95.92426,94.25917,95.92426,95.1384,95.31722,95.49407z"></path><path fill="#F9607F" d="M37.67553,47.59977c1.01336-0.58507,2.02729-0.97163,3.0187-1.17298
						c1.00293-0.1947,1.86812-0.15078,2.59561,0.13156l-1.42136,3.14017c-0.47351-0.20372-1.10803-0.24834-1.91499-0.08732
						c-0.79548,0.14126-1.59051,0.44117-2.37357,0.89327c-0.78306,0.4521-1.41589,1.00298-1.92152,1.66613
						c-0.49415,0.64304-0.74591,1.34513-0.74381,2.08619c0.0021,0.74087,0.25705,1.16372,0.7533,1.26155
						c0.5078,0.10447,1.56844-0.08382,3.20495-0.57798c1.62495-0.48749,2.84742-0.55726,3.67887-0.2154
						c0.83142,0.3417,1.2494,1.30644,1.25391,2.89425c0.0045,1.58799-0.52154,3.19053-1.55513,4.78139
						c-1.0451,1.59733-2.41401,2.89138-4.11832,3.87536c-2.47585,1.42944-4.68969,1.71348-6.61833,0.86553l1.67467-3.29972
						c1.61674,0.67048,3.27726,0.52018,5.0046-0.4771c0.86366-0.49863,1.55396-1.12243,2.05944-1.83852
						c0.50548-0.71592,0.75724-1.43114,0.75526-2.13252s-0.24542-1.1174-0.71864-1.22853
						c-0.48477-0.11777-1.3034-0.00305-2.46737,0.35096c-1.16401,0.34072-2.05156,0.56157-2.66262,0.64921
						c-0.6111,0.07454-1.1418,0.03632-1.6152-0.12774c-0.94658-0.27522-1.41078-1.2663-1.41555-2.9469
						c-0.0048-1.6937,0.52124-3.29624,1.58961-4.82772C34.77491,49.73824,36.09789,48.51061,37.67553,47.59977z"></path><polygon fill="#748BFD" points="58.232 36.182 58.24 39.08 49.765 43.973 49.779 48.803 57.39 44.408 57.398 47.147 49.786 51.542 49.8 56.425 58.552 51.372 58.56 54.27 47.137 60.865 47.085 42.618"></polygon><path fill="#75CA75" d="M73.3091,25.33105l0.39642,2.29876c0.92613-0.28957,1.7793-0.36788,2.57407-0.27731l1.82475-2.49901
						l2.39478,1.34783l-1.26469,2.83506c0.48733,0.63166,0.8574,1.41552,1.08077,2.3601l2.18266-0.81208l0.01098,3.87379
						l-2.18749,1.70255c-0.20992,1.20322-0.57439,2.39421-1.05653,3.59407l1.27655,1.3509l-2.37926,4.12958l-1.833-0.41266
						c-0.16125,0.21142-0.32252,0.41449-0.49119,0.60486c-0.47659,0.5626-0.97533,1.0957-1.49632,1.57397l-0.00725-2.55727
						c1.16626-1.22278,2.14047-2.71511,2.86429-4.30803c0.80425-1.75779,1.26251-3.59467,1.25771-5.291
						c-0.01223-4.31267-3.07024-6.0638-6.81606-3.90115c-3.77521,2.17962-6.80598,7.44611-6.79376,11.75878
						c0.00201,0.70892,0.09214,1.35847,0.24829,1.9362c0.5648,2.00709,2.01705,3.05371,3.9146,2.87955l0.00723,2.5488
						c-0.71307,0.19189-1.37513,0.21067-2.00066,0.13222l-1.82468,2.52442l-2.39486-1.37324l1.27208-2.82236
						c-0.48001-0.64437-0.85003-1.41129-1.07343-2.36434l-2.18998,0.82479l-0.01098-3.87379l2.18013-1.70678
						c0.22464-1.20324,0.58907-2.41116,1.06388-3.59832l-1.28395-1.3636l2.37933-4.10417l1.83293,0.38725
						c0.79166-1.00651,1.64983-1.91623,2.57458-2.69527l0.3968-2.75673L73.3091,25.33105z"></path><path fill="#4C7891" d="M75.62521,35.27089c0.1819,1.88153-0.7165,4.16699-2.11697,5.81244l0.03778,13.32619
						c0.00163,0.57394-0.20985,1.237-0.53931,1.79916c-0.32939,0.58759-0.79144,1.091-1.29822,1.38358
						c-1.02093,0.58944-1.84624,0.11072-1.84955-1.054l-0.03778-13.3262c-1.28751-0.02589-2.16591-1.06583-2.17093-2.83817
						c-0.00448-1.5782,0.69666-3.37781,1.75195-4.82399l0.00902,3.18184l2.1869,0.68163l2.29338-3.26832l-0.009-3.17336
						C74.83208,33.16734,75.49651,33.98409,75.62521,35.27089z M71.70573,56.61332c0.47005-0.27139,0.85074-0.93076,0.84918-1.47944
						c-0.0015-0.5316-0.38468-0.74996-0.85474-0.47858c-0.47741,0.27563-0.85076,0.93077-0.84925,1.46238
						C70.85248,56.66635,71.22832,56.88895,71.70573,56.61332"></path><g><path fill="#FA5168" d="M115.86703,2.95127c-0.15862-0.08917-0.37664-0.07925-0.61451,0.05941L86.5688,19.57278
					c-0.47573,0.26751-0.85237,0.93162-0.85237,1.4768l0.04955,18.12795c0,0.27755,0.09909,0.46593,0.24779,0.5551l-1.39755-0.81281
					c-0.14864-0.08905-0.24779-0.27743-0.24779-0.55498l-0.04955-18.11803c0-0.5551,0.37664-1.21921,0.85237-1.48672
					l28.68372-16.56211c0.23792-0.13877,0.45595-0.1487,0.6145-0.05941L115.86703,2.95127z"></path><polygon fill="#FA5168" points="93.575 35.533 93.595 42.63 92.197 41.827 92.177 34.72"></polygon><path fill="#F9607F" d="M115.25004,3.01007c0.47462-0.27402,0.86185-0.06066,0.86343,0.49204l0.05139,18.12784
					c0.00155,0.5453-0.3832,1.21178-0.85782,1.4858l-15.55388,8.85557L93.59704,42.6341l-0.02012-7.09692l-6.94891,4.13643
					c-0.4746,0.27401-0.86188,0.05326-0.86343-0.49204l-0.05139-18.12784c-0.00156-0.5527,0.38322-1.21179,0.85782-1.4858
					L115.25004,3.01007z"></path><polygon fill="#FFF" points="93.651 30.805 93.653 31.598 87.515 35.142 87.512 34.349"></polygon><polygon fill="#FFF" points="90.455 30.545 90.457 31.338 87.509 33.04 87.506 32.248"></polygon><polygon fill="#FFF" points="94.486 28.218 94.488 29.01 91.54 30.713 91.537 29.92"></polygon><polygon fill="#FFF" points="93.639 26.595 93.641 27.38 87.503 30.924 87.5 30.139"></polygon><polygon fill="#FFF" points="90.443 26.335 90.446 27.12 87.497 28.823 87.494 28.038"></polygon><polygon fill="#FFF" points="94.474 24.008 94.477 24.793 91.528 26.496 91.525 25.71"></polygon><polygon fill="#FFF" points="93.627 22.378 93.629 23.17 87.491 26.714 87.488 25.922"></polygon><polygon fill="#FFF" points="90.431 22.117 90.434 22.91 87.485 24.613 87.482 23.82"></polygon><polygon fill="#FFF" points="93.615 18.175 93.617 18.953 87.479 22.497 87.476 21.719"></polygon><polygon fill="#FFF" points="94.462 19.79 94.465 20.583 91.516 22.285 91.513 21.493"></polygon><polygon fill="#FFF" points="97.684 15.825 97.686 16.604 94.743 18.302 94.741 17.524"></polygon><polygon fill="#FFF" points="101.733 17.697 101.735 18.49 98.786 20.193 98.784 19.4"></polygon><polygon fill="#FFF" points="101.721 13.495 101.723 14.273 98.774 15.975 98.772 15.197"></polygon><polygon fill="#FFF" points="101.727 15.596 101.729 16.389 95.578 19.94 95.576 19.147"></polygon><polygon fill="#FFF" points="101.739 19.813 101.741 20.599 95.59 24.15 95.588 23.365"></polygon><polygon fill="#FFF" points="97.696 20.028 97.698 20.821 94.755 22.52 94.753 21.727"></polygon><polygon fill="#FFF" points="97.708 24.246 97.71 25.031 94.767 26.73 94.765 25.945"></polygon><polygon fill="#FFF" points="97.72 28.456 97.722 29.249 94.779 30.948 94.777 30.155"></polygon><polygon fill="#FFF" points="101.745 21.915 101.747 22.7 98.798 24.403 98.796 23.617"></polygon><polygon fill="#FFF" points="101.751 24.024 101.753 24.816 95.602 28.367 95.6 27.575"></polygon><polygon fill="#FFF" points="101.757 26.125 101.759 26.918 98.81 28.62 98.808 27.828"></polygon><polygon fill="#FFF" points="106.281 14.38 106.789 14.669 104.524 18.599 106.804 19.897 106.299 20.771 103.512 19.183"></polygon><polygon fill="#FFF" points="110.932 11.694 113.719 13.29 110.95 18.086 110.442 17.797 112.707 13.875 110.428 12.568"></polygon><polygon fill="#FFF" points="109.555 11.2 110.239 11.067 107.714 21.251 107.036 21.38"></polygon></g><g><path fill="#75CA75" d="M30.5781,56.68284c-0.13944-0.08377-0.34403-0.07446-0.56718,0.05585L3.11083,72.26686
					c-0.4463,0.26038-0.79964,0.8833-0.79964,1.38544l0.04648,17.01601c0,0.25107,0.08371,0.42768,0.23246,0.51134l-1.31104-0.76241
					c-0.14881-0.08377-0.23246-0.26038-0.23246-0.51145L1.00009,72.88978c0-0.50203,0.35334-1.12506,0.7997-1.38544
					l26.90008-15.52817c0.22315-0.13019,0.42769-0.1395,0.56718-0.05585L30.5781,56.68284z"></path><path fill="#9AD898" d="M30.01233,56.73801c0.44526-0.25707,0.80263-0.04663,0.80406,0.45819l0.04823,17.01332
					c0.00145,0.51157-0.35357,1.12654-0.79884,1.38361l-1.98961,1.09713l0.01889,6.66476l-5.81902-3.31606L3.16673,91.12331
					c-0.45118,0.26049-0.80855,0.05682-0.81-0.45476L2.3085,73.65523c-0.00143-0.50482,0.3536-1.12656,0.80478-1.38705
					L30.01233,56.73801z"></path><path fill="#FFF" d="M27.43556 64.8946c.66492-.38389.99842-.20749 1.00053.53604l.00497 1.75317c.00054.19106.0306.31032.09018.35107.05368.05103.14877.03709.27344-.03488l.17811-.10284.00222.78452-.17811.10283c-.12467.07198-.21955.16096-.27278.26685-.05915.10931-.08844.26283-.08791.44704l.00516 1.82136c.00209.73678-.3293 1.30391-.99422 1.68781l-.24933.14395L27.20559 71.867c.19591-.11311.33237-.21923.40346-.31487.07107-.10256.10641-.22547.106-.3687l-.00561-1.97828c-.00112-.39564.15852-.71329.48486-.96323-.32671.12032-.48764-.0191-.48876-.41474l-.00518-1.8282c-.00091-.32069-.14977-.39183-.45255-.21703l-.05935.04103-.00222-.78442L27.43556 64.8946zM21.08334 68.56206l.00222.78443-.05938.02752c-.30278.17481-.4567.42076-.45579.74145l.00518 1.82821c.00112.39563-.1585.72013-.4789.97342.32077-.12366.48168.00892.48281.40456l.00561 1.97827c.00041.14323.03633.22499.10774.2453.0714.01337.20802-.03817.40986-.15471l.00222.78452-.24935.14397c-.6649.38388-.99842.20064-1.00051-.53614l-.00516-1.82136c-.00052-.18422-.03058-.30347-.09018-.34422-.05958-.04076-.15465-.02007-.27932.0519L19.30229 73.772l-.00223-.78452.17811-.10284c.12467-.07198.21953-.1677.27866-.28387.05917-.10932.08846-.26283.08792-.4539l-.00497-1.75317c-.00211-.74353.3293-1.30382.9942-1.6877L21.08334 68.56206z"></path><polygon fill="#FFF" points="9.791 72.561 9.793 73.29 4.028 76.619 4.026 75.889"></polygon><polygon fill="#FFF" points="6.798 76.263 6.8 77.007 4.034 78.604 4.032 77.86"></polygon><polygon fill="#FFF" points="10.591 78.036 10.593 78.773 7.827 80.37 7.825 79.633"></polygon><polygon fill="#FFF" points="9.813 80.467 9.815 81.197 4.051 84.525 4.048 83.795"></polygon><polygon fill="#FFF" points="6.809 80.22 6.811 80.956 4.045 82.553 4.043 81.817"></polygon><polygon fill="#FFF" points="9.802 76.504 9.804 77.247 4.039 80.575 4.037 79.832"></polygon><polygon fill="#FFF" points="6.821 84.169 6.823 84.913 4.056 86.51 4.054 85.767"></polygon><polygon fill="#FFF" points="10.58 74.08 10.582 74.823 7.815 76.42 7.813 75.677"></polygon><polygon fill="#FFF" points="10.602 81.986 10.604 82.73 7.838 84.327 7.836 83.583"></polygon><polygon fill="#FFF" points="9.824 84.41 9.826 85.153 4.062 88.482 4.06 87.738"></polygon><polygon fill="#FFF" points="13.602 70.36 13.604 71.09 10.843 72.684 10.841 71.954"></polygon><polygon fill="#FFF" points="17.412 76.08 17.414 76.81 14.653 78.403 14.651 77.673"></polygon><polygon fill="#FFF" points="17.401 72.116 17.403 72.86 14.642 74.454 14.64 73.71"></polygon><polygon fill="#FFF" points="13.624 78.266 13.626 78.996 10.866 80.59 10.864 79.86"></polygon><polygon fill="#FFF" points="17.418 78.051 17.42 78.795 11.649 82.126 11.647 81.383"></polygon><polygon fill="#FFF" points="17.406 74.101 17.408 74.838 11.638 78.17 11.636 77.433"></polygon><polygon fill="#FFF" points="13.613 74.303 13.615 75.047 10.855 76.64 10.853 75.897"></polygon><polygon fill="#FFF" points="13.636 82.209 13.638 82.953 10.877 84.547 10.875 83.803"></polygon><polygon fill="#FFF" points="17.39 68.173 17.392 68.903 14.631 70.497 14.629 69.767"></polygon><polygon fill="#FFF" points="17.423 80.023 17.425 80.766 14.665 82.36 14.663 81.616"></polygon><polygon fill="#FFF" points="17.395 70.145 17.397 70.888 11.627 74.22 11.625 73.476"></polygon><polygon fill="#FFF" points="22.513 69.54 22.514 69.847 21.368 70.509 21.367 70.202"></polygon><polygon fill="#FFF" points="24.092 72.531 24.092 72.838 22.947 73.499 22.946 73.192"></polygon><polygon fill="#FFF" points="23.762 71.744 23.763 72.051 21.377 73.428 21.376 73.121"></polygon><polygon fill="#FFF" points="22.519 71.491 22.52 71.791 21.374 72.453 21.373 72.153"></polygon><polygon fill="#FFF" points="22.524 73.436 22.525 73.742 21.379 74.404 21.379 74.097"></polygon><polygon fill="#FFF" points="24.086 70.586 24.087 70.887 22.941 71.548 22.94 71.248"></polygon><polygon fill="#FFF" points="23.757 69.799 23.758 70.106 21.371 71.484 21.37 71.177"></polygon><polygon fill="#FFF" points="24.081 68.635 24.081 68.942 22.936 69.604 22.935 69.297"></polygon><polygon fill="#FFF" points="26.912 68.955 26.913 69.255 24.52 70.636 24.519 70.336"></polygon><polygon fill="#FFF" points="25.342 68.884 25.343 69.191 24.197 69.853 24.196 69.546"></polygon><polygon fill="#FFF" points="25.347 70.828 25.348 71.135 24.202 71.797 24.202 71.49"></polygon><polygon fill="#FFF" points="26.915 69.924 26.916 70.231 25.77 70.892 25.769 70.585"></polygon><polygon fill="#FFF" points="26.906 67.004 26.907 67.311 24.515 68.692 24.514 68.385"></polygon><polygon fill="#FFF" points="26.909 67.979 26.91 68.286 25.764 68.948 25.763 68.641"></polygon><polygon fill="#FFF" points="26.917 70.899 26.918 71.206 24.526 72.587 24.525 72.28"></polygon></g><g><polygon fill="#FED57A" points="104.812 47.59 106.523 46.595 101.859 37.595 100.148 38.59"></polygon><rect width="1.979" height="15.514" x="111.493" y="43.899" fill="#FED57A" transform="rotate(149.838 112.482 51.656)"></rect><polygon fill="#FED57A" points="124.312 67.823 126.023 66.828 119.865 56.172 118.154 57.166"></polygon><polygon fill="#EFAC41" points="127.289 66.553 129 65.558 126.023 66.828 124.312 67.823"></polygon><polygon fill="#FED57A" points="127.269 73.652 128.98 72.657 129 65.558 127.289 66.553"></polygon><polygon fill="#F9BB4A" points="100.148 38.59 100.093 57.962 127.269 73.652 127.289 66.553 124.312 67.823 118.154 57.166 115.533 58.856 107.722 45.451 104.812 47.59"></polygon></g><g><path fill="#D4DAE8" d="M90.88779,106.9962l0.00907,3.18958c0.00253,0.90269,0.41695,1.80401,1.2463,2.60314l-0.00901-3.18956
						C91.30478,108.80022,90.89036,107.8989,90.88779,106.9962z"></path><path fill="#576CFB" d="M86.27696,114.17948l0.00905,3.18958c0.0034,1.20285,0.79035,2.40218,2.36395,3.31666
						c0.2606,0.15144,0.53369,0.29567,0.85668,0.42548l-0.00904-3.18954c-0.323-0.12983-0.59609-0.27406-0.85669-0.42551
						C87.06732,116.58168,86.28037,115.38235,86.27696,114.17948z"></path><path fill="#576CFB" d="M129.00009,109.78597c0,1.29118-0.86082,2.58246-2.56287,3.58012l-22.67471,13.0883
						c-3.38453,1.9564-8.90159,1.9564-12.28612-0.01946c-1.68259-0.9782-2.52383-2.2499-2.52383-3.54108l-0.01958-3.18893
						c0,1.29117,0.86082,2.56287,2.54341,3.54108c3.38453,1.97598,8.882,1.97598,12.28612,0.01958l22.65512-13.08831
						c1.70206-0.9782,2.56288-2.26949,2.56288-3.54108L129.00009,109.78597z"></path><path fill="#748BFD" d="M93.51398,103.33959c-2.94785,1.70194-3.4231,4.29095-1.37985,6.25976
						c-1.25874,0.22356-2.44381,0.62019-3.43059,1.1899c-3.21016,1.85339-3.23954,4.86068-0.06262,6.7069
						c0.2606,0.15144,0.53369,0.29568,0.85668,0.42548c-1.16792,1.78128-0.50746,3.88712,1.97447,5.32946
						c3.38786,1.9688,8.89095,1.96883,12.28848,0.00727l22.65853-13.08192c3.41002-1.96877,3.42796-5.15637,0.04011-7.12518
						c-2.56879-1.49281-6.36411-1.86063-9.53085-1.08178c-0.19841-0.14425-0.40924-0.29567-0.64501-0.43269
						c-3.12726-1.81737-8.20699-1.81739-11.35468-0.00008c-0.46217,0.26684-0.84975,0.54808-1.18763,0.8582
						C100.43466,101.42852,96.28694,101.73862,93.51398,103.33959z"></path><polygon fill="#E4E8F4" points="101.689 104.832 103.747 110.145 105.948 108.864 113.525 113.267 116.212 111.715 108.636 107.312 110.837 106.032"></polygon><polygon fill="#FED57A" points="93.675 109.459 101.244 113.857 99.034 115.143 108.199 116.342 106.133 111.025 103.923 112.31 96.355 107.912"></polygon></g></svg>