<svg xmlns="http://www.w3.org/2000/svg" width="163.839" height="163.839" fill-rule="evenodd" clip-rule="evenodd" image-rendering="optimizeQuality" shape-rendering="geometricPrecision" text-rendering="geometricPrecision" viewBox="0 0 1707 1707" id="personal-network"><path d="M853 1432c-319,0 -579,-259 -579,-579 0,-319 260,-579 579,-579 320,0 579,260 579,579 0,320 -259,579 -579,579zm0 -1118c-297,0 -539,242 -539,539 0,298 242,539 539,539 298,0 539,-241 539,-539 0,-297 -241,-539 -539,-539z"></path><path d="M1184 423c-3,0 -7,-1 -10,-3 -9,-5 -13,-18 -7,-27l121 -209c5,-10 17,-13 27,-8 9,6 13,18 7,28l-120 209c-4,6 -11,10 -18,10z"></path><path d="M1351 226c-62 0-113-51-113-113 0-62 51-113 113-113 63 0 114 51 114 113 0 62-51 113-114 113zm0-186c-40 0-73 33-73 73 0 40 33 73 73 73 41 0 74-33 74-73 0-40-33-73-74-73zM1513 1325c-3 0-7-1-10-3l-209-120c-10-6-13-18-7-28 5-9 17-13 27-7l209 121c10 5 13 17 7 27-3 6-10 10-17 10z"></path><path d="M1594 1465c-63 0-114-51-114-114 0-62 51-113 114-113 62 0 113 51 113 113 0 63-51 114-113 114zm0-187c-41 0-74 33-74 73 0 41 33 74 74 74 40 0 73-33 73-74 0-40-33-73-73-73zM402 1533c-4 0-7-1-10-3-10-5-13-17-8-27l121-209c6-10 18-13 27-7 10 5 13 17 8 27l-121 209c-4 6-10 10-17 10z"></path><path d="M355 1707c-62 0-113-51-113-113 0-63 51-114 113-114 63 0 113 51 113 114 0 62-50 113-113 113zm0-186c-40 0-73 32-73 73 0 40 33 73 73 73 41 0 73-33 73-73 0-41-32-73-73-73zM403 543c-4 0-7-1-10-3l-209-121c-10-5-13-18-8-27 6-10 18-13 28-8l209 121c9 6 13 18 7 28-4 6-10 10-17 10z"></path><path d="M113 468c-62 0-113-50-113-113 0-62 51-113 113-113 62 0 113 51 113 113 0 63-51 113-113 113zm0-186c-40 0-73 33-73 73 0 41 33 73 73 73 40 0 73-32 73-73 0-40-33-73-73-73zM1165 1243l-623 0c-11 0-20-9-20-20l0-141c0-89 72-161 161-161l91 0c6 0 12 3 16 8 4 4 5 10 4 16-1 4-1 8-1 11 0 32 27 58 60 58 33 0 60-26 60-58 0-3 0-7-1-11-1-6 1-12 5-16 3-5 9-8 15-8l92 0c89 0 161 72 161 161l0 141c0 11-9 20-20 20zm-603-40l583 0 0-121c0-67-55-121-121-121l-71 0c-2 52-46 93-100 93-53 0-97-41-100-93l-70 0c-67 0-121 54-121 121l0 121z"></path><path d="M932 961c-6 0-13-3-17-9-11-16-15-40-13-74 0-11 10-19 20-19 12 1 20 10 19 21-1 32 4 45 8 50 6 9 3 22-6 28-3 2-7 3-11 3zM774 961c-3 0-7-1-11-3-9-6-11-19-5-28 3-4 9-17 7-50 0-11 8-20 19-21 12 0 21 8 21 19 2 34-3 58-14 75-4 5-10 8-17 8zM985 723c-3 0-7-1-10-3-6-4-10-10-10-17 0-69-16-105-28-119-19 20-51 31-95 31-12 0-22-1-27-1-59 8-89 33-89 76 0 15-9 20-14 22-26 9-46-34-55-58-24-64-16-122 22-155 54-47 107-72 156-72 57 0 92 31 106 46 33 4 59 19 75 44 44 66 6 179 4 183-2 5-5 9-9 12l-16 8c-3 2-7 3-10 3zm-150-256c-39 0-83 21-130 62-14 13-22 32-22 56 0 21 6 42 13 59 17-38 58-63 116-70 2-1 4-1 6 0 0 0 10 1 24 1 35 0 60-8 68-22 0-1 1-2 1-3 5-13 15-15 20-15 8 0 13 4 18 8l6 4c18 13 33 39 41 74 3-29 1-61-13-82-11-16-28-25-54-27-5-1-11-4-14-8-1-2-29-37-80-37z"></path><path d="M853 916c-86,0 -159,-67 -167,-152 -10,-9 -16,-24 -16,-42 0,-18 6,-33 17,-41 4,-59 49,-98 125,-107 2,0 4,0 6,0 0,0 10,1 24,1 35,0 60,-8 68,-22 0,-1 1,-2 1,-3 5,-13 15,-15 20,-15 8,0 13,4 18,8l6 4c27,19 45,66 49,127 19,2 33,22 33,48 0,18 -7,33 -17,42 -8,85 -80,152 -167,152zm-142 -184c8,2 14,10 14,18 2,70 59,126 128,126 69,0 127,-56 128,-126 0,-8 6,-16 14,-18 1,-2 2,-5 2,-10 0,-1 0,-2 0,-3l-2 1c-7,3 -14,3 -20,0 -6,-4 -10,-10 -10,-17 0,-69 -16,-105 -28,-119 -19,20 -51,31 -95,31 -12,0 -22,-1 -27,-1 -59,8 -89,33 -89,76 0,9 -3,14 -6,18 -3,2 -6,4 -9,5 0,2 -1,5 -1,9 0,5 0,8 1,10z"></path></svg>