<svg xmlns="http://www.w3.org/2000/svg" viewBox="0 0 148 148" id="corporate-identity"><circle cx="73.2" cy="76.9" r="64" fill="#fdda7f"></circle><path fill="#f37c5a" d="M130.4 41.2 62.1 7.4c-1.7-.9-3.9-.1-4.7 1.6L35 54.3c-.9 1.7-.1 3.9 1.6 4.7l68.3 33.8c1.7.9 3.9.1 4.7-1.6L132 45.9c.9-1.7.2-3.9-1.6-4.7z"></path><path fill="#f3f3f3" d="M81 24.2H18.3c-2.5 0-4.6 2.1-4.6 4.6v99.3c0 2.5 2.1 4.6 4.6 4.6h80.8c2.5 0 4.6-2.1 4.6-4.6V46.9L81 24.2z"></path><path fill="#7dcedc" d="M81 24.2v18.1c0 2.5 2.1 4.6 4.6 4.6h18.1L81 24.2z"></path><path fill="#dad9d8" d="M27.1 42H73v3.4H27.1zM27.1 54.6h63.2V58H27.1zM27.1 67.3h63.2v3.4H27.1zM27.1 79.9h63.2v3.4H27.1zM27.1 92.6h63.2V96H27.1zM27.1 105.2h63.2v3.4H27.1zM27.1 117.9h63.2v3.4H27.1z"></path><path fill="#474f59" d="M134.2 58.1H52.9c-2.5 0-4.6 2.1-4.6 4.6v53.4c0 2.5 2.1 4.6 4.6 4.6h81.3c2.5 0 4.6-2.1 4.6-4.6V62.7c0-2.5-2-4.6-4.6-4.6z"></path><path fill="#25313b" d="M87.6 65.6c-.8.1-1.6.2-2.4.5.2-.2.5-.4.8-.4-.5 0-1.6 0-1.3-.3.1-.1 1.4-.1 1.6 0-.5-.2-1-.3-1.5-.2-.8 0-1.6.4-2.4 0v.3c-.3-.1-.5-.1-.8-.2-.1.3-.4.2-.7.2-.5-.1-1 0-1.5.1l.7-.3c-.8-.3-1.7-.2-2.6-.1-.8.1-1.6.2-2.4.2-.2 0-.4 0-.5.1-.1.1-.2.2-.4.3-.5.3-1.1.1-1.7 0-.1 0-.3 0-.4.1-.1.1 0 .3-.2.3h-.2c-.4-.3-.8 0-1.2.1-.2.1-.5 0-.7 0-.4 0-.8.1-1.2.3.1.2.2.3.3.3h.1v.1c0 .1.1.2.2.2 0 .1 0 .3-.1.4-.3.2-.5-.1-.6-.3-.1-.1-.2-.2-.4-.2-.1 0-.2.1-.4 0s-.2-.2-.4 0l-1.2.7c-.1.1.1.6.1.7-.1.1-.3 0-.5 0h-.6v-.1c-.3.1-.6 0-.9.1-.2.1-.4.2-.6.1-.2-.1-.3-.4-.6-.3h-.1c-.1 0-.1-.1-.1-.1-.2-.2-.4-.4-.6-.5-.3-.2-.2-.1-.4-.1-.3 0-.6-.4-.8-.1-.6-.1-1.2-.1-1.7.1-.2.1-.4.2-.6.2h-.2c-.1.1-.1.3-.1.5-.1.3-.5.3-.8.3-.3-.1-.6-.2-.9-.1-.1.1-.1.2 0 .3.1.2.4.2.4.3 0 .1 0 .2-.3.3-.2 0-.8.2-.9.2-.1.1-.2.3-.4.4h-.3c-.1 0-.2.1-.2.2s.1.2 0 .3c-.1.1-.3.1-.3.2v.1c.1.2.2.4.4.4 0 .4.5.4.9.4.3 0 .3 0 .5-.2s.4-.5.6-.6c.3-.1.7.2.9.5 0 .1.1.1.1.1.1.1.3-.1.4.2v.1c0 .2.2.4.1.6 0 .2-.2.3-.2.4v.4c-.1.2-.3.3-.4.4-.1.2.1.5 0 .8 0 .1-.1.1-.1.2s.1.3.1.4v.3c0 .2-.3 1.3-.5 1.5l-.5.5c-.1.1-.2.1-.3.2v.3c0 .1-.1.1-.1.1-.1.1-.1.2-.1.3 0 .1-.2.3-.3.3-.1 0-.2.1-.3.2 0 0-.1 0-.1.1-.1.1 0 .2 0 .3 0 .1-.1.2-.1.3-.1.2 0 .4 0 .5 0 .3-.1.6-.2.9 0 .1-.1.2 0 .3 0 0 0 .1.1.1.2.2.3.5.5.8v.1c0 .1 0 .1-.1.2-.1.2-.1.5 0 .7.1.2.1.5.2.7 0 .3 0 .6.2.8h.1c.1-.2.1-.4.1-.5v-1h.1c0 .1.1.2.1.3.1.2.1.5.2.7.1.3.1.6.3.9.2.3.3.7.3 1 0 .3.2.7.1 1-.1.2-.2.4-.1.6 0 .1.1.1.2.2.5.4.7 1.1 1.3 1.3.1 0 .2 0 .3.1.3.1.5.4.8.3 0-.2.2-.3.4-.3.2.3.3.7.6.9.1.1.3.2.5.3.2.1.4.2.6.1 0 .1.1.3.2.4.1.2.2.5.2.7 0 .1.1.2.3.2l.6.6c.1.1.2.2.3.2h.2c.1 0 .1.1.2.1s.1-.1.1-.1c0-.1 0-.2-.1-.3.2 0 .3 0 .5-.1.1 0 .1 0 .2.1 0 .1.1.2.1.3 0 .2.1.3.1.5.1.2-.1.5-.1.7v.4c0 .1-.2.2-.2.3-.2.3-.3.7-.5 1-.2.4-.4.6-.2 1 .1.1.2.3.1.4-.1.1-.2.1-.1.4.3 1.3.4.4.7 1.5.1.4.4.7.5 1.1.2.1.3.2.3.4.1.2.1.6.1.6l.1.1c.5.3.7.8 1.2 1 .4.2.5.1.7.5.7 2.2.3 1.9.4 2.9 0 .4.3.8.3 1.2v.6c0 .4.2.8.2 1.2 0 .5.2 1 0 1.5 0 .1-.1.2-.1.3 0 .2.3.2.3.4v.2c0 .5.5.9.6 1.4.2.6.3.4.4 1 .1.5.3.9.4 1.3.4.8.4.5 1 1s.4.7 1.4.7c.2.1.4-.2.3-.3-.1-.2-.3-.3-.4-.4-.9-.4-1.2-.8-.5-1.8.4-.6-1-.5-.6-1.2 0-.1.1-.1.1-.2.1-.3-.4-1-.3-1.3 0-.2.3-.1.5 0 .1-.1.1-.4.1-.5 0-.1-.1-.2 0-.3.1-.2.3-.1.5-.1.5 0 .8-.7.3-1.3-.2-.3.1-.4.4-.4h.3c.3-.1.2-.2.2-.3 0-.1.2-.1.3-.2.2-.2 0-.6.1-.9.1-.2.3-.3.4-.5.2-.4 0-.8 0-1.2 0-.5.4-1 .8-1.1.5-.1 1 .1 1.2-.6.4-1 0-2.1.2-3.2.1 0 .2 0 .2-.1v-.3c0-.1.1-.2.2-.3.4-.5.5-1.2.6-1.8v-.1c-.1-.2-.2-.1-.3-.2-.2-.1-.3-.2-.4-.4-.3-.4-.8-.4-1.3-.5-.3 0-.6-.1-.9 0v-.1c0-.2-.1-.4-.3-.5l-.5-.3h-.1c-.1 0-.1.1-.2.2 0 .1-.1.1-.2.1 0-.2-.2-.4-.7-.4.3-.5.4-1.6-.2-1.8 0-.2-.1-.4-.3-.5-.2-.1-.4-.1-.6-.1-.2 0-.4 0-.5-.1-.1-.1-.1-.2-.2-.2s-.3.1-.4-.1c-.1-.1 0-.2 0-.3 0-.1-.2-.2-.3-.3-.1-.1-.2-.3-.3-.4-.1-.1-.2-.2-.4-.2 0-.1-.1-.2-.2-.2-.2.1-.3.2-.5.1-.1 0-.2-.1-.2-.1-.2 0-.4.2-.6 0l-.1-.1c-.1-.2-.4-.2-.7-.2-.1 0-.1 0-.1.1v.5c-.1.1-.3.2-.4.1 0-.2.1-.4.1-.6 0-.2-.1-.3-.3-.2-.2.2-.5.3-.6.5-.1.2-.2.4-.4.5-.4.1-.8-.4-1.1-.2-.1 0-.1.1-.2.1-.2.1-.3-.2-.5-.3-.1-.1-.2-.1-.2-.2v-.2c0-.5.1-.9.2-1.4 0-.1 0-.3-.2-.3 0-.1 0-.2-.2-.3H63c-.2 0-.4 0-.6-.1 0 0-.1 0-.1-.1-.1-.1.1-.2.1-.3v-.3c0-.3.2-.6.4-.8.1-.1.2-.3.1-.4 0-.1-.1-.3-.3-.3-.4-.1-.9.1-1 .5 0 .1 0 .2-.1.3 0 .1-.1.2-.2.2H61c-.2 0-.4.2-.5.1-.1-.1-.1-.1-.1-.2s-.1-.2-.2-.1c0-.2-.1-.3-.1-.5-.2-.6 0-1.3.4-1.8l.1-.1V85c0-.4.2-.7.5-.9.1-.1.2-.1.4-.2.1-.1.2-.1.3-.2.2-.1.5.1.7-.1 0-.1.1-.1.2-.1.1.1 0 .2.1.3h.1c.1-.1.1-.2.2-.3.1 0 .1-.1.2-.1h.7c.1.1.1.3.2.3s.1 0 .2-.1c.1 0 .2.1.3.2.1.2.1.4.1.6 0 .1-.1.3-.1.4 0 .1 0 .1.1.2.1.2.5.2.6-.1.1-.2.1-.5.1-.7 0-.3-.1-.6.1-.9 0-.1.1-.1.1-.2v-.2l.1-.1c.3-.2.7-.5 1-.7.1-.1.3-.2.4-.2.1 0 .2 0 .2-.1.1 0 .1-.1.1-.2l.3-.9c.2.1.4 0 .5-.2 0-.1.1-.2.1-.2.1-.1.4-.1.4-.3v-.2c0-.3.3-.3.5-.3s.5-.1.5-.3V79c0-.1.2-.1.2-.2 0 0 0-.1.1-.1.1-.2.8-.7 1.7-.8.1 0 .2.1 0 .2s-.5.2-.5.5c.2.1.3-.1.5-.2.2-.2.5-.2.7-.2h.1c.1-.1 0-.2-.1-.3-.1 0-.2 0-.3-.1-.2-.1-.3-.5-.3-.6.1-.2.4-.3.2-.5-.2-.1-.7.1-.9.2 0-.2.2-.2.4-.3.1-.1.1-.1.1-.2.1-.1.2-.2.4-.2.7-.1 1.4.3 2-.1.1-.1.2-.1.3-.2h.2c.2-.1.4-.3.6-.5-.2 0 0-.4-.4-.4h-.1c-.1.1-.3 0-.3-.1 0-.2.4-.2.3-.3-.1-.1 0-.3 0-.5-.2.1-.5-.2-.3-.8 0-.2.1-.4 0-.5-.2-.1-.4.1-.5.2-.3.2-.7.1-1 0 0-.1.2-.2.3-.2.2-.1.2-.4.2-.6-.1-.1-.2-.1-.3-.1v-.3h-.9c-.1-.1 0-.2-.1-.2H72c-.1.1-.1.2-.1.3 0 .3-.2.5-.5.6l.1.2c-.1 0-.3.1-.3.2-.1.2.2.4.1.6 0 .2-.2.3-.3.4-.1.1-1 .6-1 .7 0 .1 0 .2-.1.2-.1.3-.3.6-.5.8-.2.4-.4.4-.4.1 0-.1-.1-.3-.2-.2.7-1.5.3-.2-.5-1.7-.2-.1-.5-.1-.7-.1-.1-.2.2-.2.2-.4.1-.1-.1-.3-.2-.4 0-.2 1-.9 1.2-1 .2-.1.3-.2.5-.3.2 0 .4 0 .5-.2 0 0 .1-.1.1-.2.1-.1.4-.1.5-.1.3-.1.4-.5.7-.5.1.1 0 .3-.2.4-.2.1-.4.1-.4.3 0 .1.2.2.4.1l.3-.3c.1-.1.3-.1.4.1 0 .1 0 .2.1.2.1.1.2 0 .2 0 .1-.3-.2-.5-.1-.8.1-.1.3-.1.4-.3l.1-.1c.1-.1.5-.1.6-.1.1.3 0 .6-.2.8-.1.1-.3.2-.2.4l1-.2c-.1.2.1.4.2.6.1.1.5.6.7.6.1 0 .2 0 .2-.1.1-.2-.3-.5-.2-.7.2.1.3.3.5.3s.3-.1.2-.5c0-.1-.1-.5-.1-.6 0-.2.3-.2.4 0 .1.1.1.3.1.4.2.1.4-.1.4-.3.5 0 .6-.3.5-.4-.2.1-.5-.1-.5-.3-.1 0-.2-.1-.2-.2-.1-.1-.1-.2 0-.3.1-.1.2-.1.2-.1.1-.1-.1-.3-.2-.3s-.3-.1-.3-.2v-.2c0-.3-.4-.6-.2-.9v-.1c0-.1-.1-.1-.1-.1h-.4c0-.1.1-.2.2-.3h.5v-.1c0-.1.2-.2.4-.2.1 0 .3-.2.3-.3.2.1.4-.2.7-.3.1 0 .3 0 .4-.1 0-.1 0-.1.1-.2h.2c.2 0 .3-.1.4-.2l.1-.1h.2c.2 0 .4-.3.6-.3h.3c.1 0 .2 0 .3-.1.1 0 .2 0 .3.1-.2.1-.4.2-.6.2v.3l-1.3.3c-.1.2.1.4.3.3v.3h-.5c0 .1.1.3.1.4.4-.2 1 0 1.3.4.2.4.1 1-.3 1.3l.4-.1c.2.3.2.7-.1.9-.1.1-.2.1-.3.2-.7.4-1 1.3-.7 2 .1.4.4.8.8.8 0 .5.7.3.5-.1.2 0 .5-.1.5-.3 0-.2-.1-.1 0-.4.3-.7 3.7-2 4.4-2.2.2-.1.1-.3-.2-.3-.1 0-.3.1-.4 0 0-.1.1-.3.3-.2 0-.1-.1-.2-.1-.2h.6c-.2.3.2.6.5.3-.2-.2-.3-.5-.5-.7.5-.2.8-.6 1.1-1 0-.1.1-.2.2-.2.1-.1.3 0 .3-.1.1-.1.1-.3.1-.4 0-.2.1-.4.3-.6.2-.4 1.5-.8 1.2-.9zM132.2 99.5c-.1-.2-.3-.4-.4-.5-.3-.3-.5-.7-.3-1.1.1-.1.1-.2.1-.3 0-.1-.1-.1-.1-.1-.4-.2-.7-.6-1-.9-.3-.3-.7-.6-1.2-.5-.3 0-.5.2-.8.1l-.3-.3c-.7-.7-1.9-.5-2.9-.8-.1 0-.2-.1-.4 0-.3.1-.4.5-.7.6-.2 0-.3-.2-.2-.3l.2-.1c.3-.1.2-.5-.1-.4-.2 0-.4.1-.5.3l-.1.1c-.2 0-.2-.2-.2-.4-.1-.2-.3-.4-.5-.4V94c.3.1.6-.3.5-.6-.1-.3-.4-.4-.7-.4-.3 0-.5.2-.8.3-.5.3-.4.3-.6.6-.1.3-.4.5-.7.5-.2.1-.3.3-.3.5.2.7.3 1.3 1 1.6.7.2 1.6-.3 1.6-1 .2 0 .3.1.3.3l.2 1.2c0 .1.1.3.2.3l.2-.3c.1.2.3.2.5.1l.3.3c.2.1.4 0 .4-.3 0-.2-.1-.4-.1-.6.3.1.5.3.5.5l.7-.1c.1.3-.2.6-.6.8-1.2.6-2.7.3-3.9-.5-.2-.1-.4-.2-.6-.2-.3 0-.6.3-.9.2-.2 0-.3-.2-.4-.3-.4-.5-1.1-1.7-.9-2.3.1-.5 0-.3-.2-.6-.1-.2 0-.4 0-.6 0-.4-.4-.7-.6-1-.6-.6-.6-1.6-.7-2.4.2.1.3.2.4.3.5.6 1 1.4 1.6.9.1-.1.2-.1.4-.1h.2c.1-.1 0-1.6-.5-2.3-.3-.4-.9-.7-.9-1.3 0-.5.6-.7 1.1-.7.4 0 .9 0 1.2-.2 1-.8 1.2-1 1.2-2.1 0-.2 0-.9-.1-1.1-.1-.2-.3-.2-.4-.4-.1-.1-.1-.2-.1-.3-.2-.4-.7-.6-.7-1 0-.3.3-.5.1-.7-.1-.1-.2-.1-.3-.1-.3 0-.7 0-1-.3-.2-.2-.3-.6-.1-.8.2-.1.4-.1.5-.3 0-.1.1-.2.2-.2l.1.1c0 .3.4.5.7.3.1 0 .2-.1.3-.1.1 0 1.3 1.7 1.3 1.8.1.1.2.3.4.3.1-.1 0-.4.1-.4h.2c.3 0 .3-.7-.3-1.1-.6-.4-.6-.9-.5-1.5 0-.5.3-.3.5-.6.1-.2 0-.4.1-.5.1-.7.4-.7.1-1.4-.2-.5-.4-1.1-.8-1.4-.3-.2-.5-.6-.8-.7-.2-.1-.5-.1-.8-.1-.3 0-.6 0-.8-.2-.2-.2 0-.6.2-.6.1-.2-.1-.4-.2-.6-.4-.7.2-.7 1-.7.6-.1 1-.5 1-1.1 0-.1 0-.3.1-.4.3-.1.3.8.6.6v-.4c.2-.1.5 0 .7.6.3 1 .5 2.2 1.6 2.8.4.2.8-.3.5-.7-.5-.6-1-1.2-1.4-1.8-.2-.3 0-.4.3-.5.6-.3.6-1.3.1-1.6-.7-.4.1-1.1.6-.5.2 0 .3-.2.2-.4-.2-.4-.7-.1-1.1-.2-1-.2-.5-.8-3.1-.5-1.1.2-.1.9-2.6.2-1-.3-3.4 0-4.3.3-.9.2-.7 0-1.3-.4-.4-.3-.9-.2-1.4-.2l-2.6.4c-.2 0-.3-.2-.1-.3.1-.1.2-.2.1-.4 0-.1-.1-.2-.2-.2-1.2-.3-2.5-.1-3.5.5-.2.1-.4.3-.6.4-.2.1-.2.3 0 .4.1.1.3.2.4.3.2.1.1.4-.1.4s-.4 0-.5-.1c-.1-.1-.3-.2-.4-.2-.2-.1-.5.1-.4.3 0 .2.1.4.2.5.1.1-.1.2-.2.1-.2-.2-.4-.5-.4-.8 0-.3-.4-.5-.7-.6-.3-.1-.6.1-.8.4l.4 1c-.2.2-.6 0-.9-.2-.1-.1-.3-.2-.5-.3-.2-.1-.3.1-.4.2 0 .1-.1.2-.2.3-.1.1-.3.1-.5.2-1.8.4-1.4.8-2.4 1.2-.4.1-.9 0-1-.4 1.2 0 1-1 .1-.9-1 .1-.9 0-1.2-.4-.3-.3-.8-.2-1.2 0-.4.2-.7.5-1.2.6-1 .2-.5.1-1 .6-.2.3-.6.3-.8.6-.1.1-.1.3-.2.4-.3.7-1.7 1.2-1.4 1.8.2.4.7.1 1.1.2.2.1.4.2.6.4.2.3.2.7 0 .9-.1.1-.2.3-.3.4-.2.1-.4 0-.6.2.2.2.1.4.1.5-.2.2-.5.2-.7.3-.5.3-.9-.5-1.1-1-.1-.2-.2-.4-.1-.5.1-.2.4-.3.1-.5-.8-.5-1.9.3-1.5 1.2-.3-.1-.6.2-.5.5.1.3.5.4.7.2-.1.3.1.5.3.7.3.2.8.3.6.7-.1.2-.6.3-.5.6 0 .1.1.1.1.1.4.2.4.6.3 1 0 .6-.4.4-1.1.4-1.4 0-1.4 2.3-.7 2.5.1 0 .2.1.4.1.2.4-.2.7-.6.9-.1.1-1 .6-1.1.7-.2.2 0 .5-.1.8 0 .1-.1.2-.2.3-.2.2-.9 1.2-1 1.5-.1.3-.5 3.4-.6 3.7.1 0 .2.2.2.3 0 .5 0 .3.2.5.1.1.1.3.1.4 0 .1.1.2.2.3.9 1.1.8 2.3 3.3 1.9.7-.1 1.3-.2 2-.4 0 .2.2.3.4.3.4 0 .7.1 1.1.2.2.4.3.9.2 1.3-.1.2-.1.4-.1.6.1.4.5.6.6 1 .2 1 .6.4.6 2.9s-.8 1.5 0 2.9c.2.4.1.9.2 1.3 0 .4.1.3.3.5.3.3.2.8.3 1.2l.3.6c.2.4.4.9.4 1.3v.5c.1.2.2.3.4.3 2-.3 1.8-.1 2.3-.9.3-.5 1.1-.7 1.3-1.3.1-.4 0-.9.3-1.2.2-.2.7-.1.8-.4.3-.4-.4-.9-.3-1.4 0-.2.3-.4.5-.6 2.9-2.1.9-3 1.1-5 .2-2 2.5-2.7 3.2-5.4.1-.5-.3-.9-.8-.8-.6.1-1.3.2-1.5-.5-.2-.6.1-.4-.5-.8-.4-.4-.5-1-.7-1.5-.4-1.1-1.4-2-1.3-3.1.2-.1.4.1.5.2.1.2.1.4.2.6.4 1.3 1.5 2.2 1.9 3.5.1.2.1.5.3.6.2.2.5.2.6.1.3-.3 0-.3.7-.3.3 0 .7-.2.9-.4.6-.5 1.6-1.1 1.7-1.9 0-.1 0-.2.1-.3l.3-.3c.1-.2-.1-.4-.3-.5-.2-.1-.4-.2-.5-.3-.1-.1-.1-.2-.2-.3-.1-.1-.2-.2-.3-.2 0 .3-.5.5-.8.4-.3-.1-.6-.4-.8-.6-.3-.4-.7-.9-.5-1.3.7-.1 1.2 1.1 1.9.9.2 0 .4-.1.6 0 .1.1.1.1.1.2.1.2.4.1.7.2.3.1.5.5.8.6.3 0 .6-.4 1-.3.1 0 1.2 1 1.3 1.1-.2.5.2.9.5.8.2-.1.3-.3.2-.5.1-.1.3-.1.4.1.1.1 0 .3 0 .5 0 .6.6 1 .6 1.6v.6c0 .3.2.5.4.7.2.4.4.7.6 1.2.1.3.5.3.6 0 0-.1.1-.2.1-.3.2-.5.3-1 .2-1.4 0-.2-.1-.3-.1-.5.1-.4.5-.5.8-.7.4-.3.5-.8.7-1.2.3-.5.8-.9 1.4-1-.1.8 1 1.1 1.2 1.9.1.3 0 .8.4.7.1 0 .2-.1.3-.1.2 0 .4.1.5.3.2.3.3 1.6.3 2 0 .4.1.2.2.5.1.2-.1.5.1.7 0 .1.1.1.1.1.1.1.4.9.5 1.1.1.4 0 .5-.1.5s-.1-.1-.2-.2c-.2-.5-.6-.8-1-1-.2-.1-.4.2-.3.4.2.2.4.5.6.7.5.6.6 1.5 1 2.1.2.3.6.6.8.9.3.5.2.6 1 1 .7.3 1.4.5 2.1.7.3.1.6.1 1 .1.2 0 .4.1.7 0 .5 0 .9-.3 1.4-.3l-.6.3c-.1 0-.1.1-.1.1 0 .1 0 .1.1.1.1.1.2.1.3.1.2 0 .6 0 .6-.3v-.2c0-.1.1-.1.1-.1.3-.1.7-.2 1-.2.2 0 .4.1.5.2.2.1.4 0 .4-.2v-.1c0-.1-.1-.2-.1-.2 0-.5.9-.5 1-.9.1-.1.3 0 .4.2.1.2.1.4.2.5.1.1.2.1.2.2.1.1.1.3.1.4.1.2.3.4.5.4s.5-.2.6-.4c0-.1 0-.2.1-.2.1-.1.3-.2.4-.1.2.1 1.2 1.1 1.4 1.3 0-.1.2-.2.1-.4z"></path><path fill="#25313b" d="M131.1 105.7c-.2-.5-.3-1.1-.3-1.7 0-.7-.1-.5-.4-.8-.3-.4 0-1-.2-1.5s-.5-.3-.5-1c0-.2-.3-.2-.3-.1-.1.2-.1.3-.1.5-.1.4-.2.7-.5 1-.3.4-.6.3-.8 0-.2-.2-.3-.4-.4-.6-.1-.2-.1-.5 0-.7.1-.1.2-.3.1-.4-.1-.2-1-.4-1.3-.1-.1.1-.1.2-.2.3-.2.1-.5.1-.6.3 0 .1 0 .2-.1.3-.2.3-.6.1-.5-.2-.6-.2-.6.7-1 .9-.6.3-.3-.1-.7.6-.5.8-1.8.7-2.4 1.5-.2.3-.3.8-.6 1-.1.1-.2.1-.3.3v.3c.2.8.1 1.7-.3 2.5 0 .1-.1.2-.1.3 0 .1 0 .1.1.2.1.2.3.3.5.4l.1-.1c.3 0 .5-.4.7-.3.1 0 .2.1.3.1.3.1.5 0 .7-.2.1-.1.2-.4.4-.4h.3c.3 0 .6-.1 1-.2.5 0 1.1.4 1.2.9.1.4.1.6.8.5.2 0 .4-.1.4-.2.1.2 0 .4-.1.6-.4.3-.5.4-.3.9.2.6.2 1.2 0 1.8-.1.3.2.6.5.4.5-.3.3-.8.6-1.1.2-.1.6-.1.7-.4.1-.3-.1-.4.2-.6.6-.3.9-1 1.4-1.5 1-1 .9-.6 2-2.4.1-.1.1-.3.2-.4 0-.1-.1-.4-.2-.7z"></path><path fill="#fff" d="M128.5 66.3h-16.3c-1.1 0-1.9.9-1.9 1.9v19.3c0 1.1.9 1.9 1.9 1.9h16.3c1.1 0 1.9-.9 1.9-1.9V68.2c0-1.1-.9-1.9-1.9-1.9z"></path><path fill="#f6bb53" d="M118 76.2h4.6v4.6H118z"></path><path fill="#25313b" d="M128.5 82.6c-.2-1.6-2.6-2.4-2.6-2.4l-3.7-1.4-1.8.8-1.8-.8c-6.9 2.7-6.3 1.9-6.5 7.7 0 1.2.9 2.2 2.1 2.2h12.6c1.2 0 2.1-1 2.1-2.2-.3-1.4-.4-3-.4-3.9z"></path><path fill="#db674c" d="m122.1 78.8-1.8.7-1.8-.7c-1.1.4-.9.4-1.4.6v5c.3.6 1.3 1.4 1.2 2 1.2 1.6 2.1 2.3 2.1 2.3.2-.2 2.6-3.5 3.1-4.5l.2-4.9c-.7-.2-.4-.1-1.6-.5z"></path><path fill="#fff" d="m121.4 80.4-.6-.9h-1l-.6.9.7.9-.5 6.2.9 1.2 1-1.2-.5-6.2z"></path><path fill="#f37c5a" d="m122.6 78.3-2.3 1.1c1.5 1.7 1 1.8 2.9-.3l-.6-.8zM117.4 79.2c1.9 2 1.3 2 2.9.3l-2.3-1.1-.6.8z"></path><path fill="#474f59" d="M120.3 88.7c-2.3-1.4-4.2-5.1-4-5.4.2-.3.6-.8.2-1-.3-.1-.7-.3-.7-.5l.4-2.1 1.2-.7c-.1 1.2 0 5.4 2.9 9.7zM124.7 81.7c0 .1-.1.2-.2.3-.4.2-.8.4-.6.7.1.2.5.6.4.8-1 2.6-2.9 4.5-4 5.2 2.4-3.5 3.1-7.6 2.7-9.7l1.2.7.5 2z"></path><path fill="#fdda7f" d="M123.8 73.9c-.2 1.6.9 1.8 1.1.2.2-1.6-.9-1.8-1.1-.2zM116.9 73.9c.2 1.6-.9 1.8-1.1.2-.3-1.6.8-1.8 1.1-.2z"></path><path fill="#fdda7f" d="M120.3 68.7c-2 0-3.6 1.6-3.7 3.6 0 2.4-.3 3.5.5 4.4.7.8 1.3 1.7 2.2 2 2 .7 3.1-.8 4.1-2 .4-.4.6-1 .6-1.6v-2.8c-.1-2-1.7-3.6-3.7-3.6z"></path><path fill="#25313b" d="M123.7 69.5h-.1c1.7-3-8.4-4.2-7.5 1.8 0 1 .5 2.3.6 2.8 0 .1.2.1.2 0 0-.3-.1-1.6.3-2.8 1.5 0 4.3.1 5.8-.8.8 1.3.9 3.2.8 3.6 0 0 0 .1.1.1s.1 0 .1-.1c0-.7.3-1.1.6-2.6.3-2.2-.9-2-.9-2z"></path><path fill="#fff" d="M58.7 70H67v2.3h-8.3zM71.1 70h8.3v2.3h-8.3zM83.5 70h8.3v2.3h-8.3zM95.9 70h8.3v2.3h-8.3z"></path><path fill="#fdda7f" d="M68.7 95.9h-6.2c-2.4 0-4.4 2-4.4 4.4v6.2c0 2.4 2 4.4 4.4 4.4h6.2c2.4 0 4.4-2 4.4-4.4v-6.2c0-2.4-1.9-4.4-4.4-4.4z"></path></svg>