<svg xmlns="http://www.w3.org/2000/svg" enable-background="new 0 0 64 64" viewBox="0 0 64 64" id="consulting"><path fill="#C7D9F9" d="M63,61.2v-5.5c0-4-3.2-7.2-7.2-7.2h-6.2c-4,0-7.2,3.2-7.2,7.2v5.5"></path><path fill="#E3ECFF" d="M21.7,29.2v-5.5c0-4-3.2-7.2-7.2-7.2H8.2c-4,0-7.2,3.2-7.2,7.2v5.5"></path><line x1="46.5" x2="46.5" y1="61.2" y2="58.7" fill="none" stroke="#2A3C65" stroke-linecap="round" stroke-linejoin="round" stroke-miterlimit="10" stroke-width=".943"></line><line x1="58.8" x2="58.8" y1="58.7" y2="61.2" fill="none" stroke="#2A3C65" stroke-linecap="round" stroke-linejoin="round" stroke-miterlimit="10" stroke-width=".943"></line><path fill="none" stroke="#2A3C65" stroke-linecap="round" stroke-linejoin="round" stroke-miterlimit="10" stroke-width="1.414" d="
		M63,61.2v-5.5c0-4-3.2-7.2-7.2-7.2h-6.2c-4,0-7.2,3.2-7.2,7.2v5.5"></path><circle cx="52.7" cy="39.9" r="5.1" fill="none" stroke="#2A3C65" stroke-linecap="round" stroke-linejoin="round" stroke-miterlimit="10" stroke-width="1.414"></circle><line x1="52.7" x2="52.7" y1="53" y2="53.6" fill="none" stroke="#2A3C65" stroke-linecap="round" stroke-linejoin="round" stroke-miterlimit="10" stroke-width=".943"></line><line x1="52.7" x2="52.7" y1="57.4" y2="58" fill="none" stroke="#2A3C65" stroke-linecap="round" stroke-linejoin="round" stroke-miterlimit="10" stroke-width=".943"></line><path fill="#02BEFF" d="M40.8,20.7h17.8c2.4,0,4.4-2,4.4-4.4V7.2c0-2.4-2-4.4-4.4-4.4H37.1c-2.4,0-4.4,2-4.4,4.4v19.3L40.8,20.7z"></path><path fill="none" stroke="#2A3C65" stroke-linecap="round" stroke-linejoin="round" stroke-miterlimit="10" stroke-width="1.414" d="
		M41,2.8h-3.9c-2.4,0-4.4,2-4.4,4.4v19.3l8.1-5.7h17.8c2.4,0,4.4-2,4.4-4.4V7.2c0-2.4-2-4.4-4.4-4.4h-8.4"></path><line x1="47.2" x2="44" y1="2.8" y2="2.8" fill="none" stroke="#2A3C65" stroke-linecap="round" stroke-linejoin="round" stroke-miterlimit="10" stroke-width="1.414"></line><line x1="56.4" x2="39.4" y1="7.9" y2="7.9" fill="none" stroke="#2A3C65" stroke-linecap="round" stroke-linejoin="round" stroke-miterlimit="10" stroke-width=".943"></line><line x1="56.4" x2="39.4" y1="11.7" y2="11.7" fill="none" stroke="#2A3C65" stroke-linecap="round" stroke-linejoin="round" stroke-miterlimit="10" stroke-width=".943"></line><line x1="56.4" x2="39.4" y1="15.6" y2="15.6" fill="none" stroke="#2A3C65" stroke-linecap="round" stroke-linejoin="round" stroke-miterlimit="10" stroke-width=".943"></line><line x1="5.2" x2="5.2" y1="29.2" y2="26.6" fill="none" stroke="#2A3C65" stroke-linecap="round" stroke-linejoin="round" stroke-miterlimit="10" stroke-width=".943"></line><line x1="17.5" x2="17.5" y1="26.6" y2="29.2" fill="none" stroke="#2A3C65" stroke-linecap="round" stroke-linejoin="round" stroke-miterlimit="10" stroke-width=".943"></line><path fill="none" stroke="#2A3C65" stroke-linecap="round" stroke-linejoin="round" stroke-miterlimit="10" stroke-width="1.414" d="
		M21.7,29.2v-5.5c0-4-3.2-7.2-7.2-7.2H8.2c-4,0-7.2,3.2-7.2,7.2v5.5"></path><circle cx="11.3" cy="7.8" r="5.1" fill="none" stroke="#2A3C65" stroke-linecap="round" stroke-linejoin="round" stroke-miterlimit="10" stroke-width="1.414"></circle><line x1="11.3" x2="11.3" y1="20.9" y2="21.5" fill="none" stroke="#2A3C65" stroke-linecap="round" stroke-linejoin="round" stroke-miterlimit="10" stroke-width=".943"></line><line x1="11.3" x2="11.3" y1="25.3" y2="25.9" fill="none" stroke="#2A3C65" stroke-linecap="round" stroke-linejoin="round" stroke-miterlimit="10" stroke-width=".943"></line><path fill="#FF5892" d="M23.2,55.5H5.4c-2.4,0-4.4-2-4.4-4.4L1,42c0-2.4,2-4.4,4.4-4.4h21.5c2.4,0,4.4,2,4.4,4.4v19.3L23.2,55.5z"></path><path fill="none" stroke="#2A3C65" stroke-linecap="round" stroke-linejoin="round" stroke-miterlimit="10" stroke-width="1.414" d="
		M31.2,53.5v7.7l-8.1-5.7H5.3c-2.4,0-4.4-2-4.4-4.4L1,42c0-2.4,2-4.4,4.4-4.4h21.5c2.4,0,4.4,2,4.4,4.4v2.1"></path><line x1="31.2" x2="31.2" y1="47.1" y2="50.5" fill="none" stroke="#2A3C65" stroke-linecap="round" stroke-linejoin="round" stroke-miterlimit="10" stroke-width="1.414"></line><line x1="7.6" x2="24.6" y1="42.7" y2="42.7" fill="none" stroke="#2A3C65" stroke-linecap="round" stroke-linejoin="round" stroke-miterlimit="10" stroke-width=".943"></line><line x1="7.6" x2="24.6" y1="46.5" y2="46.5" fill="none" stroke="#2A3C65" stroke-linecap="round" stroke-linejoin="round" stroke-miterlimit="10" stroke-width=".943"></line><line x1="7.6" x2="24.6" y1="50.4" y2="50.4" fill="none" stroke="#2A3C65" stroke-linecap="round" stroke-linejoin="round" stroke-miterlimit="10" stroke-width=".943"></line></svg>