<svg xmlns="http://www.w3.org/2000/svg" enable-background="new 0 0 256 256" viewBox="0 0 256 256" id="capitalized-cost-reduction"><polygon fill="#CECECE" points="187.822 61.574 154.89 28.642 41.205 28.642 41.205 229.476 187.822 229.476"></polygon><polygon fill="#E2E2E2" points="154.89 28.642 140.223 28.642 173.155 61.574 173.155 229.476 187.822 229.476 187.822 61.574"></polygon><rect width="14.667" height="200.834" x="41.205" y="28.642" fill="#AFAFAF"></rect><circle cx="114.514" cy="93.03" r="31.456" fill="#F8AF23"></circle><path fill="#CECECE" d="M236.441,114.172h-70.738c-2.761,0-5,2.239-5,5v105.304c0,2.761,2.239,5,5,5h70.738c2.761,0,5-2.239,5-5
		V119.172C241.441,116.411,239.202,114.172,236.441,114.172z"></path><path fill="#E2E2E2" d="M236.441,114.172h-14.667c2.761,0,5,2.239,5,5v105.304c0,2.761-2.239,5-5,5h14.667c2.761,0,5-2.239,5-5
			V119.172C241.441,116.411,239.202,114.172,236.441,114.172z"></path><rect width="58.252" height="20.443" x="171.946" y="124.486" fill="#63BCE7"></rect><rect width="10.981" height="10.981" x="176.388" y="160.293" fill="#F8AF23"></rect><rect width="10.981" height="10.981" x="195.582" y="160.293" fill="#F8AF23"></rect><rect width="10.981" height="10.981" x="214.776" y="160.293" fill="#F8AF23"></rect><rect width="10.981" height="10.981" x="176.388" y="179.284" fill="#F8AF23"></rect><rect width="10.981" height="10.981" x="195.582" y="179.284" fill="#F8AF23"></rect><rect width="10.981" height="10.981" x="214.776" y="179.284" fill="#F8AF23"></rect><g><rect width="10.981" height="10.981" x="176.388" y="198.274" fill="#F8AF23"></rect><rect width="10.981" height="10.981" x="195.582" y="198.274" fill="#F8AF23"></rect><rect width="10.981" height="10.981" x="214.776" y="198.274" fill="#F8AF23"></rect></g><g><path fill="#F46275" d="M41.66,82.429l26.003-26.003c0.405-0.405,0.118-1.096-0.454-1.096H56.987
			c-0.355,0-0.642-0.288-0.642-0.642V16.193c0-0.355-0.288-0.642-0.642-0.642H26.708c-0.355,0-0.642,0.288-0.642,0.642v38.494
			c0,0.355-0.288,0.642-0.642,0.642H15.203c-0.572,0-0.859,0.692-0.454,1.096l26.003,26.003C41.002,82.68,41.409,82.68,41.66,82.429
			z"></path><path fill="#F43075" d="M29.869,55.33H40.09c0.355,0,0.642-0.288,0.642-0.642V16.193c0-0.355,0.288-0.642,0.642-0.642H26.708
				c-0.355,0-0.642,0.288-0.642,0.642v38.494c0,0.355-0.288,0.642-0.642,0.642H15.203c-0.572,0-0.859,0.692-0.454,1.096
				l26.003,26.003c0.251,0.251,0.657,0.251,0.908,0l6.879-6.879L29.415,56.426C29.01,56.022,29.297,55.33,29.869,55.33z"></path><path fill="#3F3679" d="M27.323 238.949H9.32c-.829 0-1.5.672-1.5 1.5s.671 1.5 1.5 1.5h18.003c.829 0 1.5-.672 1.5-1.5S28.152 238.949 27.323 238.949zM246.68 238.949h-18.003c-.829 0-1.5.672-1.5 1.5s.671 1.5 1.5 1.5h18.003c.829 0 1.5-.672 1.5-1.5S247.509 238.949 246.68 238.949zM218.479 238.949H37.521c-.829 0-1.5.672-1.5 1.5s.671 1.5 1.5 1.5h180.959c.829 0 1.5-.672 1.5-1.5S219.308 238.949 218.479 238.949zM9.32 230.977h156.383 70.738 10.239c.829 0 1.5-.672 1.5-1.5s-.671-1.5-1.5-1.5h-4.771c.65-1.012 1.032-2.211 1.032-3.5V119.172c0-3.584-2.916-6.5-6.5-6.5h-47.119V61.574c0-.397-.158-.779-.439-1.061L155.95 27.581c-.281-.281-.663-.439-1.061-.439H57.845V16.193c0-1.182-.961-2.143-2.142-2.143H26.708c-1.182 0-2.143.961-2.143 2.143V53.83h-9.363c-.869 0-1.646.519-1.979 1.321-.333.804-.151 1.72.464 2.336L39.69 83.489c.005.005.01.008.015.012v144.475H9.32c-.829 0-1.5.672-1.5 1.5S8.491 230.977 9.32 230.977zM239.941 119.172v105.305c0 1.93-1.57 3.5-3.5 3.5h-70.738c-1.93 0-3.5-1.57-3.5-3.5V119.172c0-1.93 1.57-3.5 3.5-3.5h70.738C238.371 115.672 239.941 117.242 239.941 119.172zM156.39 32.263l27.811 27.812H156.39V32.263zM17.273 56.83h8.15c1.181 0 2.142-.961 2.142-2.143V17.051h27.279v37.637c0 1.182.961 2.143 2.142 2.143h8.15L41.206 80.762 17.273 56.83zM42.706 83.501c.005-.005.01-.008.015-.012l26.003-26.003c.614-.615.796-1.531.463-2.335-.333-.803-1.11-1.321-1.979-1.321h-9.363V30.142h95.545v31.433c0 .828.671 1.5 1.5 1.5h31.432v49.598h-20.619c-3.584 0-6.5 2.916-6.5 6.5v105.305c0 1.289.382 2.488 1.032 3.5H42.706V83.501z"></path><path fill="#3F3679" d="M114.514,125.986c18.172,0,32.956-14.784,32.956-32.956s-14.784-32.956-32.956-32.956
				c-18.172,0-32.957,14.784-32.957,32.956S96.341,125.986,114.514,125.986z M114.514,63.074c16.518,0,29.956,13.438,29.956,29.956
				s-13.438,29.956-29.956,29.956S84.557,109.548,84.557,93.03S97.996,63.074,114.514,63.074z"></path><path fill="#3F3679" d="M111.542 107.872c-3.269 0-5.928-2.659-5.928-5.928 0-.828-.671-1.5-1.5-1.5s-1.5.672-1.5 1.5c0 4.923 4.005 8.928 8.928 8.928h1.472v1.472c0 .828.671 1.5 1.5 1.5s1.5-.672 1.5-1.5v-1.472h1.471c4.923 0 8.928-4.005 8.928-8.928v-2.972c0-4.923-4.005-8.928-8.928-8.928h-1.471V78.188h1.471c3.269 0 5.928 2.659 5.928 5.929 0 .828.671 1.5 1.5 1.5s1.5-.672 1.5-1.5c0-4.923-4.005-8.929-8.928-8.929h-1.471v-1.471c0-.828-.671-1.5-1.5-1.5s-1.5.672-1.5 1.5v1.471h-1.472c-4.923 0-8.928 4.006-8.928 8.929s4.005 8.929 8.928 8.929h1.472v14.827H111.542zM111.542 90.045c-3.269 0-5.928-2.659-5.928-5.929s2.659-5.929 5.928-5.929h1.472v11.857H111.542zM116.014 93.045h1.471c3.269 0 5.928 2.659 5.928 5.928v2.972c0 3.269-2.659 5.928-5.928 5.928h-1.471V93.045zM153.659 137.138H75.368c-.829 0-1.5.672-1.5 1.5s.671 1.5 1.5 1.5h78.291c.829 0 1.5-.672 1.5-1.5S154.488 137.138 153.659 137.138zM153.659 152.517H75.368c-.829 0-1.5.672-1.5 1.5s.671 1.5 1.5 1.5h78.291c.829 0 1.5-.672 1.5-1.5S154.488 152.517 153.659 152.517zM153.659 167.896H75.368c-.829 0-1.5.672-1.5 1.5s.671 1.5 1.5 1.5h78.291c.829 0 1.5-.672 1.5-1.5S154.488 167.896 153.659 167.896zM153.659 183.274H75.368c-.829 0-1.5.672-1.5 1.5s.671 1.5 1.5 1.5h78.291c.829 0 1.5-.672 1.5-1.5S154.488 183.274 153.659 183.274zM94.645 198.652H75.368c-.829 0-1.5.672-1.5 1.5s.671 1.5 1.5 1.5h19.277c.829 0 1.5-.672 1.5-1.5S95.474 198.652 94.645 198.652zM171.946 146.43h58.252c.829 0 1.5-.672 1.5-1.5v-20.443c0-.828-.671-1.5-1.5-1.5h-58.252c-.829 0-1.5.672-1.5 1.5v20.443C170.446 145.758 171.118 146.43 171.946 146.43zM173.446 125.986h55.252v17.443h-55.252V125.986zM187.368 158.793h-10.98c-.829 0-1.5.672-1.5 1.5v10.981c0 .828.671 1.5 1.5 1.5h10.98c.829 0 1.5-.672 1.5-1.5v-10.981C188.868 159.465 188.197 158.793 187.368 158.793zM185.868 169.774h-7.98v-7.981h7.98V169.774zM206.563 158.793h-10.98c-.829 0-1.5.672-1.5 1.5v10.981c0 .828.671 1.5 1.5 1.5h10.98c.829 0 1.5-.672 1.5-1.5v-10.981C208.063 159.465 207.391 158.793 206.563 158.793zM205.063 169.774h-7.98v-7.981h7.98V169.774zM225.757 158.793h-10.981c-.829 0-1.5.672-1.5 1.5v10.981c0 .828.671 1.5 1.5 1.5h10.981c.829 0 1.5-.672 1.5-1.5v-10.981C227.257 159.465 226.585 158.793 225.757 158.793zM224.257 169.774h-7.981v-7.981h7.981V169.774zM187.368 177.783h-10.98c-.829 0-1.5.672-1.5 1.5v10.981c0 .828.671 1.5 1.5 1.5h10.98c.829 0 1.5-.672 1.5-1.5v-10.981C188.868 178.455 188.197 177.783 187.368 177.783zM185.868 188.765h-7.98v-7.981h7.98V188.765zM206.563 177.783h-10.98c-.829 0-1.5.672-1.5 1.5v10.981c0 .828.671 1.5 1.5 1.5h10.98c.829 0 1.5-.672 1.5-1.5v-10.981C208.063 178.455 207.391 177.783 206.563 177.783zM205.063 188.765h-7.98v-7.981h7.98V188.765zM225.757 177.783h-10.981c-.829 0-1.5.672-1.5 1.5v10.981c0 .828.671 1.5 1.5 1.5h10.981c.829 0 1.5-.672 1.5-1.5v-10.981C227.257 178.455 226.585 177.783 225.757 177.783zM224.257 188.765h-7.981v-7.981h7.981V188.765zM187.368 196.773h-10.98c-.829 0-1.5.672-1.5 1.5v10.981c0 .828.671 1.5 1.5 1.5h10.98c.829 0 1.5-.672 1.5-1.5v-10.981C188.868 197.445 188.197 196.773 187.368 196.773zM185.868 207.755h-7.98v-7.981h7.98V207.755zM206.563 196.773h-10.98c-.829 0-1.5.672-1.5 1.5v10.981c0 .828.671 1.5 1.5 1.5h10.98c.829 0 1.5-.672 1.5-1.5v-10.981C208.063 197.445 207.391 196.773 206.563 196.773zM205.063 207.755h-7.98v-7.981h7.98V207.755zM225.757 196.773h-10.981c-.829 0-1.5.672-1.5 1.5v10.981c0 .828.671 1.5 1.5 1.5h10.981c.829 0 1.5-.672 1.5-1.5v-10.981C227.257 197.445 226.585 196.773 225.757 196.773zM224.257 207.755h-7.981v-7.981h7.981V207.755z"></path></g></svg>