<svg xmlns="http://www.w3.org/2000/svg" enable-background="new 0 0 512 512" viewBox="0 0 512 512" id="developer"><path d="M256 215c26.1 0 48.4-16.9 56.4-40.4 3.1 1 6.3 1.5 9.5 1.5 17.1 0 31-13.9 31-31s-13.9-31-31-31c-6.6 0-12.9 2.1-18.1 5.8C293 105.3 275.6 95.8 256 95.8c-32.8 0-59.6 26.7-59.6 59.6C196.4 188.3 223.2 215 256 215zM321.9 126.1c10.5 0 19 8.5 19 19s-8.5 19-19 19c-2.3 0-4.7-.4-6.8-1.3.3-2.4.5-4.9.5-7.4 0-9-2-17.5-5.6-25.1C313.3 127.6 317.5 126.1 321.9 126.1zM256 107.8c26.2 0 47.6 21.3 47.6 47.6 0 4.5-.7 8.9-1.9 13.1-31.9-12.2-45.6-46.4-50-60.5C253.2 107.9 254.6 107.8 256 107.8zM240 110.6c.1.4.3.9.4 1.4l-.4 0c0 .1.6 9.8-3.6 19.9-5 11.8-14.3 19.4-27.9 22.8C208.7 134.4 221.8 117.1 240 110.6zM247.4 136.6c.5-1.3 1-2.5 1.4-3.8.7 1.5 1.5 3 2.4 4.5 11.4 20.5 27.2 35 45.7 42.2-8.3 14-23.5 23.4-41 23.4-22.3 0-41.1-15.5-46.2-36.3C232.4 161.7 242.7 147.8 247.4 136.6zM418 167.9c26.9 0 48.9-21.9 48.9-48.9 0-26.9-21.9-48.9-48.9-48.9s-48.9 21.9-48.9 48.9C369.1 146 391.1 167.9 418 167.9zM418 82.2c20.3 0 36.9 16.5 36.9 36.9 0 20.3-16.5 36.9-36.9 36.9s-36.9-16.5-36.9-36.9C381.1 98.7 397.7 82.2 418 82.2z"></path><path d="M459.4 173.2l-3 0-1.8 2.4c-8.5 11.6-22.2 18.5-36.6 18.5s-28.1-6.9-36.6-18.5l-1.8-2.4-3 0c-24.6 0-44.6 20-44.6 44.6v12.5c-7.3-3.6-15.5-5.7-24.2-5.7l-3 0-1.8 2.4c-11 14.9-28.5 23.8-47 23.8s-36-8.9-47-23.8l-1.8-2.4-3 0c-8.7 0-16.9 2.1-24.2 5.7v-12.6c0-24.6-20-44.6-44.6-44.6l-3 0-1.8 2.4c-8.5 11.6-22.2 18.5-36.6 18.5s-28.1-6.9-36.6-18.5l-1.8-2.4-3 0C28 173.2 8 193.2 8 217.8v81.7h142v80h135.3c9.3 32.4 37.1 57.3 71.9 61.7 3.5.4 7.2.7 10.7.7 47.4 0 86-38.6 86-86 0-21.5-8-41.2-21.1-56.3H504v-81.7C504 193.2 484 173.2 459.4 173.2zM150 287.5H20v-69.7c0-17 13.1-31 29.7-32.4 10.9 13.1 27.2 20.9 44.3 20.9s33.4-7.7 44.3-20.9c16.6 1.4 29.7 15.5 29.7 32.4v20.8c-11 9.9-18 24.3-18 40.3V287.5zM345.2 383c-1.2 1.4-2.9 2.1-4.6 2.1-1.4 0-2.8-.5-3.9-1.4l-27.7-23.6c-1.3-1.1-2.1-2.8-2.1-4.6 0-1.8.8-3.4 2.1-4.6l27.7-23.6c2.5-2.1 6.3-1.8 8.5.7 2.1 2.5 1.8 6.3-.7 8.5l-22.3 19 22.3 19C347.1 376.7 347.4 380.5 345.2 383zM303 299.5c-13.6 15.6-21 35.6-21 56.3 0 3.9.3 7.8.8 11.7H162v-88.6c0-22.3 17.4-40.6 39.3-42.1 13.3 16.4 33.5 26.1 54.7 26.1s41.4-9.7 54.7-26.1c19.6 1.3 35.6 15.9 38.7 35.1C331.5 275.8 315.2 285.5 303 299.5zM381.3 316.1L364.1 398c-.6 2.8-3.1 4.8-5.9 4.8-.4 0-.8 0-1.2-.1-3.2-.7-5.3-3.9-4.6-7.1l17.3-81.9c.7-3.2 3.9-5.3 7.1-4.6C379.9 309.7 382 312.9 381.3 316.1zM426.9 360.1l-27.7 23.6c-1.1 1-2.5 1.4-3.9 1.4-1.7 0-3.4-.7-4.6-2.1-2.1-2.5-1.8-6.3.7-8.5l22.3-19-22.3-19c-2.5-2.1-2.8-5.9-.7-8.5 2.1-2.5 5.9-2.8 8.5-.7l27.7 23.6c1.3 1.1 2.1 2.8 2.1 4.6C429 357.3 428.2 359 426.9 360.1zM492 287.5h-71.9c-14.5-11.1-32.5-17.7-52.1-17.7-2.2 0-4.5.1-6.7.3-2-12.6-8.3-23.6-17.3-31.7v-20.7c0-17 13.1-31 29.7-32.4 10.9 13.1 27.2 20.9 44.3 20.9s33.4-7.7 44.3-20.9c16.6 1.4 29.7 15.5 29.7 32.4V287.5zM94 167.9c26.9 0 48.9-21.9 48.9-48.9 0-26.9-21.9-48.9-48.9-48.9S45.1 92.1 45.1 119C45.1 146 67.1 167.9 94 167.9zM94 82.2c20.3 0 36.9 16.5 36.9 36.9 0 20.3-16.5 36.9-36.9 36.9S57.1 139.4 57.1 119C57.1 98.7 73.7 82.2 94 82.2z"></path></svg>