<svg xmlns="http://www.w3.org/2000/svg" enable-background="new 0 0 131 131" viewBox="0 0 131 131" id="cloud-hosting-services"><path fill="#BAC1CE" d="M96.1716,66.2831l15.8601,8.83l15.6399-9.4l-0.0399-1.59l-6.15-3.4301l-0.4199-20.0099l-9.5601-5.32
			l-0.3-16.53c0-0.19-0.11-0.36-0.27-0.45L80.5417,1.563c-0.16-0.09-0.3701-0.08-0.53,0.0099l-26.0901,15.7
			c0.75-1.59,1.1901-3.29,1.16-4.83c-0.0399-1.82-0.72-3.07-1.7899-3.63c0.03,0.0099,0.0499,0.02,0.0699,0.03l-2.12-1.17
			c-0.1-1.28-0.61-2.17-1.39-2.6l-2.89-1.61c-0.85-0.48-2.02-0.39-3.29,0.37c-0.0299,0.03-0.0699,0.05-0.0999,0.07l-2.4701-1.4
			c-1.0699-0.58-2.48-0.47-4.0399,0.48c-2.5801,1.54-4.7201,4.87-5.3201,8.01l-0.01-0.01c-0.54,0.06-1.11,0.26-1.72,0.64
			c-2.53,1.51-4.52,5.13-4.46,8.06c0.01,0.42,0.0599,0.8,0.1499,1.13c-0.87,1-1.59,2.18-2.1299,3.41l-4.1401,2.5l0.23,10.73
			l-16.08,9.67c-0.16,0.1-0.2599,0.2699-0.25,0.46l0.64,35.55c0.01,0.1899,0.11,0.36,0.28,0.45l27.36,15.15l0.15,8.1l-2.8501-1.59
			c-0.6199-0.3401-1.6199-0.3201-2.23,0.05l-12.75,7.6699c-0.3099,0.1899-0.46,0.4299-0.45,0.67l0.03,1.5699
			c0.01,0.23,0.1599,0.46,0.47,0.63l24.0801,13.42c0.6299,0.35,1.6299,0.3199,2.24-0.04l12.75-7.6799
			c0.3099-0.1801,0.46-0.42,0.46-0.65l-0.04-1.5601c0-0.24-0.1499-0.48-0.47-0.66l-20.17-11.23l-0.16-9.03
			c0-0.1899-0.1099-0.3599-0.27-0.45L5.0317,82.8031L4.4016,47.873l15.29-9.2l0.55,25.66l-6.13,3.6901l0.0599,2.5l24.9001,13.8699
			l9.4199-5.6699l0.3201,15.6l1.4399,0.79l0.05,2.0499l19.6099,10.1401c0.6801,0.3799,1.77,0.3599,2.4401-0.04l30.35-18.27
			c0.3401-0.2,0.51-0.46,0.5-0.72l-0.03-1.24c0.01-0.26-0.1599-0.52-0.52-0.72L83.0417,75.373l-0.01,0.01l-0.48-22.4601
			c0-0.3999-0.16-0.6799-0.4001-0.7899l-1.4099-0.79c-0.21-0.12-0.52-0.09-0.87,0.1l-0.7999,0.49l-0.0601-3.49
			c-0.01-0.1899-0.1101-0.37-0.28-0.46l-21.9299-12.13l-0.2101-9.81h-0.01l-6.8099-3.8c1.1499-0.73,2.2-1.82,3.0599-3.07
			l27.4701-16.53l29.84,16.52l0.2899,15.6l-0.1-0.06l-10.58,6.37l0.4399,21.1801l-4.0499,2.4399L96.1716,66.2831z M13.9416,114.263
			c-0.1199-0.0701-0.21-0.14-0.28-0.22c0.0701,0.08,0.1602,0.1499,0.28,0.21l7.17,4L13.9416,114.263z M34.6317,12.603l-2.01-1.12
			l2.01,1.11V12.603z M40.9516,4.103c0.27-0.11,0.54-0.18,0.8-0.23C41.4916,3.923,41.2216,4.003,40.9516,4.103z M102.6616,87.723
			c0.1201-0.0701,0.2201-0.15,0.3-0.23c-0.0699,0.09-0.1699,0.1699-0.29,0.24l-26.49,15.95L102.6616,87.723z M77.9516,48.763
			l0.0701,3.8l-19.52,11.75l-1.0901-0.6101l-0.58-26.62L77.9516,48.763z M49.8917,77.883l0.12,5.91l-0.13-5.91H49.8917z"></path><path fill="#5B5E71" d="M13.4779,113.6302l0.0383,1.5737c0.0042,0.2317,0.1532,0.4608,0.4654,0.629l24.0822,13.4225
									c0.6245,0.346,1.6285,0.3181,2.2401-0.0407l12.7453-7.6788c0.3155-0.1796,0.4656-0.4238,0.4614-0.6555l-0.0385-1.5834
									c0.0044,0.2414-0.1459,0.4759-0.4515,0.665l-12.7551,7.6693c-0.6018,0.3683-1.6058,0.3963-2.2305,0.0406l-24.0917-13.4126
									C13.6408,114.0909,13.4821,113.862,13.4779,113.6302z"></path><path fill="#474B59" d="M13.9339,112.9651c-0.61,0.3671-0.6089,0.9475,0.0101,1.2923l24.0895,13.4193
									c0.6251,0.3482,1.6267,0.3265,2.2367-0.0407l12.7492-7.6732c0.61-0.3671,0.6089-0.9475-0.0163-1.2957l-24.0895-13.4193
									c-0.6189-0.3448-1.6205-0.323-2.2305,0.0441L13.9339,112.9651z"></path><path fill="#F9607F" d="M15.4392,114.1934l22.6574,12.6177c0.5855,0.3274,1.5221,0.3104,2.0954-0.0285l11.3408-6.8323
								c0.5829-0.3487,0.5634-0.8892-0.0125-1.2168l-22.6671-12.6175c-0.5855-0.3274-1.5221-0.3104-2.0953,0.0381l-3.1339,1.8825
								l0.4294,0.2433c0.283,0.1591,0.2877,0.4198,0.0107,0.589l-4.0606,2.4403c-0.277,0.1692-0.7309,0.1775-1.0138,0.0184
								l-0.4294-0.2433l-3.1433,1.8923C14.8439,113.3253,14.8537,113.866,15.4392,114.1934z"></path><polygon fill="#5B5E71" points="19.236 110.757 19.496 110.902 23.339 108.589 23.079 108.445"></polygon><path fill="#BAC1CE" d="M17.1536,116.6396c0.0649-0.0405,0.1567-0.0356,0.256,0.015l2.6628,1.4793
									c0.1987,0.1078,0.3543,0.3738,0.3583,0.5967c0.002,0.1114-0.0359,0.1908-0.0941,0.2312l0.1361-0.0877
									c0.0584-0.0338,0.0963-0.1132,0.0943-0.2246c-0.0041-0.2229-0.1598-0.4954-0.3519-0.6034l-2.6692-1.4726
									c-0.0994-0.0572-0.1911-0.0555-0.2561-0.0216L17.1536,116.6396z"></path><path fill="#D4DAE8" d="M17.4104,116.657c-0.1988-0.11-0.3566-0.0162-0.3533,0.2051
									c0.0035,0.226,0.1669,0.4929,0.3657,0.6029l2.6642,1.4742c0.1945,0.1076,0.3483,0.0163,0.3448-0.2097
									c-0.0034-0.2212-0.1627-0.4905-0.3572-0.5982L17.4104,116.657z"></path><path fill="#BAC1CE" d="M21.1151,118.9272c0.0649-0.0405,0.1567-0.0356,0.256,0.015l2.6628,1.4793
									c0.1987,0.1078,0.3543,0.3738,0.3583,0.5967c0.002,0.1114-0.0359,0.1908-0.0941,0.2312l0.1361-0.0877
									c0.0584-0.0338,0.0963-0.1132,0.0943-0.2246c-0.0041-0.2229-0.1598-0.4954-0.3519-0.6034l-2.6692-1.4726
									c-0.0994-0.0572-0.1911-0.0555-0.2561-0.0216L21.1151,118.9272z"></path><path fill="#D4DAE8" d="M21.372,118.9447c-0.1988-0.11-0.3566-0.0162-0.3533,0.2051
									c0.0035,0.226,0.1669,0.4929,0.3657,0.6029l2.6642,1.4742c0.1945,0.1076,0.3483,0.0163,0.3448-0.2097
									c-0.0034-0.2212-0.1627-0.4905-0.3572-0.5982L21.372,118.9447z"></path><polygon fill="#CAD0DD" points="39.012 81.899 39.072 84.392 63.615 69.62 63.556 67.127"></polygon><polygon fill="#BAC1CE" points="14.108 68.026 14.168 70.52 39.072 84.392 39.012 81.899"></polygon><polygon fill="#D4DAE8" points="14.108 68.026 39.012 81.899 63.556 67.127 38.652 53.254"></polygon><polygon fill="#37617B" points="19.428 26.718 20.318 67.763 39.032 78.188 38.142 37.143"></polygon><polygon fill="#416E84" points="38.141 37.145 39.034 78.191 57.486 67.091 56.592 26.046"></polygon><polygon fill="#4C7891" points="19.428 26.718 38.142 37.143 56.586 26.042 37.872 15.617"></polygon><polygon fill="#2F576B" points="37.552 75.739 36.733 37.983 20.908 29.168 21.727 66.924"></polygon><polygon fill="#75CA75" points="26.623 34.788 26.629 35.182 21.66 32.432 21.654 32.038"></polygon><polygon fill="#75CA75" points="24.692 38.457 24.698 38.851 21.733 37.211 21.727 36.817"></polygon><polygon fill="#75CA75" points="23.661 41.044 23.668 41.438 21.782 40.394 21.776 40.001"></polygon><polygon fill="#75CA75" points="26.482 41.023 26.488 41.423 21.758 38.806 21.752 38.406"></polygon><polygon fill="#75CA75" points="28.842 40.754 28.849 41.148 25.214 39.137 25.208 38.743"></polygon><polygon fill="#75CA75" points="27.341 38.342 27.348 38.736 21.709 35.616 21.703 35.222"></polygon><polygon fill="#75CA75" points="28.822 37.586 28.828 37.98 24.422 35.542 24.416 35.148"></polygon><polygon fill="#75CA75" points="31.472 37.471 31.478 37.865 27.497 35.662 27.491 35.269"></polygon><polygon fill="#75CA75" points="30.039 35.103 30.045 35.497 25.781 33.138 25.775 32.744"></polygon><polygon fill="#75CA75" points="25.093 32.367 25.099 32.761 21.636 30.844 21.63 30.45"></polygon><polygon fill="#75CA75" points="31.22 40.488 31.226 40.882 27.649 38.903 27.642 38.509"></polygon><polygon fill="#75CA75" points="23.85 47.461 23.856 47.855 21.88 46.761 21.874 46.368"></polygon><polygon fill="#75CA75" points="25.484 46.79 25.49 47.184 21.856 45.173 21.85 44.779"></polygon><polygon fill="#75CA75" points="23.323 53.483 23.329 53.876 21.978 53.129 21.972 52.735"></polygon><polygon fill="#75CA75" points="24.724 52.683 24.73 53.077 21.953 51.54 21.947 51.146"></polygon><polygon fill="#75CA75" points="27.891 52.854 27.897 53.248 21.929 49.945 21.923 49.551"></polygon><polygon fill="#75CA75" points="26.112 50.294 26.118 50.688 21.904 48.356 21.898 47.963"></polygon><polygon fill="#75CA75" points="24.68 58.971 24.686 59.365 22.051 57.907 22.045 57.513"></polygon><polygon fill="#75CA75" points="24.28 61.907 24.286 62.3 22.1 61.091 22.094 60.697"></polygon><polygon fill="#75CA75" points="24.216 60.29 24.222 60.684 22.076 59.496 22.07 59.102"></polygon><polygon fill="#75CA75" points="27.546 58.976 27.552 59.37 23.77 57.277 23.764 56.883"></polygon><polygon fill="#75CA75" points="28.854 56.543 28.86 56.937 23.84 54.159 23.834 53.765"></polygon><polygon fill="#75CA75" points="36.511 57.623 36.517 58.017 35.165 57.27 35.159 56.876"></polygon><polygon fill="#75CA75" points="36.56 60.807 36.566 61.201 34.34 59.969 34.334 59.575"></polygon><polygon fill="#75CA75" points="33.208 68.422 33.215 68.822 30.994 67.594 30.988 67.193"></polygon><polygon fill="#75CA75" points="27.857 68.617 27.863 69.018 22.173 65.869 22.167 65.469"></polygon><polygon fill="#75CA75" points="34.177 72.115 34.183 72.515 29.726 70.048 29.72 69.648"></polygon><polygon fill="#75CA75" points="32.302 69.502 32.308 69.896 27.725 67.36 27.719 66.966"></polygon><polygon fill="#75CA75" points="27.327 66.749 27.333 67.143 22.149 64.274 22.143 63.88"></polygon><polygon fill="#75CA75" points="26.167 64.526 26.173 64.926 22.125 62.686 22.118 62.285"></polygon><polygon fill="#75CA75" points="28.596 64.295 28.602 64.689 24.587 62.467 24.581 62.073"></polygon><polygon fill="#75CA75" points="30.562 66.958 30.568 67.358 26.48 65.096 26.474 64.695"></polygon><polygon fill="#75CA75" points="29.989 61.909 29.995 62.303 25.521 59.827 25.515 59.433"></polygon><polygon fill="#75CA75" points="34.32 62.724 34.326 63.118 28.75 60.032 28.744 59.639"></polygon><polygon fill="#75CA75" points="33.84 59.302 33.846 59.696 29.502 57.292 29.496 56.898"></polygon><polygon fill="#75CA75" points="33.712 67.126 33.718 67.52 28.931 64.871 28.925 64.477"></polygon><polygon fill="#75CA75" points="32.274 64.748 32.28 65.142 28.895 63.27 28.889 62.876"></polygon><polygon fill="#75CA75" points="36.706 70.358 36.712 70.758 33.476 68.967 33.47 68.567"></polygon><polygon fill="#75CA75" points="36.682 68.769 36.688 69.163 34.042 67.699 34.036 67.305"></polygon><polygon fill="#75CA75" points="36.657 67.174 36.663 67.568 32.762 65.409 32.756 65.015"></polygon><polygon fill="#75CA75" points="34.929 64.643 34.936 65.037 30.62 62.649 30.614 62.255"></polygon><polygon fill="#75CA75" points="36.584 62.402 36.59 62.796 31.434 59.943 31.428 59.549"></polygon><polygon fill="#75CA75" points="36.535 59.218 36.541 59.612 31.135 56.621 31.129 56.227"></polygon><polygon fill="#75CA75" points="30.707 59.15 30.713 59.544 26.062 56.97 26.056 56.576"></polygon><polygon fill="#75CA75" points="30.414 55.831 30.42 56.225 25.463 53.482 25.457 53.088"></polygon><polygon fill="#75CA75" points="32.114 53.615 32.12 54.009 26.998 51.175 26.992 50.781"></polygon><polygon fill="#75CA75" points="34.614 56.574 34.62 56.968 28.8 53.747 28.794 53.353"></polygon><polygon fill="#75CA75" points="36.486 56.035 36.492 56.429 32.87 54.424 32.864 54.03"></polygon><polygon fill="#75CA75" points="36.462 54.44 36.468 54.834 34.282 53.624 34.276 53.23"></polygon><polygon fill="#75CA75" points="29.358 50.509 29.364 50.903 24.549 48.238 24.543 47.844"></polygon><polygon fill="#75CA75" points="31.219 49.964 31.225 50.358 26.217 47.586 26.211 47.192"></polygon><polygon fill="#75CA75" points="29.718 47.552 29.724 47.946 24.21 44.895 24.204 44.501"></polygon><polygon fill="#75CA75" points="34.78 47.196 34.786 47.59 29.533 44.684 29.527 44.29"></polygon><polygon fill="#75CA75" points="31.988 47.233 31.994 47.627 26.412 44.538 26.406 44.144"></polygon><polygon fill="#75CA75" points="25.35 43.559 25.356 43.953 21.807 41.989 21.801 41.596"></polygon><polygon fill="#75CA75" points="28.534 43.74 28.54 44.134 24.587 41.947 24.581 41.553"></polygon><polygon fill="#75CA75" points="32.166 44.168 32.172 44.569 27.499 41.983 27.493 41.582"></polygon><polygon fill="#75CA75" points="33.522 43.343 33.528 43.737 29.274 41.384 29.268 40.99"></polygon><polygon fill="#75CA75" points="36.34 46.478 36.346 46.878 32.729 44.877 32.722 44.476"></polygon><polygon fill="#75CA75" points="36.315 44.889 36.321 45.283 34.163 44.089 34.157 43.695"></polygon><polygon fill="#75CA75" points="36.291 43.294 36.297 43.688 31.839 41.221 31.833 40.828"></polygon><polygon fill="#75CA75" points="36.266 41.706 36.273 42.099 29.754 38.492 29.747 38.098"></polygon><polygon fill="#75CA75" points="34.555 39.177 34.562 39.571 31.932 38.117 31.926 37.723"></polygon><polygon fill="#75CA75" points="36.218 38.522 36.224 38.916 30.585 35.796 30.579 35.402"></polygon><polygon fill="#75CA75" points="36.242 40.111 36.248 40.505 35.26 39.958 35.254 39.564"></polygon><polygon fill="#75CA75" points="23.723 34.765 23.729 35.158 21.684 34.027 21.678 33.633"></polygon><polygon fill="#75CA75" points="33.869 49.849 33.875 50.242 30.127 48.169 30.121 47.775"></polygon><polygon fill="#75CA75" points="36.389 49.668 36.395 50.062 32.88 48.117 32.874 47.723"></polygon><polygon fill="#75CA75" points="36.364 48.073 36.37 48.467 35.223 47.832 35.217 47.438"></polygon><polygon fill="#75CA75" points="23.699 44.221 23.705 44.615 21.831 43.578 21.825 43.184"></polygon><polygon fill="#75CA75" points="36.413 51.256 36.419 51.65 34.216 50.431 34.21 50.037"></polygon><polygon fill="#75CA75" points="33.725 52.925 33.731 53.319 29.796 51.142 29.79 50.748"></polygon><polygon fill="#75CA75" points="36.438 52.851 36.444 53.245 31.918 50.741 31.912 50.347"></polygon><polygon fill="#75CA75" points="23.304 56.628 23.31 57.022 22.027 56.312 22.021 55.918"></polygon><polygon fill="#75CA75" points="25.153 56.077 25.16 56.471 22.002 54.724 21.996 54.33"></polygon><polygon fill="#75CA75" points="36.609 63.99 36.615 64.384 34.781 63.37 34.774 62.976"></polygon><polygon fill="#75CA75" points="36.633 65.585 36.639 65.979 35.549 65.376 35.543 64.982"></polygon><polygon fill="#75CA75" points="28.27 62.533 28.276 62.927 24.432 60.8 24.426 60.406"></polygon><polygon fill="#75CA75" points="36.731 71.953 36.737 72.347 32.648 70.084 32.642 69.69"></polygon><polygon fill="#75CA75" points="36.755 73.541 36.761 73.942 34.973 72.952 34.967 72.551"></polygon><path fill="#748BFD" d="M40.4585 54.2056c.0079.4327.3138.6003.6993.3768l13.2722-7.9889c.3638-.223.6785-.7697.6707-1.2024-.0083-.4542-.3356-.5998-.6994-.3768l-13.2937 7.9893C40.7436 53.2265 40.4286 53.7516 40.4585 54.2056zM40.7969 72.8107c.0079.4327.3138.6003.6993.3769l13.2722-7.9889c.3638-.2231.6785-.7699.6707-1.2024-.0083-.4544-.3356-.5999-.6994-.3768l-13.2937 7.9892C41.082 71.8318 40.767 72.3569 40.7969 72.8107z"></path><path fill="#FED57A" d="M54.1761,32.6397c0.3638-0.2231,0.6785-0.7699,0.6703-1.2241
						c-0.0079-0.4327-0.3352-0.5783-0.699-0.3553l-13.2937,7.9893c-0.3639,0.223-0.6789,0.7482-0.649,1.202
						c0.0079,0.4327,0.3138,0.6003,0.6993,0.3768L54.1761,32.6397z"></path><path fill="#D4DAE8" d="M40.2893,44.903c0.0079,0.4327,0.3138,0.6002,0.6993,0.3768l13.2722-7.9889
						c0.3638-0.223,0.6785-0.7697,0.6703-1.2241c-0.0079-0.4327-0.3352-0.5781-0.699-0.3551L40.9383,43.701
						C40.5744,43.924,40.2594,44.4491,40.2893,44.903z"></path><path fill="#75CA75" d="M40.5431,58.8569c0.0079,0.4326,0.3138,0.6002,0.6992,0.3768l13.2722-7.9889
						c0.3638-0.223,0.6785-0.7697,0.6707-1.2024c-0.0083-0.4544-0.3356-0.5999-0.6994-0.3768l-13.2937,7.9892
						C40.8282,57.8779,40.5132,58.403,40.5431,58.8569z"></path><path fill="#F9607F" d="M40.3739,49.5543c0.0079,0.4327,0.3138,0.6003,0.6993,0.3769l13.2722-7.9889
						c0.3638-0.2231,0.6785-0.7699,0.6707-1.2024c-0.0083-0.4544-0.3356-0.5999-0.6994-0.3768l-13.2937,7.9892
						C40.659,48.5753,40.344,49.1004,40.3739,49.5543z"></path><path fill="#F9BB4A" d="M40.7123,68.1595c0.0079,0.4327,0.3138,0.6002,0.6992,0.3768l13.2722-7.9889
						c0.3638-0.223,0.6785-0.7697,0.6707-1.2024c-0.0083-0.4544-0.3356-0.5998-0.6994-0.3768l-13.2937,7.9893
						C40.9974,67.1804,40.6824,67.7055,40.7123,68.1595z"></path><path fill="#CAD0DD" d="M40.6277,63.5081c0.0079,0.4327,0.3138,0.6003,0.6993,0.3768l13.2722-7.9888
						c0.3638-0.2231,0.6785-0.7699,0.6707-1.2026c-0.0083-0.4542-0.3356-0.5998-0.6994-0.3768l-13.2937,7.9893
						C40.9128,62.5291,40.5978,63.0543,40.6277,63.5081z"></path><polygon fill="#474B59" points="44.834 37.239 44.843 37.662 54.082 32.102 54.073 31.679"></polygon><polygon fill="#474B59" points="43.393 38.106 43.402 38.53 43.86 38.254 43.851 37.831"></polygon><polygon fill="#474B59" points="42.173 38.841 42.182 39.264 42.648 38.984 42.639 38.56"></polygon><polygon fill="#474B59" points="40.961 39.571 40.97 39.994 41.427 39.718 41.418 39.295"></polygon><polygon fill="#474B59" points="44.919 41.891 44.928 42.314 54.167 36.754 54.158 36.33"></polygon><polygon fill="#474B59" points="43.478 42.758 43.487 43.181 43.944 42.906 43.936 42.483"></polygon><polygon fill="#474B59" points="42.257 43.492 42.266 43.916 42.733 43.635 42.724 43.212"></polygon><polygon fill="#474B59" points="41.045 44.222 41.054 44.645 41.512 44.37 41.503 43.947"></polygon><polygon fill="#FFF" points="45.004 46.542 45.012 46.965 54.251 41.405 54.242 40.982"></polygon><polygon fill="#FFF" points="43.563 47.41 43.571 47.833 44.029 47.557 44.02 47.134"></polygon><polygon fill="#FFF" points="42.342 48.144 42.351 48.567 42.817 48.287 42.808 47.864"></polygon><polygon fill="#FFF" points="41.13 48.874 41.139 49.297 41.596 49.021 41.588 48.598"></polygon><polygon fill="#FFF" points="45.088 51.194 45.097 51.617 54.336 46.057 54.327 45.633"></polygon><polygon fill="#FFF" points="43.647 52.061 43.656 52.484 44.114 52.209 44.105 51.786"></polygon><polygon fill="#FFF" points="42.427 52.796 42.435 53.219 42.902 52.938 42.893 52.515"></polygon><polygon fill="#FFF" points="41.215 53.525 41.223 53.948 41.681 53.673 41.672 53.25"></polygon><polygon fill="#FFF" points="45.173 55.845 45.182 56.269 54.42 50.708 54.411 50.285"></polygon><polygon fill="#FFF" points="43.732 56.713 43.741 57.136 44.198 56.86 44.189 56.437"></polygon><polygon fill="#FFF" points="42.511 57.447 42.52 57.87 42.986 57.59 42.977 57.167"></polygon><polygon fill="#FFF" points="41.299 58.177 41.308 58.6 41.766 58.324 41.757 57.901"></polygon><polygon fill="#FFF" points="45.257 60.497 45.266 60.92 54.505 55.36 54.496 54.936"></polygon><polygon fill="#FFF" points="43.816 61.364 43.825 61.787 44.283 61.512 44.274 61.089"></polygon><polygon fill="#FFF" points="42.596 62.099 42.605 62.522 43.071 62.241 43.062 61.818"></polygon><polygon fill="#FFF" points="41.384 62.828 41.393 63.252 41.85 62.976 41.842 62.553"></polygon><polygon fill="#FFF" points="45.342 65.148 45.351 65.572 54.59 60.011 54.581 59.588"></polygon><polygon fill="#FFF" points="43.901 66.016 43.91 66.439 44.368 66.163 44.359 65.74"></polygon><polygon fill="#FFF" points="42.68 66.75 42.689 67.174 43.156 66.893 43.147 66.47"></polygon><polygon fill="#FFF" points="41.468 67.48 41.477 67.903 41.935 67.627 41.926 67.204"></polygon><polygon fill="#FFF" points="45.426 69.8 45.435 70.223 54.674 64.663 54.665 64.24"></polygon><polygon fill="#FFF" points="43.986 70.667 43.995 71.091 44.452 70.815 44.443 70.392"></polygon><polygon fill="#FFF" points="42.765 71.402 42.774 71.825 43.24 71.544 43.231 71.121"></polygon><polygon fill="#FFF" points="41.553 72.131 41.562 72.555 42.02 72.279 42.011 71.856"></polygon><g><polygon fill="#CAD0DD" points="111.998 73.529 112.036 75.117 127.667 65.71 127.629 64.122"></polygon><polygon fill="#BAC1CE" points="96.139 64.695 96.177 66.282 112.036 75.117 111.998 73.529"></polygon><polygon fill="#D4DAE8" points="96.139 64.695 111.998 73.529 127.629 64.122 111.769 55.287"></polygon></g><g><polygon fill="#CAD0DD" points="37.451 32.684 37.481 33.931 49.756 26.544 49.726 25.297"></polygon><polygon fill="#BAC1CE" points="24.997 25.747 25.026 26.994 37.481 33.931 37.451 32.684"></polygon><polygon fill="#D4DAE8" points="24.997 25.747 37.451 32.684 49.726 25.297 37.271 18.359"></polygon></g><g><polygon fill="#474B59" points="99.748 41.071 100.26 65.385 110.993 71.364 110.482 47.051"></polygon><polygon fill="#5B5E71" points="101.9 64.381 101.9 64.381 110.181 68.995 110.2 70.05 101.015 64.933 101.015 64.933"></polygon><polygon fill="#525566" points="100.544 42.391 101.448 42.895 101.9 64.381 101.015 64.933"></polygon><polygon fill="#3F434F" points="101.448 42.895 109.729 47.508 110.181 68.995 101.9 64.381"></polygon><polygon fill="#525566" points="110.482 47.051 110.993 71.364 121.572 64.998 121.06 40.684"></polygon><polygon fill="#5B5E71" points="99.748 41.071 110.482 47.051 121.06 40.684 110.327 34.705"></polygon><polygon fill="#748BFD" points="113.962 46.643 113.974 47.189 120.475 43.276 120.464 42.73"></polygon><polygon fill="#F9BB4A" points="112.942 47.359 112.95 47.703 113.229 47.535 113.222 47.191"></polygon><path fill="#D4DAE8" d="M113.4756,47.4889l-2.258,1.359l-0.0115-0.5457l2.258-1.359L113.4756,47.4889z M112.2047,48.1516
												l0.2796-0.1683l-0.0072-0.3438l-0.2796,0.1683L112.2047,48.1516 M112.9495,47.7033l0.2796-0.1683l-0.0072-0.3438
												l-0.2796,0.1683L112.9495,47.7033 M111.4598,48.5999l0.2796-0.1683l-0.0072-0.3438l-0.2796,0.1683L111.4598,48.5999"></path><polygon fill="#F9BB4A" points="112.197 47.808 112.205 48.152 112.484 47.983 112.477 47.639"></polygon><polygon fill="#F9BB4A" points="111.453 48.256 111.46 48.6 111.739 48.432 111.732 48.088"></polygon><polygon fill="#748BFD" points="113.996 48.504 114.007 49.05 120.509 45.137 120.498 44.591"></polygon><polygon fill="#F9BB4A" points="112.976 49.22 112.983 49.564 113.263 49.396 113.256 49.052"></polygon><path fill="#D4DAE8" d="M113.5094,49.3498l-2.258,1.359l-0.0115-0.5457l2.258-1.359L113.5094,49.3498z M112.2385,50.0125
												l0.2796-0.1683l-0.0072-0.3438l-0.2796,0.1683L112.2385,50.0125 M112.9833,49.5642l0.2796-0.1683l-0.0072-0.3438
												l-0.2796,0.1683L112.9833,49.5642 M111.4937,50.4608l0.2796-0.1683l-0.0072-0.3438l-0.2796,0.1683L111.4937,50.4608"></path><polygon fill="#F9BB4A" points="112.231 49.669 112.239 50.013 112.518 49.844 112.511 49.5"></polygon><polygon fill="#F9BB4A" points="111.487 50.117 111.494 50.461 111.773 50.292 111.766 49.949"></polygon><polygon fill="#748BFD" points="114.03 50.365 114.041 50.911 120.543 46.998 120.531 46.452"></polygon><polygon fill="#F9BB4A" points="113.01 51.081 113.017 51.425 113.297 51.257 113.29 50.913"></polygon><path fill="#D4DAE8" d="M113.5433,51.2107l-2.258,1.359l-0.0115-0.5457l2.258-1.359L113.5433,51.2107z M112.2724,51.8734
												l0.2796-0.1683l-0.0072-0.3438l-0.2796,0.1683L112.2724,51.8734 M113.0172,51.4251l0.2796-0.1683l-0.0072-0.3438
												l-0.2796,0.1683L113.0172,51.4251 M111.5275,52.3216l0.2796-0.1683l-0.0072-0.3438l-0.2796,0.1683L111.5275,52.3216"></path><polygon fill="#F9BB4A" points="112.265 51.53 112.272 51.873 112.552 51.705 112.545 51.361"></polygon><polygon fill="#F9BB4A" points="111.52 51.978 111.528 52.322 111.807 52.153 111.8 51.81"></polygon><polygon fill="#748BFD" points="114.064 52.226 114.075 52.772 120.577 48.859 120.565 48.313"></polygon><polygon fill="#F9BB4A" points="113.044 52.942 113.051 53.286 113.331 53.118 113.323 52.774"></polygon><path fill="#D4DAE8" d="M113.5771,53.0716l-2.258,1.359l-0.0115-0.5457l2.258-1.359L113.5771,53.0716z M112.3062,53.7343
												l0.2796-0.1683l-0.0072-0.3438l-0.2796,0.1683L112.3062,53.7343 M113.051,53.286l0.2796-0.1683l-0.0072-0.3438
												l-0.2796,0.1683L113.051,53.286 M111.5614,54.1825l0.2796-0.1683l-0.0072-0.3438l-0.2796,0.1683L111.5614,54.1825"></path><polygon fill="#F9BB4A" points="112.299 53.391 112.306 53.734 112.586 53.566 112.579 53.222"></polygon><polygon fill="#F9BB4A" points="111.554 53.839 111.561 54.182 111.841 54.014 111.834 53.67"></polygon><polygon fill="#748BFD" points="114.098 54.087 114.109 54.633 120.611 50.72 120.599 50.174"></polygon><polygon fill="#F9BB4A" points="113.078 54.803 113.085 55.147 113.365 54.979 113.357 54.635"></polygon><path fill="#D4DAE8" d="M113.611,54.9325l-2.258,1.359l-0.0115-0.5457l2.258-1.359L113.611,54.9325z M112.34,55.5952
												l0.2796-0.1683l-0.0072-0.3438l-0.2796,0.1683L112.34,55.5952 M113.0849,55.1469l0.2796-0.1683l-0.0072-0.3438
												l-0.2796,0.1683L113.0849,55.1469 M111.5952,56.0434l0.2796-0.1683l-0.0072-0.3438l-0.2796,0.1683L111.5952,56.0434"></path><polygon fill="#F9BB4A" points="112.333 55.251 112.34 55.595 112.62 55.427 112.612 55.083"></polygon><polygon fill="#F9BB4A" points="111.588 55.7 111.595 56.043 111.875 55.875 111.868 55.531"></polygon><g><polygon fill="#748BFD" points="114.132 55.948 114.143 56.494 120.644 52.581 120.633 52.035"></polygon><polygon fill="#F9BB4A" points="113.112 56.664 113.119 57.008 113.398 56.84 113.391 56.496"></polygon><path fill="#D4DAE8" d="M113.6448,56.7934l-2.258,1.359l-0.0115-0.5457l2.258-1.359L113.6448,56.7934z M112.3739,57.456
												l0.2796-0.1683l-0.0072-0.3438l-0.2796,0.1683L112.3739,57.456 M113.1187,57.0078l0.2796-0.1683l-0.0072-0.3438
												l-0.2796,0.1683L113.1187,57.0078 M111.6291,57.9043l0.2796-0.1683l-0.0072-0.3438l-0.2796,0.1683L111.6291,57.9043"></path><polygon fill="#F9BB4A" points="112.367 57.112 112.374 57.456 112.653 57.288 112.646 56.944"></polygon><polygon fill="#F9BB4A" points="111.622 57.561 111.629 57.904 111.909 57.736 111.901 57.392"></polygon></g><g><polygon fill="#748BFD" points="114.165 57.809 114.177 58.355 120.678 54.441 120.667 53.896"></polygon><polygon fill="#F9BB4A" points="113.145 58.525 113.153 58.869 113.432 58.7 113.425 58.357"></polygon><path fill="#D4DAE8" d="M113.6787,58.6543l-2.258,1.359l-0.0115-0.5457l2.258-1.359L113.6787,58.6543z M112.4077,59.3169
												l0.2796-0.1683l-0.0072-0.3438l-0.2796,0.1683L112.4077,59.3169 M113.1526,58.8686l0.2796-0.1683l-0.0072-0.3438
												l-0.2796,0.1683L113.1526,58.8686 M111.6629,59.7652l0.2796-0.1683l-0.0072-0.3438l-0.2796,0.1683L111.6629,59.7652"></path><polygon fill="#F9BB4A" points="112.4 58.973 112.408 59.317 112.687 59.149 112.68 58.805"></polygon><polygon fill="#F9BB4A" points="111.656 59.421 111.663 59.765 111.942 59.597 111.935 59.253"></polygon></g><g><polygon fill="#748BFD" points="114.199 59.67 114.211 60.215 120.712 56.302 120.701 55.757"></polygon><polygon fill="#F9BB4A" points="113.179 60.386 113.186 60.73 113.466 60.561 113.459 60.218"></polygon><path fill="#D4DAE8" d="M113.7125,60.5151l-2.258,1.359l-0.0115-0.5457l2.258-1.359L113.7125,60.5151z M112.4416,61.1778
												l0.2796-0.1683l-0.0072-0.3438l-0.2796,0.1683L112.4416,61.1778 M113.1864,60.7295l0.2796-0.1683l-0.0072-0.3438
												l-0.2796,0.1683L113.1864,60.7295 M111.6968,61.6261l0.2796-0.1683l-0.0072-0.3438l-0.2796,0.1683L111.6968,61.6261"></path><polygon fill="#F9BB4A" points="112.434 60.834 112.442 61.178 112.721 61.01 112.714 60.666"></polygon><polygon fill="#F9BB4A" points="111.689 61.282 111.697 61.626 111.976 61.458 111.969 61.114"></polygon></g><g><polygon fill="#748BFD" points="114.233 61.531 114.245 62.076 120.746 58.163 120.734 57.618"></polygon><polygon fill="#F9BB4A" points="113.213 62.247 113.22 62.59 113.5 62.422 113.493 62.078"></polygon><path fill="#D4DAE8" d="M113.7464,62.376l-2.258,1.359l-0.0115-0.5457l2.258-1.359L113.7464,62.376z M112.4754,63.0387
												l0.2796-0.1683l-0.0072-0.3438l-0.2796,0.1683L112.4754,63.0387 M113.2203,62.5904l0.2796-0.1683l-0.0072-0.3438
												l-0.2796,0.1683L113.2203,62.5904 M111.7306,63.487l0.2796-0.1683l-0.0072-0.3438l-0.2796,0.1683L111.7306,63.487"></path><polygon fill="#F9BB4A" points="112.468 62.695 112.475 63.039 112.755 62.87 112.748 62.527"></polygon><polygon fill="#F9BB4A" points="111.723 63.143 111.731 63.487 112.01 63.319 112.003 62.975"></polygon></g><g><polygon fill="#748BFD" points="114.267 63.392 114.278 63.937 120.78 60.024 120.768 59.478"></polygon><polygon fill="#F9BB4A" points="113.247 64.108 113.254 64.451 113.534 64.283 113.526 63.939"></polygon><path fill="#D4DAE8" d="M113.7802,64.2369l-2.258,1.359l-0.0115-0.5457l2.258-1.359L113.7802,64.2369z M112.5093,64.8996
												l0.2796-0.1683l-0.0072-0.3438l-0.2796,0.1683L112.5093,64.8996 M113.2541,64.4513l0.2796-0.1683l-0.0072-0.3438
												l-0.2796,0.1683L113.2541,64.4513 M111.7645,65.3479l0.2796-0.1683l-0.0072-0.3438l-0.2796,0.1683L111.7645,65.3479"></path><polygon fill="#F9BB4A" points="112.502 64.556 112.509 64.9 112.789 64.731 112.782 64.388"></polygon><polygon fill="#F9BB4A" points="111.757 65.004 111.764 65.348 112.044 65.18 112.037 64.836"></polygon></g><g><polygon fill="#748BFD" points="114.301 65.252 114.312 65.798 120.814 61.885 120.802 61.339"></polygon><polygon fill="#F9BB4A" points="113.281 65.968 113.288 66.312 113.568 66.144 113.56 65.8"></polygon><path fill="#D4DAE8" d="M113.8141,66.0978l-2.258,1.359l-0.0115-0.5457l2.258-1.359L113.8141,66.0978z M112.5431,66.7605
												l0.2796-0.1683l-0.0072-0.3438l-0.2796,0.1683L112.5431,66.7605 M113.288,66.3122l0.2796-0.1683l-0.0072-0.3438
												l-0.2796,0.1683L113.288,66.3122 M111.7983,67.2088l0.2796-0.1683l-0.0072-0.3438l-0.2796,0.1683L111.7983,67.2088"></path><polygon fill="#F9BB4A" points="112.536 66.417 112.543 66.76 112.823 66.592 112.816 66.248"></polygon><polygon fill="#F9BB4A" points="111.791 66.865 111.798 67.209 112.078 67.04 112.071 66.697"></polygon></g><g><polygon fill="#748BFD" points="114.335 67.113 114.346 67.659 120.847 63.746 120.836 63.2"></polygon><polygon fill="#F9BB4A" points="113.315 67.829 113.322 68.173 113.601 68.005 113.594 67.661"></polygon><path fill="#D4DAE8" d="M113.8479,67.9587l-2.258,1.359l-0.0115-0.5457l2.258-1.359L113.8479,67.9587z M112.577,68.6214
												l0.2796-0.1683l-0.0072-0.3438l-0.2796,0.1683L112.577,68.6214 M113.3218,68.1731l0.2796-0.1683l-0.0072-0.3438
												l-0.2796,0.1683L113.3218,68.1731 M111.8322,69.0697l0.2796-0.1683l-0.0072-0.3438l-0.2796,0.1683L111.8322,69.0697"></path><polygon fill="#F9BB4A" points="112.57 68.278 112.577 68.621 112.857 68.453 112.849 68.109"></polygon><polygon fill="#F9BB4A" points="111.825 68.726 111.832 69.07 112.112 68.901 112.105 68.558"></polygon></g><g><polygon fill="#9AD898" points="102.272 63.832 102.278 64.153 103.753 64.975 109.786 68.314 109.78 67.985"></polygon><polygon fill="#9AD898" points="102.242 62.609 102.255 62.922 109.764 67.075 109.75 66.762"></polygon><polygon fill="#9AD898" points="102.22 61.378 102.226 61.699 109.734 65.852 109.728 65.531"></polygon><polygon fill="#9AD898" points="102.19 60.148 102.203 60.461 109.711 64.614 109.698 64.301"></polygon><polygon fill="#9AD898" points="102.167 58.909 102.173 59.23 109.681 63.391 109.675 63.07"></polygon><polygon fill="#9AD898" points="102.137 57.679 102.151 58 109.659 62.153 109.645 61.832"></polygon><polygon fill="#9AD898" points="102.115 56.448 102.121 56.769 109.629 60.922 109.623 60.609"></polygon><polygon fill="#9AD898" points="102.092 55.217 102.098 55.531 109.606 59.691 109.6 59.37"></polygon><polygon fill="#9AD898" points="102.062 53.987 102.068 54.3 109.576 58.453 109.57 58.14"></polygon><polygon fill="#9AD898" points="102.04 52.748 102.046 53.077 109.554 57.23 109.548 56.909"></polygon><polygon fill="#9AD898" points="102.01 51.525 102.016 51.846 109.524 56 109.518 55.679"></polygon><polygon fill="#9AD898" points="101.988 50.295 101.993 50.616 109.501 54.769 109.496 54.448"></polygon><polygon fill="#9AD898" points="101.957 49.064 101.963 49.377 109.471 53.531 109.466 53.217"></polygon><polygon fill="#9AD898" points="101.935 47.833 101.941 48.154 109.449 52.308 109.443 51.987"></polygon><polygon fill="#9AD898" points="101.905 46.603 101.911 46.916 109.419 51.069 109.413 50.756"></polygon><polygon fill="#9AD898" points="101.883 45.364 101.889 45.693 109.397 49.846 109.391 49.525"></polygon><polygon fill="#9AD898" points="101.853 44.142 101.858 44.455 109.367 48.608 109.361 48.295"></polygon></g></g><g><path fill="#BAC1CE" d="M82.1831,52.1521c-0.2283-0.1349-0.5409-0.1118-0.8672,0.1027L50.9691,70.5189
								c-0.6881,0.3949-1.2094,1.3604-1.1952,2.1423L50.2518,95.11l-1.4397-0.7908l-0.4608-22.4664
								c-0.0142-0.782,0.5074-1.73,1.1778-2.142L79.876,51.4466c0.344-0.1975,0.6565-0.2205,0.8672-0.1028L82.1831,52.1521z"></path><path fill="#5B5E71" d="M81.3131,52.2474c0.6704-0.4035,1.227-0.0996,1.2434,0.6789l0.4722,22.4578L50.2489,95.1128
								L49.7767,72.655c-0.0164-0.7785,0.5137-1.7364,1.1841-2.1399L81.3131,52.2474z"></path><path fill="#FED57A" d="M51.2856,72.6235c-0.0054-0.2406,0.2449-0.6901,0.4534-0.8154l29.334-17.655l0.4288,20.3888
								l-29.799,17.9346L51.2856,72.6235z"></path><path fill="#BAC1CE" d="M50.2508,95.1132l0.0473,2.0467l19.6087,10.147c0.6811,0.38,1.7724,0.3602,2.4442-0.0445
								l30.351-18.2657c0.3384-0.2024,0.5047-0.467,0.5-0.7235l-0.0329-1.2564c0.0047,0.2565-0.1617,0.5161-0.5001,0.7184
								L72.323,106.001c-0.6719,0.3996-1.7683,0.4195-2.4442,0.0445L50.2508,95.1132z"></path><path fill="#D4DAE8" d="M102.663,87.7254l-30.3466,18.2816c-0.6706,0.3945-1.7654,0.4145-2.4326,0.0442L50.2518,95.11
								l32.7883-19.7339l19.6147,10.9415C103.3394,86.6875,103.3511,87.3304,102.663,87.7254z"></path><polygon fill="#BAC1CE" points="57.199 99.541 57.214 100.567 58.117 101.067 58.101 100.04"></polygon><polygon fill="#5B5E71" points="54.618 98 54.634 99.026 56.238 99.914 56.222 98.888"></polygon><polygon fill="#5B5E71" points="53.082 97.15 53.098 98.176 54 98.675 53.984 97.649"></polygon><polygon fill="#5B5E71" points="51.475 96.261 51.491 97.287 52.393 97.787 52.378 96.76"></polygon><path fill="#A7ADB7" d="M86.8517,95.2353l-5.7148,3.4799c-0.2998,0.1785-0.6892,0.1856-0.9952,0.0181l-3.7384-2.0744
								c-0.328-0.1889-0.3366-0.6647-0.0157-0.8654l5.7154-3.4583c0.3213-0.179,0.6892-0.1857,1.0167-0.0185l3.7164,2.0532
								C87.1856,94.5584,87.1943,95.0343,86.8517,95.2353z"></path><path fill="#5B5E71" d="M58.613 95.359c-.0603.0363-.0596.0959.0064.1326l1.2757.7106c.0706.0393.1734.0375.2337.0012l1.2526-.7539c.0603-.0363.0642-.0986-.0064-.138l-1.2757-.7106c-.0659-.0367-.1734-.0321-.2337.0042L58.613 95.359zM62.5565 92.9856c-.0603.0363-.0596.0959.0064.1326l1.2757.7106c.0706.0393.1734.0375.2337.0012l1.2526-.7539c.065-.0391.0642-.0987-.0064-.138l-1.2757-.7106c-.0659-.0367-.1687-.0349-.2337.0042L62.5565 92.9856zM65.563 88.9503c-.0603.0363-.0596.0959.0111.1352l1.2757.7107c.0659.0367.1734.0374.2337.0011l1.2526-.7539c.0649-.0391.0595-.1013-.0064-.138l-1.2757-.7107c-.0706-.0393-.1734-.0375-.2384.0016L65.563 88.9503zM60.2067 90.4991c-.0603.0363-.0596.0959.0111.1352l.7532.4196c.0659.0367.1687.0348.229-.0015l1.1413-.6869c.0603-.0363.0596-.0959-.0063-.1326l-.7532-.4196c-.0706-.0393-.1734-.0375-.2337-.0012L60.2067 90.4991zM63.8533 88.3044c-.0603.0363-.0596.0959.0111.1352l.7532.4196c.0659.0367.1687.0348.229-.0015l1.1413-.6869c.0603-.0363.0596-.0958-.0063-.1326l-.7532-.4196c-.0706-.0393-.1734-.0375-.2337-.0012L63.8533 88.3044zM62.03 89.4017c-.0603.0363-.0596.0959.011.1352l.7532.4196c.0659.0367.1687.0348.229-.0015l1.1413-.6869c.0603-.0363.0596-.0959-.0063-.1326l-.7532-.4196c-.0706-.0393-.1734-.0375-.2337-.0012L62.03 89.4017zM63.6051 90.1286c-.0649.0391-.0642.0986.0064.138l1.2757.7107c.0659.0367.1734.0375.2383-.0016l1.2527-.7539c.0603-.0363.0549-.0985-.011-.1352l-1.2757-.7107c-.0706-.0393-.1734-.0375-.2337-.0012L63.6051 90.1286zM61.6426 91.3097c-.0603.0363-.0596.0959.011.1352l1.2757.7107c.0659.0367.1734.0375.2337.0012l1.2526-.7539c.0603-.0363.0595-.1013-.0064-.138l-1.2757-.7107c-.0706-.0393-.1781-.0347-.2384.0016L61.6426 91.3097zM58.3881 91.5937c-.0649.0391-.0642.0986.0064.138l.7532.4196c.0659.0367.1687.0348.2336-.0042l1.1367-.6841c.065-.0391.0642-.0987-.0017-.1354l-.7532-.4196c-.0706-.0393-.1734-.0375-.2384.0016L58.3881 91.5937zM59.6801 92.4909c-.0603.0363-.0596.0959.0111.1352l1.2757.7107c.0659.0367.1734.0374.2337.0011l1.2527-.7539c.0649-.0391.0595-.1013-.0064-.138l-1.2757-.7107c-.0706-.0393-.1734-.0375-.2384.0016L59.6801 92.4909zM56.5648 92.6911c-.0649.0391-.0642.0986.0064.138l.7532.4196c.0659.0367.1687.0348.2336-.0042l1.1367-.6841c.0649-.0391.0642-.0986-.0017-.1353l-.7532-.4196c-.0706-.0393-.1734-.0375-.2384.0016L56.5648 92.6911zM57.7223 93.6692c-.0603.0363-.0642.0986.0064.138l1.2757.7107c.0659.0367.178.0347.2383-.0016l1.2526-.7539c.0603-.0363.0549-.0985-.011-.1352l-1.2757-.7107c-.0706-.0393-.1734-.0375-.2337-.0012L57.7223 93.6692zM55.7598 94.8504c-.0603.0363-.0596.0959.0111.1352l1.2757.7107c.0659.0367.1734.0374.2337.0011l1.2526-.7539c.065-.0391.0595-.1013-.0064-.138l-1.2757-.7107c-.0706-.0393-.1734-.0375-.2384.0016L55.7598 94.8504zM54.7415 93.7884c-.0603.0363-.0596.0959.011.1352l.7532.4196c.0659.0367.1687.0348.229-.0015l1.1413-.6869c.0603-.0363.0596-.0959-.0063-.1326l-.7532-.4196c-.0706-.0393-.1734-.0375-.2337-.0012L54.7415 93.7884zM52.663 95.0394c-.065.0391-.0642.0987.0064.138l.7532.4196c.0659.0367.1687.0348.2337-.0043l1.3965-.8405c.0603-.0363.0596-.0959-.0063-.1326l-.7532-.4196c-.0706-.0393-.1734-.0375-.2337-.0012L52.663 95.0394zM54.1082 95.8444c-.065.0391-.0642.0987.0064.138l1.2757.7107c.0659.0367.1734.0375.2384-.0017l.8815-.5305c.0603-.0363.0549-.0985-.011-.1352l-1.2757-.7107c-.0706-.0393-.1734-.0375-.2337-.0012L54.1082 95.8444zM56.0288 96.9143c-.065.0391-.0642.0987.0017.1354l1.2757.7106c.0706.0393.1734.0375.2384-.0016l1.9115-1.1504c.0603-.0363.0596-.0959-.011-.1352l-1.2757-.7106c-.0659-.0367-.1687-.0349-.2291.0014L56.0288 96.9143zM62.0073 100.2447c-.065.0391-.0642.0987.0017.1354l1.577.8785c.0706.0393.1734.0375.2384-.0016l1.2526-.7539c.0603-.0363.0596-.0959-.011-.1352l-1.577-.8785c-.0659-.0367-.1687-.0349-.2291.0014L62.0073 100.2447zM61.0635 96.1918c-.0603.0363-.0642.0987.0064.138l1.2757.7107c.0659.0367.1734.032.2337-.0043l1.2526-.7539c.0603-.0363.0596-.0959-.0063-.1326l-1.2757-.7107c-.0706-.0393-.1734-.0375-.2337-.0012L61.0635 96.1918zM63.9363 96.7705c-.0603.0363-.0596.0959.0111.1352l1.2757.7106c.0659.0367.1734.0375.2337.0012l1.2526-.7539c.0603-.0363.0595-.1013-.0064-.138l-1.2757-.7106c-.0706-.0393-.1781-.0347-.2384.0016L63.9363 96.7705zM58.0201 98.0236c-.065.0391-.0642.0987.0064.138l1.2757.7107c.0659.0367.1687.0348.2337-.0043l2.2873-1.3766c.0649-.0391.0642-.0986-.0017-.1353l-1.2757-.7107c-.0706-.0393-.1734-.0375-.2384.0016L58.0201 98.0236zM65.9044 97.8992c-.0603.0363-.0596.0959.0064.1326l1.577.8785c.0706.0393.1734.0375.2337.0012l1.2526-.7539c.0603-.0363.0642-.0986-.0064-.138l-1.577-.8785c-.0659-.0367-.1734-.0321-.2337.0042L65.9044 97.8992zM60.0113 99.1328c-.065.0391-.0642.0987.0064.138l1.2757.7106c.0659.0367.1734.0375.2384-.0016l3.3172-1.9965c.0649-.0391.0595-.1013-.0064-.138l-1.2757-.7106c-.0706-.0393-.1734-.0375-.2384.0016L60.0113 99.1328zM63.9558 99.0719c-.0603.0363-.0642.0986.0017.1354l1.577.8785c.0706.0393.1781.0347.2384-.0016l1.2526-.7539c.0603-.0363.0596-.0959-.011-.1352l-1.577-.8785c-.0659-.0367-.1687-.0349-.229.0014L63.9558 99.0719zM69.8062 95.5508c-.0649.0391-.0642.0986.0017.1354l1.577.8785c.0706.0393.1734.0375.2384-.0016l11.0465-6.6485c.0603-.0363.0596-.0959-.011-.1352l-1.577-.8785c-.0659-.0367-.1687-.0349-.229.0014L69.8062 95.5508zM65.9266 95.5727c-.0603.0363-.0596.0959.0111.1352l1.2757.7106c.0659.0367.1734.0375.2337.0012l1.2526-.7539c.0603-.0363.0549-.0985-.011-.1352l-1.2757-.7106c-.0706-.0393-.1734-.0375-.2337-.0012L65.9266 95.5727zM67.853 96.7264c-.0603.0363-.0596.0959.0064.1326l1.577.8785c.0706.0393.1734.0375.2337.0012l1.2526-.7539c.065-.0391.0642-.0987-.0064-.138l-1.577-.8785c-.0659-.0367-.1687-.0349-.2337.0042L67.853 96.7264zM88.5971 85.4525c-.0603.0363-.0596.0959.0063.1326l.5319.2963c.0706.0393.1734.0375.2337.0012l1.2526-.7539c.065-.0391.0642-.0987-.0064-.138l-.5319-.2963c-.0659-.0367-.1687-.0348-.2337.0043L88.5971 85.4525zM77.8639 88.3881c-.0603.0363-.0596.0959.011.1352l1.2757.7106c.0659.0367.1734.0375.2337.0012l1.2526-.7539c.065-.0391.0595-.1013-.0064-.138l-1.2757-.7106c-.0706-.0393-.1734-.0375-.2384.0016L77.8639 88.3881zM80.874 84.2687c-.0603.0363-.0596.0959.011.1352l1.2757.7107c.0659.0367.1687.0348.229-.0015l1.2526-.7539c.065-.0391.0642-.0987-.0017-.1354l-1.2757-.7107c-.0706-.0393-.1734-.0375-.2384.0016L80.874 84.2687zM82.0771 77.3362c-.0603.0363-.0596.0959.011.1352l.7532.4196c.0659.0367.1687.0348.229-.0015l1.1413-.6869c.0603-.0363.0596-.0959-.0063-.1326l-.7532-.4196c-.0706-.0393-.1734-.0375-.2337-.0012L82.0771 77.3362zM83.499 78.1552c-.0603.0363-.0596.0959.011.1352l1.2757.7107c.0659.0367.1734.0375.2337.0012l1.2526-.7539c.0603-.0363.0549-.0985-.011-.1352l-1.2757-.7107c-.0706-.0393-.1734-.0375-.2337-.0012L83.499 78.1552zM85.4197 79.2252c-.0603.0363-.0596.0959.0064.1326l1.2757.7106c.0706.0393.1734.0375.2337.0012l1.2526-.7539c.0603-.0363.0596-.0959-.0111-.1352l-1.2757-.7106c-.0659-.0367-.1687-.0349-.2291.0014L85.4197 79.2252zM80.2538 78.4336c-.0603.0363-.0596.0959.011.1352l.7532.4196c.0659.0367.1687.0348.229-.0015L82.3883 78.3c.0603-.0363.0596-.0959-.0063-.1326l-.7532-.4196c-.0706-.0393-.1734-.0375-.2337-.0012L80.2538 78.4336zM78.4305 79.531c-.0603.0363-.0596.0959.0111.1352l.7532.4196c.0659.0367.1687.0348.229-.0015l1.1413-.6869c.0603-.0363.0596-.0959-.0063-.1326l-.7532-.4196c-.0706-.0393-.1734-.0375-.2337-.0012L78.4305 79.531zM87.513 80.273c-.0603.0363-.0596.0959.011.1352l1.2757.7107c.0659.0367.1687.0348.229-.0015l1.2526-.7539c.0603-.0363.0596-.0959-.0063-.1326l-1.2757-.7107c-.0706-.0393-.1734-.0375-.2337-.0012L87.513 80.273zM79.2864 80.6906c-.0603.0363-.0596.0959.0111.1352l1.2757.7107c.0659.0367.1734.0374.2337.0011l3.5724-2.1501c.065-.0391.0595-.1013-.0064-.138l-1.2757-.7107c-.0706-.0393-.1734-.0375-.2384.0016L79.2864 80.6906zM89.5043 81.3822c-.0603.0363-.0596.0959.011.1352l1.2757.7106c.0659.0367.1734.0375.2337.0012l1.2526-.7539c.0603-.0363.0549-.0985-.0111-.1352l-1.2757-.7106c-.0706-.0393-.1734-.0375-.2337-.0012L89.5043 81.3822zM80.307 82.3023c-.065.0391-.0642.0987.0017.1354l1.2757.7106c.0706.0393.1734.0375.2384-.0016l1.2526-.7539c.0603-.0363.0596-.0959-.011-.1352l-1.2757-.7106c-.0659-.0367-.1687-.0349-.2291.0014L80.307 82.3023z"></path><path fill="#5B5E71" d="M82.2881 81.11c-.0649.0391-.0642.0986.0017.1354l1.5582.868c.1741.097.1762.2595.0045.3628l-1.0532.6339c-.0649.0391-.0642.0986.0064.138l1.2757.7107c.0659.0367.1687.0348.2337-.0042l4.0178-2.4181c.065-.0391.0642-.0987-.0017-.1354l-3.2717-1.8225c-.0659-.0367-.1687-.0349-.2337.0042L82.2881 81.11zM83.7931 84.8195c-.0603.0363-.0596.0959.011.1352l1.2757.7106c.0659.0367.1735.0375.2337.0012l5.0152-3.0185c.065-.0391.0595-.1013-.0064-.138l-1.2757-.7106c-.0706-.0393-.1734-.0375-.2384.0016L83.7931 84.8195zM81.8445 85.9923c-.0603.0363-.0642.0986.0064.138l1.2757.7106c.0659.0367.1781.0347.2384-.0016l1.2527-.7539c.0603-.0363.0549-.0985-.0111-.1352l-1.2757-.7106c-.0706-.0393-.1734-.0375-.2337-.0012L81.8445 85.9923zM85.6035 86.0431c-.0603.0363-.0596.0959.0064.1326l1.577.8785c.0706.0393.1734.0375.2337.0012l1.2526-.7539c.065-.0391.0642-.0987-.0064-.138l-1.577-.8785c-.0659-.0367-.1687-.0349-.2337.0042L85.6035 86.0431zM79.8542 87.1902c-.0603.0363-.0596.0959.011.1352l1.2757.7106c.0659.0367.1734.0375.2337.0012l1.2526-.7539c.0603-.0363.0595-.1013-.0064-.138l-1.2757-.7106c-.0706-.0393-.1781-.0347-.2384.0016L79.8542 87.1902zM83.59 87.2549c-.065.0391-.0642.0987.0017.1354l1.577.8785c.0706.0393.1734.0375.2384-.0016l1.2526-.7539c.0603-.0363.0596-.0959-.011-.1352l-1.577-.8785c-.0659-.0367-.1687-.0349-.229.0014L83.59 87.2549zM81.6275 88.4361c-.0603.0363-.0596.0959.0064.1326l1.577.8785c.0706.0393.1734.0375.2337.0012l1.2573-.7567c.0603-.0363.0596-.0959-.011-.1352l-1.577-.8785c-.0659-.0367-.1687-.0349-.229.0014L81.6275 88.4361zM92.5963 83.0455c-.0603.0363-.0596.0959.0063.1326l.5319.2963c.0706.0393.1734.0375.2337.0012l1.2526-.7539c.065-.0391.0642-.0986-.0064-.138l-.5319-.2963c-.0659-.0367-.1687-.0348-.2337.0043L92.5963 83.0455zM90.5967 84.249c-.0603.0363-.0596.0959.0063.1326l.5319.2963c.0706.0393.1734.0375.2337.0012l1.2526-.7539c.065-.0391.0642-.0987-.0064-.138l-.5319-.2963c-.0659-.0367-.1687-.0348-.2337.0043L90.5967 84.249zM89.5281 83.6537c-.0603.0363-.0596.0959.0063.1326l.532.2963c.0659.0367.1687.0348.229-.0015l1.2526-.7539c.065-.0391.0642-.0987-.0017-.1354l-.532-.2963c-.0659-.0367-.1687-.0348-.2337.0043L89.5281 83.6537zM69.9073 93.1769c-.065.0391-.0642.0987.0064.138l1.2757.7106c.0659.0367.1734.0375.2384-.0016l1.2526-.7539c.0603-.0363.0549-.0985-.011-.1352l-1.2757-.7106c-.0706-.0393-.1734-.0375-.2337-.0012L69.9073 93.1769zM63.0446 94.9995c-.0603.0363-.0642.0987.0064.138l1.2757.7107c.0659.0367.1734.032.2337-.0043L65.813 95.09c.0603-.0363.0596-.0959-.0063-.1326l-1.2757-.7107c-.0706-.0393-.1734-.0375-.2337-.0012L63.0446 94.9995zM64.5283 91.7989c-.0603.0363-.0596.0959.0064.1326l1.2757.7106c.0706.0393.1734.0375.2337.0012l1.2527-.7539c.0649-.0391.0642-.0986-.0064-.138l-1.2757-.7106c-.0659-.0367-.1687-.0349-.2337.0042L64.5283 91.7989zM68.4718 89.4254c-.0603.0363-.0596.0958.0064.1326l1.2757.7106c.0706.0393.1734.0375.2337.0012l1.2527-.7539c.0649-.0391.0642-.0987-.0064-.138l-1.2757-.7106c-.0659-.0367-.1688-.0348-.2337.0042L68.4718 89.4254zM66.5 90.6121c-.0603.0363-.0596.0959.0064.1326l1.2757.7106c.0706.0393.1734.0375.2337.0012l1.2526-.7539c.065-.0391.0642-.0987-.0064-.138l-1.2757-.7106c-.0659-.0367-.1687-.0349-.2337.0042L66.5 90.6121zM68.9877 91.4226c-.0603.0363-.0595.0959.0111.1352l1.2757.7107c.0659.0367.1687.0348.229-.0015l1.2527-.7539c.0603-.0363.0642-.0986-.0017-.1353l-1.2757-.7107c-.0706-.0393-.1781-.0347-.2384.0016L68.9877 91.4226zM67.0067 92.6149c-.0603.0363-.0596.0959.011.1352l1.2757.7107c.0659.0367.1687.0348.229-.0015l1.2526-.7539c.0603-.0363.0642-.0987-.0017-.1354l-1.2757-.7107c-.0706-.0393-.1781-.0347-.2384.0016L67.0067 92.6149zM65.0256 93.8072c-.0603.0363-.0596.0959.011.1352l1.2757.7107c.0659.0367.1687.0348.229-.0015l1.2526-.7539c.0603-.0363.0596-.0959-.0063-.1326l-1.2757-.7107c-.0706-.0393-.1734-.0375-.2337-.0012L65.0256 93.8072zM67.9169 94.3747c-.0603.0363-.0642.0987.0064.138l1.2757.7106c.0659.0367.1781.0347.2384-.0016l1.2526-.7539c.0603-.0363.0549-.0985-.011-.1352l-1.2757-.7106c-.0706-.0393-.1734-.0375-.2337-.0012L67.9169 94.3747zM73.8832 90.7839c-.0603.0363-.0596.0959.0111.1352l1.2757.7106c.0659.0367.1734.0375.2337.0012l1.2527-.7539c.0649-.0391.0595-.1013-.0064-.138l-1.2757-.7106c-.0706-.0393-.1734-.0375-.2384.0016L73.8832 90.7839zM71.8976 91.979c-.065.0391-.0642.0987.0064.138l1.2757.7106c.0659.0367.1734.0375.2384-.0016l1.2526-.7539c.0603-.0363.0549-.0985-.011-.1352l-1.2757-.7106c-.0706-.0393-.1734-.0375-.2337-.0012L71.8976 91.979zM70.4436 88.2387c-.0603.0363-.0596.0959.0064.1326l1.2757.7106c.0706.0393.1734.0375.2337.0012l1.2526-.7539c.065-.0391.0642-.0987-.0064-.138l-1.2757-.7106c-.0659-.0367-.1687-.0349-.2337.0042L70.4436 88.2387zM72.4153 87.0519c-.0603.0363-.0596.0959.0064.1326l1.2757.7106c.0706.0393.1734.0375.2337.0012l1.2526-.7539c.065-.0391.0642-.0987-.0064-.138l-1.2757-.7106c-.0659-.0367-.1687-.0349-.2337.0042L72.4153 87.0519zM77.3286 81.869c-.065.0391-.0642.0987.0064.138l1.2757.7107c.0659.0367.1734.0375.2384-.0016l1.2526-.7539c.0603-.0363.0549-.0985-.011-.1352l-1.2757-.7107c-.0706-.0393-.1734-.0375-.2337-.0012L77.3286 81.869zM69.4833 86.5908c-.0603.0363-.0596.0959.0111.1352l1.2757.7107c.0659.0367.1734.0374.2337.0011l1.2526-.7539c.0649-.0391.0595-.1013-.0064-.138l-1.2757-.7107c-.0706-.0393-.1734-.0375-.2384.0016L69.4833 86.5908zM67.5255 87.7691c-.065.0391-.0642.0987.0064.138l1.2757.7107c.0659.0367.1734.0375.2384-.0016l1.2526-.7539c.0603-.0363.0549-.0985-.011-.1352l-1.2757-.7107c-.0706-.0393-.1734-.0375-.2337-.0012L67.5255 87.7691zM65.6766 87.207c-.0603.0363-.0642.0987.0064.138l.7532.4196c.0659.0367.1733.032.2337-.0043l1.1367-.6841c.065-.0391.0642-.0986-.0017-.1354l-.7532-.4196c-.0706-.0393-.1734-.0375-.2384.0016L65.6766 87.207zM67.4999 86.1096c-.065.0391-.0642.0986.0064.138l.7532.4196c.0659.0367.1687.0348.2337-.0043l1.1367-.6841c.0603-.0363.0642-.0987-.0017-.1354l-.7532-.4196c-.0706-.0393-.1781-.0347-.2384.0016L67.4999 86.1096zM69.3186 85.015c-.0603.0363-.0596.0959.0111.1352l.7532.4196c.0659.0367.1687.0348.229-.0015l1.1413-.6869c.0603-.0363.0596-.0959-.0063-.1326l-.7532-.4196c-.0706-.0393-.1734-.0375-.2337-.0012L69.3186 85.015zM76.6118 80.6256c-.065.0391-.0642.0986.0064.138l.7532.4196c.0659.0367.1687.0348.2337-.0043l1.1367-.6841c.0649-.0391.0642-.0986-.0017-.1354l-.7532-.4196c-.0706-.0393-.1734-.0375-.2384.0016L76.6118 80.6256zM74.7885 81.7229c-.065.0391-.0642.0987.0064.138l.7532.4196c.0659.0367.1687.0348.2337-.0043l1.1367-.6841c.065-.0391.0642-.0986-.0017-.1354l-.7532-.4196c-.0706-.0393-.1734-.0375-.2384.0016L74.7885 81.7229zM72.9652 82.8203c-.0603.0363-.0596.0959.011.1352l.7532.4196c.0659.0367.1687.0348.229-.0015l1.1413-.6869c.0603-.0363.0596-.0959-.0063-.1326l-.7532-.4196c-.0706-.0393-.1734-.0375-.2337-.0012L72.9652 82.8203zM75.3661 83.0501c-.0603.0363-.0596.0959.0111.1352l1.2757.7107c.0659.0367.1734.0375.2337.0011l1.2526-.7539c.0603-.0363.0595-.1013-.0064-.138l-1.2757-.7107c-.0706-.0393-.1781-.0347-.2384.0016L75.3661 83.0501zM71.1419 83.9177c-.0603.0363-.0596.0959.0111.1352l.7532.4196c.0659.0367.1687.0348.229-.0015l1.1413-.6869c.0603-.0363.0596-.0959-.0063-.1326l-.7532-.4196c-.0706-.0393-.1734-.0375-.2337-.0012L71.1419 83.9177zM78.3353 83.489c-.0649.0391-.0642.0986.0017.1354l1.2757.7106c.0706.0393.1734.0375.2384-.0016l1.2527-.7539c.0603-.0363.0595-.0958-.0111-.1352l-1.2757-.7106c-.0659-.0367-.1687-.0349-.229.0014L78.3353 83.489zM73.4083 84.2285c-.0649.0391-.0642.0986.0064.138l1.2757.7107c.0659.0367.1734.0375.2383-.0016l1.2527-.7539c.0603-.0363.0549-.0985-.011-.1352l-1.2757-.7107c-.0706-.0393-.1734-.0375-.2337-.0012L73.4083 84.2285zM76.3635 84.6757c-.065.0391-.0642.0987.0017.1354l1.2757.7106c.0706.0393.1734.0375.2384-.0016l1.2526-.7539c.0603-.0363.0596-.0959-.011-.1352l-1.2757-.7106c-.0659-.0367-.1687-.0349-.229.0014L76.3635 84.6757zM71.4458 85.4096c-.0603.0363-.0596.0959.011.1352l1.2757.7107c.0659.0367.1734.0375.2337.0011l1.2526-.7539c.0603-.0363.0549-.0985-.011-.1352l-1.2757-.7107c-.0706-.0393-.1734-.0375-.2337-.0012L71.4458 85.4096zM78.8929 85.461c-.0603.0363-.0596.0959.011.1352l1.2757.7107c.0659.0367.1687.0348.229-.0015l1.2526-.7539c.065-.0391.0642-.0987-.0017-.1354l-1.2757-.7107c-.0706-.0393-.1734-.0375-.2384.0016L78.8929 85.461zM74.3917 85.8624c-.065.0391-.0642.0987.0017.1354l1.2757.7106c.0706.0393.1734.0375.2384-.0016l1.2526-.7539c.0603-.0363.0596-.0959-.011-.1352l-1.2757-.7106c-.0659-.0367-.1687-.0349-.2291.0014L74.3917 85.8624zM76.9119 86.6534c-.0603.0363-.0596.0959.0111.1352l1.2757.7107c.0659.0367.1687.0348.229-.0015l1.2526-.7539c.065-.0391.0642-.0987-.0017-.1354l-1.2757-.7107c-.0706-.0393-.1734-.0375-.2384.0016L76.9119 86.6534zM74.9308 87.8457c-.0603.0363-.0596.0959.011.1352l1.2757.7107c.0659.0367.1687.0348.229-.0015l1.2526-.7539c.065-.0391.0642-.0987-.0017-.1354l-1.2757-.7107c-.0706-.0393-.1734-.0375-.2384.0016L74.9308 87.8457zM72.9498 89.038c-.0603.0363-.0596.0959.011.1352l1.2757.7107c.0659.0367.1687.0348.229-.0015l1.2527-.7539c.0649-.0391.0642-.0986-.0017-.1354l-1.2757-.7107c-.0706-.0393-.1734-.0375-.2384.0016L72.9498 89.038zM75.8736 89.586c-.0603.0363-.0596.0959.011.1352l1.2757.7106c.0659.0367.1734.0375.2337.0012l1.2526-.7539c.065-.0391.0595-.1013-.0064-.138l-1.2757-.7106c-.0706-.0393-.1734-.0375-.2384.0016L75.8736 89.586zM70.9688 90.2303c-.0603.0363-.0596.0959.011.1352l1.2757.7107c.0659.0367.1687.0348.229-.0015l1.2526-.7539c.0603-.0363.0642-.0987-.0017-.1354l-1.2757-.7107c-.0706-.0393-.1781-.0347-.2384.0016L70.9688 90.2303zM60.5848 94.1723c-.0603.0363-.0596.0959.0064.1326l1.2757.7106c.0706.0393.1734.0375.2337.0012l1.2526-.7539c.0649-.0391.0642-.0986-.0064-.138l-1.2757-.7106c-.0659-.0367-.1687-.0349-.2337.0042L60.5848 94.1723z"></path></g><g><path fill="#F34858" d="M34.4879,117.6257c-1.116,0.6694-2.9083,0.702-4.0479,0.0736
						c-1.1551-0.6281-1.1742-1.6788-0.0739-2.3633c1.1161-0.6694,2.9083-0.702,4.0794-0.0433
						C35.5694,115.9059,35.5885,116.9566,34.4879,117.6257z"></path></g><g><path fill="#BAC1CE" d="M32.4675,116.915c-0.2892,0-0.5252-0.2321-0.5316-0.5226l-0.3203-17.6608L4.2491,83.5877
					c-0.166-0.0908-0.271-0.2645-0.2749-0.4551L3.3285,47.5867c-0.0026-0.1893,0.0947-0.367,0.258-0.4642l34.0365-20.4798
					l-0.1997-8.5101c-0.0078-0.2943,0.2243-0.5368,0.5174-0.5433c0.0052-0.0013,0.0091-0.0013,0.013-0.0013
					c0.2879,0,0.5239,0.2295,0.5303,0.5187l0.2075,8.8187c0.0052,0.1906-0.0934,0.3696-0.2567,0.4681L4.3969,47.8746L5.031,82.8071
					L32.3974,97.951c0.166,0.0908,0.271,0.2645,0.2749,0.4551l0.3268,17.9681c0.0052,0.2931-0.2282,0.5342-0.5226,0.5407
					C32.4739,116.915,32.47,116.915,32.4675,116.915z"></path></g><g><path fill="#525566" d="M112.7758,41.3831c-0.9284,0.5569-2.4194,0.584-3.3675,0.0613
						c-0.9609-0.5225-0.9768-1.3966-0.0615-1.9661c0.9285-0.5569,2.4194-0.584,3.3937-0.036
						C113.6756,39.9524,113.6915,40.8265,112.7758,41.3831z"></path></g><g><path fill="#BAC1CE" d="M111.0631,40.9633c-0.2892,0-0.5252-0.2321-0.5316-0.5226l-0.3864-21.2798L80.2981,2.6451
					l-28.37,17.0695c-0.2503,0.1517-0.577,0.0713-0.7287-0.1815c-0.1517-0.2516-0.07-0.577,0.1815-0.7287l28.632-17.2277
					c0.1621-0.0973,0.3657-0.1037,0.5303-0.0091l30.3838,16.8127c0.166,0.0908,0.271,0.2645,0.2749,0.4551l0.3929,21.5871
					c0.0052,0.293-0.2282,0.5342-0.5226,0.5407C111.0696,40.9633,111.0657,40.9633,111.0631,40.9633z"></path></g><g><path fill="#BAC1CE" d="M79.3385,96.29c-0.2892,0-0.5252-0.2321-0.5316-0.5226l-0.8545-47.002L33.5463,24.1933
					c-0.2567-0.1413-0.3501-0.4642-0.2075-0.721c0.14-0.258,0.4603-0.3501,0.721-0.2075l44.6745,24.7199
					c0.166,0.0908,0.271,0.2645,0.2749,0.4551l0.861,47.3093c0.0052,0.293-0.2282,0.5342-0.5226,0.5407
					C79.345,96.29,79.3411,96.29,79.3385,96.29z"></path></g><g><path fill="#576CFB" d="M50.457,7.2296l2.9015,1.6163c-0.5914-0.3295-1.3059-0.4377-2.0965-0.301l-2.9015-1.6163
							C49.1511,6.7919,49.8656,6.9001,50.457,7.2296z"></path><path fill="#4562EF" d="M46.9595,3.4607l2.9015,1.6163c-0.8517-0.4745-2.0163-0.3866-3.2855,0.3773
							c-0.3604,0.2169-0.7198,0.4736-1.0605,0.7996l-2.9015-1.6163c0.3407-0.3261,0.7001-0.5827,1.0605-0.7996
							C44.9432,3.0741,46.1077,2.9862,46.9595,3.4607z"></path><path fill="#576CFB" d="M43.9815 4.1375c-1.0429-.5786-2.4807-.4711-4.0396.4539-2.5529 1.5406-4.6929 4.8668-5.315 8.0024l-2.8817-1.6049c.595-3.1349 2.735-6.4611 5.315-8.0022 1.5584-.9521 2.969-1.0592 4.0391-.481L43.9815 4.1375zM27.2266 33.8698l-2.9015-1.6163c-1.0327-.5753-1.6886-1.8295-1.7264-3.6261-.0545-2.59 1.2022-5.6261 3.102-7.8187l2.9015 1.6163c-1.8998 2.1926-3.1565 5.2287-3.102 7.8186C25.5379 32.0403 26.1938 33.2945 27.2266 33.8698z"></path><path fill="#4562EF" d="M28.6022,22.4251l-2.9015-1.6163c-0.0938-0.3269-0.1365-0.7047-0.1453-1.1232
							c-0.0616-2.9287,1.93-6.5483,4.4521-8.0663c0.6176-0.3717,1.1867-0.573,1.724-0.6341l2.9014,1.6163
							c-0.5373,0.0611-1.1064,0.2624-1.724,0.6341c-2.5221,1.518-4.5137,5.1376-4.4521,8.0663
							C28.4657,21.7204,28.5084,22.0982,28.6022,22.4251z"></path><path fill="#748BFD" d="M39.955,4.5966c2.6251-1.5799,4.8828-0.8001,5.5599,1.6572c0.3407-0.326,0.7001-0.5827,1.0605-0.7996
							c2.5221-1.518,4.6312-0.3664,4.6928,2.5625L51.262,8.5449c2.1639-0.3743,3.7584,1.0872,3.8174,3.8963
							c0.0758,3.6062-2.3847,8.0529-5.4903,9.922L31.248,33.402c-3.1055,1.8691-5.672,0.448-5.7478-3.1582
							c-0.0545-2.59,1.2022-5.6261,3.102-7.8187c-0.0938-0.3269-0.1365-0.7047-0.1453-1.1231
							c-0.0616-2.9287,1.93-6.5483,4.4521-8.0663c0.6176-0.3717,1.1867-0.573,1.724-0.6341
							C35.2448,9.4692,37.3815,6.1455,39.955,4.5966z"></path></g><path fill="#748BFD" d="M40.9516,4.103c0.27-0.1,0.54-0.18,0.8-0.23C41.4916,3.923,41.2216,3.993,40.9516,4.103z M40.9516,4.103
			c0.27-0.1,0.54-0.18,0.8-0.23C41.4916,3.923,41.2216,3.993,40.9516,4.103z"></path></svg>