<svg xmlns="http://www.w3.org/2000/svg" fill-rule="evenodd" clip-rule="evenodd" image-rendering="optimizeQuality" shape-rendering="geometricPrecision" text-rendering="geometricPrecision" viewBox="0 0 6.827 6.827" id="Cms"><path d="M0.816118 1.14402c-0.179776,0 -0.326197,0.146323 -0.326197,0.326177l2.3622e-005 3.88627c0,0.17978 0.146382,0.326189 0.326154,0.326189l5.19447 -7.87402e-006c0.17978,0 0.326169,-0.146402 0.326169,-0.326181l7.87402e-006 -3.88628c0,-0.179843 -0.146413,-0.326157 -0.326185,-0.326157l-5.19444 -3.93701e-006zm5.19445 4.67894l-5.19445 0c-0.257224,0 -0.466512,-0.209248 -0.466512,-0.466496l2.3622e-005 -3.88628c0,-0.257209 0.209232,-0.466472 0.466469,-0.466472l5.19447 -3.93701e-006c0.257276,0 0.466484,0.209272 0.466484,0.466492l7.87402e-006 3.88627c0,0.257244 -0.209256,0.466504 -0.466492,0.466496z" fill="#052c55" class="color000000 svgShape"></path><path d="M6.4069 2.17767l-5.98711 0c-.0387559 0-.0701811-.0314134-.0701811-.0701575.000023622-.038752.0314252-.0701575.0701535-.0701575l5.98714 0c.038752 0 .0701496.0314134.0701496.0701575.00000787402.0387402-.0314252.0701575-.0701496.0701575zM1.18505 1.47689c-.0627047 0-.113776.0510551-.113776.113795.0000433071.0627362.0510354.113787.11376.113787.0627756-.000011811.11389-.0510472.11389-.113787.000019685-.0627402-.0511575-.113787-.113874-.113795zm0 .367886c-.140043 0-.254091-.11398-.254091-.254091.0000433071-.140118.114008-.254102.254075-.254102.14022-.00000787402.254079.113992.254079.254102.0000354331.140098-.113878.254102-.254063.254091zM1.95339 1.47689c-.0628701 0-.113913.0510551-.113913.113795.000015748.0627362.0510354.113787.113894.113787.0627205-.000011811.113756-.0510472.113756-.113787.0000472441-.0627402-.0510354-.113787-.113736-.113795zm0 .367886c-.140209 0-.254228-.11398-.254228-.254091.000015748-.140118.114008-.254102.254209-.254102.140114-.00000787402.254071.113992.254071.254102.0000472441.140098-.114008.254102-.254051.254091zM2.72161 1.47689c-.0627598 0-.113811.0510551-.113811.113795.000023622.0627362.0510315.113787.11376.113787.062752-.000011811.113768-.0510472.113768-.113787.000011811-.0627402-.0510354-.113787-.113768-.113787l.0000511811-.00000787402zm0 .367886c-.140209 0-.254126-.11398-.254126-.254091.000023622-.140118.113882-.254102.254075-.254102.140087-.00000787402.254079.113992.254079.254102.000011811.140098-.114008.254102-.254079.254102l.0000511811-.000011811zM3.28407 4.67911l-2.08478 0c-.0685669 0-.12437-.0558071-.12437-.124429l.00000787402-.298693c0-.179028.112661-.341181.280382-.403484.00331496-.00120866.00670079-.00217717.0101024-.0028937l.545209-.114146 0-.137941c0-.0387402.0313976-.0702126.0701378-.0702126.0387717 0 .0701496.0313504.0701496.0700984l.0000275591.195059c0 .0332165-.0232874.061878-.0558031.0686772l-.595563.124665c-.110496.0432087-.184335.151165-.184335.270185l.00000787402.282799 2.05287 0 0-.282807c0-.11902-.0739764-.226953-.184445-.270169l-.595563-.124685c-.0324488-.00679921-.0558307-.0354449-.0558307-.0686614l.0000314961-.194949c0-.0387402.0313898-.0702126.070126-.0702126.0388976 0 .0701575.0313504.0701575.0700984l.0000314961.138055.545311.114146c.00339764.000708661.00665748.00168898.00994882.0028937.167752.062315.280508.224457.280508.403492l.0000393701.298681c0 .068626-.0558268.124449-.124362.124433z" fill="#052c55" class="color000000 svgShape"></path><path d="M1.50333 4.67906c-.038752 0-.070185-.0313937-.070185-.0701496l.0000275591-.260441c0-.038748.0313976-.0701535.0701299-.0701535.0387795-.00000393701.0701575.0314173.0701575.0701575l.0000275591.260429c0 .038752-.0314528.0701654-.0701575.0701575zM2.97993 4.67906c-.038752 0-.070185-.0313937-.070185-.0701496l.0000275591-.260441c0-.038748.0313976-.0701535.0701142-.0701535.0387953-.00000393701.0701732.0314173.0701732.0701575l.0000275591.260429c0 .038752-.0314606.0701654-.0701575.0701575zM1.82973 2.85843c-.000933071.00139764-.00194882.00276378-.00304331.00409055.000740157-.000870079.00182677-.00216535.00304331-.00409055zm.0210984.442169c-.0201142 0-.0399803-.00850787-.0538622-.0250394-.175134-.208685-.127768-.404705-.0940276-.47624.0184291-.20087.167961-.332654.423138-.371858.138028-.021189.277457-.00280315.403398.0531417.136445.0605157.224846.150083.262606.266169.0465472.14298.0123031.320177-.0989016.512429-.0193661.0335354-.0623583.0449961-.0958543.0256063-.0334646-.0193976-.0450709-.062315-.0255787-.0958583.0894016-.154591.120213-.296197.0868386-.398764-.0251693-.077689-.0861102-.137004-.186106-.181339-.101331-.0450394-.213768-.0597913-.325087-.0427047-.194724.0299252-.297559.116311-.305606.25672-.000602362.0123819-.00462205.0243386-.0114488.0346417-.00570472.0119291-.0699055.156268.0740591.327827.0249764.0296811.0210748.0739331-.0085315.0988504-.0131339.0110197-.0292283.0164213-.0450354.0164173z" fill="#052c55" class="color000000 svgShape"></path><path d="M2.60513 3.01085c-0.000110236,1.5748e-005 -0.000137795,1.9685e-005 -0.000137795,1.9685e-005 2.75591e-005,-3.93701e-006 0.00011811,0 0.000137795,-1.9685e-005zm-0.684146 0.0122913l0 0.283276c0,0.176835 0.143815,0.320705 0.320677,0.320705 0.176898,-1.1811e-005 0.320705,-0.14387 0.320705,-0.320701l1.5748e-005 -0.28328c-0.0943858,0.0245157 -0.208543,0.038311 -0.320594,0.038311 -0.112303,-1.1811e-005 -0.226555,-0.0137874 -0.320803,-0.038311zm0.320697 0.744283c-0.254209,0 -0.461039,-0.206803 -0.461039,-0.461004l2.75591e-005 -0.326689c0,-0.0342126 0.0164173,-0.0666929 0.044063,-0.0868858 0.0275748,-0.020185 0.0634567,-0.0260433 0.0959803,-0.0157008 0.0880787,0.0279488 0.204992,0.0439921 0.321075,0.0439921 0.115709,-1.1811e-005 0.232634,-0.0160394 0.320819,-0.0440079 0.0325512,-0.0103504 0.0683268,-0.00448819 0.0959764,0.0156811 0.0275591,0.020189 0.0440984,0.052685 0.0440984,0.0869252l1.5748e-005 0.326681c0,0.254197 -0.206839,0.46102 -0.461016,0.461008z" fill="#052c55" class="color000000 svgShape"></path><path d="M1.96117 4.19351c0,1.5748e-005 -7.87402e-006,3.54331e-005 -0.000133858,5.11811e-005 0.000133858,-2.3622e-005 0.000125984,-2.75591e-005 0.000133858,-5.11811e-005zm0.0280039 0.131039c-0.023622,0 -0.0471457,-0.00897244 -0.0654134,-0.0266457 -0.00567323,-0.00554331 -0.0104685,-0.0120315 -0.0140039,-0.0191732l-0.204114 -0.410587c-0.0171575,-0.0346969 -0.00306693,-0.0767992 0.0316417,-0.0940433 0.0347323,-0.0172913 0.0767362,-0.00309449 0.0940315,0.0315945l0.174906 0.351953c0.0595787,-0.0502992 0.129476,-0.119374 0.197563,-0.186646 0.089315,-0.0883346 0.181724,-0.179657 0.257126,-0.235051 0.0312087,-0.0229488 0.0751457,-0.0162362 0.0980472,0.0149803 0.022937,0.0312126 0.0162008,0.075126 -0.0149803,0.0980748 -0.0670984,0.0493228 -0.15578,0.137012 -0.241654,0.221803 -0.0891378,0.0881535 -0.181484,0.17935 -0.256764,0.23478 -0.0169213,0.0126969 -0.0367835,0.0189685 -0.0563858,0.0189606z" fill="#052c55" class="color000000 svgShape"></path><path d="M2.5221 4.19351c0 .000015748-.0000472441.0000354331.0000748031.0000511811-.0000748031-.000023622-.000122047-.0000275591-.000122047-.0000393701l.0000472441-.000011811zm-.0279016.131039c-.0197323 0-.039626-.00625197-.0565551-.0189606-.0752598-.0554213-.16748-.146575-.256638-.234709-.0858268-.0848268-.174657-.17252-.241776-.221874-.0311732-.0229567-.037874-.0668543-.0149764-.0980748.0229409-.0312165.0668661-.0379409.0980472-.0149803.0753976.0554016.167846.146768.25724.235126.0680945.0672126.137882.136272.197327.186563l.174913-.351984c.0172126-.0347087.0593071-.0489016.0940197-.0316299.0347283.0172283.0488425.0593425.0315433.0940433l-.20389.41063c-.00350787.00716535-.0082874.0136732-.0140118.0192441-.0182677.0176299-.0417756.0266142-.0652441.0266063zM3.61294 3.53052c-.26726 0-.484555-.208437-.484555-.464661.0000275591-.25622.217295-.464669.48452-.464669.104173-.00000787402.207303.0329961.290622.0929331.0315866.0226142.0386024.0664567.0160748.0979173-.0226339.0314528-.0665039.038622-.0979291.0159921-.0596496-.0429016-.133866-.0665394-.208768-.0665394-.18972-.000011811-.344205.145512-.344205.324366.0000275591.178854.154441.32437.344205.32437.0749016-.00000787402.149087-.023626.208768-.0665394.0314449-.0226457.0752677-.0154567.0979291.0160039.0225276.031437.0154685.0752953-.0160748.0979173-.0832913.0599134-.186484.0929213-.290587.0929094zM4.85006 3.53054c-.0387441 0-.070185-.0314055-.070185-.0701496l.0000275591-.440933-.196598.468098c-.0109685.0260433-.0364331.0429921-.0646969.0429921-.0282087-.00000787402-.0538268-.0169449-.0646732-.0429843l-.196705-.468106 0 .440925c0 .038748-.0314331.0701654-.0701575.0701654-.038689-.00000787402-.0701654-.0314134-.0701654-.0701575l.00000787402-.789047c0-.0334094.0235118-.0621732.0562717-.0687756.032689-.00659055.0656457.0107953.0785669.0416102l.266866.635083.266768-.635091c.0130433-.0308031.0457677-.0482008.0785315-.0416024.0327874.00659055.0562717.035374.0562717.0687835l.0000275591.789031c0 .038748-.0314528.0701654-.0701575.0701575zM5.43347 3.53052c-.184496 0-.329114-.113449-.329114-.258295.0000275591-.038752.0314291-.0701575.0701575-.0701575.0387795 0 .0701575.0314134.0701575.0701575.0000275591.0628386.088189.118004.188799.118004.10063-.00000787402.188787-.0551535.188787-.118004.0000275591-.0639055-.0850157-.0988504-.21474-.144854-.135024-.0478858-.303161-.107465-.303161-.270654.0000275591-.144858.144579-.258307.329114-.258307.184547-.000011811.329102.113457.329102.258307.0000275591.0387559-.0314173.0701575-.0701575.0701575-.0387165-.000011811-.0701575-.0314016-.0701575-.0701575.0000275591-.0628622-.088185-.117992-.188787-.117992-.100583-.000011811-.188799.0551417-.188799.117992.0000275591.0595827.083063.0934921.20974.138402.137299.048685.308161.109291.308161.277106.0000275591.144835-.144583.258307-.329102.258295zM3.66796 5.03829l-2.53367 0c-.0388622 0-.0702047-.0314055-.0702047-.0701496.0000472441-.0387598.0313031-.0701575.0701575-.0701575l2.53372-.00000787402c.038752 0 .0701457.0314213.0701457.0701654.000011811.0387441-.0314213.0701575-.0701457.0701496zM3.66796 5.44135l-2.53367 0c-.0388622 0-.0702047-.0314134-.0702047-.0701496.0000472441-.0388543.0313031-.0701575.0701575-.0701575l2.53372-.00000787402c.038752 0 .0701457.031311.0701457.0701654.000011811.0387323-.0314213.0701575-.0701457.0701496zM4.8351 5.30104l.0942795 0 0-.0837756c0-.0339843.024311-.0630709.057811-.0690512.0842008-.0150433.162594-.047563.232996-.096626.0279173-.0194331.0656614-.016063.0897756.0079685l.0592205.059252.066752-.0666732-.0593031-.0592795c-.0240079-.0240315-.0274567-.061815-.0079685-.0896929.0489646-.0704646.0814882-.148854.0965984-.233043.00597244-.0334646.035063-.0578031.0690512-.0578031l.0837047-.00000787402 0-.0943307-.0836969 0c-.0339803 0-.0631024-.0243465-.0690591-.0578071-.0150748-.0841772-.0476339-.162579-.0965984-.233028-.019437-.0278858-.0160748-.0656654.00792126-.0896969l.0593504-.0592953-.066752-.066689-.0592008.0592756c-.0241181.0240197-.0618898.0273898-.0897953.00797638-.0703583-.0490984-.148835-.0815906-.232996-.0966339-.0334803-.00598425-.0578622-.0350709-.0578622-.069063l.0000511811-.0837362-.0942795 0 0 .0837244c0 .0339843-.0244094.0630945-.0579055.0690748-.0841063.0150354-.162606.0475472-.233.0966339-.0278701.0194134-.0657717.0160551-.0897677-.00798031l-.0591772-.0592717-.0667598.066689.0593583.0592795c.0239528.0240315.0273583.0618307.00787008.0897126-.0489213.0703976-.0814803.148815-.0965906.233043-.00593701.0334528-.0350787.0578031-.0690591.0578031l-.0837677-.000011811 0 .0943307.0838031 0c.0339882 0 .0630591.0243661.0690236.0578228.015.084122.0475079.162543.0965906.233031.0195354.0278819.0160748.0656732-.00791339.0896929l-.059315.0592795.0667598.0666732.0591929-.0592756c.0241181-.0240236.0618622-.0273858.089752-.00794488.0704055.0490236.148843.0815472.233.0966142.0335157.00597638.0578661.0350787.0578661.069063l.0000393701.0837756zm.164437.140315l-.234594 0c-.038752 0-.0701969-.0314134-.0701969-.0701496l.0000393701-.0976929c-.0635748-.016689-.124161-.0417677-.180917-.0749213l-.0690118.0690827c-.0274134.0274055-.0719094.0274055-.0993228 0l-.16585-.165941c-.0131654-.0131535-.0205039-.0309843-.0205039-.0495945 0-.0186142.00731102-.0364567.0204606-.0496102l.0691024-.0690591c-.0331693-.0568543-.0582598-.117335-.0750669-.180854l-.0975315-.00000787402c-.038752 0-.070185-.0313937-.070185-.0701496l.0000275591-.234638c0-.0387362.0313976-.0701457.0701142-.0701457l.0977126-.000011811c.0167244-.0635394.0417598-.124028.0748937-.180839l-.0690236-.0690669c-.0131654-.0131575-.0205039-.0309921-.0205039-.0496024 0-.0186142.00731102-.0364449.0204606-.0496102l.165894-.165909c.0133268-.0131535.031063-.0205433.0497008-.0205433l.000015748-.000011811c.0186299 0 .0364055.00740551.0495512.0205591l.0691102.0690433c.0568425-.0332008.117248-.0582874.180835-.0749882l.0000393701-.0975709c0-.038748.031378-.0701496.0701181-.0701496l.234634-.00000787402c.038689 0 .0701063.0314213.0701063.0701654l.0000511811.0975591c.0635748.0167047.123941.0417953.180827.0749961l.0691063-.0690512c.0131575-.0131535.0308937-.0205433.0495276-.0205433.0186575-.000011811.0365394.0073937.049689.0205472l.165906.165894c.0274016.0273898.0274016.0718268 0 .0992283l-.0690669.0690551c.0331575.0568268.0582165.117339.0749094.180858l.0975827-.000011811c.0388583 0 .0701299.0314252.0701299.0701693l.0000275591.234618c0 .0387638-.0313268.0701654-.070185.0701654l-.0975354-.00000787402c-.0166614.0635394-.0417992.124035-.0749291.180858l.0690669.0690512c.0274016.0274055.0274016.0718346 0 .0992283l-.165866.165929c-.0131457.0131575-.0310945.0204646-.0497283.0204646l.0000275591-.00000787402c-.0186457 0-.0364409-.00729921-.0496024-.0204567l-.0690197-.0690709c-.0568819.0332559-.117331.0582323-.180917.0750433l.0000511811.0975512c0 .0387402-.0314685.0701654-.0702087.0701654l.0000511811-.00000787402z" fill="#052c55" class="color000000 svgShape"></path><path d="M4.88223 4.30081c-0.145787,0 -0.26435,0.118587 -0.26435,0.264331 3.93701e-006,0.145732 0.118512,0.264311 0.264311,0.264311 0.145839,-1.1811e-005 0.264307,-0.118575 0.264307,-0.264311 3.14961e-005,-0.145748 -0.118508,-0.264323 -0.264307,-0.264323l3.93701e-005 -7.87402e-006zm0 0.668933c-0.223126,0 -0.404665,-0.1815 -0.404665,-0.404602 3.93701e-006,-0.223114 0.181488,-0.404638 0.404626,-0.404638 0.223177,-7.87402e-006 0.404622,0.181524 0.404622,0.404638 3.14961e-005,0.223094 -0.181484,0.40461 -0.404622,0.40461l3.93701e-005 -7.87402e-006z" fill="#052c55" class="color000000 svgShape"></path><rect width="6.827" height="6.827" fill="none"></rect></svg>