<svg xmlns="http://www.w3.org/2000/svg" viewBox="0 0 256 256" id="flexibility"><path fill="#6BDDDD" d="M135.958 130.867H26.934a1.483 1.483 0 0 1-1.481-1.481v-70.8h6.359c2.528 0 4.093-2.753 2.801-4.925L21.839 32.189c-1.263-2.124-4.338-2.124-5.602 0L3.463 53.661c-1.292 2.172.273 4.925 2.801 4.925h6.358v70.8c0 7.891 6.42 14.312 14.312 14.312h109.024a6.416 6.416 0 1 0 0-12.831z"></path><path fill="#F9A7A7" d="m252.537 53.661-12.774-21.472c-1.263-2.124-4.338-2.124-5.602 0l-12.774 21.472c-1.292 2.172.273 4.925 2.801 4.925h6.358v70.8c0 .816-.664 1.481-1.481 1.481H120.042a6.416 6.416 0 1 0 0 12.832h109.023c7.891 0 14.312-6.42 14.312-14.312v-70.8h6.359c2.528 0 4.093-2.753 2.801-4.926z"></path><path fill="#A4C9FF" d="M143.513 26.86 130.74 5.388c-1.263-2.124-4.338-2.124-5.602 0L112.364 26.86c-1.292 2.173.273 4.925 2.801 4.925h6.358v104.446a6.416 6.416 0 1 0 12.832 0V31.786h6.358c2.527 0 4.093-2.753 2.8-4.926z"></path><path fill="#3762CC" d="M135.958 145.699H26.934c-8.994 0-16.312-7.317-16.312-16.312v-68.8H6.264a5.199 5.199 0 0 1-4.571-2.659 5.2 5.2 0 0 1 .052-5.289l12.774-21.472c.957-1.609 2.646-2.57 4.52-2.57s3.563.961 4.52 2.57l12.774 21.472a5.203 5.203 0 0 1 .052 5.289 5.201 5.201 0 0 1-4.571 2.659h-4.358v68.281H135.96c4.641 0 8.416 3.775 8.416 8.416-.002 4.639-3.777 8.415-8.418 8.415zM19.038 32.596c-.215 0-.751.06-1.082.615L5.182 54.684a1.235 1.235 0 0 0-.012 1.266c.108.191.433.637 1.094.637h6.358a2 2 0 0 1 2 2v70.8c0 6.789 5.523 12.312 12.312 12.312h109.024a4.421 4.421 0 0 0 4.416-4.416 4.421 4.421 0 0 0-4.416-4.416H26.934a3.484 3.484 0 0 1-3.48-3.48v-70.8a2 2 0 0 1 2-2h6.358c.661 0 .986-.445 1.094-.637a1.235 1.235 0 0 0-.012-1.266L20.12 33.211a1.239 1.239 0 0 0-1.082-.615z"></path><path fill="#3762CC" d="M229.065 145.699H120.042c-4.64 0-8.416-3.775-8.416-8.416s3.775-8.416 8.416-8.416h108.503V60.586h-4.358a5.201 5.201 0 0 1-4.571-2.659 5.203 5.203 0 0 1 .052-5.289l12.774-21.473c.957-1.61 2.647-2.57 4.52-2.57s3.562.96 4.52 2.57l12.774 21.472a5.205 5.205 0 0 1 .052 5.289 5.201 5.201 0 0 1-4.571 2.659h-4.359v68.8c-.001 8.996-7.318 16.314-16.313 16.314zm-109.023-12.832a4.421 4.421 0 0 0-4.416 4.416 4.421 4.421 0 0 0 4.416 4.416h109.023c6.789 0 12.312-5.523 12.312-12.312v-70.8a2 2 0 0 1 2-2h6.359c.661 0 .985-.445 1.094-.636a1.237 1.237 0 0 0-.012-1.267l-12.774-21.472c-.331-.556-.867-.615-1.082-.615s-.751.06-1.082.615l-12.774 21.472a1.237 1.237 0 0 0-.012 1.267c.108.191.433.636 1.094.636h6.358a2 2 0 0 1 2 2v70.8a3.484 3.484 0 0 1-3.48 3.48H120.042z"></path><path fill="#3762CC" d="M127.938 144.647c-4.64 0-8.416-3.775-8.416-8.416V33.786h-4.358a5.201 5.201 0 0 1-4.572-2.659 5.203 5.203 0 0 1 .052-5.289l12.774-21.473a5.213 5.213 0 0 1 4.519-2.57c1.873 0 3.562.96 4.52 2.57l12.774 21.473a5.205 5.205 0 0 1 .052 5.289 5.201 5.201 0 0 1-4.571 2.659h-4.358v102.446c0 4.64-3.775 8.415-8.416 8.415zm0-138.852c-.215 0-.751.06-1.082.615l-12.774 21.473a1.235 1.235 0 0 0-.012 1.266c.108.191.433.637 1.094.637h6.358a2 2 0 0 1 2 2v104.446c0 2.435 1.981 4.416 4.416 4.416s4.416-1.981 4.416-4.416V31.786a2 2 0 0 1 2-2h6.358c.661 0 .985-.445 1.094-.637a1.235 1.235 0 0 0-.012-1.266L129.021 6.41a1.241 1.241 0 0 0-1.083-.615z"></path><path fill="#4671C6" d="M160.051 113.288a5.927 5.927 0 0 1-5.927-5.927v-33.87h-52.37v33.87a5.927 5.927 0 1 1-11.854 0V73.079c0-6.31 5.133-11.443 11.443-11.443h53.192c6.31 0 11.443 5.133 11.443 11.443v34.281a5.927 5.927 0 0 1-5.927 5.928z"></path><path fill="#3762CC" d="M160.051 115.288c-4.371 0-7.928-3.556-7.928-7.927v-31.87h-48.369v31.87c0 4.371-3.556 7.927-7.927 7.927s-7.927-3.556-7.927-7.927V73.08c0-7.413 6.03-13.443 13.443-13.443h53.193c7.412 0 13.442 6.031 13.442 13.443v34.281c0 4.371-3.556 7.927-7.927 7.927zm-58.297-43.797h52.369a2 2 0 0 1 2 2v33.87a3.931 3.931 0 0 0 3.928 3.927 3.932 3.932 0 0 0 3.927-3.927V73.08c0-5.207-4.235-9.443-9.442-9.443h-53.193c-5.207 0-9.443 4.236-9.443 9.443v34.281c0 2.166 1.762 3.927 3.927 3.927s3.927-1.762 3.927-3.927v-33.87a2 2 0 0 1 2-2z"></path><path fill="#EAA97D" d="M201.242 207.934H54.635c-6.026 0-10.912-4.885-10.912-10.912v-91.917c0-6.026 4.885-10.912 10.912-10.912h146.607c6.026 0 10.912 4.885 10.912 10.912v91.917c-.001 6.027-4.886 10.912-10.912 10.912z"></path><path fill="#EAA97D" d="M201.242 94.194H54.635c-6.026 0-10.912 4.885-10.912 10.912v41.006c0 6.026 4.885 10.911 10.912 10.911h146.607c6.026 0 10.912-4.885 10.912-10.911v-41.006c-.001-6.027-4.886-10.912-10.912-10.912z"></path><path fill="#3762CC" d="M201.242 209.934H54.635c-7.12 0-12.912-5.792-12.912-12.912v-91.917c0-7.12 5.792-12.912 12.912-12.912h146.607c7.119 0 12.911 5.792 12.911 12.912v91.917c0 7.12-5.792 12.912-12.911 12.912zM54.635 96.194c-4.914 0-8.912 3.998-8.912 8.912v91.917c0 4.914 3.998 8.912 8.912 8.912h146.607c4.914 0 8.911-3.998 8.911-8.912v-91.917c0-4.914-3.997-8.912-8.911-8.912H54.635z"></path><path fill="#3762CC" d="M201.242 159.023H54.635c-7.12 0-12.912-5.792-12.912-12.911v-41.006c0-7.12 5.792-12.912 12.912-12.912h146.607c7.119 0 12.911 5.792 12.911 12.912v41.006c0 7.119-5.792 12.911-12.911 12.911zM54.635 96.194c-4.914 0-8.912 3.998-8.912 8.912v41.006c0 4.914 3.998 8.911 8.912 8.911h146.607c4.914 0 8.911-3.998 8.911-8.911v-41.006c0-4.914-3.997-8.912-8.911-8.912H54.635z"></path><path fill="#F9CFCF" d="M83.841 176.771a7.02 7.02 0 0 1-7.02-7.02v-25.456a7.02 7.02 0 0 1 14.04 0v25.456a7.02 7.02 0 0 1-7.02 7.02zm86.548 0a7.02 7.02 0 0 1-7.02-7.02v-25.456a7.02 7.02 0 0 1 14.04 0v25.456a7.02 7.02 0 0 1-7.02 7.02z"></path><path fill="#3762CC" d="M83.841 178.771c-4.974 0-9.021-4.046-9.021-9.02v-25.456c0-4.974 4.046-9.021 9.021-9.021 4.974 0 9.02 4.046 9.02 9.021v25.456c0 4.974-4.046 9.02-9.02 9.02zm0-39.496a5.026 5.026 0 0 0-5.021 5.021v25.456a5.026 5.026 0 0 0 5.021 5.02 5.026 5.026 0 0 0 5.02-5.02v-25.456a5.026 5.026 0 0 0-5.02-5.021zm86.548 39.496c-4.974 0-9.021-4.046-9.021-9.02v-25.456c0-4.974 4.047-9.021 9.021-9.021s9.021 4.046 9.021 9.021v25.456c-.001 4.974-4.048 9.02-9.021 9.02zm0-39.496a5.026 5.026 0 0 0-5.021 5.021v25.456c0 2.768 2.252 5.02 5.021 5.02s5.021-2.252 5.021-5.02v-25.456a5.027 5.027 0 0 0-5.021-5.021z"></path><circle cx="127.939" cy="210.257" r="41.948" fill="#A4C9FF"></circle><circle cx="127.939" cy="210.257" r="34.052" fill="#E0EBFC"></circle><path fill="#3762CC" d="M142.743 213.882h-14.805a2 2 0 0 1-2-2v-20.563a2 2 0 0 1 4 0v18.563h12.805a2 2 0 0 1 0 4z"></path><path fill="#3762CC" d="M127.938 254.205c-24.233 0-43.948-19.715-43.948-43.948s19.715-43.948 43.948-43.948 43.948 19.715 43.948 43.948-19.714 43.948-43.948 43.948zm0-83.896c-22.027 0-39.948 17.921-39.948 39.948s17.92 39.948 39.948 39.948 39.948-17.92 39.948-39.948-17.92-39.948-39.948-39.948z"></path><path fill="#3762CC" d="M127.938 246.309c-19.879 0-36.052-16.173-36.052-36.052s16.173-36.052 36.052-36.052 36.052 16.173 36.052 36.052-16.173 36.052-36.052 36.052zm0-68.104c-17.673 0-32.052 14.378-32.052 32.052 0 17.673 14.378 32.052 32.052 32.052s32.052-14.378 32.052-32.052-14.378-32.052-32.052-32.052z"></path></svg>