<svg xmlns="http://www.w3.org/2000/svg" viewBox="0 0 64 64" id="crm"><path d="M2,33H2A29.86,29.86,0,0,0,32,62l.77,0H33A29.86,29.86,0,0,0,62,32c0-.26,0-.53,0-.79V31h0A29.86,29.86,0,0,0,32,2l-.77,0H31A29.86,29.86,0,0,0,2,32c0,.26,0,.53,0,.79Zm2,.36,7.87-8L18,31.43c0,.19,0,.38,0,.57q0,.66.06,1.29l.06.42c0,.28.07.57.12.84s.07.33.11.49.11.5.18.74.11.33.16.5.15.46.24.69.13.33.2.49.19.43.3.65l.24.47c.11.21.23.41.36.62l.27.44c.13.2.28.4.42.6l.3.4c.16.2.33.39.5.58l.3.35c.21.22.43.44.65.64l.23.22c.3.27.62.53.95.78l.27.18q.36.27.75.51l.4.23c.22.13.45.25.68.37l.46.22.68.29.5.18.69.23.52.14.34.09L23.2,51.39a1,1,0,0,0,0,1.42L30.48,60A27.85,27.85,0,0,1,4,33.33ZM32,20c.26,0,.52,0,.77,0h.11A12,12,0,0,1,44,32c0,.25,0,.5,0,.75a.62.62,0,0,1,0,.13h0A12,12,0,0,1,32,44c-.26,0-.52,0-.77,0h-.11A12,12,0,0,1,20,32c0-.25,0-.5,0-.75a.62.62,0,0,1,0-.13h0A12,12,0,0,1,32,20Zm1.33,40-8-7.87L31.43,46,32,46q.66,0,1.29-.06l.42-.06q.43,0,.84-.12l.49-.11c.25-.06.5-.11.74-.18l.5-.16.69-.24.49-.2.65-.3.47-.24L39.2,44l.44-.28c.2-.13.4-.28.59-.42l.41-.3.58-.49.35-.31c.22-.21.43-.42.63-.64l.23-.24a11.82,11.82,0,0,0,.77-.95l.2-.28c.17-.24.34-.48.5-.73s.16-.28.23-.42.26-.44.37-.66.15-.32.22-.48.2-.44.29-.66l.18-.51c.08-.23.16-.45.22-.68s.1-.36.15-.54l.09-.33,5.74,5.74a1,1,0,0,0,.71.3h0a1,1,0,0,0,.71-.3L60,33.52A27.85,27.85,0,0,1,33.33,60ZM60,30.67l-7.87,8L46,32.57c0-.19,0-.38,0-.57q0-.66-.06-1.29l-.06-.42c0-.28-.07-.57-.12-.84s-.07-.33-.11-.49-.11-.5-.18-.74-.11-.33-.16-.5-.15-.46-.24-.69-.13-.33-.2-.49-.19-.43-.3-.65l-.24-.47c-.11-.21-.23-.41-.36-.62l-.27-.44c-.13-.2-.28-.4-.42-.6l-.3-.4c-.16-.2-.33-.39-.5-.58l-.3-.35c-.21-.22-.43-.44-.65-.64l-.23-.22c-.3-.27-.62-.53-.95-.78l-.27-.18q-.36-.27-.75-.51l-.4-.23c-.22-.13-.45-.25-.68-.37l-.46-.22L37.11,19l-.5-.18-.69-.23-.52-.14-.34-.09,5.74-5.74a1,1,0,0,0,0-1.42L33.52,4A27.85,27.85,0,0,1,60,30.67ZM30.67,4l8,7.87L32.57,18,32,18q-.66,0-1.29.06l-.42.06q-.43,0-.84.12l-.49.11c-.25.06-.5.11-.74.18l-.5.16q-.34.11-.69.24l-.49.2-.65.3-.47.24L24.8,20l-.44.28c-.2.13-.4.28-.59.42l-.41.3-.58.49-.35.31c-.22.21-.43.42-.63.64l-.23.24a11.82,11.82,0,0,0-.77.95l-.2.28c-.17.24-.34.48-.5.73s-.16.28-.23.42-.26.44-.37.66-.15.32-.22.48-.2.44-.29.66l-.18.51c-.08.23-.16.45-.22.68s-.1.36-.15.54l-.09.33L12.61,23.2a1,1,0,0,0-.71-.3h0a1,1,0,0,0-.71.3L4,30.48A27.85,27.85,0,0,1,30.67,4Z"></path><path d="M22 28v8a1 1 0 0 0 1 1h4a1 1 0 0 0 1-1V33H26v2H24V29h2v1h2V28a1 1 0 0 0-1-1H23A1 1 0 0 0 22 28zM31 33h1.18L33 37.2l2-.4L34.22 33A1 1 0 0 0 35 32V28a1 1 0 0 0-1-1H30a1 1 0 0 0-1 1v9h2zm0-4h2v2H31zM38 31.3l.17.25a1 1 0 0 0 1.66 0L40 31.3V37h2V28a1 1 0 0 0-.71-1 1 1 0 0 0-1.12.41L39 29.2l-1.17-1.75A1 1 0 0 0 36.71 27 1 1 0 0 0 36 28v9h2zM49 25a5 5 0 1 0-5-5A5 5 0 0 0 49 25zm0-8a3 3 0 1 1-3 3A3 3 0 0 1 49 17z"></path><rect width="11" height="2" x="38" y="46"></rect><rect width="9" height="2" x="38" y="50"></rect><rect width="5" height="2" x="38" y="54"></rect><rect width="2" height="4" x="48" y="18"></rect><path d="M13,35a6,6,0,1,0,6,6A6,6,0,0,0,13,35Zm0,10a4,4,0,1,1,4-4A4,4,0,0,1,13,45Z"></path><path d="M12.89,38.55l-1.78.9,1,2a.94.94,0,0,0,.44.44l2,1,.9-1.78-1.7-.86Z"></path><rect width="2" height="3" x="11" y="16"></rect><rect width="2" height="6" x="15" y="13"></rect><rect width="2" height="9" x="19" y="10"></rect><rect width="2" height="11" x="23" y="8"></rect></svg>