<svg xmlns="http://www.w3.org/2000/svg" viewBox="0 0 128 128" id="Mobileapplicationdevelopment"><path d="M119 64H87a2 2 0 0 1 0-4h32a2 2 0 0 1 0 4zM107 76H83a2 2 0 0 1 0-4h24a2 2 0 0 1 0 4zM107 52H83a2 2 0 0 1 0-4h24a2 2 0 0 1 0 4zM49.931 38c.502 0 .753.226.825.73.256 1.732.513 3.463.755 5.201.034.253.136.362.391.425a19.029 19.029 0 0 1 5.352 2.178c.135.08.447.071.574-.023 1.367-1.062 2.753-2.109 4.131-3.154.426-.322.811-.305 1.195.067 1.362 1.332 2.721 2.666 4.085 4.009.431.416.455.726.101 1.206-1.034 1.419-2.063 2.835-3.103 4.242-.125.172-.128.282-.021.457a19.182 19.182 0 0 1 2.436 5.802c.06.263.207.313.433.346 1.73.251 3.463.504 5.196.759.485.071.718.327.718.809.002 1.964.002 3.933 0 5.896 0 .482-.229.737-.714.809a637.72 637.72 0 0 1-5.174.748c-.269.038-.402.13-.469.416a19.13 19.13 0 0 1-2.219 5.396c-.104.173-.105.286.022.45 1.072 1.391 2.128 2.789 3.189 4.181.36.475.347.793-.07 1.216a5069.186 5069.186 0 0 1-3.983 4.062c-.394.401-.783.438-1.237.107-1.418-1.037-2.832-2.065-4.244-3.106-.094-.069-.323-.079-.424-.014a19.345 19.345 0 0 1-5.823 2.445c-.26.062-.308.195-.338.406a1241.93 1241.93 0 0 1-.759 5.232c-.072.476-.333.702-.822.702h-5.868c-.499 0-.751-.224-.827-.73-.252-1.732-.507-3.463-.75-5.201-.036-.253-.137-.362-.389-.425a18.927 18.927 0 0 1-5.351-2.178c-.134-.08-.45-.072-.577.024-1.37 1.061-2.754 2.109-4.131 3.153-.42.326-.815.3-1.194-.065a1711.926 1711.926 0 0 1-4.086-4.003c-.43-.422-.456-.731-.102-1.213 1.033-1.418 2.064-2.84 3.103-4.241.125-.172.13-.282.021-.457a19.225 19.225 0 0 1-2.439-5.802c-.063-.263-.201-.318-.43-.346-1.73-.252-3.462-.504-5.197-.759-.5-.071-.717-.327-.717-.841v-5.832c0-.514.223-.77.714-.841 1.733-.255 3.462-.508 5.199-.759.221-.029.368-.076.431-.344.452-1.936 1.212-3.752 2.226-5.457.1-.173.111-.286-.017-.45-1.075-1.391-2.129-2.785-3.192-4.181-.361-.475-.345-.793.071-1.216 1.342-1.367 2.681-2.744 4.023-4.102.368-.363.758-.378 1.171-.078a421.783 421.783 0 0 1 4.241 3.104c.104.077.367.085.479.015a19.26 19.26 0 0 1 5.774-2.425c.243-.06.33-.172.365-.413.244-1.747.5-3.484.753-5.232.074-.479.336-.705.827-.705h5.866M47 76.413c6.855 0 12.413-5.558 12.413-12.413S53.855 51.587 47 51.587c-6.856 0-12.414 5.558-12.414 12.413S40.144 76.413 47 76.413M49.931 34h-5.865c-2.449 0-4.415 1.688-4.78 4.106l-.442 3.046c-.832.295-1.649.638-2.447 1.026a590.246 590.246 0 0 0-2.424-1.764c-1.079-.782-3.096-2.539-6.36.507-.896.837-4.033 4.113-4.033 4.113-1.814 1.845-1.973 4.374-.399 6.44l1.794 2.357a23.134 23.134 0 0 0-.823 2.011c-1.012.147-2.014.294-3.018.442-2.471.36-4.134 2.288-4.134 4.8v5.832c0 2.518 1.669 4.446 4.152 4.801l2.998.438c.294.829.638 1.646 1.028 2.445-.381.521-1.752 2.405-1.752 2.405-1.527 2.074-1.323 4.602.531 6.423a1944.75 1944.75 0 0 0 4.093 4.01c1.807 1.741 4.453 1.904 6.44.366 0 0 1.619-1.228 2.34-1.777.661.307 1.332.58 2.013.821l.437 2.997C39.654 92.338 41.576 94 44.065 94h5.868c2.447 0 4.412-1.688 4.777-4.106.149-1.02.298-2.033.444-3.046a23.566 23.566 0 0 0 2.446-1.026l2.381 1.739c2.063 1.506 4.704 1.274 6.473-.555 1.312-1.335 2.638-2.687 3.968-4.044 1.808-1.835 1.969-4.364.397-6.434l-1.797-2.361c.308-.661.583-1.332.824-2.011 1.006-.146 2.014-.293 3.021-.442 2.43-.357 4.129-2.317 4.129-4.766.002-1.963.002-3.934 0-5.9 0-2.444-1.701-4.404-4.137-4.763l-3.016-.441a23.252 23.252 0 0 0-1.027-2.445l1.753-2.404c1.54-2.087 1.327-4.622-.554-6.439a2007.153 2007.153 0 0 0-4.067-3.992c-1.796-1.738-4.441-1.903-6.426-.38 0 0-1.701 1.289-2.356 1.789a22.773 22.773 0 0 0-2.014-.82c-.127-.875-.441-3.005-.441-3.005-.352-2.475-2.275-4.148-4.78-4.148zM47 72.413c-4.64 0-8.414-3.774-8.414-8.413S42.36 55.587 47 55.587c4.639 0 8.413 3.774 8.413 8.413S51.639 72.413 47 72.413zM57 120H37a2 2 0 0 1 0-4h20a2 2 0 0 1 0 4zM55 12H39a2 2 0 0 1 0-4h16a2 2 0 0 1 0 4z" fill="#052c55" class="color000000 svgShape"></path><path d="M81 80v28H13V20h68v24h4V8c0-4.418-3.63-8-8.106-8H17.106C12.63 0 9 3.582 9 8v112c0 4.418 3.63 8 8.106 8h59.787c4.477 0 8.106-3.582 8.106-8V80H81zM13 8c0-2.206 1.842-4 4.106-4h59.787C79.158 4 81 5.794 81 8v8H13V8zm68 112c0 2.206-1.842 4-4.106 4H17.106c-2.265 0-4.106-1.794-4.106-4v-8h68v8z" fill="#052c55" class="color000000 svgShape"></path></svg>