<svg xmlns="http://www.w3.org/2000/svg" enable-background="new 0 0 1200 900" viewBox="0 0 1200 900" id="website-design-by-designers"><path fill="#f03232" d="M579.713 199.646s12.849 25.366 12.516 31.404-12.447 12.816-12.447 12.816l-7.792-.43-5.667-14.587 13.39-29.203z"></path><path d="M587.692 178.701c3.148 6.33 8.39 11.923 9.134 18.953.39 3.684-.784 7.793-3.885 9.82-2.227 1.457-5.114 1.62-7.699.984-2.584-.635-4.928-1.99-7.178-3.413-5.734-3.624-11.394-8.14-13.733-14.509-2.415-6.576-.745-14.21 3.286-19.939 3.157-4.486 7.615-7.904 12.46-10.401.879-.453 2.431-1.563 3.478-1.364 1.325.252.81 1.554.736 2.589a33.774 33.774 0 0 0 .466 8.412 33.331 33.331 0 0 0 2.935 8.868z"></path><path fill="#ffc6b2" d="m518.688 223.506-4.843 3.338-25.175-5.463c.732-11.803 21.815-19.07 21.815-19.07l8.203 21.195z"></path><path fill="#f03232" d="M571.091 280.236c-.31 1.366-51.132-10.176-50.825-11.53l8.536-47.757-7.772 2.547c-6 3.169-21.2-20.523-15.217-23.67 0 0 10.196-5.781 20.342-9.64 8.976-3.431 19.284-6.822 26.102-7.34.081-.01.187-.013.29-.003 3.807-.03 16.98 4.46 16.98 4.46s15.054 15.154 15.348 24.342c.393 12.551-13.784 68.591-13.784 68.591z"></path><path fill="#ffc6b2" d="M581.29 175.651c-2.832 4.812-11.007 3.01-11.007 3.01-1.556 2.933-2.092 5.826-.762 8.643-.262 1.015-17.263-3.387-17-4.402l.012-.06c2.368-3.103 3.273-10.315 4.113-17.712 0 0-4.589-3.496-2.637-7.533 1.934-4.026 7.003.538 7.003.538l1.367-6.3s21.862 2.782 22.17 3.039c.15.111.058 3.667-.384 7.89l-.003.015c-.475 4.738-1.384 10.315-2.872 12.872z"></path><path d="m584.165 162.764-.003.015c-.332.07-.675.122-1.015.16-4.707.544-9.354-1.588-13.07-4.514-1.039-.826-2.318-1.784-3.584-1.347-.927.337-1.437 1.301-1.909 2.165-.472.862-1.118 1.798-2.108 1.915-.976.12-1.908-1.268-1.116-1.856l-.348-1.167s-5.069-4.564-7.003-.538c-1.952 4.037 2.637 7.533 2.637 7.533-.583 7.19-1.46 13.873-4.113 17.712a1.128 1.128 0 0 0-.27.005c-6.82.514-17.127 3.908-26.114 7.338-2.735-2.414-3.971-6.416-3.073-9.97.898-3.555 3.908-6.493 7.47-7.302 3.631-.842 7.353.378 11.053.754 3.696.39 8.1-.506 9.686-3.88 1.53-3.259-.374-7.025-.719-10.612-.572-6.042 3.607-11.81 8.998-14.564 5.395-2.769 11.755-2.987 17.772-2.282 3.456.402 6.953 1.129 9.874 2.98 2.935 1.856 5.215 5.056 5.158 8.525-.05 4.387-3.906 8.012-8.203 8.93z"></path><path fill="#ffc6b2" d="m530.629 258.531-10.235 6.199s-32.444-31.542-31.724-43.349l25.175 5.463 16.784 31.687z"></path><path fill="#2a0054" d="M570.283 178.787a.122.122 0 0 1-.038-.006c-.061-.02-6.047-1.982-8.614-6.093a.125.125 0 1 1 .212-.132c2.519 4.034 8.419 5.968 8.478 5.987a.125.125 0 0 1-.038.244z"></path><path fill="#fff" d="m528.866 221.058-.117-.221c.102-.054 10.234-5.487 12.655-15.105l.242.06c-2.448 9.729-12.677 15.212-12.78 15.266zM576.596 240.194l-.22-.119c.062-.116 6.274-11.711 7.102-19.546l.25.027c-.835 7.883-7.07 19.521-7.132 19.638z"></path><path fill="#ffc837" d="M521.665 239.404h97.818v25.197h-97.818z" transform="rotate(-33.015 570.574 252.003)"></path><path fill="#ffc6b2" d="M611.097 211.11h6.041v25.197h-6.041z" transform="rotate(-33.015 614.118 223.708)"></path><path fill="#ffc6b2" d="m623.515 232.626-13.729-21.128 20.986 1.391z"></path><path d="m628.382 219.39 2.39-6.501-6.912-.458z"></path><path fill="#fff" d="M611.519 212.534h.813v25.196h-.813z" transform="rotate(-33.015 611.925 225.132)"></path><path fill="#fff" d="M555.752 251.797c-.078-.12 3.431-2.555 10.638-7.309l18.398-11.954c7.265-4.65 10.915-6.867 10.996-6.744.08.123-3.432 2.555-10.63 7.308l-18.397 11.954c-7.274 4.651-10.923 6.872-11.005 6.745zM543.219 215.1c.09-.042.418.852 1.554 2.315a12.642 12.642 0 0 0 2.497 2.374c1.117.8 2.578 1.56 4.373 1.934 3.037.618 6.335.002 9.009-1.562.331-.2.66-.41.961-.652l.393-.303c.167-.238.295.022.434.152l.278.293c.065.072.137.137.207.204a10.99 10.99 0 0 0 1.836 1.425 11.3 11.3 0 0 0 4.347 1.583c1.814.272 3.44.048 4.757-.341a11.853 11.853 0 0 0 3.125-1.438c1.541-1.022 2.132-1.773 2.206-1.701.026.022-.1.223-.403.588a9.626 9.626 0 0 1-1.576 1.443 11.268 11.268 0 0 1-3.186 1.64 11.209 11.209 0 0 1-5.018.474 11.956 11.956 0 0 1-4.607-1.676c-.7-.434-1.354-.94-1.948-1.513-.074-.07-.15-.14-.22-.216l-.134-.143-.082.064c-.324.257-.673.48-1.024.694-2.84 1.652-6.254 2.295-9.495 1.643a11.727 11.727 0 0 1-4.565-2.145 11.898 11.898 0 0 1-2.486-2.581c-.55-.784-.85-1.436-1.039-1.868-.167-.445-.229-.672-.194-.686zM554.266 179.318s-4.878 3.693-4.618 3.836c.26.143 11.39 7.786 11.39 7.786l2.613-4.51-9.385-7.112z"></path><path fill="#fff" d="m563.65 186.43 3.777 4.835 2.094-3.96-.753-3.271-5.07 2.26"></path><path fill="#edf5fc" d="M206.811 704.907h737.841c13.401-13.848 28.374-26.11 42.236-39.483 71.336-68.818 109.02-171.017 99.433-269.672-3.506-36.086-14.103-73.495-40.39-98.462-34.828-33.08-90.5-36.295-135.152-18.59-44.652 17.702-80.093 52.769-110.845 89.668s-58.395 76.767-93.996 109.014c-25.668 23.25-57.337 42.874-91.969 43.093-53.882.341-96.333-44.906-126.376-89.637-30.043-44.731-58.276-95.487-107.347-117.747-36.28-16.458-78.978-14.138-116.668-1.233-94.831 32.472-160.46 134.883-150.344 234.608 2.124 20.938 7.584 41.483 15.81 60.842 16.45 38.712 43.824 72.715 77.767 97.599z"></path><path fill="#9bb2e1" d="M802.533 521.258a.5.5 0 0 1-.013-1 84.28 84.28 0 0 0 5.951-.361.5.5 0 1 1 .096.995 85.41 85.41 0 0 1-6.022.366h-.012zm-5.997-.07h-.025a79.865 79.865 0 0 1-6.014-.52.5.5 0 1 1 .124-.992c1.957.244 3.955.417 5.938.513a.5.5 0 0 1-.023 1zm17.929-1.072a.5.5 0 0 1-.081-.993 91.968 91.968 0 0 0 5.849-1.166.5.5 0 1 1 .228.974 92.974 92.974 0 0 1-5.914 1.179.52.52 0 0 1-.082.006zm-29.825-.416a.506.506 0 0 1-.1-.01 78.122 78.122 0 0 1-5.864-1.438.5.5 0 0 1 .275-.961 77.07 77.07 0 0 0 5.789 1.42.5.5 0 0 1-.1.989zm41.501-2.302a.5.5 0 0 1-.143-.979c1.884-.565 3.788-1.2 5.662-1.886a.5.5 0 1 1 .343.94 101.73 101.73 0 0 1-5.718 1.904.498.498 0 0 1-.144.021zm11.26-4.119a.5.5 0 0 1-.198-.959 109.35 109.35 0 0 0 5.412-2.52.5.5 0 1 1 .446.894c-1.8.9-3.639 1.755-5.462 2.544a.504.504 0 0 1-.198.041zm10.73-5.354a.5.5 0 0 1-.248-.935 116.807 116.807 0 0 0 5.116-3.08.5.5 0 1 1 .538.842 118.157 118.157 0 0 1-5.16 3.108.5.5 0 0 1-.247.065zm10.114-6.446a.5.5 0 0 1-.29-.907 122.958 122.958 0 0 0 4.784-3.58.5.5 0 1 1 .618.787 123.61 123.61 0 0 1-4.823 3.608.499.499 0 0 1-.29.092zm9.427-7.417a.5.5 0 0 1-.329-.878c1.497-1.3 2.983-2.655 4.416-4.027a.501.501 0 0 1 .692.723 126.003 126.003 0 0 1-4.452 4.06.498.498 0 0 1-.327.122zm8.667-8.295a.498.498 0 0 1-.363-.845 123.76 123.76 0 0 0 4.009-4.433.5.5 0 1 1 .758.652 125.134 125.134 0 0 1-4.041 4.47.5.5 0 0 1-.363.156zm7.827-9.095a.5.5 0 0 1-.394-.807 120.095 120.095 0 0 0 3.555-4.805.5.5 0 0 1 .818.574 120.794 120.794 0 0 1-3.584 4.846.5.5 0 0 1-.395.192zm6.891-9.825a.5.5 0 0 1-.422-.767 148.925 148.925 0 0 0 3.092-5.121.5.5 0 1 1 .866.5 150.701 150.701 0 0 1-3.112 5.155.5.5 0 0 1-.424.233zm5.999-10.394a.5.5 0 0 1-.442-.733c.917-1.744 1.82-3.542 2.684-5.345a.5.5 0 1 1 .902.432 161.106 161.106 0 0 1-2.701 5.379.5.5 0 0 1-.443.267zm5.186-10.818a.5.5 0 0 1-.458-.7 174.577 174.577 0 0 0 2.293-5.525.5.5 0 0 1 .93.368c-.74 1.87-1.515 3.74-2.306 5.556a.5.5 0 0 1-.46.3zm4.413-11.154a.5.5 0 0 1-.47-.669c.66-1.844 1.309-3.749 1.928-5.662a.5.5 0 1 1 .951.308 198.734 198.734 0 0 1-1.939 5.692.5.5 0 0 1-.47.331zm3.697-11.41a.5.5 0 0 1-.48-.64c.551-1.89 1.088-3.83 1.597-5.767a.5.5 0 1 1 .967.254c-.51 1.946-1.05 3.895-1.605 5.793a.5.5 0 0 1-.48.36zm3.046-11.6a.5.5 0 0 1-.487-.615c.45-1.914.887-3.88 1.3-5.842a.5.5 0 0 1 .978.205c-.414 1.97-.852 3.944-1.304 5.867a.5.5 0 0 1-.487.385zm2.469-11.738a.5.5 0 0 1-.493-.592c.367-1.96.712-3.926 1.038-5.897a.5.5 0 1 1 .986.163c-.326 1.978-.673 3.95-1.04 5.918a.5.5 0 0 1-.491.408zm1.96-11.835a.5.5 0 0 1-.495-.572c.287-1.975.557-3.954.81-5.935a.501.501 0 0 1 .992.126 341.416 341.416 0 0 1-.813 5.953.5.5 0 0 1-.494.428zm-489.708-11.24-1.146-.002a.5.5 0 0 1-.499-.501c.001-.276.208-.47.502-.499l1.143.002c1.616 0 3.232-.01 4.85-.03h.005a.5.5 0 0 1 .007 1c-1.62.02-3.242.03-4.862.03zm-7.144-.067h-.01c-2.001-.037-4.004-.09-6.005-.159a.5.5 0 0 1-.483-.516.508.508 0 0 1 .517-.483 383 383 0 0 0 5.99.158.5.5 0 0 1-.009 1zm17.998-.088a.5.5 0 0 1-.014-1 373.6 373.6 0 0 0 5.988-.218.5.5 0 1 1 .044.999c-2 .089-4.001.162-6.004.219h-.014zm-29.99-.322a.5.5 0 1 1 0 0zm510.366-.185a.5.5 0 0 1-.498-.555c.22-1.986.426-3.973.617-5.962a.5.5 0 1 1 .995.096 409.006 409.006 0 0 1-.618 5.976.5.5 0 0 1-.496.445zm-468.39-.026a.5.5 0 0 1-.029-.999 373.98 373.98 0 0 0 5.979-.41.501.501 0 0 1 .076.998 373.099 373.099 0 0 1-6.025.411zm-53.95-.571a392.052 392.052 0 0 0 .04-.998.5.5 0 0 1-.04.998zm65.916-.345a.5.5 0 0 1-.046-.997c1.989-.185 3.976-.386 5.961-.602a.5.5 0 1 1 .109.994 379.75 379.75 0 0 1-6.024.605zm-77.86-.804a.487.487 0 0 1-.055-.003c-1.99-.222-3.978-.46-5.965-.712a.5.5 0 0 1 .126-.992c1.982.252 3.965.488 5.95.71a.5.5 0 0 1-.055.997zm89.787-.495a.5.5 0 0 1-.062-.996c1.982-.248 3.961-.512 5.938-.791a.5.5 0 0 1 .14.99c-1.982.28-3.966.544-5.954.793a.494.494 0 0 1-.062.004zm-101.69-1.017a.505.505 0 0 1-.07-.005c-1.983-.283-3.963-.58-5.941-.893a.5.5 0 0 1 .156-.987c1.973.311 3.948.608 5.926.89a.5.5 0 0 1-.07.995zm113.568-.662a.5.5 0 0 1-.077-.993c1.972-.311 3.943-.637 5.91-.979a.501.501 0 0 1 .171.985c-1.972.343-3.948.67-5.926.981a.5.5 0 0 1-.078.006zm-125.419-1.21a.515.515 0 0 1-.086-.008 402.99 402.99 0 0 1-5.91-1.07.5.5 0 1 1 .185-.983c1.963.37 3.929.726 5.896 1.068a.5.5 0 0 1-.085.992zm137.24-.842a.5.5 0 0 1-.093-.991c1.962-.373 3.921-.76 5.877-1.164.275-.056.535.119.591.39s-.118.534-.389.59c-1.961.404-3.925.793-5.893 1.166a.516.516 0 0 1-.093.009zm-149.03-1.386a.506.506 0 0 1-.1-.01 401.32 401.32 0 0 1-5.877-1.248.5.5 0 1 1 .215-.976c1.95.43 3.904.844 5.861 1.244a.5.5 0 0 1-.1.99zm160.781-1.035a.5.5 0 0 1-.108-.988 388.83 388.83 0 0 0 5.84-1.345.5.5 0 1 1 .232.972c-1.949.465-3.9.915-5.855 1.35a.508.508 0 0 1-.109.011zm-172.5-1.545a.505.505 0 0 1-.115-.013c-1.948-.46-3.894-.934-5.836-1.423a.5.5 0 0 1 .244-.97c1.938.488 3.878.961 5.822 1.42a.5.5 0 0 1-.114.986zm184.172-1.24a.5.5 0 0 1-.124-.984 384.245 384.245 0 0 0 5.796-1.524.5.5 0 0 1 .262.965c-1.933.524-3.87 1.034-5.81 1.528a.493.493 0 0 1-.124.016zm398.525-.769-.042-.001a.5.5 0 0 1-.457-.54c.164-1.993.316-3.986.456-5.978a.5.5 0 1 1 .997.07c-.14 1.996-.292 3.993-.457 5.99a.5.5 0 0 1-.497.46zm-594.333-.92a.506.506 0 0 1-.129-.016 408 408 0 0 1-5.792-1.596.5.5 0 0 1 .273-.962c1.922.545 3.848 1.076 5.778 1.592a.5.5 0 0 1-.13.983zm207.39-1.451a.5.5 0 0 1-.14-.981c1.92-.552 3.836-1.12 5.747-1.7a.5.5 0 1 1 .291.956 396.457 396.457 0 0 1-5.76 1.705.494.494 0 0 1-.139.02zm-218.933-1.82a.499.499 0 0 1-.144-.021 403.724 403.724 0 0 1-5.742-1.767.5.5 0 1 1 .301-.954c1.905.602 3.814 1.19 5.728 1.763a.5.5 0 0 1-.143.979zm230.413-1.674a.5.5 0 0 1-.153-.976c1.902-.61 3.8-1.236 5.692-1.875a.5.5 0 1 1 .32.947c-1.897.642-3.8 1.268-5.706 1.88a.499.499 0 0 1-.153.024zm-241.857-1.94a.494.494 0 0 1-.158-.025c-1.9-.632-3.796-1.277-5.687-1.936a.5.5 0 0 1 .33-.945 398.67 398.67 0 0 0 5.673 1.932.5.5 0 0 1-.158.974zm253.226-1.899a.5.5 0 0 1-.167-.971c1.883-.668 3.76-1.35 5.633-2.046a.5.5 0 1 1 .35.937c-1.878.698-3.761 1.381-5.649 2.05a.5.5 0 0 1-.167.03zm-264.556-2.051a.5.5 0 0 1-.172-.03 404.902 404.902 0 0 1-5.628-2.104.5.5 0 0 1 .358-.934 402.8 402.8 0 0 0 5.613 2.098.5.5 0 0 1-.171.97zm629.492-.22-.03-.001a.5.5 0 0 1-.47-.53c.12-1.998.227-3.995.326-5.99a.5.5 0 0 1 .999.05 625.63 625.63 0 0 1-.326 6 .5.5 0 0 1-.499.47zm-353.686-1.91a.5.5 0 0 1-.181-.966 401.33 401.33 0 0 0 5.569-2.213.5.5 0 1 1 .376.927 401.51 401.51 0 0 1-5.583 2.219.502.502 0 0 1-.181.034zM280.64 348.01a.497.497 0 0 1-.186-.036 409.022 409.022 0 0 1-5.563-2.269.5.5 0 1 1 .385-.923c1.844.768 3.694 1.523 5.55 2.264a.5.5 0 0 1-.186.964zm298.133-2.36a.5.5 0 0 1-.195-.96c1.84-.78 3.673-1.572 5.501-2.379a.5.5 0 1 1 .404.915c-1.832.809-3.67 1.604-5.515 2.385a.499.499 0 0 1-.195.04zm-309.211-2.255a.5.5 0 0 1-.199-.041 404.485 404.485 0 0 1-5.493-2.434.5.5 0 0 1 .412-.91c1.82.822 3.647 1.631 5.48 2.426a.5.5 0 0 1-.2.959zm320.19-2.59a.5.5 0 0 1-.208-.954c1.815-.834 3.625-1.68 5.428-2.541a.5.5 0 1 1 .43.902 399.337 399.337 0 0 1-5.441 2.548.496.496 0 0 1-.208.045zm332.186-.72h-.02a.5.5 0 0 1-.48-.52c.082-1.996.156-3.993.22-5.991a.5.5 0 1 1 .999.032 660.756 660.756 0 0 1-.22 6 .5.5 0 0 1-.499.48zm-663.312-1.631a.496.496 0 0 1-.213-.048 401.898 401.898 0 0 1-5.418-2.595.5.5 0 1 1 .439-.899c1.796.877 3.597 1.74 5.405 2.589a.5.5 0 0 1-.213.953zm341.957-2.818a.5.5 0 0 1-.223-.947c1.79-.888 3.573-1.788 5.35-2.701a.5.5 0 1 1 .457.889c-1.78.916-3.568 1.818-5.362 2.707a.498.498 0 0 1-.222.052zm-352.74-2.447a.498.498 0 0 1-.226-.054 405.152 405.152 0 0 1-5.34-2.757.5.5 0 0 1 .467-.885c1.768.93 3.542 1.846 5.325 2.75a.5.5 0 0 1-.227.945zm363.412-3.04a.5.5 0 0 1-.236-.941c1.763-.94 3.518-1.893 5.267-2.859a.5.5 0 1 1 .484.876 410.808 410.808 0 0 1-5.28 2.865.498.498 0 0 1-.235.059zm311.062-2.057h-.01a.5.5 0 0 1-.49-.51c.042-1.998.072-3.996.089-5.994a.5.5 0 0 1 .5-.496h.004a.5.5 0 0 1 .496.504 473.43 473.43 0 0 1-.09 6.006.5.5 0 0 1-.5.49zm-685.096-.488a.496.496 0 0 1-.24-.061c-1.758-.959-3.509-1.93-5.253-2.915a.5.5 0 1 1 .493-.87c1.738.982 3.485 1.95 5.24 2.907a.5.5 0 0 1-.24.939zm384.539-3.256a.5.5 0 0 1-.249-.934c1.734-.992 3.461-1.996 5.18-3.013a.5.5 0 0 1 .51.86 397.967 397.967 0 0 1-5.194 3.02.498.498 0 0 1-.247.067zm-394.989-2.645a.498.498 0 0 1-.252-.069 401.33 401.33 0 0 1-5.163-3.072.5.5 0 1 1 .518-.855 399.341 399.341 0 0 0 5.15 3.064.5.5 0 0 1-.253.932zm405.316-3.464a.5.5 0 0 1-.261-.927c1.704-1.042 3.4-2.097 5.089-3.165a.5.5 0 1 1 .534.845 399.407 399.407 0 0 1-5.101 3.173.496.496 0 0 1-.26.074zm290.326-2.147a.5.5 0 0 1-.5-.497c-.012-1.998-.04-3.995-.084-5.991a.5.5 0 0 1 .49-.512h.01a.5.5 0 0 1 .5.49c.045 2.001.072 4.004.084 6.007a.5.5 0 0 1-.497.503h-.003zm-705.908-.603a.494.494 0 0 1-.264-.076 396.684 396.684 0 0 1-5.068-3.228.5.5 0 0 1 .544-.839 391.914 391.914 0 0 0 5.054 3.219.5.5 0 0 1-.266.924zm425.725-3.663a.5.5 0 0 1-.274-.919 396.333 396.333 0 0 0 4.992-3.314.5.5 0 0 1 .56.83 401.044 401.044 0 0 1-5.005 3.322.5.5 0 0 1-.273.081zm-435.797-2.86a.498.498 0 0 1-.278-.084 390.505 390.505 0 0 1-4.966-3.38.5.5 0 1 1 .57-.823 381.691 381.691 0 0 0 4.953 3.372.5.5 0 0 1-.279.915zm445.744-3.85a.5.5 0 0 1-.286-.91c1.639-1.142 3.27-2.296 4.891-3.462a.5.5 0 1 1 .584.812 406.435 406.435 0 0 1-4.904 3.47.497.497 0 0 1-.285.09zm269.967-1.021a.5.5 0 0 1-.499-.48c-.08-1.997-.178-3.991-.297-5.983a.5.5 0 0 1 .469-.53c.26-.019.512.194.529.47.12 1.999.218 4 .298 6.003a.5.5 0 0 1-.5.52zm-725.579-1.957c-.1 0-.202-.03-.29-.093a388.511 388.511 0 0 1-4.86-3.531.5.5 0 0 1 .594-.805 389.083 389.083 0 0 0 4.848 3.523.5.5 0 0 1-.292.906zm465.355-4.026a.5.5 0 0 1-.299-.902c1.605-1.19 3.2-2.391 4.787-3.605a.5.5 0 0 1 .607.794 403.805 403.805 0 0 1-4.798 3.615.497.497 0 0 1-.297.098zm-475.007-3.102a.497.497 0 0 1-.302-.103 391.219 391.219 0 0 1-4.748-3.68.5.5 0 0 1 .619-.786 384.11 384.11 0 0 0 4.735 3.672.5.5 0 0 1-.304.897zm734.511-2.894a.5.5 0 0 1-.498-.459 256.906 256.906 0 0 0-.555-5.963.5.5 0 1 1 .995-.104c.205 1.947.392 3.961.557 5.986a.5.5 0 0 1-.499.54zM671.45 290.82a.5.5 0 0 1-.31-.893 398.887 398.887 0 0 0 4.676-3.747.5.5 0 1 1 .63.776 400.92 400.92 0 0 1-4.687 3.757.498.498 0 0 1-.31.107zm-493.96-3.236a.497.497 0 0 1-.316-.112 378.75 378.75 0 0 1-4.63-3.827.5.5 0 1 1 .643-.766 376.695 376.695 0 0 0 4.618 3.817.5.5 0 0 1-.316.888zm503.266-4.337a.5.5 0 0 1-.322-.883 393.01 393.01 0 0 0 4.56-3.887.5.5 0 1 1 .655.756 397.438 397.438 0 0 1-4.572 3.897.497.497 0 0 1-.321.117zm239.412-3.065a.5.5 0 0 1-.495-.435c-.261-1.995-.55-3.989-.856-5.925a.5.5 0 1 1 .988-.156c.308 1.945.597 3.947.859 5.951a.5.5 0 0 1-.496.565zm-751.864-.314a.499.499 0 0 1-.328-.122 383.346 383.346 0 0 1-4.506-3.971.5.5 0 0 1 .667-.745 381.362 381.362 0 0 0 4.494 3.96.5.5 0 0 1-.327.878zm521.525-4.472a.499.499 0 0 1-.333-.874 394.01 394.01 0 0 0 4.441-4.022.5.5 0 0 1 .677.735 395.964 395.964 0 0 1-4.452 4.034.499.499 0 0 1-.333.127zm-530.462-3.531a.498.498 0 0 1-.34-.133c-1.47-1.36-2.93-2.73-4.378-4.114a.5.5 0 0 1 .69-.723c1.445 1.38 2.9 2.747 4.367 4.103a.5.5 0 0 1-.34.867zm758.92-3.533a.5.5 0 0 1-.491-.407c-.37-1.962-.773-3.935-1.198-5.863a.5.5 0 1 1 .977-.215c.427 1.938.832 3.92 1.203 5.893a.5.5 0 0 1-.491.592zm-219.627-1.06a.5.5 0 0 1-.344-.863c1.45-1.374 2.888-2.76 4.316-4.156a.5.5 0 0 1 .7.715c-1.432 1.4-2.875 2.79-4.328 4.167a.498.498 0 0 1-.344.137zm8.578-8.389a.498.498 0 0 1-.355-.852 393.874 393.874 0 0 0 4.186-4.287.5.5 0 1 1 .72.693 389.238 389.238 0 0 1-4.196 4.298.498.498 0 0 1-.355.148zm208.461-2.265a.5.5 0 0 1-.484-.377 176.274 176.274 0 0 0-1.408-5.186l-.169-.584a.5.5 0 1 1 .96-.279l.17.586a176.38 176.38 0 0 1 1.416 5.216.5.5 0 0 1-.485.624zm-200.145-6.385a.5.5 0 0 1-.366-.84 388.96 388.96 0 0 0 4.052-4.416.5.5 0 1 1 .742.67 386.83 386.83 0 0 1-4.062 4.427.499.499 0 0 1-.366.16zm196.77-5.127a.5.5 0 0 1-.475-.341 153.483 153.483 0 0 0-2.009-5.633.5.5 0 1 1 .935-.354 154.434 154.434 0 0 1 2.022 5.67.5.5 0 0 1-.474.658zm-188.726-3.778a.5.5 0 0 1-.376-.83 386.338 386.338 0 0 0 3.91-4.539.5.5 0 1 1 .763.646 384.403 384.403 0 0 1-3.921 4.553.5.5 0 0 1-.376.17zm184.472-7.44a.5.5 0 0 1-.46-.304 146.668 146.668 0 0 0-2.454-5.453.5.5 0 1 1 .903-.43 147.69 147.69 0 0 1 2.47 5.491.5.5 0 0 1-.46.696zm-176.712-1.713a.498.498 0 0 1-.386-.818 372.853 372.853 0 0 0 3.766-4.661.5.5 0 0 1 .783.622 374.9 374.9 0 0 1-3.776 4.674.499.499 0 0 1-.387.183zm171.562-9.123a.5.5 0 0 1-.442-.267 136.05 136.05 0 0 0-2.907-5.223.5.5 0 0 1 .863-.506c1.002 1.71 1.987 3.48 2.928 5.263a.5.5 0 0 1-.442.733zm-164.095-.272a.5.5 0 0 1-.396-.805 374.937 374.937 0 0 0 3.616-4.78.5.5 0 0 1 .802.597 383.323 383.323 0 0 1-3.625 4.792.5.5 0 0 1-.397.196zm7.165-9.63a.498.498 0 0 1-.405-.792c.83-1.151 1.659-2.307 2.489-3.464l1.01-1.41a.5.5 0 0 1 .812.584l-1.01 1.408c-.83 1.158-1.659 2.315-2.49 3.468a.5.5 0 0 1-.406.207zm150.865-.449a.5.5 0 0 1-.42-.228 126.195 126.195 0 0 0-3.37-4.935.5.5 0 1 1 .813-.584c1.157 1.61 2.3 3.285 3.396 4.975a.5.5 0 0 1-.42.772zm-143.848-9.285a.498.498 0 0 1-.403-.796 254.306 254.306 0 0 1 3.608-4.809.5.5 0 1 1 .792.61 251.076 251.076 0 0 0-3.593 4.79.5.5 0 0 1-.404.205zm136.845-.455a.5.5 0 0 1-.392-.188 115.34 115.34 0 0 0-3.84-4.576.5.5 0 1 1 .749-.662 116.39 116.39 0 0 1 3.874 4.615.5.5 0 0 1-.391.811zm-7.952-8.98a.498.498 0 0 1-.356-.148 106.7 106.7 0 0 0-4.31-4.132.5.5 0 1 1 .67-.741 107.401 107.401 0 0 1 4.352 4.17.5.5 0 0 1-.356.852zm-121.547-.052a.5.5 0 0 1-.384-.82c1.336-1.605 2.67-3.13 3.966-4.535a.5.5 0 0 1 .735.678 117.106 117.106 0 0 0-3.932 4.497.498.498 0 0 1-.385.18zm112.654-7.993a.5.5 0 0 1-.313-.11 98.735 98.735 0 0 0-4.761-3.597.5.5 0 0 1 .578-.816 99.712 99.712 0 0 1 4.81 3.634.5.5 0 0 1-.314.89zm-104.497-.799a.5.5 0 0 1-.345-.862 76.281 76.281 0 0 1 4.536-3.985.5.5 0 1 1 .628.777 75.445 75.445 0 0 0-4.475 3.933.499.499 0 0 1-.344.137zm94.71-6.128a.5.5 0 0 1-.262-.075 82.893 82.893 0 0 0-5.176-2.96.5.5 0 1 1 .465-.886 83.173 83.173 0 0 1 5.237 2.995.5.5 0 0 1-.263.926zm-85.374-1.386a.499.499 0 0 1-.278-.916 64.971 64.971 0 0 1 5.182-3.11.5.5 0 1 1 .475.88 63.875 63.875 0 0 0-5.103 3.062.497.497 0 0 1-.276.084zm74.762-4.19a.5.5 0 0 1-.2-.043 86.222 86.222 0 0 0-5.543-2.202.5.5 0 1 1 .337-.941 87.372 87.372 0 0 1 5.607 2.227.5.5 0 0 1-.2.958zm-64.216-1.497a.5.5 0 0 1-.197-.96 69.96 69.96 0 0 1 5.655-2.127.5.5 0 0 1 .312.95 68.942 68.942 0 0 0-5.574 2.096.497.497 0 0 1-.196.04zm52.927-2.544a.497.497 0 0 1-.136-.019 87.936 87.936 0 0 0-5.793-1.422.5.5 0 1 1 .205-.979c1.96.411 3.93.895 5.859 1.439a.5.5 0 0 1-.135.981zm-41.54-1.194a.5.5 0 0 1-.116-.986c1.936-.46 3.93-.85 5.926-1.159a.5.5 0 0 1 .153.988 74.99 74.99 0 0 0-5.847 1.144.513.513 0 0 1-.116.013zm29.804-1.265a.514.514 0 0 1-.07-.005 85.805 85.805 0 0 0-5.932-.614.5.5 0 0 1 .068-.998c1.993.136 4.013.345 6.002.621a.5.5 0 0 1-.068.996zm-17.958-.574a.5.5 0 0 1-.038-.998 82.183 82.183 0 0 1 6.03-.241h.002a.5.5 0 0 1 .002 1 81.256 81.256 0 0 0-5.996.24z"></path><path fill="#829ed9" d="M857.425 678.308v4.934c0 11.96-9.704 21.665-21.675 21.665H329.516c-11.97 0-21.665-9.705-21.665-21.665v-4.934a6.682 6.682 0 0 1 6.688-6.688h536.188c3.692 0 6.698 2.985 6.698 6.688zM828.867 357.53v314.08h-492.47V357.54c0-9.45 7.67-17.11 17.11-17.11h458.28c9.43 0 17.08 7.66 17.08 17.1z"></path><path fill="#fff" d="M821.503 671.61V357.513c0-5.37-4.353-9.723-9.723-9.723H353.486c-5.37 0-9.724 4.353-9.724 9.723V671.61h477.741z"></path><path fill="#5d81c1" d="m634.906 671.61-6.688 11.334a5.303 5.303 0 0 1-4.567 2.608h-82.035a5.303 5.303 0 0 1-4.567-2.608l-6.688-11.334h104.545z"></path><path d="M803.337 340.43v303.04c0 6.22-5.03 11.25-11.25 11.25h-409.45c-6.22 0-11.26-5.03-11.26-11.25V340.43h431.96z" opacity=".08"></path><path fill="#719bff" d="M798.618 259.827V635.51c0 6.219-5.032 11.25-11.25 11.25H377.908c-6.21 0-11.25-5.031-11.25-11.25V259.827c0-6.21 5.04-11.242 11.25-11.242h409.458c6.22 0 11.25 5.031 11.25 11.242z"></path><path fill="#fff" d="M372.124 633.66V285.34a7.639 7.639 0 0 1 7.64-7.639h405.755a7.639 7.639 0 0 1 7.638 7.639v348.32a7.639 7.639 0 0 1-7.638 7.64H379.763a7.639 7.639 0 0 1-7.639-7.64z"></path><path d="M773.224 626.84H608.191a5.787 5.787 0 0 1-5.787-5.787v-155.52a5.787 5.787 0 0 1 5.787-5.788h165.033a5.787 5.787 0 0 1 5.787 5.787v155.52a5.787 5.787 0 0 1-5.787 5.788z" opacity=".05"></path><path fill="#e4f0fd" d="M770.82 623.904H605.787a5.787 5.787 0 0 1-5.787-5.787v-155.52a5.787 5.787 0 0 1 5.787-5.788H770.82a5.787 5.787 0 0 1 5.787 5.787v155.52a5.787 5.787 0 0 1-5.787 5.788z"></path><path d="M771.949 485.338v9.074a2.376 2.376 0 0 1-2.38 2.373H684.44a2.376 2.376 0 0 1-2.38-2.373v-9.074a2.38 2.38 0 0 1 2.38-2.373h85.127a2.38 2.38 0 0 1 2.38 2.373zM682.06 509.851h89.888v1.717H682.06zM682.06 503.464h89.888v1.716H682.06zM682.06 516.239h89.888v1.716H682.06zM682.06 529.022h37.825v1.709H682.06zM682.06 522.627h89.888v1.716H682.06zM674.277 485.323v45.527a4.132 4.132 0 0 1-4.134 4.126H613.64a4.13 4.13 0 0 1-4.127-4.126v-45.527a4.13 4.13 0 0 1 4.127-4.127h56.503a4.132 4.132 0 0 1 4.134 4.127z" opacity=".08"></path><path fill="#ffc837" d="M672.205 483.513v45.527a4.132 4.132 0 0 1-4.134 4.126h-56.503a4.13 4.13 0 0 1-4.127-4.126v-45.527a4.13 4.13 0 0 1 4.127-4.127h56.503a4.132 4.132 0 0 1 4.134 4.127z"></path><path d="M619.85 497.987v20.199c0 2.92 2.385 5.305 5.33 5.305h32.537c2.945 0 5.33-2.385 5.33-5.305v-20.199c0-2.92-2.385-5.306-5.33-5.306H625.18c-2.945 0-5.33 2.385-5.33 5.306z" opacity=".1"></path><path fill="#fff" d="M771.615 484.767v9.074a2.376 2.376 0 0 1-2.38 2.372h-85.128a2.376 2.376 0 0 1-2.38-2.372v-9.074a2.38 2.38 0 0 1 2.38-2.373h85.128a2.38 2.38 0 0 1 2.38 2.373zM681.727 509.28h89.888v1.717h-89.888zM681.727 502.892h89.888v1.716h-89.888zM681.727 515.667h89.888v1.716h-89.888zM681.727 522.055h89.888v1.716h-89.888zM681.727 528.525h37.825v1.709h-37.825zM618.225 496.177v20.199c0 2.92 2.385 5.305 5.33 5.305h32.537c2.945 0 5.33-2.385 5.33-5.305v-20.199c0-2.92-2.385-5.306-5.33-5.306h-32.538c-2.944 0-5.329 2.385-5.329 5.306z"></path><path fill="#ffc837" d="M656.599 515.414a.89.89 0 0 1 .094 1.247.897.897 0 0 1-.67.305.872.872 0 0 1-.577-.211l-11.77-10.113-3.293 2.834a.873.873 0 0 1-.577.211c-.2 0-.411-.07-.576-.211l-3.269-2.81-11.76 10.136a.874.874 0 0 1-.575.211.896.896 0 0 1-.67-.305.89.89 0 0 1 .093-1.247l11.56-9.96-11.56-9.948a.89.89 0 0 1-.094-1.247.89.89 0 0 1 1.247-.094l12.288 10.584 3.316 2.845 15.64-13.452a.89.89 0 0 1 1.247.094.89.89 0 0 1-.094 1.246l-11.56 9.948 11.56 9.937z"></path><path d="M771.949 551.688v9.074a2.376 2.376 0 0 1-2.38 2.373H684.44a2.376 2.376 0 0 1-2.38-2.373v-9.074a2.38 2.38 0 0 1 2.38-2.372h85.127a2.38 2.38 0 0 1 2.38 2.372zM682.06 576.202h89.888v1.717H682.06zM682.06 569.814h89.888v1.716H682.06zM682.06 582.589h89.888v1.716H682.06zM682.06 595.372h37.825v1.709H682.06zM682.06 588.977h89.888v1.716H682.06zM674.277 551.673V597.2a4.132 4.132 0 0 1-4.134 4.126H613.64a4.13 4.13 0 0 1-4.127-4.126v-45.527a4.13 4.13 0 0 1 4.127-4.126h56.503a4.132 4.132 0 0 1 4.134 4.126z" opacity=".08"></path><path fill="#ff784b" d="M672.205 549.863v45.527a4.132 4.132 0 0 1-4.134 4.126h-56.503a4.13 4.13 0 0 1-4.127-4.126v-45.527a4.13 4.13 0 0 1 4.127-4.126h56.503a4.132 4.132 0 0 1 4.134 4.126z"></path><path d="M619.85 564.337v20.199c0 2.92 2.385 5.305 5.33 5.305h32.537c2.945 0 5.33-2.384 5.33-5.305v-20.199c0-2.92-2.385-5.305-5.33-5.305H625.18c-2.945 0-5.33 2.384-5.33 5.305z" opacity=".1"></path><path fill="#fff" d="M771.615 551.117v9.074a2.376 2.376 0 0 1-2.38 2.373h-85.128a2.376 2.376 0 0 1-2.38-2.373v-9.074a2.38 2.38 0 0 1 2.38-2.373h85.128a2.38 2.38 0 0 1 2.38 2.373zM681.727 575.63h89.888v1.717h-89.888zM681.727 569.242h89.888v1.716h-89.888zM681.727 582.018h89.888v1.716h-89.888zM681.727 588.405h89.888v1.716h-89.888zM681.727 594.875h37.825v1.709h-37.825zM618.225 562.527v20.199c0 2.92 2.385 5.305 5.33 5.305h32.537c2.945 0 5.33-2.384 5.33-5.305v-20.199c0-2.92-2.385-5.305-5.33-5.305h-32.538c-2.944 0-5.329 2.385-5.329 5.305z"></path><path d="M415.277 324.991h111.52v97.03h-111.52z" opacity=".08"></path><circle cx="388.136" cy="265.576" r="5.302" fill="#fff"></circle><circle cx="402.8" cy="265.576" r="5.302" fill="#fff"></circle><circle cx="417.464" cy="265.576" r="5.302" fill="#fff"></circle><path fill="#719bff" d="M577 481.76V567c0 2.59-2.11 4.7-4.7 4.7H393.78c-2.59 0-4.7-2.11-4.7-4.7v-85.24c0-2.6 2.11-4.7 4.7-4.7H572.3c2.59 0 4.7 2.1 4.7 4.7z"></path><path d="M463.716 524.372h106.898v3.908H463.716zM463.716 535.606h106.898v3.908H463.716zM463.716 546.84h106.898v3.908H463.716zM541.846 501.189v9.82c0 1.36-1.1 2.46-2.46 2.46h-73.2c-1.36 0-2.47-1.1-2.47-2.46v-9.82c0-1.36 1.11-2.47 2.47-2.47h73.2c1.36 0 2.46 1.11 2.46 2.47z" opacity=".1"></path><path fill="#fff" d="M462.95 523.223h106.898v3.908H462.95zM462.95 534.457h106.898v3.908H462.95zM462.95 545.691h106.898v3.908H462.95z"></path><circle cx="429.182" cy="526.667" r="25.399" opacity=".15"></circle><circle cx="428.292" cy="525.542" r="25.399" fill="#fff"></circle><g opacity=".15"><circle cx="429.221" cy="518.733" r="6.415"></circle><path d="M443.46 540.356c-.578-7.385-6.718-13.212-14.254-13.225-7.536-.014-13.697 5.79-14.3 13.174l28.553.051z"></path></g><circle cx="428.328" cy="517.939" r="6.415" fill="#ff5252"></circle><path fill="#ff5252" d="M442.566 539.563c-.577-7.385-6.717-13.212-14.253-13.226-7.536-.014-13.697 5.79-14.301 13.174l28.554.052z"></path><path fill="#fff" d="M541.08 500.04v9.82c0 1.36-1.1 2.46-2.46 2.46h-73.2c-1.36 0-2.47-1.1-2.47-2.46v-9.82c0-1.36 1.11-2.47 2.47-2.47h73.2c1.36 0 2.46 1.11 2.46 2.47z"></path><path fill="#ffc6b2" d="M600.563 577.236s5.4 10.125 2.738 16.652c-2.662 6.528-31.27 7.077-31.27 7.077s-2.5-6.671-2.508-7.447c-.008-.775 2.906-12.389 3.582-13.364s7.84-7.335 7.84-7.335l19.618 4.417z"></path><path d="M564.028 744.034h25.967v4.344h-25.967z" transform="rotate(-.222 577.01 746.199)"></path><path d="m564.02 744.088 25.966-.108-.048-12.375-15.05.067z"></path><path fill="#fff" d="M564.016 743.812h12.801v.5h-12.801z" transform="rotate(-.223 570.425 744.061)"></path><path fill="#fff" d="M584.51 747.178c.001.427.044.802.14 1.166l.52-.002c0-.02 0-.042-.01-.062a4.65 4.65 0 0 1-.13-1.104 4.882 4.882 0 0 1 1.02-3.025c.041-.052.083-.104.135-.156a4.95 4.95 0 0 1 3.794-1.807l-.002-.52a5.482 5.482 0 0 0-4.345 2.172c-.041.053-.073.105-.114.157a5.4 5.4 0 0 0-1.008 3.18z"></path><path d="M527.024 744.034h25.967v4.344h-25.967z" transform="rotate(-.222 540.006 746.199)"></path><path d="m527.016 744.088 25.966-.108-.047-12.375-15.05.067z"></path><path fill="#fff" d="M527.012 743.812h12.801v.5h-12.801z" transform="rotate(-.223 533.42 744.062)"></path><path fill="#fff" d="M547.506 747.178c.001.427.044.802.14 1.166l.52-.002c0-.02 0-.042-.01-.062a4.65 4.65 0 0 1-.13-1.104 4.882 4.882 0 0 1 1.02-3.025c.041-.052.083-.104.135-.156a4.95 4.95 0 0 1 3.795-1.807l-.002-.52a5.482 5.482 0 0 0-4.346 2.172c-.041.053-.073.105-.114.157a5.4 5.4 0 0 0-1.008 3.18z"></path><path fill="#0039b2" d="M533.971 733.108c3.727 1.646 22.206.985 23.283.137.236-.19 10.687-81.399 10.687-81.399s3.057 80.458 3.248 80.646c1.048 1.064 17.57 2.616 21.632.31.592-.335.27-83.329.27-83.329-.121.248 6.597-26.123-4.414-36.506l-43.89.754s-11.481 119.093-10.816 119.387z"></path><path fill="#fff" d="M567.916 652.201c-.018 0-.037-.137-.05-.414a15.78 15.78 0 0 1-.003-1.246c.027-.554.048-1.25.245-2.083.05-.208.122-.425.251-.646l.433-.576c.328-.372.702-.748 1.126-1.113 1.45-1.213 2.96-2.341 4.038-3.866 1.086-1.506 1.742-3.291 2.02-5.133.374-2.17.286-3.837.196-4.927-.102-1.093-.215-1.633-.171-1.642.017-.004.065.127.134.395.07.268.158.674.236 1.224.15 1.097.287 2.787-.063 5.005-.284 1.878-.957 3.72-2.08 5.275-1.11 1.571-2.664 2.73-4.09 3.923-.423.355-.789.712-1.111 1.062l-.422.536a2.125 2.125 0 0 0-.228.556c-.208.782-.26 1.478-.314 2.023-.09 1.097-.106 1.647-.147 1.647zM557.61 639.041c-.461 0-.929-.053-1.395-.161-2.974-.698-4.977-3.736-4.56-6.917l.726-5.557a.915.915 0 0 1 .352-.613.912.912 0 0 1 .674-.186l10.128 1.337a.92.92 0 0 1 .8 1.025l-.773 5.82a6.048 6.048 0 0 1-2.544 4.178 5.945 5.945 0 0 1-3.407 1.074zm-1.282-.648a5.468 5.468 0 0 0 4.405-.837 5.546 5.546 0 0 0 2.333-3.833l.772-5.818a.42.42 0 0 0-.367-.465l-10.13-1.337a.408.408 0 0 0-.302.086.419.419 0 0 0-.162.281l-.727 5.558c-.383 2.929 1.452 5.724 4.178 6.365zM584.749 635.975a4.256 4.256 0 0 1-2.413-.75 4.33 4.33 0 0 1-1.843-2.978l-.576-4.089a.723.723 0 0 1 .622-.81l7.118-.996a.713.713 0 0 1 .53.141.719.719 0 0 1 .28.48l.541 3.905c.315 2.273-1.102 4.458-3.227 4.974-.345.083-.69.123-1.032.123zm3.003-9.13c-.008 0-.018 0-.027.002l-7.118.996a.22.22 0 0 0-.194.248l.575 4.087a3.827 3.827 0 0 0 1.63 2.634c.898.612 1.979.81 3.045.554 1.878-.456 3.13-2.397 2.85-4.419l-.541-3.906a.224.224 0 0 0-.088-.15.217.217 0 0 0-.132-.046z"></path><path fill="#ff784b" d="M592.086 554.675c2.917 4.414 6.86 14.431 10.514 22.877.467 1.935-17.693 6.313-18.16 4.378-.06-.246 7.646-27.255 7.646-27.255z"></path><path fill="#3cd278" d="M543.163 617.507c-1.928-8.91-3.875-58.383.29-62.538 9.057-9.036 38.416-9.17 48.006-.787 7.331 6.409 4.195 53.76 3.025 65.447-1.057 3.589-49.291 4.225-51.321-2.122z"></path><path fill="#ffc6b2" d="M488.36 552.796c-.172 1.913 6.025 4.186 6.025 4.186l19.44 35.144c2.02 3.572 6.413 5.034 10.175 3.41l12.791-5.53-7.721-22.822c-.29 0-6.396 3.04-6.396 3.04l-24.031-21.568s-.244-7.244-1.678-6.26c-1.416.992-1.335 3.373-1.335 3.373s-6.035-7.866-7.1-6.341c-1.271 1.83 4.268 7.532 4.268 7.532s-3.996.965-4.439 5.836z"></path><path fill="#3cd278" d="M544.766 553.83s-18.902 13.3-19.992 14.591c-1.618 1.915 8.1 24.882 9.289 24.417l13.733-6.635c5.585-2.581 8.43-8.645 8.48-14.798.067-8.15-2.462-16.464-11.51-17.574z"></path><path fill="#ffc6b2" d="M556.624 542.267s-5.76-1.36-6.319-4.56c-.56-3.199-.8-16.076 1.52-18.156s17.836-.24 17.676 0c-.16.24-1.84 13.198-1.84 13.198l-11.037 9.518z"></path><path fill="#fff" d="M554.382 573.343c.059-.01.242.472.327 1.496.076 1.014.03 2.612-.728 4.561-.66 1.639-1.742 3.103-3.06 4.26-1.318 1.166-2.822 2.064-4.33 2.888l-4.033 2.064c-.886.463-1.326.704-1.373.636-.037-.053.328-.41 1.167-.98.833-.578 2.162-1.325 3.916-2.31 1.494-.816 2.953-1.691 4.206-2.801 1.255-1.103 2.26-2.466 2.885-4.012.768-1.813.91-3.319.949-4.298.033-.989-.012-1.49.074-1.504zM595.043 571.38c.143-.017.37.865.63 2.668l.51 4.602c.141 1.815.111 2.724-.035 2.74-.146.017-.37-.864-.634-2.666l-.51-4.601c-.137-1.818-.11-2.727.039-2.744z"></path><path d="M608.166 575.542c-1.44 2.322-3.552 4.156-5.769 5.734-4.016 2.855-8.461 5.026-12.988 6.964-4.144 1.765-8.485 3.355-12.977 3.424-3.656.047-7.254-.905-10.725-2.042-4.63-1.52-9.308-3.494-12.593-7.092-1.381-1.52-2.53-3.483-2.263-5.525.243-1.88 1.59-3.378 2.762-4.852a33.08 33.08 0 0 0 5.014-8.798c.894-2.356 1.474-5.154.105-7.266-1.51-2.333-4.736-2.855-6.72-4.793-2.09-2.055-2.426-5.444-1.44-8.195.987-2.762 3.064-4.991 5.281-6.906 1.08-.929 2.229-1.811 3.076-2.948 1.52-2.032 1.648-5.63-.627-7.255-3.018-2.159-7.324.372-10.875-.684-2.81-.848-4.55-3.982-4.318-6.907.244-2.925 2.147-5.524 4.561-7.196 2.415-1.66 5.305-2.507 8.183-3.064 4.341-.847 8.95-1.114 13.116.394 4.167 1.498 7.8 5.061 8.369 9.46.534 4.016-1.474 7.974-1.358 12.025.162 5.652 4.27 10.716 9.378 13.232 1.154.568 3.088 1.277 4.887 1.613 6.116 1.15 12.524 2.682 17.05 6.965 1.08 1.02 2.055 2.205 2.565 3.61.418 1.16.511 2.413.592 3.655.395 5.618.685 11.666-2.286 16.447z"></path><path fill="#0039b2" d="M539.46 434.342H397.934V307.306H539.46v127.036zm-139.526-2H537.46V309.306H399.934v123.036z"></path><path fill="#0039b2" d="M544.093 304.516v8.851c0 .67-.536 1.214-1.206 1.214h-8.851c-.67 0-1.214-.544-1.214-1.214v-8.851c0-.67.544-1.206 1.214-1.206h8.851c.67 0 1.206.536 1.206 1.206zM404.57 304.516v8.851c0 .67-.536 1.214-1.206 1.214h-8.851c-.67 0-1.214-.544-1.214-1.214v-8.851c0-.67.544-1.206 1.214-1.206h8.85c.67 0 1.207.536 1.207 1.206zM544.093 428.84v8.852c0 .67-.536 1.214-1.206 1.214h-8.851c-.67 0-1.214-.544-1.214-1.214v-8.851c0-.67.544-1.206 1.214-1.206h8.851c.67 0 1.206.536 1.206 1.206zM404.57 428.84v8.852c0 .67-.536 1.214-1.206 1.214h-8.851c-.67 0-1.214-.544-1.214-1.214v-8.851c0-.67.544-1.206 1.214-1.206h8.85c.67 0 1.207.536 1.207 1.206z"></path><path fill="#ffc837" d="M413.107 322.31h111.52v97.03h-111.52z"></path><g opacity=".1"><path d="m505.127 393.253-71.39-.4c-.99 0-1.58-1.158-.969-1.958l24.464-33.222c.505-.673 1.515-.673 2 .021l14.547 20.422a1.225 1.225 0 0 0 1.895.126L485 368.179a1.235 1.235 0 0 1 1.853.042l19.242 23.01c.674.8.085 2.022-.968 2.022z"></path><path d="M479.205 357.21a6.827 6.827 0 1 1-13.655-.078 6.827 6.827 0 0 1 13.655.077z"></path></g><path fill="#fff" d="m503.96 391.306-71.391-.4c-.99 0-1.58-1.158-.969-1.958l24.464-33.221c.505-.674 1.516-.674 2 .02l14.547 20.422a1.225 1.225 0 0 0 1.895.126l9.327-10.063a1.235 1.235 0 0 1 1.852.042l19.243 23.011c.673.8.084 2.021-.969 2.021z"></path><path fill="#fff" d="M478.037 355.263a6.827 6.827 0 1 1-13.655-.077 6.827 6.827 0 0 1 13.655.077z"></path><path fill="#719bff" d="m572.031 449.677-14.479 4.639a.403.403 0 0 0-.249.249l-4.647 14.487c-.112.362-.627.354-.74-.008l-8.433-28.066a.387.387 0 0 1 .482-.482l28.066 8.441c.362.105.362.62 0 .74z"></path><path d="M179.743 741.467h4.725v28.248h-4.725z" transform="rotate(-89.778 182.106 755.59)"></path><path d="m196.239 753.287-28.248-.118.052-13.462 16.372.073z"></path><path fill="#fff" d="M189.03 746.295h.5v13.925h-.5z" transform="rotate(-89.742 189.28 753.258)"></path><path fill="#fff" d="M173.95 756.648a4.997 4.997 0 0 1-.153 1.269l-.567-.003c0-.022 0-.045.012-.068a5.06 5.06 0 0 0 .14-1.2 5.311 5.311 0 0 0-1.109-3.29 1.925 1.925 0 0 0-.146-.171 5.385 5.385 0 0 0-4.128-1.965l.002-.567a5.964 5.964 0 0 1 4.727 2.364c.045.057.08.114.124.17a5.874 5.874 0 0 1 1.097 3.46z"></path><path d="M216.305 741.467h4.725v28.248h-4.725z" transform="rotate(-89.778 218.668 755.59)"></path><path d="m232.8 753.287-28.247-.118.052-13.462 16.372.073z"></path><path fill="#fff" d="M225.592 746.295h.5v13.925h-.5z" transform="rotate(-89.742 225.842 753.258)"></path><path fill="#fff" d="M210.51 756.648a4.997 4.997 0 0 1-.151 1.269l-.567-.003c0-.022 0-.045.012-.068a5.06 5.06 0 0 0 .14-1.2 5.311 5.311 0 0 0-1.109-3.29 1.923 1.923 0 0 0-.146-.171 5.385 5.385 0 0 0-4.129-1.965l.003-.567a5.964 5.964 0 0 1 4.727 2.364c.045.057.079.114.124.17a5.873 5.873 0 0 1 1.097 3.46z"></path><path fill="#d250dc" d="M223.846 741.211c-3.719 1.643-18.886.983-19.96.137-.236-.19-13.938-74.239-13.938-74.239s-3.05 73.3-3.24 73.488c-1.047 1.062-15.416 2.61-19.469.308-.59-.333-2.387-76.164-2.387-76.164.12.247-6.584-26.068 4.404-36.43l43.797.753s11.457 111.854 10.793 112.147z"></path><path fill="#fff" d="M189.968 667.463c-.075 0-.124-.55-.244-1.638-.067-.538-.133-1.233-.346-1.987a1.979 1.979 0 0 0-.217-.51l-.415-.516c-.318-.338-.68-.685-1.1-1.033-1.411-1.182-2.983-2.353-4.108-3.944-1.139-1.576-1.82-3.444-2.105-5.335-.339-2.237-.176-3.936.003-5.033.19-1.102.406-1.62.47-1.604.079.017 0 .562-.072 1.65-.062 1.084-.124 2.735.263 4.878.275 1.82.92 3.572 1.986 5.05 1.058 1.498 2.543 2.609 4.002 3.83.424.37.801.755 1.131 1.136l.437.595c.143.247.213.475.262.69.19.856.197 1.55.21 2.109.004 1.113-.085 1.663-.157 1.662z"></path><path fill="#ffbdae" d="M161.171 595.566s-.056 14.42 1.714 18.207c1.96 4.193 11.857 9.76 11.857 9.76s4.718-23.97 4.587-24.168c-.132-.199-2.16-5.36-2.424-5.362-.265-.001-6.625-3.969-6.625-3.969l-9.109 5.532z"></path><path fill="#30005c" d="m242.762 615.324-73.521.41 27.476-52.47 71.01.276c.863.003 1.416.92 1.017 1.684l-25.982 50.1z"></path><path fill="#ffc837" d="m170.224 595.6 10.92-16.11-11.828-13.865s-7.091 5.828-8.778 13.425c-1.28 5.77-.762 12.462-.234 16.512l9.92.039z"></path><path fill="#ffc837" d="M214.767 568.642c-8.155-9.818-40.058-11.016-47.7-.794-6.674 8.927-1.638 64.688-1.638 64.688-.067 2.604 48.677 3.861 48.745 1.257 0 0 3.954-61.106.593-65.151z"></path><path fill="#ffc6b2" d="m228.704 588.461 6.125 11.377 12.846 4.184-.141 9.372-19.056 2.8a15.376 15.376 0 0 1-13.62-8.917l-5.149-11.13 18.995-7.686z"></path><path fill="#ffc837" d="M214.065 567.858s9.929 8.02 16.481 19.56c.525 1.96-16.669 12.384-22.024 10.218-1.965-.795-4.544-28.607 5.543-29.778z"></path><path fill="#fff" d="M203.222 586.255c.139-.04.664 1.303 1.549 4.07.707 2.352 1.399 4.728 2.174 7.037l.083.244c.02.06.003.021.009.038.013.003-.02.006.05.007l.229-.001.868-.04 1.35-.073c.723-.03 1.087-.011 1.097.062.01.073-.337.19-1.048.336-.356.072-.802.152-1.344.23-.272.038-.564.078-.891.105l-.256.016c-.088-.01-.297-.003-.422-.07a1.325 1.325 0 0 1-.256-.367l-.102-.26c-.792-2.358-1.476-4.71-2.186-7.072-.768-2.804-1.048-4.22-.904-4.262z"></path><path fill="#ffc6b2" d="m247.536 613.397.138-9.372s-.709-6.279 1.068-6.331c1.658-.053 1.96 1.534 1.91 1.806.204-.378 2.804-4.797 2.816-4.82.083 0 5.72 3.868 6.032 9.385.187 3.314-8.177 9.333-11.964 9.332zM211.142 539.16c-.687 3.649-3.062 7.236-3.567 7.404-.9.276-5.776-2.722-8.369-.428-2.592 2.294-1.213 8.647 1.755 10.905 2.969 2.258 5.831 2.831 5.831 2.831l.491 3.99-13.518-5.05-2.055-6.3.492-11.008s10.585-6.14 16.534-4.657c1.066.287 1.85 1.132 2.406 2.314z"></path><path fill="#ffc6b2" d="M211.57 559.161c-.056.167-.225.282-.394.391h-.057c-1.238.67-4.327.32-4.327.32s-2.862-.573-5.831-2.83c-2.968-2.259-4.347-8.612-1.755-10.906 2.593-2.294 7.468.704 8.369.428.505-.168 2.88-3.755 3.567-7.403 2.731 5.573.882 19.048.429 20z"></path><path d="M190.104 531.832c8.166-5.136 18.409-2.25 21.82 1.977 1.23 1.521 2.239 3.324 1.838 5.344-.688 3.649-5.682 7.243-6.187 7.41-.9.277-5.776-2.72-8.369-.427-4.078 3.609 3.208 6.879 4.258 9.765 1.922 5.286 1.892 11.209-.74 16.255-1.843 3.53-4.78 6.454-6.255 10.153-2.235 5.605-.882 12.407-4.137 17.487-3.018 4.71-9.472 6.456-14.865 4.97s-9.727-5.66-12.595-10.461c-1.744-2.919-3.04-6.146-3.437-9.522-.397-3.376.146-6.91 1.856-9.849 1.502-2.58 3.803-4.58 5.732-6.86 3.106-3.67 5.234-8.05 7.328-12.378 2.198-4.543 4.892-9.025 6.387-13.802 1.297-4.144 3.669-7.7 7.366-10.062z"></path><circle cx="185.761" cy="532.973" r="7.601"></circle><path fill="#fff" d="M185.73 540.854a7.904 7.904 0 0 1-2.388-.378.281.281 0 1 1 .172-.535c.715.23 1.461.348 2.218.35 4.035.016 7.334-3.254 7.35-7.29a7.308 7.308 0 0 0-.408-2.44.28.28 0 0 1 .171-.36.277.277 0 0 1 .356.172c.296.84.444 1.724.44 2.63-.017 4.346-3.566 7.868-7.911 7.85zM200.257 654.331a5.933 5.933 0 0 1-3.401-1.072 6.036 6.036 0 0 1-2.538-4.17l-.771-5.805a.92.92 0 0 1 .8-1.025l10.105-1.334a.901.901 0 0 1 .673.186c.196.152.321.37.351.613l.725 5.544c.416 3.174-1.583 6.205-4.55 6.902h-.001a6.17 6.17 0 0 1-1.393.161zm4.31-12.914a.38.38 0 0 0-.05.003l-10.106 1.334a.42.42 0 0 0-.368.466l.77 5.803a5.533 5.533 0 0 0 2.328 3.825 5.46 5.46 0 0 0 4.395.835c2.72-.638 4.552-3.428 4.169-6.35l-.725-5.545a.419.419 0 0 0-.161-.282.412.412 0 0 0-.253-.089z"></path><circle cx="199.781" cy="644.937" r=".995" fill="#fff"></circle><path fill="#fff" d="M173.176 651.272a4.42 4.42 0 0 1-1.03-.123c-2.12-.515-3.535-2.695-3.22-4.964l.54-3.898a.722.722 0 0 1 .808-.62l7.105.995a.722.722 0 0 1 .62.807l-.575 4.083a4.321 4.321 0 0 1-1.84 2.971 4.25 4.25 0 0 1-2.408.749zm-.912-.61a3.768 3.768 0 0 0 3.038-.552 3.82 3.82 0 0 0 1.627-2.627l.574-4.082a.22.22 0 0 0-.192-.244l-7.106-.994a.219.219 0 0 0-.157.044.22.22 0 0 0-.087.147l-.54 3.9c-.28 2.017.969 3.953 2.843 4.409z"></path><circle cx="173.529" cy="644.59" r=".7" fill="#fff"></circle><path fill="#30005c" d="M202.654 551.404c-.44 0-.87-.103-1.247-.305-.671-.361-1.133-1.033-1.204-1.753-.077-.764.32-1.548.963-1.906.514-.285 1.176-.332 2.025-.144a.25.25 0 0 1-.109.489c-.724-.161-1.272-.131-1.673.092-.475.264-.766.848-.71 1.42.055.548.426 1.082.945 1.362.502.27 1.13.32 1.72.137a.25.25 0 0 1 .148.477 2.9 2.9 0 0 1-.858.131z"></path><path fill="#ff5d5d" d="M1008.484 722.308a.385.385 0 0 1-.38.417h-2.893a.373.373 0 0 1-.37-.334l-.353-2.856h-1.512l-.278.63-.204.464-.825 1.864a.373.373 0 0 1-.343.232h-15.003a.376.376 0 0 1-.38-.38v-2.068c0-.742.213-1.456.62-2.068.093-.167.214-.324.353-.463.297-.353.658-.64 1.085-.863l6.62-3.458s.678-2.523.844-2.69c.167-.166 11.98 0 11.98 0l.502 5.536.037.464.5 5.573z"></path><path fill="#fff" d="M1007.984 716.735h-7.372v-.464h7.335zM1002.698 720.166l-.204.463h-10.478a.235.235 0 0 1-.232-.232v-2.188h-5.22c.092-.167.213-.324.352-.463h5.1a.23.23 0 0 1 .232.231v2.189h10.45z"></path><path d="m974.583 722.745 34.33-58.222 34.32 58.222h2.535l-36.855-62.522-36.865 62.522z"></path><path fill="#ffc6b2" d="M971.879 598.147s-6.059 33.48-5.808 33.38c.251-.1 22.186.25 22.386 0 .201-.251-2.409-44.27-2.409-44.27l-4.316 1.555-9.853 9.335z"></path><path fill="#ff784b" d="M938.915 668.088c0 2.164.878 4.114 2.301 5.537a7.76 7.76 0 0 0 5.537 2.3h88.86c8.677 0 15.696-7.018 15.696-15.675H946.753a7.838 7.838 0 0 0-7.838 7.838zM981.335 660.223h69.996l.247-.968 18.023-71.416c2.453-9.732-4.899-19.166-14.93-19.166h-50.232l-23.104 91.55z"></path><path fill="#d250dc" d="M971.242 598.476c.083-.539.22-1.09.36-1.7 3.422-14.786 10.79-22.456 12.278-23.227l9.313 11.613 3.073 13.314c0 .901-25.024.901-25.024 0z"></path><path fill="#1258ff" d="m965.252 628.398 11.71-.797s16.002-8.89 16.634-8.653 5.928 14.622 5.691 14.859c-.237.237-13.357 14.385-13.357 14.385l24.587 64.131c0 2.065-17.317 1.631-17.317-.434l-39.196-60.217c-6.53-9.496-.25-22.49 11.248-23.274z"></path><path fill="#fff" d="M1012.945 659.255v.968h38.357l.276-.968"></path><path fill="#ff5d5d" d="M956.934 722.308a.385.385 0 0 1-.38.417h-2.893a.373.373 0 0 1-.37-.334l-.353-2.856h-1.512l-.278.63-.204.464-.825 1.864a.373.373 0 0 1-.343.232h-15.003a.376.376 0 0 1-.38-.38v-2.068c0-.742.213-1.456.62-2.068.093-.167.214-.324.353-.463.297-.353.658-.64 1.085-.863l6.62-3.458s.678-2.523.844-2.69c.167-.166 11.98 0 11.98 0l.502 5.536.037.464.5 5.573z"></path><path fill="#fff" d="M956.434 716.735h-7.372v-.464h7.335zM951.148 720.166l-.204.463h-10.478a.235.235 0 0 1-.232-.232v-2.188h-5.22c.092-.167.213-.324.352-.463h5.1a.23.23 0 0 1 .232.231v2.189h10.45z"></path><path fill="#1258ff" d="m988.624 660.217-31.008 51.769-16.074-.29s12.713-53.349 20.767-69.139a18.31 18.31 0 0 1 11.377-9.31l25.917-5.13 25.099 1.115c.315.815 3.358 28.602-9.426 30.985h-26.652z"></path><path fill="#fff" d="M943.834 705.35c.023-.141 1.215-.08 3.594.242l6.022.97c2.358.44 3.51.757 3.486.902-.024.146-1.216.082-3.593-.238l-6.022-.97c-2.359-.443-3.51-.757-3.487-.905z"></path><path fill="#d250dc" d="M976.593 627.598c.8 3.632 45.982 5.175 50.014 1.63 2.723-2.38 8.27-52.169 4.499-57.432-.619-.866-6.115-1.507-13.182-1.761h-.008c-5.91-.219-12.92-.16-19.1.262-7.716.53-13.869 1.84-15.468 3.5-3.887 4.035-2.639 17.994-3.508 30.29-.818 11.574-3.48 22.455-3.247 23.51z"></path><path fill="#fff" d="m996.266 598.476 20.627-28.492c-5.895-.228-11.252-.265-17.635.283-.138.012-2.992 28.209-2.992 28.209z"></path><path fill="#719bff" d="M977.377 628.116H931.52c-.811 0-1.53-.522-1.78-1.295l-13.008-40.134a1.872 1.872 0 0 1 1.781-2.45h44.644l14.22 43.88z"></path><path fill="#6385d2" d="M981.18 628.116h-3.803l-14.216-43.88h2.474c.786 0 1.485.514 1.728 1.262l13.817 42.618z"></path><path fill="#6385d2" d="M1000.823 628.116h-22.534v-3.028h19.506a3.027 3.027 0 0 1 3.028 3.028z"></path><path fill="#ffc6b2" d="M1041.198 618c-.776 5.948-5.87 10.383-11.867 10.344l-29.877-.223s-21.165 4.009-21.018-7.307c.12-9.258 13.295-2.1 13.422-2.217.116-.126-2.367-1.222-.375-3.155.902-.875 6.292 2.413 6.292 2.413l24.647-5.609-.379-15.108 21.513 2.018c.048.281-1.281 10.558-2.358 18.844z"></path><path fill="#d250dc" d="M1019.05 600.007c.124 3.464 25.004 2.118 25.215 1.164 0 0-1.972-19.45-2.598-21-3.16-7.883-11.202-8.691-11.202-8.691s-7.561 1.64-10.022 8.803c-1.696 4.936-1.45 18.144-1.393 19.724z"></path><path fill="#0df3ff" d="M1019.743 551.566c-.019-.02-.019-.039-.019-.039v.039h.02z"></path><path fill="#ffc6b2" d="M1011.731 544.328v6.38c-.81.59-1.87.22-2.36-.65-.48-.87-.48-1.92-.54-2.91-.07-1-.27-2.07-1.02-2.73-1.17-1.01-2.96-.49-4.4.09-2.29.93-4.59 1.9-7.03 2.33-1.83.32-3.76.32-5.53-.22.1-2.36.21-4 .21-4s5.71-4.84 6.3-4.84c.6 0 9.65 2.87 10.08 3.03.43.15 4.29 3.52 4.29 3.52z"></path><path fill="#fff" d="M1011.256 620.999h79.809v1h-79.809z" transform="rotate(-75.027 1051.16 621.499)"></path><path fill="#fff" d="M979.328 632.133c.014.07-.673.277-2.072.612l-2.631.6-.825.18-.834.27c-.585.205-1.202.455-1.846.752a17.96 17.96 0 0 0-7.925 7.113c-.623 1.02-1.09 2.165-1.618 3.264-1.243 2.599-2.196 4.531-2.855 5.808s-1.025 1.896-1.092 1.866c-.067-.03.172-.705.727-2.032.554-1.327 1.424-3.305 2.617-5.94.532-1.107.99-2.237 1.644-3.31a18.614 18.614 0 0 1 8.221-7.38 20.01 20.01 0 0 1 1.932-.731c.319-.09.583-.177.914-.258l.832-.148 2.662-.447c1.42-.222 2.135-.293 2.15-.219zM979.95 673.363c-.12-.08.675-1.52 2.45-4.32l4.64-7.033 1.438-2.064.753.027.525.03.807.065c.43.045.644.096.644.15 0 .053-.214.103-.644.149l-.807.064-.987.056c.02-.016-.096.17-.19.322l-.297.484-.681 1.087-4.639 7.033c-1.878 2.734-2.886 4.033-3.011 3.95zM1019.516 649.618c-.015.058-.486.031-1.363-.297-.863-.331-2.165-.998-3.442-2.417a9.738 9.738 0 0 1-2.153-4.27c-.36-1.564-.39-3.177-.232-4.749.225-1.853.601-3.185.853-4.065.262-.878.438-1.302.508-1.286.073.017.031.475-.117 1.376-.139.9-.418 2.242-.575 4.042-.33 3.012.183 6.241 2.224 8.511a10.269 10.269 0 0 0 3.1 2.494c.792.417 1.22.578 1.197.66zM988.796 705.93c-.01-.143 1.42-.375 4.327-.645l7.397-.533c2.912-.15 4.36-.125 4.371.022.01.147-1.42.376-4.323.649l-7.397.533c-2.915.147-4.364.125-4.375-.025zM988.101 699.08c-.123.073-1.16-1.432-3.081-4.577l-4.752-8.07c-1.817-3.203-2.63-4.839-2.503-4.913.127-.075 1.16 1.431 3.083 4.572l4.752 8.07c1.815 3.207 2.631 4.842 2.501 4.918zM947.06 703.965c-.068-.026.24-1.033.93-3.032l3.143-9.006a599.403 599.403 0 0 0 6.881-20.469l2.935-9.068c.658-2.008 1.021-2.997 1.092-2.976.07.02-.161 1.048-.708 3.091a285.055 285.055 0 0 1-2.677 9.156 600.052 600.052 0 0 1-6.89 20.492 283.296 283.296 0 0 1-3.4 8.92c-.8 1.96-1.237 2.918-1.306 2.892z"></path><path fill="#253066" d="m1001.29 564.877-.013-.5c.021 0 2.176-.079 4.61-1.45l.245.436c-2.548 1.435-4.749 1.512-4.841 1.514zM1015.265 554.495c-.056-.157.435-.315.954-.92.456-.46.504-1.304.059-1.673-.544-.493-1.03-.28-1.092-.422-.037-.054.025-.204.294-.315.257-.103.747-.137 1.236.227.81.73.642 1.965 0 2.636-.402.383-.793.503-1.043.545-.256.038-.39-.007-.408-.078z"></path><path fill="#fff" d="M980.86 599.403c-.144 0-.28-.955-.352-2.89l-.032-4.918c.046-1.933.17-2.891.317-2.892s.28.955.355 2.888l.032 4.918c-.05 1.935-.17 2.893-.32 2.894zM1022.037 584.19c-.12-.018-.188-1.112.208-3.314.403-1.837 1.16-3.71 2.572-5.082.844-.79 1.664-1.146 2.21-1.29.556-.14.846-.103.857-.04.062.193-1.113.302-2.596 1.81-1.284 1.248-1.996 2.973-2.387 4.751-.502 2.103-.695 3.193-.864 3.166zM1019.707 597.142c.143.003.278.363.348 1.082l.027 1.83c-.049.72-.173 1.08-.32 1.087-.147.005-.278-.348-.352-1.073l-.027-1.847c.052-.727.173-1.082.324-1.079z"></path><path d="M910.43 722.745v-83.037a6.892 6.892 0 0 1 6.885-6.885h119.903a6.892 6.892 0 0 1 6.884 6.885v83.037h4.707v-83.037c0-6.392-5.2-11.592-11.591-11.592H917.315c-6.392 0-11.592 5.2-11.592 11.592v83.037h4.707zM1026.232 614.458c.033.118-.414.424-1.403.303a3.843 3.843 0 0 1-2.123-1.235c-.594-.8-.55-1.34-.427-1.37.153-.056.356.347.932.926a3.166 3.166 0 0 0 1.754 1.02c.789.215 1.24.191 1.267.356z"></path><path fill="#253066" d="M994.119 603.471c-.029-.02.103-.254.398-.7.295-.448.748-1.114 1.409-1.96 1.3-1.709 3.39-4.174 6.36-7.302 5.054-5.271 10.415-10.238 15.207-15.706l.388-.44.013-.01-.006-.004c-.01-.003.03.005-.105-.026l-.561-.129-2.882-.658 3.077-1.558 1.013-.502.464-.23c.062-.027.122-.053.18-.08l-1.624-1.726c-.397-.438-.58-.67-.554-.698.027-.028.264.151.71.539l.826.737 1.347 1.253-2.127 1.158-1.105.598c-.537.287-.44.244-.505.284l.075.01.03.004.014.001.115.024 1.082.226 1.608.343.145.032-.095.111-.194.226-.393.456-.429.5c-4.829 5.51-10.19 10.474-15.23 15.732-3.003 3.074-5.15 5.46-6.533 7.087-1.39 1.62-2.043 2.462-2.118 2.408z"></path><path fill="#253066" d="M994.118 603.474c-.07.008-.237-.809-.486-2.462a152.578 152.578 0 0 1-.92-7.493c-.249-2.84-.459-5.687-.456-8.555l.035-4.27.018-2.134c.035-.723-.057-1.385.106-2.209.083-.456.499-.917.884-1.064l.998-.445.925-.407.221-.097.038-.013.074-.025-.05-.034c-.03-.02.005-.004-.152-.09l-.661-.362-1.502-.824.948-.529.532-.283.825-.423c.444-.219.676-.31.696-.275.02.035-.172.192-.58.473l-.771.513-.508.326c-.164.106-.173.12-.253.176l.223.096.622.305 1.918.965-2.286 1.075-.964.458c-.303.15-.443.323-.525.65-.124.576-.058 1.354-.085 2.049l-.019 2.134-.034 4.267c-.003 2.827.205 5.663.454 8.492l.647 7.507c.134 1.666.164 2.499.088 2.508z"></path><path fill="#ffc6b2" d="M1014.891 557.689v12.22l-12.64 8.25-.87-7.99-.1-5.54s-10.12.84-10.59-5.07c-.23-2.91-.02-7.76.08-10.98.02-.69.05-1.35.08-1.96 1.77.54 3.7.54 5.53.22 2.44-.43 4.74-1.4 7.03-2.33 1.44-.58 3.23-1.1 4.4-.09.75.66.95 1.73 1.02 2.73.06.99.06 2.04.54 2.91.49.87 1.55 1.24 2.36.65 0 0 5.61-3.96 7.68 0 .14.27.23.55.31.8v.06h.02c.8 3.55-4.85 6.12-4.85 6.12z"></path><path fill="#2a0054" d="M1014.891 557.689s5.65-2.57 4.83-6.12v-.06c-.08-.25-.17-.53-.31-.8-2.07-3.96-7.68 0-7.68 0-.81.59-1.87.22-2.36-.65-.48-.87-.48-1.92-.54-2.91-.07-1-.27-2.07-1.02-2.73-1.17-1.01-2.96-.49-4.4.09-2.29.93-4.59 1.9-7.03 2.33-2.383.42-4.596.124-6.867-.64-.958-.323-1.76-1.18-2.5-1.852-.89-.808-1.725-1.68-2.42-2.663-1.28-1.812-2.062-4.086-1.645-6.266.386-2.022 1.772-3.759 3.479-4.91 1.706-1.153 3.716-1.777 5.733-2.19 3.724-.764 7.66-.844 11.266.358 3.606 1.203 6.843 3.8 8.288 7.314.61 1.481.99 3.22 2.322 4.11 1.26.841 2.914.609 4.424.735 3.181.267 6.133 2.417 7.362 5.364 1.23 2.946.68 6.556-1.368 9.005-2.298 2.745-6.272 3.889-9.564 2.485z"></path><path d="M769.393 436.029H583.518a6.885 6.885 0 0 1-6.885-6.885V312.466a6.885 6.885 0 0 1 6.885-6.885h185.875a6.885 6.885 0 0 1 6.886 6.885v116.678a6.885 6.885 0 0 1-6.886 6.885z" opacity=".1"></path><path fill="#719bff" d="M765.064 432.627H579.188a6.885 6.885 0 0 1-6.885-6.885V309.064a6.885 6.885 0 0 1 6.885-6.885h185.876a6.885 6.885 0 0 1 6.885 6.885v116.678a6.885 6.885 0 0 1-6.885 6.885z"></path><g opacity=".1"><path d="M623.33 336.561c0 .434-.144.796-.451 1.067-.271.29-.633.415-1.085.415h-5.929v17.21c0 .451-.18.83-.488 1.138-.307.307-.687.452-1.157.452-.452 0-.831-.145-1.12-.452-.308-.29-.452-.67-.452-1.139v-17.209h-6.002c-.434 0-.795-.144-1.066-.415a1.536 1.536 0 0 1-.434-1.067c0-.416.144-.796.434-1.103.27-.29.65-.452 1.066-.452h15.148c.434 0 .814.163 1.103.452.29.29.434.67.434 1.103z"></path><path d="M610.225 326.294h-9.255v26.5a2.28 2.28 0 0 1-.687 1.663c-.47.433-1.03.65-1.681.65s-1.211-.217-1.645-.65c-.452-.434-.669-.995-.669-1.664v-26.5h-9.31c-.614 0-1.12-.217-1.554-.632-.416-.397-.614-.922-.614-1.555 0-.632.198-1.14.614-1.591.416-.433.922-.632 1.555-.632h23.246c.633 0 1.157.199 1.59.632.435.452.634.995.634 1.591 0 .615-.217 1.139-.633 1.555-.452.415-.958.633-1.59.633z"></path></g><path d="M762.946 368.15c0 .963-.78 1.759-1.76 1.759H586.57a1.77 1.77 0 0 1-1.76-1.76c0-.979.796-1.76 1.76-1.76h174.617c.98 0 1.76.781 1.76 1.76zM762.946 355.084c0 .963-.78 1.759-1.76 1.759H633.831a1.77 1.77 0 0 1-1.759-1.76c0-.979.796-1.76 1.76-1.76h127.354c.98 0 1.76.781 1.76 1.76zM762.946 407.378c0 .964-.78 1.76-1.76 1.76H586.57a1.77 1.77 0 0 1-1.76-1.76c0-.979.796-1.76 1.76-1.76h174.617c.98 0 1.76.781 1.76 1.76zM632.072 342.002c0-.979.796-1.76 1.76-1.76h127.354c.98 0 1.76.781 1.76 1.76 0 .964-.78 1.759-1.76 1.759H633.831a1.77 1.77 0 0 1-1.759-1.76zM762.946 394.297c0 .964-.78 1.76-1.76 1.76H586.57a1.77 1.77 0 0 1-1.76-1.76c0-.98.796-1.76 1.76-1.76h174.617c.98 0 1.76.78 1.76 1.76zM762.946 381.23c0 .964-.78 1.76-1.76 1.76H586.57a1.77 1.77 0 0 1-1.76-1.76c0-.979.796-1.759 1.76-1.759h174.617c.98 0 1.76.78 1.76 1.76z" opacity=".1"></path><path fill="#fff" d="M622.648 336.135c0 .433-.144.795-.452 1.066-.271.29-.632.416-1.084.416h-5.93v17.209c0 .452-.18.831-.488 1.138-.307.308-.686.452-1.156.452-.452 0-.832-.144-1.121-.452-.307-.29-.452-.669-.452-1.138v-17.21h-6.001c-.434 0-.796-.144-1.067-.415a1.536 1.536 0 0 1-.434-1.066c0-.417.145-.796.434-1.103.271-.29.65-.452 1.067-.452h15.148c.434 0 .813.162 1.103.452.289.289.433.669.433 1.103z"></path><path fill="#fff" d="M609.543 325.867h-9.256v26.5a2.28 2.28 0 0 1-.686 1.664c-.47.433-1.03.65-1.682.65-.65 0-1.21-.217-1.645-.65-.451-.435-.668-.995-.668-1.664v-26.5h-9.31c-.614 0-1.12-.217-1.554-.633-.416-.397-.615-.921-.615-1.554s.199-1.14.615-1.592c.415-.433.921-.632 1.554-.632h23.247c.632 0 1.157.199 1.59.632.434.452.633.995.633 1.592 0 .614-.217 1.138-.633 1.554-.452.416-.958.633-1.59.633zM762.263 367.723c0 .964-.78 1.76-1.76 1.76H585.887a1.77 1.77 0 0 1-1.759-1.76c0-.98.795-1.76 1.76-1.76h174.617c.979 0 1.76.78 1.76 1.76zM762.263 354.657c0 .964-.78 1.76-1.76 1.76H633.15a1.77 1.77 0 0 1-1.76-1.76c0-.98.796-1.76 1.76-1.76h127.355c.979 0 1.76.78 1.76 1.76zM762.263 406.951c0 .965-.78 1.76-1.76 1.76H585.887a1.77 1.77 0 0 1-1.759-1.76c0-.978.795-1.759 1.76-1.759h174.617c.979 0 1.76.78 1.76 1.76zM631.39 341.575c0-.979.795-1.76 1.759-1.76h127.355c.979 0 1.76.781 1.76 1.76 0 .965-.781 1.76-1.76 1.76H633.149a1.77 1.77 0 0 1-1.76-1.76zM762.263 393.87c0 .964-.78 1.76-1.76 1.76H585.887a1.77 1.77 0 0 1-1.759-1.76c0-.979.795-1.759 1.76-1.759h174.617c.979 0 1.76.78 1.76 1.76zM762.263 380.804c0 .964-.78 1.76-1.76 1.76H585.887a1.77 1.77 0 0 1-1.759-1.76c0-.98.795-1.76 1.76-1.76h174.617c.979 0 1.76.78 1.76 1.76z"></path><path d="m646.695 575.673-8.968 6.006c-1.597 1.074-3.746-.08-3.746-2.007v-12.003c0-1.928 2.15-3.082 3.746-2.007l8.968 6.005a2.407 2.407 0 0 1 0 4.006z" opacity=".15"></path><path fill="#ff784b" d="m645.434 575.02-8.968 6.006c-1.596 1.075-3.746-.079-3.746-2.007v-12.003c0-1.928 2.15-3.082 3.746-2.007l8.968 6.005a2.407 2.407 0 0 1 0 4.007z"></path><path fill="#719bff" d="m171.119 304.921-30.75-46.472 57.77 12.869a.05.05 0 0 1 .028.08L171.2 304.926a.05.05 0 0 1-.082-.004z"></path><path fill="#5388f2" d="m140.37 258.45 41.302 33.45a.051.051 0 0 1 .006.006l6.027 6.947a.05.05 0 0 0 .089-.03l.888-15.601a.05.05 0 0 0-.027-.048l-48.286-24.725z"></path><path fill="#5388f2" d="m187.605 298.883-8.917-3.158a.05.05 0 0 1-.023-.08l2.972-3.695a.05.05 0 0 1 .078-.002l5.946 6.854c.034.04-.007.099-.056.081z"></path><circle cx="913.639" cy="402.753" r="37.726" fill="#829ed9"></circle><path fill="#fff" d="M939.463 398.019a2.45 2.45 0 0 0-2.026-2.301l-2.25-.414c-.777-.15-1.46-.643-1.786-1.37a8.532 8.532 0 0 0-.361-.762 2.461 2.461 0 0 1 .078-2.281l1.122-1.969a2.471 2.471 0 0 0-.485-3.032l-5.199-4.738a2.455 2.455 0 0 0-3.057-.202l-1.87 1.29c-.655.449-1.499.573-2.242.291-.265-.093-.54-.205-.813-.298-.76-.255-1.332-.891-1.552-1.655l-.598-2.186a2.473 2.473 0 0 0-2.496-1.802l-7.023.33a2.441 2.441 0 0 0-2.292 2.008l-.414 2.26c-.15.785-.66 1.46-1.388 1.785-.271.118-.525.236-.788.362-.71.352-1.555.309-2.255-.079l-1.968-1.113a2.486 2.486 0 0 0-3.033.485l-4.737 5.199a2.455 2.455 0 0 0-.202 3.057l1.299 1.879c.457.646.572 1.49.29 2.232-.102.266-.213.55-.307.823-.238.76-.874 1.323-1.646 1.543l-2.177.598a2.46 2.46 0 0 0-1.802 2.496l.33 7.023a2.45 2.45 0 0 0 2.026 2.31l2.223.396c.786.15 1.47.643 1.787 1.388.117.254.243.517.379.788.352.709.309 1.555-.097 2.255l-1.113 1.968a2.484 2.484 0 0 0 .485 3.033l5.207 4.737a2.468 2.468 0 0 0 3.067.202l1.87-1.29c.655-.448 1.499-.572 2.233-.29.274.11.54.204.822.298.77.255 1.323.891 1.543 1.655l.598 2.185c.295 1.106 1.343 1.851 2.487 1.803l7.032-.33a2.443 2.443 0 0 0 2.301-2.026l.414-2.241c.15-.777.643-1.461 1.37-1.778.272-.126.534-.244.788-.37.71-.37 1.573-.327 2.264.079l1.968 1.113c1.01.56 2.268.351 3.033-.485l4.737-5.208a2.47 2.47 0 0 0 .21-3.067l-1.307-1.886a2.373 2.373 0 0 1-.282-2.216c.103-.274.197-.54.273-.796.255-.769.891-1.322 1.663-1.543l2.195-.616a2.473 2.473 0 0 0 1.802-2.478l-.33-7.049zm-25.7 15.321c-5.85.069-10.642-4.62-10.711-10.462-.069-5.843 4.612-10.643 10.462-10.712 5.843-.069 10.643 4.62 10.712 10.462.069 5.843-4.62 10.643-10.462 10.712z"></path><path fill="#d7e7ff" d="M913.5 391.01c-6.487.077-11.68 5.394-11.604 11.881.077 6.488 5.394 11.68 11.881 11.604 6.488-.076 11.68-5.393 11.604-11.88-.077-6.488-5.393-11.68-11.88-11.604zm.263 22.33c-5.85.069-10.643-4.62-10.711-10.462-.07-5.843 4.611-10.643 10.462-10.712 5.842-.069 10.643 4.62 10.712 10.462.068 5.843-4.62 10.643-10.463 10.712z"></path><path fill="#719bff" d="M313.427 401.551v90.057c0 5.647-4.598 10.2-10.244 10.2H201.699c-5.646 0-10.245-4.553-10.245-10.2v-90.057a10.231 10.231 0 0 1 10.245-10.245h101.484a10.231 10.231 0 0 1 10.244 10.245z"></path><path fill="#fff" d="M201.699 499.29c-4.26 0-7.726-3.446-7.726-7.682v-78.984c0-4.26 3.466-7.727 7.726-7.727h101.484c4.26 0 7.726 3.466 7.726 7.727v78.984c0 4.236-3.466 7.682-7.726 7.682H201.699z"></path><circle cx="201.068" cy="399.888" r="2.139" fill="#fff"></circle><circle cx="206.618" cy="399.888" r="2.139" fill="#fff"></circle><circle cx="212.169" cy="399.888" r="2.139" fill="#fff"></circle><path fill="#3cd278" d="M220.16 476.047h9.609v9.284h-9.609z"></path><path fill="#ff5252" d="M234.146 457.015h9.609v28.317h-9.609z"></path><path fill="#3cd278" d="M248.132 448.42h9.609v36.912h-9.609z"></path><path fill="#ff5252" d="M262.118 451.07h9.609v34.261h-9.609z"></path><path fill="#3cd278" d="M276.104 434.539h9.609v50.793h-9.609z"></path><path fill="#0039b2" d="M218.315 468.643c-.139 0-.279-.002-.418-.007-4.47-.15-8.842-2.726-11.14-6.562a.972.972 0 0 1 1.667-.999c1.968 3.284 5.712 5.49 9.538 5.619 3.823.127 7.71-1.82 9.893-4.964 1.816-2.614 2.512-5.927 3.184-9.13.142-.675.284-1.348.434-2.014.788-3.479 2.297-8.394 6.295-10.905 3.759-2.36 8.528-1.844 12.264-1.132l1.448.285c3.31.66 6.734 1.344 9.892.542 4.273-1.084 7.567-4.776 10.32-8.151l.312-.384c2.947-3.62 5.996-7.363 10.423-9.108a.971.971 0 1 1 .712 1.808c-3.953 1.558-6.838 5.101-9.628 8.527l-.314.385c-2.948 3.616-6.5 7.577-11.347 8.807-3.586.91-7.227.183-10.751-.52l-1.432-.281c-3.387-.646-7.681-1.13-10.865.869-3.385 2.125-4.722 6.546-5.433 9.687-.149.657-.288 1.32-.427 1.984-.713 3.393-1.45 6.902-3.49 9.84-2.471 3.557-6.805 5.804-11.137 5.804z"></path><path fill="#0039b2" d="m282.892 427.489-5.345-6.136c-.715-.82-.167-2.106.921-2.16l6.58-.336a1.305 1.305 0 0 1 1.345 1.544l-1.235 6.472c-.203 1.07-1.55 1.437-2.266.616z"></path><path fill="#719bff" d="m171.119 304.921-30.75-46.472 57.77 12.869a.05.05 0 0 1 .028.08L171.2 304.926a.05.05 0 0 1-.082-.004z"></path><path fill="#5388f2" d="m140.37 258.45 41.302 33.45a.051.051 0 0 1 .006.006l6.027 6.947a.05.05 0 0 0 .089-.03l.888-15.601a.05.05 0 0 0-.027-.048l-48.286-24.725z"></path><path fill="#5388f2" d="m187.605 298.883-8.917-3.158a.05.05 0 0 1-.023-.08l2.972-3.695a.05.05 0 0 1 .078-.002l5.946 6.854c.034.04-.007.099-.056.081z"></path></svg>