<svg xmlns="http://www.w3.org/2000/svg" viewBox="0 0 52 52" id="website-security"><path fill="#1d2943" d="M32.291 7.309c-.02-.02-.05-.02-.07-.03.01-.01.01 0 .02 0 .02.01.04.02.05.03z"></path><path fill="#1d2943" d="M32.241 7.279c-.01 0-.01-.01-.02 0 .02.01.05.01.07.03-.01-.01-.03-.02-.05-.03z"></path><path fill="#1d2943" d="M32.681 24.679c0 .8-.57 1.78-1.27 2.19l-7.09 4.09v.89c0 .35.25.78.56.95l3.71 2.15v.88l-6.04 3.51-3.71-2.14c-.73-.42-1.32-1.45-1.32-2.29v-.02l-6.85 3.95c-.35.21-.68.23-.9.09a.574.574 0 0 0-.07-.04l-.31-.17-1.03-.59c-.24-.14-.38-.43-.38-.83l-.01-1.43v-.01l-.03-15.12c0-.8.57-1.78 1.26-2.19l20.76-11.98c.36-.2.68-.23.9-.09l1.38.8c-.01 0-.01-.01-.02 0 .02.01.05.01.07.03.22.13.36.41.36.8l.02 15.12.01 1.45z"></path><path fill="#475675" d="m17.53 32.027 6.032-3.506.772.446-6.032 3.505z"></path><path fill="#1d2943" d="M28.591 34.949v.88l-6.04 3.51-3.71-2.14c-.73-.42-1.32-1.45-1.32-2.29l.01-2.88.77.44 6.03-3.5-.01 2.88c0 .35.25.78.56.95l3.71 2.15z"></path><path fill="#1d2943" d="m22.557 38.45 6.033-3.505-.003.888-6.032 3.505z"></path><path fill="#4c5c75" d="M24.88 32.803c-.306-.177-.555-.608-.554-.96l.008-2.876-6.032 3.505-.008 2.877c-.001.352.247.783.554.96l3.71 2.141 6.032-3.505-3.71-2.142z"></path><path fill="#1d2943" d="m18.302 32.472-.008 2.877c-.001.352.247.783.554.96l3.71 2.141-.003.888-3.71-2.141c-.732-.423-1.326-1.452-1.323-2.293l.008-2.877.772.445z"></path><path fill="#4c5c75" d="M30.865 6.476c-.227-.137-.545-.11-.9.09L9.202 18.549c-.69.41-1.264 1.39-1.264 2.19l.037 15.117 1.78 1.028v-.313l.061-14.97c0-.8.318-1.637 1.018-2.037l20.733-11.97c.345-.209.508-.407.726-.289l-1.428-.828z"></path><path fill="#b0b8cf" d="m7.975 35.866.009 1.436c0 .4.136.682.373.827l1.039.591.373.211c-.228-.127-.005-.516-.014-.916v-1.132l-1.78-1.028v.01z"></path><path fill="#1d2943" d="M32.67 23.23 9.394 36.68l-.042-15.117c0-.8.572-1.778 1.268-2.184L31.388 7.396c.696-.413 1.268-.082 1.268.717l.014 15.117z"></path><path fill="#fff" d="M10.042 21.561c0-.547.441-1.304.926-1.587l20.765-11.98a.555.555 0 0 1 .212-.087c0 .018.022.082.022.206l.013 14.72-21.9 12.656-.038-13.928z"></path><path fill="#e3e7f0" d="m32.672 23.233.005 1.442c.002.807-.565 1.788-1.267 2.193L10.675 38.84c-.706.407-1.276.082-1.278-.724l-.004-1.442 23.28-13.441z"></path><path fill="#b0b8cf" d="M21.726 31.001c0 .472-.331 1.026-.731 1.262-.402.235-.732.047-.732-.414 0-.471.318-1.036.732-1.272.4-.225.731-.036.731.424z"></path><path fill="#cacdea" d="M44.061 37.979v.25l-20.32 11.77-6.27-3.57-1.2.69c-.01 0-.01.01-.02.01-.16.11-.38.1-.64-.04-.47-.28-.86-.94-.86-1.48.01-.31.13-.51.32-.58l20.26-11.74c.16-.1.37-.08.61.05l8.12 4.64z"></path><path fill="#cacdea" d="M44.061 37.979v.25l-20.32 11.77-6.27-3.57-1.2.69s-.01.01-.02.01c-.16.11-.38.1-.64-.04-.47-.28-.86-.94-.86-1.48.01-.31.13-.51.32-.58l20.26-11.74c.16-.1.37-.08.61.05l8.12 4.64z"></path><path fill="#f3f1fc" d="m15.163 45.324 20.322-11.77c-.115.066-.187.208-.187.408-.001.403.286.9.638 1.102.177.102.338.11.455.043l-20.322 11.77c-.116.068-.277.06-.455-.043-.352-.202-.639-.698-.638-1.102 0-.2.072-.341.187-.408z"></path><path fill="#e9e7fc" d="m36.548 35.376-20.322 11.77c.155-.089.25-.279.25-.55l20.322-11.77c0 .27-.096.46-.25.55z"></path><path fill="#dedffb" d="m16.257 46.469 20.321-11.77.22.127-20.321 11.77z"></path><path fill="#e9e7fc" d="m23.737 49.748 20.322-11.77-.001.252L23.736 50z"></path><path fill="#f3f1fc" d="M44.062 37.98 23.734 49.75l-8.116-4.632c-.238-.143-.458-.156-.608-.062l20.32-11.77c.158-.094.37-.081.609.056l8.123 4.638z"></path><path fill="#cacdea" d="M23.737 49.748V50l-8.118-4.632c-.353-.203-.642-.039-.643.364-.001.404.286.9.638 1.102.353.203.642.039.643-.365l.22.127c-.002.545-.387.764-.863.49-.477-.274-.86-.935-.858-1.48.002-.546.387-.765.863-.49l8.118 4.632z"></path><path fill="#4c5c75" d="M21.853 42.979c-.038.022-.038.057 0 .078l.893.52a.15.15 0 0 0 .136 0l.899-.52c.038-.021.038-.056 0-.078l-.893-.52a.15.15 0 0 0-.136 0l-.9.52zm-.923-.536c-.037.021-.038.056 0 .078l.203.118a.15.15 0 0 0 .135 0l.9-.52c.037-.02.038-.056 0-.078l-.203-.118a.15.15 0 0 0-.135 0l-.9.52zm2.226 1.293c-.038.022-.038.057 0 .079l.893.519a.15.15 0 0 0 .136 0l.899-.52c.038-.021.038-.056 0-.078l-.893-.52a.15.15 0 0 0-.136 0l-.9.52zM36.898 35.802c-.038.022-.038.057 0 .079l.893.519a.15.15 0 0 0 .135 0l.9-.52c.037-.021.038-.056 0-.078l-.893-.52a.15.15 0 0 0-.136 0l-.9.52zm-2.678.037c-.038.021-.038.056 0 .078l.893.52a.15.15 0 0 0 .136 0l2.274-1.313c.038-.022.038-.057 0-.08l-.893-.518a.15.15 0 0 0-.136 0l-2.274 1.313zm1.303.757c-.038.022-.038.057 0 .078l.893.52a.15.15 0 0 0 .136 0l.9-.52c.038-.022.038-.057 0-.079l-.893-.52a.15.15 0 0 0-.135 0l-.901.52zM23.226 42.186c-.036.02-.038.057 0 .078l.893.52c.038.021.1.02.136 0l.9-.52c.038-.022.039-.057.001-.079l-.893-.52a.15.15 0 0 0-.136 0l-.9.52zM38.2 36.559c-.037.022-.037.057 0 .079l.894.52a.15.15 0 0 0 .135 0l.9-.52c.037-.022.038-.057 0-.079l-.893-.519a.15.15 0 0 0-.136 0l-.9.52zm-1.374.794c-.038.022-.038.057 0 .079l.893.519a.15.15 0 0 0 .136 0l.9-.52c.038-.022.038-.057 0-.079l-.893-.519a.15.15 0 0 0-.136 0l-.9.52zM31.924 36.095c-.038.022-.038.057 0 .079l.202.118a.15.15 0 0 0 .136 0l.9-.52c.037-.021.037-.056 0-.078l-.203-.118a.15.15 0 0 0-.136 0l-.9.52zm-1.375.794c-.037.022-.038.057 0 .079l.203.118a.15.15 0 0 0 .135 0l.901-.52c.038-.022.038-.057 0-.079l-.202-.118a.15.15 0 0 0-.136 0l-.9.52zm2.297-.257c-.037.021-.037.056 0 .078l.894.52a.15.15 0 0 0 .135 0l.9-.52c.037-.022.038-.057 0-.078l-.893-.52a.15.15 0 0 0-.136 0l-.9.52zm-3.67 1.05c-.038.022-.04.058-.002.08l.203.117c.037.022.1.021.137 0l.9-.52c.037-.022.037-.057 0-.078l-.203-.118a.15.15 0 0 0-.136 0l-.9.519zm2.296-.257c-.038.022-.038.057 0 .079l.893.52a.15.15 0 0 0 .136 0l.9-.52c.038-.023.038-.058 0-.08l-.893-.519a.15.15 0 0 0-.136 0l-.9.52zm3.98.72c-.037.023-.038.058 0 .08l.893.519a.15.15 0 0 0 .136 0l.9-.52c.037-.021.037-.056 0-.078l-.894-.52a.15.15 0 0 0-.135 0l-.9.52zm-2.677.037c-.038.022-.038.057 0 .079l.893.52a.15.15 0 0 0 .136 0l.9-.52c.038-.022.038-.058 0-.08l-.893-.519a.15.15 0 0 0-.136 0l-.9.52zm-2.677.036c-.037.022-.039.058-.001.08l.893.519c.038.022.1.02.137 0l.9-.52c.037-.022.037-.057 0-.079l-.894-.52a.15.15 0 0 0-.135 0l-.9.52zm6.657.685c-.037.022-.038.057 0 .079l.893.519a.15.15 0 0 0 .136 0l3.648-2.106c.037-.022.038-.057 0-.079l-.893-.519a.15.15 0 0 0-.136 0l-3.648 2.106zm-2.677.037c-.038.021-.038.056 0 .078l.893.52a.15.15 0 0 0 .136 0l.9-.52c.038-.022.038-.057 0-.08l-.893-.518a.15.15 0 0 0-.136 0l-.9.52zm-2.677.035c-.037.022-.039.058-.001.08l.893.519c.038.022.1.021.137 0l.9-.52c.037-.022.037-.057 0-.079l-.894-.519a.15.15 0 0 0-.135 0l-.9.52zm3.98.722c-.038.022-.038.057 0 .078l.893.52a.15.15 0 0 0 .135 0l.901-.52c.038-.022.038-.057 0-.079l-.893-.52a.15.15 0 0 0-.136 0l-.9.52zm-2.677.036c-.037.021-.039.057-.001.079l.893.52c.038.02.1.02.137-.002l.9-.519c.037-.022.037-.057 0-.078l-.894-.52a.15.15 0 0 0-.135 0l-.9.52zm-2.677.036c-.038.022-.038.057 0 .079l.893.519a.15.15 0 0 0 .135 0l.9-.52c.038-.021.038-.056 0-.078l-.893-.52a.15.15 0 0 0-.136 0l-.9.52zm3.98.72c-.038.022-.039.058-.001.08l.893.52c.038.021.1.02.137-.001l.9-.52c.037-.021.037-.057 0-.078l-.894-.52a.15.15 0 0 0-.135 0l-.9.52zm-5.355.074c-.038.021-.038.057 0 .078l.893.52a.15.15 0 0 0 .136 0l.9-.52c.038-.022.038-.057 0-.079l-.893-.52a.15.15 0 0 0-.135 0l-.901.52zm-1.373.793c-.038.021-.038.056 0 .078l.893.52a.15.15 0 0 0 .135 0l.9-.52c.037-.022.038-.057 0-.078l-.893-.52a.15.15 0 0 0-.136 0l-.9.52zm1.302.757c-.037.022-.037.057 0 .078l.894.52a.15.15 0 0 0 .135 0l.9-.52c.037-.021.038-.056 0-.078l-.893-.52a.15.15 0 0 0-.136 0l-.9.52zm-2.677.036c-.038.022-.038.057 0 .079l.893.52a.15.15 0 0 0 .136 0l.9-.52c.037-.022.038-.058 0-.08l-.893-.519a.152.152 0 0 0-.137.001l-.9.52zm1.303.758c-.038.021-.038.056 0 .078l.893.52a.15.15 0 0 0 .136 0l.899-.52c.038-.022.04-.057.002-.08l-.894-.518a.152.152 0 0 0-.137 0l-.9.52zm-2.678.036c-.036.021-.038.057 0 .079l.893.519c.038.022.1.02.136 0l.9-.52c.038-.022.039-.057.001-.079l-.893-.519a.15.15 0 0 0-.136 0l-.9.52zm1.303.757c-.036.021-.038.057 0 .079l.893.52c.038.02.1.02.136 0l.9-.52c.038-.023.038-.058.001-.08l-.894-.519a.15.15 0 0 0-.135 0l-.9.52zm1.303.757c-.036.021-.038.057 0 .079l.893.52c.038.021.1.02.136 0l.9-.52c.038-.023.038-.058.001-.08l-.894-.519a.15.15 0 0 0-.135 0l-.9.52zm-2.676.036c-.038.022-.038.057 0 .079l.893.519a.15.15 0 0 0 .135 0l.9-.52c.038-.021.038-.056 0-.078l-.893-.52a.15.15 0 0 0-.136 0l-.9.52zm1.303.757c-.038.022-.038.057 0 .079l.893.52a.15.15 0 0 0 .135 0l.9-.52c.038-.022.038-.057 0-.079l-.893-.519a.15.15 0 0 0-.136 0l-.9.52zm1.303.758c-.038.021-.038.056 0 .078l.893.52a.15.15 0 0 0 .135 0l10.52-6.074c.038-.022.038-.057 0-.079l-.893-.519a.15.15 0 0 0-.136 0l-10.52 6.074zM25.69 46.801c-.038.022-.038.057 0 .079l.893.52a.15.15 0 0 0 .136 0l.9-.52c.038-.023.038-.058 0-.08l-.893-.519a.15.15 0 0 0-.135 0l-.901.52zm-1.303-.757c-.038.022-.038.057 0 .079l.893.519a.15.15 0 0 0 .136 0l.9-.52c.038-.022.038-.057 0-.079l-.893-.519a.15.15 0 0 0-.135 0l-.901.52zM21.781 44.53c-.038.021-.038.056 0 .078l.893.52a.15.15 0 0 0 .136 0l.9-.52c.038-.022.038-.057.001-.08l-.894-.518a.15.15 0 0 0-.135 0l-.9.52zm-2.676.035c-.038.022-.038.057 0 .079l.893.52a.15.15 0 0 0 .135 0l.9-.52c.038-.022.038-.057 0-.079l-.893-.519a.15.15 0 0 0-.136 0l-.9.52zm-.072 1.551c-.038.022-.038.057 0 .079l.893.52a.15.15 0 0 0 .136 0l2.274-1.314c.038-.022.038-.057 0-.078l-.893-.52a.15.15 0 0 0-.136 0l-2.274 1.313zm1.303.757c-.038.022-.038.057 0 .079l.893.52a.15.15 0 0 0 .136 0l3.648-2.107c.038-.022.038-.057 0-.079l-.893-.52a.15.15 0 0 0-.135 0l-3.65 2.107zm3.98.721c-.037.022-.037.057 0 .079l.894.519a.15.15 0 0 0 .135 0l.9-.52c.037-.021.038-.056 0-.078l-.893-.52a.15.15 0 0 0-.136 0l-.9.52zm-2.677.037c-.038.021-.038.056 0 .078l.893.52a.15.15 0 0 0 .136 0l2.274-1.313c.037-.022.038-.057 0-.08l-.893-.518a.15.15 0 0 0-.136 0l-2.274 1.313zm1.303.757c-.038.022-.038.057 0 .078l.893.52a.15.15 0 0 0 .136 0l.899-.52c.038-.021.04-.057.002-.079l-.894-.52a.152.152 0 0 0-.137.002l-.9.519zM20.478 43.772c-.038.022-.038.057 0 .079l.893.52a.15.15 0 0 0 .136 0l.9-.52c.038-.022.038-.058.001-.08l-.894-.519a.15.15 0 0 0-.135 0l-.9.52zm-.922-.536c-.038.022-.038.057 0 .079l.202.118a.15.15 0 0 0 .136 0l.9-.52c.038-.022.038-.057 0-.079l-.202-.118a.15.15 0 0 0-.136 0l-.9.52zm-2.749 1.587c-.037.022-.037.057 0 .079l.203.117a.15.15 0 0 0 .136 0l.899-.519c.038-.022.04-.057.002-.08l-.203-.117a.152.152 0 0 0-.137 0l-.9.52zm1.375-.794c-.038.022-.038.057 0 .079l.203.118a.15.15 0 0 0 .135 0l.9-.52c.037-.021.038-.056 0-.078l-.203-.118a.15.15 0 0 0-.135 0l-.9.52zm5.496-3.173c-.037.022-.038.057 0 .079l.203.117a.15.15 0 0 0 .135 0l.9-.519c.038-.022.039-.057.002-.08l-.203-.117a.152.152 0 0 0-.137 0l-.9.52zm-1.374.794c-.037.02-.038.057 0 .078l.202.118c.038.022.1.021.136 0l.9-.52c.038-.022.038-.057 0-.078l-.202-.118a.15.15 0 0 0-.136 0l-.9.52zM27.801 38.476c-.038.021-.038.057 0 .078l.203.118a.15.15 0 0 0 .135 0l.9-.52c.037-.02.038-.056 0-.078l-.203-.118a.15.15 0 0 0-.135 0l-.9.52zm-1.375.793c-.037.022-.037.057 0 .079l.203.118a.15.15 0 0 0 .136 0l.9-.52c.038-.022.038-.057 0-.079l-.202-.118a.15.15 0 0 0-.136 0l-.9.52zm2.298-.257c-.038.022-.038.057 0 .078l.893.52a.15.15 0 0 0 .136 0l.899-.52c.038-.021.038-.056 0-.078l-.893-.52a.15.15 0 0 0-.136 0l-.9.52zm-1.375.794c-.038.021-.038.056 0 .078l.893.52a.15.15 0 0 0 .136 0l.9-.52c.038-.022.038-.057 0-.08l-.893-.518a.15.15 0 0 0-.135 0l-.901.52zM25.053 40.062c-.038.022-.038.057 0 .079l.202.118a.15.15 0 0 0 .136 0l.9-.52c.037-.021.037-.056 0-.078l-.203-.118a.15.15 0 0 0-.136 0l-.899.52zm8.244-4.76c-.037.022-.038.057 0 .079l.203.118a.15.15 0 0 0 .135 0l.901-.52c.038-.022.038-.057 0-.079l-.202-.118a.15.15 0 0 0-.136 0l-.9.52zm1.375-.793c-.038.022-.038.057 0 .078l.202.118a.15.15 0 0 0 .136 0l.9-.519c.037-.022.037-.057 0-.079l-.203-.117a.15.15 0 0 0-.136 0l-.899.519zM17.73 45.359c-.038.022-.038.057 0 .079l.893.519a.15.15 0 0 0 .136 0l.9-.52c.037-.021.038-.057 0-.079l-.893-.519a.152.152 0 0 0-.137 0l-.899.52zm8.246-4.76c-.038.021-.038.056 0 .078l.893.52a.15.15 0 0 0 .135 0l.9-.52c.038-.022.038-.057 0-.079l-.893-.519a.15.15 0 0 0-.136 0l-.9.52zm-1.375.793c-.038.022-.038.057 0 .079l.893.519a.15.15 0 0 0 .136 0l.9-.52c.037-.021.038-.057 0-.079l-.893-.519a.152.152 0 0 0-.137 0l-.9.52zm9.548-4.003c-.037.021-.037.057 0 .078l.894.52a.15.15 0 0 0 .135 0l.9-.52c.037-.021.038-.056 0-.078l-.893-.52a.15.15 0 0 0-.136 0l-.9.52zm-4.194 3.93c-.038.023-.038.058 0 .08l.893.519a.15.15 0 0 0 .136 0l.9-.52c.038-.022.038-.057 0-.079l-.893-.52a.15.15 0 0 0-.135 0l-.901.52zm-.07 1.551c-.038.022-.038.057-.001.079l.894.519a.15.15 0 0 0 .135 0l.9-.52c.037-.021.038-.056 0-.078l-.893-.52a.15.15 0 0 0-.136 0l-.9.52zM32.633 41.283c-.038.022-.038.057 0 .079l.893.52a.15.15 0 0 0 .135 0l.9-.52c.037-.022.038-.057 0-.079l-.893-.519a.15.15 0 0 0-.136 0l-.9.52zm-1.375.794c-.038.022-.038.057 0 .079l.893.519a.15.15 0 0 0 .136 0l.9-.52c.038-.022.038-.057 0-.079l-.893-.519a.15.15 0 0 0-.136 0l-.9.52zM31.33 40.526c-.038.022-.038.057 0 .079l.893.52a.15.15 0 0 0 .135 0l.9-.52c.038-.022.038-.057 0-.079l-.893-.52a.15.15 0 0 0-.136 0l-.9.52zm-2.82 3.138c-.038.021-.038.057 0 .078l.893.52a.15.15 0 0 0 .136 0l.899-.52c.038-.021.04-.057.002-.079l-.894-.52a.152.152 0 0 0-.137.001l-.9.52zm9.548-4.004c-.037.022-.038.057 0 .079l.893.52a.15.15 0 0 0 .136 0l.9-.52c.037-.022.037-.057 0-.079l-.894-.519a.15.15 0 0 0-.135 0l-.9.52zm1.374-.793c-.038.022-.038.057 0 .079l.893.52a.15.15 0 0 0 .136 0l.9-.52c.038-.023.038-.058 0-.08l-.893-.519a.15.15 0 0 0-.136 0l-.9.52zm1.374-.793c-.037.021-.038.057 0 .078l.893.52a.15.15 0 0 0 .136 0l.9-.52c.037-.021.037-.057 0-.078l-.894-.52a.15.15 0 0 0-.135 0l-.9.52z"></path><path fill="#dedffb" d="m30.261 4.429-17.36 10.02-1.19-.69 17.35-10.02z"></path><path fill="#dedffb" d="M30.311 21.499c.01.46-.31 1.01-.71 1.24l-15.92 9.19c-.2.12-.38.13-.51.05l-1.2-.7c-.13-.07-.21-.23-.21-.46l-.05-17.06 1.19.69 17.36-10.02.05 17.07z"></path><path fill="#dedffb" d="m12.961 31.514-.055-17.064-1.196-.695.055 17.064c0 .23.08.39.21.464l1.196.695c-.13-.075-.21-.234-.21-.464z"></path><path fill="#f3f1fc" d="m12.906 14.45-1.196-.695 17.354-10.02 1.197.695z"></path><path fill="#f3f1fc" d="m30.26 4.43.055 17.064c.002.465-.315 1.014-.713 1.243l-15.916 9.19c-.397.23-.724.052-.725-.413l-.055-17.064L30.261 4.43z"></path><path fill="#df3260" d="M30.261 3.209v1.22l-17.36 10.02-1.19-.69v-1.22c-.01-.47.32-1.02.72-1.26l15.9-9.18c.21-.11.39-.13.52-.05l1.17.68c.15.07.23.24.24.48z"></path><path fill="#df3260" d="M28.852 2.048c-.13-.076-.313-.064-.516.054l-15.902 9.18c-.405.234-.729.787-.727 1.252l.003 1.22 1.196.696-.003-1.22c-.001-.465.323-1.018.727-1.252l15.902-9.181c.204-.118.386-.13.516-.054l-1.196-.695z"></path><path fill="#f45170" d="M29.532 2.797c.405-.234.724-.052.725.413l.004 1.22-17.355 10.02-.003-1.22c-.002-.465.323-1.018.727-1.252l15.902-9.181z"></path><path fill="#fff" d="M14.142 12.422c.21-.12.384-.03.385.21 0 .242-.173.533-.382.654-.202.116-.376.026-.377-.215a.83.83 0 0 1 .374-.649zm1.33-.767c.202-.117.383-.03.384.21 0 .241-.18.536-.382.653-.202.117-.383.03-.384-.21 0-.241.18-.536.382-.653zm1.33-.768c.201-.117.375-.026.376.215a.83.83 0 0 1-.374.649c-.21.12-.384.03-.385-.211 0-.24.173-.532.382-.653zm12.246-7.029c.195-.112.347-.026.347.19a.75.75 0 0 1-.345.599L22.533 8.41c-.195.112-.347.025-.348-.199 0-.216.15-.478.346-.59l6.517-3.763z"></path><path fill="#5ec363" d="M18.68 23.396c.351-.203.643-.043.644.367 0 .398-.289.9-.64 1.103l-3.946 2.278c-.342.197-.638.034-.64-.364 0-.41.294-.909.635-1.106l3.947-2.278z"></path><path fill="#78e75a" d="M28.484 17.735c.352-.203.638-.04.639.37.001.399-.283.897-.635 1.1l-9.804 5.66c.351-.202.64-.704.64-1.102-.001-.41-.293-.57-.644-.367l9.804-5.66z"></path><path fill="#7e5af2" d="M40.131 25.489c-.49 1.39-1.15 2.68-1.98 3.87-.5.71-1.06 1.38-1.68 2.01l-.06.06-.06.01c-.78.11-1.48.04-2.07-.2-.13-.05-.27-.12-.39-.19-.03-.01-.05-.03-.08-.05l-1.33-.76c-.24-.15-.46-.32-.67-.53-.2-.21-.38-.46-.55-.73-.78-1.3-1.1-3.32-.96-5.99l.02-.18.15-.09c.23-.14.46-.28.68-.44.36-.25.71-.54 1.06-.85.17-.15.34-.32.51-.49.16-.17.33-.35.49-.53a16.7 16.7 0 0 0 1.65-2.19l.11-.17.1.04c.36.15.73.24 1.11.28.57.05 1.17-.01 1.79-.2.37-.11.75-.26 1.13-.45.13-.07.25-.14.38-.21l.15-.08 1.41.82.01.16c.16 2.5-.15 4.88-.92 7.08z"></path><path fill="#7e5af2" d="M40.133 25.484a15.733 15.733 0 0 1-3.666 5.884l-.058.059-.059.008c-.962.137-1.784.007-2.46-.388l-1.405-.813c-.485-.286-.892-.7-1.225-1.256-.778-1.303-1.1-3.318-.954-5.99l.011-.184.149-.086c.23-.137.462-.282.685-.442a11.95 11.95 0 0 0 2.061-1.862 17.796 17.796 0 0 0 1.651-2.2l.106-.163.106.043c.896.363 1.866.387 2.903.078.489-.145.99-.368 1.502-.657l.153-.086 1.404.817.012.165c.16 2.5-.149 4.878-.916 7.073z"></path><path fill="#b28afd" d="m41.037 18.245-.15.085a7.125 7.125 0 0 1-1.505.656c-1.037.31-2.01.284-2.903-.076l-.105-.044-1.406-.817.106.044c.896.363 1.868.386 2.902.079.49-.147.99-.366 1.505-.66l.15-.084 1.406.817zM33.89 31.047l-1.405-.814c-.486-.284-.894-.7-1.225-1.254-.779-1.303-1.1-3.318-.954-5.992l.011-.182 1.403.818-.009.178c-.146 2.677.176 4.692.952 5.993.331.553.741.972 1.227 1.253z"></path><path fill="#7e5af2" d="m36.373 18.866.106.043c1.315.533 2.799.338 4.407-.579l.15-.085.012.167c.16 2.497-.148 4.877-.916 7.072a15.708 15.708 0 0 1-3.666 5.883l-.057.058-.058.009c-1.656.234-2.896-.317-3.687-1.64-.778-1.3-1.099-3.317-.953-5.992l.01-.179.15-.088c1.61-.941 3.089-2.456 4.397-4.504l.105-.165z"></path><path fill="#fff" d="M39.629 20.1c-.004 2.978-.744 6.757-3.705 9.942a3.258 3.258 0 0 1-1.36-.152c-.703-.412-1.17-1.128-1.465-2.012-.356-1.072-.466-2.382-.442-3.677 1.334-.935 2.582-2.226 3.72-3.85 1.006.27 2.094.184 3.252-.25z"></path><path fill="#986ff9" d="m40.12 19.895-.21.093c-.094.04-.187.072-.28.107-.005 2.977-.745 6.76-3.707 9.946a3.315 3.315 0 0 1-1.374-.155c.493.295 1.13.453 1.883.393 3.102-3.336 3.752-7.35 3.688-10.384z"></path><path fill="#4c5c75" d="M36.683 24.77c.165-.274.264-.582.264-.856 0-.45-.286-.658-.67-.527.066.088.099.22.099.362 0 .275-.099.582-.264.846l.55 1.371-1.438.823-.154.593 2.162-1.251-.549-1.36z"></path><path fill="#1d2943" d="M36.112 24.595c.165-.264.264-.571.264-.846a.614.614 0 0 0-.099-.362.537.537 0 0 0-.143.066c-.439.263-.8.89-.79 1.394 0 .274.088.472.253.549l-.373 1.393 1.437-.823-.549-1.371z"></path><path fill="#986ff9" d="m36.374 18.866-.105.164a17.565 17.565 0 0 1-1.65 2.2 12.117 12.117 0 0 1-2.061 1.863 9.7 9.7 0 0 1-.685.442l-.153.088-1.403-.818.15-.087c.231-.135.46-.282.685-.443a11.994 11.994 0 0 0 2.062-1.862 17.745 17.745 0 0 0 1.649-2.197l.105-.167 1.406.817z"></path><path fill="#5094ff" d="M27.308 10.517c.384-.222.691-.043.692.394l.009 2.98c.001.437-.304.97-.688 1.191l-11.407 6.586c-.381.22-.692.043-.693-.395l-.008-2.979c-.001-.438.307-.972.688-1.192l11.407-6.585z"></path><path fill="#fff" d="M16.62 17.752c.036-.02.071-.025.098-.009s.041.045.042.089l.001.678c.052-.09.109-.172.169-.244a.975.975 0 0 1 .269-.23c.095-.056.179-.08.25-.067.07.01.125.05.164.118a.566.566 0 0 1 .055.263l.002.809a.27.27 0 0 1-.04.136.275.275 0 0 1-.095.098c-.038.022-.071.026-.096.008-.027-.012-.038-.043-.038-.087l-.002-.78c0-.217-.085-.274-.254-.177a.703.703 0 0 0-.21.19c-.059.081-.118.178-.173.288l.003.846a.287.287 0 0 1-.136.233c-.036.021-.071.027-.098.012-.024-.014-.038-.044-.038-.088l-.005-1.85c0-.043.013-.088.037-.134a.269.269 0 0 1 .096-.102zm1.628-.58c.018-.01.035-.011.048-.002l.02.045v.203l.258-.149c.036-.02.063-.023.087-.013.022.016.033.041.033.082 0 .037-.01.075-.032.112a.234.234 0 0 1-.087.094l-.258.15.002.833c0 .066.014.096.036.099a.193.193 0 0 0 .105-.033.553.553 0 0 0 .093-.07l.022-.018.033-.022c.03-.017.057-.024.079-.011.021.012.032.037.033.075a.248.248 0 0 1-.068.16.942.942 0 0 1-.217.18c-.256.147-.384.086-.385-.182l-.002-.856-.155.09-.05.002-.019-.045.03-.086.336-.573a.176.176 0 0 1 .058-.066zm.948-.548c.018-.01.036-.01.05-.002l.018.045v.204l.26-.15c.034-.02.062-.023.086-.012.022.015.033.04.033.08 0 .038-.01.076-.032.113a.242.242 0 0 1-.087.094l-.258.15.002.834c0 .065.014.095.036.098a.193.193 0 0 0 .105-.033.553.553 0 0 0 .093-.07l.022-.018.032-.022c.03-.017.055-.022.08-.011.021.012.032.037.032.075a.248.248 0 0 1-.067.16.942.942 0 0 1-.218.18c-.255.147-.383.086-.384-.182l-.003-.856-.155.09-.049.003-.021-.044.032-.088.333-.57a.179.179 0 0 1 .06-.068zm1.88-.461c.06.084.09.204.091.363 0 .156-.029.314-.088.468a1.41 1.41 0 0 1-.23.405 1.105 1.105 0 0 1-.302.268c-.152.088-.288.107-.403.05l.002.67c0 .043-.013.088-.04.132a.256.256 0 0 1-.098.104c-.036.02-.068.023-.096.008-.024-.017-.038-.047-.038-.088l-.005-1.88a.277.277 0 0 1 .133-.232c.035-.02.07-.027.098-.014.027.015.04.045.04.089v.012c.117-.19.25-.325.403-.413a.521.521 0 0 1 .302-.08.289.289 0 0 1 .231.138zm-.283.942a.864.864 0 0 0 .102-.422c0-.156-.036-.257-.104-.303-.07-.043-.166-.029-.28.037a.811.811 0 0 0-.207.176c-.06.069-.116.148-.162.234l.001.582c.047.03.104.046.164.046.065 0 .133-.02.206-.063a.74.74 0 0 0 .28-.287m1.074-1.765c.13-.075.255-.122.37-.141l.062.017.025.064a.265.265 0 0 1-.122.21l-.038.017a.962.962 0 0 0-.278.11.657.657 0 0 0-.198.164.28.28 0 0 0-.065.163c0 .047.02.067.058.067a.61.61 0 0 0 .212-.048c.098-.025.177-.042.24-.05a.216.216 0 0 1 .168.04c.047.036.071.106.072.212a.742.742 0 0 1-.133.399 1.06 1.06 0 0 1-.37.338c-.168.098-.323.143-.462.136-.035-.008-.054-.037-.054-.084a.22.22 0 0 1 .035-.118.23.23 0 0 1 .085-.093.132.132 0 0 1 .053-.018.673.673 0 0 0 .33-.105c.252-.146.252-.28.252-.324 0-.02-.006-.047-.052-.046-.04.002-.109.016-.201.042a1.753 1.753 0 0 1-.245.056.242.242 0 0 1-.175-.037c-.049-.034-.074-.1-.074-.204 0-.14.043-.281.132-.42a1.05 1.05 0 0 1 .373-.347zm.924.624c.044-.025.085-.033.115-.013.032.019.049.053.05.103v.016a.302.302 0 0 1-.05.16.313.313 0 0 1-.113.121l-.025.015c-.043.025-.082.028-.114.01-.03-.018-.047-.052-.047-.105v-.016c0-.05.016-.103.046-.158a.311.311 0 0 1 .114-.119l.024-.014zm-.003-1.137c.044-.025.085-.03.115-.01.032.016.049.05.049.1v.019a.32.32 0 0 1-.049.16.326.326 0 0 1-.114.118l-.024.014c-.044.026-.082.029-.115.013-.03-.02-.046-.054-.046-.104v-.019c0-.05.016-.103.046-.155a.322.322 0 0 1 .114-.122l.024-.014z"></path></svg>