<svg xmlns="http://www.w3.org/2000/svg" viewBox="0 0 30 30" id="Landingpageoptimization"><g fill="#052c55" class="color303c42 svgShape"><path d="m17.379 14.383.796.2-.422.704a.5.5 0 0 0 .075.61l1.273 1.273a.5.5 0 0 0 .61.076l.705-.423.2.797a.5.5 0 0 0 .484.379h1.8a.5.5 0 0 0 .485-.38l.199-.796.704.423a.5.5 0 0 0 .61-.076l1.274-1.273a.5.5 0 0 0 .075-.61l-.422-.704.796-.2a.5.5 0 0 0 .379-.485v-1.8a.5.5 0 0 0-.379-.484l-.796-.2.422-.704a.5.5 0 0 0-.075-.61l-1.273-1.273a.498.498 0 0 0-.61-.076l-.705.423-.2-.797A.5.5 0 0 0 22.9 8h-1.8a.5.5 0 0 0-.485.378l-.199.797-.704-.423a.5.5 0 0 0-.61.076L17.827 10.1a.5.5 0 0 0-.075.61l.422.705-.796.199a.5.5 0 0 0-.379.485v1.8a.5.5 0 0 0 .379.484zM18 12.49l.735-.184a.498.498 0 0 0 .35-.32c.04-.114.084-.225.136-.331a.5.5 0 0 0-.021-.476l-.389-.647.721-.721.647.388a.504.504 0 0 0 .476.021 3.17 3.17 0 0 1 .33-.135.498.498 0 0 0 .322-.35L21.491 9h1.018l.184.734c.04.164.162.296.321.351a3 3 0 0 1 .33.135.502.502 0 0 0 .477-.02l.647-.39.721.722-.389.647a.5.5 0 0 0-.02.476c.051.106.095.217.134.33.055.16.187.28.351.321l.735.184v1.019l-.735.184a.498.498 0 0 0-.35.32c-.04.114-.084.225-.136.331a.5.5 0 0 0 .021.476l.389.647-.721.722-.647-.39a.498.498 0 0 0-.476-.02 3.022 3.022 0 0 1-.33.135.498.498 0 0 0-.322.35L22.51 17h-1.018l-.184-.735a.498.498 0 0 0-.321-.351 3.022 3.022 0 0 1-.33-.135.502.502 0 0 0-.477.02l-.647.39-.721-.722.389-.647a.5.5 0 0 0 .02-.476 3.022 3.022 0 0 1-.134-.33.498.498 0 0 0-.351-.321L18 13.508v-1.019z" fill="#000000" class="color000000 svgShape"></path><path d="M22 14.999c1.103 0 2-.897 2-2s-.897-2-2-2-2 .897-2 2 .897 2 2 2zm0-3a1 1 0 1 1-1 1c0-.552.449-1 1-1zM4.5 14.999h9a.5.5 0 1 0 0-1h-9a.5.5 0 1 0 0 1zM4.5 17.999h6a.5.5 0 1 0 0-1h-6a.5.5 0 1 0 0 1z" fill="#000000" class="color000000 svgShape"></path><circle cx="15" cy="22.499" r="1.003" fill="#000000" class="color000000 svgShape"></circle><path d="M28 2.996H11V1.499a.5.5 0 0 0-.5-.5h-4a.5.5 0 0 0-.5.5v1.497H2A2.005 2.005 0 0 0-.003 4.999v18C-.003 24.103.896 25 2 25h8.974c-.062.838-.274 2.162-.855 2.736a.816.816 0 0 1-.59.259H9.5A.503.503 0 0 0 9.495 29H20.5a.503.503 0 0 0 .005-1.005c-1.027-.011-1.388-1.88-1.477-2.995H28a2.005 2.005 0 0 0 2.003-2V5A2.005 2.005 0 0 0 28 2.996zM7 7.499v-5.5h3v5.5a.5.5 0 0 0 .5.5h.96l-2.96 3.7-2.96-3.7h.96a.5.5 0 0 0 .5-.5zM2 4h4v3H4.5a.5.5 0 0 0-.39.812l4 5a.5.5 0 0 0 .78 0l4-5A.501.501 0 0 0 12.5 7H11V4h17c.55 0 .997.448.997.998v14.997H1.003V4.999A1 1 0 0 1 2 4zm16.84 23.995h-7.652c.586-.925.75-2.262.796-2.995h6.037c.053.721.227 2.062.82 2.995zm9.16-4H2a.998.998 0 0 1-.997-.997V21h27.994v2c0 .55-.447.997-.997.997z" fill="#000000" class="color000000 svgShape"></path></g></svg>