<svg xmlns="http://www.w3.org/2000/svg" viewBox="0 0 64 64" id="ResponsiveWebsite"><path d="M22,35H7a3,3,0,0,1-3-3V10A3,3,0,0,1,7,7H43a3,3,0,0,1,3,3v5h2V10a5.006,5.006,0,0,0-5-5H7a5.006,5.006,0,0,0-5,5V32a5.006,5.006,0,0,0,5,5H21v4H16v2H34V41H29V37h5V35H22Zm1,6V37h4v4Z" fill="#052c55" class="color000000 svgShape"></path><path d="M31,13V10a1,1,0,0,0-1-1H7a1,1,0,0,0-1,1V24a1,1,0,0,0,1,1H30a1,1,0,0,0,1-1V15H29v8H26.445l-2.762-3.069a3.994,3.994,0,1,0-4.514-5.016l-1.426-1.584a1.03,1.03,0,0,0-1.486,0L8,22.505V11H29v2Zm-8,1a2,2,0,1,1-2,2A2,2,0,0,1,23,14ZM17,15.5,23.755,23H10.245Z" fill="#052c55" class="color000000 svgShape"></path><rect width="4" height="2" x="6" y="27" fill="#052c55" class="color000000 svgShape"></rect><rect width="19" height="2" x="12" y="27" fill="#052c55" class="color000000 svgShape"></rect><rect width="4" height="2" x="6" y="31" fill="#052c55" class="color000000 svgShape"></rect><rect width="19" height="2" x="12" y="31" fill="#052c55" class="color000000 svgShape"></rect><rect width="11" height="2" x="33" y="13" fill="#052c55" class="color000000 svgShape"></rect><rect width="7" height="2" x="37" y="9" fill="#052c55" class="color000000 svgShape"></rect><rect width="2" height="2" x="33" y="9" fill="#052c55" class="color000000 svgShape"></rect><path d="M57,17H41a5.006,5.006,0,0,0-5,5V54a5.006,5.006,0,0,0,5,5H57a5.006,5.006,0,0,0,5-5V22A5.006,5.006,0,0,0,57,17Zm0,40H41a3,3,0,0,1-3-3V23H58V21H38.184A3,3,0,0,1,41,19H57a3,3,0,0,1,3,3V49H40v2H60v3A3,3,0,0,1,57,57Z" fill="#052c55" class="color000000 svgShape"></path><rect width="6" height="2" x="46" y="53" fill="#052c55" class="color000000 svgShape"></rect><path d="M40.076,37.383A1,1,0,0,0,41,38H57a1,1,0,0,0,1-1V31H56v5H53.414l-1.538-1.538a3.491,3.491,0,1,0-3.838-3.838l-.331-.331a1,1,0,0,0-1.414,0L42,34.586V27H56v2h2V26a1,1,0,0,0-1-1H41a1,1,0,0,0-1,1V37h.009A1,1,0,0,0,40.076,37.383ZM51.5,29.5A1.5,1.5,0,1,1,50,31,1.5,1.5,0,0,1,51.5,29.5ZM47,32.414,50.586,36H43.414Z" fill="#052c55" class="color000000 svgShape"></path><rect width="2" height="2" x="40" y="40" fill="#052c55" class="color000000 svgShape"></rect><rect width="2" height="2" x="40" y="44" fill="#052c55" class="color000000 svgShape"></rect><rect width="14" height="2" x="44" y="40" fill="#052c55" class="color000000 svgShape"></rect><rect width="14" height="2" x="44" y="44" fill="#052c55" class="color000000 svgShape"></rect></svg>