<svg xmlns="http://www.w3.org/2000/svg" enable-background="new 0 0 66 66" viewBox="0 0 66 66" id="digital-marketing"><path fill="#FFAB00" d="M61.86459,12.89745c-0.30523-1.47692-0.90585-2.85548-1.71323-4.06646l1.60492-2.18594l-2.73723-2.72729
				l-2.19569,1.62462c-1.19138-0.77785-2.53046-1.33918-3.97785-1.63446l-0.40369-2.78646h-3.85969l-0.42339,2.78646
				c-1.408,0.29529-2.72739,0.84667-3.90892,1.60492l-2.304-1.70338l-2.73723,2.72738l1.67385,2.26452
				c-0.78769,1.17179-1.37846,2.48133-1.68369,3.90902l-2.78646,0.43323v3.84975l2.69785,0.40379
				c0.26585,1.47692,0.81723,2.85529,1.59508,4.07621l-1.59508,2.15631l2.72738,2.71754l2.09723-1.52606
				c1.22092,0.84667,2.62892,1.46698,4.12554,1.78205l0.37415,2.54041h3.84985l0.37415-2.48133
				c1.536-0.27569,2.96369-0.87631,4.23385-1.71313l2.048,1.50646l2.71754-2.72738l-1.49662-2.01856
				c0.83693-1.25046,1.42769-2.66821,1.72308-4.17477l2.56985-0.39375v-3.85969L61.86459,12.89745z M50.4332,22.23151
				c-3.91877,0-7.09908-3.18021-7.09908-7.09898s3.18031-7.09908,7.09908-7.09908s7.09908,3.18031,7.09908,7.09908
				S54.35197,22.23151,50.4332,22.23151z"></path><path fill="#2E0056" d="M28.60291,29.02427l-7.57839-4.6337H8.47451c-0.74811,0-1.3563-0.60475-1.3563-1.34804V9.16369
			c0-0.74329,0.60819-1.34814,1.3563-1.34814h21.63751c0.7433,0,1.34804,0.60485,1.34804,1.34814v13.87884
			c0,0.74329-0.60474,1.34804-1.34804,1.34804h-1.50912V29.02427z M8.47451,8.80017c-0.2048,0-0.37168,0.16305-0.37168,0.36352
			v13.87884c0,0.20047,0.16688,0.36342,0.37168,0.36342h12.82688l6.3169,3.86255v-3.86255h2.49373
			c0.20047,0,0.36342-0.16295,0.36342-0.36342V9.16369c0-0.20047-0.16295-0.36352-0.36342-0.36352H8.47451z"></path><circle cx="19.289" cy="15.707" r="6.096" fill="#E5E5E5"></circle><path fill="#2E0056" d="M23.38267 19.60593h-8.18649v-1.56249c0-1.6322 1.32785-2.96005 2.96005-2.96005h2.26589c1.6327 0 2.96054 1.32785 2.96054 2.96005V19.60593zM16.1808 18.62132h6.21726v-.57787c0-1.08938-.88655-1.97543-1.97593-1.97543h-2.26589c-1.08938 0-1.97544.88605-1.97544 1.97543V18.62132zM19.28943 14.47471c-1.08219 0-1.96303-.88074-1.96303-1.96342 0-1.08229.88084-1.96303 1.96303-1.96303 1.08219 0 1.96294.88074 1.96294 1.96303C21.25237 13.59397 20.37162 14.47471 19.28943 14.47471zM19.28943 11.53287c-.53947 0-.97841.43894-.97841.97841 0 .53986.43894.97881.97841.97881.53937 0 .97832-.43894.97832-.97881C20.26775 11.97182 19.8288 11.53287 19.28943 11.53287zM52.13413 44.32185V33.89832l.49379.00138c2.85715.00866 5.18843 2.33895 5.19611 5.19473.00817 2.85578-2.32162 5.19857-5.19326 5.22309L52.13413 44.32185zM53.11874 34.91463v8.38508c2.09802-.2625 3.72648-2.05341 3.72066-4.20244C56.8336 36.94826 55.20475 35.1661 53.11874 34.91463z"></path><path fill="#E5E5E5" d="M52.62663,23.05474v32.832c-8.65004-5.27813-19.06885-8.91973-27.71239-11.78102l-0.02461-9.12079
			C33.51772,32.08593,44.00515,28.37945,52.62663,23.05474z"></path><path fill="#00A7FC" d="M23.93652,44.94393l-9.79476,0.02639c-0.54124,0.00148-0.98117-0.43608-0.98265-0.97733l-0.02373-8.832
			c-0.00148-0.54124,0.43609-0.98117,0.97733-0.98265l9.79476-0.02639c0.54115-0.00138,0.98117,0.43618,0.98255,0.97743
			l0.02383,8.8319C24.91532,44.50252,24.47776,44.94245,23.93652,44.94393z"></path><path fill="#E5E5E5" d="M11.12204,43.65782l2.03618-0.00551l-0.02196-8.15065l-2.03618,0.00551
			c-0.50019,0.00128-0.90457,0.40792-0.90319,0.90811l0.01703,6.33925C10.21531,43.25472,10.62186,43.6591,11.12204,43.65782z"></path><polygon fill="#E5E5E5" points="22.634 44.947 22.675 60.428 17.136 60.443 17.107 49.558 15.452 47.798 15.445 44.967"></polygon><path fill="#FFAB00" d="M23.81945,58.77206c0.71001-0.00187,1.26946,0.56714,1.27134,1.26464
			c0.00187,0.69721-0.55444,1.26947-1.26454,1.27134c0.7101-0.00187,1.26946,0.55444,1.27134,1.25184
			c0.00197,0.71-0.55444,1.26946-1.26453,1.27143l-10.18605,0.02737c-0.57374,0.00158-1.12463-0.22459-1.53167-0.62888l0,0
			c-0.40704-0.40428-0.95793-0.63055-1.53157-0.62897L9.7425,62.6031l-0.02383-8.85218l0,0
			c2.32399-0.0063,4.53553-1.00086,6.08226-2.73536l1.29871-1.45625l0.01122,4.17162l6.69489-0.01802
			c0.71011-0.00187,1.26956,0.56714,1.27143,1.26454c0.00187,0.69731-0.55453,1.25676-1.26464,1.25874
			c0.71011-0.00197,1.26956,0.56704,1.27143,1.26454C25.08586,58.19803,24.52945,58.77019,23.81945,58.77206z"></path><path fill="#00A7FC" d="M51.46666,55.85868H51.2079c-1.15968,0-2.09969-0.94011-2.09969-2.09969V24.67867
			c0-1.15958,0.94001-2.09969,2.09969-2.09969h0.25876c1.15968,0,2.09969,0.94011,2.09969,2.09969v29.08032
			C53.56635,54.91857,52.62634,55.85868,51.46666,55.85868z"></path><rect width="2.947" height="10.643" x="7.068" y="52.578" fill="#E5E5E5" transform="rotate(-.153 8.552 57.959)"></rect><path fill="#2E0056" d="M7.52209,64.87855H1V50.79776h6.52209V64.87855z M1.98462,63.89393h4.55286V51.78238H1.98462V63.89393z"></path><circle cx="4.579" cy="61.881" r=".971" fill="#00A7FC"></circle><path fill="#2E0056" d="M64.50769 39.71128h-4.02786c-.27214 0-.49231-.22026-.49231-.49231 0-.27215.22017-.49231.49231-.49231h4.02786c.27205 0 .49231.22016.49231.49231C65 39.49103 64.77974 39.71128 64.50769 39.71128zM59.70385 36.59252c-.17024 0-.33556-.08802-.42693-.24615-.13607-.23562-.05534-.53652.18028-.67259l3.488-2.01393c.23414-.13558.53553-.05632.67259.18028.13607.23552.05524.53652-.18028.67259l-3.488 2.01393C59.87212 36.57135 59.78745 36.59252 59.70385 36.59252zM57.47114 34.28005c-.08369 0-.16827-.02117-.24566-.06587-.23562-.13607-.31636-.43707-.18028-.67259l2.01394-3.48849c.13657-.23562.43658-.31636.67259-.18028.23562.13607.31636.43697.18028.67259l-2.01393 3.48849C57.80669 34.19153 57.64128 34.28005 57.47114 34.28005zM59.29465 48.52034c-.17014 0-.33556-.08792-.42683-.24615l-2.01403-3.4884c-.13598-.23562-.05524-.53652.18038-.67259.23365-.13607.53652-.05632.6726.18029l2.01392 3.48839c.13598.23562.05524.53662-.18028.67259C59.46292 48.49928 59.37834 48.52034 59.29465 48.52034zM63.0808 44.81416c-.08369 0-.16828-.02117-.24567-.06587l-3.48849-2.01393c-.23562-.13607-.31636-.43707-.18028-.67259.13607-.23562.43747-.31685.67259-.18028l3.48849 2.01393c.23552.13607.31626.43697.18028.67259C63.41634 44.72564 63.25093 44.81416 63.0808 44.81416z"></path></svg>