<svg xmlns="http://www.w3.org/2000/svg" data-name="01-computer" viewBox="0 0 48 48" id="webapplication"><path fill="none" stroke="#052c55" stroke-linejoin="round" stroke-width="2" d="M15 13H3a2 2 0 0 0-2 2v24a2 2 0 0 0 2 2h34a2 2 0 0 0 2-2v-6M14 41v6h12v-6M11 47h18" class="colorStroke000000 svgStroke"></path><rect width="32" height="32" x="15" y="1" fill="none" stroke="#052c55" stroke-linejoin="round" stroke-width="2" rx="2" ry="2" class="colorStroke000000 svgStroke"></rect><path fill="none" stroke="#052c55" stroke-linejoin="round" stroke-width="2" d="M18 5h2M22 5h2M26 5h2M15 9h25M1 35h12M9 17H7a2 2 0 0 0-2 2v2M5 23v2" class="colorStroke000000 svgStroke"></path><rect width="10" height="6" x="19" y="13" fill="none" stroke="#052c55" stroke-linejoin="round" stroke-width="2" rx="2" ry="2" class="colorStroke000000 svgStroke"></rect><rect width="10" height="6" x="33" y="13" fill="none" stroke="#052c55" stroke-linejoin="round" stroke-width="2" rx="2" ry="2" class="colorStroke000000 svgStroke"></rect><rect width="10" height="6" x="19" y="23" fill="none" stroke="#052c55" stroke-linejoin="round" stroke-width="2" rx="2" ry="2" class="colorStroke000000 svgStroke"></rect><rect width="10" height="6" x="33" y="23" fill="none" stroke="#052c55" stroke-linejoin="round" stroke-width="2" rx="2" ry="2" class="colorStroke000000 svgStroke"></rect><path fill="none" stroke="#052c55" stroke-linejoin="round" stroke-width="2" d="M44 9h-2" class="colorStroke000000 svgStroke"></path></svg>