<svg xmlns="http://www.w3.org/2000/svg" enable-background="new 0 0 100 100" viewBox="0 0 100 100" id="website-design"><path d="M60.083,18.069c0-0.925,0.757-1.681,1.681-1.681c0.924,0,1.68,0.756,1.68,1.681c0,0.924-0.756,1.681-1.68,1.681
	C60.84,19.75,60.083,18.993,60.083,18.069z M68.486,19.75c0.924,0,1.681-0.757,1.681-1.681c0-0.925-0.757-1.681-1.681-1.681
	c-0.924,0-1.68,0.756-1.68,1.681C66.806,18.993,67.562,19.75,68.486,19.75z M75.208,19.75c0.924,0,1.681-0.757,1.681-1.681
	c0-0.925-0.757-1.681-1.681-1.681c-0.924,0-1.68,0.756-1.68,1.681C73.528,18.993,74.284,19.75,75.208,19.75z M90.333,31.514v10.084
	c0,0.928-0.751,1.68-1.68,1.68h-4.586l-0.456,0.456v0.818l2.869,2.868c0.315,0.315,0.492,0.743,0.492,1.189
	s-0.177,0.873-0.492,1.188l-2.869,2.869v32.627c0,2.78-2.262,5.042-5.042,5.042H14.708c-2.78,0-5.041-2.262-5.041-5.042v-60.5
	V14.708c0-2.78,2.262-5.042,5.041-5.042h63.861c2.78,0,5.042,2.262,5.042,5.042v10.083v5.042h5.042
	C89.582,29.833,90.333,30.586,90.333,31.514z M86.972,33.194h-3.361h-1.68H80.25H61.764v6.722h6.491l-0.706-2.182
	c-0.195-0.601-0.036-1.259,0.41-1.706c0.447-0.448,1.109-0.601,1.706-0.411l10.585,3.425l1.681,0.544l1.018,0.329h0.662h3.361
	V33.194z M14.708,86.972h63.861c0.927,0,1.681-0.754,1.681-1.681V55.013c-0.338-0.059-0.653-0.217-0.899-0.464l-3.277-3.276
	l-1.188,1.188c-0.414,0.414-1.011,0.579-1.582,0.446c-0.568-0.137-1.024-0.559-1.204-1.116l-2.756-8.513h-9.26
	c-0.928,0-1.68-0.752-1.68-1.68V31.514c0-0.928,0.752-1.68,1.68-1.68H80.25v-3.361H31.514c-0.529,0-1.027-0.249-1.344-0.672
	l-0.756-1.009l-1.261-1.68l-2.521-3.361h-8.402l-2.521,3.361h8.402c0.929,0,1.681,0.752,1.681,1.68c0,0.928-0.752,1.681-1.681,1.681
	H13.028v58.819C13.028,86.218,13.781,86.972,14.708,86.972z M13.028,19.75l2.017-2.689c0.317-0.424,0.816-0.672,1.344-0.672h10.083
	c0.529,0,1.027,0.249,1.344,0.672l4.538,6.05H80.25v-8.403c0-0.927-0.754-1.681-1.681-1.681H14.708c-0.927,0-1.68,0.754-1.68,1.681
	V19.75z M82.915,48.608l-0.984-0.985l-1.681-1.68l-0.612-0.612c-0.558-0.557-0.636-1.407-0.247-2.053
	c0.069-0.114,0.148-0.224,0.247-0.323l0.435-0.436l-2.848-0.921l-5.194-1.681l-0.272-0.087l0.029,0.087l0.544,1.681l0.544,1.68
	l1.575,4.865l0.435-0.435c0.315-0.315,0.741-0.492,1.188-0.492c0.447,0,0.873,0.177,1.188,0.492l2.989,2.989l0.289,0.289
	l1.392-1.392L82.915,48.608z M18.069,36.556c0.929,0,1.681-0.752,1.681-1.68v-1.681h1.681c0.929,0,1.68-0.752,1.68-1.681
	c0-0.928-0.751-1.68-1.68-1.68h-3.362c-0.928,0-1.68,0.752-1.68,1.68v3.362C16.389,35.803,17.141,36.556,18.069,36.556z
	 M43.278,33.194h1.68v1.681c0,0.928,0.752,1.68,1.681,1.68c0.929,0,1.68-0.752,1.68-1.68v-3.362c0-0.928-0.751-1.68-1.68-1.68
	h-3.361c-0.929,0-1.681,0.752-1.681,1.68C41.597,32.442,42.349,33.194,43.278,33.194z M18.069,46.639h3.362
	c0.929,0,1.68-0.752,1.68-1.68c0-0.928-0.751-1.681-1.68-1.681H19.75v-1.68c0-0.928-0.752-1.681-1.681-1.681
	c-0.928,0-1.68,0.752-1.68,1.681v3.361C16.389,45.886,17.141,46.639,18.069,46.639z M43.278,46.639h3.361
	c0.929,0,1.68-0.752,1.68-1.68v-3.361c0-0.928-0.751-1.681-1.68-1.681c-0.929,0-1.681,0.752-1.681,1.681v1.68h-1.68
	c-0.929,0-1.681,0.753-1.681,1.681C41.597,45.886,42.349,46.639,43.278,46.639z M18.069,56.722c0.929,0,1.681-0.752,1.681-1.681
	v-1.68h1.681c0.929,0,1.68-0.753,1.68-1.681c0-0.928-0.751-1.68-1.68-1.68h-3.362c-0.928,0-1.68,0.752-1.68,1.68v3.361
	C16.389,55.97,17.141,56.722,18.069,56.722z M60.083,53.361h1.681v1.68c0,0.928,0.752,1.681,1.68,1.681
	c0.929,0,1.681-0.752,1.681-1.681v-3.361c0-0.928-0.752-1.68-1.681-1.68h-3.361c-0.928,0-1.68,0.752-1.68,1.68
	C58.403,52.608,59.155,53.361,60.083,53.361z M18.069,68.486h3.362c0.929,0,1.68-0.753,1.68-1.681c0-0.928-0.751-1.68-1.68-1.68
	H19.75v-1.681c0-0.928-0.752-1.681-1.681-1.681c-0.928,0-1.68,0.753-1.68,1.681v3.361C16.389,67.733,17.141,68.486,18.069,68.486z
	 M60.083,68.486h3.361c0.929,0,1.681-0.753,1.681-1.681v-3.361c0-0.928-0.752-1.681-1.681-1.681c-0.928,0-1.68,0.753-1.68,1.681
	v1.681h-1.681c-0.928,0-1.68,0.752-1.68,1.68C58.403,67.733,59.155,68.486,60.083,68.486z M18.069,75.208h25.209
	c0.929,0,1.68-0.752,1.68-1.681c0-0.928-0.751-1.68-1.68-1.68H18.069c-0.928,0-1.68,0.752-1.68,1.68
	C16.389,74.456,17.141,75.208,18.069,75.208z M18.069,81.93h25.209c0.929,0,1.68-0.752,1.68-1.68c0-0.928-0.751-1.681-1.68-1.681
	H18.069c-0.928,0-1.68,0.752-1.68,1.681C16.389,81.178,17.141,81.93,18.069,81.93z M50,75.208h25.208
	c0.929,0,1.681-0.752,1.681-1.681c0-0.928-0.752-1.68-1.681-1.68H50c-0.929,0-1.681,0.752-1.681,1.68
	C48.319,74.456,49.071,75.208,50,75.208z M68.486,78.57H50c-0.929,0-1.681,0.752-1.681,1.681c0,0.928,0.752,1.68,1.681,1.68h18.486
	c0.929,0,1.681-0.752,1.681-1.68C70.167,79.322,69.415,78.57,68.486,78.57z"></path></svg>