<svg xmlns="http://www.w3.org/2000/svg" enable-background="new 0 0 50 50" viewBox="0 0 50 50" id="logo-designing"><path d="M24.98999,25.01514c0.01001-0.01025,0.01001-0.02002,0-0.03027c0.01001,0.01025,0.02002,0.01025,0.02002,0.02002
	C25,25.00488,25,25.01514,24.98999,25.01514z"></path><polygon fill="#474B59" points="36.563 35.344 36.559 36.564 31.645 39.42 31.649 38.2"></polygon><polygon fill="#525566" points="31.649 38.2 31.645 39.42 21.818 33.747 21.823 32.526"></polygon><polygon fill="#5B5E71" points="36.563 35.344 31.649 38.2 21.823 32.526 26.737 29.671"></polygon><polygon fill="#CED1EB" points="33.183 29.768 33.183 35.047 31.667 35.928 31.667 30.649"></polygon><polygon fill="#D4D8EE" points="31.667 30.649 31.667 35.928 25.738 32.505 25.738 27.226"></polygon><polygon fill="#E7EFFB" points="33.183 29.768 31.667 30.649 25.738 27.226 27.255 26.345"></polygon><path fill="#E7EFFB" d="M30.50469,27.74956c-0.00142,0.50155,0.34972,1.10978,0.78616,1.36176
										c-0.29025,0.16867-0.58051,0.33732-0.87075,0.50598c-0.11349,0.06595-0.22704,0.13196-0.34053,0.19791
										c-0.04978,0.02893-0.11616,0.06751-0.16594,0.09645c-0.04824,0.02804-0.11255,0.06542-0.16079,0.09346l-0.20333,0.11816
										c-0.43644-0.25198-0.78758-0.86021-0.78615-1.36176c0.58041-0.33729,1.16084-0.67467,1.74127-1.01197
										c-0.58043,0.3373-1.16084,0.67461-1.74127,1.01191c0.00071-0.24527,0.08775-0.41847,0.22844-0.50023l1.74133-1.01195
										C30.59242,27.33104,30.50538,27.50426,30.50469,27.74956z"></path><path fill="#E7EFFB" d="M31.29084,29.11132c0.2163,0.12488,0.41304,0.13642,0.55559,0.05359l-1.74135,1.01196
										c-0.14254,0.08283-0.33928,0.07129-0.55558-0.05359C30.0719,29.81969,30.76843,29.41491,31.29084,29.11132z"></path><path fill="#D9DEF3" d="M28.99179,28.26123l1.74133-1.01195c0.14341-0.08335,0.34256-0.07168,0.56285,0.05551
										l-1.74134,1.01195C29.33434,28.18956,29.13519,28.17789,28.99179,28.26123z"></path><path fill="#D9DEF3" d="M31.84646,29.16489l-1.74135,1.01196c0.14161-0.0823,0.22973-0.2577,0.23044-0.50763
										c0.0014-0.49531-0.34975-1.10354-0.78092-1.35248l1.74134-1.01195c0.43117,0.24894,0.78232,0.85717,0.78092,1.35248
										C32.07618,28.90719,31.98805,29.0826,31.84646,29.16489z"></path><path fill="#E7EFFB" d="M16.71132,20.03617l26.32246,15.19728l-0.00591,2.08448
										c-0.00228,0.80378-0.57199,1.12233-1.26607,0.7216l-23.79854-13.7401c-0.69408-0.40073-1.26013-1.37501-1.25785-2.17879
										L16.71132,20.03617z M29.54951,30.12327c0.43116,0.24893,0.78462,0.0475,0.78604-0.45405
										c0.00141-0.4953-0.34976-1.10354-0.78092-1.35247c-0.43644-0.25198-0.78988-0.05054-0.79128,0.44477
										C28.76193,29.26307,29.11307,29.87129,29.54951,30.12327"></path><path fill="#D9DEF3" d="M29.55463,28.31674c0.43117,0.24894,0.78232,0.85717,0.78092,1.35248
										c-0.00142,0.50154-0.35487,0.70297-0.78604,0.45404c-0.43643-0.25197-0.78758-0.86021-0.78616-1.36175
										C28.76476,28.2662,29.1182,28.06477,29.55463,28.31674z"></path><path fill="#CED1EB" d="M44.40131,37.1152l-1.74134,1.01196c0.22615-0.13143,0.36679-0.41068,0.36792-0.80923
										l1.74134-1.01196C44.76809,36.70453,44.62745,36.98378,44.40131,37.1152z"></path><polygon fill="#E7EFFB" points="16.711 20.036 18.453 19.024 44.775 34.221 43.034 35.233"></polygon><polygon fill="#CED1EB" points="43.034 35.233 44.775 34.221 44.769 36.306 43.028 37.318"></polygon><g><polygon points="17.722 3.529 19.463 2.517 19.418 18.432 17.677 19.444"></polygon><polygon fill="#FFF" points="42.088 17.597 43.83 16.585 43.785 32.5 42.043 33.512"></polygon><polygon points="17.677 19.444 19.418 18.432 43.785 32.5 42.043 33.512"></polygon><path d="M42.37067,16.48298c0.39436,0.22769,0.71407,0.78133,0.71278,1.23466l-0.04966,17.51581L16.71132,20.03617
										l0.04966-17.51581c0.00129-0.45334,0.32308-0.63661,0.71744-0.40893L42.37067,16.48298z M42.04326,33.51172
										l0.04512-15.91482L17.72194,3.52894l-0.04512,15.91482L42.04326,33.51172"></path><path d="M42.37067,16.48298c0.39436,0.22769,0.71407,0.78133,0.71278,1.23466l-0.04966,17.51581L16.71132,20.03617
										l0.04966-17.51581c0.00129-0.45334,0.32308-0.63661,0.71744-0.40893L42.37067,16.48298z M42.04326,33.51172
										l0.04512-15.91482L17.72194,3.52894l-0.04512,15.91482L42.04326,33.51172"></path><polygon fill="#FFF" points="17.722 3.529 19.463 2.517 43.83 16.585 42.088 17.597"></polygon><path fill="#5B5E71" d="M44.82085,16.70373l-0.04941,17.51725l-1.73771,1.01297l0.04941-17.51725
										c0-0.4528-0.3212-1.00452-0.7165-1.23535L17.47846,2.11038c-0.19765-0.11541-0.37881-0.12386-0.51061-0.04946
										l1.74595-1.01297c0.12356-0.07399,0.30472-0.06595,0.50236,0.04946l24.89642,14.37098
										C44.50789,15.69921,44.82909,16.25093,44.82085,16.70373z"></path></g><polygon fill="#FFF" points="42.088 17.597 42.043 33.512 17.677 19.444 17.722 3.529"></polygon><path fill="#525566" d="M42.37067,16.48298c0.39436,0.22769,0.71407,0.78133,0.71278,1.23466l-0.04966,17.51581
								L16.71132,20.03617l0.04966-17.51581c0.00129-0.45334,0.32308-0.63661,0.71744-0.40893L42.37067,16.48298z
								 M42.08547,18.62353l0.00291-1.02662L17.72194,3.52894l-0.04512,15.91482l24.36644,14.06797"></path><g><path fill="#474B59" d="M33.89854,42.09857v0.66851c0,0.14692-0.10596,0.30181-0.30171,0.41568l-9.71995,5.64313
						c-0.39139,0.22815-1.02745,0.23611-1.42701,0L5.47254,39.02437C5.27685,38.9101,5.179,38.76317,5.179,38.60829v-0.66055
						c0,0.14692,0.09785,0.30181,0.30171,0.41608l16.96917,9.80153c0.39956,0.22815,1.03562,0.22815,1.43517,0l9.71995-5.6511
						C33.80069,42.39997,33.89854,42.25345,33.89854,42.09857z"></path><path fill="#5B5E71" d="M33.59678,41.68473c0.40088,0.23145,0.39772,0.60121,0.00456,0.82968l-9.71878,5.64794
						c-0.39315,0.22847-1.03149,0.23152-1.43237,0.00007L5.47777,38.36339c-0.39567-0.22844-0.39771-0.6012-0.00456-0.82968
						l9.71878-5.64794c0.39315-0.22848,1.03669-0.22851,1.43236-0.00007L33.59678,41.68473z"></path></g><polygon fill="#474B59" points="33.315 42.685 33.201 42.751 30.01 40.908 15.948 32.789 16.061 32.723"></polygon><g><polygon fill="#5B5E71" points="30.976 42.814 29.903 42.195 29.902 42.104 30.187 41.939 30.337 41.942 31.41 42.561 31.41 42.645 31.126 42.811"></polygon><path fill="#525566" d="M31.46689,42.52818c0.07288,0.04208,0.06786,0.11134,0.0008,0.15032l-0.28456,0.16537
						c-0.07241,0.04208-0.18665,0.04212-0.25953,0.00004L29.8511,42.2247c-0.07287-0.04207-0.07319-0.10825-0.00078-0.15033
						l0.28456-0.16537c0.06707-0.03897,0.18665-0.0421,0.25951-0.00003L31.46689,42.52818z M31.12586,42.8108l0.28456-0.16537
						l-0.00049-0.08415l-1.07249-0.61921l-0.15048-0.00301l-0.28456,0.16537l0.00063,0.0901l1.0725,0.61921L31.12586,42.8108"></path><polygon fill="#5B5E71" points="30.246 43.238 29.174 42.618 29.178 42.525 29.463 42.36 29.613 42.363 30.686 42.982 30.686 43.066 30.402 43.232"></polygon><path fill="#525566" d="M30.7426,42.9491c0.07288,0.04208,0.06814,0.11118,0.00079,0.15032l-0.28426,0.1652
						c-0.07269,0.04224-0.19716,0.04222-0.26486,0.00314l-1.0725-0.61921c-0.07287-0.04207-0.06814-0.11118,0.00455-0.15342
						l0.28426-0.1652c0.06734-0.03913,0.18665-0.0421,0.25951-0.00003L30.7426,42.9491z M30.40186,43.23155l0.28426-0.1652
						l-0.00049-0.08415L29.61314,42.363l-0.15048-0.00301l-0.28427,0.1652l-0.0047,0.0932l1.07249,0.61921L30.40186,43.23155"></path><polygon fill="#5B5E71" points="29.522 43.658 28.449 43.039 28.449 42.949 28.728 42.787 28.884 42.787 29.956 43.406 29.952 43.493 29.673 43.655"></polygon><path fill="#525566" d="M30.01327 43.37293c.07289.04208.06814.11119-.00427.15327l-.27921.16226c-.07239.04207-.18663.04211-.25951.00003l-1.07249-.61921c-.07287-.04207-.07319-.10825-.0008-.15032l.27921-.16226c.07241-.04208.19172-.04505.26458-.00298L30.01327 43.37293zM29.67251 43.6554l.27921-.16226.00458-.08709-1.07249-.61921-.15555-.00007-.27921.16226.00035.09026 1.07249.61921L29.67251 43.6554M28.17353 43.82084c.48939.28255.49192.73947.00589 1.02192-.48633.28262-1.27516.28265-1.76455.0001-.48939-.28255-.49711-.74247-.01078-1.02509C26.89013 43.53532 27.68414 43.53829 28.17353 43.82084zM26.46679 44.81269c.45816.26451 1.20538.26453 1.66056.00001.45516-.26451.45269-.69733-.00546-.96185-.45814-.26451-1.20537-.26453-1.66053-.00002C26.00618 44.11536 26.00865 44.54818 26.46679 44.81269"></path><path fill="#5B5E71" d="M27.8427,44.01311c0.30197,0.17434,0.2983,0.45994-0.00168,0.63427
						c-0.29999,0.17433-0.78769,0.17429-1.08966-0.00005c-0.30197-0.17434-0.30884-0.45984-0.00886-0.63417
						C27.04249,43.83882,27.54074,43.83877,27.8427,44.01311z"></path><path fill="#525566" d="M26.46679,44.81269c-0.45814-0.26451-0.46061-0.69733-0.00543-0.96185
						c0.45516-0.26451,1.20239-0.2645,1.66053,0.00002c0.45816,0.26451,0.46063,0.69734,0.00546,0.96185
						C27.67218,45.07722,26.92495,45.0772,26.46679,44.81269z M27.84268,44.01311c-0.30196-0.17434-0.80021-0.17429-1.10019,0.00004
						c-0.3,0.17434-0.29312,0.45985,0.00884,0.63419c0.30196,0.17434,0.78967,0.17439,1.08968,0.00004
						C28.14099,44.47304,28.14464,44.18745,27.84268,44.01311"></path><polygon fill="#5B5E71" points="25.004 45.041 26.077 45.66 26.072 45.748 25.793 45.91 25.643 45.913 24.57 45.294 24.57 45.203 24.849 45.041"></polygon><path fill="#525566" d="M26.13394,45.62735c0.07288,0.04208,0.06814,0.11118-0.00426,0.15326l-0.27921,0.16226
						c-0.07241,0.04208-0.18665,0.04212-0.25953,0.00004l-1.07249-0.61921c-0.07287-0.04207-0.07319-0.10825-0.00078-0.15033
						l0.27921-0.16226c0.07239-0.04207,0.1917-0.04504,0.26456-0.00296L26.13394,45.62735z M25.7932,45.90981l0.27921-0.16226
						l0.00456-0.08709l-1.07249-0.61921l-0.15553-0.00008l-0.27921,0.16226l0.00035,0.09026l1.0725,0.61921L25.7932,45.90981"></path><polygon fill="#525566" points="16.061 32.723 15.948 32.789 30.01 40.908 21.393 45.916 7.33 37.797 7.217 37.863 21.279 45.982 7.217 37.863"></polygon><path fill="#525566" d="M25.40994,46.0481c0.07288,0.04208,0.06814,0.11119-0.00455,0.15343l-0.27921,0.16226
						c-0.07239,0.04207-0.19687,0.04205-0.26456,0.00297l-1.0725-0.61921c-0.07287-0.04207-0.06814-0.11118,0.00426-0.15326
						l0.27921-0.16226c0.07269-0.04224,0.19199-0.0452,0.26486-0.00314L25.40994,46.0481z M25.06891,46.33072l0.27921-0.16226
						l0.00485-0.08726l-1.07249-0.61921l-0.15582,0.00009l-0.27921,0.16226l-0.0047,0.0932l1.07249,0.61921L25.06891,46.33072"></path><polygon fill="#5B5E71" points="24.28 45.462 25.353 46.081 25.348 46.168 25.069 46.331 24.913 46.337 23.841 45.718 23.845 45.624 24.125 45.462"></polygon><polygon fill="#5B5E71" points="23.551 45.886 24.624 46.505 24.619 46.592 24.34 46.755 24.189 46.757 23.117 46.138 23.116 46.048 23.396 45.886"></polygon><path fill="#525566" d="M24.68061,46.47194c0.07289,0.04208,0.06814,0.11118-0.00427,0.15326l-0.27949,0.16242
						c-0.07241,0.04208-0.1917,0.04506-0.26458,0.00298l-1.07249-0.61921c-0.07287-0.04207-0.06814-0.11118,0.00427-0.15326
						l0.27949-0.16242c0.07241-0.04208,0.19172-0.04504,0.26458-0.00298L24.68061,46.47194z M24.33958,46.75455l0.27949-0.16242
						l0.00458-0.0871l-1.0725-0.61921l-0.15555-0.00007l-0.27949,0.16242l0.00063,0.0901l1.07249,0.61921L24.33958,46.75455"></path><polygon fill="#474B59" points="24.584 47.758 24.47 47.825 21.279 45.982 7.217 37.863 7.33 37.797 21.393 45.916"></polygon></g><g><polygon fill="#75CA75" points="20.34 5.926 20.276 17.473 18.287 16.324 18.351 4.778" enable-background="new"></polygon></g><g><polygon fill="#525566" points="41.814 19.753 41.75 25.185 37.669 22.829 37.733 17.397" enable-background="new"></polygon></g><g><path fill="#E63044" d="M35.88139 21.99479c-.00085.30031-.06411.53515-.19259.6995-.3052.40365-.82472.29216-1.26326.03897-.88655-.51185-1.44934-1.56165-1.44693-2.41439.00249-.87781.59856-1.23007 1.45586-.73511.2755.15906.52241.37025.74357.63521C35.58491 20.70377 35.88318 21.36171 35.88139 21.99479zM35.15 22.07923c.07426-.10416.10883-.25428.10936-.44357.00165-.58243-.357-1.18034-.8266-1.45146-.4754-.27447-.83051-.07647-.83213.49379-.00163.57293.34843 1.17858.82661 1.45465C34.68607 22.28208 34.98634 22.32931 35.15 22.07923M31.52316 17.90292c.2329.13447.44296.3015.63301.49955.1872.1996.34589.42193.47606.66717l-.39598.18977c-.18965-.33829-.41655-.58386-.68354-.73801-.5431-.31356-.87033-.07769-.87189.47084-.00158.55614.33674 1.17183.85784 1.47269.1761.10167.33527.15118.47754.14499l.00253-.891.55954.32305-.00351 1.23699c-.14236.04196-.31021.03994-.50071-.00141-.18764-.04289-.38088-.12182-.57117-.23169-.87505-.50521-1.44655-1.54253-1.44408-2.41275C30.0613 17.74857 30.65519 17.40179 31.52316 17.90292zM29.76625 18.46421c-.00248.8729-.59033 1.23818-1.45587.73846-.84305-.48674-1.44949-1.50645-1.44692-2.41439.00143-.50361.20353-.94555.71111-.95917.22193-.00914.46924.065.74474.22406C29.17455 16.54695 29.76873 17.58916 29.76625 18.46421zM29.03485 18.54865c.07142-.1058.10883-.25429.10937-.44357.00163-.57394-.35401-1.17861-.82661-1.45147-.46998-.27134-.83048-.08384-.83212.4938-.00163.57295.34721 1.17787.8266 1.45465C28.56892 18.75035 28.87193 18.7976 29.03485 18.54865"></path><polygon fill="#E63044" points="25.408 14.425 25.401 16.895 26.73 17.663 26.729 18.237 24.786 17.115 24.794 14.07"></polygon><polygon fill="#5B5E71" points="36.023 14.241 36.022 14.423 35.903 14.354 35.904 14.172"></polygon><polygon fill="#5B5E71" points="35.902 14.71 36.021 14.779 36.02 15.138 35.901 15.069"></polygon><polygon fill="#5B5E71" points="35.899 15.787 35.9 15.428 36.019 15.497 36.018 15.856"></polygon><polygon fill="#5B5E71" points="35.897 16.502 35.898 16.143 36.017 16.212 36.016 16.571"></polygon><polygon fill="#5B5E71" points="35.895 17.22 35.896 16.861 36.015 16.93 36.014 17.289"></polygon><polygon fill="#5B5E71" points="35.893 17.935 35.894 17.576 36.013 17.645 36.012 18.004"></polygon><polygon fill="#5B5E71" points="35.891 18.653 35.892 18.294 36.011 18.363 36.01 18.722"></polygon><polygon fill="#5B5E71" points="35.889 19.367 35.89 19.012 36.009 19.081 36.008 19.436"></polygon><polygon fill="#5B5E71" points="35.887 20.085 35.888 19.727 36.007 19.795 36.006 20.154"></polygon><polygon fill="#5B5E71" points="35.885 20.8 35.886 20.445 36.005 20.513 36.004 20.869"></polygon><polygon fill="#5B5E71" points="35.883 21.518 35.884 21.159 36.003 21.228 36.002 21.587"></polygon><polygon fill="#5B5E71" points="35.881 21.995 35.882 21.877 36.001 21.946 36 22.302 35.881 22.233"></polygon><polygon fill="#5B5E71" points="35.785 23.839 35.785 23.705 36.098 23.885 36.098 24.019"></polygon><polygon fill="#5B5E71" points="35.877 23.666 35.878 23.31 35.997 23.379 35.996 23.735"></polygon><polygon fill="#5B5E71" points="35.173 19.899 35.174 19.762 35.483 19.941 35.483 20.078"></polygon><polygon fill="#5B5E71" points="34.548 19.538 34.549 19.401 34.861 19.582 34.861 19.719"></polygon><polygon fill="#5B5E71" points="34.538 23.119 34.539 22.985 34.851 23.165 34.851 23.299"></polygon><polygon fill="#5B5E71" points="33.913 22.758 33.914 22.624 34.226 22.804 34.226 22.938"></polygon><polygon fill="#5B5E71" points="33.291 22.399 33.292 22.265 33.604 22.445 33.604 22.579"></polygon><polygon fill="#5B5E71" points="32.666 22.038 32.667 21.904 32.979 22.084 32.979 22.218"></polygon><polygon fill="#5B5E71" points="35.879 22.951 35.88 22.592 35.999 22.661 35.998 23.02"></polygon><polygon fill="#5B5E71" points="35.875 24.384 35.876 24.025 35.995 24.094 35.994 24.453"></polygon><polygon fill="#5B5E71" points="35.873 25.102 35.874 24.743 35.993 24.812 35.992 25.171"></polygon><polygon fill="#5B5E71" points="35.871 25.817 35.872 25.458 35.991 25.527 35.99 25.885"></polygon><polygon fill="#5B5E71" points="35.869 26.535 35.87 26.176 35.989 26.245 35.988 26.603"></polygon><polygon fill="#5B5E71" points="35.866 27.249 35.868 26.89 35.987 26.959 35.986 27.318"></polygon><polygon fill="#5B5E71" points="35.864 27.967 35.865 27.608 35.985 27.677 35.984 28.036"></polygon><polygon fill="#5B5E71" points="35.862 28.682 35.863 28.323 35.983 28.392 35.982 28.751"></polygon><polygon fill="#5B5E71" points="35.86 29.4 35.861 29.041 35.981 29.11 35.98 29.469"></polygon><polygon fill="#5B5E71" points="35.979 29.825 35.978 30.008 35.859 29.939 35.859 29.756"></polygon><polygon fill="#5B5E71" points="37.278 14.965 37.278 15.148 37.158 15.079 37.159 14.897"></polygon><polygon fill="#5B5E71" points="37.157 15.435 37.277 15.504 37.276 15.863 37.156 15.794"></polygon><polygon fill="#5B5E71" points="37.154 16.512 37.155 16.153 37.275 16.222 37.274 16.581"></polygon><polygon fill="#5B5E71" points="37.152 17.227 37.153 16.868 37.273 16.937 37.272 17.296"></polygon><polygon fill="#5B5E71" points="37.15 17.945 37.151 17.586 37.271 17.655 37.27 18.014"></polygon><polygon fill="#5B5E71" points="37.148 18.66 37.149 18.301 37.269 18.369 37.268 18.728"></polygon><polygon fill="#5B5E71" points="37.146 19.378 37.147 19.019 37.267 19.087 37.266 19.447"></polygon><polygon fill="#5B5E71" points="37.144 20.092 37.145 19.737 37.265 19.805 37.264 20.161"></polygon><polygon fill="#5B5E71" points="37.202 20.933 37.201 21.07 37.042 20.978 37.043 20.841"></polygon><polygon fill="#5B5E71" points="37.142 20.81 37.143 20.451 37.263 20.52 37.261 20.879"></polygon><polygon fill="#5B5E71" points="37.14 21.525 37.141 21.169 37.26 21.238 37.259 21.594"></polygon><polygon fill="#5B5E71" points="37.138 22.243 37.139 21.884 37.258 21.953 37.257 22.312"></polygon><polygon fill="#5B5E71" points="37.136 22.958 37.137 22.602 37.256 22.671 37.255 23.027"></polygon><polygon fill="#5B5E71" points="37.134 23.676 37.135 23.317 37.254 23.386 37.253 23.745"></polygon><polygon fill="#5B5E71" points="37.191 24.516 37.191 24.65 37.032 24.558 37.032 24.425"></polygon><polygon fill="#5B5E71" points="37.132 24.391 37.133 24.035 37.252 24.104 37.251 24.459"></polygon><polygon fill="#5B5E71" points="37.13 25.109 37.131 24.75 37.25 24.819 37.249 25.177"></polygon><polygon fill="#5B5E71" points="37.128 25.827 37.129 25.468 37.248 25.537 37.247 25.895"></polygon><polygon fill="#5B5E71" points="37.126 26.541 37.127 26.183 37.246 26.251 37.245 26.61"></polygon><polygon fill="#5B5E71" points="37.124 27.259 37.125 26.901 37.244 26.969 37.243 27.328"></polygon><polygon fill="#5B5E71" points="37.122 27.974 37.123 27.615 37.242 27.684 37.241 28.043"></polygon><polygon fill="#5B5E71" points="37.12 28.692 37.121 28.333 37.24 28.402 37.239 28.761"></polygon><polygon fill="#5B5E71" points="37.118 29.407 37.119 29.048 37.238 29.117 37.237 29.476"></polygon><polygon fill="#5B5E71" points="37.116 30.125 37.117 29.766 37.236 29.835 37.235 30.194"></polygon><polygon fill="#5B5E71" points="37.234 30.55 37.234 30.732 37.114 30.664 37.115 30.481"></polygon><polygon fill="#5B5E71" points="24.753 7.734 24.752 7.916 24.633 7.848 24.633 7.665"></polygon><polygon fill="#5B5E71" points="24.632 8.203 24.751 8.272 24.75 8.631 24.631 8.562"></polygon><polygon fill="#5B5E71" points="24.629 9.28 24.63 8.921 24.749 8.99 24.748 9.349"></polygon><polygon fill="#5B5E71" points="24.627 9.995 24.628 9.636 24.747 9.705 24.746 10.064"></polygon><polygon fill="#5B5E71" points="24.625 10.713 24.626 10.354 24.745 10.423 24.744 10.782"></polygon><polygon fill="#5B5E71" points="24.623 11.428 24.624 11.069 24.743 11.138 24.742 11.497"></polygon><polygon fill="#5B5E71" points="24.621 12.146 24.622 11.787 24.741 11.856 24.74 12.215"></polygon><polygon fill="#5B5E71" points="24.619 12.861 24.62 12.505 24.739 12.574 24.738 12.929"></polygon><polygon fill="#5B5E71" points="24.617 13.579 24.618 13.22 24.737 13.289 24.736 13.647"></polygon><polygon fill="#5B5E71" points="24.614 14.293 24.616 13.938 24.735 14.007 24.734 14.362"></polygon><polygon fill="#5B5E71" points="24.573 13.779 24.574 13.642 24.883 13.821 24.883 13.958"></polygon><polygon fill="#5B5E71" points="24.612 15.011 24.613 14.652 24.733 14.721 24.732 15.08"></polygon><polygon fill="#5B5E71" points="24.61 15.726 24.611 15.37 24.731 15.439 24.73 15.795"></polygon><polygon fill="#5B5E71" points="24.608 16.444 24.609 16.085 24.729 16.154 24.728 16.513"></polygon><polygon fill="#5B5E71" points="24.563 17.36 24.564 17.226 24.873 17.404 24.873 17.538"></polygon><polygon fill="#5B5E71" points="24.606 17.159 24.607 16.803 24.727 16.872 24.726 17.228"></polygon><polygon fill="#5B5E71" points="24.604 17.877 24.605 17.518 24.725 17.587 24.724 17.946"></polygon><polygon fill="#5B5E71" points="24.602 18.595 24.603 18.236 24.723 18.305 24.722 18.664"></polygon><polygon fill="#5B5E71" points="24.6 19.31 24.601 18.951 24.721 19.02 24.72 19.379"></polygon><polygon fill="#5B5E71" points="24.598 20.028 24.599 19.669 24.719 19.738 24.718 20.097"></polygon><polygon fill="#5B5E71" points="24.596 20.743 24.597 20.383 24.717 20.452 24.716 20.811"></polygon><polygon fill="#5B5E71" points="24.594 21.461 24.595 21.101 24.714 21.17 24.713 21.529"></polygon><polygon fill="#5B5E71" points="24.592 22.175 24.593 21.816 24.712 21.885 24.711 22.244"></polygon><polygon fill="#5B5E71" points="24.59 22.893 24.591 22.534 24.71 22.603 24.709 22.962"></polygon><polygon fill="#5B5E71" points="24.708 23.318 24.708 23.501 24.589 23.432 24.589 23.249"></polygon><polygon fill="#5B5E71" points="23.557 7.043 23.556 7.226 23.437 7.157 23.438 6.974"></polygon><polygon fill="#5B5E71" points="23.436 7.513 23.555 7.582 23.554 7.941 23.435 7.872"></polygon><polygon fill="#5B5E71" points="23.433 8.59 23.434 8.231 23.553 8.3 23.552 8.659"></polygon><polygon fill="#5B5E71" points="23.431 9.305 23.432 8.946 23.551 9.015 23.55 9.374"></polygon><polygon fill="#5B5E71" points="23.429 10.023 23.43 9.664 23.549 9.733 23.548 10.092"></polygon><polygon fill="#5B5E71" points="23.427 10.738 23.428 10.378 23.547 10.447 23.546 10.806"></polygon><polygon fill="#5B5E71" points="23.425 11.456 23.426 11.096 23.545 11.165 23.544 11.524"></polygon><polygon fill="#5B5E71" points="23.423 12.17 23.424 11.814 23.543 11.883 23.542 12.239"></polygon><polygon fill="#5B5E71" points="23.421 12.888 23.422 12.529 23.541 12.598 23.54 12.957"></polygon><polygon fill="#5B5E71" points="23.419 13.603 23.42 13.247 23.539 13.316 23.538 13.672"></polygon><polygon fill="#5B5E71" points="23.417 14.321 23.418 13.962 23.537 14.031 23.536 14.39"></polygon><polygon fill="#5B5E71" points="23.415 15.036 23.416 14.68 23.535 14.749 23.534 15.105"></polygon><polygon fill="#5B5E71" points="23.413 15.754 23.414 15.395 23.533 15.464 23.532 15.823"></polygon><polygon fill="#5B5E71" points="23.411 16.468 23.412 16.113 23.531 16.182 23.53 16.537"></polygon><polygon fill="#5B5E71" points="23.409 17.187 23.41 16.828 23.529 16.896 23.528 17.255"></polygon><polygon fill="#5B5E71" points="23.407 17.905 23.408 17.546 23.527 17.614 23.526 17.973"></polygon><polygon fill="#5B5E71" points="23.405 18.619 23.406 18.26 23.525 18.329 23.524 18.688"></polygon><polygon fill="#5B5E71" points="23.402 19.337 23.404 18.978 23.523 19.047 23.522 19.406"></polygon><polygon fill="#5B5E71" points="23.4 20.052 23.401 19.693 23.521 19.762 23.52 20.121"></polygon><polygon fill="#5B5E71" points="23.398 20.77 23.399 20.411 23.519 20.48 23.518 20.839"></polygon><polygon fill="#5B5E71" points="23.396 21.485 23.397 21.126 23.517 21.195 23.516 21.554"></polygon><polygon fill="#5B5E71" points="23.394 22.203 23.395 21.844 23.515 21.913 23.514 22.272"></polygon><polygon fill="#5B5E71" points="23.513 22.627 23.512 22.81 23.393 22.741 23.393 22.559"></polygon><polygon fill="#5B5E71" points="36.421 20.482 36.73 20.661 36.73 20.798 36.42 20.619"></polygon><polygon fill="#5B5E71" points="35.795 20.258 35.796 20.121 36.108 20.302 36.108 20.439"></polygon><polygon fill="#5B5E71" points="33.924 19.178 33.924 19.041 34.236 19.221 34.236 19.358"></polygon><polygon fill="#5B5E71" points="33.301 18.818 33.302 18.681 33.614 18.862 33.614 18.999"></polygon><polygon fill="#5B5E71" points="32.677 18.458 32.677 18.321 32.989 18.501 32.989 18.638"></polygon><polygon fill="#5B5E71" points="32.055 18.099 32.055 17.962 32.367 18.142 32.367 18.279"></polygon><polygon fill="#5B5E71" points="31.42 21.318 31.42 21.184 31.732 21.365 31.732 21.498"></polygon><polygon fill="#5B5E71" points="30.798 20.959 30.798 20.825 31.11 21.005 31.11 21.139"></polygon><polygon fill="#5B5E71" points="31.43 17.738 31.43 17.601 31.743 17.781 31.742 17.918"></polygon><polygon fill="#5B5E71" points="30.808 17.379 30.808 17.242 31.121 17.422 31.12 17.559"></polygon><polygon fill="#5B5E71" points="30.183 17.018 30.183 16.881 30.496 17.061 30.495 17.198"></polygon><polygon fill="#5B5E71" points="27.067 15.219 27.067 15.082 27.377 15.261 27.377 15.398"></polygon><polygon fill="#5B5E71" points="27.679 19.158 27.679 19.025 27.992 19.205 27.991 19.339"></polygon><polygon fill="#5B5E71" points="27.057 18.799 27.057 18.665 27.367 18.844 27.366 18.978"></polygon><polygon fill="#5B5E71" points="29.561 16.659 29.561 16.522 29.874 16.702 29.873 16.839"></polygon><polygon fill="#5B5E71" points="28.936 16.298 28.936 16.161 29.249 16.341 29.248 16.478"></polygon><polygon fill="#5B5E71" points="28.314 15.939 28.314 15.802 28.627 15.982 28.626 16.119"></polygon><polygon fill="#5B5E71" points="27.689 15.578 27.689 15.441 28.002 15.621 28.002 15.758"></polygon><polygon fill="#5B5E71" points="25.195 14.138 25.196 14.001 25.508 14.182 25.508 14.319"></polygon><polygon fill="#5B5E71" points="25.81 18.079 25.81 17.946 26.12 18.124 26.12 18.258"></polygon><polygon fill="#5B5E71" points="25.185 17.719 25.186 17.585 25.498 17.765 25.498 17.899"></polygon><polygon fill="#5B5E71" points="26.442 14.858 26.443 14.721 26.755 14.902 26.755 15.039"></polygon><polygon fill="#5B5E71" points="25.82 14.499 25.821 14.362 26.13 14.541 26.13 14.678"></polygon><polygon fill="#5B5E71" points="23.948 13.418 23.949 13.281 24.261 13.462 24.261 13.599"></polygon><polygon fill="#5B5E71" points="23.636 13.101 23.636 13.238 23.48 13.148 23.48 13.011"></polygon><polygon fill="#5B5E71" points="36.41 24.065 36.72 24.244 36.72 24.378 36.41 24.199"></polygon><polygon fill="#5B5E71" points="35.163 23.479 35.163 23.346 35.473 23.524 35.473 23.658"></polygon><polygon fill="#5B5E71" points="32.044 21.679 32.045 21.545 32.357 21.725 32.357 21.859"></polygon><polygon fill="#5B5E71" points="30.173 20.598 30.173 20.464 30.486 20.645 30.485 20.779"></polygon><polygon fill="#5B5E71" points="29.551 20.239 29.551 20.105 29.863 20.286 29.863 20.419"></polygon><polygon fill="#5B5E71" points="28.926 19.878 28.926 19.744 29.239 19.925 29.238 20.059"></polygon><polygon fill="#5B5E71" points="28.304 19.519 28.304 19.385 28.617 19.566 28.616 19.7"></polygon><polygon fill="#5B5E71" points="26.432 18.439 26.432 18.305 26.745 18.485 26.744 18.619"></polygon><polygon fill="#5B5E71" points="23.938 16.999 23.939 16.865 24.251 17.045 24.251 17.179"></polygon><polygon fill="#5B5E71" points="23.626 16.684 23.626 16.818 23.47 16.728 23.47 16.594"></polygon></g><g><polygon fill="#3C5DD6" points="38.695 21.755 38.693 22.58 38.06 22.215 38.062 21.389"></polygon><polygon fill="#BAC1CE" points="38.698 20.775 38.696 21.601 38.063 21.235 38.065 20.41"></polygon><polygon fill="#CAD0DD" points="39.503 21.24 39.501 22.066 38.868 21.7 38.87 20.875"></polygon><polygon fill="#576CFB" points="40.307 22.685 40.305 23.511 39.671 23.145 39.674 22.319"></polygon><polygon fill="#D4DAE8" points="40.31 21.706 40.307 22.532 39.674 22.166 39.676 21.34"></polygon><polygon fill="#E4E8F4" points="41.115 22.171 41.112 22.996 40.479 22.631 40.481 21.805"></polygon><polygon fill="#4562EF" points="39.501 22.219 39.498 23.045 38.865 22.68 38.867 21.854"></polygon><polygon fill="#748BFD" points="41.112 23.15 41.11 23.976 40.476 23.61 40.479 22.784"></polygon></g><g><polygon fill="#E5A03C" points="38.767 19.572 38.765 20.398 38.132 20.032 38.134 19.207"></polygon><polygon fill="#E63044" points="38.77 18.593 38.768 19.419 38.134 19.053 38.137 18.227"></polygon><polygon fill="#F34858" points="39.575 19.058 39.573 19.884 38.94 19.518 38.942 18.692"></polygon><polygon fill="#F9BB4A" points="40.379 20.503 40.377 21.328 39.743 20.963 39.745 20.137"></polygon><polygon fill="#FA5168" points="40.382 19.523 40.379 20.349 39.746 19.983 39.748 19.158"></polygon><polygon fill="#F9607F" points="41.187 19.988 41.184 20.814 40.551 20.448 40.553 19.623"></polygon><polygon fill="#EFAC41" points="39.572 20.037 39.57 20.863 38.937 20.497 38.939 19.671"></polygon><polygon fill="#FED57A" points="41.184 20.967 41.182 21.793 40.548 21.428 40.551 20.602"></polygon></g><g><path fill="#525566" d="M36.9486,42.99197l0.62795,2.09086c0.04056,0.18383,0.18034,0.3548,0.40305,0.47692
					c0.41114,0.22548,1.01675,0.22461,1.42385,0c0.21935-0.12103,0.35693-0.28894,0.39751-0.46972l0.6518-2.13886L36.9486,42.99197z
					"></path><path fill="#5B5E71" d="M39.938,42.13256c0.69289,0.40004,0.69662,1.04532,0.00823,1.44537
					c-0.68563,0.39845-1.80257,0.40009-2.49546,0.00005c-0.69005-0.3984-0.69371-1.04702-0.00808-1.44547
					C38.13108,41.73246,39.24795,41.73417,39.938,42.13256z"></path><path fill="#474B59" d="M39.61442,42.32077c0.51245,0.29586,0.51521,0.7731,0.00609,1.06897
					c-0.50708,0.29468-1.33315,0.2959-1.8456,0.00003c-0.51035-0.29465-0.51306-0.77436-0.00598-1.06904
					C38.27806,42.02486,39.10408,42.02612,39.61442,42.32077z"></path><path fill="#3F434F" d="M39.18757,42.46448c0.2777,0.16033,0.2792,0.41895,0.0033,0.57929
					c-0.27479,0.15969-0.72245,0.16035-1.00015,0.00002c-0.27656-0.15967-0.27803-0.41963-0.00324-0.57932
					C38.46339,42.30412,38.91101,42.30481,39.18757,42.46448z"></path><path fill="#3F434F" d="M39.39683,42.75412l-0.22939-8.4069c0.00127,0.07058-0.04316,0.14152-0.13405,0.19581
									c-0.18622,0.11148-0.48736,0.11039-0.6729,0c-0.09293-0.05537-0.13862-0.12704-0.13695-0.19871l-0.24119,8.4098H39.39683z"></path><path fill="#474B59" d="M39.02545,34.15189c0.1855,0.10657,0.19045,0.28193,0.00796,0.39115
									c-0.18623,0.11146-0.48737,0.11029-0.67291-0.00001c-0.18378-0.10925-0.18275-0.28345,0.00348-0.39115
									C38.5465,34.04634,38.84167,34.04632,39.02545,34.15189z"></path><path fill="#3F434F" d="M38.69215,33.26216c-0.19127,0-0.34672,0.15432-0.34812,0.34559l-0.00515,0.70678
									c-0.00015,0.05201,0.03434,0.10381,0.10341,0.14371c0.13331,0.07701,0.35606,0.0792,0.49237,0
									c0.06721-0.0391,0.10016-0.09011,0.10028-0.14132l0.00531-0.704C39.04173,33.41963,38.88545,33.26216,38.69215,33.26216
									L38.69215,33.26216z" enable-background="new"></path><path fill="#BAC1CE" d="M38.87594,39.97612v1.77984c0,0.09557-0.07739,0.17525-0.17525,0.17525s-0.17525-0.07968-0.17525-0.17525
			v-1.77984c0-0.09557,0.07739-0.17514,0.17525-0.17514S38.87594,39.88055,38.87594,39.97612z"></path></g></svg>