<svg xmlns="http://www.w3.org/2000/svg" xmlns:xlink="http://www.w3.org/1999/xlink" viewBox="0 0 68 68" id="productivity"><path fill="#e0e0e0" d="M55.7 58.337a.405.405 0 0 1-.21-.75l6.617-4.012a.405.405 0 1 1 .42.693l-6.617 4.01a.402.402 0 0 1-.21.06zm0-4.01a.405.405 0 0 1-.21-.752l6.617-4.01a.405.405 0 1 1 .42.692l-6.617 4.01a.402.402 0 0 1-.21.06zm0-4.012a.405.405 0 0 1-.21-.75l6.617-4.012a.405.405 0 1 1 .42.693l-6.617 4.01a.402.402 0 0 1-.21.06zm0-4.01a.405.405 0 0 1-.21-.752l6.617-4.01a.405.405 0 1 1 .42.692l-6.617 4.01a.402.402 0 0 1-.21.06zm0-4.012a.405.405 0 0 1-.21-.75l6.617-4.012a.405.405 0 1 1 .42.693l-6.617 4.01a.402.402 0 0 1-.21.06zM10.4 54.76v3.067c0 .47-.388.858-.866.858H2.96a.859.859 0 0 1-.859-.858v-3.067a.86.86 0 0 1 .859-.866h6.575c.478 0 .867.389.867.866z"></path><linearGradient id="a" x1="28.548" x2="36.849" y1="48.04" y2="48.04" gradientUnits="userSpaceOnUse"><stop offset="0" stop-color="#6542b2"></stop><stop offset=".289" stop-color="#6946b6"></stop><stop offset=".603" stop-color="#7653c1"></stop><stop offset=".928" stop-color="#8a69d3"></stop><stop offset="1" stop-color="#906fd8"></stop></linearGradient><path fill="url(#a)" d="M36.849 38.253v19.573c0 .47-.381.858-.859.858h-6.575a.866.866 0 0 1-.867-.858V38.253a.86.86 0 0 1 .867-.858h6.575c.478 0 .859.38.859.858z"></path><linearGradient id="b" x1="41.78" x2="50.08" y1="43.89" y2="43.89" gradientUnits="userSpaceOnUse"><stop offset="0" stop-color="#15a0ff"></stop><stop offset=".23" stop-color="#19a4ff"></stop><stop offset=".48" stop-color="#26b0ff"></stop><stop offset=".739" stop-color="#3cc4ff"></stop><stop offset="1" stop-color="#5ae0ff"></stop></linearGradient><path fill="url(#b)" d="M50.08 29.953v27.873c0 .47-.388.858-.866.858h-6.576a.859.859 0 0 1-.858-.858V29.953c0-.478.38-.858.858-.858h6.576a.86.86 0 0 1 .866.858z"></path><linearGradient id="c" x1="15.324" x2="23.625" y1="52.696" y2="52.696" gradientUnits="userSpaceOnUse"><stop offset="0" stop-color="#1aceb3"></stop><stop offset=".446" stop-color="#1ed2b7"></stop><stop offset=".93" stop-color="#2bdfc2"></stop><stop offset="1" stop-color="#2de2c4"></stop></linearGradient><path fill="url(#c)" d="M23.625 47.566v10.26c0 .47-.39.858-.859.858h-6.583a.864.864 0 0 1-.859-.858v-10.26c0-.478.389-.858.859-.858h6.583c.47 0 .859.38.859.858z"></path><path fill="#efefef" d="M62.317 58.337a.402.402 0 0 1-.21-.058l-6.617-4.011a.405.405 0 0 1 .42-.693l6.617 4.011a.405.405 0 0 1-.21.751zm0-4.01a.402.402 0 0 1-.21-.06l-6.617-4.01a.405.405 0 0 1 .42-.693l6.617 4.011a.405.405 0 0 1-.21.751zm0-4.012a.402.402 0 0 1-.21-.058l-6.617-4.011a.405.405 0 0 1 .42-.693l6.617 4.011a.405.405 0 0 1-.21.751zm0-4.01a.402.402 0 0 1-.21-.06l-6.617-4.01a.405.405 0 0 1 .42-.693l6.617 4.011a.405.405 0 0 1-.21.751zm0-4.012a.402.402 0 0 1-.21-.058l-6.617-4.011a.405.405 0 0 1 .42-.693l6.617 4.011a.405.405 0 0 1-.21.751z"></path><linearGradient id="d" x1="58.756" x2="56.831" y1="17.889" y2="49.785" gradientUnits="userSpaceOnUse"><stop offset="0" stop-color="#ffe05f"></stop><stop offset=".175" stop-color="#ffd24e"></stop><stop offset=".464" stop-color="#ffc038"></stop><stop offset=".743" stop-color="#ffb52b"></stop><stop offset="1" stop-color="#ffb127"></stop></linearGradient><path fill="url(#d)" d="M65.386 17.936H63.66a.708.708 0 0 0-.713.712V36.91h-8.3V18.65a.709.709 0 0 0-.713-.713H52.21a.714.714 0 0 1-.526-1.199l6.583-7.19a.715.715 0 0 1 1.053 0l6.592 7.19a.716.716 0 0 1-.526 1.199z"></path><linearGradient id="e" x1="52.016" x2="65.572" y1="58.17" y2="58.17" gradientUnits="userSpaceOnUse"><stop offset="0" stop-color="#476870"></stop><stop offset="1" stop-color="#76949b"></stop></linearGradient><path fill="url(#e)" d="M65.572 58.166a.517.517 0 0 1-.518.518h-12.52a.515.515 0 1 1 0-1.028h12.52c.283 0 .518.227.518.51z"></path><linearGradient id="f" x1="52.016" x2="65.572" y1="37.395" y2="37.395" gradientUnits="userSpaceOnUse"><stop offset="0" stop-color="#476870"></stop><stop offset="1" stop-color="#76949b"></stop></linearGradient><path fill="url(#f)" d="M65.572 37.39a.517.517 0 0 1-.518.52h-12.52a.515.515 0 1 1 0-1.028h12.52c.283-.001.518.225.518.509z"></path><linearGradient id="g" x1="-1673.496" x2="-1650.882" y1="862.164" y2="862.164" gradientTransform="rotate(-21.474 -3019.67 -3972.102)" gradientUnits="userSpaceOnUse"><stop offset="0" stop-color="#15a0ff"></stop><stop offset=".23" stop-color="#19a4ff"></stop><stop offset=".48" stop-color="#26b0ff"></stop><stop offset=".739" stop-color="#3cc4ff"></stop><stop offset="1" stop-color="#5ae0ff"></stop></linearGradient><path fill="url(#g)" d="m23.851 26.452-1.44-.32a.714.714 0 0 1-.492-.4c-.239-.504-.493-.987-.812-1.427a.728.728 0 0 1-.095-.627l.484-1.406a.751.751 0 0 0-.24-.804l-1.921-1.503a.75.75 0 0 0-.838-.04l-1.25.81a.733.733 0 0 1-.63.059 10.527 10.527 0 0 0-1.58-.446.712.712 0 0 1-.507-.381l-.657-1.32a.719.719 0 0 0-.742-.406l-2.393.292a.718.718 0 0 0-.622.572l-.32 1.44a.711.711 0 0 1-.401.493c-.503.239-.984.51-1.425.813a.732.732 0 0 1-.627.094l-1.407-.485a.751.751 0 0 0-.804.24L3.63 23.622a.752.752 0 0 0-.04.838l.81 1.249c.11.18.138.409.059.63-.205.504-.335 1.034-.446 1.58a.713.713 0 0 1-.38.507l-1.321.658a.72.72 0 0 0-.406.741l.293 2.394a.718.718 0 0 0 .572.621l1.44.32a.69.69 0 0 1 .512.417c.221.504.49.968.793 1.41a.77.77 0 0 1 .096.645l-.467 1.404a.673.673 0 0 0 .238.786l1.904 1.505a.75.75 0 0 0 .838.04l1.231-.807a.711.711 0 0 1 .651-.044 9.36 9.36 0 0 0 1.577.428c.218.044.412.18.527.397l.639 1.305a.703.703 0 0 0 .738.388l2.394-.292a.704.704 0 0 0 .624-.555l.305-1.42a.762.762 0 0 1 .416-.513 8.756 8.756 0 0 0 1.428-.795.711.711 0 0 1 .642-.114l1.39.487a.75.75 0 0 0 .803-.24l1.502-1.922a.728.728 0 0 0 .042-.82l-.808-1.249a.767.767 0 0 1-.062-.648 8.623 8.623 0 0 0 .43-1.56.69.69 0 0 1 .397-.527l1.32-.658a.719.719 0 0 0 .406-.741l-.293-2.394a.72.72 0 0 0-.572-.621zm-9.712 9.9a6.752 6.752 0 0 1-7.536-5.895c-.452-3.7 2.178-7.064 5.897-7.518a6.745 6.745 0 0 1 7.516 5.879 6.748 6.748 0 0 1-5.877 7.533z"></path><linearGradient id="h" x1="990.613" x2="1008.919" y1="-806.457" y2="-806.457" gradientTransform="rotate(14.507 -2727.144 -4195.887)" gradientUnits="userSpaceOnUse"><stop offset=".004" stop-color="#6ac163"></stop><stop offset=".39" stop-color="#6ec567"></stop><stop offset=".809" stop-color="#7ad074"></stop><stop offset="1" stop-color="#82d77d"></stop></linearGradient><path fill="url(#h)" d="m40.73 19.8-.988-.666a.576.576 0 0 1-.25-.447 7.132 7.132 0 0 0-.19-1.31.588.588 0 0 1 .115-.499l.779-.913a.606.606 0 0 0 .057-.675l-1-1.696a.606.606 0 0 0-.616-.277l-1.177.238a.591.591 0 0 1-.492-.141 8.495 8.495 0 0 0-1.054-.802.575.575 0 0 1-.269-.436l-.103-1.186a.58.58 0 0 0-.437-.523l-1.884-.488a.58.58 0 0 0-.636.246l-.666.987a.574.574 0 0 1-.446.251c-.448.031-.89.093-1.31.19a.591.591 0 0 1-.5-.115l-.913-.78a.606.606 0 0 0-.674-.056l-1.696.998a.607.607 0 0 0-.278.618l.239 1.177a.59.59 0 0 1-.142.49 7.133 7.133 0 0 0-.801 1.056.575.575 0 0 1-.436.268l-1.186.104a.581.581 0 0 0-.524.436l-.487 1.884a.58.58 0 0 0 .246.636l.987.666a.556.556 0 0 1 .261.464c.017.444.083.872.179 1.293a.621.621 0 0 1-.118.513l-.765.916a.543.543 0 0 0-.054.661l.985 1.693a.605.605 0 0 0 .618.277l1.163-.242a.574.574 0 0 1 .501.159c.336.292.678.557 1.058.787.151.098.256.257.279.454l.094 1.168a.567.567 0 0 0 .44.51l1.883.488c.248.064.49-.02.633-.233l.649-.976a.615.615 0 0 1 .463-.262 7.066 7.066 0 0 0 1.307-.175.574.574 0 0 1 .516.104l.9.776c.195.154.467.18.674.057l1.696-.999a.587.587 0 0 0 .274-.604l-.238-1.176a.619.619 0 0 1 .145-.505c.289-.322.554-.664.784-1.045a.557.557 0 0 1 .453-.278l1.186-.104a.58.58 0 0 0 .524-.437l.487-1.884a.581.581 0 0 0-.246-.636zm-10.26 4.725a5.615 5.615 0 0 1-4.037-6.855 5.612 5.612 0 0 1 6.852-4.023 5.61 5.61 0 0 1 4.026 6.838 5.612 5.612 0 0 1-6.841 4.04z"></path><path fill="#fff" d="M20.707 29.634v.004a7.4 7.4 0 1 1-14.8.01 7.4 7.4 0 0 1 14.8-.014z"></path><g opacity=".6"><linearGradient id="i" x1="13.307" x2="20.707" y1="25.938" y2="25.938" gradientUnits="userSpaceOnUse"><stop offset="0" stop-color="#ffe05f"></stop><stop offset=".175" stop-color="#ffd24e"></stop><stop offset=".464" stop-color="#ffc038"></stop><stop offset=".743" stop-color="#ffb52b"></stop><stop offset="1" stop-color="#ffb127"></stop></linearGradient><path fill="url(#i)" d="M20.707 29.634v.004h-7.4v-7.4a7.4 7.4 0 0 1 7.4 7.396z"></path></g><defs><path id="j" d="M13.307 24.138a.184.184 0 0 1-.183-.184v-.738a.184.184 0 0 1 .367 0v.738a.184.184 0 0 1-.184.184z"></path></defs><clipPath id="k"><use overflow="visible" xlink:href="#j"></use></clipPath><path fill="#476870" d="M13.124 23.032h.008v1.106h-.008z" clip-path="url(#k)"></path><path fill="#486971" d="M13.132 23.032h.008v1.106h-.008z" clip-path="url(#k)"></path><path fill="#496a72" d="M13.139 23.032h.008v1.106h-.008z" clip-path="url(#k)"></path><path fill="#4a6b73" d="M13.147 23.032h.008v1.106h-.008z" clip-path="url(#k)"></path><path fill="#4b6c74" d="M13.155 23.032h.008v1.106h-.008z" clip-path="url(#k)"></path><path fill="#4c6d75" d="M13.163 23.032h.008v1.106h-.008z" clip-path="url(#k)"></path><path fill="#4d6e76" d="M13.171 23.032h.008v1.106h-.008z" clip-path="url(#k)"></path><path fill="#4e6f77" d="M13.178 23.032h.008v1.106h-.008z" clip-path="url(#k)"></path><path fill="#4f7077" d="M13.186 23.032h.008v1.106h-.008z" clip-path="url(#k)"></path><path fill="#507178" d="M13.194 23.032h.008v1.106h-.008z" clip-path="url(#k)"></path><path fill="#517279" d="M13.202 23.032h.008v1.106h-.008z" clip-path="url(#k)"></path><path fill="#52737a" d="M13.21 23.032h.008v1.106h-.008z" clip-path="url(#k)"></path><path fill="#53737b" d="M13.218 23.032h.008v1.106h-.008z" clip-path="url(#k)"></path><path fill="#54747c" d="M13.225 23.032h.008v1.106h-.008z" clip-path="url(#k)"></path><path fill="#55757d" d="M13.233 23.032h.008v1.106h-.008z" clip-path="url(#k)"></path><path fill="#56767e" d="M13.241 23.032h.008v1.106h-.008z" clip-path="url(#k)"></path><path fill="#57777f" d="M13.249 23.032h.008v1.106h-.008z" clip-path="url(#k)"></path><path fill="#587880" d="M13.257 23.032h.008v1.106h-.008z" clip-path="url(#k)"></path><path fill="#597981" d="M13.264 23.032h.008v1.106h-.008z" clip-path="url(#k)"></path><path fill="#5a7a82" d="M13.272 23.032h.008v1.106h-.008z" clip-path="url(#k)"></path><path fill="#5b7b83" d="M13.28 23.032h.008v1.106h-.008z" clip-path="url(#k)"></path><path fill="#5c7c84" d="M13.288 23.032h.008v1.106h-.008z" clip-path="url(#k)"></path><path fill="#5d7d85" d="M13.296 23.032h.008v1.106h-.008z" clip-path="url(#k)"></path><path fill="#5f7e86" d="M13.303 23.032h.008v1.106h-.008z" clip-path="url(#k)"></path><path fill="#607f86" d="M13.311 23.032h.008v1.106h-.008z" clip-path="url(#k)"></path><path fill="#618087" d="M13.319 23.032h.008v1.106h-.008z" clip-path="url(#k)"></path><path fill="#628188" d="M13.327 23.032h.008v1.106h-.008z" clip-path="url(#k)"></path><path fill="#638289" d="M13.335 23.032h.008v1.106h-.008z" clip-path="url(#k)"></path><path fill="#64838a" d="M13.342 23.032h.008v1.106h-.008z" clip-path="url(#k)"></path><path fill="#65848b" d="M13.35 23.032h.008v1.106h-.008z" clip-path="url(#k)"></path><path fill="#66858c" d="M13.358 23.032h.008v1.106h-.008z" clip-path="url(#k)"></path><path fill="#67868d" d="M13.366 23.032h.008v1.106h-.008z" clip-path="url(#k)"></path><path fill="#68878e" d="M13.374 23.032h.008v1.106h-.008z" clip-path="url(#k)"></path><path fill="#69888f" d="M13.382 23.032h.008v1.106h-.008z" clip-path="url(#k)"></path><path fill="#6a8990" d="M13.389 23.032h.008v1.106h-.008z" clip-path="url(#k)"></path><path fill="#6b8991" d="M13.397 23.032h.008v1.106h-.008z" clip-path="url(#k)"></path><path fill="#6c8a92" d="M13.405 23.032h.008v1.106h-.008z" clip-path="url(#k)"></path><path fill="#6d8b93" d="M13.413 23.032h.008v1.106h-.008z" clip-path="url(#k)"></path><path fill="#6e8c94" d="M13.421 23.032h.008v1.106h-.008z" clip-path="url(#k)"></path><path fill="#6f8d94" d="M13.428 23.032h.008v1.106h-.008z" clip-path="url(#k)"></path><path fill="#708e95" d="M13.436 23.032h.008v1.106h-.008z" clip-path="url(#k)"></path><path fill="#718f96" d="M13.444 23.032h.008v1.106h-.008z" clip-path="url(#k)"></path><path fill="#729097" d="M13.452 23.032h.008v1.106h-.008z" clip-path="url(#k)"></path><path fill="#739198" d="M13.46 23.032h.008v1.106h-.008z" clip-path="url(#k)"></path><path fill="#749299" d="M13.467 23.032h.008v1.106h-.008z" clip-path="url(#k)"></path><path fill="#75939a" d="M13.475 23.032h.008v1.106h-.008z" clip-path="url(#k)"></path><path fill="#76949b" d="M13.483 23.032h.008v1.106h-.008z" clip-path="url(#k)"></path><defs><path id="l" d="M13.307 36.243a.184.184 0 0 1-.183-.184v-.738a.184.184 0 0 1 .367 0v.738a.184.184 0 0 1-.184.184z"></path></defs><clipPath id="m"><use overflow="visible" xlink:href="#l"></use></clipPath><path fill="#476870" d="M13.124 35.137h.008v1.106h-.008z" clip-path="url(#m)"></path><path fill="#486971" d="M13.132 35.137h.008v1.106h-.008z" clip-path="url(#m)"></path><path fill="#496a72" d="M13.139 35.137h.008v1.106h-.008z" clip-path="url(#m)"></path><path fill="#4a6b73" d="M13.147 35.137h.008v1.106h-.008z" clip-path="url(#m)"></path><path fill="#4b6c74" d="M13.155 35.137h.008v1.106h-.008z" clip-path="url(#m)"></path><path fill="#4c6d75" d="M13.163 35.137h.008v1.106h-.008z" clip-path="url(#m)"></path><path fill="#4d6e76" d="M13.171 35.137h.008v1.106h-.008z" clip-path="url(#m)"></path><path fill="#4e6f77" d="M13.178 35.137h.008v1.106h-.008z" clip-path="url(#m)"></path><path fill="#4f7077" d="M13.186 35.137h.008v1.106h-.008z" clip-path="url(#m)"></path><path fill="#507178" d="M13.194 35.137h.008v1.106h-.008z" clip-path="url(#m)"></path><path fill="#517279" d="M13.202 35.137h.008v1.106h-.008z" clip-path="url(#m)"></path><path fill="#52737a" d="M13.21 35.137h.008v1.106h-.008z" clip-path="url(#m)"></path><path fill="#53737b" d="M13.218 35.137h.008v1.106h-.008z" clip-path="url(#m)"></path><path fill="#54747c" d="M13.225 35.137h.008v1.106h-.008z" clip-path="url(#m)"></path><path fill="#55757d" d="M13.233 35.137h.008v1.106h-.008z" clip-path="url(#m)"></path><path fill="#56767e" d="M13.241 35.137h.008v1.106h-.008z" clip-path="url(#m)"></path><path fill="#57777f" d="M13.249 35.137h.008v1.106h-.008z" clip-path="url(#m)"></path><path fill="#587880" d="M13.257 35.137h.008v1.106h-.008z" clip-path="url(#m)"></path><path fill="#597981" d="M13.264 35.137h.008v1.106h-.008z" clip-path="url(#m)"></path><path fill="#5a7a82" d="M13.272 35.137h.008v1.106h-.008z" clip-path="url(#m)"></path><path fill="#5b7b83" d="M13.28 35.137h.008v1.106h-.008z" clip-path="url(#m)"></path><path fill="#5c7c84" d="M13.288 35.137h.008v1.106h-.008z" clip-path="url(#m)"></path><path fill="#5d7d85" d="M13.296 35.137h.008v1.106h-.008z" clip-path="url(#m)"></path><path fill="#5f7e86" d="M13.303 35.137h.008v1.106h-.008z" clip-path="url(#m)"></path><path fill="#607f86" d="M13.311 35.137h.008v1.106h-.008z" clip-path="url(#m)"></path><path fill="#618087" d="M13.319 35.137h.008v1.106h-.008z" clip-path="url(#m)"></path><path fill="#628188" d="M13.327 35.137h.008v1.106h-.008z" clip-path="url(#m)"></path><path fill="#638289" d="M13.335 35.137h.008v1.106h-.008z" clip-path="url(#m)"></path><path fill="#64838a" d="M13.342 35.137h.008v1.106h-.008z" clip-path="url(#m)"></path><path fill="#65848b" d="M13.35 35.137h.008v1.106h-.008z" clip-path="url(#m)"></path><path fill="#66858c" d="M13.358 35.137h.008v1.106h-.008z" clip-path="url(#m)"></path><path fill="#67868d" d="M13.366 35.137h.008v1.106h-.008z" clip-path="url(#m)"></path><path fill="#68878e" d="M13.374 35.137h.008v1.106h-.008z" clip-path="url(#m)"></path><path fill="#69888f" d="M13.382 35.137h.008v1.106h-.008z" clip-path="url(#m)"></path><path fill="#6a8990" d="M13.389 35.137h.008v1.106h-.008z" clip-path="url(#m)"></path><path fill="#6b8991" d="M13.397 35.137h.008v1.106h-.008z" clip-path="url(#m)"></path><path fill="#6c8a92" d="M13.405 35.137h.008v1.106h-.008z" clip-path="url(#m)"></path><path fill="#6d8b93" d="M13.413 35.137h.008v1.106h-.008z" clip-path="url(#m)"></path><path fill="#6e8c94" d="M13.421 35.137h.008v1.106h-.008z" clip-path="url(#m)"></path><path fill="#6f8d94" d="M13.428 35.137h.008v1.106h-.008z" clip-path="url(#m)"></path><path fill="#708e95" d="M13.436 35.137h.008v1.106h-.008z" clip-path="url(#m)"></path><path fill="#718f96" d="M13.444 35.137h.008v1.106h-.008z" clip-path="url(#m)"></path><path fill="#729097" d="M13.452 35.137h.008v1.106h-.008z" clip-path="url(#m)"></path><path fill="#739198" d="M13.46 35.137h.008v1.106h-.008z" clip-path="url(#m)"></path><path fill="#749299" d="M13.467 35.137h.008v1.106h-.008z" clip-path="url(#m)"></path><path fill="#75939a" d="M13.475 35.137h.008v1.106h-.008z" clip-path="url(#m)"></path><path fill="#76949b" d="M13.483 35.137h.008v1.106h-.008z" clip-path="url(#m)"></path><defs><path id="n" d="M9.289 25.802a.183.183 0 0 1-.13-.053l-.522-.522a.183.183 0 1 1 .26-.26l.522.522a.183.183 0 0 1-.13.313z"></path></defs><clipPath id="o"><use overflow="visible" xlink:href="#n"></use></clipPath><path fill="#476870" d="M8.565 24.895h.018v.907h-.018zM8.583 24.895h.019v.907h-.019z" clip-path="url(#o)"></path><path fill="#486971" d="M8.602 24.895h.019v.907h-.019z" clip-path="url(#o)"></path><path fill="#496a72" d="M8.621 24.895h.019v.907h-.019z" clip-path="url(#o)"></path><path fill="#4a6b73" d="M8.64 24.895h.019v.907H8.64z" clip-path="url(#o)"></path><path fill="#4b6c74" d="M8.659 24.895h.019v.907h-.019z" clip-path="url(#o)"></path><path fill="#4c6d75" d="M8.678 24.895h.019v.907h-.019z" clip-path="url(#o)"></path><path fill="#4d6e76" d="M8.697 24.895h.019v.907h-.019z" clip-path="url(#o)"></path><path fill="#4e6f77" d="M8.716 24.895h.019v.907h-.019z" clip-path="url(#o)"></path><path fill="#4f7077" d="M8.734 24.895h.019v.907h-.019z" clip-path="url(#o)"></path><path fill="#507178" d="M8.753 24.895h.019v.907h-.019z" clip-path="url(#o)"></path><path fill="#517279" d="M8.772 24.895h.019v.907h-.019z" clip-path="url(#o)"></path><path fill="#52737a" d="M8.791 24.895h.019v.907h-.019z" clip-path="url(#o)"></path><path fill="#53737b" d="M8.81 24.895h.019v.907H8.81z" clip-path="url(#o)"></path><path fill="#54747c" d="M8.829 24.895h.019v.907h-.019z" clip-path="url(#o)"></path><path fill="#55757d" d="M8.848 24.895h.019v.907h-.019z" clip-path="url(#o)"></path><path fill="#56767e" d="M8.867 24.895h.019v.907h-.019z" clip-path="url(#o)"></path><path fill="#57777f" d="M8.886 24.895h.019v.907h-.019z" clip-path="url(#o)"></path><path fill="#587880" d="M8.905 24.895h.019v.907h-.019z" clip-path="url(#o)"></path><path fill="#597981" d="M8.924 24.895h.019v.907h-.019z" clip-path="url(#o)"></path><path fill="#5a7a82" d="M8.943 24.895h.019v.907h-.019z" clip-path="url(#o)"></path><path fill="#5b7b83" d="M8.961 24.895h.019v.907h-.019z" clip-path="url(#o)"></path><path fill="#5c7c84" d="M8.98 24.895h.019v.907H8.98z" clip-path="url(#o)"></path><path fill="#5d7d85" d="M8.999 24.895h.019v.907h-.019z" clip-path="url(#o)"></path><path fill="#5f7e86" d="M9.018 24.895h.019v.907h-.019z" clip-path="url(#o)"></path><path fill="#607f86" d="M9.037 24.895h.019v.907h-.019z" clip-path="url(#o)"></path><path fill="#618087" d="M9.056 24.895h.019v.907h-.019z" clip-path="url(#o)"></path><path fill="#628188" d="M9.075 24.895h.019v.907h-.019z" clip-path="url(#o)"></path><path fill="#638289" d="M9.094 24.895h.019v.907h-.019z" clip-path="url(#o)"></path><path fill="#64838a" d="M9.113 24.895h.019v.907h-.019z" clip-path="url(#o)"></path><path fill="#65848b" d="M9.132 24.895h.019v.907h-.019z" clip-path="url(#o)"></path><path fill="#66858c" d="M9.151 24.895h.019v.907h-.019z" clip-path="url(#o)"></path><path fill="#67868d" d="M9.17 24.895h.019v.907H9.17z" clip-path="url(#o)"></path><path fill="#68878e" d="M9.189 24.895h.019v.907h-.019z" clip-path="url(#o)"></path><path fill="#69888f" d="M9.207 24.895h.019v.907h-.019z" clip-path="url(#o)"></path><path fill="#6a8990" d="M9.226 24.895h.019v.907h-.019z" clip-path="url(#o)"></path><path fill="#6b8991" d="M9.245 24.895h.019v.907h-.019z" clip-path="url(#o)"></path><path fill="#6c8a92" d="M9.264 24.895h.019v.907h-.019z" clip-path="url(#o)"></path><path fill="#6d8b93" d="M9.283 24.895h.019v.907h-.019z" clip-path="url(#o)"></path><path fill="#6e8c94" d="M9.302 24.895h.019v.907h-.019z" clip-path="url(#o)"></path><path fill="#6f8d94" d="M9.321 24.895h.019v.907h-.019z" clip-path="url(#o)"></path><path fill="#708e95" d="M9.34 24.895h.019v.907H9.34z" clip-path="url(#o)"></path><path fill="#718f96" d="M9.359 24.895h.019v.907h-.019z" clip-path="url(#o)"></path><path fill="#729097" d="M9.378 24.895h.019v.907h-.019z" clip-path="url(#o)"></path><path fill="#739198" d="M9.397 24.895h.019v.907h-.019z" clip-path="url(#o)"></path><path fill="#749299" d="M9.416 24.895h.019v.907h-.019z" clip-path="url(#o)"></path><path fill="#75939a" d="M9.434 24.895h.019v.907h-.019z" clip-path="url(#o)"></path><path fill="#76949b" d="M9.453 24.895h.019v.907h-.019zM9.472 24.895h.018v.907h-.018z" clip-path="url(#o)"></path><defs><path id="p" d="M17.848 34.362a.183.183 0 0 1-.13-.054l-.522-.522a.183.183 0 1 1 .26-.26l.522.523a.183.183 0 0 1-.13.313z"></path></defs><clipPath id="q"><use overflow="visible" xlink:href="#p"></use></clipPath><path fill="#476870" d="M17.124 33.455h.018v.907h-.018zM17.142 33.455h.019v.907h-.019z" clip-path="url(#q)"></path><path fill="#486971" d="M17.161 33.455h.019v.907h-.019z" clip-path="url(#q)"></path><path fill="#496a72" d="M17.18 33.455h.019v.907h-.019z" clip-path="url(#q)"></path><path fill="#4a6b73" d="M17.199 33.455h.019v.907h-.019z" clip-path="url(#q)"></path><path fill="#4b6c74" d="M17.218 33.455h.019v.907h-.019z" clip-path="url(#q)"></path><path fill="#4c6d75" d="M17.237 33.455h.019v.907h-.019z" clip-path="url(#q)"></path><path fill="#4d6e76" d="M17.256 33.455h.019v.907h-.019z" clip-path="url(#q)"></path><path fill="#4e6f77" d="M17.275 33.455h.019v.907h-.019z" clip-path="url(#q)"></path><path fill="#4f7077" d="M17.294 33.455h.019v.907h-.019z" clip-path="url(#q)"></path><path fill="#507178" d="M17.313 33.455h.019v.907h-.019z" clip-path="url(#q)"></path><path fill="#517279" d="M17.332 33.455h.019v.907h-.019z" clip-path="url(#q)"></path><path fill="#52737a" d="M17.35 33.455h.019v.907h-.019z" clip-path="url(#q)"></path><path fill="#53737b" d="M17.369 33.455h.019v.907h-.019z" clip-path="url(#q)"></path><path fill="#54747c" d="M17.388 33.455h.019v.907h-.019z" clip-path="url(#q)"></path><path fill="#55757d" d="M17.407 33.455h.019v.907h-.019z" clip-path="url(#q)"></path><path fill="#56767e" d="M17.426 33.455h.019v.907h-.019z" clip-path="url(#q)"></path><path fill="#57777f" d="M17.445 33.455h.019v.907h-.019z" clip-path="url(#q)"></path><path fill="#587880" d="M17.464 33.455h.019v.907h-.019z" clip-path="url(#q)"></path><path fill="#597981" d="M17.483 33.455h.019v.907h-.019z" clip-path="url(#q)"></path><path fill="#5a7a82" d="M17.502 33.455h.019v.907h-.019z" clip-path="url(#q)"></path><path fill="#5b7b83" d="M17.521 33.455h.019v.907h-.019z" clip-path="url(#q)"></path><path fill="#5c7c84" d="M17.54 33.455h.019v.907h-.019z" clip-path="url(#q)"></path><path fill="#5d7d85" d="M17.559 33.455h.019v.907h-.019z" clip-path="url(#q)"></path><path fill="#5f7e86" d="M17.577 33.455h.019v.907h-.019z" clip-path="url(#q)"></path><path fill="#607f86" d="M17.596 33.455h.019v.907h-.019z" clip-path="url(#q)"></path><path fill="#618087" d="M17.615 33.455h.019v.907h-.019z" clip-path="url(#q)"></path><path fill="#628188" d="M17.634 33.455h.019v.907h-.019z" clip-path="url(#q)"></path><path fill="#638289" d="M17.653 33.455h.019v.907h-.019z" clip-path="url(#q)"></path><path fill="#64838a" d="M17.672 33.455h.019v.907h-.019z" clip-path="url(#q)"></path><path fill="#65848b" d="M17.691 33.455h.019v.907h-.019z" clip-path="url(#q)"></path><path fill="#66858c" d="M17.71 33.455h.019v.907h-.019z" clip-path="url(#q)"></path><path fill="#67868d" d="M17.729 33.455h.019v.907h-.019z" clip-path="url(#q)"></path><path fill="#68878e" d="M17.748 33.455h.019v.907h-.019z" clip-path="url(#q)"></path><path fill="#69888f" d="M17.767 33.455h.019v.907h-.019z" clip-path="url(#q)"></path><path fill="#6a8990" d="M17.786 33.455h.019v.907h-.019z" clip-path="url(#q)"></path><path fill="#6b8991" d="M17.805 33.455h.019v.907h-.019z" clip-path="url(#q)"></path><path fill="#6c8a92" d="M17.823 33.455h.019v.907h-.019z" clip-path="url(#q)"></path><path fill="#6d8b93" d="M17.842 33.455h.019v.907h-.019z" clip-path="url(#q)"></path><path fill="#6e8c94" d="M17.861 33.455h.019v.907h-.019z" clip-path="url(#q)"></path><path fill="#6f8d94" d="M17.88 33.455h.019v.907h-.019z" clip-path="url(#q)"></path><path fill="#708e95" d="M17.899 33.455h.019v.907h-.019z" clip-path="url(#q)"></path><path fill="#718f96" d="M17.918 33.455h.019v.907h-.019z" clip-path="url(#q)"></path><path fill="#729097" d="M17.937 33.455h.019v.907h-.019z" clip-path="url(#q)"></path><path fill="#739198" d="M17.956 33.455h.019v.907h-.019z" clip-path="url(#q)"></path><path fill="#749299" d="M17.975 33.455h.019v.907h-.019z" clip-path="url(#q)"></path><path fill="#75939a" d="M17.994 33.455h.019v.907h-.019z" clip-path="url(#q)"></path><path fill="#76949b" d="M18.013 33.455h.019v.907h-.019zM18.032 33.455h.018v.907h-.018z" clip-path="url(#q)"></path><defs><path id="r" d="M16.149 32.663a.183.183 0 0 1-.13-.054l-4.086-4.086a.183.183 0 1 1 .26-.26l4.086 4.086a.183.183 0 0 1-.13.314z"></path></defs><clipPath id="s"><use overflow="visible" xlink:href="#r"></use></clipPath><path fill="#476870" d="M11.861 28.191h.018v4.471h-.018z" clip-path="url(#s)"></path><path fill="#476870" d="M11.879 28.191h.095v4.471h-.095z" clip-path="url(#s)"></path><path fill="#486971" d="M11.974 28.191h.095v4.471h-.095z" clip-path="url(#s)"></path><path fill="#496a72" d="M12.069 28.191h.095v4.471h-.095z" clip-path="url(#s)"></path><path fill="#4a6b73" d="M12.163 28.191h.095v4.471h-.095z" clip-path="url(#s)"></path><path fill="#4b6c74" d="M12.258 28.191h.095v4.471h-.095z" clip-path="url(#s)"></path><path fill="#4c6d75" d="M12.353 28.191h.095v4.471h-.095z" clip-path="url(#s)"></path><path fill="#4d6e76" d="M12.448 28.191h.095v4.471h-.095z" clip-path="url(#s)"></path><path fill="#4e6f77" d="M12.542 28.191h.095v4.471h-.095z" clip-path="url(#s)"></path><path fill="#4f7077" d="M12.637 28.191h.095v4.471h-.095z" clip-path="url(#s)"></path><path fill="#507178" d="M12.732 28.191h.095v4.471h-.095z" clip-path="url(#s)"></path><path fill="#517279" d="M12.827 28.191h.095v4.471h-.095z" clip-path="url(#s)"></path><path fill="#52737a" d="M12.921 28.191h.095v4.471h-.095z" clip-path="url(#s)"></path><path fill="#53737b" d="M13.016 28.191h.095v4.471h-.095z" clip-path="url(#s)"></path><path fill="#54747c" d="M13.111 28.191h.095v4.471h-.095z" clip-path="url(#s)"></path><path fill="#55757d" d="M13.206 28.191h.095v4.471h-.095z" clip-path="url(#s)"></path><path fill="#56767e" d="M13.3 28.191h.095v4.471H13.3z" clip-path="url(#s)"></path><path fill="#57777f" d="M13.395 28.191h.095v4.471h-.095z" clip-path="url(#s)"></path><path fill="#587880" d="M13.49 28.191h.095v4.471h-.095z" clip-path="url(#s)"></path><path fill="#597981" d="M13.585 28.191h.095v4.471h-.095z" clip-path="url(#s)"></path><path fill="#5a7a82" d="M13.679 28.191h.095v4.471h-.095z" clip-path="url(#s)"></path><path fill="#5b7b83" d="M13.774 28.191h.095v4.471h-.095z" clip-path="url(#s)"></path><path fill="#5c7c84" d="M13.869 28.191h.095v4.471h-.095z" clip-path="url(#s)"></path><path fill="#5d7d85" d="M13.964 28.191h.095v4.471h-.095z" clip-path="url(#s)"></path><path fill="#5f7e86" d="M14.058 28.191h.095v4.471h-.095z" clip-path="url(#s)"></path><path fill="#607f86" d="M14.153 28.191h.095v4.471h-.095z" clip-path="url(#s)"></path><path fill="#618087" d="M14.248 28.191h.095v4.471h-.095z" clip-path="url(#s)"></path><path fill="#628188" d="M14.343 28.191h.095v4.471h-.095z" clip-path="url(#s)"></path><path fill="#638289" d="M14.437 28.191h.095v4.471h-.095z" clip-path="url(#s)"></path><path fill="#64838a" d="M14.532 28.191h.095v4.471h-.095z" clip-path="url(#s)"></path><path fill="#65848b" d="M14.627 28.191h.095v4.471h-.095z" clip-path="url(#s)"></path><path fill="#66858c" d="M14.722 28.191h.095v4.471h-.095z" clip-path="url(#s)"></path><path fill="#67868d" d="M14.816 28.191h.095v4.471h-.095z" clip-path="url(#s)"></path><path fill="#68878e" d="M14.911 28.191h.095v4.471h-.095z" clip-path="url(#s)"></path><path fill="#69888f" d="M15.006 28.191h.095v4.471h-.095z" clip-path="url(#s)"></path><path fill="#6a8990" d="M15.101 28.191h.095v4.471h-.095z" clip-path="url(#s)"></path><path fill="#6b8991" d="M15.195 28.191h.095v4.471h-.095z" clip-path="url(#s)"></path><path fill="#6c8a92" d="M15.29 28.191h.095v4.471h-.095z" clip-path="url(#s)"></path><path fill="#6d8b93" d="M15.385 28.191h.095v4.471h-.095z" clip-path="url(#s)"></path><path fill="#6e8c94" d="M15.48 28.191h.095v4.471h-.095z" clip-path="url(#s)"></path><path fill="#6f8d94" d="M15.574 28.191h.095v4.471h-.095z" clip-path="url(#s)"></path><path fill="#708e95" d="M15.669 28.191h.095v4.471h-.095z" clip-path="url(#s)"></path><path fill="#718f96" d="M15.764 28.191h.095v4.471h-.095z" clip-path="url(#s)"></path><path fill="#729097" d="M15.859 28.191h.095v4.471h-.095z" clip-path="url(#s)"></path><path fill="#739198" d="M15.953 28.191h.095v4.471h-.095z" clip-path="url(#s)"></path><path fill="#749299" d="M16.048 28.191h.095v4.471h-.095z" clip-path="url(#s)"></path><path fill="#75939a" d="M16.143 28.191h.095v4.471h-.095z" clip-path="url(#s)"></path><path fill="#76949b" d="M16.238 28.191h.095v4.471h-.095z" clip-path="url(#s)"></path><path fill="#76949b" d="M16.332 28.191h.018v4.471h-.018z" clip-path="url(#s)"></path><defs><path id="t" d="M7.624 29.821h-.738a.184.184 0 0 1 0-.367h.738a.184.184 0 0 1 0 .367z"></path></defs><clipPath id="u"><use overflow="visible" xlink:href="#t"></use></clipPath><path fill="#476870" d="M6.702 29.454h.024v.367h-.024z" clip-path="url(#u)"></path><path fill="#486971" d="M6.726 29.454h.024v.367h-.024z" clip-path="url(#u)"></path><path fill="#496a72" d="M6.749 29.454h.024v.367h-.024z" clip-path="url(#u)"></path><path fill="#4a6b73" d="M6.773 29.454h.024v.367h-.024z" clip-path="url(#u)"></path><path fill="#4b6c74" d="M6.796 29.454h.024v.367h-.024z" clip-path="url(#u)"></path><path fill="#4c6d75" d="M6.82 29.454h.024v.367H6.82z" clip-path="url(#u)"></path><path fill="#4d6e76" d="M6.843 29.454h.024v.367h-.024z" clip-path="url(#u)"></path><path fill="#4e6f77" d="M6.867 29.454h.024v.367h-.024z" clip-path="url(#u)"></path><path fill="#4f7077" d="M6.89 29.454h.024v.367H6.89z" clip-path="url(#u)"></path><path fill="#507178" d="M6.914 29.454h.024v.367h-.024z" clip-path="url(#u)"></path><path fill="#517279" d="M6.937 29.454h.024v.367h-.024z" clip-path="url(#u)"></path><path fill="#52737a" d="M6.961 29.454h.024v.367h-.024z" clip-path="url(#u)"></path><path fill="#53737b" d="M6.984 29.454h.024v.367h-.024z" clip-path="url(#u)"></path><path fill="#54747c" d="M7.008 29.454h.024v.367h-.024z" clip-path="url(#u)"></path><path fill="#55757d" d="M7.032 29.454h.024v.367h-.024z" clip-path="url(#u)"></path><path fill="#56767e" d="M7.055 29.454h.024v.367h-.024z" clip-path="url(#u)"></path><path fill="#57777f" d="M7.079 29.454h.024v.367h-.024z" clip-path="url(#u)"></path><path fill="#587880" d="M7.102 29.454h.024v.367h-.024z" clip-path="url(#u)"></path><path fill="#597981" d="M7.126 29.454h.024v.367h-.024z" clip-path="url(#u)"></path><path fill="#5a7a82" d="M7.149 29.454h.024v.367h-.024z" clip-path="url(#u)"></path><path fill="#5b7b83" d="M7.173 29.454h.024v.367h-.024z" clip-path="url(#u)"></path><path fill="#5c7c84" d="M7.196 29.454h.024v.367h-.024z" clip-path="url(#u)"></path><path fill="#5d7d85" d="M7.22 29.454h.024v.367H7.22z" clip-path="url(#u)"></path><path fill="#5f7e86" d="M7.243 29.454h.024v.367h-.024z" clip-path="url(#u)"></path><path fill="#607f86" d="M7.267 29.454h.024v.367h-.024z" clip-path="url(#u)"></path><path fill="#618087" d="M7.29 29.454h.024v.367H7.29z" clip-path="url(#u)"></path><path fill="#628188" d="M7.314 29.454h.024v.367h-.024z" clip-path="url(#u)"></path><path fill="#638289" d="M7.337 29.454h.024v.367h-.024z" clip-path="url(#u)"></path><path fill="#64838a" d="M7.361 29.454h.024v.367h-.024z" clip-path="url(#u)"></path><path fill="#65848b" d="M7.384 29.454h.024v.367h-.024z" clip-path="url(#u)"></path><path fill="#66858c" d="M7.408 29.454h.024v.367h-.024z" clip-path="url(#u)"></path><path fill="#67868d" d="M7.431 29.454h.024v.367h-.024z" clip-path="url(#u)"></path><path fill="#68878e" d="M7.455 29.454h.024v.367h-.024z" clip-path="url(#u)"></path><path fill="#69888f" d="M7.479 29.454h.024v.367h-.024z" clip-path="url(#u)"></path><path fill="#6a8990" d="M7.502 29.454h.024v.367h-.024z" clip-path="url(#u)"></path><path fill="#6b8991" d="M7.526 29.454h.024v.367h-.024z" clip-path="url(#u)"></path><path fill="#6c8a92" d="M7.549 29.454h.024v.367h-.024z" clip-path="url(#u)"></path><path fill="#6d8b93" d="M7.573 29.454h.024v.367h-.024z" clip-path="url(#u)"></path><path fill="#6e8c94" d="M7.596 29.454h.024v.367h-.024z" clip-path="url(#u)"></path><path fill="#6f8d94" d="M7.62 29.454h.024v.367H7.62z" clip-path="url(#u)"></path><path fill="#708e95" d="M7.643 29.454h.024v.367h-.024z" clip-path="url(#u)"></path><path fill="#718f96" d="M7.667 29.454h.024v.367h-.024z" clip-path="url(#u)"></path><path fill="#729097" d="M7.69 29.454h.024v.367H7.69z" clip-path="url(#u)"></path><path fill="#739198" d="M7.714 29.454h.024v.367h-.024z" clip-path="url(#u)"></path><path fill="#749299" d="M7.737 29.454h.024v.367h-.024z" clip-path="url(#u)"></path><path fill="#75939a" d="M7.761 29.454h.024v.367h-.024z" clip-path="url(#u)"></path><path fill="#76949b" d="M7.784 29.454h.024v.367h-.024z" clip-path="url(#u)"></path><defs><path id="v" d="M19.729 29.821h-.738a.184.184 0 0 1 0-.367h.738a.184.184 0 0 1 0 .367z"></path></defs><clipPath id="w"><use overflow="visible" xlink:href="#v"></use></clipPath><path fill="#476870" d="M18.807 29.454h.024v.367h-.024z" clip-path="url(#w)"></path><path fill="#486971" d="M18.831 29.454h.024v.367h-.024z" clip-path="url(#w)"></path><path fill="#496a72" d="M18.854 29.454h.024v.367h-.024z" clip-path="url(#w)"></path><path fill="#4a6b73" d="M18.878 29.454h.024v.367h-.024z" clip-path="url(#w)"></path><path fill="#4b6c74" d="M18.901 29.454h.024v.367h-.024z" clip-path="url(#w)"></path><path fill="#4c6d75" d="M18.925 29.454h.024v.367h-.024z" clip-path="url(#w)"></path><path fill="#4d6e76" d="M18.948 29.454h.024v.367h-.024z" clip-path="url(#w)"></path><path fill="#4e6f77" d="M18.972 29.454h.024v.367h-.024z" clip-path="url(#w)"></path><path fill="#4f7077" d="M18.995 29.454h.024v.367h-.024z" clip-path="url(#w)"></path><path fill="#507178" d="M19.019 29.454h.024v.367h-.024z" clip-path="url(#w)"></path><path fill="#517279" d="M19.042 29.454h.024v.367h-.024z" clip-path="url(#w)"></path><path fill="#52737a" d="M19.066 29.454h.024v.367h-.024z" clip-path="url(#w)"></path><path fill="#53737b" d="M19.089 29.454h.024v.367h-.024z" clip-path="url(#w)"></path><path fill="#54747c" d="M19.113 29.454h.024v.367h-.024z" clip-path="url(#w)"></path><path fill="#55757d" d="M19.136 29.454h.024v.367h-.024z" clip-path="url(#w)"></path><path fill="#56767e" d="M19.16 29.454h.024v.367h-.024z" clip-path="url(#w)"></path><path fill="#57777f" d="M19.183 29.454h.024v.367h-.024z" clip-path="url(#w)"></path><path fill="#587880" d="M19.207 29.454h.024v.367h-.024z" clip-path="url(#w)"></path><path fill="#597981" d="M19.23 29.454h.024v.367h-.024z" clip-path="url(#w)"></path><path fill="#5a7a82" d="M19.254 29.454h.024v.367h-.024z" clip-path="url(#w)"></path><path fill="#5b7b83" d="M19.277 29.454h.024v.367h-.024z" clip-path="url(#w)"></path><path fill="#5c7c84" d="M19.301 29.454h.024v.367h-.024z" clip-path="url(#w)"></path><path fill="#5d7d85" d="M19.324 29.454h.024v.367h-.024z" clip-path="url(#w)"></path><path fill="#5f7e86" d="M19.348 29.454h.024v.367h-.024z" clip-path="url(#w)"></path><path fill="#607f86" d="M19.372 29.454h.024v.367h-.024z" clip-path="url(#w)"></path><path fill="#618087" d="M19.395 29.454h.024v.367h-.024z" clip-path="url(#w)"></path><path fill="#628188" d="M19.419 29.454h.024v.367h-.024z" clip-path="url(#w)"></path><path fill="#638289" d="M19.442 29.454h.024v.367h-.024z" clip-path="url(#w)"></path><path fill="#64838a" d="M19.466 29.454h.024v.367h-.024z" clip-path="url(#w)"></path><path fill="#65848b" d="M19.489 29.454h.024v.367h-.024z" clip-path="url(#w)"></path><path fill="#66858c" d="M19.513 29.454h.024v.367h-.024z" clip-path="url(#w)"></path><path fill="#67868d" d="M19.536 29.454h.024v.367h-.024z" clip-path="url(#w)"></path><path fill="#68878e" d="M19.56 29.454h.024v.367h-.024z" clip-path="url(#w)"></path><path fill="#69888f" d="M19.583 29.454h.024v.367h-.024z" clip-path="url(#w)"></path><path fill="#6a8990" d="M19.607 29.454h.024v.367h-.024z" clip-path="url(#w)"></path><path fill="#6b8991" d="M19.63 29.454h.024v.367h-.024z" clip-path="url(#w)"></path><path fill="#6c8a92" d="M19.654 29.454h.024v.367h-.024z" clip-path="url(#w)"></path><path fill="#6d8b93" d="M19.677 29.454h.024v.367h-.024z" clip-path="url(#w)"></path><path fill="#6e8c94" d="M19.701 29.454h.024v.367h-.024z" clip-path="url(#w)"></path><path fill="#6f8d94" d="M19.724 29.454h.024v.367h-.024z" clip-path="url(#w)"></path><path fill="#708e95" d="M19.748 29.454h.024v.367h-.024z" clip-path="url(#w)"></path><path fill="#718f96" d="M19.771 29.454h.024v.367h-.024z" clip-path="url(#w)"></path><path fill="#729097" d="M19.795 29.454h.024v.367h-.024z" clip-path="url(#w)"></path><path fill="#739198" d="M19.818 29.454h.024v.367h-.024z" clip-path="url(#w)"></path><path fill="#749299" d="M19.842 29.454h.024v.367h-.024z" clip-path="url(#w)"></path><path fill="#75939a" d="M19.865 29.454h.024v.367h-.024z" clip-path="url(#w)"></path><path fill="#76949b" d="M19.889 29.454h.024v.367h-.024z" clip-path="url(#w)"></path><defs><path id="x" d="M8.767 34.362a.183.183 0 0 1-.13-.313l.522-.523a.183.183 0 1 1 .26.26l-.523.522a.183.183 0 0 1-.13.054z"></path></defs><clipPath id="y"><use overflow="visible" xlink:href="#x"></use></clipPath><path fill="#476870" d="M8.565 33.455h.018v.907h-.018zM8.583 33.455h.019v.907h-.019z" clip-path="url(#y)"></path><path fill="#486971" d="M8.602 33.455h.019v.907h-.019z" clip-path="url(#y)"></path><path fill="#496a72" d="M8.621 33.455h.019v.907h-.019z" clip-path="url(#y)"></path><path fill="#4a6b73" d="M8.64 33.455h.019v.907H8.64z" clip-path="url(#y)"></path><path fill="#4b6c74" d="M8.659 33.455h.019v.907h-.019z" clip-path="url(#y)"></path><path fill="#4c6d75" d="M8.678 33.455h.019v.907h-.019z" clip-path="url(#y)"></path><path fill="#4d6e76" d="M8.697 33.455h.019v.907h-.019z" clip-path="url(#y)"></path><path fill="#4e6f77" d="M8.716 33.455h.019v.907h-.019z" clip-path="url(#y)"></path><path fill="#4f7077" d="M8.734 33.455h.019v.907h-.019z" clip-path="url(#y)"></path><path fill="#507178" d="M8.753 33.455h.019v.907h-.019z" clip-path="url(#y)"></path><path fill="#517279" d="M8.772 33.455h.019v.907h-.019z" clip-path="url(#y)"></path><path fill="#52737a" d="M8.791 33.455h.019v.907h-.019z" clip-path="url(#y)"></path><path fill="#53737b" d="M8.81 33.455h.019v.907H8.81z" clip-path="url(#y)"></path><path fill="#54747c" d="M8.829 33.455h.019v.907h-.019z" clip-path="url(#y)"></path><path fill="#55757d" d="M8.848 33.455h.019v.907h-.019z" clip-path="url(#y)"></path><path fill="#56767e" d="M8.867 33.455h.019v.907h-.019z" clip-path="url(#y)"></path><path fill="#57777f" d="M8.886 33.455h.019v.907h-.019z" clip-path="url(#y)"></path><path fill="#587880" d="M8.905 33.455h.019v.907h-.019z" clip-path="url(#y)"></path><path fill="#597981" d="M8.924 33.455h.019v.907h-.019z" clip-path="url(#y)"></path><path fill="#5a7a82" d="M8.943 33.455h.019v.907h-.019z" clip-path="url(#y)"></path><path fill="#5b7b83" d="M8.961 33.455h.019v.907h-.019z" clip-path="url(#y)"></path><path fill="#5c7c84" d="M8.98 33.455h.019v.907H8.98z" clip-path="url(#y)"></path><path fill="#5d7d85" d="M8.999 33.455h.019v.907h-.019z" clip-path="url(#y)"></path><path fill="#5f7e86" d="M9.018 33.455h.019v.907h-.019z" clip-path="url(#y)"></path><path fill="#607f86" d="M9.037 33.455h.019v.907h-.019z" clip-path="url(#y)"></path><path fill="#618087" d="M9.056 33.455h.019v.907h-.019z" clip-path="url(#y)"></path><path fill="#628188" d="M9.075 33.455h.019v.907h-.019z" clip-path="url(#y)"></path><path fill="#638289" d="M9.094 33.455h.019v.907h-.019z" clip-path="url(#y)"></path><path fill="#64838a" d="M9.113 33.455h.019v.907h-.019z" clip-path="url(#y)"></path><path fill="#65848b" d="M9.132 33.455h.019v.907h-.019z" clip-path="url(#y)"></path><path fill="#66858c" d="M9.151 33.455h.019v.907h-.019z" clip-path="url(#y)"></path><path fill="#67868d" d="M9.17 33.455h.019v.907H9.17z" clip-path="url(#y)"></path><path fill="#68878e" d="M9.189 33.455h.019v.907h-.019z" clip-path="url(#y)"></path><path fill="#69888f" d="M9.207 33.455h.019v.907h-.019z" clip-path="url(#y)"></path><path fill="#6a8990" d="M9.226 33.455h.019v.907h-.019z" clip-path="url(#y)"></path><path fill="#6b8991" d="M9.245 33.455h.019v.907h-.019z" clip-path="url(#y)"></path><path fill="#6c8a92" d="M9.264 33.455h.019v.907h-.019z" clip-path="url(#y)"></path><path fill="#6d8b93" d="M9.283 33.455h.019v.907h-.019z" clip-path="url(#y)"></path><path fill="#6e8c94" d="M9.302 33.455h.019v.907h-.019z" clip-path="url(#y)"></path><path fill="#6f8d94" d="M9.321 33.455h.019v.907h-.019z" clip-path="url(#y)"></path><path fill="#708e95" d="M9.34 33.455h.019v.907H9.34z" clip-path="url(#y)"></path><path fill="#718f96" d="M9.359 33.455h.019v.907h-.019z" clip-path="url(#y)"></path><path fill="#729097" d="M9.378 33.455h.019v.907h-.019z" clip-path="url(#y)"></path><path fill="#739198" d="M9.397 33.455h.019v.907h-.019z" clip-path="url(#y)"></path><path fill="#749299" d="M9.416 33.455h.019v.907h-.019z" clip-path="url(#y)"></path><path fill="#75939a" d="M9.434 33.455h.019v.907h-.019z" clip-path="url(#y)"></path><path fill="#76949b" d="M9.453 33.455h.019v.907h-.019zM9.472 33.455h.018v.907h-.018z" clip-path="url(#y)"></path><defs><path id="z" d="M17.326 25.803a.183.183 0 0 1-.13-.313l.522-.523a.183.183 0 1 1 .26.26l-.522.522a.183.183 0 0 1-.13.054z"></path></defs><clipPath id="A"><use overflow="visible" xlink:href="#z"></use></clipPath><path fill="#476870" d="M17.124 24.895h.018v.907h-.018zM17.142 24.895h.019v.907h-.019z" clip-path="url(#A)"></path><path fill="#486971" d="M17.161 24.895h.019v.907h-.019z" clip-path="url(#A)"></path><path fill="#496a72" d="M17.18 24.895h.019v.907h-.019z" clip-path="url(#A)"></path><path fill="#4a6b73" d="M17.199 24.895h.019v.907h-.019z" clip-path="url(#A)"></path><path fill="#4b6c74" d="M17.218 24.895h.019v.907h-.019z" clip-path="url(#A)"></path><path fill="#4c6d75" d="M17.237 24.895h.019v.907h-.019z" clip-path="url(#A)"></path><path fill="#4d6e76" d="M17.256 24.895h.019v.907h-.019z" clip-path="url(#A)"></path><path fill="#4e6f77" d="M17.275 24.895h.019v.907h-.019z" clip-path="url(#A)"></path><path fill="#4f7077" d="M17.294 24.895h.019v.907h-.019z" clip-path="url(#A)"></path><path fill="#507178" d="M17.313 24.895h.019v.907h-.019z" clip-path="url(#A)"></path><path fill="#517279" d="M17.332 24.895h.019v.907h-.019z" clip-path="url(#A)"></path><path fill="#52737a" d="M17.35 24.895h.019v.907h-.019z" clip-path="url(#A)"></path><path fill="#53737b" d="M17.369 24.895h.019v.907h-.019z" clip-path="url(#A)"></path><path fill="#54747c" d="M17.388 24.895h.019v.907h-.019z" clip-path="url(#A)"></path><path fill="#55757d" d="M17.407 24.895h.019v.907h-.019z" clip-path="url(#A)"></path><path fill="#56767e" d="M17.426 24.895h.019v.907h-.019z" clip-path="url(#A)"></path><path fill="#57777f" d="M17.445 24.895h.019v.907h-.019z" clip-path="url(#A)"></path><path fill="#587880" d="M17.464 24.895h.019v.907h-.019z" clip-path="url(#A)"></path><path fill="#597981" d="M17.483 24.895h.019v.907h-.019z" clip-path="url(#A)"></path><path fill="#5a7a82" d="M17.502 24.895h.019v.907h-.019z" clip-path="url(#A)"></path><path fill="#5b7b83" d="M17.521 24.895h.019v.907h-.019z" clip-path="url(#A)"></path><path fill="#5c7c84" d="M17.54 24.895h.019v.907h-.019z" clip-path="url(#A)"></path><path fill="#5d7d85" d="M17.559 24.895h.019v.907h-.019z" clip-path="url(#A)"></path><path fill="#5f7e86" d="M17.577 24.895h.019v.907h-.019z" clip-path="url(#A)"></path><path fill="#607f86" d="M17.596 24.895h.019v.907h-.019z" clip-path="url(#A)"></path><path fill="#618087" d="M17.615 24.895h.019v.907h-.019z" clip-path="url(#A)"></path><path fill="#628188" d="M17.634 24.895h.019v.907h-.019z" clip-path="url(#A)"></path><path fill="#638289" d="M17.653 24.895h.019v.907h-.019z" clip-path="url(#A)"></path><path fill="#64838a" d="M17.672 24.895h.019v.907h-.019z" clip-path="url(#A)"></path><path fill="#65848b" d="M17.691 24.895h.019v.907h-.019z" clip-path="url(#A)"></path><path fill="#66858c" d="M17.71 24.895h.019v.907h-.019z" clip-path="url(#A)"></path><path fill="#67868d" d="M17.729 24.895h.019v.907h-.019z" clip-path="url(#A)"></path><path fill="#68878e" d="M17.748 24.895h.019v.907h-.019z" clip-path="url(#A)"></path><path fill="#69888f" d="M17.767 24.895h.019v.907h-.019z" clip-path="url(#A)"></path><path fill="#6a8990" d="M17.786 24.895h.019v.907h-.019z" clip-path="url(#A)"></path><path fill="#6b8991" d="M17.805 24.895h.019v.907h-.019z" clip-path="url(#A)"></path><path fill="#6c8a92" d="M17.823 24.895h.019v.907h-.019z" clip-path="url(#A)"></path><path fill="#6d8b93" d="M17.842 24.895h.019v.907h-.019z" clip-path="url(#A)"></path><path fill="#6e8c94" d="M17.861 24.895h.019v.907h-.019z" clip-path="url(#A)"></path><path fill="#6f8d94" d="M17.88 24.895h.019v.907h-.019z" clip-path="url(#A)"></path><path fill="#708e95" d="M17.899 24.895h.019v.907h-.019z" clip-path="url(#A)"></path><path fill="#718f96" d="M17.918 24.895h.019v.907h-.019z" clip-path="url(#A)"></path><path fill="#729097" d="M17.937 24.895h.019v.907h-.019z" clip-path="url(#A)"></path><path fill="#739198" d="M17.956 24.895h.019v.907h-.019z" clip-path="url(#A)"></path><path fill="#749299" d="M17.975 24.895h.019v.907h-.019z" clip-path="url(#A)"></path><path fill="#75939a" d="M17.994 24.895h.019v.907h-.019z" clip-path="url(#A)"></path><path fill="#76949b" d="M18.013 24.895h.019v.907h-.019zM18.032 24.895h.018v.907h-.018z" clip-path="url(#A)"></path><path fill="#31bfff" d="M14.481 29.633c0 .65-.527 1.179-1.17 1.179-.65 0-1.178-.528-1.178-1.179a1.175 1.175 0 0 1 2.348 0z"></path><linearGradient id="B" x1="33.484" x2="35.454" y1="20.425" y2="20.425" gradientUnits="userSpaceOnUse"><stop offset="0" stop-color="#476870"></stop><stop offset="1" stop-color="#76949b"></stop></linearGradient><path fill="url(#B)" d="M35.454 19.597v1.656a.28.28 0 0 1-.28.28h-1.41a.28.28 0 0 1-.28-.28v-1.656c0-.158.127-.28.28-.28h1.41c.154 0 .28.122.28.28z"></path><linearGradient id="C" x1="28.286" x2="30.251" y1="20.809" y2="20.809" gradientUnits="userSpaceOnUse"><stop offset="0" stop-color="#476870"></stop><stop offset="1" stop-color="#76949b"></stop></linearGradient><path fill="url(#C)" d="M30.25 20.366v.887a.28.28 0 0 1-.278.28h-1.407a.278.278 0 0 1-.279-.28v-.887c0-.158.121-.28.28-.28h1.406c.152 0 .279.122.279.28z"></path><linearGradient id="D" x1="30.883" x2="32.852" y1="19.988" y2="19.988" gradientUnits="userSpaceOnUse"><stop offset="0" stop-color="#476870"></stop><stop offset="1" stop-color="#76949b"></stop></linearGradient><path fill="url(#D)" d="M32.852 18.723v2.53a.28.28 0 0 1-.279.28h-1.411a.28.28 0 0 1-.28-.28v-2.53c0-.153.127-.28.28-.28h1.411c.153 0 .28.127.28.28z"></path><linearGradient id="E" x1="29.159" x2="34.543" y1="17.293" y2="17.293" gradientUnits="userSpaceOnUse"><stop offset="0" stop-color="#476870"></stop><stop offset="1" stop-color="#76949b"></stop></linearGradient><path fill="url(#E)" d="M34.543 17.372a.11.11 0 0 1-.11.024l-2.549-.854-2.556 1.712a.109.109 0 0 1-.12-.18l2.6-1.742a.11.11 0 0 1 .095-.012l2.538.85"></path><linearGradient id="F" x1="33.838" x2="35.098" y1="17.167" y2="17.167" gradientUnits="userSpaceOnUse"><stop offset="0" stop-color="#476870"></stop><stop offset="1" stop-color="#76949b"></stop></linearGradient><circle cx="34.468" cy="17.167" r=".63" fill="url(#F)"></circle><linearGradient id="G" x1="31.238" x2="32.498" y1="16.443" y2="16.443" gradientUnits="userSpaceOnUse"><stop offset="0" stop-color="#476870"></stop><stop offset="1" stop-color="#76949b"></stop></linearGradient><circle cx="31.868" cy="16.443" r=".63" fill="url(#G)"></circle><linearGradient id="H" x1="28.638" x2="29.898" y1="18.163" y2="18.163" gradientUnits="userSpaceOnUse"><stop offset="0" stop-color="#476870"></stop><stop offset="1" stop-color="#76949b"></stop></linearGradient><circle cx="29.268" cy="18.163" r=".63" fill="url(#H)"></circle></svg>