<svg xmlns="http://www.w3.org/2000/svg" enable-background="new 0 0 50 50" viewBox="0 0 50 50" id="Copywriting"><path d="M45.8 7.7h-2.5 0V3.1c0-.6-.4-1-1-1h-5.2c-.6 0-1 .4-1 1v4.7h0c-.6 0-1 .4-1 1v31c0 0 0 0 0 0 0 .1.1.3.1.4 0 0 0 0 0 0l3.7 7.2c.2.3.5.5.9.5 0 0 0 0 0 0 .4 0 .7-.2.9-.6l3.5-7.2c0 0 0 0 0 0 0-.1.1-.3.1-.4v-30h1.5c.7 0 1.2.5 1.2 1.2v9.5c0 .6.4 1 1 1 .6 0 1-.4 1-1V11C49 9.2 47.6 7.7 45.8 7.7zM42.3 9.7v29h-5.2v-29h0H42.3L42.3 9.7zM38.1 4.1h3.2v3.7h-3.2V4.1zM39.7 44.7l-2-4h4L39.7 44.7zM2 47.9h28.4c.6 0 1-.4 1-1V3.1c0-.6-.4-1-1-1H11.3c0 0 0 0-.1 0-.1 0-.2 0-.3.1 0 0-.1 0-.1 0-.1 0-.2.1-.2.2l-9.3 7.9c0 0 0 0 0 0 0 0 0 .1-.1.1-.1.1-.1.1-.1.2 0 0 0 .1 0 .1C1 10.7 1 10.9 1 11c0 0 0 0 0 0v0c0 0 0 0 0 0v35.8C1 47.4 1.4 47.9 2 47.9zM29.4 45.9H3V12h8.3c.6 0 1-.4 1-1V4.1h17.1V45.9zM10.3 5.2V10H4.7L10.3 5.2z" fill="#052c55" class="color000000 svgShape"></path><path d="M7.9 15.6c-.6 0-1 .4-1 1s.4 1 1 1h16.6c.6 0 1-.4 1-1s-.4-1-1-1H7.9zM7.9 22.4h16.6c.6 0 1-.4 1-1 0-.6-.4-1-1-1H7.9c-.6 0-1 .4-1 1C6.9 21.9 7.4 22.4 7.9 22.4zM7.9 27.2h16.6c.6 0 1-.4 1-1s-.4-1-1-1H7.9c-.6 0-1 .4-1 1S7.4 27.2 7.9 27.2zM7.9 32h16.6c.6 0 1-.4 1-1 0-.6-.4-1-1-1H7.9c-.6 0-1 .4-1 1C6.9 31.5 7.4 32 7.9 32zM24.5 34.8H7.9c-.6 0-1 .4-1 1 0 .6.4 1 1 1h16.6c.6 0 1-.4 1-1C25.5 35.2 25.1 34.8 24.5 34.8z" fill="#052c55" class="color000000 svgShape"></path></svg>