<svg xmlns="http://www.w3.org/2000/svg" width="512" height="512" id="design-process"><path fill="#526471" d="M311.45 462.38h-108.9l9.87-47.88 4.14-20.09h80.88l4.14 20.09z"></path><path fill="#ECEFF0" d="M393.63 260.08c-3.89 2.75-7.16 3.97-7.16 3.97s-3.53-1.32-7.61-4.29c-10.43-7.61-24.45-26.05 7.61-61.03 32.52 35.49 17.62 53.95 7.16 61.35z"></path><path fill="#DD6475" d="M394.62 260.34c14.91 29.29 12.56 62.23 7.21 86.39v2h-30.74v-2c-5.34-24.16-7.69-57.1 7.21-86.39l.56-.58c4.08 2.97 7.61 4.29 7.61 4.29s3.27-1.22 7.16-3.97l.99.26z"></path><path d="M401.83 346.73v2h-8.16v-2c5.16-23.32 7.53-54.82-5.72-83.33 1.32-.61 3.39-1.7 5.68-3.32l.99.26c14.91 29.29 12.56 62.23 7.21 86.39z" opacity=".2"></path><path fill="#303C44" d="M165.49 168.9v.41a9.5 9.5 0 0 1-6.9 9.14c-.83.24-1.7.37-2.61.37H96.37c-.91 0-1.79-.13-2.62-.37a9.503 9.503 0 0 1-6.89-9.14v-.41c0-5.26 4.26-9.51 9.51-9.51h59.61c5.25 0 9.51 4.25 9.51 9.51z"></path><path fill="#ECEFF0" d="M158.59 178.45v170.28H93.75V178.45c.83.24 1.71.37 2.62.37h59.61c.91 0 1.78-.13 2.61-.37z"></path><path fill="#FFC035" d="M199.26 202.59v-93.76h59v239.9h-59V221.17z"></path><path fill="#ECEFF0" d="m318.22 126.26 15 29.21h-30z"></path><path d="M333.22 155.47H328l-12.39-24.13 2.61-5.08z" opacity=".2"></path><path fill="#77D379" d="M318.22 346.73v2h-14.99V155.47h14.99zM333.23 346.73v2h-15.01V155.47h15.01z"></path><path fill="#007ECA" d="M461.19 74.4v274.33h-59.36v-2c5.35-24.16 7.7-57.1-7.21-86.39l-.99-.26c10.46-7.4 25.36-25.86-7.16-61.35-32.06 34.98-18.04 53.42-7.61 61.03l-.56.58c-14.9 29.29-12.55 62.23-7.21 86.39v2h-37.86V155.47h-.01l-12.19-23.73-2.81-5.48-8.75 17.04-6.25 12.17h.01v193.26h-44.97v-239.9h-59v239.9h-40.67V178.45a9.5 9.5 0 0 0 6.9-9.14v-.41c0-5.26-4.26-9.51-9.51-9.51H96.37c-5.25 0-9.51 4.25-9.51 9.51v.41c0 4.34 2.91 8.01 6.89 9.14v170.28H52.81V74.4h408.38z"></path><path fill="none" d="M297.44 394.41H461.7c12.33 0 22.41-10.08 22.41-22.4V72.02c0-12.32-10.09-22.4-22.41-22.4H52.3c-12.33 0-22.41 10.08-22.41 22.4v299.99c0 12.32 10.08 22.4 22.41 22.4h164.26"></path><path fill="none" d="M93.75 348.73H52.81V74.4h408.38v274.33h-302.6zM202.55 462.38l14.01-67.97h80.88l14.01 67.97"></path><path fill="#303C44" d="M350.71 466.38H163.29a4 4 0 0 1 0-8h187.42a4 4 0 0 1 0 8z"></path><path fill="none" d="M93.75 346.73V178.45M158.59 178.45v168.28M93.75 178.45a9.503 9.503 0 0 1-6.89-9.14v-.41c0-5.26 4.26-9.51 9.51-9.51h59.61c5.25 0 9.51 4.25 9.51 9.51v.41a9.5 9.5 0 0 1-6.9 9.14c-.83.24-1.7.37-2.61.37H96.37c-.91 0-1.79-.13-2.62-.37z"></path><path fill="#303C44" d="M158.59 248.13h-16.53a4 4 0 0 1 0-8h16.53a4 4 0 0 1 0 8zM158.59 230.9h-27.56a4 4 0 0 1 0-8h27.56a4 4 0 0 1 0 8z"></path><path fill="none" d="M199.26 346.73v-237.9h59v237.9"></path><path fill="#C98B0E" d="M228.76 280.59h-29.5a4 4 0 0 1 0-8h29.5a4 4 0 0 1 0 8zM217.59 299.17h-18.33a4 4 0 0 1 0-8h18.33a4 4 0 0 1 0 8zM228.76 317.75h-29.5a4 4 0 0 1 0-8h29.5a4 4 0 0 1 0 8zM217.59 336.33h-18.33a4 4 0 0 1 0-8h18.33a4 4 0 0 1 0 8zM228.76 134.26h-29.5a4 4 0 0 1 0-8h29.5a4 4 0 0 1 0 8zM217.59 150.85h-18.33a4 4 0 0 1 0-8h18.33a4 4 0 0 1 0 8zM228.76 169.43h-29.5a4 4 0 0 1 0-8h29.5a4 4 0 0 1 0 8zM217.59 188.01h-18.33a4 4 0 0 1 0-8h18.33a4 4 0 0 1 0 8zM228.76 206.59h-29.5a4 4 0 0 1 0-8h29.5a4 4 0 0 1 0 8zM217.59 225.17h-18.33a4 4 0 0 1 0-8h18.33a4 4 0 0 1 0 8zM228.76 243.75h-29.5a4 4 0 0 1 0-8h29.5a4 4 0 0 1 0 8zM217.59 262.33h-18.33a4 4 0 0 1 0-8h18.33a4 4 0 0 1 0 8z"></path><path fill="none" d="M333.23 346.73V155.47h-30v191.26M333.22 155.47l-15-29.21M303.22 155.47l15-29.21"></path><path fill="#303C44" d="M461.7 49.62H52.3c-12.33 0-22.41 10.08-22.41 22.4v299.99c0 12.32 10.08 22.4 22.41 22.4h409.4c12.33 0 22.41-10.08 22.41-22.4V72.02c0-12.32-10.09-22.4-22.41-22.4zM285.25 375.04h-56.49c-2.21 0-4-1.79-4-4s1.79-4 4-4h56.49c2.21 0 4 1.79 4 4s-1.79 4-4 4zm175.94-26.31H52.81V74.4h408.38v274.33z"></path><path d="M461.7 387.41H52.3c-12.33 0-22.41-10.08-22.41-22.4v7c0 12.32 10.08 22.4 22.41 22.4h409.4c12.33 0 22.41-10.08 22.41-22.4v-7c0 12.32-10.08 22.4-22.41 22.4z" opacity=".2"></path><path fill="#FFF" d="M461.7 49.62H52.3c-12.33 0-22.41 10.08-22.41 22.4v7c0-12.32 10.08-22.4 22.41-22.4h409.4c12.32 0 22.41 10.08 22.41 22.4v-7c0-12.32-10.09-22.4-22.41-22.4z" opacity=".2"></path><path fill="#ECEFF0" d="M289.25 371.04c0 2.21-1.79 4-4 4h-56.49c-2.21 0-4-1.79-4-4s1.79-4 4-4h56.49c2.21 0 4 1.79 4 4z"></path><path fill="#2D9637" d="M322.22 155.47v191.26c0 .73-.2 1.42-.53 2h-6.94c-.33-.58-.53-1.27-.53-2V155.47c0-2.21 1.79-4 4-4s4 1.79 4 4z"></path><path fill="none" d="M371.09 346.73c-5.34-24.16-7.69-57.1 7.21-86.39M394.62 260.34c14.91 29.29 12.56 62.23 7.21 86.39M386.47 264.05s-3.53-1.32-7.61-4.29c-10.43-7.61-24.45-26.05 7.61-61.03M386.47 264.05s3.27-1.22 7.16-3.97c10.46-7.4 25.36-25.86-7.16-61.35"></path><path d="M301.58 414.5h-89.16l4.14-20.09h80.88zM52.81 341.167h408.357v7.563H52.81z" opacity=".2"></path><path fill="#303C44" d="M162.59 330.27c0 2.21-1.79 4-4 4h-27.56c-2.21 0-4-1.79-4-4s1.79-4 4-4h27.56c2.21 0 4 1.79 4 4zM162.59 313.05c0 2.21-1.79 4-4 4h-16.53c-2.21 0-4-1.79-4-4s1.79-4 4-4h16.53c2.21 0 4 1.79 4 4zM162.59 295.82c0 2.21-1.79 4-4 4h-27.56c-2.21 0-4-1.79-4-4s1.79-4 4-4h27.56c2.21 0 4 1.79 4 4zM162.59 278.59c0 2.21-1.79 4-4 4h-16.53c-2.21 0-4-1.79-4-4s1.79-4 4-4h16.53c2.21 0 4 1.79 4 4zM162.59 261.36c0 2.21-1.79 4-4 4h-27.56c-2.21 0-4-1.79-4-4s1.79-4 4-4h27.56c2.21 0 4 1.79 4 4z"></path><path fill="#77D379" d="M127.03 261.36c0 2.21 1.79 4 4 4h27.56v9.23h-16.53c-2.21 0-4 1.79-4 4s1.79 4 4 4h16.53v9.23h-27.56c-2.21 0-4 1.79-4 4s1.79 4 4 4h27.56v9.23h-16.53c-2.21 0-4 1.79-4 4s1.79 4 4 4h16.53v9.22h-27.56c-2.21 0-4 1.79-4 4s1.79 4 4 4h27.56v14.46H93.75V246.09c6.55-4.12 15.4-7.15 25.75-4.26.93.26 1.85.54 2.75.83 14.11 4.52 24.54 12.05 36.34 9.42v5.28h-27.56c-2.21 0-4 1.79-4 4zM170.06 304.92c-.21.55-.3.65-.23.25.05-.27.13-.35.23-.25z"></path><circle cx="107.25" cy="317.75" r="10.58" fill="#2D9637" opacity=".5"></circle><circle cx="120.5" cy="276.59" r="10.58" fill="#2D9637" opacity=".5"></circle><circle cx="109.92" cy="253.01" r="4.42" fill="#2D9637" opacity=".5"></circle><circle cx="101.09" cy="285.01" r="4.42" fill="#2D9637" opacity=".5"></circle><circle cx="120.5" cy="303.59" r="4.42" fill="#2D9637" opacity=".5"></circle><circle cx="117.83" cy="337.84" r="4.42" fill="#2D9637" opacity=".5"></circle><linearGradient id="a" x1="122.25" x2="158.59" y1="263.59" y2="263.59" gradientUnits="userSpaceOnUse"><stop offset="0"></stop><stop offset="1" stop-color="#FFF" stop-opacity="0"></stop></linearGradient><path fill="url(#a)" d="M158.59 178.45v170.28h-36.34V178.82h33.73c.91 0 1.78-.13 2.61-.37z" opacity=".2"></path><linearGradient id="b" x1="228.76" x2="258.26" y1="228.78" y2="228.78" gradientUnits="userSpaceOnUse"><stop offset="0"></stop><stop offset="1" stop-color="#FFF" stop-opacity="0"></stop></linearGradient><path fill="url(#b)" d="M228.76 108.83h29.5v239.9h-29.5z" opacity=".1"></path><linearGradient id="c" x1="386.47" x2="406.294" y1="231.39" y2="231.39" gradientUnits="userSpaceOnUse"><stop offset="0"></stop><stop offset="1" stop-color="#FFF" stop-opacity="0"></stop></linearGradient><path fill="url(#c)" d="M393.63 260.08c-3.89 2.75-7.16 3.97-7.16 3.97v-65.32c32.52 35.49 17.62 53.95 7.16 61.35z" opacity=".1"></path><path d="M328 155.47h5.22v193.26H328z" opacity=".2"></path><path fill="#FFF" d="m158.59 294.18 40.67-40.67v42.43l-40.67 40.67zM309.47 143.3l-6.25 12.17h.01v36.5l-44.97 44.97v-42.43zM333.23 161.97v-6.5h-.01l-12.19-23.73 57.34-57.34h42.43zM181.12 348.73l18.14-18.14v18.14zM258.26 271.59l44.97-44.97v21.21l-44.97 44.97zM461.19 74.4v15.47L333.23 217.83v-21.21L455.45 74.4zM258.26 306.47l44.97-44.97v6.5l-44.97 44.97zM461.19 103.54v6.5L333.23 238v-6.5z" opacity=".2"></path></svg>